<svg width="16" height="16" viewBox="0 0 16 16" fill="none" xmlns="http://www.w3.org/2000/svg">
<g clip-path="url(#clip0_2979_35722)">
<path d="M10.6693 14.6852V12.7718C10.6943 12.454 10.6514 12.1344 10.5433 11.8344C10.4353 11.5344 10.2646 11.2608 10.0427 11.0318C12.136 10.7985 14.336 10.0052 14.336 6.36518C14.3358 5.4344 13.9778 4.53931 13.336 3.86518C13.6399 3.05085 13.6184 2.15075 13.276 1.35185C13.276 1.35185 12.4893 1.11851 10.6693 2.33851C9.14133 1.92439 7.53065 1.92439 6.00266 2.33851C4.18266 1.11851 3.39599 1.35185 3.39599 1.35185C3.05357 2.15075 3.03208 3.05085 3.33599 3.86518C2.68941 4.54431 2.331 5.44749 2.33599 6.38518C2.33599 9.99851 4.53599 10.7918 6.62932 11.0518C6.40999 11.2785 6.24083 11.5488 6.13286 11.8451C6.02489 12.1415 5.98053 12.4572 6.00266 12.7718V14.6852" stroke="#687076" stroke-width="1.5" stroke-linecap="round" stroke-linejoin="round"/>
<path d="M6.0026 13.3516C4.0026 14.0004 2.33594 13.3516 1.33594 11.3516" stroke="#687076" stroke-width="1.5" stroke-linecap="round" stroke-linejoin="round"/>
</g>
<defs>
<clipPath id="clip0_2979_35722">
<rect width="16" height="16" fill="white"/>
</clipPath>
</defs>
</svg>
