<svg width="197" height="51" viewBox="0 0 197 51" fill="none" xmlns="http://www.w3.org/2000/svg">
<g filter="url(#filter0_d_84_270)">
<path d="M129.011 16.7688H130.845V29.9179H129.011V16.7688Z" fill="white"/>
<path d="M134.246 29.7493C133.686 29.514 133.262 29.1862 132.975 28.7675C132.688 28.3489 132.545 27.8669 132.545 27.3233C132.545 26.3756 132.883 25.6648 133.558 25.191C134.233 24.7171 135.137 24.4461 136.268 24.3796L139.835 24.1508V23.8749C139.835 23.2096 139.614 22.7082 139.169 22.3756C138.726 22.0429 138.101 21.8757 137.295 21.8757H136.993C136.363 21.8757 135.838 21.9958 135.416 22.2376C134.994 22.4794 134.749 22.8169 134.682 23.2502H132.811C132.871 22.6936 133.092 22.1954 133.471 21.7557C133.85 21.3159 134.359 20.9703 134.999 20.7187C135.638 20.4688 136.354 20.3439 137.149 20.3439C138.11 20.3439 138.927 20.4932 139.606 20.7934C140.284 21.0936 140.798 21.5122 141.146 22.0494C141.494 22.5865 141.668 23.208 141.668 23.9107V27.8539C141.668 28.1347 141.681 28.4673 141.706 28.8487C141.73 29.23 141.764 29.587 141.806 29.9165H140.053C140.016 29.7152 139.987 29.4442 139.963 29.1051C139.938 28.7659 139.925 28.5403 139.925 28.4316C139.779 28.7188 139.531 28.9915 139.182 29.2479C138.833 29.5042 138.408 29.712 137.908 29.8678C137.407 30.0236 136.86 30.1014 136.266 30.1014C135.477 30.1014 134.804 29.9846 134.244 29.7493H134.246ZM136.715 28.5696C137.235 28.5696 137.733 28.4884 138.21 28.3261C138.687 28.1638 139.077 27.9156 139.38 27.5829C139.682 27.2503 139.832 26.8381 139.832 26.3496V25.5789L136.861 25.7444C135.982 25.7996 135.353 25.9504 134.972 26.1987C134.593 26.447 134.403 26.7894 134.403 27.2308C134.403 27.6463 134.569 27.974 134.9 28.2125C135.229 28.4511 135.745 28.5696 136.449 28.5696H136.715Z" fill="white"/>
<path d="M147.273 29.6761C146.604 29.3921 146.088 29.014 145.728 28.5434V29.9195H143.895V16.7688H145.728V21.9583C145.93 21.6516 146.215 21.3774 146.585 21.1324C146.955 20.8873 147.379 20.6958 147.859 20.5547C148.34 20.4135 148.839 20.3437 149.359 20.3437C150.355 20.3437 151.232 20.5303 151.995 20.9035C152.756 21.2768 153.352 21.8285 153.784 22.5587C154.215 23.289 154.431 24.1767 154.431 25.2217C154.431 26.2667 154.215 27.0846 153.784 27.8213C153.353 28.558 152.752 29.1211 151.978 29.5122C151.203 29.9033 150.319 30.0997 149.323 30.0997C148.626 30.0997 147.943 29.9568 147.273 29.6729V29.6761ZM149.359 28.5694C149.988 28.5694 150.546 28.4396 151.032 28.18C151.518 27.9203 151.895 27.5373 152.164 27.0343C152.434 26.5296 152.568 25.9259 152.568 25.2233C152.568 24.5207 152.434 23.917 152.164 23.4123C151.895 22.9076 151.518 22.5263 151.032 22.2667C150.546 22.007 149.988 21.8772 149.359 21.8772H149.092C148.451 21.8772 147.877 22.007 147.369 22.2667C146.861 22.5263 146.462 22.9093 146.168 23.4123C145.874 23.917 145.728 24.5207 145.728 25.2233C145.728 25.9259 145.874 26.5296 146.168 27.0343C146.462 27.5389 146.863 27.9203 147.369 28.18C147.877 28.4396 148.451 28.5694 149.092 28.5694H149.359Z" fill="white"/>
<path d="M157.607 29.7249C156.943 29.475 156.433 29.1179 156.075 28.6571C155.718 28.1962 155.519 27.6477 155.484 27.0116H157.363C157.407 27.5196 157.662 27.9058 158.129 28.1719C158.596 28.438 159.179 28.5711 159.877 28.5711H160.143C160.888 28.5711 161.467 28.477 161.876 28.2871C162.287 28.0972 162.491 27.8035 162.491 27.4076C162.491 27.2064 162.436 27.0312 162.325 26.8851C162.215 26.739 162.025 26.6076 161.757 26.4908C161.489 26.3739 161.118 26.2701 160.648 26.1792L159.088 25.8855C158.043 25.6843 157.256 25.3792 156.727 24.9735C156.198 24.5678 155.934 23.982 155.934 23.2177C155.934 22.6189 156.114 22.1029 156.475 21.668C156.836 21.2331 157.326 20.9053 157.943 20.6813C158.559 20.4574 159.247 20.347 160.005 20.347C161.43 20.347 162.522 20.6197 163.283 21.1682C164.044 21.715 164.461 22.4712 164.536 23.4367H162.655C162.624 23.143 162.509 22.8785 162.306 22.6432C162.105 22.4079 161.821 22.2213 161.454 22.0834C161.087 21.9454 160.649 21.8773 160.143 21.8773H159.877C159.216 21.8773 158.704 21.986 158.34 22.2035C157.976 22.4209 157.795 22.7065 157.795 23.0603C157.795 23.255 157.845 23.4189 157.946 23.5503C158.046 23.6818 158.23 23.7986 158.496 23.9025C158.762 24.0063 159.145 24.107 159.647 24.2043L161.113 24.4883C162.165 24.6895 162.965 25.0075 163.517 25.4424C164.067 25.8757 164.342 26.4908 164.342 27.2859C164.342 27.849 164.169 28.3423 163.82 28.7674C163.473 29.1926 162.972 29.5204 162.32 29.7541C161.67 29.9861 160.898 30.103 160.005 30.103C159.113 30.103 158.27 29.978 157.608 29.7265L157.607 29.7249Z" fill="white"/>
<path d="M40.3117 16.738C35.7291 16.738 32 20.4671 32 25.0497C32 29.6323 35.7291 33.3614 40.3117 33.3614C44.8943 33.3614 48.6234 29.6323 48.6234 25.0497C48.6234 20.4671 44.8959 16.738 40.3117 16.738ZM40.3117 31.6007C36.6995 31.6007 33.7623 28.662 33.7623 25.0514C33.7623 21.4407 36.7011 18.5003 40.3117 18.5003C43.9223 18.5003 46.8611 21.4391 46.8611 25.0497C46.8611 28.6603 43.9223 31.5991 40.3117 31.5991V31.6007Z" fill="white"/>
<path d="M42.7945 25.0497C42.7945 25.4197 42.7134 25.7734 42.5674 26.0882H38.0578C37.9117 25.7734 37.8306 25.4197 37.8306 25.0497C37.8306 24.6797 37.9117 24.3259 38.0578 24.0111H42.5674C42.7134 24.3259 42.7945 24.6797 42.7945 25.0497Z" fill="white"/>
<path d="M40.3134 22.5669C41.3146 22.5669 42.1763 23.1592 42.5674 24.0111H44.7646C44.294 21.9892 42.4765 20.4784 40.315 20.4784C38.1535 20.4784 36.3344 21.9892 35.8622 24.0111H38.0594C38.4521 23.1592 39.3138 22.5669 40.315 22.5669H40.3134ZM40.3134 27.5341C39.3121 27.5341 38.4505 26.9418 38.0578 26.0898H35.8606C36.3312 28.1118 38.1487 29.6225 40.3134 29.6225C42.4782 29.6225 44.2924 28.1118 44.763 26.0898H42.5658C42.1747 26.9418 41.313 27.5341 40.3118 27.5341H40.3134Z" fill="white"/>
<path d="M64.6237 26.0072H57.0131C57.1656 26.6789 57.4836 27.195 57.9672 27.552C58.4508 27.909 59.0042 28.0892 59.6273 28.0892H59.8934C60.4257 28.0892 60.8735 27.9902 61.2371 27.7905C61.6005 27.5926 61.8472 27.3086 61.9754 26.9418H64.515C64.3982 27.5845 64.1239 28.1427 63.6891 28.6198C63.2541 29.0968 62.704 29.462 62.0338 29.7151C61.3653 29.9683 60.6204 30.0948 59.801 30.0948C58.7672 30.0948 57.8455 29.9066 57.0325 29.5301C56.2195 29.1536 55.5785 28.5954 55.1112 27.8522C54.6439 27.109 54.4102 26.2067 54.4102 25.1422C54.4102 24.1329 54.6601 23.2663 55.1615 22.5377C55.6629 21.8107 56.3185 21.2622 57.1283 20.8923C57.9381 20.5223 58.798 20.3373 59.7101 20.3373C60.7194 20.3373 61.5924 20.5288 62.3324 20.9101C63.0724 21.2915 63.6387 21.8351 64.0331 22.5377C64.4273 23.2404 64.6237 24.0631 64.6237 25.0043V26.0039V26.0072ZM62.0095 24.0907C61.9722 23.4919 61.7531 23.0521 61.349 22.7698C60.945 22.489 60.4354 22.3479 59.8172 22.3479H59.551C58.897 22.3479 58.3583 22.5004 57.9331 22.8071C57.508 23.1122 57.2159 23.5406 57.0569 24.0907H62.0079H62.0095Z" fill="white"/>
<path d="M65.5048 20.5239H68.0087V21.9C68.3267 21.4408 68.7583 21.0675 69.3068 20.7771C69.8537 20.4866 70.5272 20.3422 71.3288 20.3422C72.2083 20.3422 72.9499 20.5061 73.552 20.8322C74.154 21.16 74.6052 21.6128 74.9037 22.1937C75.2023 22.7747 75.3532 23.4432 75.3532 24.201V29.9131H72.8493V24.6587C72.8493 23.943 72.6919 23.3799 72.3771 22.9661C72.0623 22.554 71.5868 22.3479 70.9507 22.3479H70.6943C70.2302 22.3479 69.7904 22.4663 69.3783 22.7049C68.9661 22.9434 68.6335 23.2777 68.3835 23.7094C68.1336 24.141 68.007 24.6311 68.007 25.1812V29.9131H65.5032V20.5239H65.5048Z" fill="white"/>
<path d="M86.1428 20.5239L81.8247 29.9131H79.2299L74.9475 20.5239H77.6347L80.5411 27.0798L83.5124 20.5239H86.1444H86.1428Z" fill="white"/>
<path d="M88.8465 20.5239H86.3425V29.9131H88.8465V20.5239Z" fill="white"/>
<path d="M88.8447 16.738H86.3408V19.2419H88.8447V16.738Z" fill="white"/>
<path d="M91.7575 29.6988C91.0663 29.4327 90.5357 29.0546 90.1624 28.5613C89.7892 28.0696 89.5847 27.487 89.5474 26.8152H92.0789C92.1162 27.2371 92.3239 27.5552 92.702 27.7694C93.0801 27.9835 93.5539 28.0906 94.1235 28.0906H94.3896C95.6424 28.0906 96.2688 27.8343 96.2688 27.3199C96.2688 27.1236 96.1698 26.9645 95.9702 26.8379C95.7706 26.713 95.412 26.5978 94.8927 26.4939L93.3332 26.1921C92.2265 25.9714 91.3941 25.6387 90.8342 25.1925C90.2744 24.7462 89.9953 24.1052 89.9953 23.2663C89.9953 22.6545 90.1835 22.1271 90.56 21.6841C90.9365 21.2411 91.446 20.9068 92.0918 20.6796C92.736 20.454 93.4598 20.3405 94.2598 20.3405C95.7641 20.3405 96.9049 20.6293 97.6838 21.207C98.4627 21.7847 98.8928 22.5896 98.9723 23.6233H96.4327C96.3953 23.25 96.199 22.945 95.842 22.7064C95.485 22.4679 94.9998 22.3494 94.388 22.3494H94.1219C93.6091 22.3494 93.2115 22.4159 92.9292 22.5458C92.6484 22.6772 92.5072 22.8557 92.5072 23.0829C92.5072 23.2111 92.5462 23.3214 92.6224 23.4123C92.6987 23.5048 92.8367 23.5876 93.0347 23.6638C93.2326 23.7401 93.5214 23.8148 93.9012 23.8878L95.3584 24.1636C96.4716 24.3714 97.3187 24.7121 97.9029 25.186C98.487 25.6598 98.7792 26.3267 98.7792 27.1901C98.7792 27.7824 98.6087 28.2968 98.2696 28.73C97.9304 29.1633 97.4209 29.5009 96.7426 29.7394C96.0643 29.9779 95.2351 30.0964 94.2582 30.0964C93.2813 30.0964 92.4456 29.9633 91.7543 29.6972L91.7575 29.6988Z" fill="white"/>
<path d="M102.284 16.738H99.7803V19.2419H102.284V16.738Z" fill="white"/>
<path d="M102.284 20.5239H99.7803V29.9131H102.284V20.5239Z" fill="white"/>
<path d="M105.686 29.4959C104.852 29.0951 104.202 28.5272 103.737 27.7905C103.273 27.0537 103.041 26.1969 103.041 25.2184C103.041 24.2399 103.273 23.3831 103.737 22.6464C104.201 21.9096 104.852 21.3417 105.686 20.9409C106.52 20.5401 107.479 20.3405 108.56 20.3405C109.64 20.3405 110.591 20.5401 111.425 20.9409C112.259 21.3417 112.91 21.9096 113.379 22.6464C113.846 23.3831 114.08 24.2399 114.08 25.2184C114.08 26.1969 113.846 27.0537 113.379 27.7905C112.912 28.5272 112.261 29.0951 111.425 29.4959C110.591 29.8968 109.635 30.0964 108.56 30.0964C107.484 30.0964 106.52 29.8968 105.686 29.4959ZM108.689 28.089C109.239 28.089 109.732 27.9722 110.171 27.7401C110.607 27.5081 110.949 27.1754 111.198 26.7406C111.446 26.3073 111.569 25.7994 111.569 25.2184C111.569 24.6375 111.446 24.1312 111.198 23.6963C110.949 23.263 110.607 22.9287 110.171 22.6967C109.734 22.4646 109.239 22.3478 108.689 22.3478H108.433C107.877 22.3478 107.381 22.4646 106.948 22.6967C106.515 22.9287 106.174 23.2614 105.926 23.6963C105.677 24.1295 105.554 24.6375 105.554 25.2184C105.554 25.7994 105.677 26.3073 105.926 26.7406C106.174 27.1738 106.515 27.5081 106.948 27.7401C107.381 27.9722 107.878 28.089 108.433 28.089H108.689Z" fill="white"/>
<path d="M114.872 20.5239H117.376V21.9C117.694 21.4408 118.125 21.0675 118.674 20.7771C119.221 20.4866 119.894 20.3422 120.696 20.3422C121.576 20.3422 122.317 20.5061 122.919 20.8322C123.521 21.16 123.972 21.6128 124.271 22.1937C124.571 22.7747 124.72 23.4432 124.72 24.201V29.9131H122.216V24.6587C122.216 23.943 122.059 23.3799 121.744 22.9661C121.429 22.554 120.954 22.3479 120.318 22.3479H120.061C119.597 22.3479 119.157 22.4663 118.745 22.7049C118.333 22.9434 118 23.2777 117.75 23.7094C117.501 24.141 117.374 24.6311 117.374 25.1812V29.9131H114.87V20.5239H114.872Z" fill="white"/>
</g>
<defs>
<filter id="filter0_d_84_270" x="-2" y="-0.949463" width="201" height="54" filterUnits="userSpaceOnUse" color-interpolation-filters="sRGB">
<feFlood flood-opacity="0" result="BackgroundImageFix"/>
<feColorMatrix in="SourceAlpha" type="matrix" values="0 0 0 0 0 0 0 0 0 0 0 0 0 0 0 0 0 0 127 0" result="hardAlpha"/>
<feOffset dy="1"/>
<feGaussianBlur stdDeviation="1"/>
<feComposite in2="hardAlpha" operator="out"/>
<feColorMatrix type="matrix" values="0 0 0 0 0 0 0 0 0 0 0 0 0 0 0 0 0 0 0.05 0"/>
<feBlend mode="normal" in2="BackgroundImageFix" result="effect1_dropShadow_84_270"/>
<feBlend mode="normal" in="SourceGraphic" in2="effect1_dropShadow_84_270" result="shape"/>
</filter>
</defs>
</svg>
