<svg width="185" height="51" viewBox="0 0 185 51" fill="none" xmlns="http://www.w3.org/2000/svg">
<g filter="url(#filter0_d_84_207)">
<g clip-path="url(#clip0_84_207)">
<path d="M73.2531 26.577V18.7344H75.7523V31.4164H74.0234L67.4674 23.6425V31.4164H64.9683V18.7344H66.5773L73.2531 26.577ZM77.6204 26.7315C77.6204 25.3471 78.0883 24.186 79.0238 23.2478C79.9711 22.2868 81.1695 21.8062 82.6186 21.8062C84.0681 21.8062 85.266 22.2868 86.2133 23.2478C87.149 24.186 87.6169 25.3471 87.6169 26.7315C87.6169 28.1272 87.149 29.2941 86.2133 30.2323C85.266 31.1819 84.0681 31.6567 82.6186 31.6567C81.1695 31.6567 79.9711 31.1819 79.0238 30.2323C78.0883 29.2941 77.6204 28.1272 77.6204 26.7315ZM80.7699 28.6363C81.2605 29.1512 81.8769 29.4086 82.6186 29.4086C83.3375 29.4086 83.9483 29.1512 84.4505 28.6363C84.9523 28.0986 85.2034 27.4637 85.2034 26.7315C85.2034 25.9992 84.9523 25.3701 84.4505 24.8437C83.9483 24.3289 83.3375 24.0715 82.6186 24.0715C81.8769 24.0715 81.2605 24.3289 80.7699 24.8437C80.2793 25.3471 80.0338 25.9764 80.0338 26.7315C80.0338 27.4751 80.2793 28.11 80.7699 28.6363ZM96.2837 23.1448V18.374H98.6972V31.4164H96.3348V30.2666C95.5819 31.1819 94.6175 31.6395 93.4423 31.6395C92.1069 31.6395 91.0055 31.1762 90.1385 30.2495C89.2594 29.2999 88.8204 28.1272 88.8204 26.7315C88.8204 25.3471 89.2594 24.1802 90.1385 23.2306C91.0287 22.2925 92.1297 21.8234 93.4423 21.8234C94.5604 21.8234 95.5077 22.2639 96.2837 23.1448ZM96.4035 26.7315C96.4035 25.9764 96.164 25.3414 95.6845 24.8266C95.205 24.3003 94.5831 24.0372 93.8187 24.0372C93.0542 24.0372 92.4263 24.3003 91.9357 24.8266C91.4567 25.3414 91.2167 25.9764 91.2167 26.7315C91.2167 27.498 91.4567 28.1444 91.9357 28.6706C92.4263 29.1855 93.0542 29.4429 93.8187 29.4429C94.5831 29.4429 95.205 29.1855 95.6845 28.6706C96.164 28.1444 96.4035 27.498 96.4035 26.7315ZM109.94 26.5255C109.94 26.8116 109.911 27.1662 109.854 27.5895H102.853C103.195 28.9166 104.103 29.5802 105.575 29.5802C106.659 29.5802 107.663 29.2656 108.588 28.6363L109.546 30.3353C108.359 31.1933 107.001 31.6224 105.472 31.6224C103.84 31.6224 102.585 31.1475 101.706 30.198C100.839 29.2598 100.405 28.1044 100.405 26.7315C100.405 25.3014 100.856 24.1286 101.757 23.2135C102.659 22.2868 103.829 21.8234 105.267 21.8234C106.625 21.8234 107.743 22.2467 108.621 23.0933C109.5 23.9399 109.94 25.084 109.94 26.5255ZM105.267 23.8312C104.662 23.8312 104.142 24.0085 103.709 24.3632C103.287 24.7064 103.001 25.1813 102.853 25.7876H107.595C107.481 25.1813 107.218 24.7064 106.807 24.3632C106.396 24.0085 105.883 23.8312 105.267 23.8312ZM115.455 31.6224C114.462 31.6224 113.544 31.4164 112.699 31.0046C111.855 30.5927 111.176 30.0092 110.662 29.2541L112.117 27.4865C112.962 28.665 114.08 29.2541 115.472 29.2541C115.997 29.2541 116.431 29.1283 116.773 28.8766C117.116 28.6248 117.287 28.2988 117.287 27.8984C117.287 27.3721 116.904 26.9317 116.14 26.577C116.049 26.5312 115.632 26.3654 114.89 26.0793C114.308 25.8505 113.812 25.6217 113.401 25.3929C112.066 24.6263 111.398 23.5738 111.398 22.2353C111.398 21.1713 111.798 20.2904 112.596 19.5924C113.407 18.8831 114.445 18.5285 115.712 18.5285C117.355 18.5285 118.741 19.1005 119.871 20.2446L118.519 22.098C118.177 21.7319 117.749 21.4458 117.235 21.2399C116.733 21.0225 116.237 20.9138 115.746 20.9138C115.244 20.9138 114.845 21.0283 114.548 21.2571C114.263 21.4745 114.12 21.7662 114.12 22.1323C114.12 22.6242 114.462 23.0418 115.147 23.385L116.397 23.9342C117.104 24.2316 117.618 24.4547 117.937 24.6035C119.375 25.3014 120.094 26.3539 120.094 27.7611C120.094 28.8938 119.666 29.8205 118.81 30.5412C117.954 31.262 116.836 31.6224 115.455 31.6224ZM124.194 31.4164H121.78V18.374H124.125V23.2821C124.376 22.8473 124.77 22.4927 125.306 22.2181C125.842 21.9435 126.43 21.8062 127.069 21.8062C128.073 21.8062 128.929 22.1438 129.637 22.8188C130.344 23.4937 130.698 24.4547 130.698 25.7018V31.4164H128.285V26.3539C128.285 25.6217 128.108 25.0553 127.754 24.655C127.412 24.2431 126.938 24.0372 126.333 24.0372C125.694 24.0372 125.175 24.2603 124.775 24.7064C124.388 25.1412 124.194 25.7075 124.194 26.4054V31.4164ZM135.501 19.5238C135.501 19.9471 135.359 20.3018 135.074 20.5878C134.788 20.8738 134.434 21.0168 134.012 21.0168C133.59 21.0168 133.236 20.8738 132.951 20.5878C132.666 20.3018 132.523 19.9471 132.523 19.5238C132.523 19.1005 132.666 18.7516 132.951 18.477C133.236 18.191 133.59 18.048 134.012 18.048C134.434 18.048 134.788 18.191 135.074 18.477C135.359 18.7516 135.501 19.1005 135.501 19.5238ZM135.21 22.0636V31.4164H132.797V22.0636H135.21ZM142.324 20.1073C141.765 20.1073 141.337 20.2503 141.04 20.5363C140.743 20.8109 140.595 21.2113 140.595 21.7376V22.0636H143.487V24.0886H140.595V31.4164H138.181V24.0886H136.743V22.0636H138.181V21.6861C138.181 20.4734 138.53 19.5524 139.225 18.9232C139.933 18.2825 140.846 17.9622 141.964 17.9622C142.889 17.9622 143.773 18.191 144.618 18.6486L143.83 20.502C143.237 20.2388 142.735 20.1073 142.324 20.1073ZM150.773 28.9624L151.492 30.8673C150.717 31.3821 149.797 31.6395 148.736 31.6395C147.664 31.6395 146.854 31.3306 146.306 30.7128C145.758 30.0835 145.484 29.1626 145.484 27.9499V24.0886H143.961V22.0636H145.501V18.7516H147.898V22.0636H150.98V24.0886H147.898V27.7955C147.898 28.8938 148.337 29.4429 149.216 29.4429C149.696 29.4429 150.215 29.2828 150.773 28.9624Z" fill="white"/>
<path fill-rule="evenodd" clip-rule="evenodd" d="M45.2076 12.0547C52.2253 12.0547 57.9103 17.8655 57.9103 25.0385C57.9103 32.2115 52.2253 38.0223 45.2076 38.0223H38.9093C45.9034 37.9861 51.5648 32.1874 51.5648 25.0385C51.5648 21.458 48.7223 18.5405 45.2076 18.5405C42.4359 18.5405 40.0887 20.3489 39.216 22.8806C38.7677 24.1704 37.5647 25.0385 36.2201 25.0385C35.1822 25.0385 34.2151 24.5201 33.6253 23.6642C33.0356 22.7962 32.8823 21.6991 33.2361 20.6985C34.9817 15.6593 39.6877 12.0547 45.2076 12.0547Z" fill="#D6D6D6"/>
<path fill-rule="evenodd" clip-rule="evenodd" d="M38.9093 38.0345C45.9035 38.0103 51.5648 32.1996 51.5648 25.0507H48.3921C46.6465 25.0507 45.2076 26.5093 45.2076 28.3057C45.2076 33.6824 40.9379 38.0465 35.6776 38.0465H38.9093V38.0345Z" fill="#FEFEFE"/>
<path fill-rule="evenodd" clip-rule="evenodd" d="M35.6776 38.0344C40.9379 38.0344 45.2075 33.6703 45.2075 28.2935H42.0348C40.2892 28.2935 38.8503 29.7522 38.8503 31.5485C38.8503 35.129 36.0078 38.0465 32.493 38.0465H35.6776V38.0344Z" fill="#D6D6D6"/>
<path fill-rule="evenodd" clip-rule="evenodd" d="M32.5049 38.0343C36.0079 38.0343 38.8621 35.129 38.8621 31.5364H35.6894C33.9438 31.5364 32.5049 32.9952 32.5049 34.7915V38.0343Z" fill="#ECECEC"/>
</g>
</g>
<defs>
<filter id="filter0_d_84_207" x="-1.50696" y="-0.949463" width="188.507" height="54" filterUnits="userSpaceOnUse" color-interpolation-filters="sRGB">
<feFlood flood-opacity="0" result="BackgroundImageFix"/>
<feColorMatrix in="SourceAlpha" type="matrix" values="0 0 0 0 0 0 0 0 0 0 0 0 0 0 0 0 0 0 127 0" result="hardAlpha"/>
<feOffset dy="1"/>
<feGaussianBlur stdDeviation="1"/>
<feComposite in2="hardAlpha" operator="out"/>
<feColorMatrix type="matrix" values="0 0 0 0 0 0 0 0 0 0 0 0 0 0 0 0 0 0 0.05 0"/>
<feBlend mode="normal" in2="BackgroundImageFix" result="effect1_dropShadow_84_207"/>
<feBlend mode="normal" in="SourceGraphic" in2="effect1_dropShadow_84_207" result="shape"/>
</filter>
<clipPath id="clip0_84_207">
<rect width="120.507" height="25.9917" fill="white" transform="translate(32.493 12.0547)"/>
</clipPath>
</defs>
</svg>
