<svg width="172" height="51" viewBox="0 0 172 51" fill="none" xmlns="http://www.w3.org/2000/svg">
<g filter="url(#filter0_d_84_202)">
<g clip-path="url(#clip0_84_202)">
<path d="M49.2465 9.28383C57.9397 9.28383 65.0015 16.3223 65.0015 25.0388C65.0015 33.7552 57.963 40.7937 49.2465 40.7937C40.53 40.7937 33.4916 33.7086 33.4916 25.0155C33.4916 16.3223 40.53 9.28383 49.2465 9.28383ZM49.2465 7.79224C46.9392 7.79224 44.6552 8.25836 42.5344 9.1673C40.4834 10.0529 38.6422 11.2882 37.0574 12.873C33.8179 16.0892 32 20.4708 32 25.0621C32 27.3694 32.4661 29.6534 33.3518 31.7742C34.2374 33.8019 35.4959 35.6663 37.0574 37.2512C40.297 40.4674 44.6785 42.2853 49.2465 42.3086C51.5538 42.3086 53.8378 41.8425 55.9587 40.9335C58.0096 40.0479 59.8508 38.8127 61.4356 37.2279C64.6752 33.9883 66.493 29.6068 66.493 25.0388C66.493 22.7315 66.0269 20.4475 65.1413 18.3266C64.2557 16.2757 63.0204 14.4345 61.4356 12.8497C59.8741 11.2648 58.0096 10.0063 55.9587 9.14399C53.8378 8.25836 51.5538 7.79224 49.2465 7.79224Z" fill="white"/>
<path d="M49.2465 11.1718C41.6021 11.1718 35.4027 17.3712 35.4027 25.0156C35.4027 32.66 41.6021 38.8594 49.2465 38.8594C56.8909 38.8594 63.0904 32.66 63.0904 25.0156C63.1137 17.3712 56.9142 11.1718 49.2465 11.1718ZM45.2612 23.3608L43.1403 25.4817H45.2612V27.789C45.2612 29.4204 43.9327 30.7489 42.3013 30.7489C40.6699 30.7489 39.3414 29.4204 39.3414 27.789V22.2888C39.3414 20.6573 40.6699 19.3289 42.3013 19.3289C43.9327 19.3289 45.2612 20.6573 45.2612 22.2888V23.3608ZM59.1982 25.4817V27.789C59.1982 29.4204 57.8698 30.7489 56.2384 30.7489C54.6069 30.7489 53.2785 29.4204 53.2785 27.789V22.2888C53.2785 20.6573 54.6069 19.3289 56.2384 19.3289C57.8698 19.3289 59.1982 20.6573 59.1982 22.2888V23.4075L57.0774 25.5283H59.1982V25.4817Z" fill="white"/>
</g>
<path d="M75.873 31.0505V19.4142H80.0207C80.926 19.4142 81.676 19.5789 82.2707 19.9085C82.8654 20.238 83.3105 20.6888 83.606 21.2608C83.9014 21.8289 84.0492 22.4691 84.0492 23.1812C84.0492 23.8971 83.8995 24.5411 83.6003 25.113C83.3048 25.6812 82.8579 26.132 82.2594 26.4653C81.6647 26.7949 80.9166 26.9596 80.0151 26.9596H77.1628V25.471H79.856C80.4279 25.471 80.892 25.3725 81.248 25.1755C81.6041 24.9748 81.8654 24.7021 82.0321 24.3574C82.1988 24.0127 82.2821 23.6206 82.2821 23.1812C82.2821 22.7418 82.1988 22.3517 82.0321 22.0108C81.8654 21.6699 81.6022 21.4028 81.2423 21.2096C80.8863 21.0164 80.4166 20.9199 79.8332 20.9199H77.6287V31.0505H75.873ZM88.4327 31.2437C87.8796 31.2437 87.3796 31.1414 86.9327 30.9369C86.4857 30.7286 86.1315 30.4274 85.8702 30.0335C85.6126 29.6396 85.4838 29.1566 85.4838 28.5846C85.4838 28.0922 85.5785 27.6869 85.7679 27.3687C85.9573 27.0505 86.213 26.7986 86.5349 26.613C86.8569 26.4274 87.2168 26.2873 87.6145 26.1926C88.0122 26.0979 88.4175 26.0259 88.8304 25.9767C89.3531 25.9161 89.7774 25.8668 90.1031 25.8289C90.4289 25.7873 90.6656 25.721 90.8134 25.6301C90.9611 25.5392 91.0349 25.3914 91.0349 25.1869V25.1471C91.0349 24.6509 90.8948 24.2664 90.6145 23.9937C90.338 23.721 89.9251 23.5846 89.3759 23.5846C88.8039 23.5846 88.3531 23.7115 88.0236 23.9653C87.6978 24.2153 87.4724 24.4937 87.3474 24.8005L85.7509 24.4369C85.9402 23.9066 86.2168 23.4786 86.5804 23.1528C86.9478 22.8233 87.3702 22.5846 87.8474 22.4369C88.3247 22.2854 88.8266 22.2096 89.3531 22.2096C89.7016 22.2096 90.0709 22.2513 90.4611 22.3346C90.855 22.4142 91.2224 22.5619 91.5634 22.7778C91.9081 22.9937 92.1902 23.3024 92.4099 23.7039C92.6296 24.1017 92.7395 24.6187 92.7395 25.2551V31.0505H91.0804V29.8574H91.0122C90.9024 30.0771 90.7376 30.293 90.5179 30.5051C90.2982 30.7172 90.016 30.8933 89.6713 31.0335C89.3266 31.1736 88.9137 31.2437 88.4327 31.2437ZM88.802 29.8801C89.2717 29.8801 89.6732 29.7873 90.0065 29.6017C90.3437 29.4161 90.5993 29.1736 90.7736 28.8744C90.9516 28.5714 91.0406 28.2475 91.0406 27.9028V26.7778C90.98 26.8384 90.8626 26.8952 90.6884 26.9483C90.5179 26.9975 90.3228 27.0411 90.1031 27.0789C89.8834 27.113 89.6694 27.1452 89.4611 27.1755C89.2527 27.2021 89.0785 27.2248 88.9384 27.2437C88.6088 27.2854 88.3077 27.3555 88.0349 27.4539C87.766 27.5524 87.5501 27.6945 87.3872 27.8801C87.2281 28.0619 87.1486 28.3043 87.1486 28.6074C87.1486 29.0278 87.3039 29.346 87.6145 29.5619C87.9251 29.774 88.3209 29.8801 88.802 29.8801ZM101.542 24.4539L100.002 24.7267C99.9379 24.5297 99.8356 24.3422 99.6955 24.1642C99.5591 23.9861 99.3735 23.8403 99.1386 23.7267C98.9038 23.613 98.6102 23.5562 98.258 23.5562C97.7769 23.5562 97.3754 23.6642 97.0534 23.8801C96.7314 24.0922 96.5705 24.3668 96.5705 24.7039C96.5705 24.9956 96.6784 25.2305 96.8943 25.4085C97.1102 25.5865 97.4587 25.7324 97.9398 25.846L99.3261 26.1642C100.129 26.3498 100.728 26.6358 101.122 27.0221C101.516 27.4085 101.713 27.9104 101.713 28.5278C101.713 29.0505 101.561 29.5164 101.258 29.9255C100.959 30.3308 100.54 30.649 100.002 30.8801C99.4682 31.1111 98.8489 31.2267 98.1443 31.2267C97.167 31.2267 96.3697 31.0183 95.7523 30.6017C95.1349 30.1812 94.7561 29.5846 94.6159 28.8119L96.258 28.5619C96.3602 28.9899 96.5705 29.3138 96.8886 29.5335C97.2068 29.7494 97.6216 29.8574 98.133 29.8574C98.6898 29.8574 99.1349 29.7418 99.4682 29.5108C99.8015 29.2759 99.9682 28.9899 99.9682 28.6528C99.9682 28.3801 99.8659 28.1509 99.6614 27.9653C99.4606 27.7797 99.1519 27.6396 98.7352 27.5449L97.258 27.221C96.4436 27.0354 95.8413 26.7399 95.4511 26.3346C95.0648 25.9293 94.8716 25.4161 94.8716 24.7949C94.8716 24.2797 95.0155 23.8289 95.3034 23.4426C95.5913 23.0562 95.989 22.7551 96.4966 22.5392C97.0042 22.3195 97.5856 22.2096 98.2409 22.2096C99.1841 22.2096 99.9265 22.4142 100.468 22.8233C101.01 23.2286 101.368 23.7721 101.542 24.4539ZM110.12 24.4539L108.58 24.7267C108.516 24.5297 108.414 24.3422 108.274 24.1642C108.137 23.9861 107.952 23.8403 107.717 23.7267C107.482 23.613 107.188 23.5562 106.836 23.5562C106.355 23.5562 105.954 23.6642 105.632 23.8801C105.31 24.0922 105.149 24.3668 105.149 24.7039C105.149 24.9956 105.257 25.2305 105.472 25.4085C105.688 25.5865 106.037 25.7324 106.518 25.846L107.904 26.1642C108.707 26.3498 109.306 26.6358 109.7 27.0221C110.094 27.4085 110.291 27.9104 110.291 28.5278C110.291 29.0505 110.139 29.5164 109.836 29.9255C109.537 30.3308 109.118 30.649 108.58 30.8801C108.046 31.1111 107.427 31.2267 106.722 31.2267C105.745 31.2267 104.948 31.0183 104.33 30.6017C103.713 30.1812 103.334 29.5846 103.194 28.8119L104.836 28.5619C104.938 28.9899 105.149 29.3138 105.467 29.5335C105.785 29.7494 106.2 29.8574 106.711 29.8574C107.268 29.8574 107.713 29.7418 108.046 29.5108C108.38 29.2759 108.546 28.9899 108.546 28.6528C108.546 28.3801 108.444 28.1509 108.239 27.9653C108.039 27.7797 107.73 27.6396 107.313 27.5449L105.836 27.221C105.022 27.0354 104.419 26.7399 104.029 26.3346C103.643 25.9293 103.45 25.4161 103.45 24.7949C103.45 24.2797 103.594 23.8289 103.882 23.4426C104.169 23.0562 104.567 22.7551 105.075 22.5392C105.582 22.3195 106.164 22.2096 106.819 22.2096C107.762 22.2096 108.505 22.4142 109.046 22.8233C109.588 23.2286 109.946 23.7721 110.12 24.4539ZM114.698 31.2437C114.145 31.2437 113.645 31.1414 113.198 30.9369C112.751 30.7286 112.397 30.4274 112.136 30.0335C111.878 29.6396 111.749 29.1566 111.749 28.5846C111.749 28.0922 111.844 27.6869 112.034 27.3687C112.223 27.0505 112.479 26.7986 112.801 26.613C113.123 26.4274 113.482 26.2873 113.88 26.1926C114.278 26.0979 114.683 26.0259 115.096 25.9767C115.619 25.9161 116.043 25.8668 116.369 25.8289C116.695 25.7873 116.931 25.721 117.079 25.6301C117.227 25.5392 117.301 25.3914 117.301 25.1869V25.1471C117.301 24.6509 117.16 24.2664 116.88 23.9937C116.604 23.721 116.191 23.5846 115.641 23.5846C115.07 23.5846 114.619 23.7115 114.289 23.9653C113.963 24.2153 113.738 24.4937 113.613 24.8005L112.016 24.4369C112.206 23.9066 112.482 23.4786 112.846 23.1528C113.213 22.8233 113.636 22.5846 114.113 22.4369C114.59 22.2854 115.092 22.2096 115.619 22.2096C115.967 22.2096 116.337 22.2513 116.727 22.3346C117.121 22.4142 117.488 22.5619 117.829 22.7778C118.174 22.9937 118.456 23.3024 118.676 23.7039C118.895 24.1017 119.005 24.6187 119.005 25.2551V31.0505H117.346V29.8574H117.278C117.168 30.0771 117.003 30.293 116.784 30.5051C116.564 30.7172 116.282 30.8933 115.937 31.0335C115.592 31.1736 115.179 31.2437 114.698 31.2437ZM115.068 29.8801C115.537 29.8801 115.939 29.7873 116.272 29.6017C116.609 29.4161 116.865 29.1736 117.039 28.8744C117.217 28.5714 117.306 28.2475 117.306 27.9028V26.7778C117.246 26.8384 117.128 26.8952 116.954 26.9483C116.784 26.9975 116.588 27.0411 116.369 27.0789C116.149 27.113 115.935 27.1452 115.727 27.1755C115.518 27.2021 115.344 27.2248 115.204 27.2437C114.874 27.2854 114.573 27.3555 114.301 27.4539C114.032 27.5524 113.816 27.6945 113.653 27.8801C113.494 28.0619 113.414 28.3043 113.414 28.6074C113.414 29.0278 113.57 29.346 113.88 29.5619C114.191 29.774 114.587 29.8801 115.068 29.8801ZM124.927 34.5051C124.234 34.5051 123.637 34.4142 123.137 34.2324C122.641 34.0505 122.236 33.81 121.921 33.5108C121.607 33.2115 121.372 32.8839 121.217 32.5278L122.677 31.9255C122.779 32.0922 122.916 32.2683 123.086 32.4539C123.26 32.6433 123.495 32.8043 123.791 32.9369C124.09 33.0695 124.474 33.1358 124.944 33.1358C125.588 33.1358 126.12 32.9786 126.541 32.6642C126.961 32.3536 127.171 31.8574 127.171 31.1755V29.4596H127.063C126.961 29.6452 126.813 29.8517 126.62 30.0789C126.431 30.3062 126.169 30.5032 125.836 30.6699C125.503 30.8365 125.069 30.9199 124.535 30.9199C123.846 30.9199 123.224 30.7589 122.671 30.4369C122.122 30.1111 121.686 29.632 121.364 28.9994C121.046 28.363 120.887 27.5808 120.887 26.6528C120.887 25.7248 121.044 24.9293 121.359 24.2664C121.677 23.6036 122.113 23.096 122.666 22.7437C123.219 22.3877 123.846 22.2096 124.546 22.2096C125.088 22.2096 125.525 22.3005 125.859 22.4824C126.192 22.6604 126.452 22.8687 126.637 23.1074C126.827 23.346 126.972 23.5562 127.075 23.738H127.2V22.3233H128.864V31.2437C128.864 31.9937 128.69 32.6092 128.342 33.0903C127.993 33.5714 127.522 33.9274 126.927 34.1585C126.336 34.3896 125.669 34.5051 124.927 34.5051ZM124.91 29.5108C125.399 29.5108 125.811 29.3971 126.149 29.1699C126.489 28.9388 126.747 28.6092 126.921 28.1812C127.099 27.7494 127.188 27.2324 127.188 26.6301C127.188 26.043 127.101 25.5259 126.927 25.0789C126.753 24.632 126.497 24.2835 126.16 24.0335C125.823 23.7797 125.406 23.6528 124.91 23.6528C124.399 23.6528 123.972 23.7854 123.632 24.0505C123.291 24.3119 123.033 24.668 122.859 25.1187C122.688 25.5695 122.603 26.0733 122.603 26.6301C122.603 27.2021 122.69 27.7039 122.864 28.1358C123.039 28.5676 123.296 28.9047 123.637 29.1471C123.982 29.3896 124.406 29.5108 124.91 29.5108ZM134.904 31.2267C134.044 31.2267 133.304 31.043 132.683 30.6755C132.065 30.3043 131.588 29.7835 131.251 29.113C130.918 28.4388 130.751 27.649 130.751 26.7437C130.751 25.8498 130.918 25.0619 131.251 24.3801C131.588 23.6983 132.058 23.1661 132.66 22.7835C133.266 22.4009 133.974 22.2096 134.785 22.2096C135.277 22.2096 135.755 22.2911 136.217 22.4539C136.679 22.6168 137.094 22.8725 137.461 23.221C137.829 23.5695 138.118 24.0221 138.33 24.5789C138.543 25.132 138.649 25.8043 138.649 26.596V27.1983H131.711V25.9255H136.984C136.984 25.4786 136.893 25.0827 136.711 24.738C136.529 24.3896 136.274 24.1149 135.944 23.9142C135.618 23.7134 135.236 23.613 134.796 23.613C134.319 23.613 133.902 23.7305 133.546 23.9653C133.194 24.1964 132.921 24.4994 132.728 24.8744C132.539 25.2456 132.444 25.649 132.444 26.0846V27.0789C132.444 27.6623 132.546 28.1585 132.751 28.5676C132.959 28.9767 133.249 29.2892 133.62 29.5051C133.991 29.7172 134.425 29.8233 134.921 29.8233C135.243 29.8233 135.537 29.7778 135.802 29.6869C136.067 29.5922 136.296 29.4521 136.489 29.2664C136.683 29.0808 136.83 28.8517 136.933 28.5789L138.541 28.8687C138.412 29.3422 138.181 29.757 137.847 30.113C137.518 30.4653 137.103 30.7399 136.603 30.9369C136.107 31.1301 135.541 31.2267 134.904 31.2267Z" fill="white"/>
</g>
<defs>
<filter id="filter0_d_84_202" x="-2" y="-1" width="175.493" height="54.1012" filterUnits="userSpaceOnUse" color-interpolation-filters="sRGB">
<feFlood flood-opacity="0" result="BackgroundImageFix"/>
<feColorMatrix in="SourceAlpha" type="matrix" values="0 0 0 0 0 0 0 0 0 0 0 0 0 0 0 0 0 0 127 0" result="hardAlpha"/>
<feOffset dy="1"/>
<feGaussianBlur stdDeviation="1"/>
<feComposite in2="hardAlpha" operator="out"/>
<feColorMatrix type="matrix" values="0 0 0 0 0 0 0 0 0 0 0 0 0 0 0 0 0 0 0.05 0"/>
<feBlend mode="normal" in2="BackgroundImageFix" result="effect1_dropShadow_84_202"/>
<feBlend mode="normal" in="SourceGraphic" in2="effect1_dropShadow_84_202" result="shape"/>
</filter>
<clipPath id="clip0_84_202">
<rect width="34.493" height="36.1012" fill="white" transform="translate(32 7)"/>
</clipPath>
</defs>
</svg>
