<svg width="156" height="51" viewBox="0 0 156 51" fill="none" xmlns="http://www.w3.org/2000/svg">
<g filter="url(#filter0_d_84_216)">
<g clip-path="url(#clip0_84_216)">
<path d="M47.3968 12.6848C47.3518 12.6768 43.1405 12.1508 39.8544 12.1508C36.5683 12.1508 32.3595 12.6742 32.3146 12.6848L32 12.7218V19.3865C32 21.8531 32.2432 25.0387 34.1414 27.8225C34.5274 28.4015 34.9794 28.9249 35.5082 29.4378L35.5161 29.4457C36.5418 30.4397 37.9086 31.3782 39.8544 32.4621C41.7975 31.3782 43.1563 30.4397 44.1926 29.4457L44.2006 29.4378C44.732 28.9223 45.1735 28.3909 45.5674 27.8225C47.4655 25.0334 47.7087 21.8531 47.7087 19.3865V12.7191L47.3941 12.6821L47.3968 12.6848ZM44.9778 27.4127C44.6077 27.9547 44.1847 28.4517 43.6824 28.9381C42.1174 30.3842 40.3514 31.1773 39.857 31.3862C39.3626 31.1773 37.5993 30.3842 36.0316 28.9381C35.5267 28.4517 35.1037 27.9441 34.7362 27.4127C32.9544 24.8034 32.7217 21.7685 32.7217 19.4103L39.857 19.0137L46.9844 19.4103C46.9844 21.7658 46.7517 24.8008 44.9778 27.4127ZM39.857 18.5723H32.7297L33.1077 13.3246C34.4295 13.1791 37.409 12.8831 39.857 12.8831C42.3051 12.8831 45.2845 13.1818 46.6169 13.3246L46.9844 18.5723H39.857Z" fill="white"/>
<path d="M43.159 26.3923L43.167 26.4002C43.0401 26.5086 42.9317 26.6434 42.8418 26.7809C42.8603 26.4742 42.8048 26.1676 42.662 25.8873L42.5721 25.7155L42.4003 25.816C42.0223 26.0407 41.742 26.3949 41.6178 26.8179C41.4909 27.2435 41.5358 27.685 41.7341 28.0816V28.0895C41.5913 28.1715 41.4539 28.2799 41.3481 28.3962C41.4301 28.0975 41.438 27.7908 41.3561 27.4841L41.3111 27.2964L41.1313 27.3599C40.7163 27.5053 40.3752 27.7934 40.1611 28.182C39.9628 28.5522 39.91 28.9857 40.0078 29.4008C39.9549 29.4378 39.8915 29.4827 39.8359 29.5197C39.7725 29.4748 39.7196 29.4378 39.6641 29.4008C39.7619 28.9857 39.709 28.5522 39.5108 28.182C39.3046 27.7934 38.9609 27.5053 38.5379 27.3599L38.3581 27.2964L38.3132 27.4841C38.2312 27.7829 38.2418 28.0975 38.3211 28.3962C38.2048 28.2799 38.0779 28.1715 37.9246 28.0895L37.9325 28.0816C38.1308 27.685 38.1678 27.2409 38.0488 26.8179C37.9219 26.3923 37.6443 26.0407 37.2663 25.816L37.0944 25.7155L37.0046 25.8873C36.8618 26.1676 36.8063 26.4742 36.8248 26.7809C36.7349 26.6355 36.6265 26.5086 36.4996 26.4002L36.5075 26.3923C36.7772 26.0486 36.912 25.615 36.8777 25.1735C36.8406 24.732 36.6424 24.3329 36.3198 24.0341L36.1771 23.8993L36.0608 24.0526C35.8625 24.2958 35.7462 24.584 35.7012 24.8933C35.6457 24.74 35.5664 24.5866 35.4659 24.4518L35.4739 24.4439C35.8149 24.1637 36.0317 23.7671 36.0872 23.3335C36.1427 22.9 36.0343 22.4585 35.7805 22.1042L35.6642 21.9403L35.5109 22.0672C35.2677 22.2655 35.0879 22.5193 34.9901 22.8075C34.9716 22.6462 34.9266 22.4902 34.8552 22.3475C35.2069 22.0857 35.4501 21.705 35.5294 21.282C35.6113 20.8485 35.5294 20.407 35.2941 20.0369L35.1963 19.8756L35.0535 19.9999C34.7019 20.2616 34.4587 20.6423 34.3794 21.0758C34.3344 21.2926 34.3344 21.5094 34.3794 21.7156C34.2075 21.5808 34.0093 21.4803 33.8031 21.4089L33.6154 21.3561L33.5704 21.5464C33.4726 21.98 33.544 22.4215 33.7581 22.8022C33.9749 23.1802 34.3344 23.4631 34.7495 23.5873L34.9108 23.6323C34.9293 23.7671 34.9636 23.9019 35.0086 24.0394C34.7733 23.8861 34.5036 23.7962 34.226 23.7777L34.0383 23.7592V23.9575C34.0304 24.3989 34.1917 24.8166 34.4798 25.1418C34.7759 25.467 35.1725 25.6653 35.614 25.7023L35.7858 25.7208C35.8308 25.8556 35.8942 25.9825 35.9656 26.0909C35.7779 26.0195 35.569 25.9825 35.3628 25.9825C35.2915 25.9825 35.2201 25.9825 35.146 25.9904L34.9583 26.0169L34.9954 26.2072C35.0773 26.6408 35.3205 27.0215 35.6801 27.2832C35.9762 27.5 36.3198 27.6084 36.6873 27.6084C36.7587 27.6084 36.8301 27.6084 36.9041 27.6004L37.0733 27.5819C37.1447 27.6983 37.2266 27.8066 37.3244 27.9071C37.0548 27.8622 36.7666 27.8886 36.5049 27.9785L36.3251 28.0419L36.3965 28.2217C36.5683 28.6288 36.8829 28.954 37.2769 29.1258C37.5016 29.2263 37.7369 29.2792 37.9695 29.2792C38.1572 29.2792 38.3555 29.2422 38.5352 29.1787L38.6701 29.1338C38.8948 29.3241 39.1459 29.5145 39.4975 29.7577C39.3363 29.8661 39.1644 29.9745 38.9662 30.1093L39.3072 30.3181C39.4949 30.1912 39.6667 30.0829 39.8201 29.9745C39.9734 30.0749 40.1452 30.1912 40.3329 30.3181L40.674 30.1093C40.4757 29.9824 40.3039 29.8661 40.1426 29.7577C40.4942 29.5145 40.7454 29.3241 40.9701 29.1338L41.1049 29.1787C41.2847 29.2422 41.4829 29.2792 41.6707 29.2792C41.9139 29.2792 42.1465 29.2237 42.3633 29.1258C42.7598 28.9461 43.0744 28.6288 43.2463 28.2217L43.3177 28.0419L43.1379 27.9785C42.8762 27.8886 42.588 27.8622 42.3184 27.9071C42.4162 27.8066 42.4981 27.7009 42.5695 27.5819L42.7413 27.6004C42.8127 27.6084 42.8841 27.6084 42.9581 27.6084C43.3282 27.6084 43.6693 27.5 43.9654 27.2832C44.317 27.0215 44.5602 26.6408 44.6501 26.2072L44.6871 26.0169L44.4967 25.9904C44.4254 25.9825 44.354 25.9825 44.28 25.9825C44.0738 25.9825 43.8755 26.0195 43.6772 26.0909C43.7486 25.9746 43.812 25.8477 43.857 25.7208L44.0288 25.7023C44.4703 25.6653 44.8669 25.467 45.163 25.1418C45.459 24.8166 45.6124 24.391 45.6044 23.9575V23.7592L45.4062 23.7777C45.1259 23.7962 44.8589 23.894 44.6236 24.0394C44.6765 23.9125 44.7056 23.7697 44.7215 23.6323L44.9197 23.5873C45.3427 23.4604 45.6943 23.1802 45.9085 22.8022C46.1252 22.4241 46.1966 21.98 46.0962 21.5464L46.0512 21.3587L45.8635 21.4116C45.6467 21.475 45.459 21.5834 45.2872 21.7183C45.3242 21.5094 45.3242 21.2953 45.2872 21.0785C45.2052 20.6449 44.962 20.2642 44.6131 20.0025L44.4597 19.8862L44.3619 20.0474C44.1266 20.4176 44.0473 20.8591 44.1266 21.2926C44.2086 21.7262 44.4518 22.0963 44.8008 22.358C44.7373 22.5034 44.6924 22.6647 44.6659 22.818C44.5575 22.5299 44.3857 22.2761 44.1451 22.0778L43.9918 21.9509L43.8755 22.1148C43.6243 22.477 43.5054 22.9106 43.5688 23.3441C43.6217 23.7777 43.849 24.1742 44.1821 24.4545L44.1901 24.4624C44.0923 24.5972 44.0103 24.7426 43.9548 24.9039C43.9098 24.6052 43.7935 24.317 43.5952 24.0632L43.4789 23.9099L43.3362 24.0447C43.011 24.3434 42.8154 24.7506 42.7784 25.1841C42.7413 25.6177 42.8762 26.0512 43.1485 26.3949L43.159 26.3923ZM34.6649 23.1591C34.4217 23.0427 34.2155 22.8524 34.0806 22.6171C33.9458 22.3818 33.8824 22.1016 33.9009 21.8319C34.1441 21.9483 34.3503 22.1386 34.4851 22.3739C34.6279 22.6171 34.6913 22.8894 34.6649 23.1591ZM34.7363 21.1366C34.7892 20.867 34.916 20.6211 35.1143 20.4229C35.2227 20.6766 35.2492 20.9463 35.2042 21.2186C35.1513 21.4883 35.0244 21.7341 34.8262 21.9324C34.7178 21.6892 34.6913 21.4089 34.7363 21.1366ZM35.2835 23.241C35.3205 22.9714 35.4369 22.7176 35.6166 22.5087C35.7435 22.7519 35.7885 23.0242 35.7515 23.3045C35.7144 23.5741 35.5981 23.8279 35.4183 24.0341C35.2915 23.7909 35.2465 23.5107 35.2835 23.2384V23.241ZM34.7627 24.8933C34.5829 24.6845 34.4666 24.4333 34.4217 24.161C34.6834 24.2245 34.9266 24.3699 35.1064 24.5681C35.2862 24.7664 35.4025 25.0281 35.4474 25.3004C35.1857 25.2476 34.9425 25.1022 34.7627 24.8933ZM36.2379 24.4783C36.4097 24.695 36.5075 24.9488 36.534 25.2291C36.5525 25.5093 36.489 25.7789 36.3542 26.0142C36.1824 25.7975 36.0846 25.5437 36.0581 25.2634C36.0502 24.9832 36.1031 24.7135 36.2379 24.4783ZM35.8969 26.9871C35.6721 26.8258 35.5109 26.5985 35.4104 26.3473C35.6801 26.3553 35.9418 26.4478 36.1665 26.6091C36.3912 26.7703 36.5525 26.9871 36.6424 27.2488C36.3806 27.2303 36.1216 27.1484 35.8942 26.9871H35.8969ZM37.2451 27.0691C37.1632 26.8073 37.1738 26.5271 37.2531 26.2654C37.4593 26.4372 37.6126 26.6725 37.6946 26.9342C37.7765 27.196 37.7659 27.4762 37.6866 27.7379C37.4804 27.5661 37.3271 27.3334 37.2451 27.0691ZM37.4434 28.7954C37.1923 28.687 36.9861 28.4966 36.8406 28.264C36.9094 28.2534 36.9755 28.2455 37.0416 28.2429C37.2425 28.2376 37.4408 28.2746 37.6311 28.3618C37.8823 28.4702 38.0911 28.6606 38.2339 28.8932C37.9642 28.9381 37.684 28.9038 37.4408 28.7954H37.4434ZM39.3442 29.1549C39.101 29.028 38.9027 28.8298 38.7785 28.5865C38.6516 28.3512 38.5987 28.0816 38.6251 27.8093C38.8684 27.9362 39.0666 28.1345 39.1909 28.3698C39.3178 28.613 39.3706 28.8853 39.3442 29.1549ZM40.9093 28.5865C40.7824 28.8298 40.5841 29.028 40.3435 29.1549C40.3065 28.8853 40.362 28.613 40.4969 28.3698C40.6317 28.1265 40.83 27.9283 41.0626 27.8014C41.089 28.071 41.0362 28.3433 40.9093 28.5865ZM42.6488 28.2429C42.7175 28.2429 42.7863 28.2508 42.8524 28.2614C42.7096 28.4966 42.5008 28.6764 42.2496 28.7927C42.0778 28.8747 41.8901 28.9091 41.6997 28.9091C41.6178 28.9091 41.5385 28.9011 41.4565 28.8906C41.5993 28.6553 41.8081 28.4755 42.0593 28.3592C42.2417 28.2772 42.4426 28.2376 42.6488 28.2402V28.2429ZM42.44 27.0691C42.358 27.3308 42.2047 27.5661 41.9985 27.7379C41.9165 27.4762 41.9086 27.196 41.9905 26.9342C42.0725 26.6725 42.2258 26.4372 42.432 26.2654C42.514 26.5271 42.5219 26.8073 42.44 27.0691ZM45.2105 22.3739C45.3454 22.1386 45.5436 21.9509 45.7948 21.8319C45.8133 22.1016 45.7498 22.3739 45.615 22.6171C45.4802 22.8524 45.274 23.0401 45.0308 23.1591C45.0123 22.8894 45.0757 22.6171 45.2105 22.3739ZM44.4809 21.2265C44.428 20.9569 44.4624 20.6766 44.5708 20.4229C44.7585 20.6132 44.8959 20.8643 44.9488 21.1366C45.0017 21.4089 44.9673 21.6865 44.8589 21.9403C44.6712 21.742 44.5338 21.4988 44.4809 21.2265ZM45.2661 24.161C45.229 24.4412 45.1127 24.695 44.925 24.8933C44.7452 25.1022 44.502 25.237 44.2403 25.3004C44.2773 25.0308 44.3936 24.777 44.5813 24.5681C44.769 24.3593 45.0043 24.2245 45.2661 24.161ZM43.9416 23.3045C43.9046 23.0348 43.9495 22.7519 44.0764 22.5087C44.2562 22.7176 44.3725 22.9687 44.4095 23.241C44.4465 23.5107 44.4016 23.7909 44.2747 24.0368C44.0949 23.8279 43.9786 23.5768 43.9416 23.3071V23.3045ZM44.2667 26.3473C44.1769 26.6011 44.0156 26.8258 43.7909 26.9871C43.5662 27.1484 43.3044 27.2409 43.0348 27.2488C43.1247 26.9871 43.2965 26.7703 43.5107 26.6091C43.7354 26.4478 43.9971 26.3553 44.2667 26.3473ZM43.4472 24.4677C43.582 24.703 43.6455 24.9726 43.619 25.2529C43.6005 25.5225 43.4921 25.7869 43.323 26.0037C43.1961 25.7684 43.1352 25.4987 43.1511 25.2185C43.1696 24.9383 43.278 24.6845 43.4472 24.4677Z" fill="white"/>
<path d="M43.545 14.0648H43.3203C42.8444 14.0648 42.3659 13.9934 41.9059 13.93C41.4829 13.8666 41.0864 13.811 40.7268 13.811C40.3673 13.811 40.0976 13.8666 39.8623 13.9749C39.6271 13.8666 39.3415 13.811 38.9979 13.811C38.6277 13.811 38.2338 13.8745 37.8188 13.93C37.3588 14.0014 36.8829 14.0648 36.4071 14.0648H36.1823V14.9954H35.8492V15.5374H36.1823V16.2776H35.8492V16.8195H36.1823V17.8321H36.4071C36.9199 17.8321 37.4222 17.7501 37.9007 17.6787C38.3158 17.6153 38.7018 17.5518 39.0269 17.5518C39.2966 17.5518 39.4949 17.5889 39.6482 17.6708H40.0791C40.2325 17.5889 40.4307 17.5518 40.7004 17.5518C41.0335 17.5518 41.4195 17.6153 41.824 17.6787C42.3104 17.7501 42.8153 17.8321 43.3176 17.8321H43.5423V16.8195H43.8755V16.2776H43.5423V15.5374H43.8755V15.006H43.5423V14.0675L43.545 14.0648ZM39.6218 14.7601L39.5398 17.1526C39.3865 17.1156 39.2146 17.0971 39.019 17.0971C38.6489 17.0971 38.2444 17.1606 37.8214 17.224C37.4434 17.2875 37.0574 17.343 36.6794 17.3589L36.7772 14.4957C37.1552 14.4693 37.5148 14.4244 37.8743 14.3689C38.2788 14.3054 38.6568 14.2525 38.9899 14.2525C39.2517 14.2525 39.4579 14.2895 39.6191 14.3609V14.7575L39.6218 14.7601ZM41.89 17.2267C41.4671 17.1632 41.0626 17.0998 40.6925 17.0998C40.4942 17.0998 40.3223 17.1183 40.1717 17.1553L40.0897 14.7628V14.3662C40.2615 14.2948 40.4598 14.2578 40.7189 14.2578C41.052 14.2578 41.43 14.3107 41.8345 14.3741C42.1861 14.427 42.5536 14.4746 42.9317 14.501L43.0295 17.3641C42.6514 17.3456 42.2655 17.2928 41.8874 17.2293L41.89 17.2267Z" fill="white"/>
<path d="M39.056 21.8132H36.5366C36.5366 21.8132 36.5181 21.8132 36.5101 21.8238C36.5101 21.8423 36.5101 21.8502 36.5286 21.8502L38.5722 23.3413L37.7897 25.7708C37.7897 25.7708 37.7897 25.7787 37.7976 25.7787H37.8055L39.8676 24.2798L41.927 25.7787H41.935C41.935 25.7787 41.9429 25.7602 41.935 25.7602L41.1524 23.3413L43.196 21.8502C43.196 21.8502 43.2145 21.8423 43.2039 21.8238C43.2039 21.8159 43.196 21.8132 43.1854 21.8132H40.6581L39.8755 19.4022C39.8755 19.4022 39.8676 19.3837 39.857 19.3837C39.857 19.3837 39.8385 19.3916 39.8385 19.4022L39.056 21.8132ZM39.857 21.0915L40.325 22.2732L41.5834 22.3552L40.6131 23.1668L40.9277 24.3961L39.857 23.7193L38.7863 24.3961L39.1009 23.1668L38.1201 22.3552L39.3891 22.2653L39.857 21.0915Z" fill="white"/>
<path d="M117.314 35.521L116.936 35.3359C116.719 35.2302 116.595 35.135 116.595 34.9764C116.595 34.8019 116.783 34.6961 116.973 34.6961C117.164 34.6961 117.306 34.7754 117.351 34.8019L117.478 35.1429H117.74V34.6591C117.595 34.5534 117.306 34.4397 117.037 34.4397C116.46 34.564 116.135 34.7569 116.135 35.09C116.135 35.3623 116.333 35.5448 116.55 35.6505L116.936 35.8514C117.187 35.9836 117.296 36.0708 117.296 36.2559C117.296 36.4568 117.161 36.6234 116.899 36.6234C116.746 36.6234 116.603 36.5705 116.495 36.5018L116.323 36.0973H116.008L116.098 36.6419C116.233 36.7133 116.548 36.8613 116.854 36.8613C117.423 36.7397 117.782 36.5811 117.782 36.1422C117.782 35.8699 117.647 35.6875 117.314 35.5183V35.521Z" fill="white"/>
<path d="M111.665 33.3767L111.366 33.456L110.142 36.5808L109.753 36.6337L109.78 36.8003L110.311 36.7818L110.906 36.8003L110.932 36.6337L110.499 36.5729L110.824 35.6688V35.6767H112.04L112.373 36.5808L111.95 36.6443L111.977 36.8108L112.635 36.7923L113.32 36.8108L113.346 36.6443L112.957 36.5914L111.659 33.3794L111.665 33.3767ZM110.898 35.4388L111.448 33.9028L111.485 34.1672L111.953 35.4388H110.898Z" fill="white"/>
<path d="M115.53 36.5387C115.493 36.4594 115.466 36.388 115.466 36.1792V34.5216L115.215 34.5401L114.665 34.6617L114.692 34.8468L114.99 34.8203V36.1818L114.892 36.2426C114.702 36.3642 114.504 36.4885 114.351 36.4885C114.107 36.4885 113.999 36.3828 113.999 36.129V34.5216L113.756 34.5401L113.161 34.6617L113.187 34.8468L113.539 34.8203V36.084C113.539 36.6445 113.647 36.8745 114.306 36.8745L115.027 36.4356L115.162 36.8295L115.802 36.7079L115.783 36.5414H115.53V36.5387Z" fill="white"/>
<path d="M84.7521 34.5532L84.3212 34.5347L84.2948 34.7013L84.5195 34.7541L83.9061 36.5016L83.8691 36.1685L83.3192 34.7541L83.6444 34.7013L83.618 34.5347H82.0582V33.9293H81.9313L81.6061 34.2439V34.5585H81.281L81.1091 34.7251V34.8044H81.585V36.2425C81.585 36.6814 81.6564 36.8744 82.2168 36.8744L82.8381 36.5413L82.7561 36.3747C82.6213 36.4355 82.468 36.5069 82.3226 36.5069C82.1164 36.5069 82.0609 36.3589 82.0609 36.2161V34.7409H82.809L83.6391 36.7766L83.8374 36.7158L83.3404 37.4428H82.9174V37.9424H83.5122L84.0701 36.7237L84.8711 34.7489L85.1857 34.696L85.1592 34.5294L84.7442 34.5479L84.7521 34.5532Z" fill="white"/>
<path d="M87.3455 34.4581C86.5788 34.5903 86.1294 34.9922 86.1294 35.7218C86.1294 36.3722 86.5788 36.8718 87.2371 36.8718C88.0038 36.7502 88.4532 36.3378 88.4532 35.6187C88.4532 34.9604 88.0117 34.4608 87.3455 34.4608V34.4581ZM87.364 36.6339C86.9225 36.6339 86.6264 36.1686 86.6343 35.6161C86.6343 35.09 86.8326 34.6934 87.2371 34.6934C87.6416 34.6934 87.9668 35.1058 87.9668 35.7192C87.9668 36.2373 87.7605 36.6312 87.364 36.6312V36.6339Z" fill="white"/>
<path d="M80.6781 34.5267L80.4349 34.5452L79.8401 34.6933L79.8692 34.8598L80.2102 34.8334V36.5994L79.8692 36.6417L79.8956 36.8082L80.464 36.7924L81.0218 36.8082L81.0482 36.6417L80.6781 36.5994V34.5267Z" fill="white"/>
<path d="M120.278 33.4668L120.233 33.6942L120.259 33.9665L120.394 33.9929L120.746 33.9665L120.801 33.7365L120.775 33.4668L120.637 33.4377L120.278 33.4668Z" fill="white"/>
<path d="M123.762 24.9118C123.762 22.5272 122.16 21.3613 120.325 20.5682L117.653 19.405C116.376 18.8446 115.466 18.0514 115.466 16.7666C115.466 15.2042 116.555 14.2022 118.401 14.2022C119.797 14.2022 120.542 14.7178 121.145 15.3496L121.819 17.4725H122.98V14.3212C121.819 13.4541 120.19 12.9677 118.723 12.9677C115.493 13.6444 113.161 15.1355 113.161 17.6813C113.161 19.7593 114.538 20.8326 116.212 21.5543L119.027 22.7916C120.423 23.397 121.449 24.309 121.449 25.8979C121.449 27.6057 120.288 28.8588 118.29 28.8588C116.984 28.8588 115.707 28.2534 115.014 27.3863L114.205 25.4009H112.577L113.09 28.5521C114.321 29.5277 115.762 30.141 117.904 30.141C122.276 29.2289 123.762 27.106 123.762 24.9118Z" fill="white"/>
<path d="M107.987 33.9292H107.861L107.535 34.2438V34.5584H107.21L107.038 34.725V34.8043H107.514V36.2425C107.514 36.6813 107.586 36.8743 108.146 36.8743L108.722 36.5597L108.64 36.3931C108.495 36.4539 108.387 36.5068 108.244 36.5068C108.038 36.5068 107.982 36.3588 107.982 36.216V34.8017H108.73V34.5822H107.982V33.924L107.987 33.9292Z" fill="white"/>
<path d="M106.8 36.5281C106.755 36.4488 106.718 36.3774 106.718 36.1686V35.2222C106.718 34.6168 106.557 34.4581 105.933 34.4581L105.05 34.852V35.2222H105.473L105.555 34.8362C105.663 34.7912 105.825 34.7489 105.959 34.7489C106.221 34.7489 106.248 34.9234 106.248 35.2142V35.4522L105.129 35.8117C105.021 35.9597 104.958 36.084 104.958 36.2585C104.958 36.6445 105.264 36.8718 105.687 36.8718L106.274 36.4515L106.427 36.8189L107.067 36.6973L107.049 36.5308H106.798L106.8 36.5281ZM106.24 36.2743L106.033 36.4145C105.97 36.4594 105.843 36.5361 105.708 36.5361C105.563 36.5361 105.42 36.4488 105.42 36.203C105.42 36.0972 105.447 36.002 105.518 35.9307L106.24 35.6399V36.2717V36.2743Z" fill="white"/>
<path d="M89.7988 33.3954L89.3838 33.8527C89.204 34.0457 89.1141 34.2387 89.1141 34.5269V34.5718H88.8259L88.6726 34.7384V34.8177H89.1062V36.5995L88.7546 36.6445L88.781 36.811L89.3494 36.7925L90.1161 36.811L90.1425 36.626L89.5741 36.5916V34.8098H90.1954V34.5824H89.5741V34.4608C89.5741 34.1435 89.6111 34.0034 89.6825 33.9162L89.7803 33.784H90.4201V33.398H89.7988V33.3954Z" fill="white"/>
<path d="M79.0574 35.521L78.6794 35.3359C78.4626 35.2302 78.3357 35.135 78.3357 34.9764C78.3357 34.8019 78.526 34.6961 78.7137 34.6961C78.9014 34.6961 79.0389 34.7754 79.0918 34.8019L79.2187 35.1429H79.4804V34.6591C79.335 34.5534 79.0468 34.4397 78.7772 34.4397C78.2008 34.5613 77.8757 34.7569 77.8757 35.09C77.8757 35.3623 78.074 35.5448 78.2907 35.6505L78.6794 35.8514C78.9411 35.9836 79.0389 36.0708 79.0389 36.2559C79.0389 36.4568 78.9041 36.6234 78.6423 36.6234C78.489 36.6234 78.3436 36.5705 78.2352 36.5018L78.0634 36.0973H77.7488L77.8387 36.6419C77.9735 36.7133 78.2881 36.8613 78.5948 36.8613C79.1631 36.7397 79.5227 36.5811 79.5227 36.1422C79.5227 35.8699 79.3879 35.6875 79.0548 35.5183L79.0574 35.521Z" fill="white"/>
<path d="M101.185 36.5281C101.14 36.4488 101.103 36.3774 101.103 36.1686V35.2222C101.103 34.6168 100.942 34.4581 100.318 34.4581L99.4165 34.852V35.2222H99.8395L99.9214 34.8362C100.03 34.7912 100.191 34.7489 100.326 34.7489C100.588 34.7489 100.614 34.9234 100.614 35.2142V35.4522L99.4958 35.8117C99.3874 35.9597 99.324 36.084 99.324 36.2585C99.324 36.6445 99.6306 36.8718 100.054 36.8718L100.648 36.4515L100.802 36.8189L101.442 36.6973L101.423 36.5308H101.18L101.185 36.5281ZM100.627 36.2743L100.421 36.4145C100.358 36.4594 100.231 36.5361 100.096 36.5361C99.9505 36.5361 99.8078 36.4488 99.8078 36.203C99.8078 36.0972 99.8342 36.002 99.9056 35.9307L100.627 35.6399V36.2717V36.2743Z" fill="white"/>
<path d="M102.954 35.521L102.576 35.3359C102.359 35.2302 102.235 35.135 102.235 34.9764C102.235 34.8019 102.422 34.6961 102.613 34.6961C102.803 34.6961 102.938 34.7754 102.991 34.8019L103.118 35.1429H103.379V34.6591C103.234 34.5534 102.946 34.4397 102.676 34.4397C102.1 34.5613 101.775 34.7569 101.775 35.09C101.775 35.3623 101.973 35.5448 102.19 35.6505L102.576 35.8514C102.837 35.9836 102.935 36.0708 102.935 36.2559C102.935 36.4568 102.8 36.6234 102.539 36.6234C102.385 36.6234 102.243 36.5705 102.134 36.5018L101.962 36.0973H101.648L101.738 36.6419C101.872 36.7133 102.198 36.8613 102.494 36.8613C103.062 36.7397 103.422 36.5811 103.422 36.1422C103.422 35.8699 103.287 35.6875 102.954 35.5183V35.521Z" fill="white"/>
<path d="M94.1846 33.6677L94.4093 34.2811H94.597V33.4298L93.1747 33.4483L91.7524 33.4298V34.2811H91.9481L92.1754 33.6677L92.9209 33.6598V36.5811L92.3288 36.6419L92.3552 36.8084L93.1853 36.7926L93.9863 36.8084L94.0049 36.6419L93.4365 36.5811V33.6598L94.1846 33.6677Z" fill="white"/>
<path d="M98.0681 35.5287L98.7263 34.7541L99.0859 34.7039L99.0594 34.5267L98.5439 34.5452L98.1579 34.5267L98.1315 34.7039L98.3747 34.7541L97.9041 35.415L97.8698 35.2908L97.4997 34.7541L97.6979 34.7039L97.6715 34.5267L97.2036 34.5452L96.6352 34.5267L96.6087 34.7039L96.9154 34.7541L97.6345 35.7137L96.9048 36.5888L96.5532 36.6337L96.5823 36.8003L97.0952 36.7818L97.4812 36.8003L97.5102 36.6337L97.267 36.5994L97.7878 35.8618L97.8248 35.9755L98.2663 36.5994L98.0601 36.6417L98.0866 36.8082L98.5545 36.7924L99.1229 36.8082L99.1493 36.6417L98.8426 36.5994L98.0681 35.5287Z" fill="white"/>
<path d="M95.6887 36.5121C95.1758 36.5121 94.8692 36.1261 94.8692 35.5736V35.5656H96.384V35.3647C96.384 34.8651 96.1672 34.4606 95.5089 34.4606C94.8322 34.6007 94.3933 34.9867 94.3933 35.6978C94.3933 36.4618 94.9247 36.8742 95.5275 36.8742C95.842 36.7949 96.1593 36.6548 96.3919 36.4962L96.31 36.3111C96.1196 36.4248 95.887 36.5121 95.6887 36.5121ZM95.4006 34.6932C95.7892 34.6932 95.8606 34.9576 95.8606 35.3251L94.8692 35.3674C94.9062 34.9629 95.1018 34.6906 95.4006 34.6906V34.6932Z" fill="white"/>
<path d="M123.619 36.5995V35.2565C123.619 34.6776 123.511 34.4661 122.882 34.4661L122.152 34.9314L122.126 34.5269L121.909 34.5454L121.314 34.6934L121.34 34.86L121.681 34.8335V36.5969L121.34 36.6418L121.367 36.8084L121.933 36.7899L122.401 36.8163L122.427 36.6497L122.157 36.6074V35.1772L122.311 35.0794C122.482 34.9657 122.652 34.86 122.824 34.86C123.03 34.86 123.149 34.9657 123.149 35.2195V36.5969L122.898 36.6418L122.924 36.8084L123.4 36.7899L123.968 36.8084L123.995 36.6418L123.617 36.5969L123.619 36.5995Z" fill="white"/>
<path d="M59.8882 14.4797L63.3699 14.5247L64.4406 17.4882H65.35V13.3615L58.6536 13.4328L51.9783 13.3615V17.4882H52.8877L53.9557 14.5247L57.4401 14.4797V28.6234L54.651 28.9301L54.7674 29.7417L58.6721 29.6703L62.442 29.7417L62.5609 28.9301L59.8882 28.6234V14.4797Z" fill="white"/>
<path d="M61.3714 36.5121C60.8585 36.5121 60.5518 36.1261 60.5518 35.5736V35.5656H62.0561V35.3647C62.0561 34.8651 61.8393 34.4606 61.181 34.4606C60.5042 34.6007 60.0627 34.9867 60.0627 35.6978C60.0627 36.4618 60.6047 36.8742 61.2075 36.8742C61.5221 36.7949 61.8393 36.6548 62.0719 36.4962L61.99 36.3111C61.7996 36.4248 61.567 36.5121 61.3687 36.5121H61.3714ZM61.0832 34.6932C61.4718 34.6932 61.5432 34.9576 61.5432 35.3251L60.5518 35.3674C60.5888 34.9629 60.7765 34.6906 61.0832 34.6906V34.6932Z" fill="white"/>
<path d="M59.4784 35.3094C59.4784 34.696 59.37 34.466 58.7408 34.466L58.0191 34.9234V33.361H57.8472L57.3158 33.4218L56.0997 33.4297L54.6748 33.4218V34.273H54.8625L55.0872 33.6676L55.8354 33.6491V36.573L55.2406 36.6338L55.267 36.8004L56.0971 36.7819L56.8981 36.8004L56.9272 36.6338L56.3588 36.573V33.6491L57.3687 33.6676L57.5485 33.6412V36.5995L57.2524 36.6444L57.2788 36.811L57.8023 36.7925L58.2702 36.811L58.2966 36.6444L58.027 36.5995V35.1692L58.1697 35.082C58.3495 34.9683 58.5399 34.8626 58.6932 34.8626C58.8915 34.8626 59.0078 34.9683 59.0078 35.2221V36.5995L58.7646 36.6444L58.791 36.811L59.2589 36.7925L59.8168 36.8004L59.8432 36.6338L59.4731 36.5889V35.3067L59.4784 35.3094Z" fill="white"/>
<path d="M79.1897 29.7417L80.0013 25.4246H79.1183L77.5612 28.5785L71.1635 28.6498V21.6415L74.4205 21.7419L75.3485 24.1873H76.168L75.9327 21.0361L76.168 18.1201H75.3485L74.4205 20.5655L71.1635 20.6659V14.4533L77.3286 14.5247L78.6319 17.5596H79.425L79.1897 13.3615L69.958 13.4328L66.7459 13.3615L66.627 14.1731L68.726 14.4797V28.6234L66.627 28.9301L66.7459 29.7417L69.958 29.6703L79.1897 29.7417Z" fill="white"/>
<path d="M69.9553 33.4668L69.9104 33.6942L69.9395 33.9665L70.0743 33.9929L70.4233 33.9665L70.4788 33.7365L70.4524 33.4668L70.3175 33.4377L69.9553 33.4668Z" fill="white"/>
<path d="M66.0902 33.4376L65.4583 33.4191L65.4319 33.5856L65.8655 33.6385V35.6583C65.8655 36.2822 65.5773 36.6153 65.0644 36.6153C64.496 36.6153 64.2343 36.2742 64.2343 35.6768V33.6491L64.6573 33.5883L64.6309 33.4217L63.9541 33.4402L63.2694 33.4217L63.2429 33.5883L63.695 33.6491V35.6054C63.695 36.3773 64.0466 36.8876 65.0195 36.8876C66.0109 36.6602 66.2726 36.2478 66.2726 35.616V33.6491L66.6956 33.5883L66.6691 33.4217L66.0928 33.4402L66.0902 33.4376Z" fill="white"/>
<path d="M74.7694 36.5121C74.2565 36.5121 73.9498 36.1261 73.9498 35.5736V35.5656H75.4541V35.3647C75.4541 34.8651 75.2373 34.4606 74.579 34.4606C73.9022 34.6007 73.4634 34.9867 73.4634 35.6978C73.4634 36.4618 74.0027 36.8742 74.6081 36.8742C74.9227 36.7949 75.2399 36.6548 75.4726 36.4962L75.3906 36.3111C75.2003 36.4248 74.9676 36.5121 74.7694 36.5121ZM74.4891 34.6932C74.8777 34.6932 74.9491 34.9576 74.9491 35.3251L73.9577 35.3674C73.9948 34.9629 74.1825 34.6906 74.4891 34.6906V34.6932Z" fill="white"/>
<path d="M120.738 34.5267L120.494 34.5452L119.9 34.6933L119.926 34.8598L120.267 34.8334V36.5994L119.926 36.6417L119.953 36.8082L120.521 36.7924L121.079 36.8082L121.105 36.6417L120.738 36.5994V34.5267Z" fill="white"/>
<path d="M112.45 28.9566L110.631 28.7028L104.556 13.1527L103.163 13.5493L97.3942 28.6764L96.2785 28.8297L95.1629 28.6579L89.9972 21.0282L94.7664 14.4455L96.5826 14.1917L96.4662 13.3774L93.7485 13.4514L91.0308 13.3774L90.9145 14.1917L92.9396 14.4983L89.249 19.9443L85.9655 14.4798L87.9457 14.1732L87.8293 13.3589L84.5274 13.4488L81.199 13.3589L81.0827 14.1732L82.9015 14.427L87.7157 21.7314L82.6953 28.6658L80.8765 28.9196L80.9928 29.7603L83.5942 29.6863L86.3119 29.7603L86.4282 28.9196L84.5195 28.6394L88.4876 22.8233L92.1042 28.6209L90.1241 28.9275L90.2404 29.7682L93.5688 29.6942L96.2865 29.7497L98.1952 29.6942L100.984 29.7682L101.101 28.954L99.0756 28.6473L100.588 24.2852H106.33L107.913 28.6473L105.933 28.954L106.05 29.7682L109.119 29.6942L112.331 29.7682L112.447 28.954L112.45 28.9566ZM100.95 23.159L103.361 16.1612L105.899 23.159H100.95Z" fill="white"/>
<path d="M70.4339 34.5267L70.1827 34.5452L69.5879 34.6933L69.6143 34.8598L69.958 34.8334V36.5994L69.6143 36.6417L69.6408 36.8082L70.2092 36.7924L70.7775 36.8082L70.804 36.6417L70.4339 36.5994V34.5267Z" fill="white"/>
<path d="M69.0565 35.2565C69.0565 34.6776 68.9481 34.4661 68.3189 34.4661L67.5893 34.9314L67.5628 34.5269L67.346 34.5454L66.7512 34.6934L66.7777 34.86L67.1187 34.8335V36.5969L66.7777 36.6418L66.8041 36.8084L67.3725 36.7899L67.8483 36.8163L67.8748 36.6497L67.6051 36.6074V35.1772L67.7479 35.0794C67.9197 34.9657 68.0916 34.86 68.2608 34.86C68.467 34.86 68.5859 34.9657 68.5859 35.2195V36.5969L68.3348 36.6418L68.3612 36.8084L68.8371 36.7899L69.4055 36.8084L69.4319 36.6418L69.0539 36.5969V35.2539L69.0565 35.2565Z" fill="white"/>
<path d="M73.453 34.5267L73.0379 34.5452L72.607 34.5267L72.5779 34.6933L72.8053 34.7462L72.1999 36.4936L72.1814 36.1605L71.642 34.7462L71.9672 34.6933L71.9381 34.5267L71.4173 34.5452L70.8489 34.5267L70.8225 34.6933L71.1292 34.7462L71.9937 36.8796L72.3532 36.7316L73.1648 34.7462L73.4794 34.6933L73.453 34.5267Z" fill="white"/>
<path d="M118.9 33.9292H118.773L118.448 34.2438V34.5584H118.123L117.951 34.725V34.8043H118.43V36.2425C118.43 36.6813 118.501 36.8743 119.062 36.8743L119.638 36.5597L119.556 36.3931C119.421 36.4539 119.313 36.5068 119.17 36.5068C118.964 36.5068 118.908 36.3588 118.908 36.216V34.8017H119.646V34.5822H118.898V33.924L118.9 33.9292Z" fill="white"/>
<path d="M77.1383 34.4846L76.5699 35.1614L76.5514 34.5216L76.3531 34.5401L75.7583 34.6908L75.7847 34.8574L76.1258 34.8309V36.5943L75.7847 36.6392L75.8112 36.8058L76.369 36.7873L77.0907 36.8058L77.1172 36.6207L76.5937 36.5784V35.4284L76.6915 35.3147C76.8263 35.1561 77.0431 35.0001 77.1595 34.9737H77.5296V34.4899H77.133L77.1383 34.4846Z" fill="white"/>
<path d="M80.337 33.9929L80.686 33.9665L80.7415 33.7365L80.7151 33.4668L80.5776 33.4377L80.218 33.4668L80.1731 33.6942L80.1995 33.9665L80.337 33.9929Z" fill="white"/>
<path d="M41.393 15.1037V14.7336C41.2344 14.7151 41.0837 14.6993 40.9357 14.6913C40.7876 14.6834 40.6422 14.6834 40.5048 14.6966L40.5127 15.0562C40.7744 15.0376 41.0705 15.0562 41.393 15.1011V15.1037Z" fill="white"/>
<path d="M40.5682 16.341L40.5761 16.7032C40.8722 16.6847 41.2238 16.7217 41.5913 16.7745V16.415C41.2318 16.3621 40.8801 16.3251 40.5656 16.341H40.5682Z" fill="white"/>
<path d="M41.3216 15.9153V15.5531C41.0414 15.5267 40.7823 15.5082 40.5391 15.5161L40.547 15.8783C40.7823 15.8598 41.0414 15.8783 41.3189 15.9153H41.3216Z" fill="white"/>
<path d="M42.572 15.717C42.3473 15.6905 42.1226 15.6535 41.8979 15.6271C41.8 15.6086 41.6916 15.598 41.5912 15.5822V15.9523C41.6731 15.9602 41.763 15.9787 41.8423 15.9893C42.0856 16.0263 42.3288 16.0607 42.5799 16.0871L42.572 15.717Z" fill="white"/>
<path d="M38.1544 14.7521V15.1222C38.5404 15.0693 38.892 15.0323 39.1987 15.0588L39.2066 14.6992C39.1246 14.6913 39.0427 14.686 38.9581 14.6833C38.7017 14.6833 38.432 14.7124 38.1544 14.7521Z" fill="white"/>
<path d="M41.9059 16.4492C41.9059 16.4492 41.8874 16.4492 41.8689 16.4413V16.8193H41.861C42.1042 16.8563 42.3553 16.8934 42.6171 16.9198L42.6091 16.5497C42.3659 16.5232 42.1333 16.4862 41.9059 16.4519V16.4492Z" fill="white"/>
<path d="M42.5535 15.257L42.5456 14.8869C42.3288 14.8605 42.1147 14.8314 41.8979 14.797C41.8159 14.7891 41.7446 14.7785 41.6626 14.76V15.1301C41.726 15.1381 41.7789 15.1486 41.8424 15.1566C42.0777 15.1936 42.3103 15.2279 42.5535 15.2544V15.257Z" fill="white"/>
<path d="M38.8603 15.5134C38.5351 15.524 38.1861 15.5742 37.8292 15.6271V15.9972C37.8477 15.9972 37.8557 15.9972 37.8742 15.9893C38.3606 15.9179 38.8021 15.8545 39.1696 15.8809L39.1775 15.5187C39.0744 15.5108 38.9686 15.5108 38.8603 15.5134Z" fill="white"/>
<path d="M37.8847 15.1592V14.7891C37.8583 14.797 37.8398 14.797 37.8133 14.797C37.5966 14.834 37.3824 14.8604 37.1656 14.8869L37.1577 15.257C37.4009 15.2306 37.6336 15.1935 37.8689 15.1592H37.8874H37.8847Z" fill="white"/>
<path d="M37.5596 15.6642H37.5517C37.4168 15.6827 37.2714 15.7012 37.1366 15.7171L37.1287 16.0872L37.5596 16.0343V15.6642Z" fill="white"/>
<path d="M37.8848 16.4493C37.8584 16.4493 37.8399 16.4572 37.8214 16.4572C37.5861 16.4942 37.3534 16.5286 37.1182 16.555L37.1102 16.9252C37.372 16.8987 37.631 16.8617 37.8848 16.8247H37.9033V16.4467H37.8848V16.4493Z" fill="white"/>
<path d="M38.1545 16.4123V16.7824C38.514 16.7296 38.8471 16.6925 39.1353 16.7111L39.1432 16.3489C38.8366 16.3304 38.5035 16.3674 38.1519 16.4123H38.1545Z" fill="white"/>
</g>
</g>
<defs>
<filter id="filter0_d_84_216" x="-2" y="-0.949463" width="160" height="54" filterUnits="userSpaceOnUse" color-interpolation-filters="sRGB">
<feFlood flood-opacity="0" result="BackgroundImageFix"/>
<feColorMatrix in="SourceAlpha" type="matrix" values="0 0 0 0 0 0 0 0 0 0 0 0 0 0 0 0 0 0 127 0" result="hardAlpha"/>
<feOffset dy="1"/>
<feGaussianBlur stdDeviation="1"/>
<feComposite in2="hardAlpha" operator="out"/>
<feColorMatrix type="matrix" values="0 0 0 0 0 0 0 0 0 0 0 0 0 0 0 0 0 0 0.05 0"/>
<feBlend mode="normal" in2="BackgroundImageFix" result="effect1_dropShadow_84_216"/>
<feBlend mode="normal" in="SourceGraphic" in2="effect1_dropShadow_84_216" result="shape"/>
</filter>
<clipPath id="clip0_84_216">
<rect width="92" height="25.7997" fill="white" transform="translate(32 12.1508)"/>
</clipPath>
</defs>
</svg>
