<svg width="142" height="51" viewBox="0 0 142 51" fill="none" xmlns="http://www.w3.org/2000/svg">
<g filter="url(#filter0_d_84_197)">
<g clip-path="url(#clip0_84_197)">
<path fill-rule="evenodd" clip-rule="evenodd" d="M102.956 29.3221C102.879 29.2609 102.79 29.2431 102.718 29.2431C102.575 29.2431 102.427 29.3102 102.318 29.4197L102.299 29.4382L102.286 29.4603C100.796 31.8019 99.5458 33.3645 98.4531 34.3396C97.3622 35.3132 96.4467 35.685 95.6178 35.685C95.1496 35.685 94.8811 35.5497 94.7216 35.3543C94.554 35.1492 94.4684 34.8322 94.4684 34.3929C94.4684 33.7048 94.6709 32.8906 94.9914 32.0391C95.2992 31.221 95.7102 30.3829 96.135 29.6117C97.7346 29.1376 99.6075 28.283 100.829 27.2047L100.831 27.2032L100.833 27.2016C101.269 26.8011 101.641 26.3847 101.905 25.9651C102.169 25.5464 102.334 25.1107 102.334 24.6769C102.334 24.3498 102.242 24.008 101.992 23.7469C101.74 23.4833 101.359 23.3351 100.85 23.3351C99.8413 23.3351 98.5584 23.8151 97.324 24.6291C96.0839 25.4467 94.8659 26.6185 93.9915 28.0392C93.6833 28.5372 93.4286 29.0435 93.2254 29.5519C91.7887 31.6982 90.5611 33.2372 89.4555 34.2386C88.3465 35.243 87.3841 35.6849 86.4766 35.6849C86.0534 35.6849 85.7901 35.5469 85.626 35.3424C85.4545 35.1291 85.3626 34.8079 85.3626 34.3929C85.3626 33.586 85.6331 32.6153 86.082 31.5638C86.5293 30.5159 87.1452 29.4062 87.8179 28.3264C88.5795 27.1044 89.3357 26.0506 90.02 25.3054C90.3622 24.9324 90.6809 24.6432 90.9675 24.4488C91.2577 24.252 91.4925 24.168 91.6727 24.168C91.8632 24.168 92.0326 24.278 92.2118 24.5329C92.3926 24.7902 92.5467 25.1436 92.7174 25.5383L92.9641 26.1077L94.08 24.0787L93.9179 23.9541C93.4076 23.5614 92.7137 23.3351 91.9218 23.3351C89.2121 23.3351 86.5485 25.3643 85.0641 27.7542L85.0638 27.7545C84.7099 28.3263 84.3999 28.9015 84.1513 29.4951L83.0004 31.2739L83 31.2743C82.1605 32.5784 81.4329 33.6991 80.7145 34.4958C79.9945 35.2944 79.3249 35.7204 78.6094 35.7204C78.311 35.7204 78.1079 35.6421 77.9818 35.5283C77.859 35.4176 77.7802 35.247 77.7802 34.998C77.7802 34.6665 77.8465 34.3531 78.3154 33.5027C78.787 32.6482 79.6449 31.2855 81.1948 28.8626L81.1952 28.8619L84.0938 24.2969L83.9654 23.6555H79.7045L79.6408 23.7032C79.5464 23.7739 79.4748 23.8545 79.4283 23.9475C79.3814 24.0411 79.3675 24.133 79.3675 24.2143V24.4527H80.8745L79.1548 27.1838C78.6547 27.9817 78.2104 28.7137 77.8415 29.4204L77.8401 29.4214L76.8566 30.8786C75.857 32.36 75.0046 33.6065 74.1921 34.4846C73.3762 35.3663 72.6443 35.8273 71.8936 35.8273C71.6311 35.8273 71.4555 35.758 71.3476 35.6587C71.2425 35.5623 71.1711 35.4096 71.1711 35.1759C71.1711 34.9012 71.2792 34.5542 71.5972 34.0053C71.914 33.4586 72.4222 32.7391 73.1872 31.7251L74.2904 30.266L74.2905 30.2659C75.7306 28.3577 76.1537 27.2401 76.1537 25.8158C76.1537 25.1246 76.0551 24.5127 75.7913 24.0662C75.5156 23.5996 75.0712 23.3351 74.4561 23.3351C73.6381 23.3351 72.7476 23.7524 71.8151 24.4683C70.878 25.188 69.8702 26.2313 68.8132 27.534L68.7881 27.565H68.4663V25.709C68.4663 25.0295 68.3395 24.5023 68.0173 24.1474C67.6898 23.7867 67.2085 23.6555 66.6263 23.6555H65.3193L65.2494 23.7253C65.1507 23.824 65.0559 23.9681 65.0087 24.1563L64.9347 24.4527H66.484C66.9305 24.4527 67.1501 24.5325 67.261 24.6294C67.3622 24.7179 67.42 24.8634 67.42 25.1395C67.42 25.4066 67.3223 25.7417 67.1143 26.1753C66.9076 26.6059 66.603 27.1114 66.2126 27.7149L66.2118 27.7159L60.819 36.233H63.873L66.9697 31.4604L67.1464 31.1776C68.636 28.9791 70.0305 27.2246 71.2679 26.0225C71.8869 25.421 72.4611 24.9631 72.983 24.6568C73.5066 24.3496 73.9624 24.2035 74.3493 24.2035C74.584 24.2035 74.6882 24.2586 74.7368 24.3072C74.785 24.3554 74.8227 24.4415 74.8227 24.6058C74.8227 24.847 74.7217 25.1687 74.4703 25.6195C74.2209 26.0667 73.8379 26.6162 73.3062 27.3075L73.306 27.3078L72.1316 28.8381L72.1312 28.8385C70.6244 30.8118 69.9113 32.3937 69.9113 33.9659C69.9113 34.5362 70.0021 35.1795 70.2888 35.6889C70.5851 36.215 71.0877 36.5889 71.858 36.5889C72.9346 36.5889 73.9221 35.8739 74.8395 34.8822C75.4944 34.1745 76.1379 33.2984 76.7767 32.3723C76.7019 32.8048 76.6626 33.2499 76.6626 33.7167C76.6626 34.2614 76.7249 34.9376 76.994 35.4857C77.1303 35.7633 77.3232 36.0151 77.594 36.197C77.8663 36.3799 78.2028 36.4821 78.6094 36.4821C79.6211 36.4821 80.5079 35.8392 81.3148 34.9475C82.0758 34.1065 82.8054 32.9986 83.5359 31.8707C83.5108 32.1247 83.4977 32.3839 83.4977 32.649C83.4977 33.6613 83.7364 34.6194 84.2194 35.332C84.7077 36.0524 85.4451 36.5177 86.4055 36.5177C87.4636 36.5177 88.506 36.0537 89.6187 35.1148C90.5548 34.3252 91.5532 33.1891 92.6679 31.6794C92.6246 32.0183 92.6034 32.3539 92.6034 32.6847C92.6034 33.6817 92.8521 34.6308 93.3396 35.338C93.8313 36.0515 94.5676 36.5177 95.5111 36.5177C96.5847 36.5177 97.6884 36.0458 98.9074 34.9676C100.124 33.8914 101.473 32.197 103.044 29.7159L103.081 29.6575V29.5884C103.081 29.4868 103.04 29.3891 102.956 29.3221ZM99.086 25.3227C99.4799 24.9139 99.8499 24.604 100.188 24.3978C100.528 24.1906 100.82 24.0968 101.063 24.0968C101.267 24.0968 101.373 24.1539 101.431 24.2164C101.492 24.2821 101.537 24.3932 101.537 24.5702C101.537 24.8271 101.428 25.1378 101.205 25.4873C100.997 25.812 100.701 26.1546 100.336 26.4962C100.312 26.5188 100.288 26.5415 100.263 26.5641L100.262 26.565L100.262 26.5644C99.3445 27.3936 97.981 28.1302 96.6802 28.6334C97.5098 27.2339 98.3319 26.1064 99.086 25.3227Z" fill="white"/>
<path fill-rule="evenodd" clip-rule="evenodd" d="M63.1704 29.6575V29.5884C63.1704 29.4868 63.129 29.3891 63.0453 29.3221C62.9688 29.2609 62.8794 29.2431 62.8074 29.2431C62.6644 29.2431 62.5169 29.3102 62.4075 29.4197L62.389 29.4382L62.3749 29.4603C60.8848 31.8019 59.6352 33.3645 58.5424 34.3396C57.4516 35.3132 56.5359 35.685 55.7072 35.685C55.2388 35.685 54.9703 35.5497 54.8108 35.3543C54.6432 35.1492 54.5576 34.8322 54.5576 34.3929C54.5576 33.7048 54.7602 32.8906 55.0806 32.0391C55.3885 31.221 55.7994 30.3829 56.2242 29.6117C57.8238 29.1376 59.6966 28.283 60.9188 27.2047L60.9203 27.2032L60.9221 27.2016C61.3589 26.8011 61.7308 26.3847 61.9949 25.9651C62.2583 25.5464 62.423 25.1107 62.423 24.6769C62.423 24.3498 62.3309 24.008 62.0811 23.7469C61.8288 23.4833 61.4479 23.3351 60.939 23.3351C59.9307 23.3351 58.6478 23.8151 57.4133 24.6291C56.1731 25.4468 54.955 26.6188 54.0805 28.0397C53.1333 29.57 52.6927 31.1789 52.6927 32.6847C52.6927 33.6817 52.9413 34.6308 53.4288 35.338C53.9205 36.0515 54.657 36.5177 55.6003 36.5177C56.6739 36.5177 57.7778 36.0458 58.9971 34.9676C60.214 33.8914 61.5626 32.197 63.1335 29.7159L63.1704 29.6575ZM59.1754 25.3227C59.5692 24.9139 59.9393 24.604 60.2774 24.3978C60.6169 24.1906 60.9094 24.0968 61.1524 24.0968C61.3561 24.0968 61.4623 24.1539 61.5205 24.2164C61.5815 24.2821 61.6258 24.3932 61.6258 24.5702C61.6258 24.8271 61.5172 25.1378 61.294 25.4873C61.0727 25.8337 60.7502 26.2005 60.3516 26.5646C59.4333 27.3937 58.0706 28.1302 56.7695 28.6334C57.5992 27.2339 58.421 26.1064 59.1754 25.3227Z" fill="white"/>
<path fill-rule="evenodd" clip-rule="evenodd" d="M55.3742 21.9454C55.7175 21.4501 56.0584 20.9578 56.3987 20.4713C58.6424 17.2624 60.7692 14.2224 63.0759 11.9816C65.379 9.74438 67.835 8.33037 70.7333 8.33037C71.7397 8.33037 72.781 8.50419 73.6804 8.81551L73.9022 8.89231L74.2115 8.04204L73.9685 7.97005C72.987 7.67927 71.8609 7.49756 70.7333 7.49756C67.6171 7.49756 64.9838 9.00743 62.5942 11.3057H45.8631L45.3634 12.1385H52.2544C50.4524 12.9993 49.1261 14.4436 48.1327 16.0026C46.928 17.8931 46.1997 19.9727 45.7016 21.4316C45.1659 22.9642 44.7256 24.3766 44.3211 25.6743L44.3207 25.6756C43.4559 28.4502 42.7586 30.682 41.6426 32.4971C40.535 34.2985 39.0102 35.6946 36.4736 36.7716L36.2133 36.882L36.81 37.8103L37.0072 37.6953C37.8444 37.207 38.6364 36.8673 39.5829 36.5858C43.4451 35.4371 46.5288 33.0053 49.204 30.0682C51.4705 27.5797 53.4557 24.7143 55.3742 21.9454ZM41.5939 34.4589C42.9939 33.2157 44.1275 31.8271 45.1436 30.0974C46.2684 28.1825 47.2492 25.8496 48.2877 22.8328V22.8331V22.8327C48.5629 22.0384 48.8175 21.2454 49.0655 20.4726L49.066 20.4713C49.7991 18.1878 50.4722 16.0975 51.4601 14.5736C52.4368 13.0676 53.705 12.1385 55.643 12.1385H61.7715C59.6801 14.3449 57.7252 17.1336 55.7104 20.008L55.7024 20.0193C51.7482 25.6605 47.5577 31.627 41.5939 34.4589Z" fill="white"/>
</g>
</g>
<defs>
<filter id="filter0_d_84_197" x="-2" y="-0.949463" width="146" height="54" filterUnits="userSpaceOnUse" color-interpolation-filters="sRGB">
<feFlood flood-opacity="0" result="BackgroundImageFix"/>
<feColorMatrix in="SourceAlpha" type="matrix" values="0 0 0 0 0 0 0 0 0 0 0 0 0 0 0 0 0 0 127 0" result="hardAlpha"/>
<feOffset dy="1"/>
<feGaussianBlur stdDeviation="1"/>
<feComposite in2="hardAlpha" operator="out"/>
<feColorMatrix type="matrix" values="0 0 0 0 0 0 0 0 0 0 0 0 0 0 0 0 0 0 0.05 0"/>
<feBlend mode="normal" in2="BackgroundImageFix" result="effect1_dropShadow_84_197"/>
<feBlend mode="normal" in="SourceGraphic" in2="effect1_dropShadow_84_197" result="shape"/>
</filter>
<clipPath id="clip0_84_197">
<rect width="78" height="36" fill="white" transform="translate(32 7.05054)"/>
</clipPath>
</defs>
</svg>
