<svg width="28" height="31" viewBox="0 0 28 31" fill="none" xmlns="http://www.w3.org/2000/svg">
<path d="M5.36473 19.7035C4.66333 17.4532 7.07546 15.5039 9.12844 16.662L15.356 20.1751C16.411 20.7702 16.9329 22.0012 16.6271 23.1733L16.1828 24.8762C15.6727 26.8318 13.2583 27.5326 11.7803 26.1541L6.07444 20.8325C5.7438 20.5242 5.49923 20.1351 5.36473 19.7035Z" fill="white" fill-opacity="0.69"/>
<path d="M0.603951 9.84353C0.00910911 7.91897 1.67936 6.05448 3.6575 6.43474L22.5754 10.0717C24.0947 10.3638 25.0481 11.8826 24.6508 13.3778L23.9209 16.1243C23.5391 17.5615 22.056 18.4093 20.6238 18.0093L2.87643 13.0518C2.0026 12.8078 1.31262 12.1363 1.04471 11.2696L0.603951 9.84353Z" fill="white" fill-opacity="0.69"/>
<path d="M0.120498 9.15395C-0.331121 7.69704 0.528164 6.15856 2.00555 5.77909L24.1645 0.086572C26.1428 -0.421631 27.9354 1.39015 27.4061 3.36287L26.8089 5.58862C26.5596 6.51784 25.8296 7.24088 24.898 7.48124L3.93793 12.889C2.55905 13.2447 1.14377 12.4552 0.722164 11.095L0.120498 9.15395Z" fill="#787878"/>
<path d="M4.4841 17.8043C4.02329 16.3355 4.89736 14.7825 6.39215 14.4142L21.4356 10.7086C23.4109 10.2221 25.1825 12.0359 24.6493 13.9991L24.0673 16.1429C23.8131 17.079 23.0711 17.8033 22.1294 18.0351L8.24926 21.4498C6.88118 21.7864 5.48709 21.0016 5.06538 19.6573L4.4841 17.8043Z" fill="#787878"/>
<path d="M7.55776 26.378C7.10384 24.9053 7.98805 23.3554 9.48667 22.9966L13.1243 22.1257C15.0902 21.6551 16.8453 23.4558 16.3243 25.4089L15.7402 27.5983C15.4856 28.5526 14.7247 29.2883 13.7624 29.5106L11.291 30.0816C9.92752 30.3965 8.55218 29.6047 8.13997 28.2674L7.55776 26.378Z" fill="#787878"/>
</svg>
