<svg width="38" height="38" viewBox="0 0 38 38" fill="none" xmlns="http://www.w3.org/2000/svg">
<path d="M28.0843 17.385C24.5998 8.86047 16.052 3.48456 6.84668 4.18673C12.5526 -0.494438 20.4856 -1.29135 26.9773 2.00404C29.4383 6.68707 29.8377 12.3453 28.0843 17.385Z" fill="#787878"/>
<path d="M15.2831 31.9746C13.6486 29.9443 12.4023 27.7783 11.6055 25.1498C19.4066 29.948 29.4013 29.3628 36.5412 23.3479C34.6633 30.4904 28.7289 35.7716 21.5575 36.94C19.1224 35.7493 17.0551 34.0719 15.285 31.9746H15.2831Z" fill="#787878"/>
<path d="M22.6846 27.2377C26.4087 24.0389 28.8066 19.9503 29.7799 15.3045C30.6529 11.1787 30.2647 7.03996 28.6747 2.9978C34.897 6.99909 38.0602 14.2512 36.9458 21.4569C33.2328 25.2111 28.0469 27.3678 22.6846 27.2377Z" fill="#787878"/>
<path d="M10.1959 13.9653C8.32365 21.6465 10.7884 29.6045 16.5464 34.8448C17.4863 35.6993 18.4985 36.3662 19.5628 37.1371C12.1833 37.5551 5.34994 33.5055 2.04004 27.0485C2.86287 21.7617 5.79572 17.062 10.1959 13.9653Z" fill="#787878"/>
<path d="M1.25953 25.2726C-1.43 18.3716 0.295537 10.6217 5.40713 5.48911C7.38712 5.13059 9.3244 5.13245 11.3378 5.40552C14.5734 5.90707 17.6344 7.09965 20.3667 9.17275C11.1521 9.90464 3.50885 16.2818 1.25767 25.2745L1.25953 25.2726Z" fill="#787878"/>
</svg>
