<svg width="37" height="44" viewBox="0 0 37 44" fill="none" xmlns="http://www.w3.org/2000/svg">
<g clip-path="url(#clip0_534_817)">
<path d="M18.2651 43.3577C18.0032 43.3763 17.012 42.8427 16.7902 42.7067L15.38 41.8423C15.074 41.6547 14.7799 41.4895 14.5014 41.2575L12.2123 39.3551L10.8642 38.1912C10.312 37.7146 9.8513 37.1858 9.34654 36.6579C8.7054 35.9876 8.13584 35.301 7.58494 34.5527C6.91463 33.6422 6.27044 32.7497 5.68256 31.7816C5.09468 30.8134 4.54242 29.9094 4.02951 28.9236C3.70725 28.3045 3.4647 27.6885 3.19671 27.0443C2.77268 26.0242 2.40225 25.0201 2.07896 23.9611C1.58675 22.3487 0.866572 19.5712 0.652521 17.9412C0.472731 16.5721 0.382837 15.225 0.316688 13.8399L0.0293636 7.81325L0.00833158 7.2342L-0.000488281 5.60829C0.147414 5.54587 0.268518 5.5072 0.423883 5.48108L5.70393 4.59773C8.06935 4.2022 11.2442 3.15026 13.4522 2.18754L14.7772 1.60983C15.8933 1.12338 16.9557 0.594532 18.0412 0.0317566C18.1406 -0.00962892 18.3913 -0.0123427 18.4955 0.0303997L20.121 0.834364L22.8419 2.07491L24.4268 2.73098C25.8302 3.31207 28.8479 4.23035 30.3297 4.48477L34.4964 5.20088L36.4999 5.57674L36.4826 7.14634L36.4571 8.2556L36.0541 15.974C35.9747 17.4944 35.7162 18.9555 35.3655 20.4297C35.0585 21.7201 34.7708 22.9824 34.3526 24.2416C33.7871 25.9428 33.1446 27.5938 32.3257 29.1875C31.8633 30.0878 31.3328 30.9145 30.8154 31.7812C30.3507 32.5598 29.8371 33.2647 29.3045 33.9947C28.8842 34.571 28.4958 35.1341 28.0263 35.6732C27.2091 36.6115 26.3936 37.5315 25.4543 38.3429L24.3576 39.2903L22.0678 41.1988C21.8416 41.3874 21.6109 41.5309 21.3612 41.6826L19.6793 42.705C19.2343 42.9757 18.7655 43.1422 18.2644 43.3566L18.2651 43.3577ZM21.1947 40.2833C21.4291 40.1404 21.6302 40.0146 21.8324 39.845L24.5174 37.5915C24.7861 37.3663 25.0279 37.1634 25.2756 36.9161C25.9869 36.2068 26.6779 35.507 27.3347 34.7427C27.969 34.0042 29.4226 31.9688 29.925 31.1269C30.3996 30.3314 30.884 29.5756 31.3094 28.7492C32.0672 27.2767 32.6598 25.7546 33.1832 24.1822C33.5757 23.0034 33.8444 21.8263 34.131 20.6177C34.4506 19.2706 34.6792 17.9469 34.7593 16.5656L35.0276 11.945L35.1874 6.92991L33.4621 6.60799L29.5773 5.94853C28.4398 5.7009 27.3458 5.43664 26.2393 5.07943C25.4764 4.83316 24.745 4.59977 24.0092 4.29481L22.5461 3.68861L19.9144 2.48571L18.4988 1.78555C18.4242 1.74858 18.2376 1.75333 18.1705 1.78284C16.8373 2.48232 15.4638 3.11362 14.0777 3.71914C11.3419 4.91423 8.50288 5.76297 5.55467 6.24196L1.82828 6.84714C1.69801 6.86817 1.59591 6.9004 1.46124 6.94484L1.48973 9.03175L1.76315 14.7552L2.03249 18.2434C2.55727 21.1645 3.26897 23.997 4.41114 26.7417C4.65979 27.3391 4.88402 27.9097 5.1822 28.484C5.65949 29.4029 6.1836 30.2588 6.72093 31.1449C7.25385 32.0238 7.83868 32.8281 8.44284 33.6582C8.99578 34.4177 9.58365 35.0962 10.2251 35.7794C11.0016 36.6057 11.8005 37.3537 12.6726 38.0779L14.8203 39.8609C15.0988 40.0923 15.3885 40.2619 15.6951 40.4498L16.9961 41.246C17.2139 41.3793 18.0714 41.8339 18.3208 41.8423C18.777 41.6432 19.2265 41.4811 19.6495 41.2239L21.194 40.2839L21.1947 40.2833Z" fill="#787878"/>
<path d="M19.494 40.1497C19.1188 40.3845 18.7002 40.5344 18.2935 40.7118C18.1113 40.7627 17.1954 40.2603 17.0271 40.1555L15.7754 39.378C15.5064 39.2111 15.2526 39.0601 15.0091 38.8549L13.0056 37.1676C12.1884 36.4793 11.4425 35.7683 10.7162 34.9837C10.1293 34.3497 9.59368 33.7224 9.08891 33.0202C8.52172 32.2312 7.97421 31.4669 7.47453 30.6321C6.97214 29.7925 6.48433 28.9814 6.03825 28.1113C5.76619 27.5804 5.56401 27.0549 5.33707 26.5034C4.26817 23.9056 3.60227 21.2189 3.11345 18.4552L2.89668 15.6994L2.61343 9.87927L2.58154 7.78862C2.71316 7.73503 2.8173 7.69907 2.95537 7.67566L7.35547 6.9314C10.9279 6.32724 14.9263 4.58633 18.1303 2.90276C18.1964 2.86782 18.3922 2.87765 18.4719 2.91768L19.7355 3.55373L22.2186 4.7071L23.5552 5.2692C24.2387 5.55652 24.9185 5.77702 25.6268 6.00939C26.7117 6.36523 27.7874 6.62712 28.9068 6.86423L32.1807 7.42463L33.9674 7.76454L33.8035 12.8438L33.5664 16.9179C33.4908 18.2185 33.2767 19.4621 32.9785 20.7301C32.7143 21.8533 32.4727 22.9445 32.1111 24.0413C31.6227 25.523 31.0829 26.9637 30.3679 28.3525C29.0032 31.0022 26.6981 34.3785 24.4643 36.3392L23.3048 37.3569C22.6203 37.9577 21.9795 38.5957 21.2081 39.0781L19.4943 40.1504L19.494 40.1497Z" fill="#787878"/>
<path d="M14.7416 23.2818C15.128 23.3079 15.495 23.3879 15.8065 23.62L16.5636 24.1844L17.3547 24.7425C17.5999 24.9155 17.7305 25.0936 17.7522 25.4077L17.7892 25.9443L17.8357 26.4824L17.9314 27.6869L18.045 28.9407L18.1427 30.1701C18.1478 30.2352 18.2472 30.4038 18.3018 30.3706C18.4972 30.2525 18.5494 29.9954 18.5837 29.7922L18.7363 28.8831L18.8703 27.8962L18.9378 27.1052C18.9833 26.5726 19.0179 26.0729 19.043 25.541L19.0664 25.041C19.3354 24.7303 19.6346 24.4565 19.9745 24.2041L21.4247 23.1264C21.4586 23.1013 21.4932 23.0056 21.4661 22.9894L21.3684 22.9303L21.0393 22.7285C20.6252 22.4744 20.4257 22.0243 20.0206 22.1087C19.7862 22.1576 19.5688 22.3445 19.3914 22.509C19.045 22.8306 18.7184 23.1118 18.3004 23.3862C17.5389 22.9992 17.1148 22.5233 16.4099 22.1192C15.9323 21.8455 15.9876 22.7963 14.6846 22.8981L14.2369 22.933C13.5648 22.9856 12.9098 22.9537 12.2392 22.929C12.0054 22.9201 11.7764 22.8584 11.5397 22.8258L10.9593 22.7465C10.8979 22.738 10.7927 22.5857 10.7659 22.5378L11.8585 22.2312C13.7192 21.7091 14.0326 21.7566 15.9859 21.7919C16.2583 21.797 16.5592 21.8811 16.8265 21.8099C17.2454 21.6983 17.8096 21.145 18.2899 21.1121L18.9897 21.5436C19.387 21.7885 19.8714 21.7271 20.3226 21.7502L21.1303 21.7919C21.8613 21.8295 22.7897 21.9381 23.4981 22.0985L23.9784 22.2074L24.9062 22.4401L25.4191 22.5874C25.8143 22.7007 26.2644 22.7648 26.6454 22.5629C26.7631 22.5005 26.6111 22.3292 26.5453 22.2807L26.0562 21.9208L25.6345 21.6104C25.5544 21.5514 25.4055 21.4801 25.3075 21.4181L24.092 20.6487L23.7423 20.4065C23.5913 20.302 22.9204 19.8227 22.7908 19.9723C22.7565 20.012 22.7277 20.0978 22.6924 20.1931C22.4163 20.2359 22.0974 20.2983 21.8026 20.3095L21.1754 20.3336C21.0078 20.34 20.8114 20.3101 20.6343 20.2996L19.8809 20.2562C19.4368 20.2304 20.1214 19.7911 20.3541 19.4916C20.9437 18.7324 21.5879 18.0472 22.3538 17.4671L22.7365 17.1774C22.9957 16.981 23.2365 16.7886 23.4889 16.5841L25.0425 15.3259C25.1447 15.2431 25.2424 15.0711 25.1772 14.9694C25.0856 14.8262 24.9126 14.9395 24.7919 14.9399L22.1585 14.9494C21.9692 14.95 21.7361 15.0464 21.5648 14.9433C21.444 14.8703 21.4064 14.6481 21.3619 14.5223L21.1727 13.986L20.8589 13.1372L20.4844 12.1243L20.0495 11.1354L19.5081 9.92407L19.0783 9.06855C18.9782 8.86942 18.8296 8.66962 18.7492 8.46744L18.5582 7.98743C18.4901 7.81646 18.4477 7.64855 18.2624 7.54712L18.2767 9.70358C18.2777 9.84266 18.2835 9.9719 18.2774 10.1106C18.2611 10.4658 18.2831 10.8047 18.2903 11.1582L18.3344 13.3082L18.3788 14.6223C18.3988 15.214 18.3737 15.3778 18.41 15.9616C18.5891 16.099 18.8032 16.2303 19.0009 16.3453L19.8212 16.8219C19.8904 16.8619 19.9721 16.9321 20.0295 16.9471C20.0868 16.962 20.1967 16.8395 20.1838 16.7791C20.0892 16.3449 19.9972 15.8921 19.9372 15.4531L19.8609 14.8944L19.7676 14.4303C19.6919 14.0541 19.6492 13.7102 19.5559 13.3251L19.3853 12.6219C19.3792 12.5972 19.4121 12.5198 19.4209 12.5005C19.5291 12.263 20.33 14.4785 20.3768 14.6542L20.518 15.1855C20.5777 15.4097 20.6279 15.6845 20.6306 15.9179L20.6411 16.7703C20.6445 17.0424 20.5057 17.192 20.2812 17.3253C20.1923 17.4437 20.0929 17.6228 19.9894 17.7317C19.7815 17.9505 19.6268 18.211 19.4087 18.4047L18.6196 19.1049C18.4843 19.225 18.3272 19.4014 18.1481 19.4051C17.874 19.1303 17.6135 18.8925 17.3425 18.6337L16.7702 18.0875C16.6158 17.9403 16.4394 17.7826 16.3105 17.6143L15.9547 17.517C15.9075 17.2819 15.6212 17.2995 15.51 17.2086C15.3346 17.0655 15.1636 16.9745 14.9686 16.8734L14.2447 16.4976C14.013 16.3772 13.7887 16.2774 13.552 16.1668L13.092 15.9521L12.4508 15.6641C12.4444 15.5518 12.5797 15.4931 12.6703 15.5213L13.6408 15.8232L14.0527 15.9704L15.8848 16.653C16.0697 16.7218 16.3133 16.8378 16.5209 16.7568C16.7766 16.6567 17.5528 16.2262 17.6451 15.9915C17.6569 15.9613 17.5799 15.8951 17.5365 15.9043C17.2027 15.9748 16.7241 15.8958 16.3777 15.8202L15.7067 15.6733C15.2627 15.5763 14.8332 15.5057 14.3698 15.4372C14.5296 15.4609 13.3291 15.41 13.7463 15.3568C13.7616 15.3547 13.8203 15.3446 13.8467 15.3442L15.5357 15.3327C15.7257 15.3313 15.9255 15.2791 16.1087 15.3137C16.3194 15.3534 16.6864 15.4148 16.7502 15.1349C16.7593 15.0939 16.6969 15.0002 16.663 14.9792C16.5293 15.0762 16.4065 15.1424 16.2637 15.1091C15.9686 15.041 15.7006 15.0474 15.4018 15.0277L14.8617 14.9921L11.6899 14.9809C11.6258 14.9809 11.4922 15.0895 11.518 15.142C11.5963 15.3011 11.7425 15.3944 11.8803 15.4782L12.2978 15.7323L13.7918 16.6859L14.4821 17.1123C14.8946 17.367 15.4516 17.7225 15.7101 18.1045L15.9299 18.4288C16.147 18.7494 16.3058 19.0794 16.4802 19.4166L16.6813 19.8057C16.7288 19.8976 16.7726 20.0737 16.7397 20.1775C16.7129 20.2623 16.5382 20.3519 16.4432 20.3444C16.3058 20.3332 16.1993 20.3417 16.0704 20.3444L14.513 20.3729C14.2952 20.377 14.0923 20.4082 13.8783 20.3658C13.61 20.3129 13.3732 20.4296 13.1561 20.5686L11.6635 21.5256C11.5899 21.5727 11.4854 21.6477 11.4175 21.6823L10.4039 22.1959C9.9945 22.4035 9.851 22.2719 9.81776 22.3923C9.74347 22.6613 10.4128 22.7271 10.4728 22.7471C10.8429 22.8706 11.1784 22.9714 11.556 23.0507C11.7975 23.1016 12.0268 23.1691 12.2748 23.1847L13.7881 23.2811C14.5089 23.3269 14.2253 23.2468 14.7416 23.2818ZM10.5379 30.3095C10.5674 30.3617 10.7228 30.2434 10.7764 30.2037C11.2876 29.8264 12.2805 29.4468 12.9688 29.055L14.8573 27.9804C15.0808 27.8532 15.0958 27.4054 15.2009 26.9922L15.4062 26.1845L15.5809 25.405L15.7827 25.4745C16.0548 25.5681 16.3278 25.4562 16.5989 25.3263C16.6097 25.2096 16.608 25.0135 16.5894 24.8955C16.2366 24.5878 16.1986 24.2903 15.8322 24.1726C15.6484 23.9327 15.3027 23.5979 14.9896 23.6308C14.8736 23.8652 14.9913 24.0806 15.1093 24.2777C15.2159 24.4555 15.0405 24.4908 15.1467 24.8103C15.1548 24.8351 15.0897 24.8839 15.0503 24.8961L13.3617 25.4331L12.9264 25.5831C12.7758 25.635 12.6187 25.695 12.4763 25.7557L11.9087 25.9969C11.753 26.0631 11.5532 26.2015 11.499 26.3606L11.3633 26.7602L11.2042 27.2829C11.0234 27.8766 11.021 28.0764 10.8565 28.6751C10.7595 29.0289 10.6634 29.3634 10.5474 29.7138C10.4881 29.8936 10.428 30.1161 10.5373 30.3088L10.5379 30.3095ZM25.6701 27.4824L25.4927 26.6401C25.4445 26.4115 25.4028 26.2585 25.2356 26.0811C25.1029 25.9403 24.9761 25.8823 24.7868 25.8103L24.341 25.6411L24.2708 25.4314C24.0483 25.5502 23.8186 25.5315 23.627 25.3578C23.4248 25.4362 23.3091 25.2764 23.1636 25.2225C22.7392 25.0658 22.3175 24.9236 21.8915 24.7937C21.6449 24.7184 21.4518 24.8293 21.3128 24.9837C21.1618 25.1506 21.1537 25.3409 21.2269 25.5804C21.2914 25.7917 21.3029 26.0193 21.325 26.2463C21.3687 26.692 21.4736 27.1262 21.5533 27.5536C21.6099 27.8562 21.6852 28.0119 21.9793 28.1571L22.4122 28.3708L26.0087 30.1911C26.0986 30.2366 26.1946 30.3119 26.2719 30.26C26.4629 30.1317 26.2349 29.4692 26.1688 29.2294L26.0246 28.7046C25.9534 28.4448 25.7142 27.69 25.6708 27.4827L25.6701 27.4824Z" fill="black"/>
<path d="M14.7414 23.2818C14.2251 23.2468 14.5084 23.3269 13.7879 23.2811L12.2746 23.1847C12.0266 23.1688 11.7969 23.1013 11.5558 23.0507C11.1782 22.9714 10.8427 22.8706 10.4726 22.7471C10.4126 22.7271 9.74293 22.6613 9.81756 22.3923C9.85081 22.2719 9.9943 22.4035 10.4037 22.1959L11.4174 21.6823C11.4852 21.6481 11.5897 21.5727 11.6633 21.5256L13.1559 20.5686C13.373 20.4296 13.6094 20.3125 13.8781 20.3658C14.0921 20.4082 14.2953 20.3766 14.5128 20.3729L16.0702 20.3444C16.1991 20.342 16.3059 20.3336 16.443 20.3444C16.5383 20.3522 16.7127 20.2623 16.7395 20.1775C16.7724 20.0737 16.7286 19.8976 16.6811 19.8057L16.48 19.4166C16.3059 19.0794 16.1468 18.7494 15.9297 18.4288L15.7099 18.1045C15.4514 17.7225 14.8941 17.367 14.4819 17.1123L13.7916 16.6859L12.2976 15.7323L11.8801 15.4782C11.7423 15.3944 11.5961 15.3011 11.5178 15.142C11.492 15.0895 11.6256 14.9809 11.6897 14.9809L14.8615 14.9921C15.3888 15.0269 16.6628 14.9792 16.6628 14.9792C16.6971 14.9999 16.7595 15.0939 16.75 15.1349C16.6746 15.4675 15.8165 15.3312 15.5356 15.3327L13.8465 15.3442C13.8201 15.3442 13.7611 15.3547 13.7461 15.3568C13.3292 15.4097 14.5297 15.4606 14.3696 15.4372C14.833 15.5057 15.2625 15.5763 15.7065 15.6733L16.3775 15.8202C16.7239 15.8958 17.2025 15.9752 17.5363 15.9043C17.5797 15.8951 17.6567 15.9613 17.6449 15.9915C17.5526 16.2265 16.7764 16.657 16.5207 16.7568C16.3131 16.8378 16.0695 16.7222 15.8846 16.653L14.0525 15.9704L13.6406 15.8232L12.6701 15.5213C12.5799 15.4931 12.4442 15.5518 12.4506 15.6641L13.0918 15.9521L13.5518 16.1668C13.7885 16.2774 14.0124 16.3772 14.2445 16.4976L14.9684 16.8734C15.1634 16.9745 15.3344 17.0655 15.5098 17.2086C15.621 17.2995 15.9073 17.2819 15.9545 17.517L16.3103 17.6143C16.4392 17.7826 16.6156 17.9403 16.77 18.0875L17.3423 18.6337C17.6133 18.8922 17.8742 19.1303 18.1479 19.4051C18.327 19.4014 18.4838 19.225 18.6195 19.1049L19.4085 18.4047C19.6266 18.211 19.7813 17.9505 19.9892 17.7317C20.0927 17.6228 20.1921 17.444 20.281 17.3253C20.5059 17.192 20.6443 17.0424 20.6409 16.7703L20.6304 15.9178C20.6273 15.6845 20.5775 15.4097 20.5178 15.1855L20.3766 14.6542C20.3298 14.4785 19.5289 12.263 19.4207 12.5005C19.4119 12.5202 19.379 12.5975 19.3851 12.6219L19.5557 13.3251C19.649 13.7102 19.6917 14.0538 19.7674 14.4303L19.8607 14.8944L19.937 15.4531C19.997 15.8921 20.089 16.3446 20.1836 16.7791C20.1968 16.8392 20.0842 16.961 20.0293 16.9471C19.9743 16.9332 19.8902 16.8619 19.821 16.8219L19.0007 16.3453C18.8033 16.2303 18.5893 16.099 18.4098 15.9616C18.3732 15.3778 18.3986 15.214 18.3786 14.6223L18.3342 13.3082L18.2901 11.1582C18.2829 10.8047 18.2609 10.4655 18.2772 10.1106C18.2836 9.9719 18.2772 9.84266 18.2765 9.70358L18.2622 7.54712C18.4475 7.64889 18.4902 7.8168 18.5581 7.98743L18.749 8.46744C18.8294 8.66962 18.978 8.86942 19.0781 9.06855L19.5079 9.92407L20.0493 11.1354L20.4842 12.1243L20.8587 13.1372L21.1725 13.986L21.3617 14.5223C21.4062 14.6481 21.4438 14.8707 21.5646 14.9433C21.7359 15.0464 21.9686 14.95 22.1583 14.9494L24.7917 14.9399C24.9128 14.9395 25.0854 14.8259 25.177 14.9694C25.2422 15.0711 25.1445 15.2431 25.0423 15.3259L23.4887 16.5841C23.2363 16.7883 22.9955 16.981 22.7363 17.1774L22.3536 17.4671C21.5877 18.0472 20.9435 18.7327 20.3539 19.4916C20.1212 19.7911 19.4366 20.2304 19.8807 20.2562L20.6341 20.2996C20.8112 20.3098 21.0073 20.3397 21.1752 20.3336L21.8024 20.3095C22.0972 20.2983 22.4161 20.2359 22.6922 20.1931C22.7271 20.0978 22.7563 20.012 22.7906 19.9723C22.9202 19.8227 23.5908 20.302 23.7421 20.4065L24.0918 20.6487L25.3073 21.4181C25.405 21.4798 25.5542 21.5514 25.6343 21.6104L26.056 21.9208L26.5451 22.2807C26.6109 22.3292 26.7629 22.5005 26.6452 22.5629C26.2642 22.7648 25.8144 22.701 25.4189 22.5874L24.906 22.4401L23.9782 22.2074L23.4979 22.0985C22.7896 21.9381 21.8608 21.8295 21.1301 21.7919L20.3224 21.7502C19.8712 21.7271 19.3868 21.7882 18.9895 21.5436L18.2897 21.1121C17.8094 21.145 17.2456 21.6983 16.8263 21.8099C16.559 21.8811 16.2581 21.7966 15.9857 21.7919C14.0328 21.7566 13.719 21.7088 11.8583 22.2312L10.7657 22.5378C10.7925 22.5853 10.8977 22.738 10.9591 22.7465L11.5395 22.8258C11.7763 22.8581 12.0052 22.9201 12.239 22.929C12.9096 22.9537 13.5646 22.9856 14.2367 22.933L14.6844 22.8981C15.9874 22.7963 15.9321 21.8455 16.4097 22.1192C17.1146 22.5233 17.5387 22.9992 18.3002 23.3862C18.7182 23.1115 19.0448 22.8303 19.3912 22.509C19.5686 22.3445 19.7857 22.1576 20.0205 22.1087C20.4255 22.0243 20.625 22.4744 21.0391 22.7285L21.3682 22.9303L21.4659 22.9893C21.4927 23.0056 21.4581 23.101 21.4245 23.1264L19.9743 24.2041C19.6344 24.4568 19.3352 24.7303 19.0662 25.041L19.0428 25.541C19.0177 26.0729 18.9831 26.5726 18.9376 27.1052L18.8701 27.8962L18.7361 28.8831L18.5835 29.7922C18.5492 29.9954 18.497 30.2525 18.3016 30.3706C18.247 30.4038 18.1476 30.2352 18.1425 30.1701L18.0448 28.9407L17.9312 27.6869L17.8355 26.4824L17.789 25.9443L17.752 25.4077C17.7303 25.0936 17.6001 24.9155 17.3545 24.7425L16.5634 24.1844L15.8063 23.62C15.4948 23.3879 15.1281 23.3079 14.7414 23.2818Z" fill="#0D0D0E"/>
<path d="M10.5378 30.3096C10.4285 30.1169 10.4886 29.8944 10.5479 29.7146C10.6636 29.3642 10.7596 29.0297 10.857 28.6759C11.0212 28.0772 11.0239 27.8773 11.2047 27.2837L11.3638 26.761L11.4995 26.3613C11.5534 26.2023 11.7535 26.0638 11.9092 25.9977L12.4768 25.7565C12.6192 25.6958 12.7763 25.6357 12.9269 25.5838L13.3622 25.4339L15.0508 24.8969C15.0898 24.8844 15.1553 24.8355 15.1472 24.8111C15.041 24.4915 15.2164 24.4563 15.1098 24.2785C14.9918 24.0811 14.8741 23.866 14.9901 23.6316C15.3032 23.599 15.6492 23.9339 15.8327 24.1733C16.1991 24.2911 16.2371 24.5889 16.5899 24.8962C16.6082 25.0143 16.6102 25.21 16.5994 25.3271C16.3283 25.4566 16.0553 25.5686 15.7832 25.4753L15.5814 25.4058L15.4067 26.1853L15.2014 26.993C15.0966 27.4062 15.0813 27.8543 14.8578 27.9812L12.9693 29.0558C12.281 29.4476 11.2878 29.8272 10.7769 30.2044C10.7233 30.2441 10.568 30.3622 10.5384 30.3103L10.5378 30.3096Z" fill="#0D0D0E"/>
<path d="M25.6699 27.4823C25.7137 27.6896 25.9525 28.4444 26.0238 28.7042L26.1679 29.229C26.2337 29.4688 26.462 30.1314 26.2711 30.2596C26.1937 30.3115 26.0981 30.2362 26.0078 30.1907L22.4113 28.3704L21.9785 28.1567C21.6844 28.0115 21.6091 27.8558 21.5524 27.5532C21.4727 27.1258 21.3676 26.6916 21.3241 26.2459C21.3021 26.0193 21.2905 25.7913 21.2261 25.58C21.1532 25.3405 21.1613 25.1502 21.3119 24.9833C21.4513 24.8293 21.6444 24.7183 21.8906 24.7933C22.3167 24.9236 22.7384 25.0654 23.1627 25.2221C23.6965 25.4199 24.2284 25.5982 24.7859 25.81C24.9752 25.8819 25.1021 25.9399 25.2347 26.0807C25.402 26.2581 25.4437 26.4111 25.4919 26.6397L25.6699 27.4823Z" fill="#0D0D0E"/>
</g>
<defs>
<clipPath id="clip0_534_817">
<rect width="36.5" height="43.3585" fill="white"/>
</clipPath>
</defs>
</svg>
