<svg width="343" height="200" viewBox="0 0 343 200" fill="none" xmlns="http://www.w3.org/2000/svg">
<rect width="343" height="200" fill="#1D1D1D"/>
<path d="M96.1921 104.226L100.931 112.56H91.3589L86.5703 104.226H96.1921Z" fill="url(#paint0_linear_3583_72425)"/>
<path d="M100.928 112.562L105.709 104.227L96.1396 87.5547H86.5703L100.928 112.562Z" fill="#FF414C"/>
<path d="M81.7846 95.8867H91.3538L81.7886 112.559L77 104.225L81.7846 95.8867Z" fill="#FF414C"/>
<path d="M125.794 95.5147L125.554 98.1274C124.522 96.0991 122.151 94.999 119.607 94.999C114.829 94.999 111.633 98.4712 111.633 103.8C111.633 109.094 114.52 112.944 119.573 112.944C122.323 112.944 124.351 111.603 125.416 109.85L125.691 112.497H129.61V95.5147H125.794ZM125.347 104.006C125.347 107.066 123.457 109.163 120.535 109.163C117.614 109.163 115.826 107.031 115.826 104.006C115.826 100.981 117.648 98.8149 120.57 98.8149C123.491 98.8149 125.347 100.946 125.347 104.006Z" fill="white"/>
<path d="M136.744 112.497V107.925L139.219 105.347L143.653 112.497H148.465L142.141 102.253L148.603 95.5147H143.344L136.744 102.631V87.4204H132.585V112.497H136.744Z" fill="white"/>
<path d="M162.548 95.5147L162.307 98.1274C161.276 96.0991 158.904 94.999 156.361 94.999C151.583 94.999 148.386 98.4712 148.386 103.8C148.386 109.094 151.274 112.944 156.326 112.944C159.076 112.944 161.104 111.603 162.17 109.85L162.445 112.497H166.363V95.5147H162.548ZM162.101 104.006C162.101 107.066 160.211 109.163 157.289 109.163C154.367 109.163 152.58 107.031 152.58 104.006C152.58 100.981 154.402 98.8149 157.323 98.8149C160.245 98.8149 162.101 100.946 162.101 104.006Z" fill="white"/>
<path d="M168.485 107.341C168.485 110.675 171.166 112.944 175.394 112.944C179.587 112.944 182.509 110.813 182.509 107.375C182.509 104.762 181.065 103.456 178.213 102.803L175.153 102.081C173.71 101.737 172.954 101.118 172.954 100.156C172.954 98.8837 173.916 98.1274 175.566 98.1274C177.181 98.1274 178.144 99.0556 178.178 100.499H182.165C182.131 97.1992 179.553 94.999 175.738 94.999C171.819 94.999 169.001 96.9929 169.001 100.328C169.001 103.043 170.479 104.487 173.538 105.175L176.597 105.897C178.109 106.241 178.556 106.859 178.556 107.719C178.556 108.956 177.491 109.747 175.532 109.747C173.607 109.747 172.507 108.819 172.472 107.341H168.485Z" fill="white"/>
<path d="M189.039 112.497V103.215C189.039 100.671 190.585 98.8149 193.232 98.8149C195.363 98.8149 196.772 100.19 196.772 103.043V112.497H200.966V102.046C200.966 97.6461 198.766 94.999 194.573 94.999C192.132 94.999 190.139 96.0647 189.073 97.7149V87.4204H184.845V112.497H189.039Z" fill="white"/>
<path d="M267.494 110.419L267.845 112.487C266.969 112.768 266.127 112.908 265.356 112.908C262.621 112.908 261.219 111.19 261.219 108.315V97.6225H258.555V95.5892H261.219V90.2253H263.638V95.5892H267.705V97.6225H263.638V108.14C263.638 109.963 264.55 110.734 265.882 110.734C266.373 110.734 266.934 110.629 267.494 110.419Z" fill="#A3A3A3"/>
<path d="M254.311 95.5893H256.449V112.557H254.241L253.995 109.087C252.768 111.646 250.454 112.978 247.58 112.978C242.566 112.978 239.727 109.122 239.727 104.003C239.727 98.8847 242.777 95.1335 247.685 95.1335C250.419 95.1335 252.908 96.3255 254.1 99.1301L254.311 95.5893ZM253.89 104.073C253.89 100.147 251.786 97.3422 248.07 97.3422C244.354 97.3422 242.181 100.147 242.181 104.073C242.181 108 244.319 110.804 248 110.804C251.716 110.804 253.89 108 253.89 104.073Z" fill="#A3A3A3"/>
<path d="M224.7 112.522H222.281V87H224.7V98.534C225.787 96.5007 227.855 95.1334 230.695 95.1334C235.147 95.1334 237.146 97.903 237.146 102.18V112.557H234.727V102.706C234.727 98.7444 232.869 97.3421 230.239 97.3421C226.593 97.3421 224.7 100.042 224.7 103.302V112.522Z" fill="#A3A3A3"/>
<path d="M203.93 104.108C203.93 98.7796 207.19 95.1335 212.133 95.1335C216.06 95.1335 218.934 97.4123 219.601 100.918H217.182C216.551 98.5692 214.517 97.2721 212.168 97.2721C208.733 97.2721 206.314 99.9014 206.314 104.073C206.314 108.105 208.557 110.804 211.993 110.804C214.517 110.804 216.551 109.402 217.217 107.228H219.671C218.864 110.699 215.849 112.978 211.993 112.978C207.19 112.978 203.93 109.437 203.93 104.108Z" fill="#A3A3A3"/>
<defs>
<linearGradient id="paint0_linear_3583_72425" x1="93.7475" y1="110.446" x2="99.3391" y2="104.175" gradientUnits="userSpaceOnUse">
<stop stop-color="#FF414C"/>
<stop offset="1" stop-color="#FF414C" stop-opacity="0"/>
</linearGradient>
</defs>
</svg>
