<svg width="343" height="200" viewBox="0 0 343 200" fill="none" xmlns="http://www.w3.org/2000/svg">
<rect width="343" height="200" fill="#1D1D1D"/>
<path d="M239.046 104.69L243.84 113.121H234.157L229.312 104.69H239.046Z" fill="url(#paint0_linear_3583_72434)"/>
<path d="M243.838 113.123L248.674 104.691L238.993 87.8245H229.312L243.838 113.123Z" fill="#FF414C"/>
<path d="M224.473 96.2537H234.154L224.477 113.121L219.633 104.689L224.473 96.2537Z" fill="#FF414C"/>
<path d="M157.205 113.387H152.914V87H157.205V113.387Z" fill="white"/>
<path d="M138.063 113.387H133.133L139.162 104.804L133.133 95.8667H138.169L142.035 101.825L145.759 95.8667H150.618L144.659 104.733L150.44 113.387H145.475L141.751 107.606L138.063 113.387Z" fill="white"/>
<path d="M120.611 113.848C115.539 113.848 112.383 110.124 112.383 104.698C112.383 99.2359 115.575 95.3346 120.859 95.3346C123.306 95.3346 125.47 96.3631 126.569 98.1009V87H130.861V113.387H126.889L126.605 110.656C125.541 112.678 123.271 113.848 120.611 113.848ZM121.569 109.876C124.583 109.876 126.534 107.712 126.534 104.556C126.534 101.399 124.583 99.2004 121.569 99.2004C118.554 99.2004 116.71 101.435 116.71 104.556C116.71 107.677 118.554 109.876 121.569 109.876Z" fill="white"/>
<path d="M96 108.067H100.114C100.15 109.592 101.284 110.549 103.271 110.549C105.292 110.549 106.392 109.734 106.392 108.457C106.392 107.57 105.931 106.932 104.37 106.577L101.214 105.832C98.057 105.123 96.532 103.634 96.532 100.832C96.532 97.3915 99.4402 95.3345 103.483 95.3345C107.42 95.3345 110.08 97.6043 110.116 101.009H106.001C105.966 99.5195 104.973 98.5619 103.306 98.5619C101.604 98.5619 100.611 99.3422 100.611 100.654C100.611 101.647 101.391 102.286 102.88 102.641L106.037 103.385C108.981 104.059 110.47 105.407 110.47 108.102C110.47 111.649 107.456 113.848 103.129 113.848C98.7664 113.848 96 111.507 96 108.067Z" fill="white"/>
<path d="M193.744 113.386H191.297V96.2208H193.425L193.78 99.2C194.914 97.0011 197.184 95.7598 199.667 95.7598C204.384 95.7598 206.335 98.5616 206.335 102.888V113.386H203.887V103.42C203.887 99.4128 202.079 97.9941 199.241 97.9941C195.73 97.9941 193.744 100.548 193.744 104.414V113.386Z" fill="#A3A3A3"/>
<path d="M170.289 104.804C170.289 99.5547 173.978 95.7598 179.014 95.7598C184.05 95.7598 187.738 99.5547 187.738 104.804C187.738 110.017 184.05 113.812 179.014 113.812C173.978 113.812 170.289 110.017 170.289 104.804ZM172.772 104.768C172.772 108.811 175.325 111.613 179.014 111.613C182.667 111.613 185.256 108.811 185.256 104.768C185.256 100.796 182.667 97.9587 179.014 97.9587C175.325 97.9587 172.772 100.796 172.772 104.768Z" fill="#A3A3A3"/>
<defs>
<linearGradient id="paint0_linear_3583_72434" x1="236.573" y1="110.983" x2="242.23" y2="104.639" gradientUnits="userSpaceOnUse">
<stop stop-color="#FF414C"/>
<stop offset="1" stop-color="#FF414C" stop-opacity="0"/>
</linearGradient>
</defs>
</svg>
