<svg width="343" height="200" viewBox="0 0 343 200" fill="none" xmlns="http://www.w3.org/2000/svg">
<rect width="343" height="200" fill="#1D1D1D"/>
<rect x="88" y="76.6667" width="46.6667" height="46.6667" rx="8.33333" fill="white"/>
<path d="M115.381 103.035L119.174 109.706H111.512L107.68 103.035H115.381Z" fill="url(#paint0_linear_3583_72445)"/>
<path d="M119.172 109.707L122.998 103.036L115.339 89.6917H107.68L119.172 109.707Z" fill="#FF414C"/>
<path d="M103.853 96.3606H111.512L103.856 109.705L100.023 103.035L103.853 96.3606Z" fill="#FF414C"/>
<path d="M144.697 92.5V85.666H146.467C146.91 85.666 147.29 85.7502 147.609 85.9187C147.933 86.0872 148.183 86.3244 148.358 86.6302C148.539 86.936 148.629 87.298 148.629 87.7162V90.4404C148.629 90.8586 148.539 91.2237 148.358 91.5357C148.183 91.8416 147.933 92.0787 147.609 92.2472C147.29 92.4157 146.91 92.5 146.467 92.5H144.697ZM145.54 91.7511H146.467C146.878 91.7511 147.2 91.6356 147.431 91.4047C147.668 91.1738 147.787 90.8523 147.787 90.4404V87.7162C147.787 87.3105 147.668 86.9922 147.431 86.7613C147.2 86.5304 146.878 86.4149 146.467 86.4149H145.54V91.7511ZM152.258 92.5936C151.852 92.5936 151.496 92.5125 151.191 92.3502C150.891 92.1879 150.657 91.9601 150.488 91.6668C150.326 91.3672 150.245 91.0209 150.245 90.6277V89.2234C150.245 88.824 150.326 88.4776 150.488 88.1843C150.657 87.8909 150.891 87.6631 151.191 87.5009C151.496 87.3386 151.852 87.2574 152.258 87.2574C152.663 87.2574 153.016 87.3386 153.316 87.5009C153.622 87.6631 153.856 87.8909 154.018 88.1843C154.186 88.4776 154.271 88.824 154.271 89.2234V90.1315H151.069V90.6277C151.069 91.0333 151.172 91.3454 151.378 91.5638C151.584 91.776 151.877 91.8821 152.258 91.8821C152.582 91.8821 152.844 91.826 153.044 91.7136C153.244 91.595 153.366 91.4203 153.409 91.1894H154.252C154.196 91.62 153.983 91.9633 153.615 92.2191C153.253 92.4688 152.801 92.5936 152.258 92.5936ZM153.447 89.5698V89.2234C153.447 88.8177 153.344 88.5057 153.138 88.2872C152.938 88.0688 152.645 87.9596 152.258 87.9596C151.877 87.9596 151.584 88.0688 151.378 88.2872C151.172 88.5057 151.069 88.8177 151.069 89.2234V89.4949H153.512L153.447 89.5698ZM155.924 94.1851V87.3511H156.766V88.334H156.935L156.766 88.5306C156.766 88.1374 156.894 87.8285 157.15 87.6038C157.412 87.3729 157.756 87.2574 158.18 87.2574C158.698 87.2574 159.11 87.4291 159.416 87.7723C159.728 88.1094 159.884 88.5743 159.884 89.1672V90.6745C159.884 91.0677 159.812 91.4078 159.669 91.6949C159.531 91.982 159.335 92.2035 159.079 92.3596C158.829 92.5156 158.53 92.5936 158.18 92.5936C157.762 92.5936 157.422 92.4782 157.16 92.2472C156.898 92.0163 156.766 91.7074 156.766 91.3204L156.935 91.517H156.748L156.766 92.6872V94.1851H155.924ZM157.899 91.8634C158.255 91.8634 158.533 91.7573 158.732 91.5451C158.938 91.3329 159.041 91.0271 159.041 90.6277V89.2234C159.041 88.824 158.938 88.5182 158.732 88.306C158.533 88.0938 158.255 87.9877 157.899 87.9877C157.556 87.9877 157.281 88.0969 157.075 88.3153C156.869 88.5338 156.766 88.8365 156.766 89.2234V90.6277C156.766 91.0146 156.869 91.3173 157.075 91.5357C157.281 91.7542 157.556 91.8634 157.899 91.8634ZM164.187 92.5C163.887 92.5 163.625 92.4407 163.4 92.3221C163.176 92.2035 163.001 92.035 162.876 91.8166C162.751 91.5982 162.689 91.3423 162.689 91.0489V86.4336H160.957V85.666H163.531V91.0489C163.531 91.2611 163.591 91.4296 163.709 91.5545C163.828 91.673 163.987 91.7323 164.187 91.7323H165.825V92.5H164.187ZM169.098 92.5749C168.686 92.5749 168.33 92.4969 168.031 92.3409C167.731 92.1848 167.497 91.9601 167.329 91.6668C167.166 91.3672 167.085 91.0146 167.085 90.6089V89.2421C167.085 88.8302 167.166 88.4776 167.329 88.1843C167.497 87.8909 167.731 87.6662 168.031 87.5102C168.33 87.3542 168.686 87.2762 169.098 87.2762C169.51 87.2762 169.866 87.3542 170.165 87.5102C170.465 87.6662 170.696 87.8909 170.858 88.1843C171.026 88.4776 171.111 88.8271 171.111 89.2328V90.6089C171.111 91.0146 171.026 91.3672 170.858 91.6668C170.696 91.9601 170.465 92.1848 170.165 92.3409C169.866 92.4969 169.51 92.5749 169.098 92.5749ZM169.098 91.826C169.466 91.826 169.753 91.723 169.959 91.517C170.165 91.3111 170.268 91.0084 170.268 90.6089V89.2421C170.268 88.8427 170.165 88.54 169.959 88.334C169.753 88.1281 169.466 88.0251 169.098 88.0251C168.736 88.0251 168.449 88.1281 168.237 88.334C168.031 88.54 167.928 88.8427 167.928 89.2421V90.6089C167.928 91.0084 168.031 91.3111 168.237 91.517C168.449 91.723 168.736 91.826 169.098 91.826ZM173.569 94.1851L174.327 92.1817L172.418 87.3511H173.354L174.552 90.534C174.596 90.6401 174.636 90.7681 174.674 90.9179C174.711 91.0614 174.742 91.1831 174.767 91.283C174.792 91.1831 174.824 91.0614 174.861 90.9179C174.899 90.7681 174.936 90.6401 174.973 90.534L176.097 87.3511H177.005L174.468 94.1851H173.569ZM178.134 92.5V87.3511H178.874V87.9689H179.042L178.911 88.1936C178.911 87.9065 178.986 87.6787 179.136 87.5102C179.292 87.3417 179.501 87.2574 179.763 87.2574C180.05 87.2574 180.272 87.3635 180.428 87.5757C180.584 87.7879 180.662 88.0875 180.662 88.4745L180.409 87.9689H180.802L180.624 88.1936C180.624 87.9065 180.702 87.6787 180.858 87.5102C181.021 87.3417 181.233 87.2574 181.495 87.2574C181.819 87.2574 182.069 87.3791 182.244 87.6226C182.425 87.866 182.515 88.1874 182.515 88.5868V92.5H181.738V88.5774C181.738 88.3652 181.691 88.1999 181.598 88.0813C181.51 87.9627 181.379 87.9034 181.205 87.9034C181.036 87.9034 180.902 87.9627 180.802 88.0813C180.708 88.1936 180.662 88.3559 180.662 88.5681V92.5H179.988V88.5774C179.988 88.359 179.938 88.1936 179.838 88.0813C179.744 87.9627 179.61 87.9034 179.435 87.9034C179.261 87.9034 179.129 87.9627 179.042 88.0813C178.955 88.1936 178.911 88.3559 178.911 88.5681V92.5H178.134ZM185.938 92.5936C185.532 92.5936 185.177 92.5125 184.871 92.3502C184.571 92.1879 184.337 91.9601 184.169 91.6668C184.006 91.3672 183.925 91.0209 183.925 90.6277V89.2234C183.925 88.824 184.006 88.4776 184.169 88.1843C184.337 87.8909 184.571 87.6631 184.871 87.5009C185.177 87.3386 185.532 87.2574 185.938 87.2574C186.344 87.2574 186.696 87.3386 186.996 87.5009C187.302 87.6631 187.536 87.8909 187.698 88.1843C187.867 88.4776 187.951 88.824 187.951 89.2234V90.1315H184.749V90.6277C184.749 91.0333 184.852 91.3454 185.058 91.5638C185.264 91.776 185.557 91.8821 185.938 91.8821C186.263 91.8821 186.525 91.826 186.724 91.7136C186.924 91.595 187.046 91.4203 187.089 91.1894H187.932C187.876 91.62 187.664 91.9633 187.295 92.2191C186.933 92.4688 186.481 92.5936 185.938 92.5936ZM187.127 89.5698V89.2234C187.127 88.8177 187.024 88.5057 186.818 88.2872C186.618 88.0688 186.325 87.9596 185.938 87.9596C185.557 87.9596 185.264 88.0688 185.058 88.2872C184.852 88.5057 184.749 88.8177 184.749 89.2234V89.4949H187.192L187.127 89.5698ZM189.604 92.5V87.3511H190.447V88.334H190.625L190.447 88.5306C190.447 88.125 190.568 87.8129 190.812 87.5945C191.055 87.3698 191.392 87.2574 191.823 87.2574C192.341 87.2574 192.753 87.4166 193.059 87.7349C193.364 88.0532 193.517 88.487 193.517 89.0362V92.5H192.675V89.1298C192.675 88.7616 192.575 88.4807 192.375 88.2872C192.182 88.0875 191.916 87.9877 191.579 87.9877C191.23 87.9877 190.952 88.0938 190.746 88.306C190.547 88.5182 190.447 88.824 190.447 89.2234V92.5H189.604ZM197.726 92.5C197.283 92.5 196.937 92.3814 196.687 92.1443C196.444 91.9071 196.322 91.5732 196.322 91.1426V88.1187H194.871V87.3511H196.322V85.9H197.165V87.3511H199.224V88.1187H197.165V91.1426C197.165 91.5357 197.352 91.7323 197.726 91.7323H199.131V92.5H197.726ZM208.953 92.5C208.51 92.5 208.164 92.3814 207.914 92.1443C207.671 91.9071 207.549 91.5732 207.549 91.1426V88.1187H206.098V87.3511H207.549V85.9H208.391V87.3511H210.451V88.1187H208.391V91.1426C208.391 91.5357 208.579 91.7323 208.953 91.7323H210.357V92.5H208.953ZM214.005 92.5936C213.599 92.5936 213.243 92.5125 212.938 92.3502C212.638 92.1879 212.404 91.9601 212.235 91.6668C212.073 91.3672 211.992 91.0209 211.992 90.6277V89.2234C211.992 88.824 212.073 88.4776 212.235 88.1843C212.404 87.8909 212.638 87.6631 212.938 87.5009C213.243 87.3386 213.599 87.2574 214.005 87.2574C214.41 87.2574 214.763 87.3386 215.063 87.5009C215.369 87.6631 215.603 87.8909 215.765 88.1843C215.933 88.4776 216.018 88.824 216.018 89.2234V90.1315H212.816V90.6277C212.816 91.0333 212.919 91.3454 213.125 91.5638C213.331 91.776 213.624 91.8821 214.005 91.8821C214.329 91.8821 214.591 91.826 214.791 91.7136C214.991 91.595 215.113 91.4203 215.156 91.1894H215.999C215.943 91.62 215.73 91.9633 215.362 92.2191C215 92.4688 214.548 92.5936 214.005 92.5936ZM215.194 89.5698V89.2234C215.194 88.8177 215.091 88.5057 214.885 88.2872C214.685 88.0688 214.392 87.9596 214.005 87.9596C213.624 87.9596 213.331 88.0688 213.125 88.2872C212.919 88.5057 212.816 88.8177 212.816 89.2234V89.4949H215.259L215.194 89.5698ZM217.428 92.5V87.3511H218.167V87.9689H218.336L218.205 88.1936C218.205 87.9065 218.279 87.6787 218.429 87.5102C218.585 87.3417 218.794 87.2574 219.056 87.2574C219.344 87.2574 219.565 87.3635 219.721 87.5757C219.877 87.7879 219.955 88.0875 219.955 88.4745L219.702 87.9689H220.096L219.918 88.1936C219.918 87.9065 219.996 87.6787 220.152 87.5102C220.314 87.3417 220.526 87.2574 220.788 87.2574C221.113 87.2574 221.363 87.3791 221.537 87.6226C221.718 87.866 221.809 88.1874 221.809 88.5868V92.5H221.032V88.5774C221.032 88.3652 220.985 88.1999 220.891 88.0813C220.804 87.9627 220.673 87.9034 220.498 87.9034C220.33 87.9034 220.195 87.9627 220.096 88.0813C220.002 88.1936 219.955 88.3559 219.955 88.5681V92.5H219.281V88.5774C219.281 88.359 219.231 88.1936 219.131 88.0813C219.038 87.9627 218.904 87.9034 218.729 87.9034C218.554 87.9034 218.423 87.9627 218.336 88.0813C218.248 88.1936 218.205 88.3559 218.205 88.5681V92.5H217.428ZM223.284 94.1851V87.3511H224.127V88.334H224.295L224.127 88.5306C224.127 88.1374 224.255 87.8285 224.511 87.6038C224.773 87.3729 225.116 87.2574 225.54 87.2574C226.058 87.2574 226.47 87.4291 226.776 87.7723C227.088 88.1094 227.244 88.5743 227.244 89.1672V90.6745C227.244 91.0677 227.173 91.4078 227.029 91.6949C226.892 91.982 226.695 92.2035 226.439 92.3596C226.19 92.5156 225.89 92.5936 225.54 92.5936C225.122 92.5936 224.782 92.4782 224.52 92.2472C224.258 92.0163 224.127 91.7074 224.127 91.3204L224.295 91.517H224.108L224.127 92.6872V94.1851H223.284ZM225.26 91.8634C225.615 91.8634 225.893 91.7573 226.093 91.5451C226.299 91.3329 226.402 91.0271 226.402 90.6277V89.2234C226.402 88.824 226.299 88.5182 226.093 88.306C225.893 88.0938 225.615 87.9877 225.26 87.9877C224.916 87.9877 224.642 88.0969 224.436 88.3153C224.23 88.5338 224.127 88.8365 224.127 89.2234V90.6277C224.127 91.0146 224.23 91.3173 224.436 91.5357C224.642 91.7542 224.916 91.8634 225.26 91.8634ZM231.547 92.5C231.247 92.5 230.985 92.4407 230.761 92.3221C230.536 92.2035 230.361 92.035 230.236 91.8166C230.112 91.5982 230.049 91.3423 230.049 91.0489V86.4336H228.317V85.666H230.892V91.0489C230.892 91.2611 230.951 91.4296 231.07 91.5545C231.188 91.673 231.347 91.7323 231.547 91.7323H233.185V92.5H231.547ZM236.009 92.5936C235.466 92.5936 235.038 92.4563 234.726 92.1817C234.414 91.9009 234.258 91.5233 234.258 91.0489C234.258 90.5684 234.414 90.1908 234.726 89.9162C235.038 89.6416 235.46 89.5043 235.99 89.5043H237.582V88.9894C237.582 88.6711 237.485 88.4277 237.291 88.2591C237.104 88.0844 236.836 87.997 236.486 87.997C236.181 87.997 235.925 88.0626 235.719 88.1936C235.513 88.3184 235.394 88.4901 235.363 88.7085H234.52C234.577 88.2654 234.786 87.9128 235.148 87.6506C235.51 87.3885 235.962 87.2574 236.505 87.2574C237.098 87.2574 237.566 87.4104 237.909 87.7162C238.253 88.022 238.424 88.437 238.424 88.9613V92.5H237.6V91.517H237.46L237.6 91.3766C237.6 91.7511 237.454 92.0475 237.16 92.266C236.873 92.4844 236.489 92.5936 236.009 92.5936ZM236.215 91.9289C236.614 91.9289 236.942 91.8291 237.198 91.6294C237.454 91.4296 237.582 91.1738 237.582 90.8617V90.1315H236.009C235.728 90.1315 235.507 90.2095 235.344 90.3655C235.182 90.5216 235.101 90.7338 235.101 91.0021C235.101 91.2892 235.198 91.517 235.391 91.6855C235.591 91.8478 235.865 91.9289 236.215 91.9289ZM242.633 92.5C242.19 92.5 241.844 92.3814 241.594 92.1443C241.351 91.9071 241.229 91.5732 241.229 91.1426V88.1187H239.778V87.3511H241.229V85.9H242.072V87.3511H244.131V88.1187H242.072V91.1426C242.072 91.5357 242.259 91.7323 242.633 91.7323H244.038V92.5H242.633ZM247.685 92.5936C247.279 92.5936 246.924 92.5125 246.618 92.3502C246.318 92.1879 246.084 91.9601 245.916 91.6668C245.753 91.3672 245.672 91.0209 245.672 90.6277V89.2234C245.672 88.824 245.753 88.4776 245.916 88.1843C246.084 87.8909 246.318 87.6631 246.618 87.5009C246.924 87.3386 247.279 87.2574 247.685 87.2574C248.091 87.2574 248.443 87.3386 248.743 87.5009C249.049 87.6631 249.283 87.8909 249.445 88.1843C249.614 88.4776 249.698 88.824 249.698 89.2234V90.1315H246.496V90.6277C246.496 91.0333 246.599 91.3454 246.805 91.5638C247.011 91.776 247.304 91.8821 247.685 91.8821C248.01 91.8821 248.272 91.826 248.471 91.7136C248.671 91.595 248.793 91.4203 248.836 91.1894H249.679C249.623 91.62 249.411 91.9633 249.042 92.2191C248.68 92.4688 248.228 92.5936 247.685 92.5936ZM248.874 89.5698V89.2234C248.874 88.8177 248.771 88.5057 248.565 88.2872C248.365 88.0688 248.072 87.9596 247.685 87.9596C247.304 87.9596 247.011 88.0688 246.805 88.2872C246.599 88.5057 246.496 88.8177 246.496 89.2234V89.4949H248.939L248.874 89.5698ZM253.298 88.6617C253.067 88.6617 252.88 88.5993 252.737 88.4745C252.593 88.3434 252.521 88.1718 252.521 87.9596C252.521 87.7474 252.593 87.5789 252.737 87.454C252.88 87.323 253.067 87.2574 253.298 87.2574C253.536 87.2574 253.723 87.323 253.86 87.454C254.004 87.5789 254.075 87.7474 254.075 87.9596C254.075 88.1718 254.004 88.3434 253.86 88.4745C253.723 88.5993 253.536 88.6617 253.298 88.6617ZM253.298 92.5936C253.067 92.5936 252.88 92.5312 252.737 92.4064C252.593 92.2753 252.521 92.1037 252.521 91.8915C252.521 91.6793 252.593 91.5108 252.737 91.386C252.88 91.2549 253.067 91.1894 253.298 91.1894C253.536 91.1894 253.723 91.2549 253.86 91.386C254.004 91.5108 254.075 91.6793 254.075 91.8915C254.075 92.1037 254.004 92.2753 253.86 92.4064C253.723 92.5312 253.536 92.5936 253.298 92.5936Z" fill="white"/>
<path d="M150.114 112.86C146.685 112.86 144.464 110.477 144.464 106.791C144.464 103.137 146.766 100.706 150.211 100.706C152.995 100.706 155.072 102.332 155.474 104.859H153.301C152.899 103.491 151.724 102.686 150.162 102.686C147.989 102.686 146.621 104.264 146.621 106.775C146.621 109.27 148.005 110.88 150.162 110.88C151.756 110.88 152.979 110.043 153.366 108.739H155.507C155.056 111.218 152.899 112.86 150.114 112.86ZM156.598 108.675C156.598 106.196 158.385 104.489 160.848 104.489C163.311 104.489 165.097 106.196 165.097 108.675C165.097 111.154 163.311 112.86 160.848 112.86C158.385 112.86 156.598 111.154 156.598 108.675ZM158.562 108.675C158.562 110.123 159.495 111.105 160.848 111.105C162.2 111.105 163.134 110.123 163.134 108.675C163.134 107.226 162.2 106.244 160.848 106.244C159.495 106.244 158.562 107.226 158.562 108.675ZM168.618 112.667H166.654V104.715H168.457L168.618 105.648C169.02 104.988 169.825 104.473 170.968 104.473C172.176 104.473 173.013 105.069 173.431 105.986C173.834 105.069 174.767 104.473 175.975 104.473C177.906 104.473 178.969 105.632 178.969 107.467V112.667H177.021V107.982C177.021 106.839 176.409 106.244 175.476 106.244C174.526 106.244 173.801 106.856 173.801 108.159V112.667H171.838V107.966C171.838 106.856 171.242 106.26 170.308 106.26C169.375 106.26 168.618 106.872 168.618 108.159V112.667ZM180.108 104.715H181.251V103.749C181.251 101.592 182.394 100.69 184.116 100.69C184.422 100.69 184.792 100.706 185.13 100.771V102.445H184.438C183.44 102.445 183.199 102.96 183.199 103.749V104.715H185.098V106.357H183.199V112.667H181.251V106.357H180.108V104.715ZM185.659 116.353V114.711H186.835C187.607 114.711 188.09 114.534 188.428 113.6L188.654 113.005L185.45 104.715H187.527L189.571 110.51L191.728 104.715H193.756L189.861 114.437C189.265 115.918 188.428 116.53 187.124 116.53C186.577 116.53 186.094 116.466 185.659 116.353ZM195.081 108.369V100.899H197.142V108.24C197.142 109.93 198.059 110.864 199.733 110.864C201.408 110.864 202.341 109.914 202.341 108.24V100.899H204.402V108.369C204.402 111.121 202.599 112.86 199.733 112.86C196.884 112.86 195.081 111.137 195.081 108.369ZM208.997 100.899V112.667H206.936V100.899H208.997Z" fill="white"/>
<defs>
<linearGradient id="paint0_linear_3583_72445" x1="113.424" y1="108.014" x2="117.9" y2="102.995" gradientUnits="userSpaceOnUse">
<stop stop-color="#FF414C"/>
<stop offset="1" stop-color="#FF414C" stop-opacity="0"/>
</linearGradient>
</defs>
</svg>
