<svg width="233" height="32" viewBox="0 0 233 32" fill="none" xmlns="http://www.w3.org/2000/svg">
<path d="M24.3221 20.4932L30.1116 30.6398H18.4167L12.566 20.4932H24.3221Z" fill="url(#paint0_linear_84_484)"/>
<path d="M30.1085 30.641L35.9495 20.4944L24.2578 0.196289H12.566L30.1085 30.641Z" fill="#FF414C"/>
<path d="M6.71998 10.3398H18.4118L6.72485 30.6379L0.874146 20.4913L6.71998 10.3398Z" fill="#FF414C"/>
<path d="M58.7226 9.81643L58.4308 12.9524C57.1802 10.5179 54.304 9.1975 51.2193 9.1975C45.4251 9.1975 41.5485 13.365 41.5485 19.7607C41.5485 26.1152 45.05 30.7366 51.1776 30.7366C54.5124 30.7366 56.9718 29.1274 58.264 27.023L58.5975 30.2002H63.3496V9.81643H58.7226ZM58.1807 20.0083C58.1807 23.6807 55.888 26.1977 52.3448 26.1977C48.8016 26.1977 46.634 23.6394 46.634 20.0083C46.634 16.3772 48.8433 13.7776 52.3865 13.7776C55.9297 13.7776 58.1807 16.3359 58.1807 20.0083Z" fill="white"/>
<path d="M72.0024 30.2002V24.7122L75.0037 21.6175L80.381 30.2002H86.2169L78.5469 17.9039L86.3836 9.81643H80.0059L72.0024 18.3578V0.101074H66.9585V30.2002H72.0024Z" fill="white"/>
<path d="M103.295 9.81643L103.003 12.9524C101.753 10.5179 98.8766 9.1975 95.7919 9.1975C89.9977 9.1975 86.1211 13.365 86.1211 19.7607C86.1211 26.1152 89.6226 30.7366 95.7502 30.7366C99.085 30.7366 101.544 29.1274 102.837 27.023L103.17 30.2002H107.922V9.81643H103.295ZM102.753 20.0083C102.753 23.6807 100.461 26.1977 96.9174 26.1977C93.3742 26.1977 91.2066 23.6394 91.2066 20.0083C91.2066 16.3772 93.4159 13.7776 96.9591 13.7776C100.502 13.7776 102.753 16.3359 102.753 20.0083Z" fill="white"/>
<path d="M110.496 24.0108C110.496 28.0133 113.747 30.7366 118.874 30.7366C123.96 30.7366 127.503 28.1783 127.503 24.052C127.503 20.9161 125.752 19.3481 122.292 18.5641L118.582 17.6976C116.832 17.285 115.915 16.5422 115.915 15.3869C115.915 13.8602 117.082 12.9524 119.083 12.9524C121.042 12.9524 122.209 14.0665 122.251 15.7995H127.086C127.044 11.8383 123.918 9.1975 119.291 9.1975C114.539 9.1975 111.121 11.5907 111.121 15.5932C111.121 18.853 112.913 20.586 116.623 21.4112L120.333 22.2778C122.167 22.6904 122.709 23.4331 122.709 24.4647C122.709 25.9501 121.417 26.8992 119.041 26.8992C116.707 26.8992 115.373 25.7851 115.331 24.0108H110.496Z" fill="white"/>
<path d="M135.422 30.2002V19.0593C135.422 16.0058 137.298 13.7776 140.507 13.7776C143.092 13.7776 144.801 15.4282 144.801 18.853V30.2002H149.886V17.6563C149.886 12.3747 147.219 9.1975 142.133 9.1975C139.173 9.1975 136.756 10.4766 135.463 12.4572V0.101074H130.336V30.2002H135.422Z" fill="white"/>
<path d="M153.617 20.9915C153.617 14.6523 157.636 10.2605 163.561 10.2605C168.657 10.2605 172.221 13.1608 172.925 17.6769H169.03C168.367 15.1081 166.296 13.7408 163.685 13.7408C159.998 13.7408 157.471 16.5582 157.471 20.9501C157.471 25.3005 159.832 28.1179 163.52 28.1179C166.296 28.1179 168.367 26.6678 169.072 24.2647H172.966C172.179 28.6566 168.409 31.5983 163.52 31.5983C157.553 31.5983 153.617 27.3721 153.617 20.9915ZM179.313 31.0596H175.418V0.606677H179.313V13.948C180.597 11.752 183.042 10.2605 186.191 10.2605C191.37 10.2605 193.856 13.5336 193.856 18.7127V31.1011H189.961V19.5828C189.961 15.481 188.014 13.8237 185.114 13.8237C181.343 13.8237 179.313 16.5582 179.313 20.0386V31.0596ZM213.462 10.8405H216.9V31.1011H213.337L213.006 27.4136C211.638 30.0238 209.028 31.6397 205.672 31.6397C199.706 31.6397 196.267 26.9992 196.267 20.8258C196.267 14.6109 199.996 10.2605 205.796 10.2605C208.904 10.2605 211.846 11.6692 213.171 14.5695L213.462 10.8405ZM212.923 20.9915C212.923 16.7654 210.52 13.8237 206.542 13.8237C202.565 13.8237 200.203 16.8068 200.203 20.9915C200.203 25.1348 202.523 28.1179 206.501 28.1179C210.478 28.1179 212.923 25.1762 212.923 20.9915ZM226.578 31.1011H222.683V14.1137H218.705V10.8405H222.683V4.50134H226.578V10.8405H230.555V14.1137H226.578V31.1011Z" fill="#868686"/>
<defs>
<linearGradient id="paint0_linear_84_484" x1="23.153" y1="27.5087" x2="27.4373" y2="22.3676" gradientUnits="userSpaceOnUse">
<stop stop-color="#FF414C"/>
<stop offset="1" stop-color="#FF414C" stop-opacity="0"/>
</linearGradient>
</defs>
</svg>
