<svg width="263" height="32" viewBox="0 0 263 32" fill="none" xmlns="http://www.w3.org/2000/svg">
<path d="M24.1517 21.4236L29.9215 31.5356H18.2665L12.4358 21.4236H24.1517Z" fill="url(#paint0_linear_84_464)"/>
<path d="M29.9184 31.5371L35.7395 21.4251L24.0877 1.19629H12.4358L29.9184 31.5371Z" fill="#FF414C"/>
<path d="M6.60982 11.3057H18.2617L6.61467 31.5345L0.783936 21.4225L6.60982 11.3057Z" fill="#FF414C"/>
<path d="M58.4346 10.7833L58.1438 13.9085C56.8975 11.4824 54.0311 10.1665 50.957 10.1665C45.1825 10.1665 41.3191 14.3198 41.3191 20.6936C41.3191 27.0264 44.8087 31.632 50.9154 31.632C54.2388 31.632 56.6898 30.0283 57.9776 27.9311L58.31 31.0975H63.0458V10.7833H58.4346ZM57.8946 20.9404C57.8946 24.6002 55.6097 27.1086 52.0786 27.1086C48.5475 27.1086 46.3873 24.5591 46.3873 20.9404C46.3873 17.3216 48.589 14.731 52.1201 14.731C55.6513 14.731 57.8946 17.2805 57.8946 20.9404Z" fill="white"/>
<path d="M71.6691 31.0975V25.6283L74.6602 22.5441L80.0191 31.0975H85.8351L78.1913 18.8432L86.0013 10.7833H79.6453L71.6691 19.2955V1.10107H66.6425V31.0975H71.6691Z" fill="white"/>
<path d="M102.855 10.7833L102.564 13.9085C101.318 11.4824 98.4516 10.1665 95.3774 10.1665C89.603 10.1665 85.7396 14.3198 85.7396 20.6936C85.7396 27.0264 89.2292 31.632 95.3359 31.632C98.6593 31.632 101.11 30.0283 102.398 27.9311L102.73 31.0975H107.466V10.7833H102.855ZM102.315 20.9404C102.315 24.6002 100.03 27.1086 96.4991 27.1086C92.968 27.1086 90.8078 24.5591 90.8078 20.9404C90.8078 17.3216 93.0095 14.731 96.5406 14.731C100.072 14.731 102.315 17.2805 102.315 20.9404Z" fill="white"/>
<path d="M110.031 24.9292C110.031 28.918 113.271 31.632 118.381 31.632C123.449 31.632 126.98 29.0825 126.98 24.9703C126.98 21.8451 125.236 20.2824 121.787 19.5011L118.09 18.6376C116.345 18.2263 115.431 17.4861 115.431 16.3347C115.431 14.8132 116.595 13.9085 118.589 13.9085C120.541 13.9085 121.704 15.0188 121.746 16.7459H126.565C126.523 12.7983 123.408 10.1665 118.796 10.1665C114.061 10.1665 110.654 12.5515 110.654 16.5403C110.654 19.789 112.44 21.5161 116.138 22.3385L119.835 23.2021C121.663 23.6133 122.203 24.3535 122.203 25.3815C122.203 26.8619 120.915 27.8077 118.547 27.8077C116.221 27.8077 114.891 26.6974 114.85 24.9292H110.031Z" fill="white"/>
<path d="M134.872 31.0975V19.9946C134.872 16.9516 136.741 14.731 139.94 14.731C142.516 14.731 144.219 16.3758 144.219 19.789V31.0975H149.287V18.5964C149.287 13.3328 146.629 10.1665 141.56 10.1665C138.611 10.1665 136.201 11.4412 134.914 13.4151V1.10107H129.804V31.0975H134.872Z" fill="white"/>
<path d="M153.006 21.026C153.006 14.7085 157.011 10.3316 162.916 10.3316C167.994 10.3316 171.546 13.222 172.247 17.7227H168.366C167.705 15.1627 165.641 13.8001 163.04 13.8001C159.365 13.8001 156.846 16.6079 156.846 20.9847C156.846 25.3203 159.199 28.1281 162.874 28.1281C165.641 28.1281 167.705 26.6829 168.407 24.288H172.289C171.504 28.6649 167.747 31.5966 162.874 31.5966C156.928 31.5966 153.006 27.3849 153.006 21.026ZM178.614 31.0598H174.732V0.710747H178.614V14.0065C179.894 11.8181 182.33 10.3316 185.468 10.3316C190.629 10.3316 193.107 13.5936 193.107 18.755V31.1011H189.226V19.6221C189.226 15.5343 187.285 13.8826 184.395 13.8826C180.637 13.8826 178.614 16.6079 178.614 20.0763V31.0598ZM212.646 10.9097H216.073V31.1011H212.522L212.192 27.4262C210.829 30.0275 208.228 31.6379 204.883 31.6379C198.937 31.6379 195.51 27.0132 195.51 20.8609C195.51 14.6672 199.226 10.3316 205.007 10.3316C208.104 10.3316 211.035 11.7355 212.357 14.6259L212.646 10.9097ZM212.109 21.026C212.109 16.8143 209.714 13.8826 205.75 13.8826C201.786 13.8826 199.433 16.8556 199.433 21.026C199.433 25.1551 201.745 28.1281 205.709 28.1281C209.673 28.1281 212.109 25.1964 212.109 21.026ZM225.717 31.1011H221.836V14.1717H217.872V10.9097H221.836V4.59212H225.717V10.9097H229.681V14.1717H225.717V31.1011Z" fill="#868686"/>
<rect x="232.751" y="1.10107" width="30.1314" height="18" rx="9" fill="#7F7F7F"/>
<path d="M240.667 14.1011H239.183L242.129 5.94327H243.591L246.537 14.1011H245.03L244.372 12.2151H241.325L240.667 14.1011ZM242.676 8.3761L241.749 11.0098H243.959L243.022 8.3761C242.955 8.16407 242.877 7.91855 242.854 7.75116C242.821 7.90739 242.754 8.15291 242.676 8.3761ZM250.562 11.2888H248.765V14.1011H247.337V5.94327H250.562C252.202 5.94327 253.263 7.01461 253.263 8.61046C253.263 10.184 252.191 11.2888 250.562 11.2888ZM250.283 7.21549H248.765V10.0166H250.261C251.243 10.0166 251.767 9.49208 251.767 8.5993C251.767 7.70652 251.232 7.21549 250.283 7.21549ZM255.669 5.94327V14.1011H254.241V5.94327H255.669Z" fill="white"/>
<defs>
<linearGradient id="paint0_linear_84_464" x1="22.9866" y1="28.4152" x2="27.2563" y2="23.2916" gradientUnits="userSpaceOnUse">
<stop stop-color="#FF414C"/>
<stop offset="1" stop-color="#FF414C" stop-opacity="0"/>
</linearGradient>
</defs>
</svg>
