<svg width="24" height="24" viewBox="0 0 24 24" fill="none" xmlns="http://www.w3.org/2000/svg">
<path d="M18.6177 2.39606L23.3653 11.354C23.6283 11.8502 23.6209 12.4491 23.3457 12.9384L21.8868 15.5322C21.782 15.7185 21.5161 15.7141 21.4174 15.5243L14.3519 1.93657C14.2576 1.75531 14.387 1.53727 14.5887 1.53727H17.2025C17.7938 1.53727 18.3373 1.86712 18.6177 2.39606Z" fill="#3E3E3E"/>
<path fill-rule="evenodd" clip-rule="evenodd" d="M17.2025 1.80943C17.6952 1.80943 18.1482 2.08431 18.3818 2.52509L23.1295 11.4831C23.3486 11.8966 23.3424 12.3956 23.1131 12.8034L21.6542 15.3971L14.5887 1.80943H17.2025Z" fill="#3E3E3E"/>
<path d="M16.2228 23.3106L8.45533 23.3106C7.66899 23.3105 6.94581 22.873 6.57115 22.1706L5.25281 19.699C5.15608 19.5177 5.2853 19.2972 5.48831 19.2972L19.5327 19.2958C19.7476 19.2958 19.8751 19.54 19.7545 19.7207L17.9968 22.355C17.598 22.9527 16.9335 23.3106 16.2228 23.3106Z" fill="#3E3E3E"/>
<path fill-rule="evenodd" clip-rule="evenodd" d="M19.5327 19.568L17.775 22.2024C17.4261 22.7253 16.8447 23.0385 16.2228 23.0385L8.45534 23.0384C7.7673 23.0384 7.13451 22.6556 6.80669 22.041L5.48834 19.5694L19.5327 19.568Z" fill="#3E3E3E"/>
<path d="M6.07937 2.13906L4.47999 5.38894C4.32471 5.70446 4.32953 6.07686 4.49292 6.38812L6.25541 9.74558C6.30622 9.84238 6.44309 9.84144 6.49262 9.74396L10.46 1.93426C10.5521 1.75311 10.4226 1.53727 10.222 1.53727H7.03779C6.63192 1.53727 6.26088 1.77024 6.07937 2.13906Z" fill="#3E3E3E"/>
<path fill-rule="evenodd" clip-rule="evenodd" d="M7.03779 1.80943C6.73338 1.80943 6.45511 1.98416 6.31897 2.26078L4.71959 5.51066C4.60313 5.7473 4.60675 6.0266 4.7293 6.26005L6.37165 9.38866L10.222 1.80943H7.03779Z" fill="#3E3E3E"/>
<path d="M1.3594 13.1972L3.58672 17.1667C3.63417 17.2513 3.72245 17.3036 3.81825 17.3041L7.75005 17.3219C7.85334 17.3223 7.91826 17.2088 7.86673 17.1179L3.00949 8.54531C2.95801 8.45446 2.82901 8.45437 2.77741 8.54516L1.36524 11.0302C0.984515 11.7002 0.982291 12.5251 1.3594 13.1972Z" fill="#3E3E3E"/>
<path fill-rule="evenodd" clip-rule="evenodd" d="M1.59719 11.1663C1.26405 11.7526 1.26211 12.4744 1.59208 13.0624L3.8194 17.032L7.51834 17.0487L2.89319 8.88572L1.59719 11.1663Z" fill="#3E3E3E"/>
<path d="M10.9091 5.17097L10.5565 2.14573C10.5443 2.04065 10.4066 2.01329 10.3563 2.10593L6.36719 9.45172C6.28203 9.60854 6.27825 9.7979 6.35709 9.9581L7.2351 11.7422C7.2639 11.8007 7.34534 11.8028 7.37698 11.7458L10.8436 5.50242C10.8995 5.40179 10.9224 5.28571 10.9091 5.17097Z" fill="#3E3E3E"/>
<path fill-rule="evenodd" clip-rule="evenodd" d="M10.1217 1.97454C10.2978 1.65028 10.7084 1.35376 10.7513 1.72153L11.1751 5.13906C11.1951 5.31116 11.1608 5.48529 11.077 5.63623L7.6103 11.8796C7.4732 12.1265 7.12028 12.1175 6.9955 11.864L6.11749 10.0799C5.99923 9.8396 6.00489 9.55557 6.13264 9.32033L10.1217 1.97454ZM10.3493 2.68232L6.60175 9.58328C6.55917 9.66169 6.55728 9.75637 6.5967 9.83647L7.31696 11.3L10.6103 5.36878C10.6383 5.31847 10.6497 5.26043 10.643 5.20306L10.3493 2.68232Z" fill="#3E3E3E"/>
<path d="M13.8947 4.90973L14.229 1.88762C14.2407 1.78119 14.3808 1.75418 14.4301 1.84883L21.577 15.5593C21.6136 15.6296 21.5833 15.7168 21.5114 15.7481L19.8382 16.4766C19.7996 16.4934 19.7548 16.4772 19.7353 16.4395L13.9525 5.22309C13.9029 5.12684 13.8827 5.0177 13.8947 4.90973Z" fill="#3E3E3E"/>
<path fill-rule="evenodd" clip-rule="evenodd" d="M14.6669 1.72153C14.4942 1.39028 14.0959 1.38572 14.0547 1.75822L13.6284 4.87942C13.6105 5.04138 13.6407 5.20509 13.7152 5.34946L19.498 16.5658C19.5824 16.7295 19.7765 16.7997 19.9437 16.7269L21.6169 15.9983C21.8328 15.9043 21.9236 15.643 21.8137 15.432L14.6669 1.72153ZM14.437 2.44368L21.2722 15.5562L19.8921 16.1571L14.1898 5.09689C14.165 5.04876 14.1549 4.99419 14.1609 4.9402L14.437 2.44368Z" fill="#3E3E3E"/>
<path d="M8.81269 17.7445L8.12607 17.3957C8.03264 17.3482 7.9549 17.274 7.90242 17.1823L2.89303 8.42309L4.34576 9.69337C4.3525 9.69926 4.35823 9.70625 4.36272 9.71405L8.91801 17.6302C8.95835 17.7003 8.88418 17.7808 8.81269 17.7445Z" fill="#3E3E3E"/>
<path fill-rule="evenodd" clip-rule="evenodd" d="M8.36846 17.2145L8.24584 17.1522C8.19913 17.1285 8.16026 17.0914 8.13402 17.0455L3.92353 9.68327L4.14724 9.87888L8.36846 17.2145ZM8.69286 17.9879C9.00264 18.1453 9.32405 17.7966 9.14924 17.4929L4.59395 9.57667C4.57451 9.54289 4.54968 9.5126 4.52048 9.48707L3.14134 8.29125L2.66138 8.55981L7.67077 17.319C7.74949 17.4566 7.86609 17.5679 8.00624 17.6391L8.69286 17.9879Z" fill="#3E3E3E"/>
<path fill-rule="evenodd" clip-rule="evenodd" d="M3.35394 17.1179C3.27465 17.2448 3.42761 17.4724 3.55251 17.553L4.29117 18.0294C4.37689 18.0847 4.47631 18.1141 4.57784 18.1142L7.44436 18.1167L8.78207 18.1394C8.93 18.1419 9.19344 17.8659 9.1959 17.7156C9.19837 17.5653 8.93892 17.5976 8.79099 17.5951L7.44695 17.5724L4.57831 17.5698L3.83966 17.0934C3.71475 17.0129 3.43324 16.991 3.35394 17.1179Z" fill="#3E3E3E"/>
<path d="M19.9853 19.8908C20.2265 19.5293 19.9716 19.041 19.5418 19.041L5.49741 19.0424C5.0914 19.0424 4.83296 19.4834 5.02641 19.8461L6.34476 22.3176C6.76625 23.1078 7.57983 23.6 8.46445 23.6001L16.232 23.6001C17.0315 23.6001 17.779 23.1975 18.2276 22.5251L19.9853 19.8908Z" fill="#EDEDED"/>
<path d="M1.12894 13.3504C0.704686 12.5943 0.707189 11.6663 1.13551 10.9125L2.54768 8.42751C2.70246 8.15515 3.08948 8.1554 3.24392 8.42796L8.10115 17.0005C8.25576 17.2734 8.06101 17.6139 7.75112 17.6125L3.81932 17.5947C3.62772 17.5938 3.45115 17.489 3.35626 17.3199L1.12894 13.3504Z" fill="#EDEDED"/>
<path d="M5.84235 2.03472C6.06924 1.57369 6.53304 1.28247 7.04037 1.28247H10.2246C10.6259 1.28247 10.8847 1.71417 10.7007 2.07646L6.73325 9.88616C6.58469 10.1786 6.17406 10.1814 6.02162 9.89104L4.25914 6.53357C4.0549 6.1445 4.04887 5.679 4.24297 5.2846L5.84235 2.03472Z" fill="#EDEDED"/>
<path d="M18.8638 2.2844C18.5368 1.6673 17.9026 1.28247 17.2128 1.28247H14.599C14.1955 1.28247 13.9368 1.71857 14.1253 2.08107L21.1908 15.6688C21.3882 16.0483 21.9201 16.0573 22.1297 15.6846L23.5885 13.0908C23.9096 12.52 23.9183 11.8213 23.6115 11.2424L18.8638 2.2844Z" fill="#EDEDED"/>
</svg>
