<svg width="343" height="200" viewBox="0 0 343 200" fill="none" xmlns="http://www.w3.org/2000/svg">
<rect width="343" height="200" fill="white"/>
<rect width="343" height="200" fill="#2E2758"/>
<path d="M200.961 105.43C200.961 122.591 186.841 136.524 169.397 136.524C151.953 136.524 137.833 122.591 137.833 105.43C137.833 88.2681 151.953 74.3353 169.397 74.3353C186.841 74.3353 200.961 88.2681 200.961 105.43Z" stroke="white" strokeWidth="1.66667"/>
<circle cx="178.32" cy="87.5876" r="3.86192" fill="white" stroke="white" strokeWidth="1.66667"/>
<circle cx="186.77" cy="93.2219" r="1.98382" fill="white" stroke="white" strokeWidth="1.66667"/>
<path d="M196.269 106.136C196.269 111.496 193.298 117.931 188.387 123.047C183.489 128.151 176.768 131.828 169.4 131.828C161.486 131.828 154.119 127.423 149.083 122.05C146.571 119.37 144.673 116.484 143.593 113.852C142.511 111.217 142.303 108.977 142.917 107.445C143.586 106.328 144.483 105.841 145.713 105.664C147.033 105.474 148.658 105.65 150.714 105.873L150.747 105.876C154.823 106.317 160.171 106.872 166.428 104.323C172.332 101.918 179.943 101.105 186.074 101.625C189.142 101.886 191.775 102.474 193.613 103.321C195.501 104.19 196.269 105.184 196.269 106.136Z" stroke="white" strokeWidth="1.66667"/>
<path d="M183.867 73.9585C182.353 71.2577 182.045 68.6849 183.317 67.0727C185.526 64.2711 191.669 65.4316 197.037 69.6648C202.405 73.898 204.965 79.6009 202.756 82.4025C201.558 83.921 199.205 84.2755 196.446 83.6075" stroke="white" strokeWidth="1.66667"/>
<path d="M186.115 73.9707C185.176 72.5621 185.125 71.2782 186.115 70.7463C187.105 70.2145 190.554 71.3584 194.297 74.3101C198.04 77.2618 200.445 80.4519 199.67 81.4354C199.25 81.9685 198.034 82.4221 196.626 81.9526" stroke="white" strokeWidth="1.66667"/>
<path d="M198.975 78.197C197.932 79.7621 195.72 83.8313 195.219 87.5875" stroke="white" strokeWidth="1.66667"/>
<path d="M189.365 70.6842C188.064 72.0421 184.571 75.0836 181.013 76.3869" stroke="white" strokeWidth="1.66667"/>
<path d="M176.439 111.77C167.049 117.404 141.224 115.057 144.042 107.544C137.937 115.526 155.217 131.722 169.867 131.722C184.516 131.722 199.445 113.179 195.219 105.666C195.573 109.422 185.83 106.136 176.439 111.77Z" fill="white"/>
</svg>
