<svg width="16" height="30" viewBox="0 0 16 30" fill="none" xmlns="http://www.w3.org/2000/svg">
<path d="M15.4278 18.3857C15.4278 18.3857 13.7767 19.7528 15.2211 23.5102C15.2211 23.5102 15.7379 26.3411 10.684 29.9053L10.631 27.5121C10.631 27.5121 11.426 26.0768 10.6522 24.7836V20.6822C10.6522 20.6822 14.055 19.7272 14.4923 17.4108C14.4923 17.4108 13.6416 15.7282 9.59477 18.3146C9.59477 18.3146 8.71756 18.5107 9.67162 21.7793L8.33593 23.8684L6.99759 21.7821C7.95165 18.5136 7.07445 18.3175 7.07445 18.3175C3.02762 15.731 2.17691 17.4136 2.17691 17.4136C2.61419 19.7301 6.01702 20.685 6.01702 20.685V24.7836C5.24317 26.0768 6.03822 27.5121 6.03822 27.5121L5.98787 29.9053C0.936629 26.3411 1.45076 23.5102 1.45076 23.5102C2.89511 19.7528 1.24405 18.3857 1.24405 18.3857C-0.748884 10.4473 5.08151 7.52832 7.42957 6.6927C7.29706 4.99588 6.92338 2.47766 5.88186 0.968426C5.85271 0.928635 5.91102 0.883159 5.94812 0.917266C6.30854 1.25265 6.90748 1.88363 7.22816 2.66809C7.22816 2.66809 7.41897 2.27017 7.65749 1.63067C7.90395 0.971268 8.77586 0.971268 9.02233 1.63067C9.26084 2.27017 9.45166 2.66809 9.45166 2.66809C9.77233 1.88363 10.3713 1.25265 10.7317 0.917266C10.7688 0.883159 10.8244 0.928635 10.7979 0.968426C9.75378 2.47766 9.38275 4.99588 9.24759 6.6927C11.5904 7.52547 17.4207 10.4473 15.4278 18.3857Z" fill="#FA7E57"/>
</svg>
