<svg width="664" height="287" viewBox="0 0 664 287" fill="none" xmlns="http://www.w3.org/2000/svg">
<path d="M458.256 98.208H442.152V0H458.388V41.448C462.48 35.112 470.136 31.02 479.508 31.02C495.612 31.02 504.06 41.184 504.06 58.08V98.208H487.956V61.908C487.956 50.952 482.544 45.672 474.36 45.672C464.196 45.672 458.256 52.8 458.256 62.568V98.208Z" fill="white"/>
<path d="M379.332 78.408H394.644C394.776 84.084 399 87.648 406.392 87.648C413.916 87.648 418.008 84.612 418.008 79.86C418.008 76.56 416.292 74.184 410.484 72.864L398.736 70.092C386.988 67.452 381.312 61.908 381.312 51.48C381.312 38.676 392.136 31.02 407.184 31.02C421.836 31.02 431.736 39.468 431.868 52.14H416.556C416.424 46.596 412.728 43.032 406.524 43.032C400.188 43.032 396.492 45.936 396.492 50.82C396.492 54.516 399.396 56.892 404.94 58.212L416.688 60.984C427.644 63.492 433.188 68.508 433.188 78.54C433.188 91.74 421.968 99.924 405.864 99.924C389.628 99.924 379.332 91.212 379.332 78.408Z" fill="white"/>
<path d="M357.638 33H372.29V98.208H357.242L356.186 88.044C352.094 94.776 344.306 99.924 333.746 99.924C314.342 99.924 303.254 85.14 303.254 64.812C303.254 44.352 315.53 31.02 333.878 31.02C343.646 31.02 352.754 35.244 356.714 43.032L357.638 33ZM355.922 65.604C355.922 53.856 348.794 45.672 337.574 45.672C326.354 45.672 319.358 53.988 319.358 65.604C319.358 77.22 326.222 85.404 337.442 85.404C348.662 85.404 355.922 77.352 355.922 65.604Z" fill="white"/>
<path d="M258.558 98.208H242.586V0H258.558V60.324L283.902 33H304.098L279.282 58.872L303.57 98.208H285.09L268.062 70.752L258.558 80.652V98.208Z" fill="white"/>
<path d="M214.322 33H228.974V98.208H213.926L212.87 88.044C208.778 94.776 200.99 99.924 190.43 99.924C171.026 99.924 159.938 85.14 159.938 64.812C159.938 44.352 172.213 31.02 190.561 31.02C200.329 31.02 209.438 35.244 213.398 43.032L214.322 33ZM212.606 65.604C212.606 53.856 205.478 45.672 194.257 45.672C183.038 45.672 176.042 53.988 176.042 65.604C176.042 77.22 182.906 85.404 194.126 85.404C205.346 85.404 212.606 77.352 212.606 65.604Z" fill="white"/>
<path d="M608.559 213.924C589.155 213.924 575.559 199.8 575.559 179.604C575.559 159.144 588.891 145.02 608.031 145.02C627.567 145.02 639.975 158.088 639.975 178.416V183.3L590.871 183.432C592.059 194.916 598.131 200.724 608.823 200.724C617.667 200.724 623.475 197.292 625.323 191.088H640.239C637.467 205.344 625.587 213.924 608.559 213.924ZM608.163 158.22C598.659 158.22 592.851 163.368 591.267 173.136H624.003C624.003 164.16 617.799 158.22 608.163 158.22Z" fill="white"/>
<path d="M560.648 212.208H544.544V160.464H532.004V147H544.544V126.672H560.648V147H573.32V160.464H560.648V212.208Z" fill="white"/>
<path d="M510.47 147H525.122V212.208H510.074L509.018 202.044C504.926 208.776 497.138 213.924 486.578 213.924C467.174 213.924 456.086 199.14 456.086 178.812C456.086 158.352 468.362 145.02 486.71 145.02C496.478 145.02 505.586 149.244 509.546 157.032L510.47 147ZM508.754 179.604C508.754 167.856 501.626 159.672 490.406 159.672C479.186 159.672 472.19 167.988 472.19 179.604C472.19 191.22 479.054 199.404 490.274 199.404C501.494 199.404 508.754 191.352 508.754 179.604Z" fill="white"/>
<path d="M454.506 146.736V161.652H448.566C436.95 161.652 429.69 167.856 429.69 180.528V212.208H413.586V147.132H428.766L429.69 156.636C432.462 150.168 438.666 145.812 447.378 145.812C449.622 145.812 451.866 146.076 454.506 146.736Z" fill="white"/>
<path d="M372.582 213.924C353.178 213.924 339.582 199.8 339.582 179.604C339.582 159.144 352.914 145.02 372.054 145.02C391.59 145.02 403.998 158.088 403.998 178.416V183.3L354.894 183.432C356.082 194.916 362.154 200.724 372.846 200.724C381.69 200.724 387.498 197.292 389.346 191.088H404.262C401.49 205.344 389.61 213.924 372.582 213.924ZM372.186 158.22C362.682 158.22 356.874 163.368 355.29 173.136H388.026C388.026 164.16 381.822 158.22 372.186 158.22Z" fill="white"/>
<path d="M329.5 212H313.5V123H329.5V212Z" fill="white"/>
<path d="M272.578 213.924C253.174 213.924 239.578 199.8 239.578 179.604C239.578 159.144 252.91 145.02 272.05 145.02C291.586 145.02 303.994 158.088 303.994 178.416V183.3L254.89 183.432C256.078 194.916 262.15 200.724 272.842 200.724C281.686 200.724 287.494 197.292 289.342 191.088H304.258C301.486 205.344 289.606 213.924 272.578 213.924ZM272.182 158.22C262.678 158.22 256.87 163.368 255.286 173.136H288.022C288.022 164.16 281.818 158.22 272.182 158.22Z" fill="white"/>
<path d="M170.301 179.472C170.301 159.276 183.633 145.02 202.905 145.02C220.725 145.02 232.869 154.92 234.585 170.628H218.481C216.633 163.236 211.221 159.408 203.565 159.408C193.269 159.408 186.405 167.196 186.405 179.472C186.405 191.748 192.741 199.404 203.037 199.404C211.089 199.404 216.765 195.444 218.481 188.316H234.717C232.737 203.496 220.065 213.924 203.037 213.924C183.237 213.924 170.301 200.196 170.301 179.472Z" fill="white"/>
<path d="M101.027 179.472C101.027 159.276 114.359 145.02 133.631 145.02C151.451 145.02 163.595 154.92 165.311 170.628H149.207C147.359 163.236 141.947 159.408 134.291 159.408C123.995 159.408 117.131 167.196 117.131 179.472C117.131 191.748 123.467 199.404 133.763 199.404C141.815 199.404 147.491 195.444 149.207 188.316H165.443C163.463 203.496 150.791 213.924 133.763 213.924C113.963 213.924 101.027 200.196 101.027 179.472Z" fill="white"/>
<path d="M78.1457 147H92.7977V212.208H77.7497L76.6937 202.044C72.6017 208.776 64.8137 213.924 54.2537 213.924C34.8497 213.924 23.7617 199.14 23.7617 178.812C23.7617 158.352 36.0377 145.02 54.3857 145.02C64.1537 145.02 73.2617 149.244 77.2217 157.032L78.1457 147ZM76.4297 179.604C76.4297 167.856 69.3017 159.672 58.0817 159.672C46.8617 159.672 39.8657 167.988 39.8657 179.604C39.8657 191.22 46.7297 199.404 57.9497 199.404C69.1697 199.404 76.4297 191.352 76.4297 179.604Z" fill="white"/>
<rect x="253.073" y="237.58" width="157.857" height="48.4464" rx="24.2232" stroke="white" stroke-width="1.16071"/>
<path d="M298.037 267.034H310.188V270.804H293.397V267.904C293.397 266.193 293.919 264.801 294.934 263.728C296.181 262.423 297.863 261.466 300.676 260.625C305.026 259.32 306.157 258.566 306.157 257C306.157 255.579 304.736 254.651 302.561 254.651C299.69 254.651 297.979 256.043 297.544 258.624L293.252 258.218C293.658 253.781 297.341 250.881 302.561 250.881C307.114 250.881 310.449 253.462 310.449 256.942C310.449 260.335 308.477 262.104 303.17 263.67C300.531 264.453 299.284 265.004 298.617 265.613C298.24 265.99 298.066 266.338 298.037 267.034ZM312.288 261.06C312.201 255.057 316.522 250.823 322.119 250.881C327.774 250.881 331.921 254.999 331.921 261.06C331.921 267.121 327.774 271.239 322.119 271.239C316.522 271.297 312.201 267.063 312.288 261.06ZM327.629 261.06C327.629 257 325.454 254.651 322.119 254.651C318.755 254.651 316.58 257 316.58 261.06C316.58 265.12 318.755 267.469 322.119 267.469C325.454 267.469 327.629 265.12 327.629 261.06ZM338.222 267.034H350.373V270.804H333.582V267.904C333.582 266.193 334.104 264.801 335.119 263.728C336.366 262.423 338.048 261.466 340.861 260.625C345.211 259.32 346.342 258.566 346.342 257C346.342 255.579 344.921 254.651 342.746 254.651C339.875 254.651 338.164 256.043 337.729 258.624L333.437 258.218C333.843 253.781 337.526 250.881 342.746 250.881C347.299 250.881 350.634 253.462 350.634 256.942C350.634 260.335 348.662 262.104 343.355 263.67C340.716 264.453 339.469 265.004 338.802 265.613C338.425 265.99 338.251 266.338 338.222 267.034ZM364.153 270.804V267.498H352.089V263.67L361.369 251.316H368.445V263.67H371.403V267.498H368.445V270.804H364.153ZM356.758 263.67H364.153V254.071H364.095L356.758 263.67Z" fill="white"/>
<rect x="531.071" y="50.5712" width="131.858" height="46.8575" rx="23.4288" stroke="white" stroke-width="1.14246"/>
<path d="M628.516 74.2813L611.679 88.7311L611.679 59.8316L628.516 74.2813Z" fill="white"/>
<path d="M645.062 74.2813L628.226 88.7311L628.226 59.8316L645.062 74.2813Z" fill="white"/>
<circle cx="596.47" cy="74.4863" r="4.5634" fill="white"/>
<path d="M573.399 78.7893L578.42 87.5893H568.277L563.203 78.7893H573.399Z" fill="url(#paint0_linear_4209_77805)"/>
<path d="M578.417 87.5903L583.483 78.7903L573.343 61.186H563.203L578.417 87.5903Z" fill="white"/>
<path d="M558.133 69.9839H568.273L558.137 87.5882L553.062 78.7881L558.133 69.9839Z" fill="white"/>
<defs>
<linearGradient id="paint0_linear_4209_77805" x1="572.385" y1="84.8738" x2="576.101" y2="80.4149" gradientUnits="userSpaceOnUse">
<stop stop-color="white"/>
<stop offset="1" stop-opacity="0"/>
</linearGradient>
</defs>
</svg>
