<svg width="641" height="287" viewBox="0 0 641 287" fill="none" xmlns="http://www.w3.org/2000/svg">
<path d="M435.256 98.208H419.152V0H435.388V41.448C439.48 35.112 447.136 31.02 456.508 31.02C472.612 31.02 481.06 41.184 481.06 58.08V98.208H464.956V61.908C464.956 50.952 459.544 45.672 451.36 45.672C441.196 45.672 435.256 52.8 435.256 62.568V98.208Z" fill="#FF414C"/>
<path d="M356.332 78.408H371.644C371.776 84.084 376 87.648 383.392 87.648C390.916 87.648 395.008 84.612 395.008 79.86C395.008 76.56 393.292 74.184 387.484 72.864L375.736 70.092C363.988 67.452 358.312 61.908 358.312 51.48C358.312 38.676 369.136 31.02 384.184 31.02C398.836 31.02 408.736 39.468 408.868 52.14H393.556C393.424 46.596 389.728 43.032 383.524 43.032C377.188 43.032 373.492 45.936 373.492 50.82C373.492 54.516 376.396 56.892 381.94 58.212L393.688 60.984C404.644 63.492 410.188 68.508 410.188 78.54C410.188 91.74 398.968 99.924 382.864 99.924C366.628 99.924 356.332 91.212 356.332 78.408Z" fill="#FF414C"/>
<path d="M334.638 33H349.29V98.208H334.242L333.186 88.044C329.094 94.776 321.306 99.924 310.746 99.924C291.342 99.924 280.254 85.14 280.254 64.812C280.254 44.352 292.53 31.02 310.878 31.02C320.646 31.02 329.754 35.244 333.714 43.032L334.638 33ZM332.922 65.604C332.922 53.856 325.794 45.672 314.574 45.672C303.354 45.672 296.358 53.988 296.358 65.604C296.358 77.22 303.222 85.404 314.442 85.404C325.662 85.404 332.922 77.352 332.922 65.604Z" fill="#FF414C"/>
<path d="M235.558 98.208H219.586V0H235.558V60.324L260.902 33H281.098L256.282 58.872L280.57 98.208H262.09L245.062 70.752L235.558 80.652V98.208Z" fill="#FF414C"/>
<path d="M191.322 33H205.974V98.208H190.926L189.87 88.044C185.778 94.776 177.99 99.924 167.43 99.924C148.026 99.924 136.938 85.14 136.938 64.812C136.938 44.352 149.213 31.02 167.561 31.02C177.329 31.02 186.438 35.244 190.398 43.032L191.322 33ZM189.606 65.604C189.606 53.856 182.478 45.672 171.257 45.672C160.038 45.672 153.042 53.988 153.042 65.604C153.042 77.22 159.906 85.404 171.126 85.404C182.346 85.404 189.606 77.352 189.606 65.604Z" fill="#FF414C"/>
<path d="M585.559 213.924C566.155 213.924 552.559 199.8 552.559 179.604C552.559 159.144 565.891 145.02 585.031 145.02C604.567 145.02 616.975 158.088 616.975 178.416V183.3L567.871 183.432C569.059 194.916 575.131 200.724 585.823 200.724C594.667 200.724 600.475 197.292 602.323 191.088H617.239C614.467 205.344 602.587 213.924 585.559 213.924ZM585.163 158.22C575.659 158.22 569.851 163.368 568.267 173.136H601.003C601.003 164.16 594.799 158.22 585.163 158.22Z" fill="#FF414C"/>
<path d="M537.648 212.208H521.544V160.464H509.004V147H521.544V126.672H537.648V147H550.32V160.464H537.648V212.208Z" fill="#FF414C"/>
<path d="M487.47 147H502.122V212.208H487.074L486.018 202.044C481.926 208.776 474.138 213.924 463.578 213.924C444.174 213.924 433.086 199.14 433.086 178.812C433.086 158.352 445.362 145.02 463.71 145.02C473.478 145.02 482.586 149.244 486.546 157.032L487.47 147ZM485.754 179.604C485.754 167.856 478.626 159.672 467.406 159.672C456.186 159.672 449.19 167.988 449.19 179.604C449.19 191.22 456.054 199.404 467.274 199.404C478.494 199.404 485.754 191.352 485.754 179.604Z" fill="#FF414C"/>
<path d="M431.506 146.736V161.652H425.566C413.95 161.652 406.69 167.856 406.69 180.528V212.208H390.586V147.132H405.766L406.69 156.636C409.462 150.168 415.666 145.812 424.378 145.812C426.622 145.812 428.866 146.076 431.506 146.736Z" fill="#FF414C"/>
<path d="M349.582 213.924C330.178 213.924 316.582 199.8 316.582 179.604C316.582 159.144 329.914 145.02 349.054 145.02C368.59 145.02 380.998 158.088 380.998 178.416V183.3L331.894 183.432C333.082 194.916 339.154 200.724 349.846 200.724C358.69 200.724 364.498 197.292 366.346 191.088H381.262C378.49 205.344 366.61 213.924 349.582 213.924ZM349.186 158.22C339.682 158.22 333.874 163.368 332.29 173.136H365.026C365.026 164.16 358.822 158.22 349.186 158.22Z" fill="#FF414C"/>
<path d="M306.5 212H290.5V123H306.5V212Z" fill="#FF414C"/>
<path d="M249.578 213.924C230.174 213.924 216.578 199.8 216.578 179.604C216.578 159.144 229.91 145.02 249.05 145.02C268.586 145.02 280.994 158.088 280.994 178.416V183.3L231.89 183.432C233.078 194.916 239.15 200.724 249.842 200.724C258.686 200.724 264.494 197.292 266.342 191.088H281.258C278.486 205.344 266.606 213.924 249.578 213.924ZM249.182 158.22C239.678 158.22 233.87 163.368 232.286 173.136H265.022C265.022 164.16 258.818 158.22 249.182 158.22Z" fill="#FF414C"/>
<path d="M147.301 179.472C147.301 159.276 160.633 145.02 179.905 145.02C197.725 145.02 209.869 154.92 211.585 170.628H195.481C193.633 163.236 188.221 159.408 180.565 159.408C170.269 159.408 163.405 167.196 163.405 179.472C163.405 191.748 169.741 199.404 180.037 199.404C188.089 199.404 193.765 195.444 195.481 188.316H211.717C209.737 203.496 197.065 213.924 180.037 213.924C160.237 213.924 147.301 200.196 147.301 179.472Z" fill="#FF414C"/>
<path d="M78.0273 179.472C78.0273 159.276 91.3593 145.02 110.631 145.02C128.451 145.02 140.595 154.92 142.311 170.628H126.207C124.359 163.236 118.947 159.408 111.291 159.408C100.995 159.408 94.1313 167.196 94.1313 179.472C94.1313 191.748 100.467 199.404 110.763 199.404C118.815 199.404 124.491 195.444 126.207 188.316H142.443C140.463 203.496 127.791 213.924 110.763 213.924C90.9633 213.924 78.0273 200.196 78.0273 179.472Z" fill="#FF414C"/>
<path d="M55.1457 147H69.7977V212.208H54.7497L53.6937 202.044C49.6017 208.776 41.8137 213.924 31.2537 213.924C11.8497 213.924 0.761719 199.14 0.761719 178.812C0.761719 158.352 13.0377 145.02 31.3857 145.02C41.1537 145.02 50.2617 149.244 54.2217 157.032L55.1457 147ZM53.4297 179.604C53.4297 167.856 46.3017 159.672 35.0817 159.672C23.8617 159.672 16.8657 167.988 16.8657 179.604C16.8657 191.22 23.7297 199.404 34.9497 199.404C46.1697 199.404 53.4297 191.352 53.4297 179.604Z" fill="#FF414C"/>
<rect x="230.073" y="237.58" width="157.857" height="48.4464" rx="24.2232" stroke="#FF414C" stroke-width="1.16071"/>
<path d="M275.037 267.034H287.188V270.804H270.397V267.904C270.397 266.193 270.919 264.801 271.934 263.728C273.181 262.423 274.863 261.466 277.676 260.625C282.026 259.32 283.157 258.566 283.157 257C283.157 255.579 281.736 254.651 279.561 254.651C276.69 254.651 274.979 256.043 274.544 258.624L270.252 258.218C270.658 253.781 274.341 250.881 279.561 250.881C284.114 250.881 287.449 253.462 287.449 256.942C287.449 260.335 285.477 262.104 280.17 263.67C277.531 264.453 276.284 265.004 275.617 265.613C275.24 265.99 275.066 266.338 275.037 267.034ZM289.288 261.06C289.201 255.057 293.522 250.823 299.119 250.881C304.774 250.881 308.921 254.999 308.921 261.06C308.921 267.121 304.774 271.239 299.119 271.239C293.522 271.297 289.201 267.063 289.288 261.06ZM304.629 261.06C304.629 257 302.454 254.651 299.119 254.651C295.755 254.651 293.58 257 293.58 261.06C293.58 265.12 295.755 267.469 299.119 267.469C302.454 267.469 304.629 265.12 304.629 261.06ZM315.222 267.034H327.373V270.804H310.582V267.904C310.582 266.193 311.104 264.801 312.119 263.728C313.366 262.423 315.048 261.466 317.861 260.625C322.211 259.32 323.342 258.566 323.342 257C323.342 255.579 321.921 254.651 319.746 254.651C316.875 254.651 315.164 256.043 314.729 258.624L310.437 258.218C310.843 253.781 314.526 250.881 319.746 250.881C324.299 250.881 327.634 253.462 327.634 256.942C327.634 260.335 325.662 262.104 320.355 263.67C317.716 264.453 316.469 265.004 315.802 265.613C315.425 265.99 315.251 266.338 315.222 267.034ZM341.153 270.804V267.498H329.089V263.67L338.369 251.316H345.445V263.67H348.403V267.498H345.445V270.804H341.153ZM333.758 263.67H341.153V254.071H341.095L333.758 263.67Z" fill="#FF414C"/>
<rect x="508.071" y="50.5712" width="131.858" height="46.8575" rx="23.4288" stroke="#FF414C" stroke-width="1.14246"/>
<path d="M605.516 74.2813L588.679 88.7311L588.679 59.8316L605.516 74.2813Z" fill="#FF414C"/>
<path d="M622.062 74.2813L605.226 88.7311L605.226 59.8316L622.062 74.2813Z" fill="#FF414C"/>
<circle cx="573.47" cy="74.4863" r="4.5634" fill="#FF414C"/>
<path d="M550.399 78.7893L555.42 87.5893H545.277L540.203 78.7893H550.399Z" fill="url(#paint0_linear_4209_77805)"/>
<path d="M555.417 87.5903L560.483 78.7903L550.343 61.186H540.203L555.417 87.5903Z" fill="#FF414C"/>
<path d="M535.133 69.9839H545.273L535.137 87.5882L530.062 78.7881L535.133 69.9839Z" fill="#FF414C"/>
<defs>
<linearGradient id="paint0_linear_4209_77805" x1="549.385" y1="84.8738" x2="553.101" y2="80.4149" gradientUnits="userSpaceOnUse">
<stop stop-color="#FF414C"/>
<stop offset="1" stop-color="#FF414C" stop-opacity="0"/>
</linearGradient>
</defs>
</svg>
