<svg width="85" height="45" viewBox="0 0 85 45" fill="none" xmlns="http://www.w3.org/2000/svg">
<path d="M42.5004 1.35718C54.0697 1.35723 64.4896 3.82981 71.9779 7.77319C79.5164 11.7431 83.8177 17.0393 83.8177 22.6013C83.8176 28.1632 79.5163 33.4596 71.9779 37.4294C64.4897 41.3728 54.0696 43.8444 42.5004 43.8445C30.9309 43.8445 20.5102 41.3729 13.0219 37.4294C5.48349 33.4596 1.18213 28.1632 1.18201 22.6013C1.18201 17.0393 5.48338 11.7431 13.0219 7.77319C20.5102 3.82971 30.9308 1.35718 42.5004 1.35718Z" stroke="white" stroke-width="2.17669"/>
<path d="M44.4479 30.1753L45.1793 31.0942H44.6207L44.0944 30.1753H44.4479Z" fill="white" stroke="white" stroke-width="7.30447"/>
<path d="M45.0973 13.7273L52.4283 26.5242L51.9274 27.3982L44.0924 13.7273H45.0973Z" fill="white" stroke="white" stroke-width="7.30447"/>
<path d="M36.2008 21.9495L33.0787 27.4006L32.5748 26.5217L35.1949 21.9495H36.2008Z" fill="white" stroke="white" stroke-width="7.30447"/>
<path d="M60.0176 12.9805C60.067 13.2205 60.2541 13.4083 60.4941 13.458L63.4199 14.0635L60.4941 14.668C60.2542 14.7176 60.0672 14.9056 60.0176 15.1455L59.4141 18.0742L58.8105 15.1455C58.761 14.9055 58.573 14.7176 58.333 14.668L55.4082 14.0635L58.333 13.458C58.5731 13.4084 58.7611 13.2206 58.8105 12.9805L59.4141 10.0527L60.0176 12.9805Z" fill="white" stroke="white" stroke-width="0.614142"/>
</svg>
