<svg width="663" height="287" viewBox="0 0 663 287" 
 fill="none" xmlns="http://www.w3.org/2000/svg">
<path d="M457.756 98.208H441.652V0H457.888V41.448C461.98 35.112 469.636 31.02 479.008 31.02C495.112 31.02 503.56 41.184 503.56 58.08V98.208H487.456V61.908C487.456 50.952 482.044 45.672 473.86 45.672C463.696 45.672 457.756 52.8 457.756 62.568V98.208Z" fill="#FF414C"/>
<path d="M378.832 78.408H394.144C394.276 84.084 398.5 87.648 405.892 87.648C413.416 87.648 417.508 84.612 417.508 79.86C417.508 76.56 415.792 74.184 409.984 72.864L398.236 70.092C386.488 67.452 380.812 61.908 380.812 51.48C380.812 38.676 391.636 31.02 406.684 31.02C421.336 31.02 431.236 39.468 431.368 52.14H416.056C415.924 46.596 412.228 43.032 406.024 43.032C399.688 43.032 395.992 45.936 395.992 50.82C395.992 54.516 398.896 56.892 404.44 58.212L416.188 60.984C427.144 63.492 432.688 68.508 432.688 78.54C432.688 91.74 421.468 99.924 405.364 99.924C389.128 99.924 378.832 91.212 378.832 78.408Z" fill="#FF414C"/>
<path d="M357.138 33H371.79V98.208H356.742L355.686 88.044C351.594 94.776 343.806 99.924 333.246 99.924C313.842 99.924 302.754 85.14 302.754 64.812C302.754 44.352 315.03 31.02 333.378 31.02C343.146 31.02 352.254 35.244 356.214 43.032L357.138 33ZM355.422 65.604C355.422 53.856 348.294 45.672 337.074 45.672C325.854 45.672 318.858 53.988 318.858 65.604C318.858 77.22 325.722 85.404 336.942 85.404C348.162 85.404 355.422 77.352 355.422 65.604Z" fill="#FF414C"/>
<path d="M258.058 98.208H242.086V0H258.058V60.324L283.402 33H303.598L278.782 58.872L303.07 98.208H284.59L267.562 70.752L258.058 80.652V98.208Z" fill="#FF414C"/>
<path d="M213.822 33H228.474V98.208H213.426L212.37 88.044C208.278 94.776 200.49 99.924 189.93 99.924C170.526 99.924 159.438 85.14 159.438 64.812C159.438 44.352 171.713 31.02 190.061 31.02C199.829 31.02 208.938 35.244 212.898 43.032L213.822 33ZM212.106 65.604C212.106 53.856 204.978 45.672 193.757 45.672C182.538 45.672 175.542 53.988 175.542 65.604C175.542 77.22 182.406 85.404 193.626 85.404C204.846 85.404 212.106 77.352 212.106 65.604Z" fill="#FF414C"/>
<path d="M608.059 213.924C588.655 213.924 575.059 199.8 575.059 179.604C575.059 159.144 588.391 145.02 607.531 145.02C627.067 145.02 639.475 158.088 639.475 178.416V183.3L590.371 183.432C591.559 194.916 597.631 200.724 608.323 200.724C617.167 200.724 622.975 197.292 624.823 191.088H639.739C636.967 205.344 625.087 213.924 608.059 213.924ZM607.663 158.22C598.159 158.22 592.351 163.368 590.767 173.136H623.503C623.503 164.16 617.299 158.22 607.663 158.22Z" fill="#FF414C"/>
<path d="M560.148 212.208H544.044V160.464H531.504V147H544.044V126.672H560.148V147H572.82V160.464H560.148V212.208Z" fill="#FF414C"/>
<path d="M509.97 147H524.622V212.208H509.574L508.518 202.044C504.426 208.776 496.638 213.924 486.078 213.924C466.674 213.924 455.586 199.14 455.586 178.812C455.586 158.352 467.862 145.02 486.21 145.02C495.978 145.02 505.086 149.244 509.046 157.032L509.97 147ZM508.254 179.604C508.254 167.856 501.126 159.672 489.906 159.672C478.686 159.672 471.69 167.988 471.69 179.604C471.69 191.22 478.554 199.404 489.774 199.404C500.994 199.404 508.254 191.352 508.254 179.604Z" fill="#FF414C"/>
<path d="M454.006 146.736V161.652H448.066C436.45 161.652 429.19 167.856 429.19 180.528V212.208H413.086V147.132H428.266L429.19 156.636C431.962 150.168 438.166 145.812 446.878 145.812C449.122 145.812 451.366 146.076 454.006 146.736Z" fill="#FF414C"/>
<path d="M372.082 213.924C352.678 213.924 339.082 199.8 339.082 179.604C339.082 159.144 352.414 145.02 371.554 145.02C391.09 145.02 403.498 158.088 403.498 178.416V183.3L354.394 183.432C355.582 194.916 361.654 200.724 372.346 200.724C381.19 200.724 386.998 197.292 388.846 191.088H403.762C400.99 205.344 389.11 213.924 372.082 213.924ZM371.686 158.22C362.182 158.22 356.374 163.368 354.79 173.136H387.526C387.526 164.16 381.322 158.22 371.686 158.22Z" fill="#FF414C"/>
<path d="M329 212H313V123H329V212Z" fill="#FF414C"/>
<path d="M272.078 213.924C252.674 213.924 239.078 199.8 239.078 179.604C239.078 159.144 252.41 145.02 271.55 145.02C291.086 145.02 303.494 158.088 303.494 178.416V183.3L254.39 183.432C255.578 194.916 261.65 200.724 272.342 200.724C281.186 200.724 286.994 197.292 288.842 191.088H303.758C300.986 205.344 289.106 213.924 272.078 213.924ZM271.682 158.22C262.178 158.22 256.37 163.368 254.786 173.136H287.522C287.522 164.16 281.318 158.22 271.682 158.22Z" fill="#FF414C"/>
<path d="M169.801 179.472C169.801 159.276 183.133 145.02 202.405 145.02C220.225 145.02 232.369 154.92 234.085 170.628H217.981C216.133 163.236 210.721 159.408 203.065 159.408C192.769 159.408 185.905 167.196 185.905 179.472C185.905 191.748 192.241 199.404 202.537 199.404C210.589 199.404 216.265 195.444 217.981 188.316H234.217C232.237 203.496 219.565 213.924 202.537 213.924C182.737 213.924 169.801 200.196 169.801 179.472Z" fill="#FF414C"/>
<path d="M100.527 179.472C100.527 159.276 113.859 145.02 133.131 145.02C150.951 145.02 163.095 154.92 164.811 170.628H148.707C146.859 163.236 141.447 159.408 133.791 159.408C123.495 159.408 116.631 167.196 116.631 179.472C116.631 191.748 122.967 199.404 133.263 199.404C141.315 199.404 146.991 195.444 148.707 188.316H164.943C162.963 203.496 150.291 213.924 133.263 213.924C113.463 213.924 100.527 200.196 100.527 179.472Z" fill="#FF414C"/>
<path d="M77.6457 147H92.2977V212.208H77.2497L76.1937 202.044C72.1017 208.776 64.3137 213.924 53.7537 213.924C34.3497 213.924 23.2617 199.14 23.2617 178.812C23.2617 158.352 35.5377 145.02 53.8857 145.02C63.6537 145.02 72.7617 149.244 76.7217 157.032L77.6457 147ZM75.9297 179.604C75.9297 167.856 68.8017 159.672 57.5817 159.672C46.3617 159.672 39.3657 167.988 39.3657 179.604C39.3657 191.22 46.2297 199.404 57.4497 199.404C68.6697 199.404 75.9297 191.352 75.9297 179.604Z" fill="#FF414C"/>
<rect x="252.573" y="237.58" width="157.857" height="48.4464" rx="24.2232" stroke="#FF414C" stroke-width="1.16071"/>
<path d="M297.537 267.034H309.688V270.804H292.897V267.904C292.897 266.193 293.419 264.801 294.434 263.728C295.681 262.423 297.363 261.466 300.176 260.625C304.526 259.32 305.657 258.566 305.657 257C305.657 255.579 304.236 254.651 302.061 254.651C299.19 254.651 297.479 256.043 297.044 258.624L292.752 258.218C293.158 253.781 296.841 250.881 302.061 250.881C306.614 250.881 309.949 253.462 309.949 256.942C309.949 260.335 307.977 262.104 302.67 263.67C300.031 264.453 298.784 265.004 298.117 265.613C297.74 265.99 297.566 266.338 297.537 267.034ZM311.788 261.06C311.701 255.057 316.022 250.823 321.619 250.881C327.274 250.881 331.421 254.999 331.421 261.06C331.421 267.121 327.274 271.239 321.619 271.239C316.022 271.297 311.701 267.063 311.788 261.06ZM327.129 261.06C327.129 257 324.954 254.651 321.619 254.651C318.255 254.651 316.08 257 316.08 261.06C316.08 265.12 318.255 267.469 321.619 267.469C324.954 267.469 327.129 265.12 327.129 261.06ZM337.722 267.034H349.873V270.804H333.082V267.904C333.082 266.193 333.604 264.801 334.619 263.728C335.866 262.423 337.548 261.466 340.361 260.625C344.711 259.32 345.842 258.566 345.842 257C345.842 255.579 344.421 254.651 342.246 254.651C339.375 254.651 337.664 256.043 337.229 258.624L332.937 258.218C333.343 253.781 337.026 250.881 342.246 250.881C346.799 250.881 350.134 253.462 350.134 256.942C350.134 260.335 348.162 262.104 342.855 263.67C340.216 264.453 338.969 265.004 338.302 265.613C337.925 265.99 337.751 266.338 337.722 267.034ZM363.653 270.804V267.498H351.589V263.67L360.869 251.316H367.945V263.67H370.903V267.498H367.945V270.804H363.653ZM356.258 263.67H363.653V254.071H363.595L356.258 263.67Z" fill="#FF414C"/>
<rect x="530.571" y="50.5712" width="131.858" height="46.8575" rx="23.4288" stroke="#FF414C" stroke-width="1.14246"/>
<path d="M628.016 74.2813L611.179 88.7311L611.179 59.8316L628.016 74.2813Z" fill="#FF414C"/>
<path d="M644.562 74.2813L627.726 88.7311L627.726 59.8316L644.562 74.2813Z" fill="#FF414C"/>
<circle cx="595.97" cy="74.4863" r="4.5634" fill="#FF414C"/>
<path d="M572.899 78.7893L577.92 87.5893H567.777L562.703 78.7893H572.899Z" fill="url(#paint0_linear_4226_36046)"/>
<path d="M577.917 87.5903L582.983 78.7903L572.843 61.186H562.703L577.917 87.5903Z" fill="#FF414C"/>
<path d="M557.633 69.9839H567.773L557.637 87.5882L552.562 78.7881L557.633 69.9839Z" fill="#FF414C"/>
<defs>
<linearGradient id="paint0_linear_4226_36046" x1="571.885" y1="84.8738" x2="575.601" y2="80.4149" gradientUnits="userSpaceOnUse">
<stop stop-color="#FF414C"/>
<stop offset="1" stop-color="#FF414C" stop-opacity="0"/>
</linearGradient>
</defs>
</svg>