<svg  viewBox="0 0 120 24" fill="none" xmlns="http://www.w3.org/2000/svg">
<path d="M67.1963 9.25477V13.6874C67.1963 14.4909 67.5993 14.8155 68.295 14.8155H69.0975V16.6655H67.6974C66.208 16.662 65.1496 15.9915 65.1496 14.012V9.25477H64.0141V7.47569H65.1496V4.99243H67.1945V7.47569H69.0958V9.25477H67.1963Z" fill="currentColor"/>
<path d="M52.0405 7.2859L47.5178 19.2535H45.4448L46.4314 16.7205L42.5588 7.2859H44.7404L47.3829 14.255L49.9202 7.2859H52.0405Z" fill="currentColor"/>
<path d="M26.0117 12.0289C26.0117 14.6133 27.9743 16.7187 30.6291 16.7187V16.7205C32.3709 16.7205 33.403 16.0181 34.2826 15.0248L33.0472 13.792C32.4059 14.459 31.6945 14.9219 30.7307 14.9219C29.1571 14.9219 28.0584 13.5863 28.0584 11.9952C28.0584 10.4042 29.1413 9.10223 30.6291 9.10223C31.6594 9.10223 32.32 9.56518 32.9456 10.2321L34.2143 8.84504C33.3854 7.92091 32.3358 7.28768 30.6448 7.28768C27.9743 7.28768 26.0117 9.44457 26.0117 12.0289Z" fill="currentColor"/>
<path d="M36.119 16.7187H38.1657V13.0701C38.1657 10.6738 39.4169 9.49246 41.2095 9.49246H41.3287V7.30187C39.7551 7.23269 38.7247 8.15859 38.1657 9.51019V7.30187H36.119V16.7187Z" fill="currentColor"/>
<path fill-rule="evenodd" clip-rule="evenodd" d="M55.5224 15.1082C56.1497 15.9472 57.0802 16.701 58.5504 16.701C60.6812 16.701 62.7104 15.0071 62.7104 11.9935C62.7104 8.97984 60.6637 7.2859 58.5504 7.2859C57.1117 7.2859 56.1813 8.03798 55.5224 8.97984V7.2859H53.4757V19.2517H55.5224V15.1082ZM55.4733 11.9935C55.4733 10.2303 56.6912 9.08272 58.0773 9.08272C59.4633 9.08272 60.6304 10.1949 60.6304 11.9935C60.6304 13.792 59.4633 14.9042 58.0773 14.9042C56.6912 14.9042 55.4733 13.7566 55.4733 11.9935Z" fill="currentColor"/>
<path fill-rule="evenodd" clip-rule="evenodd" d="M70.8358 12.0289C70.8358 14.6133 72.8475 16.7187 75.5706 16.7187L75.5723 16.7205C78.3287 16.7205 80.3579 14.5973 80.3579 11.9952C80.3579 9.39313 78.3462 7.28768 75.6056 7.28768C72.865 7.28768 70.8358 9.44457 70.8358 12.0289ZM72.8808 11.9935C72.8808 10.4024 73.9304 9.10046 75.5706 9.10046C77.1757 9.10046 78.3094 10.4343 78.3094 12.0272C78.3094 13.62 77.1932 14.9202 75.6039 14.9202C74.0145 14.9202 72.8808 13.5845 72.8808 11.9935Z" fill="currentColor"/>
<path fill-rule="evenodd" clip-rule="evenodd" d="M99.9207 16.7187C97.1976 16.7187 95.1859 14.6133 95.1859 12.0289C95.1859 9.44457 97.2151 7.28768 99.9557 7.28768C102.696 7.28768 104.708 9.39313 104.708 11.9952C104.708 14.5973 102.679 16.7205 99.9224 16.7205L99.9207 16.7187ZM99.9207 9.10046C98.2805 9.10046 97.2309 10.4024 97.2309 11.9935C97.2309 13.5845 98.3646 14.9202 99.954 14.9202C101.543 14.9202 102.66 13.62 102.66 12.0272C102.66 10.4343 101.526 9.10046 99.9207 9.10046Z" fill="currentColor"/>
<path d="M120 10.7447C120 8.5364 118.816 7.2859 116.871 7.2859H116.869C115.516 7.2859 114.568 7.92091 113.841 8.87874C113.368 7.91913 112.472 7.2859 111.186 7.2859C109.816 7.2859 109.038 8.03798 108.463 8.84326V7.2859H106.416V16.7187H108.463V11.4294C108.463 10.0264 109.241 9.16963 110.375 9.16963C111.509 9.16963 112.185 9.95718 112.185 11.3602V16.7187H114.232V11.4117C114.232 9.95718 114.992 9.16963 116.144 9.16963C117.295 9.16963 117.954 9.93944 117.954 11.378V16.7187H120V10.7447Z" fill="currentColor"/>
<path d="M84.1026 14.8173V15.862C84.1026 15.9064 84.0815 15.9472 84.043 15.9667L83.1511 16.4882C83.1125 16.5094 83.067 16.5094 83.0319 16.4882L82.1382 15.9667C82.1032 15.9472 82.0787 15.9064 82.0787 15.862V14.8173C82.0787 14.7747 82.1032 14.7357 82.1382 14.7126L83.0319 14.1911C83.067 14.1699 83.1125 14.1699 83.1511 14.1911L84.043 14.7126C84.0798 14.7339 84.1026 14.7747 84.1026 14.8173Z" fill="currentColor"/>
<path d="M85.8058 11.9261C85.7585 14.5122 87.679 16.6549 90.3338 16.7063H90.3303C92.0721 16.74 93.1165 16.0589 94.0154 15.0833L92.8046 13.8275C92.1492 14.482 91.4307 14.9308 90.467 14.9113C88.8951 14.8811 87.8192 13.5597 87.8508 11.9331C87.8806 10.3403 88.988 9.06143 90.4757 9.08981C91.5078 9.10933 92.1579 9.58469 92.7712 10.264L94.0662 8.9018C93.2549 7.9617 92.2193 7.30896 90.5283 7.27526C87.8578 7.22382 85.8549 9.34169 85.8058 11.9261Z" fill="currentColor"/>
<path d="M6.31834 5.40324H13.9651L14.8874 9.34931H5.43266L6.31834 5.40324Z" fill="currentColor"/>
<path d="M11.8223 12.1482L12.6383 9.94579H7.68861L8.52198 12.1482L8.26744 14.6207H10.1556L12.0594 14.6101L11.8223 12.1482Z" fill="currentColor"/>
<path d="M14.9047 10.6835L12.6662 12.1589V14.7796L10.9541 16.442V17.2238L12.6034 18.7609H13.9825L17.4589 12.6301L14.9047 10.6835Z" fill="currentColor"/>
<path d="M7.6799 12.1588L5.41342 10.7011L2.85055 12.63L6.34442 18.7786H7.74093L9.39023 17.2238V16.442L7.6799 14.7796V12.1588Z" fill="currentColor"/>
<path fill-rule="evenodd" clip-rule="evenodd" d="M0.0261517 6.05619L10.1469 0.140625L20.2937 6.07031V17.9279L10.1486 23.8594L10.1225 23.8453L0 17.9297V6.07031L0.0261517 6.05619ZM10.1469 1.35127L1.03735 6.6774V17.3261L10.1469 22.6505L19.2581 17.3261V6.6774L10.1469 1.35127Z" fill="currentColor"/>
</svg>
