<svg width="16" height="16" viewBox="0 0 16 16" fill="none" xmlns="http://www.w3.org/2000/svg">
<path d="M7.20163 7.99876H7.20163V7.99935C7.20163 8.36063 7.09851 8.68422 6.93261 8.91628C6.76674 9.14829 6.54051 9.28625 6.292 9.28625C6.04832 9.28625 5.82201 9.14844 5.65482 8.91616C5.48771 8.68399 5.38237 8.3604 5.38237 7.99935C5.38237 7.63807 5.48549 7.31447 5.65139 7.08242C5.81726 6.85041 6.04349 6.71245 6.292 6.71245C6.54064 6.71245 6.76922 6.85054 6.93621 7.08254C7.10319 7.31452 7.20621 7.63788 7.20163 7.99876ZM8.80358 7.99935C8.80358 7.63807 8.90669 7.31447 9.0726 7.08242C9.23847 6.85041 9.4647 6.71245 9.71321 6.71245C9.95688 6.71245 10.1832 6.85026 10.3504 7.08254C10.5175 7.3147 10.6228 7.6383 10.6228 7.99935C10.6228 8.36063 10.5197 8.68422 10.3538 8.91628C10.1879 9.14829 9.96172 9.28625 9.71321 9.28625C9.46953 9.28625 9.24322 9.14844 9.07603 8.91616C8.90891 8.68399 8.80358 8.3604 8.80358 7.99935Z" fill="#272540" stroke="#272540" stroke-width="0.0928709"/>
<path d="M2.4663 5.06464C2.46634 5.06456 2.46639 5.06448 2.46643 5.06441C4.26493 3.91853 5.95332 3.34418 8.00327 3.33414C10.0258 3.32423 11.7632 3.92885 13.533 5.06352C13.5333 5.06389 13.5335 5.06426 13.5337 5.06464C13.5832 5.14937 13.6556 5.27723 13.7433 5.44359C13.9188 5.77662 14.1548 6.26213 14.3912 6.86324C14.8447 8.0165 15.2906 9.57257 15.3293 11.282C15.3174 11.2949 15.3047 11.3084 15.2911 11.3225C15.1653 11.4535 14.9639 11.6379 14.6769 11.8277C14.1646 12.1666 13.3636 12.5331 12.2 12.6308L11.5876 11.524L11.3103 11.0229L10.7727 11.2204C9.07685 11.8437 6.93963 11.828 5.22926 11.2075L4.69066 11.0121L4.4155 11.5146L3.79792 12.6426C2.63545 12.5446 1.83546 12.1782 1.32394 11.8388C1.03716 11.6485 0.836381 11.4635 0.711291 11.332C0.696682 11.3166 0.683116 11.302 0.670577 11.2882C0.708324 9.57633 1.15477 8.0179 1.60881 6.86324C1.84518 6.26213 2.08117 5.77662 2.25673 5.44359C2.34443 5.27723 2.41681 5.14937 2.4663 5.06464ZM15.4943 11.9576C15.4087 11.8319 15.3375 11.6063 15.332 11.5211H15.9998C15.9991 11.5217 15.996 11.5258 15.9903 11.5332C15.9539 11.581 15.8133 11.7655 15.5498 11.9991C15.5295 11.9856 15.5108 11.9718 15.4943 11.9576ZM16 11.5211H16.668H16Z" stroke="#272540" stroke-width="1.336" stroke-linejoin="round"/>
</svg>
