<svg width="22" height="16" viewBox="0 0 22 16" fill="none" xmlns="http://www.w3.org/2000/svg">
<path d="M19.3817 12.4405C19.1154 13.392 18.6575 13.8667 18.0079 13.8667C17.1884 13.8667 16.3818 13.3056 15.5903 12.1813C15.0398 11.4027 14.2688 9.92 13.2754 7.73547C12.8967 6.89686 12.5013 6.0682 12.0895 5.25013C12.3792 4.7296 12.6371 4.31147 12.8642 3.99573C13.7586 2.75413 14.695 2.13333 15.6725 2.13333C16.4529 2.13333 17.1958 2.70507 17.9023 3.84853C18.6276 5.02293 19.1359 6.4736 19.4275 8.20053C19.7135 9.9008 19.6985 11.3141 19.3817 12.4405ZM10.9989 7.392C11.1951 7.80267 11.4007 8.24533 11.6157 8.7168C12.667 11.0283 13.5063 12.6293 14.1343 13.52C15.3006 15.1733 16.5921 16 18.0089 16C18.8089 16 19.4929 15.712 20.0621 15.136C20.5527 14.6379 20.9191 13.9573 21.162 13.0923C21.576 11.6203 21.6097 9.85493 21.263 7.7984C20.9209 5.77067 20.3097 4.04373 19.4294 2.61867C18.3509 0.872533 17.0986 0 15.6725 0C14.1062 0 12.6885 0.88 11.4204 2.64107C11.2877 2.8256 11.1475 3.03573 10.9998 3.27467C10.8664 3.05776 10.7261 2.84642 10.5793 2.64107C9.31109 0.881067 7.89245 0 6.3271 0C4.90098 0 3.64869 0.872533 2.57023 2.61867C1.68989 4.04373 1.0787 5.77067 0.736657 7.7984C0.390876 9.85493 0.423586 11.6192 0.837588 13.0923C1.08057 13.9563 1.44691 14.6389 1.93755 15.1349C2.50668 15.7109 3.19077 16 3.99074 16C5.4075 16 6.69904 15.1733 7.86535 13.52C8.49337 12.6293 9.33259 11.0283 10.383 8.71787C10.598 8.24427 10.8036 7.80267 10.9998 7.392H10.9989ZM9.9092 5.25013C9.54473 5.96907 9.15035 6.7968 8.7242 7.73547C7.73078 9.92 6.95791 11.4005 6.40933 12.1813C5.61684 13.3045 4.81127 13.8656 3.99074 13.8656C3.34216 13.8656 2.88424 13.3909 2.61696 12.4395C2.30108 11.3131 2.28613 9.89973 2.5721 8.20053C2.86274 6.47253 3.37113 5.02187 4.09727 3.84747C4.80379 2.70507 5.54675 2.13333 6.3271 2.13333C7.30463 2.13333 8.24104 2.75413 9.1354 3.99573C9.36249 4.31147 9.62043 4.7296 9.9092 5.25013Z" fill="#687076"/>
</svg>
