<svg width="16" height="17" viewBox="0 0 16 17" fill="none" xmlns="http://www.w3.org/2000/svg">
<path d="M6.0026 13.6663C2.66927 14.6663 2.66927 11.9996 1.33594 11.6663M10.6693 15.6663V13.0863C10.6943 12.7684 10.6513 12.4488 10.5433 12.1488C10.4352 11.8488 10.2646 11.5752 10.0426 11.3463C12.1359 11.113 14.3359 10.3196 14.3359 6.67963C14.3358 5.74885 13.9777 4.85377 13.3359 4.17963C13.6398 3.3653 13.6184 2.4652 13.2759 1.6663C13.2759 1.6663 12.4893 1.43297 10.6693 2.65297C9.14128 2.23885 7.5306 2.23885 6.0026 2.65297C4.1826 1.43297 3.39594 1.6663 3.39594 1.6663C3.05352 2.4652 3.03203 3.3653 3.33594 4.17963C2.68936 4.85877 2.33095 5.76194 2.33594 6.69963C2.33594 10.313 4.53594 11.1063 6.62927 11.3663C6.40994 11.5929 6.24078 11.8632 6.13281 12.1596C6.02484 12.4559 5.98048 12.7717 6.0026 13.0863V15.6663" stroke="#272540" strokeWidth="1.33333" strokeLinecap="round" strokeLinejoin="round"/>
</svg>
