<svg width="1920" height="1080" viewBox="0 0 1920 1080" fill="none" xmlns="http://www.w3.org/2000/svg">
<g clip-path="url(#clip0_4886_506)">
<rect width="1920" height="1080" fill="#141414"/>
<line x1="2863.2" y1="370.952" x2="-388.205" y2="370.952" stroke="#E9EBED" stroke-opacity="0.09" stroke-width="1.59383" stroke-linecap="round" stroke-dasharray="9.56 9.56"/>
<line x1="2863.2" y1="175.197" x2="-388.203" y2="175.197" stroke="#E9EBED" stroke-opacity="0.09" stroke-width="1.59383" stroke-linecap="round" stroke-dasharray="9.56 9.56"/>
<line x1="2863.2" y1="568.353" x2="-388.205" y2="568.353" stroke="#E9EBED" stroke-opacity="0.09" stroke-width="1.59383" stroke-linecap="round" stroke-dasharray="9.56 9.56"/>
<line x1="2863.2" y1="76.4981" x2="-388.203" y2="76.4981" stroke="#E9EBED" stroke-opacity="0.09" stroke-width="1.59383" stroke-linecap="round" stroke-dasharray="9.56 9.56"/>
<line x1="2863.2" y1="469.652" x2="-388.205" y2="469.652" stroke="#E9EBED" stroke-opacity="0.09" stroke-width="1.59383" stroke-linecap="round" stroke-dasharray="9.56 9.56"/>
<line x1="2863.2" y1="273.897" x2="-388.205" y2="273.897" stroke="#E9EBED" stroke-opacity="0.09" stroke-width="1.59383" stroke-linecap="round" stroke-dasharray="9.56 9.56"/>
<line x1="2863.2" y1="667.054" x2="-388.205" y2="667.054" stroke="#E9EBED" stroke-opacity="0.09" stroke-width="1.59383" stroke-linecap="round" stroke-dasharray="9.56 9.56"/>
<line x1="2863.2" y1="321.604" x2="-388.203" y2="321.604" stroke="#E9EBED" stroke-opacity="0.09" stroke-width="1.59383" stroke-linecap="round" stroke-dasharray="9.56 9.56"/>
<line x1="2863.2" y1="125.848" x2="-388.205" y2="125.848" stroke="#E9EBED" stroke-opacity="0.09" stroke-width="1.59383" stroke-linecap="round" stroke-dasharray="9.56 9.56"/>
<line x1="2863.2" y1="519.003" x2="-388.205" y2="519.003" stroke="#E9EBED" stroke-opacity="0.09" stroke-width="1.59383" stroke-linecap="round" stroke-dasharray="9.56 9.56"/>
<line x1="2863.2" y1="27.1475" x2="-388.205" y2="27.1475" stroke="#E9EBED" stroke-opacity="0.09" stroke-width="1.59383" stroke-linecap="round" stroke-dasharray="9.56 9.56"/>
<line x1="2863.2" y1="420.304" x2="-388.203" y2="420.304" stroke="#E9EBED" stroke-opacity="0.09" stroke-width="1.59383" stroke-linecap="round" stroke-dasharray="9.56 9.56"/>
<line x1="2863.2" y1="224.547" x2="-388.205" y2="224.547" stroke="#E9EBED" stroke-opacity="0.09" stroke-width="1.59383" stroke-linecap="round" stroke-dasharray="9.56 9.56"/>
<line x1="2863.2" y1="617.703" x2="-388.205" y2="617.703" stroke="#E9EBED" stroke-opacity="0.09" stroke-width="1.59383" stroke-linecap="round" stroke-dasharray="9.56 9.56"/>
<line x1="2863.2" y1="767.17" x2="-388.205" y2="767.17" stroke="#E9EBED" stroke-opacity="0.09" stroke-width="1.59383" stroke-linecap="round" stroke-dasharray="9.56 9.56"/>
<line x1="2863.2" y1="964.569" x2="-388.205" y2="964.569" stroke="#E9EBED" stroke-opacity="0.09" stroke-width="1.59383" stroke-linecap="round" stroke-dasharray="9.56 9.56"/>
<line x1="2863.2" y1="865.87" x2="-388.205" y2="865.87" stroke="#E9EBED" stroke-opacity="0.09" stroke-width="1.59383" stroke-linecap="round" stroke-dasharray="9.56 9.56"/>
<line x1="2863.2" y1="1063.27" x2="-388.203" y2="1063.27" stroke="#E9EBED" stroke-opacity="0.09" stroke-width="1.59383" stroke-linecap="round" stroke-dasharray="9.56 9.56"/>
<line x1="2863.2" y1="717.819" x2="-388.205" y2="717.819" stroke="#E9EBED" stroke-opacity="0.09" stroke-width="1.59383" stroke-linecap="round" stroke-dasharray="9.56 9.56"/>
<line x1="2863.2" y1="915.221" x2="-388.203" y2="915.221" stroke="#E9EBED" stroke-opacity="0.09" stroke-width="1.59383" stroke-linecap="round" stroke-dasharray="9.56 9.56"/>
<line x1="2863.2" y1="816.521" x2="-388.203" y2="816.521" stroke="#E9EBED" stroke-opacity="0.09" stroke-width="1.59383" stroke-linecap="round" stroke-dasharray="9.56 9.56"/>
<line x1="2863.2" y1="1013.92" x2="-388.205" y2="1013.92" stroke="#E9EBED" stroke-opacity="0.09" stroke-width="1.59383" stroke-linecap="round" stroke-dasharray="9.56 9.56"/>
<rect x="125.854" y="130.269" width="1689.88" height="837.516" rx="11.8591" fill="#151515" stroke="#2E2E2E" stroke-width="2.53704"/>
<g filter="url(#filter0_dd_4886_506)">
<rect x="102" y="110" width="1694" height="834" rx="13.1276" fill="#242424"/>
<rect x="103.269" y="111.269" width="1691.46" height="831.463" rx="11.8591" stroke="#2E2E2E" stroke-width="2.53704"/>
<path d="M1014.26 735.516L1078.36 848.258H948.882L884.105 735.516H1014.26Z" fill="url(#paint0_linear_4886_506)"/>
<path d="M1078.33 848.281L1143 735.539L1013.55 510H884.105L1078.33 848.281Z" fill="#FF414C"/>
<path d="M819.39 622.729H948.838L819.444 848.267L754.667 735.525L819.39 622.729Z" fill="#FF414C"/>
</g>
<rect x="1349" y="274" width="321" height="101.429" rx="48.654" fill="#F3F4F6"/>
<path d="M1395.89 346.214V303.184H1411.23C1414.58 303.184 1417.35 303.793 1419.55 305.012C1421.75 306.23 1423.4 307.897 1424.49 310.012C1425.58 312.113 1426.13 314.48 1426.13 317.114C1426.13 319.761 1425.58 322.142 1424.47 324.257C1423.38 326.359 1421.72 328.025 1419.51 329.258C1417.31 330.477 1414.54 331.086 1411.21 331.086H1400.66V325.581H1410.62C1412.74 325.581 1414.45 325.217 1415.77 324.489C1417.09 323.746 1418.05 322.738 1418.67 321.463C1419.29 320.188 1419.59 318.739 1419.59 317.114C1419.59 315.489 1419.29 314.046 1418.67 312.786C1418.05 311.525 1417.08 310.537 1415.75 309.823C1414.43 309.109 1412.7 308.751 1410.54 308.751H1402.39V346.214H1395.89ZM1433.24 346.214V313.941H1439.31V319.068H1439.64C1440.23 317.331 1441.27 315.965 1442.75 314.971C1444.25 313.962 1445.95 313.458 1447.84 313.458C1448.23 313.458 1448.69 313.472 1449.23 313.5C1449.77 313.528 1450.2 313.563 1450.51 313.605V319.614C1450.25 319.544 1449.81 319.467 1449.16 319.383C1448.52 319.285 1447.87 319.236 1447.23 319.236C1445.74 319.236 1444.42 319.551 1443.26 320.181C1442.11 320.798 1441.2 321.659 1440.53 322.766C1439.85 323.858 1439.52 325.105 1439.52 326.506V346.214H1433.24ZM1468.38 346.865C1465.36 346.865 1462.72 346.172 1460.46 344.785C1458.21 343.398 1456.45 341.458 1455.21 338.965C1453.96 336.472 1453.34 333.558 1453.34 330.225C1453.34 326.877 1453.96 323.949 1455.21 321.442C1456.45 318.935 1458.21 316.988 1460.46 315.601C1462.72 314.214 1465.36 313.521 1468.38 313.521C1471.41 313.521 1474.05 314.214 1476.3 315.601C1478.56 316.988 1480.31 318.935 1481.56 321.442C1482.8 323.949 1483.43 326.877 1483.43 330.225C1483.43 333.558 1482.8 336.472 1481.56 338.965C1480.31 341.458 1478.56 343.398 1476.3 344.785C1474.05 346.172 1471.41 346.865 1468.38 346.865ZM1468.4 341.591C1470.36 341.591 1471.99 341.073 1473.28 340.037C1474.57 339 1475.52 337.62 1476.13 335.898C1476.77 334.175 1477.08 332.277 1477.08 330.204C1477.08 328.145 1476.77 326.254 1476.13 324.531C1475.52 322.794 1474.57 321.4 1473.28 320.349C1471.99 319.299 1470.36 318.774 1468.4 318.774C1466.43 318.774 1464.79 319.299 1463.49 320.349C1462.2 321.4 1461.24 322.794 1460.61 324.531C1459.99 326.254 1459.68 328.145 1459.68 330.204C1459.68 332.277 1459.99 334.175 1460.61 335.898C1461.24 337.62 1462.2 339 1463.49 340.037C1464.79 341.073 1466.43 341.591 1468.4 341.591ZM1516.95 313.941L1505.25 346.214H1498.52L1486.8 313.941H1493.54L1501.72 338.776H1502.05L1510.2 313.941H1516.95ZM1522.85 346.214V313.941H1529.13V346.214H1522.85ZM1526.03 308.962C1524.93 308.962 1523.99 308.597 1523.21 307.869C1522.44 307.127 1522.05 306.244 1522.05 305.222C1522.05 304.185 1522.44 303.303 1523.21 302.574C1523.99 301.832 1524.93 301.461 1526.03 301.461C1527.12 301.461 1528.05 301.832 1528.82 302.574C1529.6 303.303 1530 304.185 1530 305.222C1530 306.244 1529.6 307.127 1528.82 307.869C1528.05 308.597 1527.12 308.962 1526.03 308.962ZM1549.67 346.844C1547.06 346.844 1544.74 346.179 1542.69 344.848C1540.66 343.503 1539.06 341.591 1537.9 339.112C1536.75 336.619 1536.18 333.628 1536.18 330.141C1536.18 326.653 1536.76 323.669 1537.92 321.19C1539.1 318.711 1540.71 316.813 1542.75 315.496C1544.8 314.179 1547.12 313.521 1549.71 313.521C1551.71 313.521 1553.32 313.857 1554.54 314.529C1555.77 315.188 1556.73 315.958 1557.4 316.841C1558.09 317.723 1558.62 318.501 1559 319.173H1559.37V303.184H1565.66V346.214H1559.52V341.192H1559C1558.62 341.879 1558.07 342.663 1557.36 343.545C1556.66 344.428 1555.69 345.198 1554.46 345.857C1553.23 346.515 1551.63 346.844 1549.67 346.844ZM1551.05 341.486C1552.86 341.486 1554.39 341.01 1555.63 340.058C1556.9 339.091 1557.85 337.753 1558.49 336.045C1559.15 334.336 1559.48 332.347 1559.48 330.078C1559.48 327.836 1559.16 325.875 1558.51 324.194C1557.87 322.514 1556.92 321.204 1555.68 320.265C1554.43 319.327 1552.89 318.858 1551.05 318.858C1549.16 318.858 1547.59 319.348 1546.33 320.328C1545.07 321.309 1544.11 322.647 1543.47 324.342C1542.84 326.036 1542.52 327.948 1542.52 330.078C1542.52 332.235 1542.85 334.175 1543.49 335.898C1544.13 337.62 1545.09 338.986 1546.35 339.995C1547.62 340.989 1549.19 341.486 1551.05 341.486ZM1588.53 346.865C1585.35 346.865 1582.61 346.186 1580.32 344.827C1578.03 343.454 1576.27 341.528 1575.02 339.049C1573.79 336.556 1573.17 333.635 1573.17 330.288C1573.17 326.982 1573.79 324.068 1575.02 321.547C1576.27 319.026 1578.01 317.058 1580.23 315.643C1582.47 314.228 1585.09 313.521 1588.09 313.521C1589.91 313.521 1591.68 313.822 1593.39 314.424C1595.09 315.027 1596.63 315.972 1597.99 317.261C1599.35 318.55 1600.42 320.223 1601.2 322.282C1601.99 324.328 1602.38 326.814 1602.38 329.741V331.968H1576.72V327.262H1596.22C1596.22 325.609 1595.89 324.145 1595.21 322.871C1594.54 321.582 1593.6 320.567 1592.38 319.824C1591.17 319.082 1589.76 318.711 1588.13 318.711C1586.37 318.711 1584.83 319.145 1583.51 320.013C1582.21 320.868 1581.2 321.988 1580.49 323.375C1579.78 324.748 1579.43 326.24 1579.43 327.85V331.527C1579.43 333.684 1579.81 335.519 1580.57 337.032C1581.34 338.545 1582.41 339.7 1583.78 340.499C1585.16 341.283 1586.76 341.676 1588.6 341.676C1589.79 341.676 1590.87 341.507 1591.85 341.171C1592.83 340.821 1593.68 340.303 1594.39 339.616C1595.11 338.93 1595.66 338.083 1596.03 337.074L1601.98 338.146C1601.5 339.897 1600.65 341.43 1599.42 342.747C1598.2 344.05 1596.66 345.065 1594.81 345.794C1592.98 346.508 1590.89 346.865 1588.53 346.865ZM1609.35 346.214V313.941H1615.42V319.068H1615.76C1616.35 317.331 1617.38 315.965 1618.87 314.971C1620.37 313.962 1622.06 313.458 1623.95 313.458C1624.34 313.458 1624.81 313.472 1625.34 313.5C1625.88 313.528 1626.31 313.563 1626.62 313.605V319.614C1626.37 319.544 1625.92 319.467 1625.28 319.383C1624.63 319.285 1623.99 319.236 1623.34 319.236C1621.86 319.236 1620.53 319.551 1619.37 320.181C1618.22 320.798 1617.31 321.659 1616.64 322.766C1615.97 323.858 1615.63 325.105 1615.63 326.506V346.214H1609.35Z" fill="#0B0B0B"/>
<path d="M329.841 300.459H349.96V390H329.297L327.847 376.043C322.228 385.287 311.534 392.356 297.033 392.356C270.388 392.356 255.163 372.056 255.163 344.142C255.163 316.047 272.02 297.74 297.214 297.74C310.628 297.74 323.134 303.54 328.572 314.234L329.841 300.459ZM327.484 345.229C327.484 329.098 317.697 317.86 302.29 317.86C286.883 317.86 277.276 329.279 277.276 345.229C277.276 361.18 286.702 372.418 302.108 372.418C317.515 372.418 327.484 361.361 327.484 345.229ZM391.49 390H369.557V255.144H391.49V337.979L426.291 300.459H454.023L419.947 335.985L453.298 390H427.922L404.54 352.298L391.49 365.893V390ZM528.452 300.459H548.572V390H527.908L526.458 376.043C520.839 385.287 510.145 392.356 495.645 392.356C469 392.356 453.774 372.056 453.774 344.142C453.774 316.047 470.631 297.74 495.826 297.74C509.239 297.74 521.746 303.54 527.183 314.234L528.452 300.459ZM526.096 345.229C526.096 329.098 516.308 317.86 500.901 317.86C485.494 317.86 475.888 329.279 475.888 345.229C475.888 361.18 485.313 372.418 500.72 372.418C516.127 372.418 526.096 361.361 526.096 345.229ZM559.148 362.811H580.174C580.356 370.605 586.156 375.499 596.306 375.499C606.638 375.499 612.257 371.33 612.257 364.805C612.257 360.274 609.901 357.011 601.925 355.199L585.793 351.392C569.661 347.767 561.867 340.154 561.867 325.835C561.867 308.253 576.73 297.74 597.394 297.74C617.513 297.74 631.108 309.34 631.289 326.741H610.263C610.082 319.128 605.007 314.234 596.487 314.234C587.787 314.234 582.712 318.222 582.712 324.929C582.712 330.004 586.7 333.266 594.312 335.079L610.444 338.885C625.489 342.329 633.101 349.217 633.101 362.993C633.101 381.118 617.695 392.356 595.581 392.356C573.287 392.356 559.148 380.393 559.148 362.811ZM668.427 390H646.313V255.144H668.608V312.059C674.227 303.359 684.74 297.74 697.609 297.74C719.723 297.74 731.323 311.697 731.323 334.898V390H709.21V340.154C709.21 325.11 701.778 317.86 690.54 317.86C676.583 317.86 668.427 327.647 668.427 341.06V390Z" fill="white"/>
<path d="M749.18 346.317C749.18 318.766 766.037 299.915 791.595 299.915C811.895 299.915 826.759 311.697 830.202 329.823H817.696C814.433 317.678 803.92 310.972 791.776 310.972C774.013 310.972 761.506 324.566 761.506 346.136C761.506 366.98 773.106 380.937 790.87 380.937C803.92 380.937 814.433 373.687 817.877 362.449H830.565C826.396 380.393 810.808 392.175 790.87 392.175C766.037 392.175 749.18 373.868 749.18 346.317ZM839.724 346.136C839.724 319.31 858.575 299.915 884.313 299.915C910.052 299.915 928.903 319.31 928.903 346.136C928.903 372.781 910.052 392.175 884.313 392.175C858.575 392.175 839.724 372.781 839.724 346.136ZM852.412 345.954C852.412 366.618 865.463 380.937 884.313 380.937C902.983 380.937 916.215 366.618 916.215 345.954C916.215 325.654 902.983 311.153 884.313 311.153C865.463 311.153 852.412 325.654 852.412 345.954ZM957.788 390H945.281V302.271H956.157L957.969 317.497C963.769 306.259 975.37 299.915 988.058 299.915C1012.17 299.915 1022.13 314.234 1022.13 336.348V390H1009.63V339.067C1009.63 318.585 1000.38 311.334 985.883 311.334C967.938 311.334 957.788 324.385 957.788 344.142V390ZM1034.94 365.349H1046.91C1046.91 375.499 1054.52 381.843 1066.84 381.843C1080.44 381.843 1088.41 376.043 1088.41 366.618C1088.41 359.367 1084.79 355.199 1074.46 352.661L1059.41 348.855C1044.19 345.048 1036.76 337.073 1036.76 325.11C1036.76 309.703 1049.62 299.915 1068.48 299.915C1086.96 299.915 1098.93 310.065 1099.47 326.379H1087.33C1086.96 316.228 1079.89 310.247 1068.11 310.247C1055.79 310.247 1048.9 315.503 1048.9 324.929C1048.9 331.635 1053.61 336.348 1063.22 338.704L1078.26 342.511C1093.49 346.317 1100.38 353.386 1100.38 366.074C1100.38 381.843 1086.96 392.175 1067.03 392.175C1047.27 392.175 1034.94 381.662 1034.94 365.349ZM1111.18 346.136C1111.18 319.31 1130.03 299.915 1155.77 299.915C1181.51 299.915 1200.36 319.31 1200.36 346.136C1200.36 372.781 1181.51 392.175 1155.77 392.175C1130.03 392.175 1111.18 372.781 1111.18 346.136ZM1123.87 345.954C1123.87 366.618 1136.92 380.937 1155.77 380.937C1174.44 380.937 1187.67 366.618 1187.67 345.954C1187.67 325.654 1174.44 311.153 1155.77 311.153C1136.92 311.153 1123.87 325.654 1123.87 345.954ZM1229.79 390H1217.28V257.863H1229.79V390ZM1289.56 392.175C1263.82 392.175 1246.6 373.687 1246.6 346.136C1246.6 318.766 1263.64 299.915 1288.65 299.915C1312.39 299.915 1328.53 316.772 1328.53 341.604V347.767H1258.74C1259.65 369.155 1270.89 381.481 1289.74 381.481C1304.06 381.481 1313.3 375.318 1316.56 363.718H1328.53C1323.81 382.206 1310.22 392.175 1289.56 392.175ZM1288.65 310.609C1272.15 310.609 1261.28 321.485 1259.1 338.704H1316.02C1316.02 321.847 1305.14 310.609 1288.65 310.609Z" fill="#7F7F7F"/>
</g>
<defs>
<filter id="filter0_dd_4886_506" x="91.9558" y="107.991" width="1714.09" height="854.088" filterUnits="userSpaceOnUse" color-interpolation-filters="sRGB">
<feFlood flood-opacity="0" result="BackgroundImageFix"/>
<feColorMatrix in="SourceAlpha" type="matrix" values="0 0 0 0 0 0 0 0 0 0 0 0 0 0 0 0 0 0 127 0" result="hardAlpha"/>
<feMorphology radius="2.00884" operator="erode" in="SourceAlpha" result="effect1_dropShadow_4886_506"/>
<feOffset dy="8.03535"/>
<feGaussianBlur stdDeviation="6.02651"/>
<feComposite in2="hardAlpha" operator="out"/>
<feColorMatrix type="matrix" values="0 0 0 0 0 0 0 0 0 0 0 0 0 0 0 0 0 0 0.1 0"/>
<feBlend mode="normal" in2="BackgroundImageFix" result="effect1_dropShadow_4886_506"/>
<feColorMatrix in="SourceAlpha" type="matrix" values="0 0 0 0 0 0 0 0 0 0 0 0 0 0 0 0 0 0 127 0" result="hardAlpha"/>
<feMorphology radius="4.01767" operator="erode" in="SourceAlpha" result="effect2_dropShadow_4886_506"/>
<feOffset dy="4.01767"/>
<feGaussianBlur stdDeviation="4.01767"/>
<feComposite in2="hardAlpha" operator="out"/>
<feColorMatrix type="matrix" values="0 0 0 0 0 0 0 0 0 0 0 0 0 0 0 0 0 0 0.1 0"/>
<feBlend mode="normal" in2="effect1_dropShadow_4886_506" result="effect2_dropShadow_4886_506"/>
<feBlend mode="normal" in="SourceGraphic" in2="effect2_dropShadow_4886_506" result="shape"/>
</filter>
<linearGradient id="paint0_linear_4886_506" x1="988.314" y1="787.203" x2="1043.54" y2="729.848" gradientUnits="userSpaceOnUse">
<stop stop-color="#FF414C"/>
<stop offset="1" stop-color="#FF414C" stop-opacity="0"/>
</linearGradient>
<clipPath id="clip0_4886_506">
<rect width="1920" height="1080" fill="white"/>
</clipPath>
</defs>
</svg>
