<svg width="524" height="352" viewBox="0 0 524 352" fill="none" xmlns="http://www.w3.org/2000/svg">
<g clip-path="url(#clip0_3351_41063)">
<rect width="524" height="352" rx="3.51794" fill="#232323"/>
<line y1="331.5" x2="524" y2="331.5" stroke="#2E2E2E"/>
<line y1="252.249" x2="524" y2="252.249" stroke="#2E2E2E"/>
<line y1="177.341" x2="524" y2="177.341" stroke="#2E2E2E"/>
<line y1="97.0049" x2="524" y2="97.0049" stroke="#2E2E2E"/>
<line y1="18.8398" x2="524" y2="18.8398" stroke="#2E2E2E"/>
<line y1="289.16" x2="524" y2="289.16" stroke="#2E2E2E"/>
<line y1="209.91" x2="524" y2="209.91" stroke="#2E2E2E"/>
<line y1="135.002" x2="524" y2="135.002" stroke="#2E2E2E"/>
<line y1="54.665" x2="524" y2="54.665" stroke="#2E2E2E"/>
<path d="M199.574 99.0494C226.81 85.6178 249.188 93.3517 257.1 98.969C257.177 99.0239 257.241 99.0875 257.297 99.1645C258.258 100.495 260.024 103.741 260.024 107.016C260.024 111.233 249.246 119.2 247.84 121.543C246.434 123.886 248.777 128.572 261.43 130.446C274.082 132.321 284.391 126.697 298.449 120.137C309.161 115.138 321.289 103.774 326.737 97.8456C327.138 97.4092 327.834 97.443 328.16 97.9379C330.867 102.047 333.114 108.496 334.502 112.5C335.99 116.79 349.589 156.733 355.46 177.217C355.56 177.565 355.446 177.926 355.18 178.173C353.611 179.633 350.045 183.272 345.31 189.022C338.75 196.988 305.947 208.703 292.826 211.515C279.705 214.327 275.488 208.703 273.613 207.766C272.245 207.082 270.055 193.039 269.207 185.481C269.119 184.692 268.332 184.493 267.973 185.201C266.76 187.595 264.833 191.869 261.43 195.582C256.275 201.206 230.97 205.892 217.849 208.703C204.728 211.515 196.293 219.013 193.482 220.418C190.67 221.824 192.076 213.389 192.076 207.766C192.076 202.143 184.11 178.244 180.829 159.031C177.549 139.818 165.834 130.446 163.96 128.572C162.085 126.697 159.742 124.823 159.742 122.48C159.742 120.137 165.365 115.919 199.574 99.0494Z" fill="#FF414C"/>
<mask id="mask0_3351_41063" style="mask-type:alpha" maskUnits="userSpaceOnUse" x="206" y="123" width="60" height="68">
<path d="M265.605 179.763C264.217 164.084 252.3 135.665 246.516 123.416L206.602 143.015L215.279 187.112C232.633 191.195 266.993 195.442 265.605 179.763Z" fill="#D9D9D9"/>
</mask>
<g mask="url(#mask0_3351_41063)">
<path d="M268.092 167.579L270.153 167.159L271.166 166.94C271.234 166.914 271.307 166.901 271.38 166.9L271.46 166.904C271.596 166.902 271.732 166.885 271.865 166.852C271.901 166.842 271.934 166.823 271.962 166.799C271.962 166.799 271.965 166.748 271.966 166.726L271.909 166.547L271.701 166.2L271.579 166.004L271.469 165.882L271.269 165.637C270.864 165.127 270.451 164.623 270.01 164.111C269.568 163.598 269.11 163.136 268.682 162.632C265.567 159.11 262.174 155.72 258.688 152.42C257.141 150.959 255.509 149.567 253.891 148.19C251.896 146.333 249.765 144.557 248.213 142.19C247.718 141.433 248.145 141.243 249.052 141.37C249.618 141.458 250.176 141.591 250.72 141.77C251.055 141.877 251.383 142.006 251.701 142.157C252.033 142.33 252.351 142.529 252.65 142.754L255.95 145.247C257.032 146.107 258.049 147.073 259.061 148.002C261.106 149.883 263.134 151.822 265.067 153.895C267.394 156.397 270.084 158.677 272.436 161.275C273.046 161.92 273.594 162.643 274.172 163.33C274.248 163.422 274.303 163.483 274.392 163.605L274.679 164.007L275.237 164.803C275.611 165.356 275.996 165.822 276.338 166.431C276.475 167.038 276.663 167.639 276.764 168.236C276.652 168.533 276.462 168.793 276.214 168.99C275.964 169.209 275.686 169.393 275.389 169.54C274.689 169.868 273.958 170.127 273.207 170.313L272.622 170.465L272.133 170.586L271.394 170.76C269.095 171.264 266.807 171.687 264.532 172.14C261.084 172.826 257.61 173.437 254.234 174.258C251.658 174.923 249.117 175.717 246.62 176.637L245.025 177.25C243.004 177.877 242.506 177.91 241.652 177.303C241.455 177.161 241.226 177.069 241.027 176.95C240.948 176.903 240.881 176.84 240.83 176.764C240.78 176.688 240.747 176.601 240.735 176.511C240.714 176.255 240.781 176.001 240.926 175.789C241.334 175.198 241.884 174.719 242.525 174.395C243.645 173.776 244.814 173.249 246.019 172.82C247.204 172.377 248.408 171.993 249.618 171.631C252.052 170.922 254.531 170.341 257.021 169.818C260.718 168.992 264.408 168.304 268.103 167.514L268.092 167.579Z" fill="black"/>
<path d="M257.086 161.865L257.046 161.816L257.042 161.811L257.042 161.811C256.806 161.513 256.566 161.221 256.311 160.925C256.192 160.787 256.071 160.656 255.945 160.518L255.926 160.498C255.796 160.357 255.66 160.209 255.528 160.053C253.704 157.991 251.714 156.002 249.665 154.062C248.762 153.209 247.808 152.396 246.853 151.583L246.845 151.576L246.837 151.569C246.661 151.405 246.481 151.24 246.299 151.074C245.292 150.154 244.224 149.177 243.414 147.943L243.414 147.942C243.326 147.808 243.242 147.646 243.22 147.47C243.194 147.262 243.258 147.037 243.451 146.882C243.608 146.757 243.794 146.726 243.922 146.716C244.063 146.706 244.215 146.717 244.366 146.738L244.373 146.739L244.373 146.739C244.731 146.795 245.085 146.879 245.43 146.992M257.086 161.865L250.206 151.115C251.413 152.225 252.609 153.368 253.75 154.591C254.395 155.285 255.087 155.95 255.784 156.619C256.57 157.373 257.362 158.133 258.097 158.946M257.086 161.865L256.657 161.958L256.652 161.959L256.106 162.07L256.114 162.025L255.443 162.168C254.531 162.363 253.609 162.55 252.685 162.737C251.424 162.991 250.158 163.247 248.903 163.528M257.086 161.865L249.002 163.986M245.43 146.992C245.43 146.993 245.431 146.993 245.431 146.993L245.285 147.438L245.428 146.992C245.428 146.992 245.429 146.992 245.43 146.992ZM245.43 146.992C245.646 147.062 245.858 147.145 246.064 147.243L246.072 147.246L246.081 147.251C246.299 147.364 246.508 147.496 246.705 147.643L246.706 147.645L246.706 147.645L248.653 149.116L248.663 149.123L248.662 149.123C249.212 149.56 249.736 150.043 250.238 150.507C250.334 150.595 250.429 150.683 250.523 150.77L250.524 150.77C251.734 151.883 252.94 153.036 254.092 154.272L254.093 154.272C254.729 154.956 255.412 155.612 256.111 156.283C256.155 156.325 256.199 156.367 256.243 156.409C256.983 157.12 257.736 157.849 258.441 158.628M258.441 158.628C258.44 158.626 258.439 158.625 258.438 158.624L258.097 158.946M258.441 158.628C258.696 158.897 258.941 159.199 259.174 159.484C259.279 159.613 259.381 159.739 259.48 159.857L259.483 159.86L259.483 159.86C259.49 159.869 259.498 159.878 259.506 159.887C259.538 159.926 259.579 159.975 259.63 160.044L259.633 160.048L259.633 160.048L259.802 160.286L259.804 160.288L260.133 160.758L260.138 160.765L260.138 160.765C260.196 160.851 260.262 160.942 260.332 161.039C260.487 161.255 260.661 161.497 260.808 161.759L260.841 161.818L260.856 161.884C260.88 161.989 260.911 162.111 260.944 162.239C261.005 162.477 261.073 162.741 261.113 162.975L261.134 163.1L261.089 163.219C260.994 163.469 260.834 163.689 260.626 163.857M258.441 158.628C258.442 158.629 258.443 158.63 258.445 158.631L258.097 158.946M258.097 158.946L260.626 163.857M260.626 163.857C260.629 163.855 260.631 163.853 260.634 163.851L260.326 163.498M260.626 163.857L260.651 163.053C260.584 163.228 260.472 163.381 260.326 163.498M260.626 163.857C260.45 164.01 260.255 164.139 260.046 164.242L260.038 164.246L260.038 164.246C259.598 164.452 259.139 164.615 258.668 164.732M260.626 163.857L259.839 163.822C259.426 164.016 258.995 164.168 258.552 164.278M260.626 163.857C260.623 163.86 260.62 163.862 260.617 163.864L260.326 163.498M260.626 163.857L260.326 163.498M258.668 164.732L258.671 164.731L258.552 164.278M258.668 164.732L258.325 164.821L258.32 164.823L258.32 164.823L258.031 164.894L258.026 164.895L258.026 164.895L257.589 164.998L257.582 165L257.582 165C256.621 165.21 255.659 165.398 254.708 165.583C254.312 165.661 253.918 165.738 253.526 165.816L253.526 165.816C252.996 165.921 252.468 166.023 251.941 166.124C250.432 166.415 248.938 166.703 247.473 167.06M258.668 164.732C258.667 164.732 258.666 164.732 258.665 164.733L258.552 164.278M258.552 164.278L247.473 167.06M247.473 167.06C247.474 167.06 247.475 167.059 247.476 167.059L247.359 166.605M247.473 167.06L257.482 164.542C256.526 164.751 255.573 164.937 254.624 165.122C254.227 165.2 253.83 165.277 253.434 165.356C252.911 165.46 252.386 165.561 251.862 165.662C250.348 165.954 248.837 166.246 247.359 166.605M247.473 167.06C247.472 167.06 247.47 167.06 247.469 167.061L247.359 166.605M247.473 167.06C245.97 167.448 244.488 167.911 243.031 168.448M247.359 166.605C245.839 166.997 244.339 167.466 242.866 168.009M242.866 168.009L243.034 168.447L243.031 168.448M242.866 168.009L241.925 168.37C237.691 169.685 242.696 165.635 244.635 165.055C246.071 164.637 247.533 164.294 249.002 163.986M242.866 168.009L243.029 168.449C243.03 168.448 243.031 168.448 243.031 168.448M243.031 168.448L242.093 168.808L242.079 168.813L242.064 168.818C241.523 168.986 241.094 169.08 240.771 169.097C240.611 169.106 240.445 169.097 240.293 169.048C240.135 168.997 239.961 168.89 239.866 168.688C239.775 168.496 239.798 168.305 239.837 168.171C239.876 168.035 239.945 167.907 240.019 167.795C240.168 167.568 240.39 167.325 240.641 167.084C241.149 166.599 241.849 166.062 242.542 165.61C243.227 165.163 243.95 164.771 244.501 164.606L244.504 164.605C245.955 164.183 247.428 163.837 248.903 163.528M248.903 163.528C248.902 163.528 248.901 163.528 248.9 163.528L249.002 163.986M248.903 163.528C248.904 163.528 248.905 163.527 248.906 163.527L249.002 163.986" fill="black" stroke="black" stroke-width="0.937212"/>
<path d="M264.869 169.263L268.897 168.812L270.904 168.586L271.397 168.524L271.647 168.5L271.727 168.504L271.953 168.516C272.243 168.525 272.534 168.504 272.819 168.451C272.928 168.456 272.824 168.349 272.827 168.305L272.748 168.133C272.685 168.007 272.613 167.886 272.532 167.771C272.473 167.669 272.405 167.572 272.328 167.483L271.499 166.548L269.587 164.345C265.138 159.183 260.423 154.051 255.583 149.103C253.429 146.909 251.162 144.804 248.914 142.737C246.054 140.083 242.964 137.615 240.426 134.524C239.965 133.96 239.973 133.515 240.322 133.277C240.836 133.011 241.408 132.875 241.987 132.88C243.927 132.863 245.806 133.56 247.266 134.839C250.272 137.5 253.255 140.19 256.129 143.02C259.002 145.85 261.768 148.777 264.453 151.875C267.64 155.569 271.396 159 274.672 162.815L276.05 164.465C276.737 165.319 277.363 166.221 278.021 167.08L278.977 168.379C279.075 168.75 279.144 169.119 279.228 169.481L279.479 170.569C279.474 170.656 279.543 170.747 279.523 170.841C279.489 170.937 279.437 171.026 279.371 171.104C279.258 171.244 279.131 171.372 278.993 171.487C278.335 172.023 277.566 172.408 276.742 172.614C275.75 172.87 274.694 173.071 273.639 173.258L272.254 173.487L271.237 173.64L269.151 173.429C265.837 173.917 262.525 174.361 259.236 174.923L255.542 175.677L251.777 176.265C249.299 176.701 246.893 177.697 244.451 178.287C240.756 179.261 241.103 179.421 238.981 180.289C238.234 180.594 237.485 180.943 236.738 181.256C235.991 181.568 235.426 181.751 234.915 181.893C234.461 181.984 233.997 182.01 233.537 181.968C232.41 181.891 232.233 182.043 231.456 180.978C230.306 179.404 233.418 177.503 234.405 176.856C238.532 174.715 241.224 174.087 245.021 173.14C249.09 172.125 252.435 171.252 256.849 170.361C257.538 170.309 258.042 169.973 258.725 169.913L260.77 169.645L264.839 169.123L264.869 169.263Z" fill="black"/>
<path d="M226.812 165.709C227.639 163.905 228.458 162.101 229.241 160.284C229.524 159.616 229.696 158.916 229.987 158.256C231.007 155.919 232.071 153.595 232.973 151.232C233.363 150.182 233.691 149.109 233.955 148.02C234.16 146.655 234.504 145.314 234.981 144.017C235.158 143.646 236.015 143.718 236.814 144.193C237.243 144.45 237.608 144.802 237.88 145.222C238.15 145.602 238.271 146.069 238.219 146.532C237.977 148.05 237.62 149.547 237.151 151.011C236.652 152.443 236.045 153.834 235.334 155.173C234.584 156.848 233.928 158.564 233.369 160.312C232.639 162.186 231.857 164.018 231.076 165.894L229.628 169.313C228.915 171.04 228.099 172.742 227.467 174.503C226.968 175.857 226.704 177.276 226.278 178.643C226.171 178.938 226.102 179.248 225.973 179.537C225.486 180.614 225.093 180.854 224.198 180.762C223.996 180.749 223.796 180.724 223.597 180.688C222.949 180.543 222.611 179.883 222.66 178.99C222.709 178.324 222.759 177.657 222.837 176.99C222.916 176.322 223.12 175.709 223.295 175.067C223.644 173.791 224.059 172.52 224.503 171.255C224.835 170.313 225.182 169.381 225.543 168.457L226.701 165.691L226.812 165.709Z" fill="black"/>
</g>
<mask id="mask1_3351_41063" style="mask-type:alpha" maskUnits="userSpaceOnUse" x="259" y="128" width="60" height="68">
<path d="M318.089 184.449C316.701 168.77 304.785 140.352 299 128.103L259.086 148.253L271.043 191.799C288.397 195.882 319.478 200.128 318.089 184.449Z" fill="#D9D9D9"/>
</mask>
<g mask="url(#mask1_3351_41063)">
<path d="M264.39 175.342C264.39 175.342 264.948 173.354 266.172 174.348C267.396 175.342 271.015 175.388 271.015 175.388C271.921 175.569 272.307 175.266 272.361 174.993C272.47 175.004 272.371 174.899 272.375 174.858L272.303 174.694C272.245 174.575 272.178 174.459 272.102 174.348C272.047 174.25 271.983 174.157 271.91 174.07L271.119 173.161L269.299 171.02C265.064 166.005 260.563 161.005 255.928 156.169C253.867 154.024 251.687 151.957 249.526 149.925C246.776 147.318 243.791 144.871 241.38 141.875C240.943 141.328 240.969 140.915 241.327 140.712C241.851 140.492 242.427 140.395 243.005 140.429C244.943 140.512 246.792 141.254 248.198 142.515C251.093 145.137 253.963 147.783 256.718 150.555C259.474 153.326 261.848 157.641 264.404 160.651C267.438 164.24 271.321 166.154 274.439 169.86L275.747 171.46C276.399 172.287 276.988 173.156 277.61 173.987L278.513 175.24C278.826 175.916 279.144 176.866 278.959 177.552C278.921 177.639 278.866 177.719 278.797 177.788C278.678 177.912 278.547 178.024 278.404 178.123C276.863 179.176 275.044 179.52 272.987 179.494C270.93 179.468 267.988 178.562 266.608 178.59C265.228 178.619 261.885 180.425 258.578 180.779L254.86 181.29L251.076 181.644C248.584 181.922 246.102 182.248 243.639 182.672C239.911 183.387 236.244 184.339 232.663 185.522C231.905 185.767 231.143 186.053 230.385 186.305C229.626 186.556 229.055 186.697 228.538 186.803C228.082 186.864 227.617 186.864 227.159 186.803C226.419 186.717 225.73 186.396 225.21 185.895C224.934 185.679 224.675 185.444 224.436 185.192C224.271 184.961 224.19 184.688 224.205 184.413C224.221 184.139 224.331 183.877 224.52 183.668C225.084 182.887 225.83 182.235 226.704 181.76C233.242 178.771 240.617 177.41 247.938 176.37C249.305 176.192 250.664 176.02 252.029 175.869C252.717 175.808 253.395 175.705 254.087 175.678L256.158 175.658C256.849 175.644 257.545 175.652 258.229 175.631L260.282 175.487L264.366 175.21L264.39 175.342Z" fill="#231F20"/>
</g>
<path d="M315.208 140.786L313.292 142.157C312.658 142.607 311.969 143.004 311.32 143.418C310.65 143.829 310.007 144.267 309.332 144.644L307.276 145.769C306.291 146.34 305.298 146.887 304.265 147.361C300.633 149.044 296.829 150.365 292.934 151.23L291.644 151.556C291.207 151.66 290.77 151.709 290.337 151.792C289.464 151.945 288.599 152.11 287.735 152.265C286.616 152.383 285.484 152.509 284.365 152.626C283.23 152.707 282.093 152.569 280.976 152.325C280.28 152.007 280.392 152.05 280.974 151.644C281.267 151.425 281.68 151.218 282.167 150.959C282.409 150.841 282.678 150.694 282.946 150.613C283.222 150.545 283.518 150.491 283.828 150.473L287.069 149.989C288.145 149.808 289.208 149.527 290.28 149.312C292.413 148.827 294.573 148.369 296.704 147.719C299.282 147.022 301.768 145.715 304.197 144.474C305.541 143.806 306.814 142.994 308.134 142.278C309.39 141.441 310.678 140.664 311.899 139.776L314.134 138.114C314.866 137.55 315.555 136.924 316.261 136.322C318.397 134.488 320.391 132.473 322.161 130.307C322.827 129.456 323.405 128.545 324.002 127.649C324.598 126.763 325.036 125.782 325.57 124.873C325.79 124.465 326.01 124.057 326.2 123.632C326.996 122.093 327.433 121.693 328.281 121.678C328.48 121.671 328.682 121.644 328.854 121.665C329.451 121.756 329.53 122.616 329.076 123.913C327.672 127.74 325.193 131.33 322.306 134.47C321.221 135.626 320.086 136.749 318.918 137.823C317.685 138.83 316.535 139.918 315.232 140.834L315.187 140.782L315.208 140.786Z" fill="black"/>
<path opacity="0.8" d="M259.493 104.528C259.493 104.528 262.397 108.49 264.341 114.278C266.285 120.066 268.457 129.408 268.457 129.408C268.457 129.408 248.488 129.294 248.006 122.39C247.534 115.487 255.872 113.169 257.069 109.973C258.267 106.776 259.493 104.528 259.493 104.528Z" fill="#1C1C1C"/>
<path d="M265.013 116.191C262.417 112.342 261.077 111.134 255.422 115.276C250.274 119.053 262.187 105.266 262.187 105.266L265.005 116.178L265.013 116.191Z" fill="#1D1D1D"/>
<path d="M295.415 370.237C292.963 371.309 290.497 372.335 287.975 373.196C287.057 373.527 286.171 373.919 285.239 374.204C281.979 375.255 278.658 376.107 275.317 376.836C273.844 377.194 272.342 377.48 270.871 377.772C269.918 377.943 268.972 378.126 268.007 378.24C267.524 378.302 267.041 378.298 266.555 378.316C266.067 378.344 265.585 378.341 265.087 378.247C264.469 378.152 264.558 378.147 265.03 377.852C265.502 377.502 266.364 376.952 267.407 376.656C268.327 376.314 269.275 376.176 270.21 375.935L273.012 375.215C274.885 374.768 276.766 374.334 278.673 373.883C280.947 373.348 283.195 372.423 285.436 371.597C287.886 370.656 290.32 369.679 292.725 368.62C294.207 367.979 295.678 367.28 297.121 366.555C298.221 366.017 299.289 365.418 300.384 364.846C301.452 364.248 302.503 363.623 303.536 362.974C304.328 362.444 305.079 361.895 305.822 361.333C306.566 360.761 307.273 360.159 307.996 359.583C308.319 359.326 308.631 359.067 308.944 358.808C310.162 357.875 310.66 357.739 311.342 358.076C311.504 358.151 311.678 358.217 311.803 358.306C312.247 358.632 312.011 359.355 311.193 360.199C308.788 362.706 305.76 364.733 302.626 366.565C301.473 367.269 300.261 367.873 299.076 368.516C297.864 369.12 296.652 369.725 295.436 370.296L295.404 370.235L295.415 370.237Z" fill="#F2F2F2"/>
<path d="M356.318 281.402C355.445 280.678 354.604 279.904 353.774 279.132C353.477 278.846 353.153 278.587 352.871 278.281C351.878 277.205 350.924 276.103 350.016 274.987C349.605 274.493 349.192 274.008 348.789 273.526C348.271 272.902 347.767 272.258 347.377 271.537C347.254 271.316 347.397 271.255 347.662 271.305C347.925 271.366 348.356 271.524 348.693 271.83C349.293 272.371 349.918 272.895 350.505 273.445C351.08 274.004 351.64 274.581 352.187 275.168C352.829 275.893 353.687 276.461 354.461 277.068C355.322 277.736 356.141 278.45 357.015 279.109C357.554 279.508 358.091 279.916 358.655 280.297C359.501 280.874 360.348 281.441 361.258 281.909C361.972 282.252 362.733 282.462 363.461 282.732C363.625 282.796 363.794 282.828 363.945 282.9C364.533 283.154 364.631 283.392 364.487 284.034C364.459 284.182 364.431 284.331 364.384 284.464C364.228 284.94 363.819 285.191 363.304 285.127C362.542 285.038 361.813 284.834 361.095 284.566C360.398 284.248 359.737 283.859 359.079 283.45C358.111 282.828 357.188 282.137 356.291 281.43L356.322 281.381L356.318 281.402Z" fill="#F2F2F2"/>
<path d="M366.715 275.623C366.715 275.623 374.667 284.336 373.724 288.853C372.771 293.369 360.574 284.533 360.574 284.533L366.715 275.623Z" fill="#F2F2F2"/>
<path d="M352.405 266.057C351.441 265.414 344.938 260.464 339.822 261.581L348.627 273.209L352.407 266.047L352.405 266.057Z" fill="#F2F2F2"/>
<path d="M337.358 337.7C332.124 342.92 326.73 348 321.084 352.79C319.03 354.541 317.002 356.33 314.856 357.987C307.331 363.837 299.292 369.097 290.654 373.234C286.82 375.054 282.853 376.651 278.824 377.941C273.671 379.544 268.183 380.777 262.735 380.053C261.047 379.756 261.294 379.781 262.687 379.32C263.039 379.2 263.452 379.048 263.925 378.863C264.045 378.809 264.163 378.766 264.289 378.68C264.418 378.638 264.546 378.597 264.675 378.555C264.943 378.474 265.223 378.385 265.503 378.295C266.085 378.12 266.711 377.942 267.375 377.738C268.043 377.569 268.737 377.382 269.463 377.201C279.852 375.118 289.627 370.658 299.004 365.224C304.624 361.964 309.976 357.744 315.114 353.493C320.772 348.814 326.228 343.867 331.514 338.723C334.768 335.553 337.948 332.315 341.073 329.022C345.804 324.025 350.487 318.932 355.015 313.787C358.547 309.792 361.828 305.728 365.441 301.825C366.25 300.969 367.015 300.115 367.886 299.281C369.484 297.74 370.728 296.846 371.745 296.402C372.733 295.93 373.505 295.912 374.105 296.102C374.394 296.201 374.729 296.286 374.878 296.424C375.139 296.671 374.891 296.997 374.397 297.518C373.904 298.039 373.098 298.819 372.028 299.89C368.786 302.995 365.682 306.698 362.468 310.347C359.261 314.019 355.995 317.768 352.67 321.484C347.729 327.012 342.627 332.465 337.407 337.786L337.341 337.73L337.358 337.7Z" fill="#F2F2F2"/>
<path d="M301.17 302.838C295.936 308.058 290.543 313.138 284.897 317.928C282.843 319.679 280.815 321.468 278.669 323.125C271.143 328.975 263.105 334.235 254.466 338.372C250.633 340.192 246.666 341.789 242.637 343.079C237.484 344.682 231.995 345.915 226.547 345.191C224.859 344.894 225.107 344.919 226.499 344.458C226.851 344.338 227.264 344.186 227.738 344.001C227.858 343.947 227.976 343.904 228.102 343.818C228.23 343.776 228.359 343.735 228.487 343.693C228.755 343.612 229.035 343.523 229.316 343.433C229.897 343.258 230.524 343.08 231.187 342.877C231.856 342.707 232.55 342.52 233.275 342.339C243.664 340.256 253.439 335.797 262.817 330.362C268.437 327.103 273.789 322.882 278.927 318.631C284.584 313.952 290.041 309.005 295.326 303.861C298.581 300.691 301.761 297.453 304.886 294.16C309.616 289.163 314.299 284.07 318.828 278.925C322.359 274.93 325.641 270.866 329.254 266.963C330.063 266.107 330.828 265.253 331.699 264.42C333.296 262.879 334.54 261.984 335.557 261.54C336.546 261.069 337.317 261.05 337.918 261.24C338.206 261.339 338.541 261.424 338.691 261.562C338.951 261.809 338.703 262.135 338.21 262.656C337.716 263.177 336.91 263.957 335.841 265.028C332.598 268.134 329.495 271.836 326.281 275.485C323.073 279.158 319.808 282.907 316.482 286.622C311.542 292.15 306.439 297.603 301.22 302.924L301.153 302.868L301.17 302.838Z" fill="#F2F2F2"/>
<path d="M366.363 273.231C367.575 272.045 369.011 270.89 370.391 269.977C370.893 269.644 371.341 269.246 371.841 268.924C373.603 267.787 375.353 266.714 376.915 265.419C377.615 264.849 378.193 264.168 378.787 263.524C379.153 263.099 379.482 262.635 379.82 262.183C380.139 261.717 380.485 261.277 380.976 260.887C381.273 260.648 381.457 260.781 381.635 261.232C381.724 261.457 381.818 261.771 381.892 262.136C381.935 262.484 381.859 262.832 381.706 263.176C381.104 264.324 380.417 265.467 379.489 266.366C378.573 267.268 377.557 268.053 376.488 268.717C375.217 269.519 374.082 270.533 372.886 271.404C371.549 272.38 370.328 273.268 369.219 274.375C368.53 275.056 367.869 275.765 367.243 276.524C366.301 277.674 365.373 278.87 364.564 280.132C363.937 281.122 363.494 282.19 362.955 283.24C362.835 283.469 362.744 283.716 362.605 283.931C362.362 284.345 362.121 284.574 361.843 284.653C361.573 284.745 361.304 284.716 360.963 284.607C360.808 284.556 360.639 284.524 360.507 284.466C360.042 284.258 359.866 283.676 359.977 282.918C360.605 280.875 361.742 278.984 363.016 277.118C363.989 275.744 365.124 274.445 366.316 273.189L366.374 273.233L366.363 273.231Z" fill="#F2F2F2"/>
<path d="M194.416 214.538L194.629 216.772L194.614 217.088C194.617 217.187 194.583 217.367 194.624 217.441L194.888 217.26C194.949 217.228 195.023 217.187 195.098 217.135L195.159 217.103C195.159 217.103 195.17 217.105 195.323 216.991L195.999 216.494C196.912 215.844 197.867 215.256 198.798 214.631L201.685 212.94L204.651 211.416C207.232 210.182 209.811 208.958 212.496 208.051C221.951 204.76 231.691 203.091 241.194 200.994C245.407 200.069 249.588 198.907 253.528 197.447C256.039 196.474 258.458 195.286 260.588 193.769L262.147 192.604C262.622 192.179 263.11 191.744 263.569 191.293C263.97 190.799 264.46 190.354 264.805 189.805C265.159 189.268 265.725 188.827 266.015 188.223C266.909 186.802 266.922 186.969 266.792 188.524C266.773 188.915 266.735 189.402 266.631 189.953C266.616 190.093 266.579 190.228 266.579 190.404C266.54 190.55 266.491 190.694 266.45 190.851C266.369 191.165 266.245 191.471 266.098 191.783C265.805 192.408 265.493 193.128 265.001 193.759C264.774 194.089 264.523 194.425 264.261 194.771C263.972 195.078 263.673 195.384 263.35 195.696C261.006 197.765 258.291 199.182 255.589 200.36C252.867 201.524 250.102 202.449 247.319 203.185C241.749 204.676 236.182 205.741 230.633 206.885C223.993 208.229 217.287 210.329 211.003 212.925C208.263 214.009 205.63 215.288 203.071 216.691L201.175 217.78L199.338 218.969C198.716 219.356 198.141 219.785 197.541 220.231C196.599 220.919 195.628 221.701 194.725 222.474L192.385 223.414C192.385 223.414 192.289 223.461 192.244 223.464C192.195 223.432 192.169 223.395 192.142 223.368L191.992 223.175C191.897 223.036 191.803 222.897 191.714 222.727C191.537 222.386 191.355 221.957 191.238 221.419C191.087 220.59 191.068 219.588 191.008 218.688L190.855 216.365C190.78 215.199 190.67 214.037 190.55 212.874C190.31 210.546 190.024 208.232 189.662 205.914C188.58 198.929 176.716 154.048 174.162 147.541C172.164 142.5 169.49 137.846 166.12 133.852C165.375 132.976 164.595 132.17 163.783 131.358C162.281 129.845 161.246 128.936 160.587 128.186C159.928 127.436 159.645 126.844 159.549 126.135C159.499 125.818 159.389 125.469 159.408 125.198C159.42 124.322 161.505 124.607 164.293 126.747C168.401 129.916 171.695 134.193 174.253 138.824C176.819 143.468 178.69 148.485 180.143 153.566C192.597 199.041 193.781 206.814 194.511 214.556L194.42 214.571L194.416 214.538Z" fill="black"/>
<path d="M299.254 211.945C295.688 212.696 292.053 213.237 288.354 213.361C287.428 213.383 286.501 213.416 285.568 213.36C284.637 213.348 283.7 213.259 282.755 213.146C281.816 213.067 280.873 212.834 279.94 212.657C279.005 212.382 278.068 212.172 277.159 211.758C276.743 211.581 276.319 211.445 275.925 211.206L274.634 210.49C274.344 210.227 274.037 209.993 273.801 209.674C273.554 209.299 273.386 209.025 273.288 208.788C273.036 208.268 272.902 207.815 272.728 207.343C272.45 206.435 272.204 205.532 272.009 204.65C271.012 200.117 270.242 195.66 269.272 191.219C268.323 186.782 260.1 158.992 258.755 154.678C257.559 150.853 256.088 147.086 254.431 143.492C251.83 137.774 249.331 131.5 246.5 125.5C245.796 124.006 246.256 122.404 247.434 123.198C251.39 126.947 251.665 130.225 254.501 136C255.725 138.403 259.157 146.35 260.048 148.889C261.889 153.944 270.423 182.528 271.526 187.772C272.197 190.895 272.879 194.074 273.579 197.278C273.925 198.869 274.284 200.451 274.641 202.043C275.002 203.615 275.37 205.21 275.839 206.615L276.007 207.119L276.189 207.548C276.258 207.704 276.297 207.733 276.31 207.779C276.357 207.821 276.4 207.884 276.447 207.926L277.291 208.393C277.585 208.58 277.937 208.691 278.262 208.829C278.908 209.127 279.618 209.316 280.328 209.505C281.037 209.705 281.79 209.782 282.519 209.93C283.274 209.997 284.013 210.093 284.775 210.127C287.821 210.264 290.922 209.995 293.987 209.511C298.246 208.803 302.466 207.725 306.587 206.354C312.831 204.266 322.705 200.153 328.429 196.979C332.86 194.493 342.291 188.315 346.04 185.085C346.846 184.36 347.629 183.642 348.399 182.877C351.275 180.085 352.055 179.212 353.49 179.166C353.801 179.148 354.147 179.06 354.405 179.087C354.835 179.135 354.926 179.58 354.742 180.434C354.66 180.868 354.454 181.378 354.123 181.908C353.803 182.44 353.41 183.068 352.877 183.68C351.351 185.542 349.62 187.211 347.778 188.772C345.944 190.345 343.984 191.773 341.973 193.126C337.929 195.828 336.412 197.04 322.858 203.844C316.218 206.866 306.471 210.447 299.297 212.063L299.269 211.98L299.254 211.945Z" fill="black"/>
<path d="M264.854 110.193C265.353 111.845 265.796 113.509 266.24 115.162C266.401 115.763 266.641 116.346 266.779 116.953C267.307 119.094 267.684 121.272 268.087 123.433C268.269 124.389 268.507 125.334 268.745 126.278C268.952 127.503 269.259 128.724 269.08 130.017C269.038 130.415 268.843 130.4 268.487 130.136C268.304 130.002 268.076 129.816 267.824 129.582C267.559 129.357 267.305 129.078 267.181 128.747L266.446 127.006C266.239 126.419 266.112 125.813 265.964 125.204C265.666 123.995 265.414 122.774 265.201 121.526C264.944 120.04 264.413 118.558 263.979 117.082C263.518 115.459 263.048 113.823 262.541 112.213C262.224 111.22 261.907 110.228 261.544 109.248C261 107.774 260.458 106.289 259.731 104.912C259.175 103.852 258.408 102.917 257.699 102.081C257.547 101.898 257.366 101.754 257.221 101.595C256.947 101.302 256.812 101.145 256.814 100.959C256.822 100.861 256.833 100.743 256.851 100.592C256.875 100.465 256.903 100.317 256.937 100.137C256.958 99.9654 256.938 99.7859 256.936 99.621C256.933 99.3462 257.043 99.1146 257.426 99.0006C257.789 98.8827 258.324 98.9511 258.744 99.228C261.116 100.84 262.084 103.031 263.09 105.196C263.794 106.81 264.367 108.477 264.923 110.118L264.852 110.148L264.854 110.193Z" fill="black"/>
<path d="M236.01 90.0604C238.857 90.0287 241.751 90.3347 244.619 90.8335C247.488 91.3872 250.363 92.37 253.017 93.8816C255.661 95.3912 258.081 97.5607 259.666 100.263C260.534 101.591 261.229 103.368 261.216 105.231C261.244 107.112 260.535 108.832 259.706 110.2C258.458 112.213 256.947 113.705 255.541 115.162C254.127 116.606 252.72 117.952 251.641 119.306C250.687 120.519 250.131 121.665 250.244 122.63C250.34 123.745 250.889 124.672 252.006 125.497C253.116 126.3 254.604 126.9 256.16 127.315C257.725 127.743 259.384 128.023 261.056 128.23C264.189 128.603 267.645 128.083 270.996 127.478C274.371 126.865 277.71 125.917 281.026 124.92C286.886 123.056 292.621 120.641 298.059 117.874C304.969 114.178 316.776 106.509 322.608 101.315C324.45 99.6992 324.407 100.042 323.359 101.928C323.079 102.424 322.761 103 322.398 103.645C322.222 103.995 321.977 104.3 321.725 104.648C321.473 104.995 321.198 105.349 320.918 105.724C320.34 106.459 319.749 107.324 318.963 108.053C318.197 108.797 317.349 109.569 316.448 110.331C313.129 112.852 304.59 118.791 300.905 120.694C299.106 121.736 297.223 122.587 295.376 123.532C293.484 124.37 291.622 125.28 289.676 125.998C281.939 128.966 273.996 131.457 265.386 132.078C264.735 132.097 264.106 132.175 263.429 132.157L261.394 132.068C260.076 131.962 258.827 131.78 257.522 131.544C254.952 131.036 252.281 130.421 249.743 128.701C248.501 127.841 247.281 126.578 246.682 124.929C246.388 124.106 246.245 123.299 246.233 122.43C246.205 121.536 246.422 120.678 246.687 119.916C247.263 118.379 248.156 117.199 249.042 116.17C249.94 115.133 250.867 114.233 251.769 113.351C253.752 111.455 255.714 109.61 256.733 107.586C257.746 105.595 257.439 103.682 255.87 101.652C254.473 99.6429 252.528 98.0351 250.279 96.8744C248.019 95.7118 245.477 95.0553 242.897 94.6001C239.707 94.0625 236.391 93.9617 233.088 94.1377C229.787 94.3032 226.469 94.6739 223.183 95.2811C213.224 97.0614 203.423 100.21 194.13 104.157C190.513 105.7 187.012 107.386 183.585 109.206C180.16 111.016 176.811 112.939 173.519 114.971C172.059 115.847 170.693 116.806 169.237 117.716C163.909 121.173 162.214 122.246 160.458 122.188C160.065 122.179 159.581 122.242 159.301 122.156C158.811 122.019 158.998 121.44 159.76 120.487C160.513 119.521 161.912 118.272 163.811 116.821C175.22 108.359 188.694 101.571 202.855 96.5478C208.13 94.7041 213.528 93.1362 219.051 91.9538C224.579 90.8053 230.207 89.939 235.987 89.9465L236.001 90.0478L236.01 90.0604Z" fill="black"/>
<path d="M364.259 214.89L355.539 185.186C354.432 181.586 353.312 177.995 352.202 174.405C348.454 161.682 344.742 148.944 340.737 136.304C339.841 133.501 338.934 130.696 338.028 127.891C337.085 125.102 336.141 122.323 335.205 119.556C332.702 112.489 330.178 105.417 327.827 98.3016C327.085 96.0765 327.385 96.287 328.517 97.9603C329.071 98.8003 329.889 99.9864 330.794 101.463C331.235 102.205 331.732 103.001 332.202 103.88C332.651 104.755 333.13 105.702 333.557 106.693C339.68 120.842 344.523 135.429 348.82 150.297C351.384 159.186 354.511 168.292 357.24 177.355C360.204 187.319 363.167 197.293 366.129 207.268C367.618 212.333 369.119 217.39 370.607 222.455C370.648 222.583 370.667 222.719 370.755 222.834C370.832 222.947 370.964 223.005 371.087 223.05L371.289 223.143C371.429 223.214 371.608 223.313 371.754 223.407C372.067 223.609 372.362 223.851 372.599 224.105C373.187 224.709 373.568 225.363 373.908 225.998L374.144 226.492C374.248 226.699 374.313 226.93 374.394 227.143C374.498 227.58 374.529 228.112 374.488 228.5C374.439 229.28 374.279 229.952 374.109 230.622C374.023 230.957 373.93 231.279 373.825 231.6C373.743 231.859 373.698 231.982 373.634 232.145C373.705 232.466 374.017 233.37 374.328 234.218L374.555 234.876L374.793 235.645C375.019 236.247 374.971 236.908 374.737 237.51C374.687 237.655 374.634 237.82 374.576 237.952L374.449 238.279L374.189 238.899C374.024 239.307 373.863 239.693 373.725 240.073C373.651 240.289 373.608 240.402 373.575 240.517C373.543 240.631 373.508 240.756 373.484 240.883C373.438 241.127 373.422 241.387 373.485 241.63C373.507 241.919 373.836 241.981 374.061 242.068L375.011 242.379C375.608 242.591 376.236 242.808 376.611 243.318C376.77 243.579 376.868 243.872 376.977 244.166L377.231 245.026C377.74 246.746 378.261 248.458 378.771 250.167C380.939 257.325 383.276 264.284 385.531 271.327C386.027 272.88 386.555 274.384 387.036 275.957C388.833 281.771 389.067 283.725 388.493 285.251C388.361 285.599 388.268 286.031 388.116 286.255C387.623 287.006 386.224 284.833 384.692 280.637C382.47 274.402 380.331 267.962 378.246 261.413C377.222 258.125 376.19 254.825 375.151 251.501C374.643 249.836 374.135 248.171 373.627 246.506L373.48 246.006L372.341 245.648C371.528 245.363 370.753 244.997 370.321 244.377L370.066 243.989C369.906 243.904 369.896 243.726 369.799 243.598C369.538 242.836 369.371 242.036 369.47 241.166C369.516 240.747 369.577 240.309 369.691 239.88L369.866 239.244C369.927 239.036 369.965 238.956 370.001 238.82C370.174 238.315 370.359 237.856 370.526 237.438L370.881 236.551L370.571 235.636L370.092 234.339L369.788 233.393L369.392 232.122L369.836 230.878L370.063 230.142C370.178 229.769 370.269 229.402 370.333 229.063C370.395 228.735 370.453 228.372 370.445 228.239C370.445 228.239 370.482 228.279 370.41 228.134C370.123 227.509 369.749 226.989 369.602 226.895C369.564 226.866 369.545 226.851 369.485 226.818L368.95 226.574C368.748 226.481 368.561 226.369 368.384 226.259C367.662 225.782 367.141 225.058 366.883 224.219C365.961 221.148 365.039 218.077 364.127 215.008L364.222 214.971L364.259 214.89Z" fill="black"/>
<path d="M371.225 243.122C371.212 243.657 371.168 244.175 371.072 244.684C371.018 245.2 370.882 245.69 370.779 246.175C370.711 246.535 370.655 246.887 370.545 247.239C370.107 248.451 369.522 249.569 368.882 250.633C368.606 251.107 368.359 251.598 368.064 252.058C367.651 252.616 367.347 253.294 366.593 253.568C366.368 253.657 366.265 253.506 366.139 253.186C366.061 252.963 365.993 252.742 365.927 252.565C365.87 252.345 365.885 252.151 365.949 251.987C366.355 250.769 366.927 249.715 367.599 248.602C368.01 247.934 368.076 247.123 368.263 246.369C368.474 245.542 368.611 244.701 368.662 243.855C368.671 243.341 368.693 242.818 368.603 242.308C368.519 241.535 368.287 240.788 367.893 240.143C367.705 239.921 367.489 239.727 367.283 239.545C367.05 239.381 366.774 239.273 366.559 239.134C366.461 239.072 366.334 239.048 366.236 238.985C365.875 238.752 365.876 238.511 366.138 237.825C366.2 237.673 366.24 237.516 366.313 237.365C366.519 236.855 366.943 236.584 367.462 236.683C368.987 236.971 370.182 238.371 370.719 239.822C371.128 240.909 371.298 242.038 371.305 243.104L371.238 243.113L371.225 243.122Z" fill="#F2F2F2"/>
<path d="M355.363 246.879C355.433 244.885 355.56 242.879 355.846 240.848C356.184 238.828 356.306 236.733 357.429 234.565C357.847 233.689 358.405 233.06 358.879 232.469C359.374 231.883 359.874 231.33 360.41 230.817C361.917 229.346 363.471 227.973 365.109 226.681C365.933 226.036 366.766 225.403 367.659 224.804C368.133 224.499 368.475 224.257 369.289 223.84C370.004 223.482 370.733 223.225 371.481 223.333C372.186 223.489 372.844 223.843 373.323 224.384C373.802 224.924 374.088 225.615 374.214 226.341C374.29 226.75 374.327 227.196 374.295 227.596C374.286 227.934 374.245 228.267 374.195 228.586C374.096 229.226 373.916 229.828 373.717 230.416C373.32 231.592 372.754 232.669 372.064 233.647C371.2 234.91 370.157 236.073 368.919 236.991C368.304 237.456 367.646 237.858 366.937 238.185C366.588 238.349 366.232 238.491 365.868 238.619C365.497 238.724 365.097 238.748 364.719 238.775C363.742 238.776 363.865 238.591 364.412 237.905C364.694 237.574 364.994 236.973 365.427 236.539C365.837 236.057 366.303 235.564 366.833 235.082C368.398 233.711 369.544 231.887 370.263 230.059C370.449 229.6 370.59 229.144 370.695 228.703C370.807 228.286 370.848 227.778 370.852 227.526C370.9 227.447 370.94 227.235 370.767 227.104C370.697 227.069 370.608 227.074 370.509 227.077L370.429 227.095C370.429 227.095 370.261 227.173 370.174 227.222L369.561 227.567C368.144 228.385 366.752 229.482 365.448 230.629C364.133 231.784 362.856 233.024 361.71 234.267C361.394 234.602 361.087 234.95 360.826 235.284C360.542 235.626 360.399 235.862 360.223 236.267C360.028 236.604 359.893 237.028 359.76 237.441C359.586 237.837 359.488 238.301 359.361 238.738C358.868 240.531 358.744 242.461 358.599 244.387C358.457 246.762 358.429 249.171 358.467 251.581C358.482 253.416 358.545 255.227 358.498 257.16C358.474 257.693 358.374 258.278 358.218 258.753C358.071 259.241 357.9 259.681 357.738 260.133C357.385 261.01 357.014 261.872 356.612 262.717C355.403 265.341 354.154 267.881 352.615 270.333C352.272 270.871 351.952 271.403 351.568 271.923C351.203 272.403 350.909 272.797 350.612 273.092C350.315 273.387 350.025 273.584 349.788 273.737C349.281 274.036 348.857 274.076 348.421 274.005C348.219 273.967 347.999 273.969 347.847 273.907C347.337 273.701 347.586 272.673 348.354 271.227C349.639 269.188 350.849 267.025 352.008 264.787C352.582 263.667 353.145 262.544 353.689 261.407C354.221 260.279 354.742 259.094 355.084 258.04C355.219 257.615 355.268 257.416 355.288 257.135C355.303 256.764 355.315 256.295 355.306 255.821L355.267 252.896C355.236 250.915 355.232 248.906 355.272 246.895L355.35 246.888L355.363 246.879Z" fill="#F2F2F2"/>
<path d="M377.236 246.979C377.236 246.979 377.236 246.979 377.293 246.968C377.377 246.929 377.461 246.89 377.549 246.83C377.723 246.721 377.906 246.624 378.085 246.493C378.448 246.254 378.819 245.973 379.173 245.667C379.892 245.057 380.604 244.369 381.267 243.65C381.752 243.116 382.151 242.511 382.609 241.951C384.231 239.986 385.731 237.801 386.724 235.565C386.939 235.068 387.071 234.544 387.109 234.112C387.14 233.888 387.121 233.698 387.089 233.582L387.093 233.561L387.084 233.548C386.456 233.791 387.937 233.216 387.783 233.274L387.724 233.296L387.606 233.34C387.452 233.398 387.295 233.478 387.156 233.573C387.068 233.633 387.148 233.615 387.125 233.622L387.048 233.508C386.977 233.418 386.906 233.328 386.814 233.234C386.38 232.746 385.805 232.363 385.315 231.995C384.774 231.608 384.328 231.469 383.666 231.431C383.271 231.488 383.174 231.426 383.407 230.943C383.526 230.724 383.76 230.297 384.24 230.081C384.699 229.86 385.347 229.741 385.925 229.873C386.976 230.06 387.801 230.568 388.531 231.178C388.721 231.334 388.9 231.489 389.092 231.69C389.176 231.771 389.293 231.903 389.409 232.046C389.428 232.06 389.48 232.136 389.538 232.235C389.587 232.321 389.637 232.407 389.674 232.502C389.736 232.634 389.748 232.691 389.783 232.797C390.051 233.583 390.012 234.135 390.005 234.693C389.883 235.745 389.581 236.588 389.243 237.391C388.896 238.181 388.502 238.929 388.012 239.604C386.881 241.234 385.922 242.994 384.683 244.559C383.307 246.263 381.818 247.868 379.948 249.226C379.646 249.432 379.365 249.642 379.024 249.819C378.625 250.073 378.153 250.247 377.707 250.404C376.807 250.695 375.849 250.656 375.074 250.169C373.851 249.444 373.557 247.863 373.793 246.504C374.027 245.264 374.415 244.372 374.851 243.401C375.532 241.95 376.206 240.531 377.18 239.212C377.389 238.922 377.588 238.62 377.886 238.38C378.393 237.905 378.901 237.771 379.262 237.719C379.632 237.679 379.914 237.754 380.184 237.948C380.31 238.038 380.439 238.106 380.531 238.2C380.812 238.517 380.6 239.058 380.304 239.869C380.079 240.474 379.784 240.988 379.466 241.51C379.159 242.033 378.86 242.569 378.58 243.119C378.025 244.199 377.508 245.363 377.263 246.37L377.179 246.815L377.158 246.811C377.158 246.811 377.133 246.828 377.129 246.849C377.121 246.892 377.155 246.942 377.212 246.931L377.24 247.013L377.236 246.979Z" fill="#F2F2F2"/>
<path d="M363.844 288.651C360.929 287.068 358.239 285.22 355.671 283.253C354.743 282.529 353.764 281.85 352.878 281.079C349.742 278.346 346.938 275.248 344.465 271.906C343.373 270.427 342.3 268.907 341.396 267.309C340.835 266.271 340.218 265.243 339.851 264.11C339.496 262.967 339.293 261.777 339.199 260.596C339.14 259.861 339.312 259.937 339.73 260.455C340.101 260.986 340.933 261.868 341.717 262.883C342.427 263.774 342.849 264.787 343.512 265.691C344.114 266.628 344.806 267.494 345.445 268.405C346.748 270.22 348.181 271.983 349.662 273.723C351.451 275.806 353.709 277.616 355.911 279.371C358.333 281.299 360.875 283.119 363.568 284.659C365.22 285.609 366.923 286.468 368.666 287.116C369.478 287.402 370.295 287.666 371.102 287.808C371.513 287.896 371.903 287.926 372.29 287.966L372.842 287.95C373.017 287.95 373.101 287.911 373.236 287.893C373.566 287.835 373.84 287.601 373.994 287.312C374.055 287.159 374.113 287.028 374.139 286.835C374.177 286.634 374.179 286.393 374.178 286.162C374.092 284.182 373.111 282.12 372.227 280.121C372.026 279.677 371.789 279.248 371.6 278.795C370.927 277.077 371.084 276.361 371.908 275.661C372.092 275.498 372.268 275.323 372.455 275.205C373.075 274.828 373.987 275.286 374.743 276.449C375.804 278.208 376.603 280.191 377.214 282.414C377.506 283.533 377.743 284.719 377.737 286.144C377.734 286.506 377.706 286.885 377.639 287.3C377.565 287.692 377.401 288.264 377.193 288.729C376.99 289.218 376.669 289.64 376.331 290.037C375.946 290.392 375.541 290.732 375.042 290.934C374.85 291.018 374.668 291.115 374.469 291.177L373.351 291.404L372.51 291.442C371.973 291.439 371.488 291.392 371.016 291.335C370.091 291.182 369.219 290.973 368.405 290.698C366.773 290.159 365.278 289.481 363.824 288.757L363.861 288.676L363.844 288.651Z" fill="#F2F2F2"/>
<path d="M380.706 249.907C381.879 249.273 383.069 248.489 384.113 247.557C384.496 247.212 384.794 246.797 385.148 246.436C386.379 245.144 387.446 243.623 387.757 241.981C387.825 241.621 387.83 241.249 387.775 240.898C387.76 240.632 387.567 240.201 387.43 239.824L386.846 238.331C386.661 237.857 386.45 237.29 386.282 236.962C386.284 236.952 386.277 236.928 386.27 236.905C386.274 236.884 386.319 236.882 386.333 236.862C386.363 236.824 386.349 236.778 386.359 236.725C386.359 236.67 386.348 236.613 386.402 236.557C386.457 236.502 386.562 236.467 386.682 236.468C387.173 236.484 387.883 236.793 388.33 237.328C388.711 237.806 389.091 238.295 389.398 238.814C389.534 239.081 389.67 239.348 389.79 239.645C389.859 239.801 389.911 239.931 390.001 240.211L390.114 240.77C390.36 242.254 390.014 243.681 389.372 244.81C388.631 246.173 387.903 247.528 386.941 248.673C385.871 249.919 384.645 251.004 383.317 251.937C382.485 252.504 381.592 252.993 380.636 253.405C380.245 253.561 379.937 253.679 379.42 253.8C378.914 253.924 378.401 253.97 377.906 253.92C376.906 253.808 376.093 253.061 375.712 252.177C375.406 251.472 375.381 250.677 375.563 249.889C375.601 249.688 375.671 249.492 375.741 249.297C375.794 249.132 375.856 248.979 375.929 248.828C376.063 248.524 376.237 248.239 376.408 247.975C376.562 247.741 376.708 247.494 376.9 247.289C377.655 246.543 378.167 246.563 378.726 247.031C378.858 247.144 378.993 247.246 379.091 247.364C379.417 247.787 379.416 248.314 379.223 248.87C379.069 249.279 378.88 249.639 378.757 249.999C378.629 250.326 378.531 250.79 378.602 250.705C378.676 250.774 378.718 250.727 378.718 250.727C378.718 250.727 378.718 250.727 378.716 250.738C378.716 250.738 378.716 250.738 378.714 250.748C378.678 250.764 378.889 250.694 378.992 250.669C379.521 250.484 380.102 250.199 380.671 249.857L380.714 249.92L380.706 249.907Z" fill="#F2F2F2"/>
<path d="M382.372 255.204C382.372 255.204 382.404 255.21 382.425 255.214C382.471 255.2 382.417 255.256 382.591 255.146C382.85 254.998 383.112 254.828 383.375 254.658C383.891 254.306 384.418 253.901 384.906 253.467C385.273 253.152 385.554 252.766 385.914 252.429C387.112 251.262 388.49 250.008 389.275 248.698C389.546 248.31 389.521 247.515 389.427 246.85C389.323 245.953 388.897 245.071 388.872 244.277C388.921 244.132 388.879 243.773 389.422 243.689C389.68 243.661 390.042 243.719 390.4 243.853C390.585 243.92 390.768 243.999 390.921 244.116C391.053 244.229 391.18 244.373 391.26 244.531C391.838 245.65 392.256 246.804 392.15 248.232C392.128 248.579 392.077 248.965 391.911 249.438C391.763 249.816 391.609 250.105 391.449 250.371C391.129 250.903 390.768 251.361 390.392 251.784C389.498 252.799 388.746 253.93 387.786 254.889C386.731 255.941 385.595 256.9 384.284 257.738C383.169 258.47 381.946 258.963 380.88 258.97C380.473 258.981 380.07 258.904 379.69 258.767C379.316 258.597 378.978 258.358 378.706 258.054C378.151 257.389 378.134 256.552 378.321 255.798C378.477 255.202 378.704 254.586 379.035 253.936C379.216 253.619 379.42 253.295 379.645 252.976C379.859 252.654 379.955 252.497 380.13 252.267C380.265 252.073 380.399 251.89 380.562 251.723C381.284 251.212 381.656 251.217 382.211 251.531C382.341 251.599 382.462 251.655 382.57 251.719C382.905 251.925 382.989 252.523 382.824 253.161C382.728 253.669 382.551 254.085 382.347 254.464C382.053 254.979 382.212 254.888 382.211 254.954C382.275 255.021 382.325 254.986 382.325 254.986C382.315 254.984 382.259 255.105 382.356 255.113L382.374 255.193L382.372 255.204Z" fill="#F2F2F2"/>
<path d="M373.946 242.079C373.946 242.079 373.967 242.084 373.99 242.077C374.064 242.036 374.161 241.988 374.251 241.918C374.429 241.787 374.614 241.679 374.797 241.527C375.168 241.246 375.528 240.909 375.878 240.569C376.591 239.87 377.259 239.064 377.889 238.228C378.346 237.613 378.707 236.924 379.125 236.279C379.857 235.134 380.564 233.951 381.135 232.731C381.426 232.117 381.686 231.497 381.9 230.89C382.12 230.306 382.307 229.607 382.295 229.209C382.326 228.985 382.09 228.611 381.678 228.292C381.265 227.983 380.742 227.731 380.213 227.51C378.802 226.968 377.26 226.765 375.776 226.144C375.323 225.926 375.349 225.789 375.811 225.437C376.272 225.031 377.17 224.575 378.177 224.645C379.07 224.682 379.928 224.899 380.825 225.146C381.716 225.424 382.618 225.759 383.554 226.496C384.014 226.847 384.498 227.421 384.806 228.17C385.093 229.091 385.008 229.657 384.954 230.173C384.813 231.211 384.519 232.066 384.134 232.882C383.231 234.817 382.429 236.794 381.318 238.603C380.079 240.574 378.68 242.459 376.806 244.069C376.509 244.309 376.211 244.549 375.862 244.768C375.646 244.925 375.423 245.058 375.194 245.168C374.963 245.289 374.742 245.412 374.497 245.486C373.56 245.858 372.575 245.902 371.714 245.585C371.546 245.542 371.399 245.449 371.24 245.364C371.078 245.289 370.944 245.187 370.812 245.074C370.562 244.83 370.39 244.523 370.287 244.196C370.081 243.543 370.097 242.822 370.235 242.091C370.304 241.73 370.372 241.37 370.495 241.01C370.591 240.677 370.675 240.462 370.772 240.184C370.959 239.66 371.163 239.161 371.375 238.675C372.017 237.139 372.58 235.611 373.324 234.117C373.485 233.785 373.626 233.45 373.827 233.137C374.553 231.969 375.083 231.718 375.958 232.081C376.162 232.163 376.368 232.235 376.545 232.345C377.128 232.741 377.26 233.435 376.926 234.272C376.426 235.527 375.874 236.816 375.325 238.094C374.789 239.364 374.223 240.673 373.878 241.858C373.866 241.922 373.842 241.873 373.83 241.937C373.822 241.979 373.859 242.019 373.926 242.01L373.967 242.084L373.946 242.079Z" fill="#F2F2F2"/>
<path d="M207.552 122.695L205.876 123.376L204.235 124.163C203.13 124.667 202.082 125.281 201.005 125.867C200.223 126.29 199.525 126.849 198.747 127.305C196.084 128.974 193.462 130.771 191.007 132.786C189.916 133.677 188.859 134.629 187.826 135.563L185.862 137.419C185.226 138.056 184.515 138.623 183.787 139.166C183.328 139.507 183.232 139.313 183.377 138.781C183.45 138.51 183.571 138.16 183.736 137.752C183.903 137.334 184.15 136.898 184.497 136.513C185.747 135.126 187.014 133.764 188.367 132.473C189.047 131.834 189.775 131.236 190.5 130.649C191.217 130.05 191.972 129.479 192.745 128.934C193.66 128.274 194.562 127.566 195.493 126.876C196.397 126.158 197.339 125.47 198.305 124.83C200.409 123.395 202.633 122.137 204.902 120.987C206.322 120.323 207.745 119.648 209.228 119.117C211.445 118.242 213.773 117.651 216.057 117.063C216.958 116.882 217.854 116.668 218.742 116.441C219.636 116.237 220.538 116.111 221.458 115.945C221.854 115.878 222.255 115.789 222.661 115.789C224.185 115.737 224.676 115.929 224.967 116.708C225.032 116.885 225.119 117.066 225.15 117.247C225.256 117.849 224.656 118.35 223.624 118.527C220.585 119.05 217.465 119.48 214.376 120.377C213.23 120.697 212.085 121.062 210.948 121.45C209.832 121.898 208.677 122.261 207.57 122.775L207.538 122.714L207.552 122.695Z" fill="black"/>
<path d="M147.751 101.576C147.564 101.409 147.74 101.113 148.056 100.778C148.163 100.677 148.533 100.517 148.627 100.546C148.801 100.612 148.987 100.669 149.147 100.754C149.213 100.81 150.301 101.729 150.586 102.079C150.91 102.393 151.149 102.756 151.366 103.116L152.749 105.319C152.85 105.481 152.913 105.669 152.942 105.861C153.045 106.538 153.328 107.129 153.695 107.682C153.755 107.77 153.788 107.886 153.945 107.926C154.218 107.989 155.04 109.56 154.999 109.837C155.012 110.465 155.119 111.056 155.191 111.662C155.196 111.751 155.273 111.809 155.183 111.935C154.96 112.244 155.065 112.385 155.109 112.557C155.173 112.8 155.212 113.06 155.217 113.324C155.214 113.455 155.112 113.644 155.046 113.818C154.985 113.971 154.574 114.113 154.51 114.101C154.341 114.069 154.199 114.239 154.039 114.33C153.989 114.364 153.915 114.405 153.869 114.418C153.787 114.447 152.361 113.573 152.264 113.446C152.256 113.433 151.955 112.992 151.627 112.524C151.307 112.068 150.959 111.586 150.878 111.494C150.786 111.399 150.804 111.249 150.783 111.125C150.762 111.066 149.855 109.654 149.833 109.595C149.732 109.258 149.474 109.001 149.602 108.553C149.618 108.468 149.586 108.407 149.554 108.346C149.269 107.821 149.128 107.234 148.986 106.648C148.911 106.349 148.765 106.08 148.654 105.795C148.63 105.747 148.655 105.675 148.643 105.618C148.636 105.54 148.65 105.466 148.618 105.405C148.326 104.746 148.189 104.018 147.823 103.4C147.729 103.261 147.703 102.412 147.65 102.226C147.615 102.121 147.826 101.645 147.749 101.587L147.751 101.576Z" fill="#F2F2F2"/>
<path d="M133.707 127.323C133.457 127.43 133.282 127.133 133.144 126.646C133.096 126.495 133.148 126.044 133.226 125.982C133.37 125.855 133.513 125.74 133.652 125.645C133.736 125.606 135.031 125.314 135.458 125.142C135.882 124.992 136.291 124.916 136.697 124.861C137.532 124.734 138.357 124.55 139.181 124.486C139.361 124.465 139.545 124.478 139.733 124.525C140.374 124.679 141.011 124.613 141.625 124.444C141.728 124.419 141.838 124.418 141.919 124.28C142.065 124.088 143.727 123.711 143.963 123.8C144.548 123.954 145.122 123.997 145.71 124.076C145.795 124.092 145.862 124.027 145.971 124.147C146.213 124.434 146.362 124.342 146.54 124.331C146.785 124.312 147.028 124.303 147.293 124.353C147.42 124.377 147.588 124.53 147.744 124.636C147.878 124.738 147.953 125.213 147.93 125.275C147.864 125.449 148.002 125.65 148.065 125.838C148.085 125.907 148.113 125.989 148.126 126.036C148.159 126.152 146.933 127.357 146.762 127.391C146.726 127.406 144.685 128.161 144.413 128.263C144.293 128.317 144.151 128.257 144.015 128.22C143.96 128.221 142.25 128.676 142.176 128.662C141.815 128.66 141.459 128.801 141.069 128.541C140.991 128.493 140.921 128.513 140.853 128.522C140.235 128.602 139.604 128.516 138.979 128.453C138.658 128.414 138.35 128.476 138.028 128.437C137.975 128.427 137.917 128.383 137.856 128.361C137.784 128.336 137.715 128.29 137.639 128.287C136.89 128.244 136.15 128.038 135.406 128.029C135.23 128.029 134.436 127.648 134.248 127.656C134.138 127.657 133.806 127.265 133.711 127.302L133.707 127.323Z" fill="#F2F2F2"/>
<path d="M337.812 58.8286C337.812 58.8286 337.844 55 340.298 55C342.752 55 341.313 59.918 337.812 58.8286Z" fill="#F2F2F2"/>
<path d="M370.455 88.3304C370.085 89.4726 369.207 90.2553 368.35 90.636C368.033 90.7841 367.737 90.9533 367.398 91.0168C366.235 91.2283 364.976 90.9321 364.13 90.1283C363.739 89.7899 363.443 89.3668 363.284 88.9015C363.051 88.3409 362.998 87.516 363.548 87.0189C363.718 86.8708 363.919 87.1141 364.141 87.3679C364.352 87.6429 364.701 87.8438 364.775 87.9179C364.892 88.0871 365.124 88.2352 365.262 88.3621C365.357 88.4996 365.505 88.6582 365.738 88.838C366.044 89.0601 366.489 88.8803 366.838 88.7428C367.24 88.5842 367.578 88.3409 367.758 88.0131C367.874 87.8227 367.938 87.59 367.916 87.3256C367.885 86.9449 367.715 86.4795 367.356 86.2151C367.081 85.993 366.658 86.0459 366.415 86.1305C366.362 86.1411 366.309 86.1834 366.267 86.1622C366.192 86.1622 366.15 86.0987 366.097 85.9401C366.066 85.7815 366.002 85.5276 365.917 85.1257L365.801 84.6815C365.748 84.4383 365.738 84.2162 365.801 83.9623C365.865 83.7191 366.023 83.3912 366.267 83.3383C366.616 83.1902 367.017 83.1162 367.409 83.1162C367.79 83.1585 368.16 83.2854 368.488 83.4547C369.154 83.8037 369.683 84.3431 370.063 84.9882C370.624 85.9295 370.846 87.1775 370.508 88.3409H370.444L370.455 88.3304Z" fill="#F2F2F2"/>
<path d="M314.92 81.947C314.179 82.8672 313.037 83.4489 311.81 83.3749C311.387 83.3431 310.954 83.3114 310.594 83.1316C309.314 82.5182 308.606 81.1009 308.785 79.8212C308.902 79.2712 309.103 78.7953 309.388 78.3934C309.737 77.8751 310.308 77.4415 310.954 77.4415C311.155 77.4415 311.165 77.6848 311.133 77.9809C311.091 78.277 311.102 78.6684 311.038 78.8376C310.901 79.1443 310.89 79.4722 310.932 79.6943C311.017 79.927 310.932 79.9798 310.932 80.2337C310.932 80.551 311.355 80.6779 311.588 80.7731C311.853 80.8894 312.17 80.8894 312.519 80.6462C312.72 80.4981 312.9 80.2971 312.963 80.0644C313.016 79.8847 313.048 79.726 313.037 79.5568C313.016 79.377 312.91 79.1866 312.752 79.0385C312.498 78.8059 312.106 78.8059 311.895 78.8799C311.842 78.8905 311.81 78.9328 311.779 78.9434C311.662 78.9751 311.599 78.8482 311.207 78.4145L310.932 78.129C310.636 77.8328 310.552 77.3463 311.006 77.0079C311.673 76.5214 312.593 76.4473 313.333 76.6906C314.095 76.9233 314.782 77.4204 315.258 78.1924C315.607 78.7424 315.829 79.5885 315.692 80.2337C315.597 80.9 315.322 81.4923 314.962 81.9893L314.909 81.9576L314.92 81.947Z" fill="#F2F2F2"/>
<path d="M451.892 73.5124C451.223 73.675 450.515 73.9907 449.979 74.4976C449.779 74.6794 449.664 74.9185 449.52 75.0907C448.994 75.7602 448.631 76.7932 448.554 77.8454C448.497 78.3141 448.573 78.7923 448.698 79.2323C448.774 79.5097 448.851 79.7966 448.927 80.074C449.032 80.3323 448.965 80.6862 449.013 81.0114C449.013 81.2314 448.841 81.3653 448.459 81.4131C448.267 81.4323 448.009 81.4323 447.732 81.3844C447.598 81.3557 447.454 81.327 447.32 81.2696C447.244 81.241 447.177 81.2123 447.11 81.1836C447.072 81.1357 447.024 81.0975 446.986 81.0497C446.727 80.6957 446.488 80.3227 446.335 79.921C446.211 79.5192 446.144 79.108 446.106 78.6871C446.01 77.8645 446.172 77.0323 446.469 76.2576C446.823 75.3489 447.062 74.3254 447.741 73.4646C448.478 72.6037 449.348 71.9725 450.324 71.5229C450.917 71.236 451.558 71.0638 452.208 70.9586C453.193 70.796 454.198 70.9203 455.135 71.1307C455.498 71.2264 455.871 71.2838 456.225 71.389C456.598 71.4751 456.952 71.5899 457.297 71.7429C457.45 71.8099 457.622 71.8385 457.746 71.9533C458.215 72.3455 458.253 72.6133 457.985 73.1394C457.928 73.2637 457.871 73.3785 457.804 73.4933C457.574 73.8568 457.163 74.0289 456.751 74.0002C456.13 73.9811 455.661 73.8089 455.173 73.7229C454.704 73.6176 454.274 73.522 453.844 73.4455C453.212 73.3594 452.552 73.3594 451.892 73.5698L451.873 73.5124H451.892Z" fill="#F2F2F2"/>
<path d="M437.862 86.3394C437.451 85.5838 437.154 84.7134 437.202 83.8525C437.164 83.4126 437.298 83.03 437.355 82.6282C437.441 82.2361 437.604 81.8917 437.738 81.5282C437.967 80.983 438.264 80.4283 438.666 80.0265C440.043 78.5631 442.08 77.8648 444.003 78.1709C444.845 78.3335 445.667 78.6014 446.356 79.0796C446.777 79.3953 447.217 79.7013 447.542 80.1031C447.877 80.5048 448.068 80.9926 448.24 81.4613C448.345 81.7578 448.154 81.8248 447.781 81.7769C447.408 81.7387 446.844 81.6048 446.365 81.4326C446.174 81.3369 446.05 81.1648 445.868 81.0787L445.371 80.7822C445.026 80.6291 444.701 80.5048 444.395 80.3709C443.754 80.1318 443.056 80.0457 442.281 80.1509C441.363 80.3039 440.492 80.9735 439.947 81.7195C439.651 82.0926 439.44 82.6187 439.297 83.1352C439.249 83.3934 439.172 83.6517 439.192 83.9004C439.163 84.1586 439.22 84.3978 439.278 84.6464C439.45 85.2395 439.842 85.8038 440.378 86.2725C441.21 86.9707 442.272 87.4968 443.391 87.8125C444.261 88.0612 445.16 88.0994 446.05 88.1855C446.241 88.2142 446.442 88.2142 446.633 88.2524C447.36 88.3481 447.571 88.6542 447.704 88.989C447.733 89.075 447.781 89.1516 447.8 89.2281C447.858 89.4672 447.532 89.6872 446.93 89.8976C446.49 89.9646 446.05 90.022 445.591 90.0507C445.141 90.0315 444.691 90.0028 444.232 89.9263C443.324 89.802 442.405 89.5437 441.497 89.1898C440.167 88.6446 438.78 87.8316 437.805 86.3681L437.843 86.3394H437.862Z" fill="#F2F2F2"/>
<path d="M438.303 85.2108C438.581 85.9473 439.26 86.6743 440.197 87.1621C441.125 87.6595 442.292 87.9847 443.526 88.1568C444.425 88.2812 445.362 88.2621 446.3 88.3003C449.638 88.4247 453.12 88.2429 456.63 88.1664C458.189 88.1282 459.767 88.0995 461.336 88.1951C462.35 88.2621 463.373 88.3577 464.387 88.5873C465.392 88.8647 466.377 89.3525 467.161 90.0603C467.649 90.5098 467.467 90.5768 466.874 90.5959C466.587 90.5959 466.166 90.6438 465.707 90.7203C465.248 90.7872 464.76 90.8159 464.234 90.8159C462.455 90.5768 460.552 90.6342 458.629 90.7585C456.697 90.7872 454.707 90.8829 452.68 90.8924C450.26 90.902 447.725 91.275 445.142 91.1794C443.727 91.122 442.273 90.9594 440.829 90.5577C439.394 90.1559 437.902 89.4864 436.764 88.2908C436.056 87.5925 435.501 86.6551 435.224 85.6699C434.937 84.6848 434.946 83.6517 435.137 82.6952C435.74 79.7875 438.15 77.4536 441.039 76.9849C443.277 76.5927 445.515 77.3006 447.304 78.4484C447.706 78.6971 448.098 78.9457 448.452 79.2423C449.753 80.3901 449.858 81.0309 449.514 81.7674C449.447 81.93 449.408 82.0926 449.342 82.2074C449.169 82.5422 448.194 82.5135 447.323 81.8918C446.654 81.4422 446.003 81.0213 445.343 80.6483C444.674 80.304 444.014 80.0266 443.363 79.864C442.063 79.5388 440.857 79.7301 439.853 80.4475C439.136 80.9927 438.562 81.8057 438.294 82.6857C438.026 83.5656 438.064 84.4456 438.37 85.163L438.303 85.2013V85.2108Z" fill="#F2F2F2"/>
<path d="M455.205 73.427C454.21 72.7384 452.967 72.4227 451.724 72.5853C451.274 72.6523 450.844 72.834 450.432 73.0157C448.931 73.5992 447.687 74.967 447.553 76.66C447.467 77.4061 447.658 78.1809 448.003 78.8887C448.481 79.7973 449.131 80.5625 449.552 81.7103C449.696 82.0643 449.552 82.1599 449.112 82.179C448.892 82.1886 448.577 82.179 448.204 82.1599C448.022 82.1408 447.821 82.1121 447.639 82.0547C447.467 81.9782 447.305 81.8825 447.151 81.7677C446.912 81.5286 446.625 81.3182 446.425 81.0312C446.233 80.7347 446.032 80.4573 445.87 80.1321C445.535 79.5008 445.277 78.8026 445.133 78.0661C444.818 76.5835 445.2 74.9288 446.052 73.714C447.046 72.2601 448.376 71.0167 450.011 70.4332C451.791 69.7923 453.78 69.8784 455.473 70.5862C456.516 71.0262 457.424 71.6766 458.209 72.4418C459.423 73.6375 460.112 75.3496 460.189 77.0139C460.275 78.3052 460.16 79.5965 459.787 80.8112C459.701 81.0695 459.663 81.3564 459.5 81.586C459.366 81.806 459.242 81.9782 459.127 82.1216C459.003 82.2556 458.849 82.3225 458.725 82.3799C458.476 82.4947 458.199 82.4755 457.893 82.4086C457.759 82.3799 457.635 82.3703 457.539 82.3321C457.252 82.2556 456.975 81.6147 457.013 80.926C457.061 79.9121 457.367 79.1087 457.434 78.2861C457.52 77.4826 457.501 76.7365 457.3 76.067C457.023 75.0818 456.286 74.1636 455.215 73.494L455.243 73.4366L455.205 73.427Z" fill="#F2F2F2"/>
<path d="M463.675 75.9991C464.345 76.0852 465.005 76.2478 465.569 76.5252C466.143 76.7643 466.698 77.0991 467.205 77.4817C467.386 77.6347 467.568 77.7686 467.759 77.9025C467.932 78.0556 468.094 78.2277 468.247 78.4095C468.754 79.0599 469.127 79.8155 469.29 80.5903C469.405 80.9729 469.414 81.3746 469.443 81.7572C469.414 82.1494 469.395 82.532 469.299 82.9146C469.166 83.5746 468.936 84.225 468.592 84.7989C468.343 85.1528 468.037 85.4685 467.693 85.7171C467.501 85.8224 467.291 85.8893 467.1 85.9563C466.889 86.0041 466.679 86.0232 466.478 86.0519C466.229 86.0711 466.248 86.0041 466.344 85.7554C466.392 85.6311 466.449 85.4589 466.497 85.2676C466.554 85.0859 466.564 84.818 466.612 84.6459C466.726 84.3589 466.832 84.1198 466.86 83.8424C466.937 83.6033 467.013 83.3833 467.061 83.1442C467.176 82.6659 467.176 82.1685 467.186 81.6138C467.186 80.9251 466.698 80.3512 466.21 79.9016C465.684 79.3755 464.909 79.0025 464.125 78.8016C463.647 78.6964 463.14 78.6773 462.652 78.7729C461.906 78.8877 461.131 79.2034 460.528 79.7581C460.069 80.1981 459.782 80.7816 459.486 81.3364C459.419 81.4512 459.381 81.5946 459.304 81.7094C458.941 82.1016 458.692 82.1685 458.156 82.0537C458.032 82.0251 457.908 82.0155 457.802 81.9772C457.429 81.872 457.219 81.5085 457.19 80.9538C457.171 80.5425 457.257 80.1599 457.391 79.7868C457.515 79.4042 457.688 79.0408 457.888 78.6773C458.328 77.9695 458.988 77.3765 459.734 76.8886C460.299 76.5347 460.921 76.2287 461.6 76.066C462.279 75.9226 462.977 75.8556 463.666 75.9226V75.9895L463.675 75.9991Z" fill="#F2F2F2"/>
<path d="M109.46 188.29C110.541 189.667 110.904 191.083 111.086 192.508C111.115 193.034 111.229 193.551 111.162 194.086C111.095 195.014 110.809 195.942 110.378 196.784C109.938 197.635 109.269 198.333 108.522 198.869C108.188 199.108 107.824 199.29 107.48 199.481C107.116 199.643 106.734 199.739 106.37 199.873C105.902 200.016 105.414 200.074 104.936 200.15C104.696 200.189 104.457 200.15 104.209 200.103C103.97 200.074 103.73 200.007 103.501 199.892C103.214 199.749 103.262 199.701 103.491 199.443C103.73 199.165 104.113 198.62 104.563 198.477L105.691 198.056C106.007 197.845 106.38 197.73 106.638 197.501C107.289 197.224 107.776 196.784 108.264 196.257C108.838 195.588 108.924 194.555 108.895 193.608C108.867 192.546 108.589 191.427 108.073 190.528C107.776 190.021 107.298 189.524 106.734 189.103C105.911 188.472 104.926 187.974 103.95 187.974C103.185 187.945 102.516 188.261 101.923 188.692C101.779 188.758 101.674 188.902 101.54 188.998C101.033 189.361 100.813 189.466 100.383 189.285C100.287 189.246 100.182 189.227 100.096 189.179C99.7992 189.036 99.7896 188.634 100.077 188.07C100.536 187.266 101.272 186.472 102.324 186.023C102.841 185.793 103.415 185.64 103.979 185.612C104.553 185.612 105.117 185.679 105.643 185.832C107.222 186.281 108.446 187.123 109.517 188.242L109.479 188.29H109.46Z" fill="#F2F2F2"/>
<path d="M94.045 197.999C97.211 198.181 100.406 198.219 103.553 198.018C104.7 197.942 105.829 197.76 106.919 197.597C107.398 197.521 107.866 197.425 108.297 197.31C108.507 197.253 108.708 197.186 108.852 197.119C108.966 197.081 108.995 197.043 109.072 196.995L109.349 196.526C109.473 196.344 109.559 196.144 109.636 195.933C109.712 195.723 109.818 195.531 109.875 195.311L110.038 194.661C110.411 192.911 110.038 190.959 109.005 189.429C108.526 188.769 107.924 188.214 107.235 187.822C106.527 187.468 105.762 187.353 104.997 187.372C103.973 187.43 103.103 187.918 102.414 188.673C102.06 189.046 101.802 189.496 101.544 189.945C101.286 190.405 101.085 190.911 100.989 191.457C100.894 192.126 100.779 192.107 100.492 191.466C100.358 191.151 100.224 190.663 100.186 190.022C100.176 189.706 100.167 189.343 100.253 188.989C100.348 188.635 100.501 188.262 100.721 187.918C101.104 187.305 101.611 186.741 102.223 186.282C102.826 185.823 103.6 185.488 104.337 185.354C105.839 184.972 107.513 185.383 108.756 186.186C111.291 187.851 112.496 190.749 112.429 193.523C112.4 193.944 112.352 194.355 112.314 194.776C112.228 195.187 112.132 195.598 112.027 196.01L111.578 197.196L111.272 197.76L111.119 198.047C111.042 198.162 111.004 198.286 110.889 198.41C110.535 198.917 109.885 199.214 109.502 199.386C109.091 199.549 108.689 199.663 108.297 199.769C107.513 199.96 106.757 200.084 105.992 200.19C102.663 200.582 99.3918 200.62 96.111 200.553C94.0928 200.505 92.0746 200.39 90.0564 200.19C88.526 200.027 87.0051 199.845 85.4556 199.453C85.0634 199.357 84.6808 199.243 84.2695 199.07C84.0782 199.003 83.8487 198.87 83.6478 198.755C83.4278 198.611 83.2461 198.439 83.0835 198.267C82.4618 197.559 82.1174 196.708 82.0218 195.809C81.8687 194.393 82.5383 192.949 83.533 192.078C84.0017 191.6 84.7191 191.198 85.4078 191.045C86.106 190.873 86.833 190.873 87.5312 191.017C88.1434 191.131 88.7268 191.371 89.2529 191.705C90.2094 192.394 90.5825 193.102 90.7642 193.571C90.9268 194.068 90.879 194.403 90.7068 194.699C90.6399 194.833 90.5729 194.986 90.4964 195.072C90.1999 195.369 89.6738 194.709 88.8129 194.011C88.1529 193.523 87.426 193.217 86.7086 193.188C86.3547 193.178 86.0104 193.226 85.7234 193.341C85.58 193.398 85.4556 193.465 85.3504 193.542L85.1974 193.676L84.9965 193.877C84.4704 194.431 84.2791 194.977 84.3365 195.551C84.3652 196.124 84.8243 196.784 85.0634 196.813C85.5034 197.004 86.2782 197.177 87.0051 197.301C87.7512 197.425 88.526 197.521 89.3007 197.607C90.8598 197.77 92.4572 197.846 94.0546 197.923V197.99L94.045 197.999Z" fill="#F2F2F2"/>
<path d="M90.9068 187.018C91.7868 186.177 92.9155 185.507 94.1589 185.22L94.8381 185.058C95.0676 185.029 95.2972 185 95.5267 185C96.2632 185.029 96.8945 185.125 97.6119 185.278C98.3102 185.421 99.0275 185.689 99.678 186.119C100.242 186.502 100.807 186.971 101.151 187.554C101.581 188.3 101.83 189.123 101.572 189.917C101.505 190.165 101.342 190.137 101.055 190.003C100.864 189.907 100.673 189.802 100.52 189.725C100.309 189.62 100.099 189.515 100.013 189.371C99.6397 188.855 99.2093 188.654 98.9415 188.396C98.6354 188.147 98.2049 187.985 97.6502 187.707C97.3154 187.545 96.9232 187.497 96.5119 187.487C96.3111 187.487 96.1006 187.487 95.8807 187.487C95.6702 187.487 95.5363 187.525 95.3641 187.516C94.6468 187.564 93.9007 187.851 93.2503 188.367C92.8677 188.702 92.4755 189.056 92.179 189.505C91.7199 190.165 91.3086 190.921 91.1651 191.734C91.0408 192.365 91.1842 193.006 91.3086 193.59C91.3468 193.714 91.4042 193.838 91.4329 193.963C91.4903 194.431 91.3086 194.632 90.8303 194.91C90.7155 194.977 90.6199 195.044 90.5147 195.101C90.1799 195.273 89.7399 195.168 89.3764 194.728C88.5252 193.379 88.573 191.619 89.013 190.079C89.3382 188.912 90.0077 187.86 90.8781 186.961L90.926 186.999L90.9068 187.018Z" fill="#F2F2F2"/>
</g>
<rect x="0.5" y="0.5" width="523" height="351" rx="3.01794" stroke="#2E2E2E"/>
<defs>
<clipPath id="clip0_3351_41063">
<rect width="524" height="352" rx="3.51794" fill="white"/>
</clipPath>
</defs>
</svg>
