
<svg width="24" height="25" viewBox="0 0 24 25" id="img" fill="none" stroke="currentColor" xmlns="http://www.w3.org/2000/svg">
<path d="M14 5.2406H21.4C21.7314 5.2406 22 5.50923 22 5.8406V18.6406C22 18.972 21.7314 19.2406 21.4 19.2406H14M14 5.2406V19.2406M14 5.2406H10M14 19.2406H10M10 19.2406H2.6C2.26863 19.2406 2 18.972 2 18.6406V5.8406C2 5.50923 2.26863 5.2406 2.6 5.2406H10M10 19.2406V5.2406"  stroke-width="1.5" stroke-linecap="round" stroke-linejoin="round"/>
<path d="M7 10.0893C7 9.67517 6.58681 9.39085 6.25061 9.63259C5.49323 10.1771 5 11.066 5 12.07C5 13.074 5.49323 13.9629 6.25061 14.5074C6.58681 14.7491 7 14.4649 7 14.0508C7 12.7968 7 11.6174 7 10.0893Z" fill="currentColor"/>
<path d="M17 10.0893C17 9.67517 17.4132 9.39085 17.7494 9.63259C18.5068 10.1771 19 11.066 19 12.07C19 13.074 18.5068 13.9629 17.7494 14.5074C17.4132 14.7491 17 14.4649 17 14.0508C17 12.7968 17 11.6174 17 10.0893Z" fill="currentColor"/>
</svg>
