
<svg width="24" height="25" viewBox="0 0 24 25" id="img" fill="none" stroke="currentColor" xmlns="http://www.w3.org/2000/svg">

<path d="M14 14.2406V6.2406M14 14.2406L20.1023 17.7276C20.5023 17.9562 21 17.6674 21 17.2067V3.27451C21 2.81381 20.5023 2.52499 20.1023 2.75356L14 6.2406M14 14.2406H7C4.79086 14.2406 3 12.4497 3 10.2406V10.2406C3 8.03146 4.79086 6.2406 7 6.2406H14"  stroke-width="1.5"/>
<path d="M7.75716 19.5407L7 14.2406H11L11.6772 18.9807C11.8476 20.1735 10.922 21.2406 9.71716 21.2406C8.73186 21.2406 7.8965 20.5161 7.75716 19.5407Z" fill="currentColor"   stroke-width="1.5"/>
</svg>

