<svg width="480" height="323" viewBox="0 0 480 323" fill="none" xmlns="http://www.w3.org/2000/svg">
<g clip-path="url(#clip0_3374_51759)">
<rect width="480" height="322.443" rx="3.66412" fill="#232323"/>
<line x1="527.633" y1="88.2824" x2="-23.8176" y2="88.2824" stroke="#2E2E2E" strokeWidth="0.687023"/>
<line x1="527.633" y1="161.565" x2="-23.8176" y2="161.565" stroke="#2E2E2E" strokeWidth="0.687023"/>
<line x1="527.633" y1="216.527" x2="-23.8176" y2="216.527" stroke="#2E2E2E" strokeWidth="0.687023"/>
<line x1="527.633" y1="289.809" x2="-23.8176" y2="289.809" stroke="#2E2E2E" strokeWidth="0.687023"/>
<line x1="527.633" y1="15" x2="-23.8176" y2="15" stroke="#2E2E2E" strokeWidth="0.687023"/>
<line x1="527.633" y1="51.6412" x2="-23.8176" y2="51.6412" stroke="#2E2E2E" strokeWidth="0.687023"/>
<line x1="527.633" y1="124.924" x2="-23.8176" y2="124.924" stroke="#2E2E2E" strokeWidth="0.687023"/>
<line x1="527.633" y1="179.886" x2="-23.8176" y2="179.886" stroke="#2E2E2E" strokeWidth="0.687023"/>
<line x1="527.633" y1="234.847" x2="-23.8176" y2="234.847" stroke="#2E2E2E" strokeWidth="0.687023"/>
<line x1="527.633" y1="69.9618" x2="-23.8176" y2="69.9618" stroke="#2E2E2E" strokeWidth="0.687023"/>
<line x1="527.633" y1="143.244" x2="-23.8176" y2="143.244" stroke="#2E2E2E" strokeWidth="0.687023"/>
<line x1="527.633" y1="198.206" x2="-23.8176" y2="198.206" stroke="#2E2E2E" strokeWidth="0.687023"/>
<line x1="527.633" y1="253.168" x2="-23.8176" y2="253.168" stroke="#2E2E2E" strokeWidth="0.687023"/>
<line x1="527.633" y1="308.13" x2="-23.8176" y2="308.13" stroke="#2E2E2E" strokeWidth="0.687023"/>
<line x1="527.633" y1="33.3206" x2="-23.8176" y2="33.3206" stroke="#2E2E2E" strokeWidth="0.687023"/>
<line x1="527.633" y1="106.603" x2="-23.8176" y2="106.603" stroke="#2E2E2E" strokeWidth="0.687023"/>
<line x1="527.633" y1="271.489" x2="-23.8176" y2="271.489" stroke="#2E2E2E" strokeWidth="0.687023"/>
<rect x="245.591" y="62.7481" width="134.32" height="126.235" rx="1.57641" fill="#232323" stroke="#404040" strokeWidth="0.916031"/>
<rect x="250.739" y="67.8928" width="124.03" height="115.946" rx="1.57641" fill="#1C1C1C" stroke="#404040" strokeWidth="0.916031"/>
<path d="M278.05 138.545C277.722 138.629 274.171 140.462 275.323 141.497C277.497 143.44 282.546 145.273 282.546 145.273C282.546 145.273 279.021 142.199 278.835 141.118C278.648 140.031 278.05 138.545 278.05 138.545Z" fill="#EDEDED"/>
<path d="M346.485 142.231C347.353 141.942 351.251 142.952 350.633 143.608C349.012 145.332 343.062 148.49 343.062 148.49L346.285 145.306L346.478 142.238L346.485 142.231Z" fill="#EDEDED"/>
<path d="M278.826 138.243L278.665 135.477C278.646 135.142 278.601 134.808 278.588 134.473C278.53 133.29 278.511 132.106 278.517 130.923C278.517 130.395 278.498 129.868 278.485 129.347C278.479 128.678 278.517 128.002 278.594 127.34C278.62 127.134 278.659 127.16 278.723 127.34C278.787 127.513 278.903 127.841 278.961 128.221C279.006 128.562 279.07 128.896 279.109 129.237L279.173 130.254C279.212 130.929 279.244 131.611 279.257 132.293C279.257 133.11 279.36 133.959 279.418 134.795L279.624 137.554C279.669 138.12 279.72 138.68 279.817 139.227C279.958 140.057 280.164 140.88 280.55 141.6C280.846 142.166 281.29 142.61 281.733 143.009C281.83 143.099 281.939 143.17 282.042 143.247C282.428 143.537 282.537 143.652 282.531 143.922C282.531 143.987 282.531 144.051 282.531 144.109C282.505 144.296 282.222 144.353 281.811 144.173C281.212 143.903 280.64 143.479 280.248 142.919C279.842 142.372 279.534 141.748 279.328 141.105C279.019 140.153 278.91 139.182 278.807 138.243H278.826Z" fill="#EDEDED"/>
<path d="M315.476 107.354C299.743 102.073 317.425 95.1326 321.15 96.0653L316.589 94.6051L299.344 101.443L307.918 104.826L315.483 107.361L315.476 107.354Z" fill="#EDEDED"/>
<path d="M301.81 121.003C302.929 125.628 295.744 125.628 291.602 124.921L304.614 129.861L312.918 125.628L301.803 121.003H301.81Z" fill="#EDEDED"/>
<path d="M327.969 135.097C317.111 131.437 332.092 122.695 335.456 123.293L331.429 121.364L319.973 127.983L316.519 126.818L312.094 129.224L327.975 135.09L327.969 135.097Z" fill="#EDEDED"/>
<path d="M310.509 129.231C310.477 129.244 309.139 130.299 309.133 130.698L309.165 149.474L311.178 148.2L310.516 129.231H310.509Z" fill="#EDEDED"/>
<path d="M304.728 146.187C304.728 146.187 305.982 151.423 310.311 147.994C312.62 146.168 306.201 151.358 305.114 151.211C304.027 151.063 304.734 146.18 304.734 146.18L304.728 146.187Z" fill="#EDEDED"/>
<path d="M333.055 154.368C332.856 154.426 332.689 154.401 332.573 154.291C332.367 154.317 332.335 154.124 332.238 153.983C332.174 153.783 332.168 153.526 332.129 153.307C332.11 153.204 332.103 153.056 332.103 152.986L332.09 152.793L332.052 152.027C332.045 151.751 332 151.48 332 151.204C331.981 150.239 332 149.268 332.013 148.303C332.013 147.872 332.026 147.441 332.045 147.016C332.052 146.74 332.065 146.47 332.097 146.193C332.148 145.916 332.225 145.646 332.341 145.382C332.412 145.222 332.418 145.254 332.438 145.402C332.444 145.55 332.547 145.826 332.605 146.129C332.644 146.669 332.689 147.209 332.727 147.756C332.759 148.303 332.753 148.856 332.753 149.409C332.74 150.072 332.849 150.76 332.901 151.435L332.985 152.432L333.03 152.908L333.042 153.133C333.042 153.172 333.042 153.204 333.055 153.243C333.055 153.32 333.139 153.269 333.177 153.269C333.229 153.256 333.274 153.236 333.325 153.217L333.512 153.14L333.821 152.992C334.438 152.683 335.069 152.362 335.66 152.001C336.117 151.718 336.554 151.41 336.998 151.12C337.095 151.056 337.191 150.985 337.288 150.927C337.661 150.702 337.809 150.683 338.002 150.805C338.047 150.831 338.092 150.856 338.13 150.889C338.253 150.998 338.169 151.204 337.925 151.429C337.204 152.091 336.381 152.69 335.487 153.185C335.159 153.378 334.824 153.558 334.49 153.738L333.975 154.002L333.544 154.214C333.383 154.285 333.21 154.368 333.055 154.401V154.375V154.368Z" fill="#EDEDED"/>
<path d="M330.282 153.681C330.282 153.681 330.314 153.681 330.327 153.674C330.34 153.668 330.353 153.674 330.391 153.552C330.43 153.469 330.455 153.359 330.481 153.25C330.539 153.031 330.578 152.787 330.61 152.542C330.642 152.317 330.629 152.079 330.648 151.848C330.719 151.024 330.809 150.175 330.861 149.326C330.886 148.947 330.88 148.567 330.874 148.194C330.886 147.95 330.899 147.705 330.925 147.467C330.931 147.223 331.086 146.978 331.182 146.747C331.26 146.605 331.272 146.631 331.35 146.766C331.388 146.837 331.446 146.933 331.523 147.043C331.575 147.113 331.613 147.171 331.652 147.223C331.678 147.255 331.691 147.287 331.716 147.319C331.723 147.351 331.729 147.383 331.736 147.416L331.851 148.13C331.877 148.368 331.871 148.612 331.883 148.85C331.89 149.339 331.883 149.828 331.832 150.323C331.781 150.915 331.832 151.539 331.787 152.156C331.761 152.497 331.729 152.838 331.671 153.192C331.588 153.565 331.575 153.861 331.298 154.343L331.279 154.375C331.086 154.607 330.816 154.781 330.513 154.819C330.263 154.864 330.037 154.858 329.819 154.858C329.15 154.819 328.532 154.671 327.915 154.549C327.439 154.453 326.95 154.421 326.48 154.298C326.377 154.273 326.268 154.26 326.165 154.228C325.786 154.105 325.689 153.977 325.715 153.674C325.715 153.604 325.715 153.533 325.734 153.469C325.779 153.25 325.991 153.128 326.274 153.14C326.693 153.173 327.124 153.185 327.535 153.269C327.947 153.346 328.359 153.43 328.77 153.507C329.073 153.559 329.375 153.61 329.658 153.636C329.806 153.655 329.928 153.655 330.057 153.655L330.217 153.642C330.275 153.629 330.25 153.642 330.256 153.642L330.269 153.668L330.282 153.681Z" fill="#EDEDED"/>
<path d="M321.524 126.652C321.357 126.677 321.203 126.677 320.984 126.69C320.727 126.645 320.457 126.626 320.232 126.504C320.141 126.401 320.077 126.285 320.006 126.176C319.948 126.053 319.942 125.892 319.903 125.751L319.858 125.217C319.839 124.986 319.807 124.754 319.794 124.522C319.781 124.111 319.781 123.705 319.781 123.3C319.807 122.895 319.833 122.483 319.865 122.078C319.891 121.718 319.923 121.358 319.948 121.004C320 120.547 320.064 120.09 320.199 119.653C320.27 119.376 320.251 119.75 320.289 120.271C320.289 121.19 320.418 122.097 320.457 123.017C320.463 123.57 320.547 124.136 320.617 124.696L320.708 125.378L320.733 125.545V125.616C320.753 125.661 320.74 125.725 320.785 125.751C320.849 125.783 320.907 125.79 320.997 125.79C321.319 125.777 321.698 125.68 322.052 125.577C322.599 125.416 323.152 125.23 323.673 124.986C324.078 124.799 324.438 124.535 324.818 124.304C324.901 124.252 324.979 124.194 325.062 124.149C325.384 123.982 325.506 124.001 325.712 124.227C325.757 124.278 325.815 124.323 325.86 124.374C326.014 124.548 325.95 124.799 325.738 124.992C325.107 125.577 324.303 125.892 323.486 126.188C322.869 126.401 322.238 126.574 321.544 126.677V126.652H321.524Z" fill="#EDEDED"/>
<path d="M326.864 113.69C327.121 113.305 327.385 112.925 327.649 112.539C327.739 112.398 327.829 112.256 327.919 112.115C328.253 111.626 328.601 111.13 328.935 110.642C329.083 110.423 329.212 110.191 329.353 109.966C329.533 109.683 329.72 109.4 329.939 109.136C330.009 109.053 330.042 109.091 330.048 109.201C330.048 109.31 330.048 109.497 329.977 109.677C329.746 110.339 329.36 110.912 328.974 111.484C328.736 111.825 328.543 112.211 328.324 112.578C328.08 112.976 327.842 113.375 327.591 113.768C327.436 114.012 327.282 114.257 327.128 114.495C326.896 114.861 326.658 115.228 326.452 115.607C326.292 115.903 326.169 116.212 326.009 116.501C325.976 116.566 325.944 116.63 325.906 116.694C325.764 116.926 325.68 116.977 325.52 116.952C325.481 116.945 325.442 116.945 325.41 116.932C325.295 116.894 325.269 116.746 325.327 116.553C325.423 116.263 325.52 115.968 325.655 115.691C325.796 115.414 325.957 115.144 326.118 114.874C326.362 114.482 326.613 114.083 326.864 113.684H326.877L326.864 113.69Z" fill="#EDEDED"/>
<path d="M329.407 115.279C329.542 115.067 329.684 114.861 329.819 114.649C329.87 114.572 329.896 114.488 329.948 114.411C330.128 114.141 330.314 113.877 330.482 113.607C330.559 113.485 330.61 113.356 330.681 113.234C330.765 113.073 330.829 112.906 330.97 112.771C331.054 112.687 331.382 113.009 331.337 113.221C331.253 113.587 331.073 113.915 330.829 114.205C330.687 114.385 330.61 114.604 330.501 114.803C330.379 115.022 330.25 115.241 330.128 115.459C330.051 115.594 329.973 115.729 329.896 115.865C329.787 116.07 329.665 116.27 329.568 116.482C329.497 116.649 329.459 116.829 329.407 116.997C329.394 117.035 329.388 117.074 329.375 117.112C329.317 117.247 329.253 117.267 329.066 117.209L328.938 117.17C328.796 117.119 328.713 117.009 328.719 116.894C328.738 116.546 328.861 116.238 329.002 115.929C329.111 115.704 329.253 115.491 329.375 115.273H329.394L329.407 115.279Z" fill="#EDEDED"/>
<path d="M338.586 141.195C338.85 140.77 339.114 140.352 339.377 139.928C339.474 139.773 339.545 139.606 339.647 139.452C339.995 138.911 340.361 138.384 340.722 137.85C340.882 137.612 341.037 137.374 341.191 137.136C341.391 136.834 341.571 136.512 341.854 136.274C341.944 136.197 342.008 136.261 342.053 136.409C342.092 136.551 342.124 136.782 342.027 136.962C341.86 137.284 341.699 137.606 341.526 137.927C341.346 138.242 341.133 138.538 340.921 138.834C340.657 139.188 340.484 139.612 340.265 140.011C340.027 140.442 339.789 140.88 339.551 141.317C339.403 141.587 339.255 141.857 339.114 142.127C338.901 142.539 338.657 142.944 338.451 143.356C338.29 143.678 338.187 144.019 338.02 144.34C337.988 144.411 337.962 144.482 337.911 144.546C337.737 144.784 337.628 144.829 337.441 144.797C337.396 144.79 337.351 144.784 337.319 144.771C337.19 144.733 337.145 144.565 337.171 144.34C337.235 143.658 337.525 143.073 337.814 142.475C338.033 142.031 338.31 141.613 338.554 141.182L338.573 141.195H338.586Z" fill="#EDEDED"/>
<path d="M340.442 143.89C340.596 143.626 340.757 143.356 340.912 143.092C340.97 142.996 341.002 142.886 341.06 142.79C341.272 142.449 341.497 142.102 341.709 141.767C341.799 141.613 341.889 141.458 341.973 141.304C342.082 141.105 342.172 140.892 342.365 140.738C342.475 140.642 342.88 141.105 342.809 141.343C342.732 141.548 342.648 141.754 342.558 141.954C342.443 142.14 342.32 142.327 342.179 142.513C342.005 142.732 341.934 143.009 341.812 143.26C341.677 143.536 341.536 143.813 341.394 144.089C341.304 144.257 341.208 144.43 341.117 144.597C340.982 144.855 340.828 145.106 340.712 145.369C340.616 145.575 340.571 145.8 340.494 146.019C340.474 146.064 340.468 146.115 340.442 146.161C340.358 146.328 340.275 146.347 340.05 146.257C339.998 146.238 339.947 146.218 339.895 146.193C339.728 146.109 339.632 145.968 339.651 145.826C339.702 145.421 339.863 145.061 340.03 144.694C340.165 144.424 340.301 144.154 340.429 143.883H340.448L340.442 143.89Z" fill="#EDEDED"/>
<path d="M285.119 114.469L288.232 112.822C288.612 112.616 288.959 112.365 289.339 112.166C290.014 111.818 290.69 111.477 291.384 111.143L292.439 110.648C292.626 110.564 292.793 110.493 293.012 110.403C293.282 110.294 293.558 110.21 293.841 110.217C294.073 110.262 294.382 110.339 294.51 110.384L295.012 110.525C295.347 110.616 295.675 110.712 295.996 110.821C296.414 110.956 296.832 111.079 297.238 111.233C297.444 111.304 297.643 111.407 297.823 111.542C297.913 111.606 298.01 111.67 298.1 111.741C298.19 111.818 298.254 111.947 298.331 112.044C298.531 112.327 298.396 112.417 298.061 112.622C297.701 112.873 297.128 113.24 296.665 113.137C295.868 112.886 295.038 112.7 294.272 112.397L293.983 112.294C293.944 112.282 293.867 112.256 293.861 112.249V112.236C293.861 112.236 293.816 112.198 293.784 112.185C293.79 112.172 293.674 112.211 293.584 112.236L293.301 112.339L292.703 112.558C291.725 112.918 290.831 113.549 289.892 114.063L286.772 115.749L284.849 116.791C283.884 117.324 282.894 117.833 281.948 118.392C281.215 118.83 280.539 119.351 279.825 119.814C279.664 119.917 279.517 120.033 279.356 120.123C279.047 120.29 278.828 120.38 278.635 120.361C278.436 120.328 278.281 120.219 278.114 120.026C278.037 119.942 277.953 119.859 277.889 119.769C277.786 119.621 277.767 119.447 277.812 119.254C277.863 119.061 277.966 118.849 278.166 118.701C279.324 117.749 280.655 116.945 282.019 116.16C283.041 115.588 284.071 115.009 285.093 114.43L285.119 114.469Z" fill="#EDEDED"/>
<path d="M303.243 144.373L303.423 138.404C303.448 137.677 303.416 136.95 303.448 136.229C303.506 134.949 303.577 133.669 303.661 132.389C303.706 131.746 303.751 131.109 303.815 130.447C303.841 130.196 303.867 129.945 303.937 129.72C303.995 129.482 304.207 129.334 304.394 129.199C304.491 129.128 304.606 129.077 304.716 129.019C304.825 128.954 304.947 128.903 305.005 128.877L305.449 128.678C306.497 128.215 307.52 127.732 308.524 127.23C309.167 126.909 309.829 126.619 310.485 126.324C310.82 126.182 311.135 126.021 311.483 125.912C311.83 125.803 312.184 125.7 312.537 125.603C312.988 125.494 312.956 125.552 312.711 125.905C312.589 126.079 312.428 126.349 312.209 126.639C312.1 126.78 311.984 126.954 311.843 127.095C311.695 127.23 311.54 127.359 311.36 127.481C310.736 127.893 310.112 128.318 309.469 128.684C308.807 129.019 308.144 129.347 307.475 129.662L306.478 130.131L305.989 130.363L305.751 130.479C305.693 130.505 305.713 130.485 305.693 130.492C305.629 130.492 305.59 130.524 305.565 130.601L305.43 131.675C305.224 133.431 305.288 135.284 305.237 137.098L305.082 143.086C305.057 144.315 305.031 145.543 305.031 146.772V149.557C305.044 149.815 305.044 150.085 305.069 150.355L305.082 150.451C305.082 150.451 305.082 150.484 305.095 150.496C305.108 150.509 305.127 150.49 305.14 150.49L305.32 150.406L305.681 150.239C306.253 149.969 306.825 149.705 307.392 149.435L309.334 148.541C309.611 148.412 309.887 148.277 310.164 148.149C311.199 147.679 311.56 147.589 311.978 147.859C312.068 147.917 312.177 147.962 312.248 148.026C312.473 148.219 312.203 148.734 311.437 149.184C310.299 149.879 309.09 150.406 307.913 150.953L307.018 151.365L306.517 151.596L305.584 152.079L305.114 152.317C305.024 152.375 304.986 152.349 304.928 152.349L304.767 152.33L304.13 152.265L303.969 152.246C303.912 152.246 303.873 152.188 303.834 152.162C303.757 152.105 303.686 152.034 303.622 151.944C303.493 151.77 303.391 151.513 303.352 151.204C303.288 150.747 303.249 150.258 303.217 149.757L303.198 149.487V149.294L303.185 148.914L303.172 147.402V144.386H303.223L303.243 144.373Z" fill="#EDEDED"/>
<path d="M343.042 146.695C343.756 146.141 344.496 145.562 345.119 144.983C345.203 144.893 345.197 144.913 345.216 144.893C345.229 144.881 345.255 144.868 345.255 144.842C345.261 144.81 345.267 144.81 345.274 144.752L345.306 144.424C345.351 143.993 345.37 143.517 345.396 143.067C345.428 142.391 345.396 141.716 345.435 141.04C345.576 138.648 345.705 136.248 345.782 133.849C345.808 132.781 345.827 131.713 345.814 130.652C345.808 129.295 345.814 127.925 346.226 126.568C346.374 126.143 346.342 126.201 346.509 126.561C346.689 126.921 347.159 127.577 347.326 128.356C347.808 131.128 347.686 133.907 347.461 136.711C347.313 138.39 347.409 140.133 347.339 141.857C347.294 142.809 347.242 143.742 347.146 144.726C347.133 144.842 347.126 144.958 347.081 145.164L347.023 145.434L346.998 145.569V145.601C346.953 145.601 346.972 145.62 346.959 145.627L346.927 145.685C346.83 145.839 346.753 146.006 346.605 146.135C346.47 146.276 346.399 146.341 346.303 146.431C345.936 146.765 345.57 147.074 345.197 147.383C344.283 148.129 343.338 148.824 342.392 149.518C340.958 150.56 339.459 151.525 337.973 152.471C336.809 153.198 335.696 153.97 334.474 154.626C334.21 154.774 333.94 154.915 333.657 155.044C333.142 155.288 332.763 155.385 332.48 155.385C332.197 155.385 332.004 155.275 331.817 155.069C331.734 154.979 331.631 154.896 331.573 154.799C331.38 154.497 331.682 153.982 332.37 153.654C334.371 152.529 336.461 151.287 338.52 149.917C340.051 148.907 341.562 147.827 342.997 146.675L343.029 146.707L343.042 146.695Z" fill="#EDEDED"/>
<path d="M314.413 148.264C317.166 149.364 319.932 150.438 322.717 151.461C323.733 151.821 324.762 152.169 325.772 152.542C326.666 152.87 327.554 153.198 328.448 153.5C328.892 153.648 329.342 153.796 329.786 153.931C330.005 153.995 330.23 154.06 330.448 154.118C330.526 154.137 330.609 154.163 330.699 154.182C330.744 154.188 330.789 154.195 330.834 154.201C330.879 154.201 330.944 154.195 330.931 154.143C330.931 154.06 330.95 153.97 330.931 153.88L330.918 153.738V153.378L330.95 152.657L331.021 149.789C331.072 148.09 331.021 146.386 331.06 144.701C331.072 143.62 331.079 142.533 331.092 141.452C331.13 140.365 331.111 139.284 331.407 138.204C331.581 137.528 331.555 137.618 331.761 138.191C331.999 138.763 332.494 139.812 332.513 141.06L332.648 144.379C332.668 144.932 332.693 145.485 332.7 146.038L332.674 147.698C332.648 148.804 332.616 149.911 332.59 151.024L332.526 152.69L332.488 153.526L332.468 154.105C332.449 154.349 332.475 154.626 332.423 154.832L332.32 155.185C332.301 155.243 332.288 155.308 332.269 155.359L332.192 155.481C332.057 155.668 331.799 155.751 331.568 155.784C331.323 155.822 331.047 155.796 330.77 155.764L330.352 155.693L329.998 155.616C329.304 155.455 328.641 155.269 327.972 155.082C326.641 154.703 325.315 154.298 324.016 153.86C321.173 152.876 318.375 151.77 315.577 150.67L313.004 149.634L311.717 149.1L311.061 148.824C310.759 148.682 310.392 148.579 310.238 148.322L310.193 148.271V148.258L310.141 148.296V148.277V148.238L310.103 148.09C310.084 147.987 310.058 147.897 310.039 147.788C310.019 145.074 309.994 142.353 309.974 139.664C309.955 137.503 309.871 135.38 309.884 133.238C309.884 132.768 309.884 132.299 309.897 131.823C309.981 130.054 310.122 129.494 310.643 129.16C310.746 129.083 310.843 128.98 310.926 128.935C311.171 128.793 311.557 129.539 311.524 130.807C311.576 134.608 311.621 138.59 311.672 142.597L311.717 145.067L311.775 147.171C311.775 147.171 311.775 147.19 311.775 147.196L312.554 147.511L314.425 148.238L314.413 148.283V148.264Z" fill="#EDEDED"/>
<path d="M327.64 134.493L329.846 135.233L330.74 135.516C330.74 135.516 330.798 135.522 330.824 135.516L330.952 135.445L331.197 135.303C332.522 134.525 333.86 133.682 335.185 132.853C336.156 132.248 337.102 131.598 338.08 131C339.231 130.299 340.389 129.604 341.547 128.922L343.303 127.906L344.145 127.43C344.255 127.366 344.39 127.308 344.499 127.243L344.904 127.044C344.904 127.044 344.943 127.031 344.949 127.012C344.943 126.999 344.924 126.986 344.911 126.98L344.821 126.935L344.634 126.851L344.229 126.69L343.502 126.42C341.823 125.815 340.112 125.269 338.42 124.722C337.34 124.362 336.246 124.014 335.166 123.641C334.079 123.281 333.017 122.844 332.001 122.297C331.416 121.827 331.48 121.93 332.136 121.885C332.464 121.853 332.908 121.879 333.448 121.898C333.712 121.917 334.008 121.924 334.304 121.975C334.6 122.033 334.902 122.104 335.217 122.2C337.321 122.831 339.424 123.455 341.514 124.162C342.595 124.535 343.682 124.902 344.769 125.275C345.265 125.442 345.786 125.61 346.255 125.803C346.763 125.983 347.021 126.246 347.156 126.465C347.226 126.575 347.265 126.677 347.291 126.78C347.355 126.903 347.201 127.038 347.136 127.147C346.963 127.385 346.789 127.617 346.609 127.842C346.178 128.06 345.786 128.292 345.38 128.511C345.007 128.717 344.634 128.922 344.255 129.135L343.335 129.662C342.724 130.029 342.113 130.395 341.508 130.781C340.299 131.553 339.077 132.332 337.867 133.103L333.866 135.638C333.197 136.062 332.528 136.48 331.834 136.898L331.493 137.091C331.358 137.162 331.21 137.214 331.068 137.265C330.927 137.323 330.772 137.259 330.624 137.252C330.483 137.239 330.309 137.194 330.206 137.162C329.801 137.053 329.434 136.931 329.048 136.821C327.183 136.236 325.337 135.612 323.491 134.988C320.706 134.017 317.914 133.02 315.174 131.984C314.646 131.772 314.106 131.585 313.579 131.386L312.781 131.09C312.672 131.051 312.472 130.968 312.279 130.891L311.707 130.653C311.327 130.492 310.871 130.337 310.71 130.132L310.369 129.836C310.272 129.726 310.086 129.662 310.144 129.463C310.208 129.167 310.375 128.935 310.62 128.678C310.755 128.556 310.883 128.427 311.064 128.311C311.224 128.189 311.398 128.073 311.597 127.97C311.765 127.874 311.926 127.771 312.106 127.681L312.562 127.449C312.787 127.334 313.019 127.224 313.257 127.121C315.007 126.369 315.637 126.375 316.171 126.722C316.287 126.787 316.428 126.832 316.499 126.89C316.621 126.986 316.518 127.141 316.267 127.43C316.016 127.739 315.56 128.003 314.955 128.279C314.511 128.485 314.061 128.691 313.63 128.909L313.302 129.077C313.257 129.102 313.173 129.141 313.161 129.154L313.135 129.18C313.103 129.212 313.077 129.238 313.058 129.263C313.032 129.315 312.98 129.353 313.045 129.385L313.238 129.424C313.103 129.353 313.817 129.636 314.248 129.81C314.724 130.009 315.225 130.177 315.714 130.344C316.711 130.666 317.695 131.039 318.692 131.386C321.651 132.428 324.642 133.457 327.621 134.467L327.608 134.512L327.64 134.493Z" fill="#EDEDED"/>
<path d="M310.156 116.25C309.918 116.16 309.68 116.07 309.448 115.986C309.358 115.954 309.268 115.961 309.178 115.929C308.869 115.813 308.56 115.633 308.258 115.478C308.123 115.408 307.981 115.363 307.834 115.311C307.647 115.247 307.435 115.195 307.319 114.989C307.28 114.925 307.422 114.751 307.583 114.584C307.75 114.417 307.917 114.25 307.988 114.263C308.258 114.32 308.548 114.385 308.856 114.571C309.036 114.681 309.261 114.668 309.474 114.713C309.705 114.771 309.943 114.835 310.181 114.893C310.329 114.932 310.477 114.97 310.625 115.002C310.85 115.054 311.082 115.118 311.313 115.157C311.494 115.182 311.693 115.137 311.899 115.144C311.944 115.144 311.989 115.131 312.034 115.144C312.201 115.182 312.22 115.292 312.13 115.62L312.066 115.845C311.982 116.089 311.854 116.276 311.744 116.334C311.429 116.495 311.146 116.514 310.844 116.482C310.619 116.437 310.394 116.353 310.156 116.289V116.257V116.25Z" fill="#EDEDED"/>
<path d="M320.591 140.212C320.258 140.074 319.926 139.937 319.602 139.81C319.476 139.761 319.35 139.77 319.224 139.721C318.793 139.545 318.361 139.27 317.939 139.035C317.75 138.927 317.552 138.858 317.345 138.78C317.085 138.682 316.788 138.603 316.626 138.29C316.572 138.192 316.77 137.927 316.995 137.672C317.229 137.417 317.462 137.162 317.561 137.182C317.939 137.27 318.343 137.368 318.775 137.652C319.027 137.819 319.341 137.799 319.638 137.868C319.962 137.956 320.294 138.054 320.627 138.143C320.834 138.201 321.041 138.26 321.247 138.309C321.562 138.388 321.886 138.486 322.209 138.545C322.461 138.584 322.74 138.515 323.027 138.525C323.09 138.525 323.153 138.505 323.216 138.525C323.45 138.584 323.477 138.751 323.351 139.251L323.261 139.594C323.144 139.967 322.964 140.251 322.812 140.339C322.371 140.584 321.976 140.614 321.553 140.565C321.238 140.496 320.924 140.369 320.591 140.271V140.222V140.212Z" fill="#EDEDED"/>
<path d="M318.899 121.673C318.924 120.843 318.95 120.007 318.956 119.171C318.956 118.868 318.918 118.56 318.924 118.257C318.963 117.177 318.982 116.096 319.053 115.015C319.079 114.533 319.066 114.057 319.053 113.581C319.008 112.97 319.072 112.359 319.22 111.748C319.272 111.561 319.432 111.587 319.632 111.748C319.825 111.908 320.089 112.204 320.172 112.545C320.346 113.156 320.327 113.767 320.378 114.385C320.397 114.996 320.423 115.614 320.346 116.237C320.269 116.984 320.384 117.756 320.41 118.515L320.462 121.036L320.481 122.593C320.5 123.377 320.481 124.169 320.513 124.953C320.539 125.564 320.661 126.163 320.719 126.767C320.732 126.902 320.764 127.031 320.764 127.166C320.751 127.668 320.565 127.822 320.185 127.906C320.095 127.925 320.005 127.951 319.921 127.964C319.632 127.996 319.381 127.784 319.233 127.423C318.931 126.368 318.911 125.281 318.866 124.162C318.834 123.332 318.866 122.496 318.854 121.66H318.892L318.899 121.673Z" fill="#EDEDED"/>
<path d="M306.824 105.643L303.338 104.363L301.595 103.726L298.732 102.723L298.134 102.086L297.98 101.932L297.903 101.855L297.864 101.816L297.845 101.797C297.832 101.797 297.941 101.797 297.896 101.797V101.784C297.845 101.713 297.877 101.668 297.896 101.617C297.916 101.565 297.935 101.514 297.961 101.456C298.064 101.237 298.282 100.967 298.752 100.716C299.228 100.472 299.775 100.24 300.302 100.015L302.566 99.0629C303.203 98.7928 303.846 98.529 304.496 98.2782C306.773 97.3969 309.063 96.5543 311.366 95.731C312.517 95.3257 313.668 94.914 314.833 94.5345L315.708 94.2451L316.196 94.0843L316.531 93.9749C316.589 93.9428 316.64 93.9749 316.698 93.9878L316.865 94.0392L318.699 94.676C320.744 95.39 322.809 96.0654 324.842 96.7473C327.472 97.6092 330.032 98.5741 332.612 99.5582C333.416 99.867 333.268 99.957 332.515 99.9442C332.136 99.9442 331.608 99.9184 330.965 99.867C330.644 99.8412 330.303 99.8091 329.936 99.7576C329.749 99.7319 329.563 99.7062 329.376 99.6804C329.19 99.6354 328.997 99.5904 328.804 99.5389C326.038 98.8507 323.401 97.9244 320.731 97.0432C319.4 96.5929 318.062 96.1426 316.724 95.6924C316.666 95.6731 316.66 95.6666 316.66 95.6666L316.647 95.6538C316.647 95.6538 316.627 95.6409 316.614 95.6409H316.582L316.351 95.7181L315.347 96.0461L313.334 96.7087C310.118 97.7572 306.863 99.1144 303.647 100.401L301.344 101.334C301.157 101.411 300.958 101.488 300.765 101.584C300.752 101.591 300.688 101.617 300.727 101.629L300.791 101.655L300.926 101.707L301.209 101.81L302.721 102.363L305.056 103.205C307.262 104.003 309.475 104.807 311.681 105.605C313.353 106.209 315.032 106.814 316.705 107.412L317.959 107.856L318.583 108.068C318.789 108.133 319.02 108.21 319.104 108.229C319.271 108.248 319.773 108.036 320.172 107.907L321.413 107.457C323.973 106.499 326.424 105.392 328.855 104.241C329.389 103.977 329.91 103.726 330.444 103.463C332.425 102.485 333.101 102.273 333.692 102.356C333.828 102.376 333.995 102.382 334.091 102.421C334.406 102.543 333.737 103.225 332.322 104.093C330.193 105.322 327.929 106.422 325.594 107.444C324.43 107.952 323.24 108.448 322.037 108.917C321.432 109.149 320.834 109.38 320.21 109.599L319.972 109.683L319.638 109.792L319.175 109.876C319.02 109.863 318.866 109.831 318.711 109.799C318.628 109.792 318.564 109.766 318.493 109.747L318.371 109.709L318.126 109.631L317.657 109.483C313.997 108.3 310.42 106.962 306.818 105.682L306.831 105.643H306.824Z" fill="#EDEDED"/>
<path d="M322.611 126.96C321.801 127.417 321.022 127.867 320.147 128.317L319.897 128.44C319.8 128.498 319.697 128.51 319.594 128.543L319.292 128.62C319.189 128.646 319.086 128.62 318.983 128.6L318.674 128.536C318.584 128.51 318.449 128.465 318.398 128.453L318.057 128.337L316.745 127.861L311.573 125.886C310.319 125.404 309.045 124.96 307.797 124.464C305.591 123.59 303.398 122.708 301.204 121.801L299.557 121.12L298.734 120.766L298.322 120.586L297.866 120.38C297.435 120.2 297.036 119.949 296.991 119.473C296.939 119.267 296.946 118.99 296.927 118.823L296.914 118.367C296.901 117.762 296.907 117.17 296.914 116.572C296.939 114.462 296.952 112.346 297.004 110.255C297.087 107.573 297.074 104.871 297.653 102.208C297.846 101.379 298.02 101.52 298.245 102.247C298.47 102.974 298.85 104.293 298.85 105.823C298.773 108.538 298.753 111.265 298.631 113.986C298.586 115.343 298.547 116.713 298.535 118.058V118.553L298.541 118.785V118.83C298.515 118.894 298.554 118.933 298.612 118.958L299.487 119.364L300.426 119.782C303.43 121.113 306.672 122.252 309.811 123.461L315.002 125.442L317.6 126.407L318.893 126.864C319.028 126.902 319.099 126.967 319.202 126.909L319.369 126.832L319.665 126.677C321.64 125.597 323.621 124.419 325.602 123.294C327.107 122.432 328.625 121.589 330.156 120.772C330.922 120.367 331.7 119.962 332.472 119.576L332.8 119.415C332.832 119.312 332.819 119.177 332.832 119.061L332.89 117.807C333.006 115.144 333.019 112.526 333.07 109.889C333.083 109.31 333.089 108.737 333.096 108.152C333.179 105.984 333.315 105.296 333.829 104.859C333.938 104.756 334.041 104.621 334.138 104.563C334.44 104.37 334.794 105.27 334.788 106.859C334.82 109.22 334.788 111.638 334.71 114.095C334.665 115.324 334.614 116.559 334.569 117.801C334.53 118.611 334.492 119.428 334.453 120.238L334.44 120.47C334.382 120.515 334.305 120.541 334.241 120.579L333.823 120.785L333.102 121.145L332.285 121.563C329.043 123.255 325.834 125.114 322.617 126.98L322.592 126.947L322.611 126.96Z" fill="#EDEDED"/>
<path d="M288.017 136.399C287.988 136.505 287.92 136.608 287.926 136.75C287.892 137.011 287.937 137.291 288.119 137.578C288.168 137.69 288.254 137.785 288.353 137.879C288.44 137.975 288.539 138.069 288.645 138.169C289.352 138.905 290.428 139.432 291.468 139.931C291.946 140.139 292.446 140.3 292.937 140.448C293.576 140.648 294.242 140.728 294.846 141.112C295.036 141.217 295.001 141.259 294.802 141.342C294.659 141.4 294.516 141.459 294.392 141.516C294.305 141.549 294.212 141.597 294.117 141.612C294.021 141.621 293.925 141.63 293.826 141.613C292.442 141.456 291.009 141.259 289.712 140.564C288.949 140.137 288.072 139.804 287.33 139.117C286.922 138.754 286.579 138.256 286.359 137.688C286.15 137.101 286.157 136.48 286.308 135.872C286.387 135.677 286.466 135.482 286.572 135.305C286.712 135.143 286.844 134.957 287.007 134.832C287.345 134.575 287.719 134.43 288.068 134.366C289.142 134.17 290.064 134.434 290.943 134.65C291.631 134.826 292.327 134.943 292.996 135.197C293.144 135.255 293.296 135.293 293.432 135.37C293.955 135.652 294.048 135.889 293.872 136.363C293.723 136.812 292.69 136.652 292.15 136.538C291.001 136.411 290.577 136.357 289.555 136.199C289.214 136.138 288.139 135.877 288.017 136.399Z" fill="#EDEDED"/>
<path d="M286.835 141.436C285.678 141.436 285.761 140.561 285.755 140.52C285.716 140.275 285.697 140.044 285.678 139.812C285.646 139.355 285.639 138.912 285.633 138.468C285.633 137.58 285.659 136.705 285.691 135.83C285.716 135.052 285.742 134.274 285.768 133.508C285.819 132.524 285.768 131.514 286.109 130.549C286.212 130.247 286.405 130.318 286.63 130.601C286.739 130.742 286.861 130.935 286.977 131.167C287.08 131.392 287.132 131.656 287.132 131.932C287.132 132.917 287.132 133.901 287.132 134.891C287.112 135.882 287.061 136.873 287.016 137.863C286.99 138.397 287.016 138.931 287.074 139.458C287.106 139.722 287.138 139.979 287.196 140.217C287.686 141.436 287.196 141.401 286.835 141.436Z" fill="#EDEDED"/>
<path d="M319.477 147.393C318.364 147.393 318.443 146.721 318.438 146.689C318.401 146.502 318.382 146.324 318.364 146.146C318.333 145.795 318.326 145.455 318.32 145.114C318.32 144.432 318.345 143.76 318.376 143.089C318.401 142.491 318.425 141.893 318.45 141.305C318.5 140.55 318.45 139.774 318.778 139.033C318.877 138.801 319.063 138.855 319.279 139.073C319.384 139.181 319.502 139.33 319.613 139.507C319.712 139.68 319.762 139.883 319.762 140.095C319.762 140.851 319.762 141.607 319.762 142.367C319.743 143.128 319.694 143.889 319.65 144.649C319.626 145.059 319.65 145.469 319.706 145.874C319.737 146.077 319.768 146.275 319.824 146.457C320.295 147.393 319.824 147.366 319.477 147.393Z" fill="#EDEDED"/>
<path d="M310.577 113.13C310.384 112.178 309.972 111.4 309.303 111.11C309.142 111.046 309.02 111.053 308.782 111.168C308.357 111.355 307.888 111.895 307.521 112.455C307.129 113.021 306.807 113.664 306.518 114.32C306.267 114.906 306.08 115.523 305.913 116.134C305.727 116.925 305.553 117.723 305.315 118.508C305.154 118.746 305.186 118.726 305.032 118.488C304.89 118.257 304.736 117.813 304.742 117.311C304.89 115.568 305.276 113.851 306.125 112.243C306.383 111.767 306.659 111.278 307.013 110.795C307.373 110.332 307.811 109.798 308.583 109.567C308.994 109.438 309.483 109.47 309.863 109.605C310.21 109.728 310.544 109.901 310.827 110.133C311.406 110.583 311.779 111.181 312.05 111.76C312.384 112.487 312.551 113.233 312.674 113.966C312.86 115.086 312.854 116.199 312.873 117.286C312.886 118.135 312.989 118.977 312.95 119.833C312.944 120.019 312.95 120.206 312.924 120.399C312.815 121.1 312.551 121.312 312.037 121.325C311.914 121.325 311.799 121.338 311.683 121.325C311.303 121.267 311.065 120.958 310.962 120.482C310.86 119.781 310.815 119.061 310.795 118.34C310.795 117.626 310.821 116.9 310.815 116.186C310.789 115.131 310.763 114.069 310.538 113.13L310.583 113.117L310.577 113.13Z" fill="#EDEDED"/>
<path d="M279.577 121.415L279.558 121.473C279.558 121.473 279.551 121.486 279.545 121.512L279.513 121.814C279.461 122.277 279.404 122.74 279.365 123.21C279.275 124.142 279.217 125.088 279.166 126.034C279.063 127.925 279.03 129.822 279.037 131.72C279.037 133.103 279.133 134.486 279.185 135.869C279.249 137.084 279.358 138.294 279.494 139.484C279.571 140.075 279.654 140.667 279.764 141.207L279.847 141.548C279.867 141.6 279.886 141.645 279.925 141.683C280.027 141.793 280.24 141.986 280.465 142.14C281.378 142.783 282.485 143.337 283.565 143.871C284.659 144.398 285.772 144.9 286.897 145.389C288.891 146.25 290.943 147.029 292.969 147.781C294.275 148.264 295.575 148.772 296.867 149.28L297.839 149.673L298.784 150.129C299.408 150.444 300.045 150.74 300.656 151.088C301.389 151.589 301.254 151.615 300.457 151.647C300.051 151.667 299.505 151.647 298.849 151.589C298.521 151.564 298.167 151.525 297.8 151.474C297.614 151.448 297.427 151.409 297.234 151.384C297.048 151.326 296.861 151.274 296.668 151.21C295.324 150.753 293.966 150.316 292.628 149.827C291.303 149.306 289.978 148.778 288.66 148.225C286.022 147.106 283.392 145.98 280.819 144.488C280.433 144.263 280.047 144.018 279.654 143.761C279.455 143.62 279.262 143.491 279.063 143.317C278.87 143.157 278.651 142.976 278.426 142.648C278.316 142.507 278.239 142.327 278.175 142.166L278.066 141.767C277.995 141.516 277.963 141.291 277.918 141.06C277.821 140.596 277.789 140.153 277.725 139.702C277.525 137.914 277.435 136.132 277.358 134.363C277.223 130.478 277.249 126.6 277.577 122.708L277.667 121.807L277.712 121.357L277.744 121.042C277.757 120.933 277.795 120.849 277.815 120.746L278.13 119.608L278.207 119.325V119.292L278.22 119.273V119.267C278.181 119.202 278.278 119.35 278.265 119.337C278.265 119.337 278.304 119.305 278.316 119.292L278.419 119.247C278.554 119.177 278.741 119.189 278.934 119.222C279.333 119.286 279.764 119.466 280.182 119.614L281.076 119.961L282.735 120.624C286.074 121.981 289.387 123.409 292.706 124.708C295.285 125.718 297.858 126.6 300.437 127.5C301.01 127.693 301.563 127.88 302.142 128.073C303.197 128.452 303.892 128.716 304.348 128.98C304.792 129.275 305.024 129.52 305.184 129.803C305.255 129.932 305.365 130.073 305.39 130.182C305.442 130.369 305.23 130.453 304.792 130.459C304.355 130.459 303.686 130.42 302.895 130.17C298.141 128.812 293.31 126.94 288.492 125.017C286.711 124.297 284.916 123.57 283.128 122.849L280.458 121.762L279.796 121.499C279.635 121.434 279.712 121.467 279.687 121.454H279.674C279.674 121.454 279.616 121.409 279.616 121.441L279.577 121.396V121.415Z" fill="#EDEDED"/>
<path d="M336.586 95.8794C336.644 96.008 336.496 96.1174 336.264 96.2139C336.193 96.246 335.968 96.246 335.936 96.2139C335.865 96.1431 335.795 96.0724 335.737 96.0016C335.705 95.9566 335.454 95.249 335.389 95.0046C335.312 94.7666 335.28 94.535 335.254 94.297L335.113 92.8562C335.1 92.7468 335.126 92.6439 335.158 92.5345C335.274 92.1743 335.28 91.8077 335.248 91.441C335.248 91.3767 335.254 91.3188 335.196 91.2545C335.1 91.1516 335.1 90.161 335.171 90.0323C335.319 89.7236 335.422 89.4084 335.544 89.0997C335.563 89.0546 335.544 89.0032 335.621 88.971C335.795 88.8874 335.775 88.7909 335.801 88.688C335.846 88.5529 335.872 88.4178 335.975 88.2892C336.02 88.2249 336.123 88.167 336.2 88.1091C336.271 88.0576 336.464 88.1091 336.483 88.1284C336.547 88.1927 336.644 88.1541 336.727 88.1541C336.753 88.1541 336.792 88.1541 336.817 88.1541C336.83 88.1541 336.991 88.3664 337.107 88.5786C337.223 88.7909 337.319 89.0096 337.313 89.0546C337.313 89.0675 337.338 89.3505 337.364 89.6528C337.396 89.9487 337.428 90.2575 337.441 90.3347C337.454 90.399 337.409 90.4633 337.377 90.5341C337.364 90.5662 337.435 91.4668 337.428 91.4989C337.396 91.6855 337.448 91.872 337.287 92.0521C337.255 92.0843 337.261 92.1229 337.261 92.1615C337.261 92.4831 337.203 92.7983 337.126 93.1135C337.094 93.2743 337.094 93.4415 337.081 93.6023C337.081 93.6345 337.055 93.6602 337.042 93.6924C337.03 93.731 337.004 93.7631 337.004 93.8017C336.985 94.1877 336.888 94.5736 336.914 94.966C336.914 95.056 336.759 95.4806 336.753 95.5835C336.753 95.6414 336.554 95.8344 336.579 95.8858L336.586 95.8794Z" fill="#EDEDED"/>
<path d="M339.792 96.548C339.779 96.6573 339.618 96.6059 339.387 96.4836C339.316 96.445 339.136 96.2778 339.123 96.2328C339.104 96.1492 339.085 96.0591 339.078 95.9883C339.078 95.9433 339.245 95.4416 339.278 95.2486C339.323 95.0685 339.413 94.9399 339.509 94.8048C339.709 94.5411 339.882 94.2452 340.114 93.9943C340.165 93.9364 340.23 93.8914 340.3 93.8592C340.564 93.7434 340.751 93.5633 340.918 93.3575C340.944 93.3253 340.982 93.2996 340.976 93.2289C340.963 93.1066 341.497 92.6178 341.593 92.5985C341.844 92.5406 342.05 92.4377 342.294 92.3862C342.326 92.3798 342.346 92.3412 342.41 92.3862C342.564 92.4763 342.603 92.4119 342.667 92.3862C342.757 92.3476 342.848 92.3155 342.957 92.3026C343.008 92.2962 343.098 92.3348 343.176 92.3669C343.246 92.3926 343.362 92.5792 343.362 92.6049C343.369 92.6885 343.465 92.7464 343.523 92.8172C343.542 92.8429 343.568 92.8751 343.581 92.8944C343.607 92.9394 343.452 93.6084 343.42 93.647C343.42 93.6791 342.905 94.2452 342.867 94.3224C342.841 94.361 342.783 94.361 342.738 94.3738C342.712 94.3738 342.359 94.8627 342.339 94.8755C342.236 94.9399 342.191 95.0685 342.005 95.0492C341.966 95.0492 341.953 95.0685 341.941 95.0878C341.805 95.2486 341.619 95.3644 341.445 95.493C341.355 95.5574 341.284 95.641 341.201 95.7182C341.188 95.731 341.156 95.731 341.136 95.7375C341.111 95.7503 341.079 95.7503 341.059 95.7696C340.873 95.9626 340.628 96.1041 340.474 96.3293C340.429 96.3743 340.088 96.4643 340.049 96.5287C340.024 96.5608 339.786 96.5158 339.779 96.5673L339.792 96.548Z" fill="#EDEDED"/>
<path d="M342.225 101.867C342.148 101.932 342.058 101.829 341.955 101.636C341.923 101.572 341.884 101.379 341.904 101.346C341.942 101.282 341.981 101.211 342.019 101.16C342.045 101.128 342.502 100.877 342.663 100.774C342.817 100.677 342.978 100.62 343.139 100.568C343.467 100.478 343.801 100.369 344.136 100.291C344.213 100.279 344.29 100.291 344.367 100.311C344.631 100.394 344.888 100.382 345.146 100.337C345.191 100.33 345.236 100.337 345.274 100.279C345.345 100.169 346.052 100.182 346.143 100.24C346.361 100.362 346.586 100.446 346.799 100.549C346.831 100.562 346.863 100.549 346.889 100.613C346.94 100.774 347.011 100.755 347.075 100.774C347.165 100.8 347.262 100.838 347.345 100.903C347.39 100.935 347.423 101.031 347.461 101.108C347.493 101.179 347.442 101.411 347.423 101.436C347.371 101.507 347.39 101.623 347.378 101.719C347.378 101.752 347.365 101.797 347.365 101.822C347.352 101.88 346.799 102.221 346.747 102.221C346.747 102.221 346.554 102.234 346.355 102.253C346.155 102.273 345.956 102.298 345.911 102.318C345.866 102.331 345.827 102.292 345.782 102.266C345.763 102.26 345.178 102.363 345.158 102.356C345.036 102.331 344.92 102.382 344.798 102.247C344.772 102.221 344.747 102.228 344.727 102.228C344.522 102.24 344.309 102.208 344.097 102.15C343.988 102.125 343.885 102.138 343.775 102.125C343.756 102.125 343.737 102.105 343.718 102.093C343.692 102.08 343.666 102.067 343.64 102.067C343.383 102.067 343.119 102.002 342.868 102.048C342.811 102.048 342.508 101.951 342.444 101.97C342.405 101.977 342.257 101.835 342.225 101.867Z" fill="#EDEDED"/>
<rect x="99.3877" y="134.198" width="134.32" height="126.235" rx="1.57641" fill="#232323" stroke="#2E2E2E" strokeWidth="0.916031"/>
<rect x="104.536" y="139.343" width="124.03" height="115.946" rx="1.57641" fill="#FF414C" stroke="#2E2E2E" strokeWidth="0.916031"/>
<path d="M175.711 206.04L185.002 222.333H166.233L156.844 206.04H175.711Z" fill="url(#paint0_linear_3374_51759)"/>
<path d="M184.997 222.336L194.371 206.043L175.608 173.449H156.844L184.997 222.336Z" fill="black"/>
<path d="M147.46 189.738H166.224L147.468 222.332L138.078 206.039L147.46 189.738Z" fill="black"/>
<g opacity="0.45">
<path d="M393.83 52.582C394.557 51.886 395.571 51.971 396.305 52.5975C396.545 52.7909 396.622 53.5256 396.46 53.6648C396.12 53.9355 395.841 54.2449 395.586 54.5078C395.509 54.5852 394.743 55.0647 394.171 55.9386C393.567 56.7894 393.157 58.0037 393.003 58.6378C392.848 59.2566 392.709 59.883 392.577 60.525L392.392 61.4608C392.322 61.8166 392.268 62.1878 392.168 62.5126C392.067 62.8375 391.905 63.1082 391.727 63.317C391.626 63.4098 391.564 63.5335 391.417 63.5799C391.34 63.7114 391.201 63.7192 391.1 63.7965C390.837 64.0672 390.172 63.9744 389.654 64.0131C389.306 63.9512 388.958 63.9589 388.656 63.9666H388.401L388.192 63.9976C387.914 64.0208 387.628 64.0517 387.341 64.1059C386.769 64.1909 386.189 64.3302 385.624 64.4926C384.488 64.8174 383.389 65.2737 382.407 65.8383C382.152 65.9698 381.928 66.1167 381.688 66.2559C381.44 66.3874 381.208 66.5344 380.984 66.6813C380.187 67.1686 379.484 67.795 379.012 68.5452C378.525 69.2645 378.285 70.0457 378.285 70.7959C378.254 71.0434 378.308 71.2909 378.432 71.4997C378.571 71.6621 378.803 72.6134 379.677 73.178C380.481 73.8044 381.866 73.9978 382.175 74.0365C383.699 74.369 385.609 74.2066 387.287 73.7735C387.535 73.7116 387.767 73.5724 388.03 73.5956C388.656 73.6575 389.151 73.3481 389.669 73.0929C390.396 72.7217 391.123 72.3504 391.874 71.9715C392.245 71.7936 392.678 71.7085 393.096 71.5925C393.475 71.4919 393.567 71.9792 393.482 72.0952C393.25 72.4278 393.622 72.4355 393.761 72.567C393.807 72.6134 393.869 72.6753 393.877 72.7294C393.892 72.7835 393.003 73.6807 391.974 74.5546C390.961 75.4441 389.716 76.2639 389.437 76.3722C389.406 76.3876 388.942 76.6197 388.215 76.9058C387.488 77.1997 386.483 77.5091 385.47 77.7179C384.944 77.803 384.418 77.9035 383.9 77.9731C383.374 78.0118 382.863 78.0505 382.407 78.0659C381.935 78.0427 381.525 78.0273 381.201 78.0118C380.868 77.9809 380.62 77.9267 380.497 77.9113C380.234 77.8726 379.979 77.8107 379.723 77.7179C379.476 77.6019 379.221 77.4859 378.973 77.3776C378.942 77.3699 378.811 77.3157 378.594 77.2384C378.385 77.1301 378.099 76.9909 377.767 76.8207C377.426 76.6583 377.078 76.3567 376.692 76.0783C376.336 75.7534 375.941 75.3977 375.64 74.9723C374.967 74.1447 374.596 73.1238 374.402 72.3427C374.248 71.5538 374.201 70.9892 374.224 70.9119C374.248 69.2877 374.696 67.6326 375.717 66.5266C375.918 66.3178 376.065 66.0703 376.22 65.8228C377.666 63.8042 379.731 62.4972 381.796 61.6387C382.863 61.1978 383.923 60.7647 385.037 60.5018C385.238 60.4476 385.447 60.4399 385.655 60.4167C385.918 60.3858 386.174 60.3626 386.429 60.3239C386.854 60.2543 387.272 60.1769 387.713 60.146C387.929 60.1305 388.146 60.0996 388.37 60.0996H388.525C388.602 60.0996 388.718 60.1615 388.772 60.1151C388.795 60.0377 388.811 59.9526 388.834 59.8598L389.066 58.8776C389.174 58.429 389.298 57.9882 389.437 57.5319C389.53 57.2302 389.917 56.395 390.443 55.5906C390.953 54.7785 391.626 54.0361 391.881 53.7344C392.013 53.5565 392.43 53.2936 392.856 53.0848C393.281 52.8682 393.714 52.7058 393.854 52.5743L393.83 52.582Z" fill="#EDEDED"/>
</g>
<path d="M384.179 79.7748C381.395 79.9914 378.371 79.4964 375.896 77.7253C374.682 76.8591 373.668 75.7299 372.949 74.4074C372.222 73.1003 371.812 71.5225 371.936 69.9912C372.036 67.8411 372.864 65.6988 374.241 64.0978C375.262 62.8913 376.499 61.9168 377.845 61.213C379.191 60.5014 380.606 59.9523 382.083 59.6816C383.56 59.4032 385.068 59.3104 386.584 59.4805L387.149 59.5811C387.311 59.612 387.598 59.6584 387.574 59.6661C387.714 59.6893 387.845 59.7512 387.992 59.7976L388.209 59.8672C388.286 59.8827 388.363 59.8286 388.363 59.7512C388.379 59.612 388.379 59.4651 388.417 59.3181L388.448 59.1634C388.448 59.1634 388.456 59.1016 388.456 59.117L388.51 58.9159C388.58 58.653 388.642 58.3823 388.742 58.1348C388.92 57.6166 389.137 57.1216 389.392 56.6498C390.892 53.8578 393.653 51.6691 396.917 51.3288C399.005 51.1432 401.07 51.8006 402.702 53.0148C402.911 53.154 403.104 53.3319 403.29 53.5021C403.483 53.6645 403.661 53.8501 403.831 54.0434C404.164 54.4379 404.442 54.8787 404.667 55.335C405.123 56.2554 405.355 57.284 405.254 58.274C404.968 59.496 404.968 59.2485 404.721 58.3049C404.52 57.8486 404.28 57.2222 403.746 56.673C403.638 56.5261 403.483 56.4024 403.336 56.2709C403.197 56.1317 403.043 56.0079 402.865 55.8919C402.702 55.7682 402.548 55.6367 402.339 55.5516C402.184 55.4124 402.014 55.2886 401.836 55.1726C400.862 54.4688 399.647 54.0744 398.503 53.9738C397.923 53.9738 397.366 53.9429 396.832 54.0434C396.283 54.1517 395.726 54.3064 395.208 54.5694C394.164 55.0721 393.212 55.861 392.493 56.8277C392.137 57.3072 391.813 57.8254 391.581 58.3745C391.449 58.6452 391.364 58.9314 391.271 59.2098L391.155 59.6352C391.101 59.8827 391.101 60.0219 391.07 60.2075L391.008 60.7334C390.977 60.9113 390.962 61.1279 390.915 61.2748L390.714 61.6461C390.567 61.8858 390.498 62.172 390.274 62.3344C390.158 62.435 390.011 62.52 389.879 62.5742C389.809 62.5974 389.771 62.6283 389.686 62.6206L389.446 62.5974L388.502 62.5123L388.038 62.4659L387.806 62.4427L387.536 62.3576C387.443 62.3344 387.365 62.2957 387.257 62.2803L387.01 62.2339L386.754 62.1797C386.422 62.0869 386.066 62.056 385.71 62.0173C381.735 61.5842 377.118 63.773 375.323 67.2997C374.798 68.251 374.62 69.3493 374.55 70.4088C374.535 71.4297 374.867 72.4738 375.432 73.4019C376.569 75.2968 378.603 76.5574 380.884 76.9442C383.7 77.4469 386.754 76.8436 389.446 75.5984C390.235 75.2272 391.001 74.7941 391.728 74.3145C392.091 74.0748 392.447 73.8196 392.795 73.5489C392.973 73.4174 393.135 73.2782 393.305 73.139C393.375 73.0848 393.522 72.9533 393.638 72.8451L394.009 72.5048C394.202 72.3269 394.404 72.2341 394.597 72.0949C394.783 71.9479 395.007 71.8628 395.254 71.917C395.37 71.9402 395.455 71.9943 395.517 72.0562L395.788 72.2418C396.005 72.3888 396.213 72.5512 396.407 72.7523L396.67 72.9224C396.731 72.9688 396.817 73.0075 396.886 73.0462C397.033 73.1235 397.172 73.2086 397.327 73.2859C397.636 73.4329 397.938 73.5875 398.263 73.7036C399.531 74.214 400.885 74.5543 402.223 74.6471C403.924 74.7709 405.603 74.3996 406.941 73.5566C407.296 73.3787 407.567 73.0694 407.884 72.8373C408.17 72.5821 408.41 72.3037 408.619 71.9866C409.044 71.3679 409.33 70.6486 409.477 69.8984C409.609 69.241 409.609 68.5836 409.539 67.9262C409.361 66.7197 408.998 66.0313 408.781 65.5054C408.681 65.2347 408.58 65.0259 408.534 64.8016C408.511 64.5541 408.495 64.3298 408.48 64.1133C408.472 63.9122 408.402 63.6879 408.402 63.5332C408.402 63.278 408.681 63.2548 409.354 63.4249C409.686 63.5023 410.05 63.7343 410.405 64.0823C410.769 64.4304 411.14 64.9021 411.434 65.4899C412.339 67.2533 412.432 69.3492 411.867 71.2828C411.573 72.2495 411.117 73.1931 410.429 74.0207C410.081 74.4306 409.694 74.825 409.292 75.1112L408.688 75.5829C408.48 75.7376 408.248 75.8459 408.023 75.9774C406.221 77.006 404.118 77.3618 402.176 77.2458C400.22 77.1143 398.363 76.627 396.6 75.8382C396.283 75.699 395.966 75.5443 395.649 75.3587C395.502 75.2813 395.308 75.173 395.185 75.088C395.169 75.0725 395.185 75.088 395.177 75.0802C395.177 75.0802 395.161 75.0957 395.192 75.0648L395.053 75.1808C394.852 75.3509 394.651 75.5211 394.434 75.6835C394.017 76.0161 393.584 76.3177 393.143 76.6193C392.261 77.2071 391.325 77.7176 390.359 78.1584C388.425 79.0324 386.36 79.6201 384.202 79.8135L384.187 79.7439L384.179 79.7748Z" fill="#EDEDED"/>
<path d="M72.3575 56.2384C72.7106 56.2825 73.0416 56.4002 73.2696 56.6061C73.4902 56.8342 73.652 57.1136 73.7403 57.4152C73.7991 57.6064 73.527 57.9521 73.3578 57.9301C73.0195 57.9007 72.7253 57.8124 72.4164 57.8345C72.3281 57.8345 71.6147 57.6138 70.8277 57.8345C70.0333 58.0036 69.2169 58.5626 68.8418 58.8862C68.0989 59.5041 67.4075 60.2249 66.8118 61.0266C66.5028 61.4311 66.2454 61.8577 66.0321 62.2843C65.9439 62.4903 65.8409 62.7036 65.7968 62.8801L65.6644 63.3067C65.6129 63.4832 65.5467 63.6597 65.4658 63.8362C65.1642 64.5423 64.642 65.2117 64.0242 65.675C63.4063 66.1458 62.737 66.4179 62.1118 66.6165C61.5528 66.793 61.0086 66.8886 60.4937 66.9548C58.7505 67.1461 57.0883 67.4697 56.7058 68.4406C56.6249 68.595 56.544 68.7863 56.5661 68.9922C56.5661 69.0731 56.5293 69.3379 56.5366 69.7498C56.5808 70.1028 56.5808 70.3235 56.8308 70.5809C57.0662 70.8236 57.4266 71.0884 57.8311 71.2135C58.015 71.2944 58.1915 71.3458 58.346 71.3826C58.4931 71.4194 58.6034 71.4562 58.6623 71.4709C59.8979 71.8092 61.3469 71.7724 62.737 71.5444C62.9356 71.515 63.1415 71.4415 63.3401 71.4562C63.8035 71.5003 64.2301 71.3458 64.642 71.184C65.2304 70.9854 65.7968 70.728 66.3852 70.4927C66.6647 70.3603 66.9809 70.2941 67.2898 70.2058C67.5693 70.1249 67.5914 70.4338 67.5178 70.5074C67.3119 70.728 67.5841 70.7207 67.665 70.7942C67.6944 70.8236 67.7312 70.8604 67.7312 70.8898C67.7312 70.9119 67.5473 71.0664 67.2531 71.3091C66.9662 71.5591 66.5396 71.8386 66.1057 72.1181C65.6717 72.4123 65.1863 72.6404 64.8038 72.8463C64.4066 73.0302 64.0977 73.1478 63.9947 73.1846C63.9727 73.192 63.6123 73.3244 63.0533 73.4641C62.5017 73.6186 61.7514 73.773 60.9571 73.8466C60.5599 73.8907 60.1627 73.9201 59.7655 73.9128C59.3757 73.9275 59.0006 73.8981 58.6549 73.8613C58.3166 73.8466 58.0077 73.773 57.7723 73.7216C57.5296 73.6774 57.3531 73.6406 57.2648 73.6039C56.8823 73.4862 56.5219 73.3244 56.1689 73.0743C56.1321 73.0449 55.7791 72.8978 55.3157 72.4932C55.073 72.3314 54.8523 72.0078 54.6169 71.6989C54.4993 71.5444 54.4331 71.3385 54.3374 71.1473C54.2492 70.9487 54.1683 70.7501 54.1462 70.5368C54.1094 70.3308 54.08 70.1175 54.058 69.9042C54.0506 69.713 54.058 69.5659 54.058 69.3967C54.058 69.0731 54.1021 68.7495 54.1609 68.47C54.2639 67.9036 54.4625 67.4991 54.4846 67.4476C54.7641 66.8666 55.198 66.3223 55.7055 65.9398C56.213 65.5574 56.7646 65.3293 57.2869 65.2264C57.4928 65.1822 57.6914 65.116 57.89 65.0572C59.5375 64.5791 61.0895 64.5276 62.1854 63.9981C62.7444 63.7333 63.0753 63.3508 63.2886 62.8433C63.3328 62.755 63.3916 62.6668 63.4284 62.5638L63.5167 62.3579C63.5534 62.2475 63.5902 62.1372 63.6343 62.0342C64.0094 60.931 64.5831 60.1072 65.2304 59.2981C65.8777 58.5038 66.6132 57.783 67.4443 57.1284C67.6282 56.9739 68.246 56.6061 68.93 56.3487C69.6141 56.0766 70.3717 55.9589 70.6659 55.9221C70.835 55.9074 71.1954 55.9221 71.5411 56.0104C71.8868 56.1134 72.2104 56.2016 72.3575 56.209V56.2384Z" fill="#EDEDED"/>
<path d="M65.7893 73.699C63.8991 74.8832 61.7881 75.4421 59.6478 75.5598C58.5813 75.5966 57.4927 75.5525 56.3527 75.2068C55.2568 74.8537 54.205 74.258 53.4033 73.3165C52.8222 72.6398 52.3809 71.7572 52.2559 70.8231C52.1308 69.9037 52.3368 68.9255 52.6457 68.2268C53.3665 66.2041 55.0582 64.5051 56.9779 63.7107C57.9341 63.2915 58.927 63.0193 59.9273 62.8649C60.4274 62.7987 60.9276 62.7472 61.4277 62.7251H62.178C62.5016 62.7251 62.4869 62.7251 62.6119 62.7398C62.6781 62.7472 62.7443 62.7545 62.8105 62.7692L62.9135 62.7839C62.9503 62.7839 62.9576 62.7398 62.9723 62.7104C63.0091 62.5854 63.0312 62.453 63.0606 62.3206L63.1341 61.9822L63.2445 61.4968C63.3254 61.1732 63.4136 60.8495 63.5166 60.5333C63.8844 59.4006 64.4213 58.2753 65.2524 57.3411C66.0688 56.3923 67.1721 55.701 68.3195 55.3185C69.055 55.0905 69.8494 54.936 70.6584 54.9654C71.4602 54.9949 72.2619 55.1714 72.99 55.5244C73.7182 55.8848 74.336 56.4659 74.7626 57.1426C75.1892 57.8266 75.3878 58.6136 75.4025 59.3638C75.351 60.3053 75.2628 60.1361 75.0053 59.43C74.8362 59.0917 74.6082 58.6136 74.1742 58.2164C73.7623 57.8119 73.2107 57.5103 72.6076 57.3191C71.7249 56.944 70.6732 56.8483 69.7611 57.1058C68.7535 57.4147 67.8341 57.7825 67.1427 58.4738C66.4366 59.1358 65.9364 60.0625 65.5907 61.107C65.5025 61.3644 65.4289 61.6439 65.3627 61.916L65.2671 62.3426L65.223 62.5633L65.1494 62.9752C65.0538 63.5562 64.9288 64.1667 64.6125 64.4977C64.539 64.586 64.4581 64.6816 64.3257 64.711C64.2668 64.814 64.1344 64.8066 64.0388 64.8581C63.8697 64.9684 63.524 64.9096 63.2592 64.9243C63.0826 64.8949 62.9135 64.8728 62.7443 64.8581C62.656 64.8507 62.5751 64.8434 62.4942 64.8434L62.2956 64.8287C62.1338 64.814 61.9647 64.814 61.7955 64.8066C61.4645 64.7919 61.1262 64.8066 60.7878 64.814C59.2065 64.8949 57.5957 65.3877 56.4042 66.3585C55.8084 66.8366 55.3009 67.425 54.9552 68.1164C54.7493 68.44 54.6242 68.8152 54.4918 69.1829C54.3374 69.558 54.308 69.867 54.2712 70.2053C54.2565 70.9187 54.5213 71.6028 55.0729 72.1544C55.6098 72.706 56.3748 73.1253 57.1838 73.3312C57.9708 73.5372 58.9343 73.5666 59.8243 73.5077C60.729 73.4415 61.641 73.265 62.509 72.9782C63.1415 72.7722 63.7593 72.5074 64.3257 72.1765C64.6125 72.0146 64.892 71.8381 65.1494 71.6395C65.2745 71.5366 65.4142 71.4483 65.5319 71.338L65.7305 71.1614C65.8408 71.0585 65.9291 70.9702 66.0247 70.8672C66.3042 70.6981 66.5396 70.345 66.9 70.4554C67.2383 70.4995 67.5913 70.6539 67.9297 70.7863L69.2904 71.3306C70.96 71.9779 72.6811 72.5074 74.4169 72.7134C76.1307 72.9267 77.9327 72.7722 79.2566 71.8528C79.7715 71.4998 80.1907 71.0438 80.5217 70.5142C80.6835 70.2568 80.8306 69.9626 80.9409 69.6831L81.066 69.2859C81.1101 69.1535 81.1027 69.0138 81.1248 68.8814C81.1616 68.3371 81.0365 67.8002 80.7791 67.3074C80.507 66.8146 80.1098 66.388 79.6538 66.0276C79.2492 65.7113 78.7859 65.498 78.3078 65.2994C77.4105 64.9464 76.7706 64.9169 76.3219 64.7625C75.8659 64.6595 75.5717 64.4903 75.2922 64.277C75.1671 64.1741 74.998 64.0932 74.9097 63.9976C74.7553 63.8431 74.8876 63.6519 75.3069 63.3724C75.5128 63.2105 75.807 63.1223 76.1748 63.0414C76.3587 62.9899 76.5573 62.9605 76.7706 62.9531C76.9839 62.9531 77.2266 62.909 77.4693 62.9458C78.9183 63.1002 80.3893 63.6666 81.5367 64.7698C82.1177 65.3068 82.6105 65.9834 82.9268 66.7925C83.2504 67.5869 83.3902 68.5283 83.2137 69.4256L83.1548 69.764L83.0518 70.0876C82.9783 70.2935 82.9048 70.5289 82.8165 70.7128C82.6547 71.0658 82.4561 71.4115 82.2354 71.7499C81.7868 72.4192 81.1984 73.037 80.5143 73.5225C79.1316 74.5007 77.4767 74.8464 75.9836 74.8684C74.0712 74.8979 72.2986 74.4933 70.6217 73.9785C69.7832 73.7137 68.9594 73.4268 68.1577 73.1179L67.1795 72.7354C67.1795 72.7354 67.15 72.7134 67.1353 72.7354H67.128C67.1721 72.6987 67.0765 72.7869 67.0176 72.8384C66.8926 72.9561 66.7602 73.0738 66.6278 73.1694C66.363 73.3827 66.0909 73.5813 65.8041 73.7578L65.7746 73.721L65.7893 73.699Z" fill="#EDEDED"/>
<path d="M306.649 271.936C306.84 271.73 307.083 271.62 307.326 271.59C307.583 271.59 307.848 271.664 308.083 271.804C308.238 271.892 308.341 272.318 308.252 272.421C308.083 272.627 307.921 272.789 307.789 272.995C307.745 273.054 307.296 273.378 306.936 273.929C306.561 274.466 306.266 275.194 306.134 275.577C305.869 276.371 305.619 277.121 305.362 277.886L305.053 278.798C305.001 278.953 304.935 279.122 304.862 279.306C304.803 279.475 304.685 279.688 304.545 279.931C304.354 280.13 304.17 280.358 303.979 280.527C303.795 280.652 303.596 280.784 303.413 280.88L302.905 281.1C302.743 281.159 302.596 281.203 302.434 281.262C301.824 281.453 301.265 281.586 300.743 281.726C300.375 281.821 300.029 281.895 299.684 281.968C298.507 282.211 297.573 282.748 297.44 283.564C297.389 283.689 297.367 283.851 297.426 284.006C297.455 284.248 297.396 284.484 297.852 284.962C298.301 285.425 299.088 285.705 299.22 285.756C299.566 285.925 300.051 285.984 300.551 285.999C301.044 285.999 301.552 285.947 302.052 285.83C302.199 285.8 302.331 285.719 302.486 285.742C302.846 285.8 303.14 285.616 303.435 285.477C303.847 285.271 304.244 285.035 304.648 284.793C304.847 284.675 305.09 284.601 305.318 284.498C305.524 284.41 305.627 284.682 305.59 284.756C305.479 284.969 305.7 284.94 305.796 285.006C305.825 285.028 305.869 285.057 305.884 285.087C305.899 285.116 305.443 285.749 304.825 286.308C304.222 286.882 303.449 287.352 303.288 287.411C303.266 287.411 302.986 287.551 302.552 287.705C302.111 287.86 301.515 288.029 300.875 288.11C300.559 288.154 300.228 288.176 299.912 288.183C299.75 288.183 299.595 288.183 299.448 288.176C299.286 288.161 299.117 288.154 298.97 288.125C298.382 288.029 297.977 287.874 297.837 287.823C297.543 287.72 297.286 287.536 297.028 287.352C296.992 287.293 295.962 286.823 295.322 285.616C294.998 285.043 294.925 284.197 294.991 283.822C295.006 283.601 295.02 283.41 295.035 283.27C295.065 283.13 295.094 283.035 295.101 283.013C295.315 282.064 295.977 281.108 296.8 280.725C296.962 280.644 297.102 280.527 297.249 280.446C298.521 279.666 299.809 279.482 300.949 279.217C301.515 279.092 302.089 278.909 302.412 278.732C302.456 278.703 302.515 278.695 302.567 278.681C302.604 278.659 302.618 278.658 302.655 278.644C302.662 278.614 302.684 278.57 302.707 278.533L302.787 278.342C302.846 278.217 302.898 278.041 302.957 277.894L303.31 276.886C303.552 276.195 303.81 275.474 304.097 274.753C304.163 274.584 304.428 274.128 304.744 273.686C305.053 273.238 305.443 272.826 305.575 272.649C305.656 272.554 305.884 272.399 306.119 272.267C306.369 272.142 306.597 272.032 306.671 271.943L306.649 271.936Z" fill="#EDEDED"/>
<path d="M305.515 287.183C303.868 288.323 302 288.911 300.095 289.103C299.138 289.183 298.168 289.183 297.116 288.919C296.108 288.647 295.13 288.154 294.35 287.33C293.784 286.734 293.343 285.947 293.188 285.087C293.034 284.248 293.181 283.336 293.431 282.704C293.983 280.88 295.417 279.291 297.072 278.489C297.895 278.07 298.756 277.783 299.624 277.607C300.058 277.518 300.492 277.452 300.933 277.408C301.154 277.378 301.374 277.378 301.588 277.364C301.727 277.356 301.757 277.364 301.794 277.364H301.919C301.985 277.378 302.044 277.378 302.103 277.386C302.161 277.386 302.242 277.437 302.279 277.386C302.323 277.276 302.331 277.15 302.353 277.033L302.463 276.43C302.522 276.128 302.588 275.827 302.669 275.525C302.948 274.503 303.382 273.473 304.089 272.598C304.78 271.715 305.736 271.046 306.751 270.641C307.398 270.413 308.104 270.237 308.833 270.229C309.553 270.222 310.282 270.347 310.951 270.634C311.62 270.928 312.194 271.443 312.598 272.039C313.003 272.642 313.202 273.341 313.231 274.01C313.209 274.848 313.106 274.694 312.819 274.098C312.635 273.811 312.392 273.414 311.981 273.12C311.583 272.811 311.076 272.62 310.561 272.517C309.803 272.267 308.921 272.245 308.178 272.517C307.965 272.598 307.759 272.671 307.567 272.774C307.369 272.855 307.178 272.943 307.001 273.046C306.641 273.252 306.332 273.502 306.052 273.797C305.508 274.385 305.111 275.187 304.868 276.113C304.809 276.341 304.75 276.584 304.706 276.827L304.677 277.018L304.64 277.283L304.537 278.07C304.456 278.592 304.28 279.011 303.986 279.291C303.816 279.445 303.647 279.475 303.471 279.57L302.743 279.637L301.904 279.592H301.463C301.191 279.592 300.926 279.6 300.654 279.622C299.293 279.732 297.925 280.225 296.961 281.1C296.476 281.534 296.071 282.049 295.807 282.645C295.645 282.932 295.557 283.255 295.461 283.572C295.343 283.903 295.336 284.145 295.314 284.425C295.329 285.006 295.564 285.543 296.042 285.984C296.505 286.425 297.175 286.749 297.866 286.889C298.535 287.036 299.374 287.021 300.139 286.933C300.918 286.845 301.698 286.653 302.441 286.366C302.971 286.168 303.478 285.918 303.949 285.624C304.191 285.484 304.412 285.315 304.625 285.146C304.853 284.954 304.986 284.859 305.354 284.447L305.714 284.153L305.89 284.005H305.905V283.991C305.905 283.991 305.883 283.917 305.927 284.057H305.957C305.957 284.057 305.993 284.035 306.008 284.028L306.119 284.005L306.339 283.976L306.575 284.028C306.729 284.064 306.898 284.123 307.045 284.167L308.399 284.638C309.892 285.131 311.414 285.528 312.929 285.638C314.43 285.741 315.982 285.543 317.063 284.689C317.49 284.373 317.828 283.954 318.078 283.483C318.218 283.263 318.306 282.99 318.402 282.755C318.46 282.527 318.519 282.299 318.512 282.078C318.512 281.63 318.38 281.196 318.144 280.799C317.894 280.401 317.534 280.07 317.137 279.791C316.783 279.541 316.372 279.394 315.967 279.247C315.195 278.997 314.658 278.982 314.268 278.842C313.878 278.754 313.613 278.577 313.349 278.349C313.231 278.246 313.069 278.158 312.981 278.063C312.834 277.901 312.929 277.702 313.29 277.401C313.466 277.231 313.724 277.128 314.047 277.025C314.371 276.908 314.768 276.864 315.209 276.856C316.526 276.915 317.887 277.349 318.99 278.298C319.542 278.761 320.034 279.357 320.365 280.085C320.704 280.799 320.88 281.667 320.755 282.512C320.741 282.726 320.704 282.932 320.638 283.13C320.579 283.321 320.52 283.549 320.446 283.719C320.299 284.042 320.159 284.373 319.961 284.689C319.593 285.322 319.078 285.918 318.468 286.381C317.865 286.852 317.181 287.205 316.489 287.433C315.798 287.654 315.099 287.771 314.422 287.815C312.687 287.926 311.076 287.632 309.553 287.242C308.788 287.036 308.038 286.815 307.317 286.572L306.78 286.389C306.67 286.352 306.663 286.344 306.655 286.344C306.641 286.33 306.626 286.33 306.619 286.344C306.597 286.359 306.641 286.322 306.56 286.396C306.457 286.499 306.347 286.602 306.236 286.69C306.023 286.881 305.795 287.058 305.56 287.22L305.523 287.176L305.515 287.183Z" fill="#EDEDED"/>
</g>
<rect x="0.268545" y="0.268545" width="479.463" height="321.906" rx="3.39558" stroke="#3E3E3E" strokeWidth="0.53709"/>
<defs>
<linearGradient id="paint0_linear_3374_51759" x1="168.158" y1="212.629" x2="174.803" y2="203.328" gradientUnits="userSpaceOnUse">
<stop/>
<stop offset="1" stop-opacity="0.127613"/>
</linearGradient>
<clipPath id="clip0_3374_51759">
<rect width="480" height="322.443" rx="3.66412" fill="white"/>
</clipPath>
</defs>
</svg>
