<svg width="524" height="352" viewBox="0 0 524 352" fill="none" xmlns="http://www.w3.org/2000/svg">
<g clip-path="url(#clip0_3374_50075)">
<rect width="524" height="352" rx="4" fill="white"/>
<line x1="576" y1="96.375" x2="-26" y2="96.375" stroke="#E2E4E8" strokeWidth="0.75"/>
<line x1="576" y1="176.375" x2="-26" y2="176.375" stroke="#E2E4E8" strokeWidth="0.75"/>
<line x1="576" y1="236.375" x2="-26" y2="236.375" stroke="#E2E4E8" strokeWidth="0.75"/>
<line x1="576" y1="316.375" x2="-26" y2="316.375" stroke="#E2E4E8" strokeWidth="0.75"/>
<line x1="576" y1="16.375" x2="-26" y2="16.375" stroke="#E2E4E8" strokeWidth="0.75"/>
<line x1="576" y1="56.375" x2="-26" y2="56.375" stroke="#E2E4E8" strokeWidth="0.75"/>
<line x1="576" y1="136.375" x2="-26" y2="136.375" stroke="#E2E4E8" strokeWidth="0.75"/>
<line x1="576" y1="196.375" x2="-26" y2="196.375" stroke="#E2E4E8" strokeWidth="0.75"/>
<line x1="576" y1="256.375" x2="-26" y2="256.375" stroke="#E2E4E8" strokeWidth="0.75"/>
<line x1="576" y1="76.375" x2="-26" y2="76.375" stroke="#E2E4E8" strokeWidth="0.75"/>
<line x1="576" y1="156.375" x2="-26" y2="156.375" stroke="#E2E4E8" strokeWidth="0.75"/>
<line x1="576" y1="216.375" x2="-26" y2="216.375" stroke="#E2E4E8" strokeWidth="0.75"/>
<line x1="576" y1="276.375" x2="-26" y2="276.375" stroke="#E2E4E8" strokeWidth="0.75"/>
<line x1="576" y1="336.375" x2="-26" y2="336.375" stroke="#E2E4E8" strokeWidth="0.75"/>
<line x1="576" y1="36.375" x2="-26" y2="36.375" stroke="#E2E4E8" strokeWidth="0.75"/>
<line x1="576" y1="116.375" x2="-26" y2="116.375" stroke="#E2E4E8" strokeWidth="0.75"/>
<line x1="576" y1="296.375" x2="-26" y2="296.375" stroke="#E2E4E8" strokeWidth="0.75"/>
<rect x="268.109" y="68.5" width="146.633" height="137.807" rx="1.72091" fill="white" stroke="#E6E8EB"/>
<rect x="273.727" y="74.1163" width="135.4" height="126.574" rx="1.72091" fill="white" stroke="#E6E8EB"/>
<path d="M303.547 151.245C303.189 151.336 299.313 153.337 300.57 154.468C302.944 156.589 308.456 158.59 308.456 158.59C308.456 158.59 304.608 155.233 304.404 154.054C304.201 152.867 303.547 151.245 303.547 151.245Z" fill="#231F20"/>
<path d="M378.251 155.269C379.199 154.953 383.455 156.055 382.781 156.772C381.011 158.654 374.516 162.101 374.516 162.101L378.034 158.626L378.244 155.276L378.251 155.269Z" fill="#231F20"/>
<path d="M304.396 150.915L304.221 147.895C304.2 147.53 304.151 147.165 304.137 146.8C304.073 145.508 304.052 144.216 304.059 142.924C304.059 142.348 304.038 141.772 304.024 141.203C304.017 140.473 304.059 139.736 304.144 139.013C304.172 138.788 304.214 138.816 304.284 139.013C304.354 139.202 304.481 139.56 304.544 139.975C304.593 140.347 304.663 140.712 304.705 141.084L304.776 142.194C304.818 142.931 304.853 143.675 304.867 144.42C304.867 145.311 304.979 146.238 305.042 147.151L305.267 150.164C305.316 150.781 305.372 151.392 305.478 151.989C305.632 152.895 305.857 153.794 306.278 154.58C306.601 155.198 307.086 155.683 307.57 156.118C307.676 156.217 307.795 156.294 307.907 156.378C308.329 156.694 308.448 156.82 308.441 157.115C308.441 157.186 308.441 157.256 308.441 157.319C308.413 157.523 308.104 157.586 307.655 157.389C307.002 157.094 306.377 156.631 305.948 156.02C305.506 155.423 305.169 154.742 304.944 154.04C304.607 153 304.488 151.94 304.375 150.915H304.396Z" fill="#231F20"/>
<path d="M344.4 117.195C327.224 111.43 346.528 103.853 350.594 104.871L345.615 103.277L326.789 110.742L336.149 114.435L344.407 117.202L344.4 117.195Z" fill="#231F20"/>
<path d="M329.48 132.095C330.702 137.144 322.858 137.144 318.336 136.372L332.541 141.765L341.607 137.144L329.473 132.095H329.48Z" fill="#231F20"/>
<path d="M358.041 147.481C346.188 143.485 362.542 133.942 366.215 134.595L361.819 132.489L349.313 139.714L345.542 138.443L340.711 141.07L358.048 147.474L358.041 147.481Z" fill="#231F20"/>
<path d="M338.979 141.077C338.944 141.091 337.484 142.243 337.477 142.678L337.512 163.175L339.71 161.785L338.986 141.077H338.979Z" fill="#231F20"/>
<path d="M332.67 159.587C332.67 159.587 334.039 165.303 338.765 161.56C341.286 159.566 334.278 165.233 333.091 165.071C331.904 164.91 332.677 159.58 332.677 159.58L332.67 159.587Z" fill="#231F20"/>
<path d="M363.598 168.519C363.38 168.582 363.198 168.554 363.071 168.435C362.847 168.463 362.812 168.252 362.706 168.098C362.636 167.88 362.629 167.599 362.587 167.36C362.566 167.248 362.559 167.086 362.559 167.009L362.545 166.799L362.503 165.963C362.496 165.661 362.446 165.366 362.446 165.064C362.425 164.011 362.446 162.95 362.46 161.897C362.46 161.427 362.474 160.956 362.496 160.493C362.503 160.191 362.517 159.896 362.552 159.594C362.608 159.292 362.692 158.997 362.819 158.709C362.896 158.534 362.903 158.569 362.924 158.73C362.931 158.892 363.043 159.194 363.106 159.524C363.149 160.114 363.198 160.703 363.24 161.3C363.275 161.897 363.268 162.501 363.268 163.105C363.254 163.828 363.373 164.58 363.429 165.317L363.521 166.405L363.57 166.925L363.584 167.171C363.584 167.213 363.584 167.248 363.598 167.29C363.598 167.374 363.689 167.318 363.731 167.318C363.788 167.304 363.837 167.283 363.893 167.262L364.097 167.178L364.434 167.016C365.108 166.679 365.796 166.328 366.442 165.935C366.941 165.626 367.418 165.289 367.903 164.973C368.008 164.903 368.113 164.825 368.219 164.762C368.626 164.516 368.787 164.495 368.998 164.629C369.047 164.657 369.096 164.685 369.138 164.72C369.272 164.839 369.181 165.064 368.914 165.31C368.127 166.033 367.228 166.686 366.252 167.227C365.894 167.438 365.529 167.634 365.164 167.831L364.602 168.119L364.132 168.35C363.956 168.428 363.767 168.519 363.598 168.554V168.526V168.519Z" fill="#231F20"/>
<path d="M360.568 167.768C360.568 167.768 360.603 167.768 360.617 167.761C360.631 167.754 360.645 167.761 360.687 167.628C360.73 167.536 360.758 167.417 360.786 167.298C360.849 167.059 360.891 166.792 360.926 166.525C360.961 166.28 360.947 166.02 360.968 165.767C361.046 164.868 361.144 163.941 361.2 163.014C361.228 162.6 361.221 162.186 361.214 161.778C361.228 161.512 361.242 161.245 361.27 160.985C361.277 160.718 361.446 160.451 361.551 160.198C361.635 160.044 361.649 160.072 361.734 160.22C361.776 160.297 361.839 160.402 361.923 160.521C361.979 160.599 362.022 160.662 362.064 160.718C362.092 160.753 362.106 160.788 362.134 160.823C362.141 160.859 362.148 160.894 362.155 160.929L362.281 161.708C362.309 161.968 362.302 162.235 362.316 162.495C362.324 163.028 362.316 163.562 362.26 164.103C362.204 164.749 362.26 165.43 362.211 166.104C362.183 166.476 362.148 166.848 362.085 167.235C361.993 167.642 361.979 167.965 361.677 168.491L361.656 168.527C361.446 168.779 361.151 168.969 360.821 169.011C360.547 169.06 360.301 169.053 360.062 169.053C359.332 169.011 358.658 168.85 357.984 168.716C357.464 168.611 356.931 168.576 356.418 168.442C356.306 168.414 356.186 168.4 356.074 168.365C355.66 168.232 355.554 168.091 355.582 167.761C355.582 167.684 355.582 167.607 355.603 167.536C355.653 167.298 355.884 167.164 356.193 167.178C356.65 167.213 357.12 167.227 357.57 167.319C358.019 167.403 358.468 167.494 358.918 167.579C359.248 167.635 359.578 167.691 359.887 167.719C360.048 167.74 360.182 167.74 360.322 167.74L360.498 167.726C360.561 167.712 360.533 167.726 360.54 167.726L360.554 167.754L360.568 167.768Z" fill="#231F20"/>
<path d="M351.005 138.261C350.822 138.289 350.653 138.289 350.415 138.303C350.134 138.254 349.839 138.233 349.593 138.1C349.495 137.987 349.425 137.861 349.347 137.742C349.284 137.608 349.277 137.433 349.235 137.278L349.186 136.695C349.165 136.443 349.13 136.19 349.116 135.937C349.102 135.488 349.102 135.045 349.102 134.603C349.13 134.16 349.158 133.711 349.193 133.269C349.221 132.875 349.256 132.482 349.284 132.096C349.34 131.597 349.411 131.099 349.558 130.621C349.635 130.319 349.614 130.727 349.656 131.295C349.656 132.3 349.797 133.29 349.839 134.294C349.846 134.898 349.937 135.516 350.014 136.127L350.113 136.871L350.141 137.053V137.131C350.162 137.18 350.148 137.25 350.197 137.278C350.267 137.313 350.33 137.32 350.429 137.32C350.78 137.306 351.194 137.201 351.58 137.089C352.177 136.913 352.781 136.709 353.35 136.443C353.792 136.239 354.186 135.951 354.6 135.698C354.691 135.642 354.775 135.579 354.867 135.53C355.218 135.347 355.351 135.368 355.576 135.614C355.625 135.67 355.688 135.719 355.737 135.775C355.906 135.965 355.836 136.239 355.604 136.45C354.916 137.089 354.038 137.433 353.146 137.756C352.472 137.987 351.784 138.177 351.026 138.289V138.261H351.005Z" fill="#231F20"/>
<path d="M356.836 124.112C357.117 123.691 357.405 123.276 357.692 122.855C357.791 122.701 357.889 122.546 357.987 122.392C358.353 121.858 358.732 121.317 359.097 120.784C359.258 120.545 359.399 120.292 359.553 120.046C359.75 119.737 359.954 119.428 360.192 119.14C360.27 119.049 360.305 119.091 360.312 119.211C360.312 119.33 360.312 119.534 360.234 119.73C359.982 120.454 359.56 121.079 359.139 121.704C358.879 122.076 358.669 122.497 358.43 122.897C358.163 123.333 357.903 123.768 357.629 124.196C357.461 124.463 357.292 124.73 357.124 124.99C356.871 125.39 356.611 125.79 356.386 126.205C356.211 126.528 356.077 126.865 355.902 127.181C355.867 127.251 355.832 127.321 355.79 127.391C355.635 127.644 355.544 127.7 355.368 127.672C355.326 127.665 355.284 127.665 355.249 127.651C355.122 127.609 355.094 127.448 355.158 127.237C355.263 126.921 355.368 126.598 355.516 126.296C355.67 125.994 355.846 125.699 356.021 125.404C356.288 124.976 356.562 124.54 356.836 124.105H356.85L356.836 124.112Z" fill="#231F20"/>
<path d="M359.611 125.846C359.759 125.615 359.913 125.39 360.061 125.158C360.117 125.074 360.145 124.983 360.201 124.898C360.398 124.604 360.601 124.316 360.784 124.021C360.868 123.887 360.924 123.747 361.001 123.613C361.093 123.438 361.163 123.255 361.317 123.108C361.409 123.017 361.767 123.368 361.718 123.599C361.626 124 361.43 124.358 361.163 124.674C361.008 124.87 360.924 125.109 360.805 125.327C360.671 125.566 360.531 125.804 360.398 126.043C360.313 126.19 360.229 126.338 360.145 126.485C360.025 126.71 359.892 126.928 359.787 127.16C359.709 127.342 359.667 127.539 359.611 127.721C359.597 127.763 359.59 127.806 359.576 127.848C359.513 127.995 359.443 128.016 359.239 127.953L359.099 127.911C358.944 127.855 358.853 127.735 358.86 127.609C358.881 127.23 359.014 126.893 359.169 126.556C359.288 126.31 359.443 126.078 359.576 125.839H359.597L359.611 125.846Z" fill="#231F20"/>
<path d="M369.631 154.138C369.918 153.674 370.206 153.218 370.494 152.754C370.6 152.586 370.677 152.403 370.789 152.235C371.168 151.645 371.569 151.069 371.962 150.486C372.137 150.226 372.306 149.967 372.474 149.707C372.692 149.377 372.889 149.026 373.198 148.766C373.296 148.681 373.366 148.752 373.415 148.913C373.458 149.068 373.493 149.321 373.387 149.517C373.205 149.868 373.029 150.219 372.84 150.57C372.643 150.915 372.411 151.238 372.18 151.561C371.892 151.947 371.702 152.41 371.463 152.846C371.203 153.316 370.944 153.794 370.684 154.271C370.522 154.566 370.361 154.861 370.206 155.156C369.975 155.605 369.708 156.048 369.483 156.497C369.308 156.848 369.195 157.22 369.013 157.571C368.977 157.649 368.949 157.726 368.893 157.796C368.704 158.056 368.584 158.105 368.381 158.07C368.331 158.063 368.282 158.056 368.247 158.042C368.107 158 368.058 157.817 368.086 157.571C368.156 156.827 368.472 156.188 368.788 155.535C369.027 155.05 369.329 154.594 369.595 154.124L369.617 154.138H369.631Z" fill="#231F20"/>
<path d="M371.655 157.08C371.824 156.792 372 156.497 372.168 156.209C372.231 156.104 372.266 155.984 372.33 155.879C372.561 155.507 372.807 155.128 373.039 154.762C373.137 154.594 373.235 154.425 373.327 154.257C373.446 154.039 373.544 153.807 373.755 153.639C373.874 153.534 374.317 154.039 374.24 154.299C374.155 154.524 374.064 154.748 373.966 154.966C373.839 155.17 373.706 155.373 373.551 155.577C373.362 155.816 373.285 156.118 373.151 156.392C373.004 156.694 372.849 156.995 372.695 157.297C372.596 157.48 372.491 157.67 372.393 157.852C372.245 158.133 372.077 158.407 371.95 158.695C371.845 158.92 371.796 159.165 371.712 159.404C371.691 159.453 371.684 159.509 371.655 159.559C371.564 159.741 371.473 159.762 371.227 159.664C371.171 159.643 371.115 159.622 371.059 159.594C370.876 159.502 370.771 159.348 370.792 159.193C370.848 158.751 371.023 158.358 371.206 157.958C371.353 157.663 371.501 157.368 371.641 157.073H371.662L371.655 157.08Z" fill="#231F20"/>
<path d="M311.26 124.961L314.658 123.164C315.073 122.939 315.452 122.665 315.866 122.448C316.604 122.068 317.341 121.696 318.099 121.331L319.251 120.79C319.454 120.699 319.637 120.622 319.876 120.524C320.171 120.404 320.473 120.313 320.782 120.32C321.034 120.369 321.371 120.453 321.512 120.502L322.06 120.657C322.425 120.755 322.783 120.861 323.134 120.98C323.59 121.127 324.047 121.261 324.489 121.429C324.714 121.507 324.932 121.619 325.128 121.766C325.227 121.837 325.332 121.907 325.43 121.984C325.529 122.068 325.599 122.209 325.683 122.314C325.901 122.623 325.753 122.721 325.388 122.946C324.995 123.22 324.37 123.62 323.864 123.508C322.994 123.234 322.088 123.03 321.252 122.7L320.936 122.588C320.894 122.574 320.81 122.546 320.803 122.539V122.525C320.803 122.525 320.754 122.483 320.718 122.469C320.725 122.455 320.599 122.497 320.501 122.525L320.192 122.637L319.539 122.876C318.471 123.269 317.495 123.957 316.47 124.519L313.064 126.359L310.965 127.496C309.912 128.079 308.83 128.634 307.798 129.245C306.997 129.722 306.26 130.291 305.481 130.797C305.305 130.909 305.144 131.036 304.968 131.134C304.631 131.316 304.392 131.415 304.182 131.394C303.964 131.359 303.795 131.239 303.613 131.028C303.529 130.937 303.437 130.846 303.367 130.748C303.255 130.586 303.234 130.396 303.283 130.186C303.339 129.975 303.451 129.743 303.669 129.582C304.933 128.543 306.387 127.665 307.875 126.808C308.992 126.183 310.115 125.551 311.232 124.919L311.26 124.961Z" fill="#231F20"/>
<path d="M331.046 157.607L331.243 151.091C331.271 150.297 331.236 149.504 331.271 148.717C331.334 147.32 331.411 145.922 331.502 144.525C331.552 143.823 331.601 143.128 331.671 142.404C331.699 142.13 331.727 141.857 331.804 141.611C331.868 141.351 332.099 141.189 332.303 141.042C332.408 140.965 332.535 140.909 332.654 140.845C332.773 140.775 332.907 140.719 332.97 140.691L333.455 140.473C334.599 139.968 335.716 139.441 336.811 138.893C337.513 138.542 338.237 138.226 338.953 137.903C339.318 137.749 339.662 137.573 340.041 137.454C340.42 137.334 340.807 137.222 341.193 137.117C341.684 136.997 341.649 137.061 341.382 137.447C341.249 137.636 341.073 137.931 340.835 138.247C340.715 138.402 340.589 138.591 340.434 138.746C340.273 138.893 340.104 139.034 339.908 139.167C339.227 139.617 338.546 140.08 337.843 140.48C337.12 140.845 336.397 141.204 335.666 141.548L334.578 142.06L334.044 142.313L333.785 142.439C333.721 142.467 333.742 142.446 333.721 142.453C333.651 142.453 333.609 142.489 333.581 142.573L333.433 143.745C333.209 145.662 333.279 147.685 333.223 149.665L333.054 156.203C333.026 157.544 332.998 158.885 332.998 160.226V163.267C333.012 163.548 333.012 163.842 333.04 164.137L333.054 164.243C333.054 164.243 333.054 164.278 333.068 164.292C333.082 164.306 333.103 164.285 333.117 164.285L333.314 164.194L333.707 164.011C334.332 163.716 334.957 163.428 335.575 163.133L337.696 162.157C337.998 162.017 338.3 161.869 338.602 161.729C339.732 161.216 340.125 161.118 340.582 161.413C340.68 161.476 340.8 161.525 340.877 161.595C341.123 161.806 340.828 162.368 339.992 162.859C338.749 163.618 337.429 164.194 336.144 164.79L335.168 165.24L334.62 165.493L333.602 166.019L333.089 166.279C332.991 166.342 332.949 166.314 332.886 166.314L332.71 166.293L332.015 166.223L331.839 166.202C331.776 166.202 331.734 166.139 331.692 166.111C331.608 166.047 331.531 165.97 331.46 165.872C331.32 165.682 331.208 165.401 331.165 165.064C331.095 164.566 331.053 164.032 331.018 163.484L330.997 163.189V162.979L330.983 162.564L330.969 160.914V157.621H331.025L331.046 157.607Z" fill="#231F20"/>
<path d="M374.497 160.141C375.276 159.538 376.084 158.906 376.765 158.274C376.856 158.175 376.849 158.196 376.87 158.175C376.884 158.161 376.912 158.147 376.912 158.119C376.919 158.084 376.926 158.084 376.933 158.021L376.969 157.663C377.018 157.192 377.039 156.673 377.067 156.181C377.102 155.444 377.067 154.706 377.109 153.969C377.263 151.357 377.404 148.738 377.488 146.119C377.516 144.953 377.537 143.787 377.523 142.629C377.516 141.147 377.523 139.651 377.973 138.17C378.134 137.706 378.099 137.769 378.282 138.163C378.478 138.556 378.991 139.272 379.173 140.122C379.7 143.148 379.567 146.182 379.321 149.243C379.159 151.076 379.265 152.979 379.187 154.861C379.138 155.9 379.082 156.918 378.977 157.993C378.963 158.119 378.956 158.246 378.907 158.47L378.843 158.765L378.815 158.913V158.948C378.766 158.948 378.787 158.969 378.773 158.976L378.738 159.039C378.633 159.208 378.548 159.39 378.387 159.531C378.24 159.685 378.162 159.755 378.057 159.854C377.657 160.219 377.256 160.556 376.849 160.893C375.852 161.707 374.82 162.466 373.788 163.224C372.222 164.362 370.586 165.415 368.963 166.447C367.692 167.241 366.478 168.083 365.143 168.8C364.856 168.961 364.561 169.116 364.252 169.256C363.69 169.523 363.276 169.628 362.967 169.628C362.658 169.628 362.447 169.509 362.243 169.284C362.152 169.186 362.04 169.095 361.977 168.989C361.766 168.659 362.096 168.097 362.847 167.739C365.031 166.51 367.313 165.155 369.56 163.66C371.232 162.557 372.882 161.377 374.448 160.12L374.483 160.156L374.497 160.141Z" fill="#231F20"/>
<path d="M343.242 161.855C346.247 163.056 349.267 164.228 352.307 165.345C353.417 165.738 354.54 166.117 355.643 166.525C356.619 166.883 357.588 167.241 358.564 167.571C359.048 167.732 359.54 167.894 360.024 168.041C360.263 168.112 360.509 168.182 360.748 168.245C360.832 168.266 360.923 168.294 361.022 168.315C361.071 168.322 361.12 168.329 361.169 168.336C361.218 168.336 361.288 168.329 361.274 168.273C361.274 168.182 361.295 168.083 361.274 167.985L361.26 167.831V167.437L361.295 166.651L361.373 163.519C361.429 161.665 361.373 159.804 361.415 157.965C361.429 156.785 361.436 155.598 361.45 154.419C361.492 153.232 361.471 152.052 361.794 150.872C361.984 150.135 361.956 150.233 362.18 150.858C362.44 151.483 362.981 152.628 363.002 153.99L363.149 157.614C363.17 158.218 363.198 158.821 363.205 159.425L363.177 161.237C363.149 162.445 363.114 163.653 363.086 164.867L363.016 166.686L362.974 167.599L362.953 168.231C362.932 168.498 362.96 168.8 362.903 169.024L362.791 169.411C362.77 169.474 362.756 169.544 362.735 169.6L362.651 169.734C362.503 169.937 362.222 170.029 361.97 170.064C361.703 170.106 361.401 170.078 361.099 170.043L360.642 169.965L360.256 169.881C359.498 169.706 358.775 169.502 358.044 169.298C356.591 168.884 355.144 168.442 353.726 167.964C350.622 166.89 347.567 165.682 344.513 164.481L341.704 163.351L340.3 162.768L339.583 162.466C339.253 162.311 338.853 162.199 338.685 161.918L338.635 161.862V161.848L338.579 161.89V161.869V161.827L338.537 161.665C338.516 161.553 338.488 161.455 338.467 161.335C338.446 158.372 338.418 155.402 338.397 152.466C338.376 150.107 338.284 147.79 338.298 145.451C338.298 144.939 338.298 144.426 338.312 143.907C338.404 141.976 338.558 141.365 339.127 141C339.239 140.915 339.345 140.803 339.436 140.754C339.703 140.599 340.124 141.414 340.089 142.797C340.145 146.947 340.194 151.294 340.25 155.669L340.3 158.365L340.363 160.661C340.363 160.661 340.363 160.682 340.363 160.689L341.212 161.033L343.256 161.827L343.242 161.876V161.855Z" fill="#231F20"/>
<path d="M357.682 146.821L360.091 147.629L361.067 147.938C361.067 147.938 361.13 147.945 361.158 147.938L361.298 147.861L361.565 147.706C363.012 146.856 364.472 145.936 365.919 145.031C366.979 144.371 368.011 143.661 369.079 143.008C370.336 142.243 371.6 141.485 372.864 140.74L374.781 139.631L375.701 139.111C375.82 139.041 375.967 138.978 376.087 138.907L376.529 138.69C376.529 138.69 376.571 138.676 376.578 138.655C376.571 138.641 376.55 138.627 376.536 138.62L376.438 138.57L376.234 138.479L375.792 138.304L374.998 138.009C373.166 137.349 371.298 136.752 369.451 136.155C368.271 135.762 367.078 135.382 365.898 134.975C364.711 134.582 363.553 134.104 362.443 133.508C361.804 132.995 361.874 133.107 362.591 133.058C362.949 133.023 363.433 133.051 364.023 133.072C364.311 133.093 364.634 133.1 364.957 133.156C365.28 133.22 365.61 133.297 365.954 133.402C368.25 134.09 370.546 134.771 372.829 135.544C374.008 135.951 375.195 136.351 376.382 136.759C376.922 136.941 377.491 137.124 378.004 137.335C378.559 137.531 378.839 137.819 378.987 138.058C379.064 138.177 379.106 138.289 379.134 138.402C379.205 138.535 379.036 138.683 378.966 138.802C378.776 139.062 378.587 139.315 378.39 139.56C377.92 139.799 377.491 140.052 377.049 140.291C376.642 140.515 376.234 140.74 375.82 140.972L374.816 141.548C374.149 141.948 373.482 142.348 372.822 142.77C371.501 143.612 370.167 144.462 368.847 145.304L364.479 148.071C363.749 148.535 363.019 148.991 362.26 149.447L361.888 149.658C361.741 149.735 361.579 149.792 361.425 149.848C361.27 149.911 361.102 149.841 360.94 149.834C360.786 149.82 360.596 149.77 360.484 149.735C360.042 149.616 359.641 149.483 359.22 149.363C357.184 148.724 355.168 148.043 353.153 147.362C350.112 146.302 347.065 145.213 344.073 144.083C343.498 143.851 342.908 143.647 342.332 143.43L341.461 143.107C341.342 143.064 341.124 142.973 340.914 142.889L340.289 142.629C339.874 142.454 339.376 142.285 339.2 142.06L338.828 141.737C338.723 141.618 338.519 141.548 338.582 141.33C338.652 141.007 338.835 140.754 339.102 140.473C339.249 140.34 339.39 140.199 339.586 140.073C339.762 139.94 339.952 139.813 340.169 139.701C340.352 139.596 340.527 139.483 340.724 139.385L341.223 139.132C341.468 139.006 341.721 138.886 341.981 138.774C343.891 137.952 344.579 137.959 345.162 138.339C345.288 138.409 345.443 138.458 345.52 138.521C345.653 138.627 345.541 138.795 345.267 139.111C344.993 139.448 344.495 139.736 343.835 140.038C343.35 140.263 342.859 140.487 342.388 140.726L342.03 140.909C341.981 140.937 341.89 140.979 341.876 140.993L341.847 141.021C341.812 141.056 341.784 141.084 341.763 141.112C341.735 141.169 341.679 141.211 341.749 141.246L341.96 141.288C341.812 141.211 342.592 141.52 343.062 141.709C343.582 141.927 344.13 142.109 344.663 142.292C345.752 142.643 346.826 143.05 347.914 143.43C351.145 144.567 354.41 145.691 357.661 146.793L357.647 146.842L357.682 146.821Z" fill="#231F20"/>
<path d="M338.596 126.906C338.336 126.808 338.076 126.71 337.823 126.619C337.725 126.583 337.627 126.59 337.529 126.555C337.191 126.429 336.854 126.232 336.524 126.064C336.377 125.987 336.222 125.937 336.061 125.881C335.857 125.811 335.626 125.755 335.499 125.53C335.457 125.46 335.612 125.27 335.787 125.088C335.97 124.905 336.152 124.723 336.229 124.737C336.524 124.8 336.84 124.87 337.177 125.074C337.374 125.193 337.62 125.179 337.852 125.228C338.104 125.291 338.364 125.362 338.624 125.425C338.785 125.467 338.947 125.509 339.109 125.544C339.354 125.6 339.607 125.671 339.86 125.713C340.056 125.741 340.274 125.692 340.499 125.699C340.548 125.699 340.597 125.685 340.646 125.699C340.829 125.741 340.85 125.86 340.752 126.218L340.681 126.464C340.59 126.731 340.45 126.935 340.33 126.998C339.986 127.173 339.677 127.194 339.347 127.159C339.101 127.11 338.856 127.019 338.596 126.949V126.914V126.906Z" fill="#231F20"/>
<path d="M349.986 153.064C349.623 152.915 349.26 152.765 348.907 152.626C348.769 152.572 348.632 152.583 348.495 152.529C348.024 152.336 347.552 152.037 347.091 151.78C346.885 151.662 346.669 151.587 346.443 151.502C346.159 151.394 345.835 151.309 345.658 150.966C345.599 150.859 345.815 150.57 346.061 150.292C346.316 150.014 346.571 149.735 346.679 149.757C347.091 149.853 347.533 149.96 348.004 150.27C348.279 150.452 348.622 150.431 348.946 150.506C349.299 150.602 349.663 150.709 350.026 150.806C350.251 150.87 350.477 150.934 350.703 150.988C351.046 151.073 351.4 151.18 351.753 151.245C352.028 151.287 352.332 151.212 352.646 151.223C352.715 151.223 352.784 151.202 352.852 151.223C353.108 151.287 353.137 151.469 353 152.015L352.901 152.39C352.774 152.797 352.578 153.107 352.411 153.204C351.93 153.471 351.498 153.503 351.037 153.45C350.693 153.375 350.35 153.236 349.986 153.129V153.075V153.064Z" fill="#231F20"/>
<path d="M348.137 132.826C348.165 131.92 348.193 131.007 348.2 130.095C348.2 129.765 348.158 129.428 348.165 129.098C348.207 127.918 348.229 126.738 348.306 125.558C348.334 125.032 348.32 124.512 348.306 123.992C348.257 123.325 348.327 122.658 348.488 121.991C348.545 121.788 348.72 121.816 348.938 121.991C349.148 122.167 349.436 122.49 349.528 122.862C349.717 123.529 349.696 124.196 349.752 124.87C349.773 125.537 349.801 126.211 349.717 126.893C349.633 127.707 349.759 128.55 349.787 129.378L349.844 132.131L349.865 133.83C349.886 134.687 349.865 135.551 349.9 136.407C349.928 137.075 350.061 137.728 350.124 138.388C350.139 138.535 350.174 138.676 350.174 138.823C350.16 139.371 349.956 139.539 349.542 139.631C349.443 139.652 349.345 139.68 349.254 139.694C348.938 139.729 348.664 139.497 348.502 139.104C348.172 137.952 348.151 136.766 348.102 135.544C348.067 134.638 348.102 133.725 348.088 132.812H348.13L348.137 132.826Z" fill="#231F20"/>
<path d="M334.96 115.327L331.154 113.93L329.251 113.235L326.126 112.139L325.473 111.444L325.305 111.275L325.221 111.191L325.178 111.149L325.157 111.128C325.143 111.128 325.263 111.128 325.214 111.128V111.114C325.157 111.037 325.193 110.988 325.214 110.931C325.235 110.875 325.256 110.819 325.284 110.756C325.396 110.517 325.635 110.222 326.148 109.948C326.667 109.681 327.264 109.429 327.84 109.183L330.312 108.144C331.007 107.849 331.709 107.561 332.418 107.287C334.904 106.325 337.404 105.405 339.918 104.506C341.175 104.064 342.432 103.614 343.703 103.2L344.658 102.884L345.191 102.709L345.556 102.589C345.62 102.554 345.676 102.589 345.739 102.603L345.922 102.659L347.923 103.355C350.156 104.134 352.41 104.871 354.629 105.616C357.501 106.557 360.296 107.61 363.111 108.684C363.989 109.021 363.828 109.12 363.006 109.106C362.592 109.106 362.016 109.078 361.314 109.021C360.963 108.993 360.591 108.958 360.19 108.902C359.987 108.874 359.783 108.846 359.579 108.818C359.376 108.769 359.165 108.719 358.954 108.663C355.935 107.912 353.056 106.901 350.142 105.939C348.688 105.447 347.228 104.956 345.767 104.464C345.704 104.443 345.697 104.436 345.697 104.436L345.683 104.422C345.683 104.422 345.662 104.408 345.648 104.408H345.613L345.36 104.492L344.264 104.85L342.066 105.574C338.555 106.718 335.002 108.2 331.491 109.604L328.977 110.622C328.774 110.707 328.556 110.791 328.345 110.896C328.331 110.903 328.261 110.931 328.303 110.945L328.373 110.974L328.521 111.03L328.83 111.142L330.48 111.746L333.029 112.666C335.438 113.537 337.853 114.414 340.262 115.285C342.087 115.945 343.92 116.605 345.746 117.258L347.115 117.743L347.796 117.974C348.021 118.045 348.274 118.129 348.365 118.15C348.548 118.171 349.095 117.939 349.531 117.799L350.886 117.307C353.681 116.261 356.356 115.053 359.011 113.796C359.593 113.508 360.162 113.235 360.745 112.947C362.908 111.879 363.645 111.648 364.291 111.739C364.439 111.76 364.621 111.767 364.726 111.809C365.071 111.943 364.34 112.687 362.795 113.635C360.471 114.976 357.999 116.177 355.45 117.293C354.179 117.848 352.88 118.389 351.567 118.901C350.907 119.154 350.254 119.407 349.573 119.646L349.313 119.737L348.948 119.856L348.442 119.948C348.274 119.934 348.105 119.899 347.937 119.863C347.846 119.856 347.775 119.828 347.698 119.807L347.565 119.765L347.298 119.681L346.785 119.519C342.79 118.227 338.885 116.767 334.953 115.369L334.967 115.327H334.96Z" fill="#231F20"/>
<path d="M352.194 138.598C351.309 139.097 350.459 139.588 349.504 140.08L349.231 140.213C349.125 140.276 349.013 140.291 348.901 140.326L348.571 140.41C348.458 140.438 348.346 140.41 348.233 140.389L347.896 140.319C347.798 140.291 347.651 140.241 347.594 140.227L347.222 140.101L345.79 139.581L340.144 137.426C338.775 136.899 337.384 136.414 336.022 135.874C333.614 134.919 331.219 133.957 328.825 132.967L327.027 132.222L326.128 131.836L325.679 131.639L325.18 131.415C324.71 131.218 324.274 130.944 324.225 130.425C324.169 130.2 324.176 129.898 324.155 129.715L324.141 129.217C324.127 128.557 324.134 127.911 324.141 127.258C324.169 124.954 324.183 122.644 324.239 120.362C324.331 117.434 324.316 114.485 324.948 111.578C325.159 110.672 325.349 110.826 325.594 111.62C325.84 112.413 326.255 113.853 326.255 115.524C326.17 118.487 326.149 121.465 326.016 124.435C325.967 125.916 325.925 127.412 325.91 128.88V129.42L325.917 129.673V129.722C325.889 129.793 325.932 129.835 325.995 129.863L326.95 130.305L327.975 130.762C331.254 132.215 334.793 133.458 338.22 134.778L343.887 136.941L346.724 137.994L348.135 138.493C348.283 138.535 348.36 138.605 348.472 138.542L348.655 138.458L348.978 138.289C351.134 137.11 353.296 135.825 355.459 134.596C357.102 133.655 358.759 132.735 360.431 131.843C361.266 131.401 362.116 130.958 362.959 130.537L363.317 130.361C363.352 130.249 363.338 130.102 363.352 129.975L363.415 128.606C363.541 125.699 363.555 122.841 363.612 119.962C363.626 119.33 363.633 118.705 363.64 118.066C363.731 115.699 363.879 114.948 364.44 114.471C364.56 114.358 364.672 114.211 364.777 114.148C365.107 113.937 365.494 114.92 365.487 116.654C365.522 119.232 365.487 121.872 365.402 124.554C365.353 125.895 365.297 127.244 365.248 128.599C365.206 129.484 365.164 130.375 365.121 131.26L365.107 131.513C365.044 131.562 364.96 131.59 364.89 131.632L364.433 131.857L363.647 132.25L362.755 132.707C359.216 134.554 355.712 136.583 352.201 138.619L352.173 138.584L352.194 138.598Z" fill="#231F20"/>
<path d="M314.423 148.902C314.392 149.018 314.318 149.13 314.325 149.285C314.288 149.57 314.337 149.876 314.535 150.189C314.589 150.311 314.683 150.416 314.791 150.518C314.885 150.623 314.993 150.725 315.109 150.835C315.881 151.638 317.056 152.214 318.192 152.758C318.713 152.985 319.258 153.16 319.795 153.322C320.492 153.54 321.219 153.628 321.879 154.047C322.087 154.162 322.049 154.208 321.831 154.298C321.675 154.362 321.519 154.426 321.383 154.488C321.288 154.525 321.187 154.576 321.083 154.593C320.978 154.603 320.873 154.612 320.765 154.594C319.255 154.423 317.69 154.207 316.274 153.449C315.441 152.983 314.484 152.62 313.674 151.869C313.229 151.473 312.854 150.929 312.614 150.31C312.386 149.668 312.394 148.99 312.558 148.326C312.644 148.114 312.731 147.902 312.847 147.708C313 147.531 313.143 147.328 313.321 147.191C313.69 146.911 314.099 146.753 314.48 146.683C315.652 146.469 316.659 146.757 317.618 146.993C318.369 147.185 319.129 147.312 319.859 147.59C320.02 147.653 320.186 147.694 320.335 147.779C320.906 148.086 321.008 148.345 320.816 148.863C320.653 149.354 319.525 149.178 318.935 149.054C317.682 148.915 317.218 148.856 316.102 148.684C315.731 148.617 314.557 148.333 314.423 148.902Z" fill="#231F20"/>
<path d="M313.133 154.401C311.869 154.401 311.96 153.446 311.954 153.401C311.912 153.134 311.891 152.881 311.869 152.628C311.834 152.13 311.827 151.645 311.82 151.161C311.82 150.192 311.848 149.237 311.884 148.282C311.912 147.432 311.94 146.582 311.968 145.747C312.024 144.672 311.968 143.57 312.34 142.516C312.452 142.186 312.663 142.264 312.909 142.573C313.028 142.727 313.162 142.938 313.288 143.191C313.4 143.436 313.456 143.724 313.456 144.026C313.456 145.101 313.456 146.175 313.456 147.256C313.435 148.338 313.379 149.419 313.33 150.501C313.302 151.083 313.33 151.666 313.393 152.242C313.428 152.53 313.463 152.811 313.527 153.071C314.062 154.401 313.527 154.363 313.133 154.401Z" fill="#231F20"/>
<path d="M348.77 160.904C347.555 160.904 347.642 160.171 347.636 160.136C347.596 159.931 347.575 159.737 347.555 159.543C347.521 159.16 347.515 158.788 347.508 158.416C347.508 157.672 347.535 156.938 347.569 156.205C347.596 155.553 347.623 154.9 347.65 154.258C347.704 153.433 347.65 152.587 348.008 151.778C348.116 151.525 348.318 151.584 348.555 151.821C348.669 151.94 348.798 152.102 348.919 152.296C349.027 152.484 349.081 152.705 349.081 152.937C349.081 153.762 349.081 154.587 349.081 155.418C349.061 156.248 349.007 157.079 348.96 157.909C348.933 158.357 348.96 158.804 349.021 159.246C349.054 159.467 349.088 159.683 349.149 159.883C349.664 160.904 349.149 160.875 348.77 160.904Z" fill="#231F20"/>
<path d="M339.057 123.5C338.846 122.461 338.397 121.612 337.666 121.296C337.491 121.225 337.357 121.232 337.098 121.359C336.634 121.562 336.121 122.152 335.721 122.763C335.293 123.381 334.942 124.083 334.626 124.8C334.352 125.439 334.148 126.113 333.966 126.78C333.762 127.643 333.572 128.514 333.313 129.371C333.137 129.631 333.172 129.61 333.004 129.35C332.849 129.097 332.681 128.613 332.688 128.065C332.849 126.162 333.271 124.287 334.197 122.531C334.478 122.012 334.78 121.478 335.166 120.952C335.56 120.446 336.037 119.863 336.88 119.61C337.329 119.47 337.863 119.505 338.277 119.652C338.656 119.786 339.022 119.975 339.331 120.228C339.963 120.72 340.37 121.373 340.665 122.005C341.03 122.798 341.212 123.613 341.346 124.413C341.549 125.635 341.542 126.85 341.564 128.037C341.578 128.964 341.69 129.884 341.648 130.817C341.641 131.021 341.648 131.225 341.62 131.435C341.5 132.201 341.212 132.433 340.651 132.447C340.517 132.447 340.391 132.461 340.264 132.447C339.85 132.383 339.59 132.046 339.478 131.527C339.366 130.761 339.316 129.975 339.295 129.188C339.295 128.409 339.324 127.615 339.316 126.836C339.288 125.684 339.26 124.526 339.015 123.5L339.064 123.486L339.057 123.5Z" fill="#231F20"/>
<path d="M305.217 132.545L305.196 132.608C305.196 132.608 305.189 132.622 305.182 132.65L305.147 132.98C305.091 133.486 305.028 133.991 304.986 134.504C304.887 135.522 304.824 136.554 304.768 137.587C304.656 139.651 304.62 141.723 304.627 143.794C304.627 145.304 304.733 146.814 304.789 148.323C304.859 149.65 304.979 150.971 305.126 152.27C305.21 152.916 305.302 153.562 305.421 154.152L305.512 154.524C305.533 154.58 305.554 154.629 305.597 154.671C305.709 154.791 305.941 155.001 306.186 155.17C307.183 155.872 308.391 156.476 309.571 157.059C310.765 157.634 311.98 158.182 313.208 158.716C315.385 159.657 317.625 160.506 319.837 161.328C321.263 161.855 322.681 162.409 324.093 162.964L325.153 163.393L326.185 163.891C326.866 164.235 327.561 164.558 328.228 164.937C329.029 165.485 328.882 165.513 328.011 165.548C327.568 165.569 326.972 165.548 326.255 165.485C325.897 165.457 325.511 165.415 325.111 165.359C324.907 165.331 324.703 165.288 324.493 165.26C324.289 165.197 324.085 165.141 323.875 165.071C322.407 164.572 320.926 164.095 319.465 163.561C318.018 162.992 316.572 162.416 315.132 161.813C312.253 160.591 309.381 159.362 306.573 157.733C306.151 157.487 305.73 157.22 305.302 156.939C305.084 156.785 304.873 156.644 304.656 156.455C304.445 156.279 304.206 156.083 303.96 155.724C303.841 155.57 303.757 155.373 303.687 155.198L303.567 154.762C303.49 154.489 303.455 154.243 303.406 153.99C303.3 153.484 303.265 153 303.195 152.508C302.977 150.556 302.879 148.611 302.795 146.68C302.647 142.439 302.675 138.205 303.033 133.956L303.132 132.973L303.181 132.482L303.216 132.138C303.23 132.018 303.272 131.927 303.293 131.814L303.637 130.572L303.722 130.263V130.228L303.736 130.206V130.199C303.694 130.129 303.799 130.291 303.785 130.277C303.785 130.277 303.827 130.242 303.841 130.228L303.953 130.178C304.101 130.101 304.304 130.115 304.515 130.15C304.95 130.22 305.421 130.417 305.877 130.579L306.853 130.958L308.665 131.681C312.31 133.163 315.926 134.722 319.549 136.14C322.365 137.243 325.174 138.205 327.99 139.188C328.615 139.398 329.219 139.602 329.851 139.813C331.002 140.227 331.761 140.515 332.259 140.803C332.744 141.126 332.996 141.393 333.172 141.701C333.249 141.842 333.369 141.996 333.397 142.116C333.453 142.319 333.221 142.411 332.744 142.418C332.266 142.418 331.536 142.376 330.672 142.102C325.483 140.62 320.209 138.577 314.95 136.477C313.005 135.691 311.046 134.897 309.093 134.111L306.179 132.924L305.456 132.636C305.281 132.566 305.365 132.601 305.337 132.587H305.323C305.323 132.587 305.259 132.538 305.259 132.573L305.217 132.524V132.545Z" fill="#231F20"/>
<path d="M367.448 104.668C367.511 104.809 367.349 104.928 367.097 105.033C367.019 105.069 366.774 105.069 366.738 105.033C366.661 104.956 366.584 104.879 366.521 104.802C366.486 104.753 366.212 103.98 366.142 103.713C366.057 103.454 366.022 103.201 365.994 102.941L365.84 101.368C365.826 101.249 365.854 101.136 365.889 101.017C366.015 100.624 366.022 100.223 365.987 99.8231C365.987 99.7529 365.994 99.6897 365.931 99.6195C365.826 99.5071 365.826 98.4258 365.903 98.2853C366.064 97.9483 366.177 97.6042 366.31 97.2671C366.331 97.218 366.31 97.1618 366.394 97.1267C366.584 97.0354 366.563 96.9301 366.591 96.8177C366.64 96.6702 366.668 96.5228 366.781 96.3823C366.83 96.3121 366.942 96.2489 367.026 96.1857C367.104 96.1296 367.314 96.1857 367.335 96.2068C367.406 96.277 367.511 96.2349 367.602 96.2349C367.63 96.2349 367.672 96.2349 367.7 96.2349C367.715 96.2349 367.89 96.4666 368.016 96.6983C368.143 96.9301 368.248 97.1688 368.241 97.218C368.241 97.232 368.269 97.541 368.297 97.871C368.332 98.194 368.368 98.5311 368.382 98.6153C368.396 98.6856 368.346 98.7558 368.311 98.833C368.297 98.8681 368.375 99.8512 368.368 99.8863C368.332 100.09 368.389 100.294 368.213 100.49C368.178 100.525 368.185 100.567 368.185 100.61C368.185 100.961 368.122 101.305 368.038 101.649C368.002 101.824 368.002 102.007 367.988 102.183C367.988 102.218 367.96 102.246 367.946 102.281C367.932 102.323 367.904 102.358 367.904 102.4C367.883 102.822 367.778 103.243 367.806 103.671C367.806 103.77 367.637 104.233 367.63 104.345C367.63 104.409 367.413 104.619 367.441 104.675L367.448 104.668Z" fill="#231F20"/>
<path d="M370.951 105.398C370.937 105.518 370.762 105.461 370.509 105.328C370.432 105.286 370.235 105.103 370.221 105.054C370.2 104.963 370.179 104.865 370.172 104.787C370.172 104.738 370.354 104.19 370.39 103.98C370.439 103.783 370.537 103.643 370.642 103.495C370.86 103.207 371.05 102.884 371.302 102.61C371.359 102.547 371.429 102.498 371.506 102.463C371.794 102.337 371.998 102.14 372.18 101.915C372.208 101.88 372.25 101.852 372.243 101.775C372.229 101.641 372.812 101.108 372.917 101.087C373.191 101.023 373.416 100.911 373.683 100.855C373.718 100.848 373.739 100.806 373.809 100.855C373.978 100.953 374.02 100.883 374.09 100.855C374.188 100.813 374.287 100.778 374.406 100.764C374.462 100.757 374.561 100.799 374.645 100.834C374.722 100.862 374.849 101.066 374.849 101.094C374.856 101.185 374.961 101.248 375.024 101.325C375.045 101.354 375.073 101.389 375.087 101.41C375.115 101.459 374.947 102.189 374.912 102.231C374.912 102.266 374.35 102.884 374.308 102.969C374.28 103.011 374.217 103.011 374.167 103.025C374.139 103.025 373.753 103.558 373.732 103.572C373.62 103.643 373.571 103.783 373.367 103.762C373.325 103.762 373.311 103.783 373.297 103.804C373.149 103.98 372.946 104.106 372.756 104.247C372.658 104.317 372.58 104.408 372.489 104.492C372.475 104.506 372.44 104.506 372.419 104.513C372.391 104.527 372.356 104.527 372.335 104.549C372.131 104.759 371.864 104.914 371.696 105.159C371.647 105.209 371.274 105.307 371.232 105.377C371.204 105.412 370.944 105.363 370.937 105.419L370.951 105.398Z" fill="#231F20"/>
<path d="M373.607 111.205C373.522 111.275 373.424 111.163 373.312 110.952C373.277 110.882 373.235 110.672 373.256 110.636C373.298 110.566 373.34 110.489 373.382 110.433C373.41 110.398 373.909 110.124 374.084 110.011C374.253 109.906 374.428 109.843 374.604 109.787C374.962 109.688 375.327 109.569 375.692 109.485C375.777 109.471 375.861 109.485 375.945 109.506C376.233 109.597 376.514 109.583 376.795 109.534C376.844 109.527 376.893 109.534 376.935 109.471C377.012 109.351 377.785 109.365 377.883 109.429C378.122 109.562 378.368 109.653 378.599 109.766C378.635 109.78 378.67 109.766 378.698 109.836C378.754 110.011 378.831 109.99 378.901 110.011C379 110.04 379.105 110.082 379.196 110.152C379.245 110.187 379.281 110.292 379.323 110.377C379.358 110.454 379.302 110.707 379.281 110.735C379.224 110.812 379.245 110.938 379.231 111.044C379.231 111.079 379.217 111.128 379.217 111.156C379.203 111.219 378.599 111.591 378.543 111.591C378.543 111.591 378.333 111.605 378.115 111.627C377.897 111.648 377.68 111.676 377.63 111.697C377.581 111.711 377.539 111.669 377.49 111.641C377.469 111.634 376.83 111.746 376.809 111.739C376.675 111.711 376.549 111.767 376.416 111.62C376.387 111.591 376.359 111.598 376.338 111.598C376.114 111.612 375.882 111.577 375.65 111.514C375.531 111.486 375.418 111.5 375.299 111.486C375.278 111.486 375.257 111.465 375.236 111.451C375.208 111.437 375.18 111.423 375.152 111.423C374.871 111.423 374.583 111.353 374.309 111.402C374.246 111.402 373.916 111.297 373.845 111.318C373.803 111.325 373.642 111.17 373.607 111.205Z" fill="#231F20"/>
<rect x="108.5" y="146.5" width="146.633" height="137.807" rx="1.72091" fill="white" stroke="#E6E8EB"/>
<rect x="114.117" y="152.116" width="135.4" height="126.574" rx="1.72091" fill="#FF414C" stroke="#E6E8EB"/>
<path d="M191.815 224.927L201.958 242.714H181.469L171.219 224.927H191.815Z" fill="url(#paint0_linear_3374_50075)"/>
<path d="M201.953 242.717L212.186 224.93L191.703 189.349H171.219L201.953 242.717Z" fill="black"/>
<path d="M160.976 207.131H181.46L160.985 242.712L150.734 224.926L160.976 207.131Z" fill="black"/>
<g opacity="0.45">
<path d="M429.925 57.402C430.719 56.6422 431.825 56.735 432.627 57.4189C432.888 57.63 432.973 58.4321 432.796 58.5841C432.424 58.8796 432.12 59.2173 431.842 59.5044C431.757 59.5888 430.921 60.1123 430.296 61.0663C429.638 61.9951 429.19 63.3206 429.022 64.013C428.853 64.6884 428.701 65.3723 428.557 66.0731L428.355 67.0947C428.279 67.4831 428.219 67.8883 428.11 68.2429C428 68.5975 427.823 68.8931 427.628 69.121C427.519 69.2223 427.451 69.3574 427.291 69.4081C427.206 69.5516 427.054 69.5601 426.945 69.6445C426.657 69.94 425.931 69.8387 425.366 69.8809C424.986 69.8133 424.606 69.8218 424.277 69.8302H423.998L423.77 69.864C423.466 69.8893 423.154 69.9231 422.841 69.9822C422.216 70.0751 421.583 70.2271 420.967 70.4044C419.726 70.759 418.527 71.2571 417.455 71.8735C417.176 72.017 416.931 72.1774 416.669 72.3294C416.399 72.4729 416.146 72.6333 415.901 72.7937C415.031 73.3257 414.263 74.0096 413.748 74.8285C413.216 75.6137 412.954 76.4665 412.954 77.2855C412.921 77.5556 412.98 77.8258 413.115 78.0538C413.267 78.2311 413.52 79.2696 414.474 79.8859C415.352 80.5698 416.864 80.7809 417.201 80.8231C418.865 81.1862 420.95 81.0089 422.782 80.536C423.052 80.4685 423.306 80.3165 423.593 80.3419C424.277 80.4094 424.817 80.0717 425.383 79.793C426.176 79.3878 426.97 78.9825 427.789 78.5688C428.194 78.3746 428.667 78.2817 429.123 78.1551C429.537 78.0453 429.638 78.5773 429.545 78.7039C429.292 79.0669 429.697 79.0754 429.849 79.2189C429.9 79.2696 429.967 79.3371 429.976 79.3962C429.993 79.4553 429.022 80.4347 427.899 81.3888C426.793 82.3597 425.433 83.2547 425.129 83.3729C425.096 83.3898 424.589 83.6431 423.795 83.9555C423.002 84.2763 421.904 84.614 420.798 84.842C420.224 84.9349 419.65 85.0446 419.084 85.1206C418.51 85.1629 417.953 85.2051 417.455 85.2219C416.94 85.1966 416.492 85.1797 416.137 85.1628C415.774 85.1291 415.504 85.07 415.369 85.0531C415.082 85.0109 414.803 84.9433 414.525 84.842C414.255 84.7154 413.976 84.5887 413.706 84.4705C413.672 84.4621 413.529 84.403 413.292 84.3185C413.064 84.2003 412.752 84.0484 412.389 83.8626C412.017 83.6853 411.637 83.356 411.215 83.0521C410.827 82.6975 410.396 82.3091 410.067 81.8447C409.332 80.9413 408.927 79.8268 408.716 78.9741C408.547 78.1129 408.496 77.4965 408.522 77.4121C408.547 75.6391 409.037 73.8322 410.151 72.6249C410.371 72.3969 410.531 72.1267 410.7 71.8566C412.279 69.6529 414.533 68.2261 416.788 67.2889C417.953 66.8076 419.109 66.3348 420.325 66.0477C420.545 65.9886 420.773 65.9802 421.001 65.9549C421.288 65.9211 421.566 65.8958 421.845 65.8535C422.309 65.7776 422.765 65.6931 423.246 65.6594C423.483 65.6425 423.719 65.6087 423.964 65.6087H424.133C424.217 65.6087 424.344 65.6762 424.403 65.6256C424.429 65.5412 424.445 65.4483 424.471 65.347L424.724 64.2747C424.842 63.785 424.977 63.3037 425.129 62.8056C425.231 62.4763 425.653 61.5645 426.227 60.6864C426.784 59.7999 427.519 58.9893 427.797 58.6601C427.941 58.4659 428.397 58.1788 428.861 57.9508C429.325 57.7144 429.798 57.5371 429.95 57.3936L429.925 57.402Z" fill="#231F20"/>
</g>
<path d="M419.389 87.0875C416.35 87.3239 413.049 86.7836 410.347 84.8501C409.021 83.9045 407.915 82.6718 407.13 81.228C406.336 79.8011 405.889 78.0787 406.024 76.407C406.134 74.0598 407.037 71.7211 408.54 69.9734C409.654 68.6563 411.005 67.5925 412.474 66.8241C413.943 66.0474 415.489 65.4479 417.101 65.1524C418.714 64.8485 420.36 64.7471 422.015 64.9329L422.631 65.0426C422.809 65.0764 423.121 65.1271 423.096 65.1355C423.248 65.1608 423.391 65.2284 423.552 65.2791L423.788 65.355C423.873 65.3719 423.957 65.3128 423.957 65.2284C423.974 65.0764 423.974 64.916 424.016 64.7556L424.05 64.5867C424.05 64.5867 424.058 64.5192 424.058 64.5361L424.117 64.3165C424.193 64.0295 424.261 63.734 424.371 63.4638C424.565 62.8981 424.801 62.3577 425.08 61.8427C426.718 58.7948 429.732 56.4054 433.295 56.0339C435.575 55.8313 437.829 56.5489 439.61 57.8745C439.838 58.0265 440.049 58.2206 440.252 58.4064C440.463 58.5837 440.657 58.7863 440.843 58.9974C441.206 59.428 441.51 59.9093 441.755 60.4074C442.253 61.4121 442.506 62.5351 442.397 63.6158C442.084 64.9498 442.084 64.6796 441.814 63.6495C441.595 63.1514 441.333 62.4675 440.75 61.868C440.632 61.7076 440.463 61.5725 440.303 61.429C440.151 61.277 439.982 61.142 439.788 61.0153C439.61 60.8802 439.442 60.7367 439.214 60.6438C439.045 60.4918 438.859 60.3567 438.665 60.2301C437.601 59.4618 436.275 59.0312 435.026 58.9214C434.393 58.9214 433.785 58.8877 433.202 58.9974C432.603 59.1156 431.995 59.2845 431.429 59.5715C430.289 60.1203 429.251 60.9815 428.466 62.0369C428.077 62.5604 427.723 63.1261 427.469 63.7255C427.326 64.021 427.233 64.3334 427.132 64.6374L427.005 65.1017C426.946 65.3719 426.946 65.5239 426.912 65.7265L426.844 66.3007C426.811 66.4949 426.794 66.7313 426.743 66.8917L426.524 67.2969C426.363 67.5587 426.287 67.8711 426.042 68.0484C425.916 68.1581 425.755 68.251 425.612 68.3101C425.536 68.3354 425.494 68.3692 425.401 68.3608L425.139 68.3354L424.109 68.2426L423.602 68.1919L423.349 68.1666L423.054 68.0737C422.952 68.0484 422.868 68.0062 422.75 67.9893L422.479 67.9386L422.201 67.8795C421.838 67.7782 421.449 67.7444 421.061 67.7022C416.721 67.2294 411.681 69.6188 409.722 73.4688C409.148 74.5073 408.954 75.7062 408.878 76.8629C408.861 77.9774 409.224 79.1172 409.84 80.1304C411.081 82.199 413.302 83.5752 415.793 83.9973C418.866 84.5461 422.201 83.8876 425.139 82.5282C426 82.123 426.836 81.6502 427.63 81.1267C428.027 80.865 428.415 80.5863 428.795 80.2908C428.989 80.1473 429.166 79.9953 429.352 79.8434C429.428 79.7843 429.588 79.6407 429.715 79.5225L430.12 79.151C430.331 78.9568 430.551 78.8555 430.762 78.7035C430.965 78.5431 431.21 78.4502 431.48 78.5093C431.606 78.5347 431.699 78.5938 431.767 78.6613L432.062 78.864C432.299 79.0244 432.527 79.2017 432.738 79.4212L433.025 79.6069C433.092 79.6576 433.185 79.6998 433.261 79.742C433.422 79.8265 433.574 79.9193 433.742 80.0038C434.08 80.1642 434.409 80.333 434.764 80.4597C436.149 81.0169 437.626 81.3884 439.087 81.4897C440.944 81.6248 442.777 81.2196 444.237 80.2993C444.626 80.1051 444.921 79.7674 445.267 79.5141C445.58 79.2355 445.841 78.9315 446.069 78.5853C446.534 77.9099 446.846 77.1247 447.007 76.3057C447.15 75.588 447.15 74.8704 447.074 74.1527C446.88 72.8356 446.483 72.0842 446.247 71.51C446.137 71.2145 446.027 70.9866 445.976 70.7417C445.951 70.4715 445.934 70.2267 445.917 69.9903C445.909 69.7708 445.833 69.5259 445.833 69.3571C445.833 69.0784 446.137 69.0531 446.871 69.2389C447.235 69.3233 447.631 69.5766 448.02 69.9565C448.417 70.3364 448.822 70.8515 449.143 71.4931C450.13 73.4182 450.232 75.7062 449.615 77.817C449.295 78.8724 448.796 79.9025 448.045 80.8059C447.665 81.2533 447.243 81.6839 446.804 81.9963L446.145 82.5114C445.917 82.6802 445.664 82.7984 445.419 82.942C443.452 84.0649 441.155 84.4533 439.036 84.3266C436.9 84.1831 434.874 83.6512 432.949 82.79C432.603 82.638 432.256 82.4691 431.91 82.2665C431.75 82.1821 431.539 82.0639 431.404 81.971C431.387 81.9541 431.404 81.971 431.395 81.9626C431.395 81.9626 431.378 81.9794 431.412 81.9457L431.26 82.0723C431.041 82.2581 430.821 82.4438 430.585 82.6211C430.129 82.9842 429.656 83.3135 429.175 83.6427C428.212 84.2844 427.191 84.8416 426.135 85.3229C424.025 86.277 421.77 86.9186 419.415 87.1297L419.398 87.0537L419.389 87.0875Z" fill="#231F20"/>
<path d="M78.9806 61.3936C79.366 61.4417 79.7273 61.5702 79.9763 61.795C80.2171 62.0439 80.3938 62.3491 80.4901 62.6783C80.5544 62.887 80.2573 63.2644 80.0726 63.2403C79.7032 63.2082 79.3821 63.1119 79.0448 63.1359C78.9485 63.1359 78.1696 62.8951 77.3105 63.1359C76.4433 63.3206 75.5521 63.9308 75.1426 64.2841C74.3316 64.9586 73.5769 65.7455 72.9265 66.6207C72.5892 67.0623 72.3082 67.528 72.0754 67.9937C71.979 68.2185 71.8666 68.4514 71.8184 68.6441L71.6739 69.1098C71.6177 69.3025 71.5454 69.4952 71.4571 69.6879C71.1279 70.4587 70.5578 71.1894 69.8833 71.6952C69.2089 72.2091 68.4782 72.5062 67.7957 72.723C67.1855 72.9157 66.5913 73.0201 66.0293 73.0923C64.1263 73.3011 62.3117 73.6544 61.8941 74.7143C61.8058 74.8829 61.7175 75.0917 61.7416 75.3165C61.7416 75.4048 61.7014 75.6939 61.7095 76.1435C61.7576 76.5289 61.7576 76.7698 62.0306 77.0508C62.2876 77.3158 62.681 77.6048 63.1226 77.7413C63.3234 77.8297 63.5161 77.8859 63.6847 77.926C63.8453 77.9662 63.9657 78.0063 64.0299 78.0224C65.3789 78.3917 66.9607 78.3516 68.4782 78.1027C68.695 78.0705 68.9198 77.9903 69.1366 78.0063C69.6425 78.0545 70.1082 77.8859 70.5578 77.7092C71.2002 77.4924 71.8184 77.2114 72.4608 76.9545C72.7659 76.8099 73.1111 76.7377 73.4484 76.6413C73.7535 76.553 73.7776 76.8902 73.6973 76.9705C73.4725 77.2114 73.7696 77.2034 73.8579 77.2837C73.89 77.3158 73.9301 77.3559 73.9301 77.3881C73.9301 77.4121 73.7294 77.5808 73.4082 77.8457C73.0951 78.1187 72.6294 78.4238 72.1557 78.729C71.6819 79.0501 71.152 79.299 70.7345 79.5239C70.3009 79.7246 69.9636 79.8531 69.8512 79.8932C69.8271 79.9012 69.4337 80.0458 68.8235 80.1983C68.2213 80.3669 67.4023 80.5356 66.5351 80.6159C66.1015 80.664 65.6679 80.6961 65.2343 80.6881C64.8088 80.7042 64.3993 80.6721 64.0219 80.6319C63.6526 80.6158 63.3153 80.5356 63.0584 80.4794C62.7934 80.4312 62.6007 80.391 62.5044 80.3509C62.0868 80.2224 61.6934 80.0458 61.308 79.7728C61.2678 79.7407 60.8824 79.5801 60.3766 79.1384C60.1116 78.9618 59.8707 78.6085 59.6138 78.2713C59.4853 78.1027 59.4131 77.8778 59.3087 77.6691C59.2123 77.4523 59.124 77.2355 59.0999 77.0026C59.0598 76.7778 59.0277 76.545 59.0036 76.3121C58.9955 76.1034 59.0036 75.9428 59.0036 75.7581C59.0036 75.4048 59.0517 75.0515 59.116 74.7464C59.2284 74.1281 59.4452 73.6865 59.4693 73.6303C59.7744 72.996 60.2481 72.4018 60.8021 71.9843C61.3562 71.5668 61.9584 71.3179 62.5285 71.2054C62.7533 71.1573 62.9701 71.085 63.1869 71.0208C64.9854 70.4989 66.6796 70.4427 67.876 69.8645C68.4862 69.5755 68.8476 69.158 69.0804 68.6039C69.1286 68.5076 69.1928 68.4112 69.233 68.2988L69.3293 68.074C69.3695 67.9535 69.4096 67.8331 69.4578 67.7207C69.8673 66.5163 70.4936 65.617 71.2002 64.7338C71.9067 63.8666 72.7097 63.0797 73.617 62.3651C73.8177 62.1965 74.4922 61.795 75.2389 61.514C75.9857 61.2169 76.8127 61.0884 77.1339 61.0483C77.3185 61.0322 77.712 61.0483 78.0893 61.1447C78.4667 61.2571 78.82 61.3534 78.9806 61.3614V61.3936Z" fill="#231F20"/>
<path d="M71.8146 80.4547C69.751 81.7474 67.4466 82.3577 65.1101 82.4861C63.9458 82.5263 62.7574 82.4781 61.5129 82.1007C60.3165 81.7153 59.1683 81.0649 58.2931 80.0372C57.6588 79.2985 57.177 78.3349 57.0405 77.3152C56.904 76.3115 57.1289 75.2436 57.4661 74.4809C58.253 72.2728 60.0997 70.418 62.1954 69.5508C63.2392 69.0932 64.3232 68.7961 65.4152 68.6274C65.9612 68.5552 66.5072 68.499 67.0532 68.4749H67.8721C68.2254 68.4749 68.2094 68.4749 68.3459 68.4909C68.4181 68.499 68.4904 68.507 68.5627 68.5231L68.6751 68.5391C68.7152 68.5391 68.7233 68.491 68.7393 68.4588C68.7795 68.3223 68.8036 68.1778 68.8357 68.0333L68.916 67.6639L69.0364 67.134C69.1247 66.7807 69.2211 66.4274 69.3335 66.0821C69.735 64.8456 70.3211 63.6171 71.2284 62.5974C72.1197 61.5616 73.3241 60.8069 74.5767 60.3893C75.3796 60.1404 76.2468 59.9718 77.13 60.0039C78.0052 60.036 78.8804 60.2287 79.6753 60.6141C80.4702 61.0076 81.1447 61.6419 81.6104 62.3806C82.0761 63.1273 82.2929 63.9865 82.3089 64.8055C82.2527 65.8332 82.1564 65.6486 81.8753 64.8777C81.6907 64.5084 81.4418 63.9865 80.968 63.5529C80.5184 63.1113 79.9162 62.7821 79.2578 62.5733C78.2943 62.1638 77.1461 62.0594 76.1504 62.3405C75.0504 62.6777 74.0467 63.0792 73.292 63.8339C72.5211 64.5566 71.9751 65.5683 71.5978 66.7084C71.5014 66.9895 71.4211 67.2946 71.3489 67.5917L71.2445 68.0574L71.1963 68.2982L71.116 68.7479C71.0116 69.3822 70.8751 70.0486 70.5299 70.41C70.4496 70.5063 70.3613 70.6107 70.2167 70.6428C70.1525 70.7552 70.008 70.7472 69.9036 70.8034C69.7189 70.9238 69.3415 70.8596 69.0525 70.8757C68.8598 70.8435 68.6751 70.8195 68.4904 70.8034C68.3941 70.7954 68.3057 70.7873 68.2174 70.7873L68.0006 70.7713C67.824 70.7552 67.6393 70.7552 67.4546 70.7472C67.0933 70.7311 66.7239 70.7472 66.3546 70.7552C64.6283 70.8436 62.8699 71.3815 61.5691 72.4414C60.9187 72.9633 60.3647 73.6056 59.9873 74.3604C59.7625 74.7137 59.626 75.1232 59.4815 75.5247C59.3128 75.9342 59.2807 76.2714 59.2406 76.6408C59.2245 77.4196 59.5136 78.1663 60.1158 78.7685C60.7019 79.3707 61.537 79.8284 62.4202 80.0532C63.2794 80.2781 64.3312 80.3102 65.3027 80.2459C66.2904 80.1737 67.286 79.981 68.2335 79.6678C68.924 79.443 69.5985 79.1539 70.2167 78.7926C70.5299 78.616 70.835 78.4233 71.116 78.2065C71.2525 78.0941 71.4051 77.9977 71.5335 77.8773L71.7503 77.6846C71.8708 77.5721 71.9671 77.4758 72.0715 77.3634C72.3766 77.1787 72.6336 76.7933 73.027 76.9137C73.3963 76.9619 73.7818 77.1305 74.1511 77.2751L75.6365 77.8692C77.4592 78.5758 79.3381 79.1539 81.233 79.3788C83.1038 79.6116 85.071 79.443 86.5163 78.4393C87.0784 78.0539 87.536 77.5561 87.8974 76.978C88.074 76.697 88.2346 76.3758 88.355 76.0707L88.4915 75.6371C88.5397 75.4926 88.5317 75.34 88.5558 75.1955C88.5959 74.6013 88.4594 74.0151 88.1784 73.4772C87.8813 72.9392 87.4477 72.4735 86.9499 72.0801C86.5083 71.7348 86.0024 71.502 85.4805 71.2852C84.5009 70.8997 83.8024 70.8676 83.3126 70.699C82.8148 70.5866 82.4936 70.4019 82.1885 70.1691C82.052 70.0567 81.8673 69.9684 81.771 69.864C81.6024 69.6954 81.7469 69.4866 82.2046 69.1815C82.4294 69.0048 82.7506 68.9085 83.152 68.8202C83.3528 68.7639 83.5695 68.7318 83.8024 68.7238C84.0352 68.7238 84.3002 68.6756 84.5652 68.7158C86.147 68.8844 87.7528 69.5026 89.0054 70.707C89.6397 71.2932 90.1777 72.0319 90.523 72.9151C90.8763 73.7823 91.0288 74.81 90.8361 75.7896L90.7719 76.159L90.6595 76.5123C90.5792 76.7371 90.4989 76.994 90.4025 77.1948C90.2259 77.5802 90.0091 77.9576 89.7682 78.3269C89.2784 79.0576 88.6361 79.732 87.8893 80.262C86.3798 81.3299 84.5732 81.7073 82.9433 81.7314C80.8556 81.7635 78.9205 81.3219 77.0899 80.7598C76.1745 80.4707 75.2752 80.1576 74.4 79.8204L73.3321 79.4028C73.3321 79.4028 73.3 79.3788 73.2839 79.4028H73.2759C73.3241 79.3627 73.2197 79.459 73.1555 79.5153C73.019 79.6437 72.8744 79.7722 72.7299 79.8766C72.4408 80.1094 72.1438 80.3262 71.8306 80.5189L71.7985 80.4788L71.8146 80.4547Z" fill="#231F20"/>
<path d="M334.766 296.863C334.975 296.639 335.24 296.518 335.505 296.486C335.786 296.486 336.075 296.566 336.332 296.719C336.501 296.815 336.613 297.281 336.517 297.393C336.332 297.618 336.156 297.795 336.011 298.02C335.963 298.084 335.473 298.437 335.08 299.039C334.67 299.625 334.349 300.42 334.204 300.838C333.915 301.705 333.642 302.524 333.361 303.359L333.024 304.355C332.968 304.523 332.896 304.708 332.815 304.909C332.751 305.093 332.623 305.326 332.47 305.591C332.261 305.808 332.061 306.057 331.852 306.242C331.651 306.378 331.434 306.523 331.234 306.627L330.679 306.868C330.503 306.932 330.342 306.98 330.166 307.045C329.499 307.253 328.889 307.398 328.319 307.55C327.917 307.655 327.54 307.735 327.163 307.815C325.878 308.08 324.858 308.666 324.714 309.558C324.657 309.694 324.633 309.871 324.698 310.04C324.73 310.304 324.665 310.561 325.163 311.083C325.653 311.589 326.512 311.894 326.657 311.951C327.034 312.135 327.564 312.199 328.11 312.215C328.648 312.215 329.202 312.159 329.748 312.031C329.909 311.999 330.053 311.91 330.222 311.934C330.615 311.999 330.936 311.798 331.258 311.645C331.707 311.421 332.141 311.164 332.582 310.899C332.799 310.77 333.064 310.69 333.313 310.578C333.538 310.481 333.65 310.778 333.61 310.859C333.49 311.091 333.731 311.059 333.835 311.132C333.867 311.156 333.915 311.188 333.931 311.22C333.947 311.252 333.45 311.942 332.775 312.553C332.117 313.179 331.274 313.693 331.097 313.757C331.073 313.757 330.768 313.91 330.294 314.078C329.812 314.247 329.162 314.432 328.463 314.52C328.118 314.568 327.757 314.592 327.412 314.6C327.235 314.6 327.066 314.6 326.906 314.592C326.729 314.576 326.544 314.568 326.384 314.536C325.741 314.432 325.3 314.263 325.147 314.207C324.826 314.094 324.545 313.894 324.264 313.693C324.224 313.629 323.1 313.115 322.401 311.798C322.048 311.172 321.968 310.248 322.04 309.839C322.056 309.598 322.072 309.389 322.088 309.237C322.12 309.084 322.152 308.98 322.16 308.956C322.393 307.92 323.116 306.876 324.015 306.458C324.192 306.37 324.344 306.242 324.505 306.153C325.894 305.302 327.299 305.101 328.544 304.812C329.162 304.676 329.788 304.475 330.142 304.282C330.19 304.25 330.254 304.242 330.31 304.226C330.35 304.202 330.366 304.202 330.406 304.186C330.415 304.154 330.439 304.106 330.463 304.066L330.551 303.857C330.615 303.72 330.671 303.528 330.736 303.367L331.121 302.267C331.386 301.512 331.667 300.725 331.98 299.939C332.053 299.754 332.342 299.256 332.687 298.774C333.024 298.285 333.45 297.835 333.594 297.642C333.682 297.538 333.931 297.369 334.188 297.225C334.461 297.088 334.71 296.968 334.791 296.871L334.766 296.863Z" fill="#231F20"/>
<path d="M333.526 313.508C331.728 314.753 329.688 315.395 327.609 315.604C326.565 315.692 325.505 315.692 324.357 315.403C323.257 315.106 322.189 314.568 321.338 313.669C320.719 313.018 320.238 312.159 320.069 311.22C319.9 310.304 320.061 309.309 320.334 308.618C320.936 306.627 322.502 304.892 324.308 304.017C325.208 303.56 326.147 303.246 327.095 303.054C327.568 302.957 328.042 302.885 328.524 302.837C328.765 302.805 329.006 302.805 329.238 302.789C329.391 302.781 329.423 302.789 329.463 302.789H329.6C329.672 302.805 329.736 302.805 329.801 302.813C329.865 302.813 329.953 302.869 329.993 302.813C330.041 302.692 330.049 302.556 330.074 302.427L330.194 301.769C330.258 301.44 330.33 301.111 330.419 300.781C330.724 299.665 331.198 298.541 331.968 297.586C332.723 296.622 333.767 295.892 334.875 295.45C335.582 295.201 336.353 295.008 337.147 295C337.934 294.992 338.729 295.129 339.46 295.442C340.191 295.763 340.817 296.325 341.258 296.976C341.7 297.634 341.917 298.397 341.949 299.127C341.925 300.043 341.812 299.874 341.499 299.224C341.299 298.911 341.034 298.477 340.584 298.156C340.15 297.819 339.596 297.61 339.034 297.497C338.207 297.224 337.244 297.2 336.433 297.497C336.2 297.586 335.975 297.666 335.766 297.778C335.55 297.867 335.341 297.963 335.148 298.076C334.755 298.3 334.417 298.573 334.112 298.895C333.518 299.537 333.085 300.412 332.82 301.424C332.755 301.673 332.691 301.938 332.643 302.203L332.611 302.411L332.571 302.7L332.458 303.56C332.37 304.13 332.177 304.587 331.856 304.892C331.671 305.061 331.487 305.093 331.294 305.198L330.499 305.27L329.584 305.222H329.102C328.805 305.222 328.516 305.23 328.219 305.254C326.733 305.374 325.24 305.912 324.188 306.868C323.658 307.341 323.216 307.903 322.927 308.554C322.751 308.867 322.654 309.22 322.55 309.566C322.422 309.927 322.414 310.192 322.389 310.497C322.406 311.131 322.662 311.717 323.184 312.199C323.69 312.681 324.421 313.034 325.176 313.187C325.906 313.347 326.822 313.331 327.657 313.235C328.508 313.139 329.359 312.93 330.17 312.617C330.748 312.4 331.302 312.127 331.816 311.806C332.081 311.653 332.322 311.469 332.555 311.284C332.804 311.075 332.948 310.971 333.35 310.521L333.743 310.2L333.936 310.039H333.952V310.023C333.952 310.023 333.928 309.943 333.976 310.096H334.008C334.008 310.096 334.048 310.071 334.064 310.063L334.185 310.039L334.425 310.007L334.682 310.063C334.851 310.104 335.036 310.168 335.196 310.216L336.674 310.73C338.304 311.268 339.966 311.701 341.62 311.822C343.258 311.934 344.952 311.717 346.132 310.786C346.598 310.441 346.967 309.983 347.24 309.469C347.393 309.228 347.489 308.931 347.594 308.674C347.658 308.425 347.722 308.177 347.714 307.936C347.714 307.446 347.57 306.972 347.313 306.539C347.04 306.105 346.646 305.744 346.213 305.439C345.827 305.166 345.378 305.005 344.936 304.844C344.093 304.571 343.507 304.555 343.081 304.403C342.656 304.306 342.367 304.114 342.077 303.865C341.949 303.752 341.772 303.656 341.676 303.552C341.515 303.375 341.62 303.158 342.013 302.829C342.206 302.644 342.487 302.532 342.84 302.419C343.194 302.291 343.627 302.243 344.109 302.235C345.546 302.299 347.032 302.773 348.236 303.809C348.838 304.314 349.376 304.965 349.737 305.76C350.107 306.539 350.3 307.486 350.163 308.409C350.147 308.642 350.107 308.867 350.035 309.084C349.97 309.293 349.906 309.542 349.826 309.726C349.665 310.079 349.513 310.441 349.296 310.786C348.894 311.477 348.332 312.127 347.666 312.633C347.007 313.147 346.261 313.532 345.506 313.781C344.751 314.022 343.988 314.15 343.25 314.199C341.355 314.319 339.596 313.998 337.934 313.572C337.099 313.347 336.28 313.107 335.493 312.842L334.907 312.641C334.787 312.601 334.779 312.593 334.771 312.593C334.755 312.577 334.739 312.577 334.731 312.593C334.707 312.609 334.755 312.569 334.666 312.649C334.554 312.761 334.433 312.874 334.313 312.97C334.08 313.179 333.831 313.371 333.574 313.548L333.534 313.5L333.526 313.508Z" fill="#231F20"/>
</g>
<rect x="0.293161" y="0.293161" width="523.414" height="351.414" rx="3.70684" stroke="#C7C7C7" strokeWidth="0.586323"/>
<defs>
<linearGradient id="paint0_linear_3374_50075" x1="183.57" y1="232.12" x2="190.824" y2="221.967" gradientUnits="userSpaceOnUse">
<stop/>
<stop offset="1" stop-opacity="0.127613"/>
</linearGradient>
<clipPath id="clip0_3374_50075">
<rect width="524" height="352" rx="4" fill="white"/>
</clipPath>
</defs>
</svg>
