<svg width="480" height="304" viewBox="0 0 480 304" fill="none" xmlns="http://www.w3.org/2000/svg">
<g clip-path="url(#clip0_2767_34390)">
<rect width="480" height="303.241" rx="3.54697" fill="white"/>
<line x1="62.9171" y1="-4.71353" x2="62.9171" y2="330.737" stroke="#E6E8EB" strokeWidth="0.381144"/>
<line x1="93.2843" y1="-7.07031" x2="93.2843" y2="328.38" stroke="#E6E8EB" strokeWidth="0.381144"/>
<line x1="82.9531" y1="100.307" x2="-274.566" y2="100.307" stroke="#E6E8EB" strokeWidth="0.381144"/>
<line x1="82.9531" y1="16.4459" x2="-274.566" y2="16.4459" stroke="#E6E8EB" strokeWidth="0.381144"/>
<line x1="82.9531" y1="226.099" x2="-274.566" y2="226.099" stroke="#E6E8EB" strokeWidth="0.381144"/>
<line x1="82.9531" y1="184.168" x2="-274.566" y2="184.168" stroke="#E6E8EB" strokeWidth="0.381144"/>
<line x1="82.9531" y1="58.3754" x2="-274.566" y2="58.3754" stroke="#E6E8EB" strokeWidth="0.381144"/>
<line x1="82.9531" y1="268.032" x2="-274.566" y2="268.032" stroke="#E6E8EB" strokeWidth="0.381144"/>
<line x1="82.9531" y1="142.238" x2="-274.566" y2="142.238" stroke="#E6E8EB" strokeWidth="0.381144"/>
<line x1="20.9874" y1="-4.71353" x2="20.9874" y2="330.737" stroke="#E6E8EB" strokeWidth="0.381144"/>
<line x1="420.441" y1="-4.71353" x2="420.441" y2="330.737" stroke="#E6E8EB" strokeWidth="0.381144"/>
<line x1="440.477" y1="100.307" x2="82.9574" y2="100.307" stroke="#E6E8EB" strokeWidth="0.381144"/>
<line x1="440.477" y1="16.4458" x2="82.9574" y2="16.4458" stroke="#E6E8EB" strokeWidth="0.381144"/>
<line x1="440.477" y1="226.099" x2="82.9574" y2="226.099" stroke="#E6E8EB" strokeWidth="0.381144"/>
<line x1="440.477" y1="184.168" x2="82.9574" y2="184.168" stroke="#E6E8EB" strokeWidth="0.381144"/>
<line x1="440.477" y1="58.3755" x2="82.9574" y2="58.3755" stroke="#E6E8EB" strokeWidth="0.381144"/>
<line x1="440.477" y1="268.032" x2="82.9574" y2="268.032" stroke="#E6E8EB" strokeWidth="0.381144"/>
<line x1="440.477" y1="142.238" x2="82.9574" y2="142.238" stroke="#E6E8EB" strokeWidth="0.381144"/>
<line x1="378.503" y1="-4.71353" x2="378.503" y2="330.737" stroke="#E6E8EB" strokeWidth="0.381144"/>
<line x1="336.581" y1="-4.71353" x2="336.581" y2="330.737" stroke="#E6E8EB" strokeWidth="0.381144"/>
<line x1="294.636" y1="-4.71353" x2="294.636" y2="330.737" stroke="#E6E8EB" strokeWidth="0.381144"/>
<line x1="252.714" y1="-4.71353" x2="252.714" y2="330.737" stroke="#E6E8EB" strokeWidth="0.381144"/>
<line x1="210.784" y1="-4.71353" x2="210.784" y2="330.737" stroke="#E6E8EB" strokeWidth="0.381144"/>
<line x1="168.847" y1="-4.71353" x2="168.847" y2="330.737" stroke="#E6E8EB" strokeWidth="0.381144"/>
<line x1="126.909" y1="-4.71353" x2="126.909" y2="330.737" stroke="#E6E8EB" strokeWidth="0.381144"/>
<line x1="798" y1="100.307" x2="440.481" y2="100.307" stroke="#E6E8EB" strokeWidth="0.381144"/>
<line x1="798" y1="16.4458" x2="440.481" y2="16.4458" stroke="#E6E8EB" strokeWidth="0.381144"/>
<line x1="798" y1="226.099" x2="440.481" y2="226.099" stroke="#E6E8EB" strokeWidth="0.381144"/>
<line x1="798" y1="184.168" x2="440.481" y2="184.168" stroke="#E6E8EB" strokeWidth="0.381144"/>
<line x1="798" y1="58.3755" x2="440.481" y2="58.3755" stroke="#E6E8EB" strokeWidth="0.381144"/>
<line x1="798" y1="268.032" x2="440.481" y2="268.032" stroke="#E6E8EB" strokeWidth="0.381144"/>
<line x1="798" y1="142.238" x2="440.481" y2="142.238" stroke="#E6E8EB" strokeWidth="0.381144"/>
<line x1="463.48" y1="-4.71353" x2="463.48" y2="330.737" stroke="#E6E8EB" strokeWidth="0.381144"/>
<rect x="296.399" y="26.8746" width="146.23" height="126.818" fill="#FAF9F8" stroke="#808080" strokeWidth="0.32854"/>
<rect x="301.735" y="33.6692" width="134.583" height="112.26" fill="#F2F2F2" stroke="#808080" strokeWidth="0.32854"/>
<path d="M380.265 96.5262L389.052 111.981H371.302L362.422 96.5262H380.265Z" fill="url(#paint0_linear_2767_34390)"/>
<path d="M389.047 111.984L397.912 96.5288L380.167 65.6112H362.422L389.047 111.984Z" fill="#11181C"/>
<path d="M353.552 81.0621H371.297L353.56 111.98L344.68 96.5246L353.552 81.0621Z" fill="#11181C"/>
<rect x="47.4533" y="64.1589" width="156.393" height="156.393" fill="#FAF9F8" stroke="#808080" strokeWidth="0.32854"/>
<rect x="53.4611" y="92.9432" width="144.399" height="121.211" fill="#FAF9F8" stroke="#808080" strokeWidth="0.32854"/>
<path d="M110.837 109.775C110.428 109.729 110.01 109.693 109.582 109.684C109.355 109.684 109.155 109.684 108.901 109.702C108.637 109.72 108.428 109.757 108.237 109.802C107.419 109.939 106.637 110.193 105.901 110.494C105.365 110.731 104.81 110.922 104.32 111.24C103.447 111.777 102.656 112.424 101.965 113.143C101.256 113.853 100.656 114.636 100.129 115.473C99.6475 116.201 99.2385 116.966 98.8659 117.749C98.6295 118.249 98.4477 118.777 98.3478 119.323C98.3114 119.596 98.2296 119.86 98.2478 120.143C98.2841 120.416 98.3205 120.698 98.3569 120.989C98.4205 121.335 98.5205 121.299 98.8022 121.062C98.9931 120.907 99.1931 120.743 99.3749 120.598C99.4839 120.507 99.6112 120.407 99.7203 120.306C99.8112 120.197 99.893 120.088 99.9566 119.961C100.447 119.096 100.802 118.24 101.293 117.421C101.774 116.611 102.311 115.819 102.938 115.072C103.683 114.162 104.783 113.561 105.856 113.079C106.446 112.824 107.055 112.578 107.683 112.424C107.992 112.323 108.31 112.278 108.628 112.223C108.801 112.187 108.91 112.187 109.055 112.178C109.21 112.178 109.355 112.178 109.519 112.178C110.3 112.223 111.128 112.378 111.909 112.633C113.1 112.988 114.282 113.516 115.236 114.335C115.999 114.954 116.508 115.782 116.999 116.574C117.099 116.756 117.181 116.948 117.308 117.111C117.754 117.749 117.99 117.912 118.508 117.858C118.626 117.849 118.744 117.858 118.854 117.831C119.217 117.758 119.344 117.312 119.199 116.629C119.008 115.6 118.472 114.663 117.826 113.798C117.181 112.915 116.336 112.169 115.427 111.532C114.754 111.049 114.009 110.676 113.245 110.348C112.473 110.057 111.664 109.866 110.837 109.72L110.818 109.784L110.837 109.775Z" fill="#11181C"/>
<path d="M89.3349 111.457C87.9805 112.467 86.9807 113.805 86.2808 115.216C86.0536 115.735 85.7445 116.227 85.59 116.782C84.9992 118.693 84.8628 120.669 85.0992 122.571C85.2082 123.418 85.3264 124.255 85.5264 125.074L85.7263 125.866C85.7991 126.13 85.9354 126.367 86.0445 126.613C86.1626 126.858 86.2626 127.104 86.4262 127.332C86.5626 127.568 86.8171 127.741 86.9989 127.933C87.2625 128.16 87.2806 128.096 87.3534 127.751C87.3897 127.578 87.4442 127.332 87.5261 127.041C87.5715 126.767 87.5533 126.503 87.517 126.221C87.3443 125.247 87.0716 124.328 86.9171 123.372C86.808 122.416 86.6898 121.442 86.708 120.45C86.708 119.258 87.117 118.065 87.5988 116.991C88.126 115.79 88.8895 114.706 89.8711 113.887C90.1802 113.641 90.4801 113.387 90.8346 113.205C91.1891 112.986 91.4891 112.831 91.8345 112.759C92.8706 112.476 94.125 112.722 95.2066 113.214C95.6247 113.414 96.0065 113.687 96.3519 113.996C96.7064 114.279 97.0518 114.579 97.3608 114.898C97.5063 115.034 97.6153 115.189 97.7517 115.335C98.0062 115.589 98.1607 115.771 98.3516 115.853C98.5606 115.926 98.7424 115.944 98.9697 115.935C99.0696 115.935 99.1696 115.935 99.2514 115.935C99.3969 115.917 99.4696 115.808 99.5332 115.589C99.5877 115.38 99.6514 115.025 99.4969 114.706C99.1333 113.696 98.5152 112.731 97.7062 111.921C96.8336 111.202 95.8065 110.647 94.634 110.337C93.7614 110.146 92.8161 110.082 91.8526 110.273C91.3709 110.374 90.8891 110.519 90.4256 110.747C89.9802 110.965 89.6712 111.202 89.2985 111.43L89.3258 111.475L89.3349 111.457Z" fill="#11181C"/>
<path d="M79.3512 129.182C79.2512 129.501 79.2058 129.82 79.1422 130.156C79.0967 130.575 79.0876 130.894 79.124 131.212C79.1876 131.859 79.324 132.45 79.5057 133.033C79.633 133.461 79.7421 133.888 79.9239 134.289C80.6147 135.691 81.6327 136.892 82.8325 137.766C83.1052 137.948 83.3687 138.148 83.6323 138.34L84.4868 138.804C84.8503 138.986 85.2321 139.141 85.6138 139.295C85.7956 139.386 86.0138 139.395 86.2228 139.395C86.4228 139.395 86.6319 139.395 86.85 139.405C87.1136 139.405 87.0863 139.341 86.95 139.113C86.85 138.949 86.75 138.776 86.6682 138.64C86.6046 138.522 86.541 138.421 86.4864 138.33C86.4592 138.276 86.4228 138.239 86.3864 138.167C86.341 138.139 86.2956 138.112 86.2592 138.076L85.3684 137.429C85.0957 137.193 84.8322 136.956 84.5504 136.756C83.9959 136.346 83.4506 135.936 82.9416 135.436C82.3235 134.844 82.0053 133.989 81.7417 133.178C81.5872 132.732 81.4872 132.259 81.4145 131.795C81.3509 131.331 81.3145 130.83 81.3509 130.466C81.4236 129.901 81.5963 129.346 81.8781 128.836C82.2871 128.063 82.9052 127.362 83.6778 126.925C84.2777 126.57 84.9594 126.452 85.6229 126.397L86.0592 126.379C86.6046 126.306 86.7864 126.142 86.95 125.769C86.9863 125.678 87.0318 125.596 87.0591 125.514C87.15 125.241 86.9136 124.959 86.3955 124.731C85.6229 124.476 84.7594 124.494 83.905 124.658C83.0506 124.84 82.1871 125.195 81.5054 125.805C80.4601 126.67 79.7057 127.862 79.3058 129.137L79.3603 129.155L79.3512 129.182Z" fill="#11181C"/>
<path d="M179.7 132.581C179.169 132.711 178.607 132.962 178.182 133.364C178.023 133.509 177.931 133.699 177.818 133.836C177.4 134.368 177.112 135.189 177.051 136.025C177.005 136.397 177.066 136.778 177.165 137.127C177.225 137.348 177.286 137.576 177.347 137.796C177.43 138.001 177.377 138.283 177.415 138.541C177.415 138.716 177.279 138.822 176.975 138.86C176.823 138.876 176.618 138.876 176.398 138.838C176.292 138.815 176.178 138.792 176.072 138.746C176.011 138.724 175.958 138.701 175.905 138.678C175.874 138.64 175.836 138.61 175.806 138.572C175.601 138.29 175.411 137.994 175.29 137.675C175.191 137.355 175.138 137.028 175.108 136.694C175.032 136.04 175.161 135.379 175.396 134.763C175.677 134.041 175.867 133.228 176.406 132.543C176.99 131.859 177.681 131.358 178.455 131C178.926 130.772 179.434 130.635 179.951 130.552C180.732 130.423 181.529 130.521 182.273 130.689C182.562 130.765 182.858 130.81 183.139 130.894C183.435 130.962 183.715 131.053 183.989 131.175C184.11 131.228 184.247 131.251 184.345 131.342C184.717 131.654 184.748 131.867 184.535 132.285C184.49 132.384 184.444 132.475 184.391 132.566C184.209 132.855 183.882 132.992 183.556 132.969C183.063 132.954 182.691 132.817 182.304 132.749C181.932 132.665 181.59 132.589 181.249 132.528C180.748 132.46 180.224 132.46 179.7 132.627L179.685 132.581H179.7Z" fill="#11181C"/>
<path d="M168.568 142.777C168.242 142.176 168.006 141.484 168.044 140.8C168.014 140.451 168.12 140.146 168.166 139.827C168.234 139.516 168.363 139.242 168.47 138.953C168.652 138.52 168.887 138.079 169.206 137.76C170.299 136.596 171.916 136.042 173.441 136.285C174.109 136.414 174.762 136.627 175.309 137.007C175.643 137.258 175.992 137.501 176.25 137.82C176.516 138.14 176.667 138.527 176.804 138.9C176.888 139.135 176.736 139.189 176.44 139.151C176.144 139.12 175.696 139.014 175.316 138.877C175.164 138.801 175.066 138.664 174.922 138.596L174.527 138.36C174.254 138.238 173.995 138.14 173.753 138.033C173.244 137.843 172.69 137.775 172.075 137.858C171.346 137.98 170.656 138.512 170.223 139.105C169.988 139.401 169.821 139.82 169.707 140.23C169.669 140.435 169.608 140.641 169.623 140.838C169.601 141.043 169.646 141.233 169.692 141.431C169.828 141.902 170.139 142.351 170.565 142.723C171.225 143.278 172.067 143.696 172.956 143.947C173.646 144.145 174.36 144.175 175.066 144.244C175.218 144.267 175.377 144.267 175.529 144.297C176.106 144.373 176.273 144.616 176.379 144.882C176.402 144.951 176.44 145.011 176.455 145.072C176.5 145.262 176.242 145.437 175.764 145.604C175.415 145.658 175.066 145.703 174.701 145.726C174.345 145.711 173.988 145.688 173.624 145.627C172.902 145.528 172.174 145.323 171.453 145.042C170.398 144.609 169.297 143.962 168.523 142.799L168.553 142.777H168.568Z" fill="#11181C"/>
<path d="M168.918 141.88C169.139 142.465 169.678 143.043 170.421 143.43C171.158 143.826 172.084 144.084 173.063 144.221C173.776 144.32 174.52 144.305 175.264 144.335C177.913 144.434 180.676 144.289 183.462 144.229C184.699 144.198 185.952 144.175 187.197 144.251C188.001 144.305 188.814 144.381 189.618 144.563C190.415 144.784 191.197 145.171 191.819 145.734C192.207 146.091 192.062 146.144 191.592 146.159C191.364 146.159 191.03 146.197 190.666 146.258C190.301 146.311 189.914 146.334 189.497 146.334C188.085 146.144 186.574 146.19 185.049 146.289C183.515 146.311 181.936 146.388 180.327 146.395C178.407 146.403 176.395 146.699 174.346 146.623C173.222 146.578 172.069 146.448 170.922 146.129C169.784 145.81 168.6 145.278 167.696 144.327C167.135 143.773 166.694 143.028 166.474 142.245C166.247 141.462 166.254 140.641 166.406 139.88C166.884 137.57 168.797 135.715 171.089 135.342C172.866 135.031 174.642 135.593 176.061 136.505C176.38 136.703 176.691 136.901 176.972 137.136C178.004 138.048 178.088 138.558 177.815 139.143C177.762 139.272 177.731 139.402 177.678 139.493C177.541 139.759 176.767 139.736 176.076 139.242C175.545 138.885 175.029 138.55 174.505 138.254C173.974 137.98 173.45 137.76 172.934 137.63C171.902 137.372 170.945 137.524 170.148 138.094C169.579 138.527 169.123 139.174 168.911 139.873C168.698 140.572 168.729 141.272 168.972 141.842L168.918 141.872V141.88Z" fill="#11181C"/>
<path d="M182.33 132.514C181.541 131.967 180.554 131.716 179.567 131.845C179.21 131.898 178.869 132.043 178.542 132.187C177.351 132.651 176.364 133.738 176.258 135.083C176.189 135.676 176.341 136.292 176.614 136.855C176.994 137.577 177.51 138.185 177.844 139.097C177.958 139.378 177.844 139.454 177.495 139.47C177.32 139.477 177.07 139.47 176.774 139.454C176.63 139.439 176.47 139.416 176.326 139.371C176.189 139.31 176.06 139.234 175.939 139.143C175.749 138.953 175.521 138.785 175.362 138.557C175.21 138.322 175.051 138.101 174.922 137.843C174.656 137.341 174.451 136.786 174.337 136.201C174.087 135.023 174.39 133.708 175.066 132.742C175.855 131.587 176.91 130.599 178.208 130.135C179.62 129.625 181.199 129.694 182.543 130.256C183.37 130.606 184.091 131.123 184.714 131.731C185.678 132.681 186.224 134.042 186.285 135.365C186.353 136.391 186.262 137.417 185.966 138.383C185.898 138.588 185.867 138.816 185.738 138.998C185.632 139.173 185.533 139.31 185.442 139.424C185.344 139.53 185.222 139.584 185.123 139.629C184.926 139.72 184.706 139.705 184.463 139.652C184.357 139.629 184.258 139.622 184.182 139.591C183.954 139.53 183.734 139.021 183.765 138.474C183.803 137.668 184.046 137.029 184.099 136.376C184.167 135.737 184.152 135.144 183.992 134.612C183.772 133.829 183.188 133.099 182.338 132.567L182.36 132.522L182.33 132.514Z" fill="#11181C"/>
<path d="M189.055 134.559C189.586 134.627 190.11 134.756 190.558 134.977C191.013 135.167 191.453 135.433 191.856 135.737C192 135.858 192.144 135.965 192.296 136.071C192.433 136.193 192.562 136.33 192.683 136.474C193.085 136.991 193.381 137.592 193.511 138.207C193.602 138.511 193.609 138.831 193.632 139.135C193.609 139.446 193.594 139.751 193.518 140.055C193.412 140.579 193.23 141.096 192.956 141.552C192.759 141.833 192.516 142.084 192.243 142.282C192.091 142.365 191.924 142.419 191.772 142.472C191.605 142.51 191.438 142.525 191.279 142.548C191.082 142.563 191.097 142.51 191.173 142.312C191.211 142.213 191.256 142.077 191.294 141.925C191.34 141.78 191.347 141.567 191.385 141.43C191.476 141.202 191.56 141.012 191.582 140.792C191.643 140.602 191.704 140.427 191.742 140.237C191.833 139.857 191.833 139.462 191.841 139.021C191.841 138.473 191.453 138.017 191.066 137.66C190.649 137.242 190.034 136.946 189.412 136.786C189.032 136.702 188.63 136.687 188.243 136.763C187.651 136.854 187.036 137.105 186.557 137.546C186.193 137.896 185.965 138.359 185.73 138.8C185.677 138.892 185.647 139.006 185.586 139.097C185.297 139.408 185.1 139.462 184.675 139.37C184.576 139.348 184.478 139.34 184.394 139.31C184.098 139.226 183.931 138.937 183.908 138.496C183.893 138.169 183.961 137.865 184.068 137.569C184.166 137.265 184.303 136.976 184.462 136.687C184.812 136.125 185.335 135.653 185.927 135.266C186.375 134.984 186.869 134.741 187.408 134.612C187.947 134.498 188.501 134.445 189.047 134.498V134.551L189.055 134.559Z" fill="#11181C"/>
<path d="M78.6985 153.043C79.5562 154.137 79.8447 155.262 79.9889 156.395C80.0117 156.813 80.1028 157.223 80.0496 157.649C79.9965 158.386 79.7688 159.124 79.4272 159.793C79.078 160.469 78.5467 161.024 77.9546 161.45C77.6889 161.64 77.4005 161.784 77.1272 161.936C76.8388 162.066 76.5352 162.142 76.2467 162.248C75.8748 162.362 75.4877 162.408 75.1081 162.469C74.9184 162.499 74.7286 162.469 74.5312 162.431C74.3415 162.408 74.1517 162.355 73.9695 162.263C73.7418 162.149 73.7798 162.111 73.9619 161.906C74.1517 161.686 74.4553 161.252 74.8121 161.138L75.7078 160.804C75.9583 160.637 76.2543 160.545 76.4593 160.363C76.9754 160.142 77.3625 159.793 77.7497 159.375C78.2051 158.843 78.2734 158.022 78.2507 157.269C78.2279 156.425 78.0078 155.536 77.5979 154.821C77.3625 154.418 76.983 154.023 76.5352 153.689C75.8824 153.187 75.1005 152.792 74.3263 152.792C73.719 152.769 73.1877 153.02 72.7171 153.362C72.6032 153.415 72.5197 153.529 72.4135 153.605C72.0111 153.894 71.8366 153.978 71.495 153.833C71.4191 153.803 71.3356 153.787 71.2673 153.749C71.032 153.635 71.0244 153.316 71.2521 152.868C71.6164 152.229 72.2009 151.598 73.0359 151.241C73.4458 151.058 73.9012 150.937 74.3491 150.914C74.8045 150.914 75.2524 150.967 75.6698 151.089C76.9223 151.446 77.8939 152.115 78.744 153.005L78.7137 153.043H78.6985Z" fill="#11181C"/>
<path d="M66.4728 160.759C68.9853 160.903 71.5205 160.934 74.0179 160.774C74.9287 160.713 75.8244 160.569 76.6898 160.44C77.0693 160.379 77.4412 160.303 77.7828 160.212C77.9498 160.166 78.1092 160.113 78.2231 160.06C78.3142 160.029 78.3369 159.999 78.3977 159.961L78.6178 159.588C78.7165 159.444 78.7848 159.284 78.8455 159.117C78.9062 158.95 78.9897 158.798 79.0353 158.623L79.1643 158.106C79.4604 156.715 79.1643 155.164 78.3445 153.948C77.965 153.423 77.4868 152.982 76.9403 152.671C76.3786 152.39 75.7713 152.298 75.164 152.314C74.3518 152.359 73.6611 152.747 73.1146 153.347C72.8337 153.644 72.6288 154.001 72.4238 154.358C72.2189 154.723 72.0595 155.126 71.9836 155.559C71.9077 156.092 71.8166 156.076 71.5889 155.567C71.4826 155.316 71.3763 154.928 71.346 154.419C71.3384 154.168 71.3308 153.879 71.3991 153.598C71.475 153.317 71.5964 153.02 71.771 152.747C72.0747 152.26 72.477 151.812 72.9628 151.447C73.441 151.082 74.0558 150.816 74.6403 150.71C75.832 150.405 77.1604 150.732 78.1472 151.371C80.1587 152.694 81.1151 154.997 81.062 157.201C81.0392 157.536 81.0012 157.863 80.9709 158.197C80.9026 158.524 80.8267 158.851 80.7432 159.178L80.3864 160.12L80.1435 160.569L80.0221 160.797C79.9613 160.888 79.931 160.987 79.8399 161.086C79.559 161.489 79.0429 161.724 78.7392 161.861C78.4128 161.99 78.094 162.082 77.7828 162.165C77.1604 162.317 76.5607 162.416 75.9535 162.5C73.3119 162.811 70.7159 162.842 68.1123 162.789C66.5107 162.751 64.9091 162.659 63.3075 162.5C62.093 162.37 60.8861 162.226 59.6564 161.914C59.3452 161.838 59.0415 161.747 58.7151 161.61C58.5633 161.557 58.3812 161.451 58.2217 161.359C58.0472 161.245 57.9029 161.109 57.7739 160.972C57.2805 160.409 57.0072 159.733 56.9313 159.018C56.8099 157.893 57.3412 156.745 58.1307 156.054C58.5026 155.673 59.0719 155.354 59.6184 155.233C60.1725 155.096 60.7494 155.096 61.3035 155.21C61.7893 155.301 62.2524 155.491 62.6699 155.757C63.4289 156.304 63.725 156.867 63.8692 157.239C63.9982 157.635 63.9603 157.901 63.8236 158.136C63.7705 158.243 63.7174 158.364 63.6566 158.433C63.4213 158.668 63.0038 158.144 62.3207 157.589C61.7969 157.201 61.2201 156.958 60.6508 156.935C60.3699 156.928 60.0966 156.966 59.8689 157.057C59.7551 157.103 59.6564 157.156 59.5729 157.217L59.4514 157.323L59.292 157.483C58.8745 157.924 58.7227 158.357 58.7683 158.813C58.791 159.269 59.1554 159.794 59.3452 159.816C59.6943 159.968 60.3092 160.105 60.8861 160.204C61.4781 160.303 62.093 160.379 62.7078 160.447C63.9451 160.577 65.2127 160.637 66.4804 160.698V160.751L66.4728 160.759Z" fill="#11181C"/>
<path d="M63.9754 152.031C64.6737 151.362 65.5694 150.83 66.5562 150.601L67.0952 150.472C67.2773 150.449 67.4595 150.427 67.6417 150.427C68.2262 150.449 68.7271 150.525 69.2964 150.647C69.8505 150.761 70.4199 150.974 70.936 151.316C71.3839 151.62 71.8317 151.993 72.105 152.456C72.4466 153.049 72.6439 153.703 72.439 154.334C72.3858 154.532 72.2568 154.509 72.0291 154.402C71.8773 154.326 71.7254 154.243 71.604 154.182C71.437 154.098 71.27 154.015 71.2017 153.901C70.9057 153.49 70.5641 153.33 70.3515 153.125C70.1086 152.928 69.7671 152.798 69.3268 152.578C69.0611 152.449 68.7499 152.411 68.4235 152.403C68.2641 152.403 68.0971 152.403 67.9225 152.403C67.7555 152.403 67.6493 152.433 67.5126 152.426C66.9433 152.464 66.3513 152.692 65.8351 153.102C65.5315 153.368 65.2203 153.65 64.985 154.007C64.6206 154.532 64.2942 155.132 64.1803 155.778C64.0817 156.28 64.1955 156.789 64.2942 157.253C64.3246 157.352 64.3701 157.451 64.3929 157.549C64.4384 157.922 64.2942 158.081 63.9147 158.302C63.8236 158.355 63.7477 158.408 63.6642 158.454C63.3985 158.591 63.0493 158.507 62.7609 158.158C62.0853 157.086 62.1233 155.687 62.4725 154.463C62.7305 153.536 63.2619 152.7 63.9526 151.985L63.9906 152.015L63.9754 152.031Z" fill="#11181C"/>
<path d="M111.988 135.261C111.988 135.261 114.88 133.724 115.71 135.849C116.539 137.974 114.102 138.907 112.964 138.753C111.826 138.598 112.773 139.767 112.237 140.775C111.188 142.745 107.517 140.311 107.054 143.892C106.834 145.553 107.708 145.031 108.17 147.09C108.618 149.068 106.849 148.516 103.978 147.002C101.108 145.487 97.1435 143.524 98.5016 140.517C99.8525 137.51 101.761 137.341 103.222 137.599C104.683 137.856 106.607 139.326 107.583 139.069C108.559 138.812 111.988 135.261 111.988 135.261Z" fill="#11181C"/>
<path d="M130.163 131.836C130.038 132.086 128.944 134.549 129.685 135.262C130.427 135.975 132.439 136.159 133.481 135.542C134.523 134.924 135.397 136.115 136.329 136.784C137.262 137.453 138.921 138.027 139.802 136.784C140.683 135.542 142.085 134.13 142.915 134.674C143.744 135.218 142.445 136.365 144.155 136.262C145.866 136.159 147.525 134.446 147.576 132.322C147.628 130.197 149.441 128.535 146.226 128.271C143.01 128.013 141.197 128.506 140.162 130.336C139.126 132.167 139.31 132.123 138.246 131.755C137.181 131.388 132.93 130.042 131.859 130.564C130.787 131.086 130.163 131.836 130.163 131.836Z" fill="#11181C"/>
<path d="M145.731 189.726C142.317 191.461 138.675 192.622 134.968 193.372C131.261 194.115 127.465 194.402 123.692 194.225C120.939 194.107 118.186 193.813 115.499 193.174C110.771 192.049 106.183 190.027 102.38 186.902C100.486 185.344 98.7971 183.521 97.4316 181.484C96.0808 179.448 94.9062 177.271 94.1794 174.926L93.9078 174.161L93.7096 173.375L93.3131 171.794L93.0488 170.191L92.9167 169.39L92.8506 168.581L92.7185 166.964L92.7038 165.346C92.6597 164.266 92.7992 163.2 92.8506 162.134C93.4232 156.693 94.9429 151.245 97.8941 146.643C98.9586 145.29 98.7971 145.481 98.5182 146.922C98.4668 147.29 98.3566 147.716 98.2539 148.209C98.1951 148.723 98.0263 149.245 97.8868 149.834C97.7179 150.414 97.5638 151.047 97.3876 151.716C97.1967 152.377 96.9985 153.076 96.7929 153.804C95.1118 158.862 94.3483 164.229 94.9723 169.449C95.6036 174.661 97.8648 179.639 101.462 183.565C103.642 185.873 106.351 187.799 109.369 189.145C110.859 189.858 112.437 190.38 114.023 190.865C115.624 191.299 117.246 191.689 118.883 191.924C126.085 193.056 133.61 192.372 140.496 189.902C144.732 188.395 148.726 186.138 151.927 183.006C154.357 180.646 156.302 177.786 157.638 174.669C158.982 171.551 159.679 168.177 159.833 164.81C159.929 162.185 159.701 159.582 159.18 157.046C158.644 154.509 157.851 152.047 156.838 149.679C156.376 148.643 155.876 147.65 155.34 146.635C153.336 142.901 152.573 141.79 152.543 140.651C152.521 140.401 152.455 140.1 152.477 139.923C152.499 139.364 154.085 140.416 155.957 143.136C158.681 147.187 160.619 151.951 161.537 157.009C161.984 159.538 162.183 162.141 162.058 164.751C161.926 167.361 161.47 169.971 160.692 172.493C159.525 176.235 157.572 179.749 154.981 182.697C152.36 185.623 149.188 188.005 145.745 189.762L145.716 189.726H145.731Z" fill="#11181C"/>
<path d="M117.001 126.586C117.89 126.277 118.778 125.968 119.696 125.755C120.599 125.49 121.524 125.328 122.441 125.159C123.109 124.998 123.785 124.917 124.46 124.828C126.854 124.601 129.276 124.645 131.64 125.02C132.169 125.071 132.683 125.211 133.211 125.284C133.732 125.38 134.261 125.439 134.768 125.578C135.421 125.74 136.096 125.865 136.75 126.042C137.073 126.152 137.381 126.299 137.689 126.439C137.998 126.578 138.306 126.718 138.563 126.99C138.849 127.402 138.813 127.336 138.365 127.541C137.895 127.791 137.161 127.997 136.441 127.85C133.938 127.144 131.405 126.644 128.777 126.321C128.381 126.277 127.984 126.247 127.58 126.225C127.177 126.225 126.773 126.255 126.369 126.269C125.965 126.299 125.554 126.299 125.15 126.358L123.939 126.512C123.043 126.578 122.184 126.821 121.296 126.983C120.437 127.218 119.556 127.431 118.712 127.725L117.148 128.284C116.642 128.505 116.135 128.725 115.629 128.96C114.858 129.299 114.146 129.747 113.397 130.137C112.677 130.57 111.973 131.034 111.297 131.511C110.791 131.916 110.299 132.328 109.814 132.747C109.352 133.188 108.911 133.658 108.456 134.099C108.251 134.291 108.082 134.511 107.883 134.717C107.142 135.452 106.775 135.555 106.232 135.335C106.114 135.29 105.982 135.261 105.887 135.21C105.578 135.055 105.593 134.445 106.077 133.776C107.546 131.85 109.565 130.218 111.804 128.96C112.611 128.46 113.492 128.078 114.337 127.644C114.777 127.461 115.225 127.284 115.651 127.093C116.084 126.902 116.517 126.703 116.972 126.556L116.987 126.593L117.001 126.586Z" fill="#11181C"/>
<path d="M100.81 136.725C101.97 136.225 103.475 136.129 104.686 136.504C105.288 136.695 105.817 136.945 106.301 137.188C106.734 137.408 107.388 137.754 107.329 137.717C107.373 137.747 107.439 137.798 107.483 137.747C107.52 137.702 107.571 137.673 107.601 137.622L107.791 137.401C107.872 137.313 107.938 137.217 108.012 137.122L108.452 136.548C108.753 136.166 109.062 135.784 109.421 135.416C110.045 134.776 110.728 134.151 111.624 133.674C112.057 133.431 112.578 133.247 113.136 133.166C113.415 133.122 113.716 133.152 113.995 133.152C114.274 133.218 114.575 133.262 114.832 133.365C115.882 133.813 116.608 134.526 117.086 135.438C117.578 136.335 117.732 137.401 117.585 138.327C117.372 140.011 116.586 141.401 115.757 142.665C114.685 144.29 113.327 145.738 111.653 146.731C111.088 146.981 111.11 146.848 111.323 146.334C111.558 145.834 111.976 144.974 112.585 144.143C113.745 142.739 114.766 141.187 115.309 139.614C115.595 138.835 115.691 138.055 115.588 137.416C115.5 136.761 115.133 136.247 114.663 135.703C114.076 135.122 113.452 135.004 112.593 135.475C112.182 135.688 111.763 136.012 111.367 136.379C110.97 136.739 110.589 137.158 110.207 137.577C109.854 137.974 109.502 138.379 109.157 138.813C109.025 138.952 108.893 139.173 108.753 139.342C108.614 139.518 108.46 139.658 108.298 139.768C108.137 139.871 107.938 139.967 107.733 139.96C107.535 139.937 107.329 139.886 107.131 139.849C106.866 139.732 106.536 139.599 106.331 139.518L105.809 139.276C105.472 139.121 105.141 138.967 104.826 138.842C104.187 138.585 103.592 138.423 102.983 138.423C101.698 138.43 100.289 139.166 99.5912 140.305C99.3195 140.732 99.158 141.202 99.158 141.665C99.1507 142.143 99.2902 142.54 99.6132 143.025C100.178 143.966 101.03 144.746 101.992 145.341C103.511 146.253 105.251 146.701 106.999 146.951C107.388 147.01 107.762 147.032 108.151 147.076C108.871 147.157 109.348 147.201 109.678 147.326C110.009 147.481 110.199 147.642 110.361 147.892C110.434 148.003 110.53 148.113 110.574 148.223C110.647 148.407 110.53 148.561 110.243 148.723C109.957 148.885 109.495 149.047 108.907 149.047C107.167 149.083 105.361 148.833 103.585 148.253C102.697 147.951 101.823 147.569 100.979 147.069C100.142 146.554 99.3416 145.922 98.6368 145.15C98.4019 144.841 98.1302 144.562 97.932 144.216C97.7265 143.878 97.5136 143.577 97.3227 143.077C96.9776 142.143 96.9997 141.077 97.308 140.217C97.609 139.342 98.1082 138.621 98.7029 138.033C99.2975 137.445 99.9949 136.967 100.773 136.651L100.795 136.703L100.81 136.725Z" fill="#11181C"/>
<path d="M143.675 128.711C142.882 128.843 142.287 129.152 141.737 129.733C141.443 130.012 141.164 130.365 140.878 130.769C140.569 131.218 140.378 131.468 139.747 132.343L139.277 132.755C139.101 132.857 138.881 132.916 138.69 132.924C138.492 132.938 138.286 132.902 138.073 132.843C137.86 132.784 137.64 132.666 137.427 132.6L137.038 132.46C136.928 132.416 136.818 132.387 136.7 132.35L136.04 132.152L134.748 131.799C133.272 131.402 131.745 131.321 131.15 132.122C130.813 132.519 130.614 133.232 130.585 133.857C130.548 134.49 130.732 135.151 131.158 135.732C131.862 136.805 133.14 137.555 134.395 138.121C135.217 138.496 136.091 138.761 136.965 139.004C137.838 139.276 138.727 139.504 139.622 139.71C140.18 139.908 140.107 139.996 139.593 140.224C139.072 140.452 138.081 140.687 136.943 140.57C134.96 140.232 132.993 139.629 131.18 138.401C130.284 137.798 129.418 136.938 128.896 135.776C128.375 134.615 128.346 133.203 128.823 132.078C129.095 131.387 129.587 130.667 130.269 130.181C130.959 129.674 131.767 129.52 132.472 129.476C133.191 129.431 133.859 129.512 134.498 129.637C135.137 129.755 135.739 129.931 136.319 130.13L137.89 130.681C138.007 130.733 138.081 130.755 138.183 130.799C138.227 130.814 138.293 130.821 138.33 130.792C138.36 130.755 138.389 130.711 138.426 130.674C138.484 130.615 138.492 130.6 138.58 130.475L138.881 130.012C139.086 129.696 139.292 129.365 139.534 129.034C139.997 128.365 140.643 127.711 141.428 127.27C143.109 126.358 145.099 126.329 146.773 127.16C147.404 127.476 147.991 127.954 148.38 128.608C148.586 128.924 148.711 129.284 148.806 129.652C148.88 130.034 148.887 130.365 148.887 130.696C148.887 132.027 148.535 133.306 148.013 134.468C147.191 136.261 146.105 137.864 144.783 139.276C144.497 139.585 144.211 139.893 143.888 140.18C143.293 140.709 142.86 141.011 142.493 141.136C142.126 141.253 141.839 141.217 141.568 141.106C141.443 141.055 141.303 141.018 141.208 140.952C141.054 140.842 141.061 140.636 141.193 140.357C141.333 140.077 141.56 139.687 141.949 139.335C143.073 138.224 144.137 137.011 145.025 135.703C145.459 135.041 145.848 134.365 146.163 133.674C146.457 132.975 146.677 132.269 146.78 131.563C146.78 131.306 146.846 131.041 146.824 130.792C146.817 130.534 146.809 130.255 146.78 130.13C146.699 129.836 146.552 129.564 146.244 129.321C145.65 128.821 144.578 128.601 143.682 128.792L143.667 128.74L143.675 128.711Z" fill="#11181C"/>
<path d="M132.445 158.874L131.123 159.352C130.69 159.521 130.22 159.595 129.772 159.712C129.317 159.815 128.869 159.955 128.407 160.014L127.027 160.198C126.359 160.315 125.683 160.352 125.015 160.381C122.636 160.381 120.265 160.021 118.063 159.212C117.564 159.08 117.086 158.86 116.602 158.676C116.125 158.47 115.611 158.345 115.163 158.088C114.583 157.771 113.974 157.499 113.408 157.146C113.151 156.926 112.887 156.727 112.66 156.477C112.439 156.227 112.219 155.978 111.999 155.72C111.735 155.397 111.881 155.308 112.322 155.286C112.542 155.272 112.843 155.264 113.188 155.264C113.357 155.264 113.54 155.264 113.717 155.286C113.886 155.323 114.047 155.367 114.209 155.441C114.796 155.654 115.332 155.933 115.882 156.183L116.294 156.382C116.44 156.433 116.58 156.492 116.719 156.544L117.564 156.889C118.114 157.154 118.701 157.308 119.289 157.507C119.582 157.602 119.869 157.713 120.17 157.801L121.073 158.021C121.432 158.11 121.807 158.205 122.181 158.257C122.556 158.286 122.937 158.308 123.327 158.33C124.09 158.404 124.861 158.308 125.624 158.286C125.837 158.279 126.05 158.286 126.256 158.257L126.88 158.168L128.135 157.999C128.546 157.911 128.957 157.801 129.368 157.698C129.78 157.595 130.198 157.514 130.587 157.345L132.055 156.801L133.45 156.088C133.81 155.919 134.14 155.698 134.463 155.47L135.447 154.801C135.763 154.566 136.042 154.279 136.335 154.015C136.614 153.735 136.937 153.493 137.18 153.184C137.561 152.706 137.914 152.213 138.252 151.721L139.059 150.118C139.191 149.89 139.25 149.64 139.345 149.39C139.705 148.486 140.08 148.309 140.63 148.28C140.755 148.28 140.887 148.251 140.997 148.258C141.188 148.273 141.313 148.405 141.386 148.64C141.46 148.875 141.504 149.228 141.408 149.625C141.195 150.846 140.549 151.934 139.918 153.037C139.536 153.544 139.147 154.059 138.736 154.559C138.325 155.051 137.818 155.463 137.349 155.919C137.172 156.08 137.004 156.25 136.813 156.397L136.225 156.816L135.043 157.639L133.773 158.315C133.348 158.536 132.929 158.771 132.481 158.926L132.459 158.882L132.445 158.874Z" fill="#11181C"/>
<path d="M146.795 120.011C146.905 120.121 146.802 120.297 146.619 120.503C146.56 120.569 146.34 120.665 146.288 120.643C146.186 120.599 146.083 120.555 145.987 120.503C145.936 120.467 145.341 119.842 145.092 119.643C144.879 119.437 144.754 119.202 144.615 118.959C144.365 118.467 144.049 117.996 143.851 117.482C143.8 117.371 143.778 117.246 143.77 117.121C143.741 116.68 143.602 116.291 143.411 115.908C143.381 115.842 143.367 115.776 143.279 115.732C143.124 115.666 142.728 114.592 142.743 114.431C142.743 114.041 142.779 113.651 142.787 113.269C142.787 113.217 142.75 113.166 142.816 113.1C142.978 112.938 142.911 112.843 142.904 112.725C142.904 112.644 142.904 112.541 142.933 112.541C142.978 112.526 143.073 112.482 143.132 112.445C143.183 112.423 143.242 112.379 143.279 112.35C143.315 112.321 143.337 112.291 143.352 112.276V112.262V112.284V112.298L143.301 112.659C143.301 112.659 143.33 112.659 143.293 112.644C143.249 112.629 143.293 112.659 143.124 112.585C143.058 112.548 143.022 112.526 142.948 112.445C142.889 112.365 142.845 112.262 142.838 112.166C142.838 112.1 142.845 112.056 142.86 112.004C142.904 111.916 142.933 111.909 142.97 111.894C143.044 111.872 143.102 111.857 143.161 111.843C143.264 111.813 143.381 111.909 143.396 111.946C143.425 112.034 143.528 112.019 143.594 112.041C143.616 112.048 143.646 112.063 143.668 112.071C143.682 112.071 143.697 112.173 143.778 112.247C143.712 112.218 143.631 112.188 143.557 112.159L143.44 112.129C143.44 112.129 143.403 112.115 143.389 112.115C143.345 112.115 143.33 112.115 143.33 112.115C143.337 112.107 143.345 112.093 143.337 112.085C143.521 111.115 143.389 111.813 143.433 111.6H143.425L143.411 111.593C143.396 111.563 143.638 111.578 143.748 111.644C144.02 111.776 144.101 111.924 144.196 112.019L144.306 112.151L144.394 112.218C144.453 112.262 144.497 112.298 144.534 112.343C144.607 112.416 144.666 112.475 144.673 112.504C144.673 112.512 144.828 112.806 144.989 113.115C145.165 113.416 145.297 113.739 145.341 113.798C145.385 113.864 145.356 113.953 145.356 114.034C145.356 114.07 145.819 114.982 145.826 115.026C145.87 115.232 146.002 115.408 145.907 115.666C145.885 115.717 145.907 115.754 145.929 115.791C146.076 116.122 146.127 116.489 146.215 116.842C146.266 117.018 146.325 117.195 146.384 117.371C146.391 117.401 146.384 117.445 146.384 117.482C146.384 117.526 146.377 117.577 146.384 117.614C146.531 118.026 146.597 118.474 146.795 118.871C146.824 118.967 146.788 119.511 146.839 119.614C146.861 119.673 146.736 119.967 146.788 120.011H146.795Z" fill="#11181C"/>
<path d="M150.523 120.153C150.567 120.248 150.413 120.27 150.149 120.263C150.061 120.263 149.818 120.197 149.789 120.16C149.73 120.101 149.672 120.035 149.635 119.976C149.613 119.94 149.569 119.462 149.539 119.293C149.51 119.131 149.525 118.976 149.554 118.829C149.606 118.528 149.657 118.219 149.708 117.918C149.723 117.852 149.745 117.785 149.796 117.734C149.973 117.55 150.046 117.33 150.097 117.102C150.105 117.065 150.127 117.028 150.09 116.977C150.031 116.889 150.222 116.286 150.325 116.234C150.516 116.095 150.67 115.94 150.839 115.793C150.861 115.771 150.861 115.734 150.927 115.734C151.088 115.734 151.088 115.668 151.133 115.624C151.199 115.558 151.265 115.499 151.353 115.44C151.397 115.411 151.485 115.403 151.551 115.396C151.617 115.381 151.764 115.477 151.779 115.492C151.815 115.55 151.903 115.558 151.969 115.58C151.991 115.587 152.021 115.602 152.043 115.609C152.058 115.624 152.3 116.249 152.27 116.293C152.27 116.293 152.241 116.477 152.219 116.668C152.197 116.859 152.175 117.058 152.182 117.094C152.182 117.138 152.131 117.161 152.094 117.19C152.072 117.205 151.991 117.756 151.984 117.778C151.925 117.874 151.94 118.006 151.779 118.065C151.749 118.08 151.742 118.102 151.742 118.124C151.698 118.315 151.58 118.477 151.463 118.646C151.404 118.734 151.382 118.829 151.345 118.925C151.338 118.94 151.316 118.954 151.301 118.969C151.279 118.984 151.257 119.006 151.25 119.028C151.169 119.249 151.022 119.454 150.986 119.69C150.971 119.741 150.758 119.954 150.751 120.02C150.751 120.057 150.531 120.116 150.553 120.16L150.523 120.153Z" fill="#11181C"/>
<path d="M155.388 123.422C155.344 123.569 155.153 123.503 154.881 123.334C154.793 123.275 154.609 123.047 154.609 122.995C154.609 122.885 154.609 122.775 154.631 122.679C154.646 122.628 155.057 122.018 155.182 121.79C155.307 121.576 155.461 121.4 155.622 121.231L156.658 120.26C156.738 120.187 156.826 120.135 156.929 120.091C157.274 119.944 157.553 119.709 157.796 119.444C157.84 119.4 157.891 119.371 157.891 119.283C157.891 119.143 158.625 118.481 158.772 118.467C159.102 118.371 159.396 118.231 159.704 118.106C159.748 118.092 159.77 118.04 159.851 118.077C160.035 118.15 160.101 118.077 160.196 118.04C160.321 117.981 160.453 117.93 160.6 117.886C160.673 117.864 160.776 117.886 160.864 117.886C160.945 117.886 161.033 118.048 161.033 118.077C161.026 118.158 161.121 118.195 161.173 118.253C161.187 118.275 161.217 118.297 161.224 118.312C161.231 118.334 160.96 119.216 160.923 119.305C160.923 119.341 160.159 120.194 160.093 120.312C160.057 120.371 159.983 120.385 159.917 120.415C159.888 120.43 159.271 121.106 159.242 121.121C159.08 121.224 158.977 121.393 158.735 121.393C158.691 121.393 158.662 121.422 158.64 121.452C158.405 121.672 158.119 121.834 157.84 122.01C157.7 122.098 157.583 122.216 157.458 122.319C157.436 122.341 157.399 122.341 157.37 122.348C157.333 122.363 157.289 122.371 157.26 122.393C156.973 122.657 156.599 122.819 156.327 123.098C156.261 123.157 155.813 123.297 155.747 123.378C155.703 123.422 155.417 123.378 155.402 123.429L155.388 123.422Z" fill="#11181C"/>
<rect x="53.4611" y="69.7586" width="144.399" height="6.46805" fill="#FAF9F8" stroke="#808080" strokeWidth="0.32854"/>
<rect x="53.4611" y="80.5509" width="144.399" height="6.46805" fill="#FAF9F8" stroke="#808080" strokeWidth="0.32854"/>
<rect x="185.133" y="126.297" width="156.393" height="156.393" fill="#FAF9F8" stroke="#808080" strokeWidth="0.32854"/>
<rect x="191.133" y="132.295" width="144.399" height="120.811" fill="#FFEAEB" stroke="#808080" strokeWidth="0.32854"/>
<path d="M200.089 144.302C199.908 144.302 199.749 144.273 199.611 144.215C199.476 144.157 199.369 144.077 199.289 143.976C199.212 143.872 199.168 143.749 199.156 143.608H199.652C199.665 143.691 199.709 143.758 199.786 143.81C199.862 143.859 199.964 143.884 200.089 143.884H200.287C200.437 143.884 200.551 143.853 200.628 143.792C200.704 143.731 200.742 143.649 200.742 143.548C200.742 143.45 200.707 143.373 200.637 143.318C200.569 143.26 200.468 143.221 200.333 143.203L200.007 143.152C199.737 143.11 199.537 143.033 199.409 142.923C199.283 142.809 199.22 142.642 199.22 142.421C199.22 142.188 199.295 142.009 199.445 141.883C199.599 141.754 199.824 141.69 200.122 141.69H200.296C200.56 141.69 200.77 141.751 200.926 141.874C201.086 141.993 201.176 142.154 201.198 142.357H200.701C200.689 142.283 200.647 142.223 200.577 142.177C200.509 142.131 200.416 142.108 200.296 142.108H200.122C199.977 142.108 199.872 142.136 199.804 142.191C199.74 142.243 199.708 142.322 199.708 142.426C199.708 142.518 199.737 142.587 199.795 142.633C199.853 142.679 199.944 142.711 200.066 142.729L200.402 142.785C200.687 142.824 200.896 142.904 201.028 143.024C201.163 143.14 201.23 143.31 201.23 143.534C201.23 143.776 201.15 143.965 200.991 144.1C200.834 144.235 200.6 144.302 200.287 144.302H200.089ZM203.022 144.307C202.719 144.307 202.476 144.22 202.295 144.045C202.114 143.867 202.024 143.626 202.024 143.323V141.731H202.521V143.323C202.521 143.497 202.565 143.634 202.654 143.732C202.743 143.827 202.866 143.875 203.022 143.875C203.182 143.875 203.306 143.827 203.395 143.732C203.487 143.634 203.533 143.497 203.533 143.323V141.731H204.029V143.323C204.029 143.626 203.937 143.867 203.753 144.045C203.572 144.22 203.329 144.307 203.022 144.307ZM204.883 145.089V141.731H205.375V142.214H205.481L205.375 142.329C205.375 142.13 205.437 141.973 205.559 141.86C205.685 141.743 205.852 141.685 206.061 141.685C206.315 141.685 206.517 141.771 206.668 141.943C206.821 142.111 206.898 142.343 206.898 142.637V143.35C206.898 143.547 206.862 143.717 206.792 143.861C206.724 144.002 206.628 144.112 206.502 144.192C206.379 144.269 206.232 144.307 206.061 144.307C205.855 144.307 205.69 144.25 205.564 144.137C205.438 144.02 205.375 143.862 205.375 143.663L205.481 143.778H205.366L205.38 144.367V145.089H204.883ZM205.89 143.875C206.053 143.875 206.179 143.829 206.268 143.737C206.36 143.642 206.406 143.505 206.406 143.327V142.665C206.406 142.487 206.36 142.352 206.268 142.26C206.179 142.165 206.053 142.118 205.89 142.118C205.734 142.118 205.61 142.167 205.518 142.265C205.426 142.36 205.38 142.493 205.38 142.665V143.327C205.38 143.499 205.426 143.634 205.518 143.732C205.61 143.827 205.734 143.875 205.89 143.875ZM208.727 144.307C208.521 144.307 208.34 144.267 208.184 144.187C208.03 144.105 207.912 143.99 207.83 143.842C207.747 143.695 207.705 143.524 207.705 143.327V142.665C207.705 142.466 207.747 142.294 207.83 142.15C207.912 142.003 208.03 141.889 208.184 141.809C208.34 141.727 208.521 141.685 208.727 141.685C208.935 141.685 209.116 141.727 209.269 141.809C209.423 141.889 209.541 142.003 209.623 142.15C209.706 142.294 209.748 142.466 209.748 142.665V143.116H208.184V143.327C208.184 143.514 208.23 143.657 208.322 143.755C208.417 143.853 208.553 143.902 208.731 143.902C208.875 143.902 208.992 143.878 209.081 143.829C209.17 143.776 209.225 143.701 209.246 143.603H209.738C209.702 143.818 209.591 143.99 209.407 144.118C209.223 144.244 208.996 144.307 208.727 144.307ZM209.269 142.817V142.66C209.269 142.476 209.223 142.334 209.131 142.233C209.039 142.131 208.904 142.081 208.727 142.081C208.552 142.081 208.417 142.131 208.322 142.233C208.23 142.334 208.184 142.478 208.184 142.665V142.78L209.306 142.775L209.269 142.817ZM210.666 144.261V141.731H211.144V142.214H211.264L211.112 142.513C211.112 142.24 211.172 142.035 211.291 141.897C211.411 141.756 211.589 141.685 211.825 141.685C212.095 141.685 212.308 141.77 212.464 141.938C212.624 142.104 212.703 142.332 212.703 142.624V142.794H212.193V142.665C212.193 142.484 212.147 142.346 212.055 142.251C211.966 142.153 211.84 142.104 211.678 142.104C211.515 142.104 211.388 142.153 211.296 142.251C211.207 142.349 211.163 142.487 211.163 142.665V144.261H210.666ZM214.445 144.307C214.236 144.307 214.052 144.269 213.893 144.192C213.736 144.112 213.615 143.999 213.529 143.852C213.447 143.701 213.405 143.527 213.405 143.327V142.665C213.405 142.463 213.447 142.288 213.529 142.141C213.615 141.993 213.736 141.881 213.893 141.805C214.052 141.725 214.236 141.685 214.445 141.685C214.748 141.685 214.992 141.765 215.176 141.924C215.36 142.084 215.457 142.302 215.466 142.578H214.969C214.96 142.433 214.909 142.322 214.817 142.242C214.725 142.162 214.601 142.122 214.445 142.122C214.276 142.122 214.143 142.17 214.045 142.265C213.947 142.357 213.897 142.489 213.897 142.66V143.327C213.897 143.499 213.947 143.632 214.045 143.727C214.143 143.822 214.276 143.87 214.445 143.87C214.601 143.87 214.725 143.83 214.817 143.75C214.909 143.671 214.96 143.559 214.969 143.415H215.466C215.457 143.691 215.36 143.908 215.176 144.068C214.992 144.227 214.748 144.307 214.445 144.307ZM217.64 144.261C217.483 144.261 217.347 144.23 217.23 144.169C217.114 144.105 217.022 144.014 216.954 143.898C216.89 143.781 216.858 143.646 216.858 143.493V141.354H216.03V140.903H217.355V143.493C217.355 143.591 217.382 143.669 217.437 143.727C217.493 143.783 217.568 143.81 217.663 143.81H218.445V144.261H217.64ZM220.126 144.302C219.918 144.302 219.737 144.263 219.584 144.183C219.43 144.103 219.312 143.99 219.229 143.842C219.147 143.695 219.105 143.522 219.105 143.323V142.67C219.105 142.467 219.147 142.294 219.229 142.15C219.312 142.003 219.43 141.889 219.584 141.809C219.737 141.73 219.918 141.69 220.126 141.69C220.335 141.69 220.516 141.73 220.669 141.809C220.822 141.889 220.94 142.003 221.023 142.15C221.106 142.294 221.147 142.467 221.147 142.67V143.323C221.147 143.522 221.106 143.695 221.023 143.842C220.94 143.99 220.822 144.103 220.669 144.183C220.516 144.263 220.335 144.302 220.126 144.302ZM220.126 143.865C220.295 143.865 220.425 143.819 220.517 143.727C220.609 143.632 220.655 143.497 220.655 143.323V142.67C220.655 142.492 220.609 142.357 220.517 142.265C220.425 142.173 220.295 142.127 220.126 142.127C219.961 142.127 219.83 142.173 219.735 142.265C219.643 142.357 219.597 142.492 219.597 142.67V143.323C219.597 143.497 219.643 143.632 219.735 143.727C219.83 143.819 219.961 143.865 220.126 143.865ZM222.972 144.307C222.668 144.307 222.426 144.22 222.245 144.045C222.064 143.867 221.973 143.626 221.973 143.323V141.731H222.47V143.323C222.47 143.497 222.515 143.634 222.604 143.732C222.693 143.827 222.815 143.875 222.972 143.875C223.131 143.875 223.255 143.827 223.344 143.732C223.436 143.634 223.482 143.497 223.482 143.323V141.731H223.979V143.323C223.979 143.626 223.887 143.867 223.703 144.045C223.522 144.22 223.278 144.307 222.972 144.307ZM225.647 144.307C225.392 144.307 225.188 144.221 225.035 144.049C224.882 143.878 224.805 143.646 224.805 143.355V142.642C224.805 142.348 224.882 142.115 225.035 141.943C225.188 141.771 225.392 141.685 225.647 141.685C225.855 141.685 226.021 141.743 226.143 141.86C226.266 141.973 226.327 142.13 226.327 142.329L226.222 142.214H226.337L226.323 141.625V140.903H226.82V144.261H226.327V143.778H226.222L226.327 143.663C226.327 143.862 226.266 144.02 226.143 144.137C226.021 144.25 225.855 144.307 225.647 144.307ZM225.817 143.875C225.973 143.875 226.096 143.827 226.185 143.732C226.277 143.634 226.323 143.499 226.323 143.327V142.665C226.323 142.493 226.277 142.36 226.185 142.265C226.096 142.167 225.973 142.118 225.817 142.118C225.654 142.118 225.527 142.165 225.435 142.26C225.343 142.352 225.297 142.487 225.297 142.665V143.327C225.297 143.505 225.343 143.642 225.435 143.737C225.527 143.829 225.654 143.875 225.817 143.875Z" fill="#11181C"/>
<path d="M245.487 184.756C245.487 175.871 252.844 169.693 263.534 169.693C273.807 169.693 280.331 175.385 280.609 184.547H271.724C271.516 180.175 268.392 177.606 263.395 177.606C257.911 177.606 254.371 180.244 254.371 184.478C254.371 188.087 256.315 190.1 260.549 191.072L268.531 192.807C277.208 194.682 281.442 199.124 281.442 206.69C281.442 216.13 274.084 222.238 262.909 222.238C252.081 222.238 245.001 216.477 244.793 207.384H253.677C253.747 211.687 257.217 214.256 262.909 214.256C268.809 214.256 272.557 211.687 272.557 207.453C272.557 204.052 270.822 202.039 266.657 201.137L258.605 199.332C249.998 197.458 245.487 192.53 245.487 184.756Z" fill="#11181C"/>
<rect x="191.133" y="257.83" width="144.399" height="4.86885" fill="#FAF9F8" stroke="#808080" strokeWidth="0.32854"/>
<rect x="191.133" y="271.425" width="144.399" height="4.86885" fill="#FAF9F8" stroke="#808080" strokeWidth="0.32854"/>
<rect x="191.133" y="265.028" width="7.51576" height="4.06925" fill="#FAF9F8" stroke="#808080" strokeWidth="0.32854"/>
<rect x="200.547" y="265.028" width="7.51576" height="4.06925" fill="#FAF9F8" stroke="#808080" strokeWidth="0.32854"/>
<rect x="210.352" y="265.028" width="7.51576" height="4.06925" fill="#FAF9F8" stroke="#808080" strokeWidth="0.32854"/>
<rect x="220.164" y="265.028" width="7.51576" height="4.06925" fill="#FAF9F8" stroke="#808080" strokeWidth="0.32854"/>
<rect x="259.375" y="265.028" width="7.51576" height="4.06925" fill="#FAF9F8" stroke="#808080" strokeWidth="0.32854"/>
<rect x="298.602" y="265.028" width="7.51576" height="4.06925" fill="#FAF9F8" stroke="#808080" strokeWidth="0.32854"/>
<rect x="229.961" y="265.028" width="7.51576" height="4.06925" fill="#FAF9F8" stroke="#808080" strokeWidth="0.32854"/>
<rect x="269.18" y="265.028" width="7.51576" height="4.06925" fill="#FAF9F8" stroke="#808080" strokeWidth="0.32854"/>
<rect x="308.406" y="265.028" width="7.51576" height="4.06925" fill="#FAF9F8" stroke="#808080" strokeWidth="0.32854"/>
<rect x="239.766" y="265.028" width="7.51576" height="4.06925" fill="#FAF9F8" stroke="#808080" strokeWidth="0.32854"/>
<rect x="278.992" y="265.028" width="7.51576" height="4.06925" fill="#FAF9F8" stroke="#808080" strokeWidth="0.32854"/>
<rect x="318.211" y="265.028" width="7.51576" height="4.06925" fill="#FAF9F8" stroke="#808080" strokeWidth="0.32854"/>
<rect x="249.578" y="265.028" width="7.51576" height="4.06925" fill="#FAF9F8" stroke="#808080" strokeWidth="0.32854"/>
<rect x="288.797" y="265.028" width="7.51576" height="4.06925" fill="#FAF9F8" stroke="#808080" strokeWidth="0.32854"/>
<rect x="328.016" y="265.028" width="7.51576" height="4.06925" fill="#FAF9F8" stroke="#808080" strokeWidth="0.32854"/>
<g filter="url(#filter0_d_2767_34390)">
<path fill-rule="evenodd" clip-rule="evenodd" d="M348.73 264.057C349.952 264.554 349.859 266.318 348.591 266.683L342.191 268.526L339.268 274.517C338.689 275.705 336.938 275.49 336.661 274.198L333.682 260.283C333.448 259.191 334.53 258.282 335.563 258.702L348.73 264.057Z" fill="#FAF9F8"/>
<path fill-rule="evenodd" clip-rule="evenodd" d="M348.73 264.057C349.952 264.554 349.859 266.318 348.591 266.683L342.191 268.526L339.268 274.517C338.689 275.705 336.938 275.49 336.661 274.198L333.682 260.283C333.448 259.191 334.53 258.282 335.563 258.702L348.73 264.057Z" stroke="#11181C" strokeWidth="0.965086"/>
</g>
</g>
<rect x="0.295581" y="0.295581" width="479.409" height="302.649" rx="3.25139" stroke="#E6E8EB" strokeWidth="0.591162"/>
<defs>
<filter id="filter0_d_2767_34390" x="331.85" y="258.114" width="19.5424" height="20.2958" filterUnits="userSpaceOnUse" color-interpolation-filters="sRGB">
<feFlood flood-opacity="0" result="BackgroundImageFix"/>
<feColorMatrix in="SourceAlpha" type="matrix" values="0 0 0 0 0 0 0 0 0 0 0 0 0 0 0 0 0 0 127 0" result="hardAlpha"/>
<feOffset dy="1.31416"/>
<feGaussianBlur stdDeviation="0.65708"/>
<feComposite in2="hardAlpha" operator="out"/>
<feColorMatrix type="matrix" values="0 0 0 0 0 0 0 0 0 0 0 0 0 0 0 0 0 0 0.25 0"/>
<feBlend mode="normal" in2="BackgroundImageFix" result="effect1_dropShadow_2767_34390"/>
<feBlend mode="normal" in="SourceGraphic" in2="effect1_dropShadow_2767_34390" result="shape"/>
</filter>
<linearGradient id="paint0_linear_2767_34390" x1="372.506" y1="101.241" x2="389.022" y2="112.009" gradientUnits="userSpaceOnUse">
<stop/>
<stop offset="1" stop-opacity="0.127613"/>
</linearGradient>
<clipPath id="clip0_2767_34390">
<rect width="480" height="303.241" rx="3.54697" fill="white"/>
</clipPath>
</defs>
</svg>
