
<svg width="24" height="25"
id = "img"
stroke="currentColor"
 viewBox="0 0 24 25" fill="none" xmlns="http://www.w3.org/2000/svg">
<path d="M19 20.2406H5C3.89543 20.2406 3 19.3452 3 18.2406V9.2406C3 8.13603 3.89543 7.2406 5 7.2406H19C20.1046 7.2406 21 8.13603 21 9.2406V18.2406C21 19.3452 20.1046 20.2406 19 20.2406Z"  strokeWidth="1.5"/>
<path d="M16.5 14.2406C16.2239 14.2406 16 14.0167 16 13.7406C16 13.4645 16.2239 13.2406 16.5 13.2406C16.7761 13.2406 17 13.4645 17 13.7406C17 14.0167 16.7761 14.2406 16.5 14.2406Z" fill="currentColor"  strokeWidth="1.5" strokeLinecap="round" strokeLinejoin="round"/>
<path d="M18 7.2406V5.84382C18 4.52976 16.7544 3.57277 15.4847 3.91135L4.48467 6.84469C3.60917 7.07816 3 7.87106 3 8.77716V9.2406"  strokeWidth="1.5"/>
</svg>
