<svg width="24" height="25" viewBox="0 0 24 25" fill="none" xmlns="http://www.w3.org/2000/svg">
<g id="github">
<path id="Vector" d="M16.0001 22.1655V19.2955C16.0376 18.8186 15.9732 18.3393 15.8111 17.8893C15.649 17.4392 15.393 17.0289 15.0601 16.6855C18.2001 16.3355 21.5001 15.1455 21.5001 9.68547C21.4998 8.28929 20.9628 6.94666 20.0001 5.93546C20.4559 4.71397 20.4237 3.36381 19.9101 2.16546C19.9101 2.16546 18.7301 1.81546 16.0001 3.64547C13.7081 3.02429 11.2921 3.02429 9.00008 3.64547C6.27008 1.81546 5.09008 2.16546 5.09008 2.16546C4.57645 3.36381 4.54422 4.71397 5.00008 5.93546C4.0302 6.95416 3.4926 8.30893 3.50008 9.71547C3.50008 15.1355 6.80008 16.3255 9.94008 16.7155C9.61107 17.0554 9.35734 17.4609 9.19539 17.9054C9.03343 18.3499 8.96688 18.8235 9.00008 19.2955V22.1655" stroke="#FF414C" strokeWidth="1.5" strokeLinecap="round" strokeLinejoin="round"/>
<path id="Vector_2" d="M9 20.166C6 21.1392 3.5 20.166 2 17.166" stroke="#FF414C" strokeWidth="1.5" strokeLinecap="round" strokeLinejoin="round"/>
</g>
</svg>
