<svg width="403" height="223" viewBox="0 0 403 223" fill="none" xmlns="http://www.w3.org/2000/svg">
<rect x="0.5" y="0.5" width="402" height="222" rx="7.5" fill="#1C1C1C"/>
<rect x="0.5" y="0.5" width="402" height="222" rx="7.5" stroke="#2E2E2E"/>
<path d="M156.5 137.261L99 137.261C96.7909 137.261 95 135.47 95 133.261L95 49C95 46.7909 96.7909 45 99 45L190.792 45C193.001 45 194.792 46.7909 194.792 49L194.792 133.261C194.792 135.47 193.001 137.261 190.792 137.261L171 137.261" stroke="#2E2E2E"/>
<path d="M0.5 45.5L81 45.5C82.933 45.5 84.5 47.067 84.5 49L84.5 133C84.5 134.933 82.933 136.5 81 136.5L0.5 136.5L0.5 45.5Z" stroke="#2E2E2E"/>
<path d="M317.5 49C317.5 47.067 319.067 45.5 321 45.5L402.5 45.5L402.5 136.5L321 136.5C319.067 136.5 317.5 134.933 317.5 133L317.5 49Z" stroke="#2E2E2E"/>
<path opacity="0.2" d="M148.766 143.557C148.766 143.557 156.36 140.064 159.303 137.164C162.246 134.264 169.008 122.079 171.016 118.525C173.025 114.964 187.083 110.247 188.043 110.737C189.003 111.228 187.717 113.826 186.541 114.561C185.366 115.295 184.302 115.861 184.302 115.861C184.302 115.861 192.544 116.49 192.556 117.538C192.568 118.585 191.63 120.217 189.023 119.936C186.416 119.654 181.306 120.422 178.316 123.772C178.316 123.772 177.255 125.81 178.97 125.305C180.685 124.8 185.536 121.689 186.782 122.686C188.02 123.689 188.373 124.245 187.374 125.222C186.375 126.199 182.132 128.616 180.731 129.154C179.332 129.685 177.87 133.469 176.053 134.05C174.236 134.638 173.845 135.051 173.051 134.701C172.25 134.35 150.779 155.699 150.779 155.699L148.765 143.571L148.766 143.557Z" fill="white"/>
<path d="M150.871 148.1C151.009 148.908 151.127 149.714 151.244 150.519C151.285 150.812 151.363 151.102 151.397 151.394C151.52 152.424 151.641 153.468 151.763 154.498C151.831 154.952 151.906 155.407 151.973 155.862C152.023 156.148 152.071 156.442 152.12 156.728C152.147 157.019 152.144 157.322 152.142 157.618C152.13 157.804 152.029 157.8 151.862 157.675C151.701 157.55 151.423 157.311 151.269 156.992C151.077 156.416 150.929 155.831 150.788 155.246C150.699 154.653 150.64 154.048 150.603 153.445C150.557 152.719 150.373 151.993 150.248 151.266C150.108 150.465 149.982 149.673 149.828 148.877C149.735 148.392 149.634 147.905 149.527 147.418C149.351 146.685 149.183 145.946 148.94 145.243C148.745 144.695 148.495 144.186 148.276 143.658L148.124 143.318C147.969 142.876 148.017 142.693 148.224 142.506C148.273 142.46 148.321 142.408 148.368 142.377C148.54 142.258 148.773 142.376 149.002 142.667C149.332 143.105 149.576 143.593 149.82 144.087C150.034 144.593 150.194 145.129 150.347 145.665C150.574 146.46 150.741 147.278 150.908 148.089L150.878 148.101L150.871 148.1Z" fill="white"/>
<path d="M150.662 156.74C150.662 156.74 153.344 164.531 155.032 163.67C157.185 162.569 152.937 154.491 152.937 154.491L150.662 156.74Z" fill="white"/>
<path d="M126.116 148.77C130.06 146.307 134.073 143.887 138.351 141.885C139.91 141.154 141.5 140.456 143.18 139.94L143.733 139.775C143.926 139.723 144.063 139.658 144.379 139.605C144.644 139.56 144.875 139.556 145.057 139.546C145.252 139.545 145.32 139.523 145.673 139.532C146.253 139.506 146.84 139.77 147.283 140.083C147.696 140.422 148.002 140.808 148.229 141.185C148.683 141.947 148.95 142.711 149.167 143.462C149.383 144.213 149.558 144.96 149.703 145.704C150.285 148.679 150.625 151.622 151.223 154.505C151.486 155.78 151.808 157.04 152.237 158.247C152.659 159.452 153.202 160.606 153.951 161.521C154.064 161.678 154.194 161.814 154.326 161.936L154.522 162.13C154.588 162.194 154.609 162.196 154.649 162.23C154.79 162.331 154.964 162.465 155.137 162.396C155.305 162.313 155.355 162.109 155.387 161.947C155.414 161.827 155.472 161.35 155.489 160.976C155.522 160.186 155.493 159.368 155.435 158.547C155.391 158.139 155.391 157.727 155.392 157.309C155.386 156.89 155.372 156.478 155.344 156.056C155.273 155.017 155.393 155.109 155.878 155.925C156.117 156.332 156.437 156.921 156.807 157.667C157.117 158.421 157.31 159.336 157.374 160.374C157.39 160.837 157.398 161.307 157.359 161.808L157.339 162L157.302 162.285C157.283 162.463 157.224 162.681 157.18 162.892C157.051 163.29 156.881 163.676 156.635 163.953C156.155 164.523 155.292 164.764 154.586 164.473C154.402 164.432 154.228 164.299 154.06 164.18L153.541 163.83L153.284 163.658L153.14 163.521L152.852 163.238C151.41 161.701 150.731 159.928 150.182 158.211C149.153 154.749 148.775 151.283 148.267 147.883C148.113 146.871 147.939 145.85 147.696 144.865C147.453 143.888 147.144 142.91 146.688 142.163C146.459 141.807 146.198 141.541 145.975 141.46C145.918 141.454 145.863 141.427 145.806 141.414C145.741 141.421 145.676 141.422 145.611 141.415C145.305 141.44 145.016 141.446 144.84 141.471C144.729 141.488 144.715 141.486 144.588 141.531L144.221 141.651L143.481 141.883C142.988 142.033 142.505 142.235 142.024 142.408C137.769 144.052 133.729 146.39 129.76 148.807C127.319 150.303 124.902 151.852 122.497 153.416C118.845 155.78 115.156 158.147 111.412 160.35C108.488 162.041 105.601 163.728 102.316 164.803C101.95 164.916 101.585 165.022 101.226 165.136C100.849 165.219 100.472 165.294 100.088 165.376C98.6428 165.585 97.6221 165.535 96.9448 165.313C96.6101 165.198 96.3446 165.113 96.1517 164.955C95.9682 164.777 95.8433 164.591 95.7377 164.428C95.6455 164.274 95.5169 164.124 95.4767 164.026C95.4083 163.853 95.6738 163.801 96.174 163.717C96.2977 163.708 96.441 163.651 96.5753 163.68C96.7204 163.673 96.887 163.669 97.0536 163.665C97.2274 163.662 97.406 163.681 97.6012 163.68C97.805 163.665 98.016 163.651 98.2413 163.639C100.92 163.444 103.669 162.255 106.345 160.928C109.025 159.558 111.691 157.985 114.329 156.329C118.251 153.871 122.152 151.274 126.104 148.747L126.136 148.786L126.116 148.77Z" fill="white"/>
<path d="M179.438 114.664C177.834 115.347 176.228 116.051 174.682 116.804C174.293 116.994 173.912 117.185 173.544 117.384L173.014 117.682C172.86 117.774 172.666 117.897 172.626 117.936C172.473 118.158 172.233 118.378 172.048 118.756L171.755 119.273L171.485 119.85C170.962 120.971 170.515 122.194 169.987 123.364C168.145 127.541 165.709 131.584 162.512 134.912C161.779 135.628 161.104 136.408 160.306 137.053L159.159 138.064C158.79 138.415 158.349 138.686 157.955 138.998C157.43 139.383 156.918 139.791 156.38 140.16L154.68 141.142L153.828 141.615C153.531 141.757 153.235 141.892 152.928 141.996L152.005 142.325C151.698 142.43 151.373 142.496 151.06 142.579C150.268 142.762 150.367 142.715 150.881 142.221C151.385 141.69 152.276 140.716 153.482 139.97C154.526 139.243 155.601 138.577 156.592 137.809C157.088 137.421 157.629 137.089 158.093 136.661L159.518 135.419C161.348 133.686 163.029 131.785 164.514 129.698C166.296 127.188 167.591 124.23 168.848 121.29C169.208 120.476 169.547 119.661 169.952 118.831C170.133 118.424 170.387 117.997 170.619 117.581C170.72 117.375 170.932 117.152 171.083 116.945C171.174 116.839 171.243 116.738 171.348 116.626C171.492 116.497 171.593 116.429 171.703 116.346C172.541 115.8 173.331 115.436 174.146 115.031C174.954 114.64 175.773 114.272 176.583 113.917C178.591 113.032 180.622 112.2 182.664 111.405C183.704 111.002 184.757 110.608 185.82 110.251L186.628 109.989L187.039 109.867L187.537 109.732C187.923 109.635 188.315 109.547 188.659 109.576C188.83 109.594 188.995 109.611 189.134 109.726C189.228 109.866 189.297 110.032 189.375 110.177L189.5 110.71C189.509 110.898 189.525 111.088 189.528 111.268C189.5 111.46 189.488 111.646 189.446 111.837C189.383 112.025 189.353 112.166 189.288 112.31C189.045 112.898 188.669 113.378 188.271 113.797C187.307 114.785 186.194 115.476 185.077 116.13C183.955 116.77 182.811 117.334 181.65 117.862C181.142 118.096 180.647 118.333 180.12 118.53C179.155 118.912 178.506 119.11 178.014 119.181C177.536 119.261 177.234 119.251 176.953 119.171C176.827 119.136 176.67 119.119 176.588 119.074C176.299 118.936 176.977 118.329 178.309 117.553C180.27 116.497 182.361 115.65 184.282 114.561C185.235 114.019 186.157 113.431 186.864 112.755C187.21 112.416 187.493 112.064 187.643 111.734C187.687 111.659 187.719 111.561 187.733 111.505C187.742 111.484 187.733 111.505 187.734 111.491C187.734 111.491 187.771 111.48 187.69 111.5L187.391 111.592L186.785 111.788C185.976 112.063 185.156 112.366 184.335 112.684C182.701 113.313 181.069 113.992 179.456 114.695L179.431 114.656L179.438 114.664Z" fill="white"/>
<path d="M189.716 118.573C189.97 118.556 190.218 118.539 190.467 118.507L190.804 118.456L190.892 118.451C190.994 118.44 191.142 118.405 191.262 118.295C191.279 118.275 191.295 118.255 191.312 118.236C191.357 118.147 191.237 118.12 191.189 118.1C191.134 118.073 191.058 118.043 190.96 118.011C190.903 117.998 190.883 117.981 190.777 117.963L190.244 117.878C189.533 117.767 188.817 117.641 188.108 117.509C187.471 117.392 186.832 117.281 186.194 117.163C185.783 117.091 185.366 116.997 184.972 116.833C184.772 116.747 184.57 116.675 184.388 116.548C184.207 116.414 184.035 116.266 183.878 116.105C183.692 115.89 183.79 115.843 184.063 115.793C184.195 115.77 184.388 115.726 184.589 115.675C184.806 115.604 185.019 115.568 185.223 115.619C185.98 115.698 186.739 115.901 187.529 116.02C188.316 116.16 189.127 116.275 189.939 116.461C190.468 116.574 190.775 116.614 191.782 116.727C192.195 116.785 192.637 116.839 192.934 116.964C193.232 117.089 193.456 117.221 193.551 117.418C193.596 117.473 193.591 117.588 193.655 117.667C193.644 117.767 193.655 117.869 193.623 117.967C193.468 118.549 193.113 119.038 192.504 119.4C191.923 119.771 191.081 120.007 190.671 120.065C189.942 120.19 189.221 120.252 188.506 120.248C187.422 120.25 186.349 120.144 185.292 120.026C184.471 119.939 183.651 119.904 182.815 119.744C182.632 119.703 182.445 119.69 182.265 119.614C181.59 119.37 181.432 119.093 181.481 118.695C181.491 118.602 181.501 118.509 181.523 118.432C181.608 118.174 181.953 118.052 182.391 118.083C183.71 118.179 185.108 118.42 186.537 118.505C187.59 118.587 188.659 118.591 189.684 118.533L189.68 118.569L189.716 118.573Z" fill="white"/>
<path d="M182.132 127.361C183.775 126.711 185.438 126.014 186.543 124.925C186.73 124.728 186.89 124.507 186.993 124.287C187.069 124.18 187.089 124.067 187.136 123.956C187.165 123.887 187.168 123.866 187.177 123.845C187.179 123.824 187.189 123.796 187.192 123.774C187.206 123.704 187.186 123.622 187.127 123.566C187.067 123.516 187.014 123.474 186.765 123.434C186.325 123.359 185.772 123.401 185.256 123.492C184.303 123.629 183.264 124.299 182.169 124.746C181.199 125.171 180.201 125.6 179.108 125.824C178.408 125.945 177.631 126.051 176.874 125.769C176.684 125.72 176.514 125.616 176.345 125.511C176.175 125.407 175.997 125.316 175.875 125.166C175.57 124.911 175.477 124.49 175.322 124.178C175.157 123.756 175.253 123.803 175.612 123.963C175.808 124.02 175.999 124.198 176.388 124.138C176.564 124.121 176.657 124.195 176.8 124.21C176.936 124.225 177.064 124.238 177.182 124.287C177.638 124.349 178.113 124.428 178.672 124.335C179.224 124.242 179.807 124.058 180.386 123.845C180.974 123.611 181.564 123.356 182.165 123.073C182.786 122.799 183.373 122.514 184.143 122.264C184.614 122.118 185.054 122.057 185.508 121.996C185.962 121.943 186.427 121.912 186.941 121.974C187.428 122.011 188.259 122.285 188.561 122.916C188.887 123.52 188.676 124.363 188.476 124.746C187.99 125.791 187.169 126.455 186.374 127.006C185.565 127.549 184.711 127.971 183.855 128.35C183.332 128.583 182.804 128.795 182.283 129.007L181.526 129.331L181.184 129.497C181.099 129.546 181.014 129.602 180.949 129.667C180.723 129.889 180.454 130.25 180.209 130.585C179.956 130.926 179.696 131.273 179.421 131.612C178.879 132.298 178.289 132.965 177.614 133.543C177.095 134.008 176.512 134.401 175.883 134.746C175.237 135.046 174.539 135.297 173.796 135.348C173.477 135.365 173.152 135.432 172.833 135.37C172.533 135.338 172.285 135.29 172.08 135.247C171.886 135.176 171.745 135.075 171.623 134.997C171.387 134.835 171.299 134.639 171.258 134.411C171.24 134.315 171.199 134.217 171.2 134.145C171.179 133.926 171.732 133.689 172.426 133.755C173.458 133.834 174.42 133.683 175.299 133.227C176.179 132.764 176.978 132.033 177.705 131.172C178.258 130.524 178.743 129.824 179.339 129.036L179.604 128.718C179.672 128.624 179.855 128.463 179.983 128.346C180.119 128.224 180.294 128.134 180.433 128.048L180.799 127.87C181.261 127.666 181.676 127.5 182.1 127.321L182.117 127.359L182.132 127.361Z" fill="white"/>
<path d="M156.634 149.087L159.376 146.454C159.706 146.129 160.004 145.778 160.341 145.46C161.535 144.345 162.729 143.23 163.923 142.115C164.465 141.631 164.982 141.115 165.491 140.606C165.814 140.28 166.172 139.971 166.522 139.669L166.791 139.445L167.1 139.261C167.307 139.145 167.507 139.029 167.722 138.908C167.982 138.769 167.99 138.835 167.911 139.101C167.855 139.29 167.806 139.486 167.751 139.661C167.708 139.794 167.674 139.913 167.64 140.032C167.619 140.094 167.59 140.156 167.576 140.227L167.465 140.388C167.18 140.762 166.901 141.144 166.603 141.502C166.292 141.852 165.974 142.193 165.65 142.527C165.02 143.218 164.325 143.852 163.596 144.46C162.731 145.192 161.977 146.108 161.168 146.931L158.475 149.649L156.818 151.321C155.984 152.171 155.116 152.996 154.317 153.864C153.69 154.533 153.15 155.27 152.55 155.957C152.411 156.108 152.294 156.262 152.148 156.405C151.609 156.933 151.348 157.006 150.936 156.804C150.84 156.758 150.743 156.719 150.654 156.666C150.378 156.479 150.4 156.063 150.709 155.597C151.587 154.197 152.775 153.002 153.94 151.754C154.811 150.828 155.727 149.944 156.625 149.036L156.659 149.061L156.634 149.087Z" fill="white"/>
<path d="M120.302 182.671C122.855 180.725 125.527 178.821 128.292 177.128C129.297 176.513 130.283 175.859 131.306 175.274C134.926 173.217 138.698 171.428 142.578 169.918C144.302 169.255 146.04 168.609 147.784 168.035C148.899 167.662 150.033 167.326 151.189 167.051L152.891 166.668C153.18 166.597 153.482 166.55 153.801 166.533C154.12 166.523 154.456 166.493 154.792 166.594C155.203 166.738 155.331 166.896 155.303 166.95C155.274 167.019 155.063 167.033 154.76 167.174C154.462 167.323 154.109 167.517 153.681 167.811C153.27 168.078 152.605 168.354 151.994 168.528C149.75 169.186 147.516 169.882 145.315 170.682C143.107 171.481 140.931 172.377 138.75 173.331C136.144 174.47 133.597 176.013 131.093 177.495C128.332 179.145 125.671 180.884 123.103 182.829C121.518 184.018 119.952 185.238 118.378 186.457C115.987 188.305 113.522 190.094 110.973 191.723C108.991 192.978 107.019 194.206 104.867 195.163C104.401 195.395 103.927 195.576 103.444 195.771C102.546 196.138 101.917 196.281 101.459 196.305C101 196.336 100.713 196.255 100.456 196.084C100.334 196.006 100.19 195.933 100.114 195.839C99.8493 195.537 100.505 195.007 101.744 194.495C103.584 193.694 105.437 192.843 107.249 191.821C109.055 190.8 110.836 189.667 112.584 188.444C115.175 186.618 117.704 184.627 120.27 182.632L120.303 182.664L120.302 182.671Z" fill="white"/>
<rect x="206.711" y="45.1074" width="98.9575" height="91.2606" rx="3.5" fill="black" stroke="#2E2E2E"/>
<path d="M280.842 127.965L282.486 121.442L283.924 121.442L285.577 127.965L284.434 127.965L284.076 126.383L282.343 126.383L281.985 127.965L280.842 127.965ZM282.548 125.472L283.871 125.472L283.478 123.72C283.412 123.429 283.355 123.166 283.308 122.934C283.26 122.696 283.227 122.523 283.21 122.416C283.192 122.523 283.159 122.696 283.111 122.934C283.07 123.166 283.013 123.426 282.941 123.711L282.548 125.472ZM288.362 127.965L288.362 121.442L290.533 121.442C290.968 121.442 291.346 121.525 291.668 121.692C291.996 121.859 292.249 122.094 292.428 122.398C292.606 122.696 292.696 123.047 292.696 123.452C292.696 123.851 292.603 124.203 292.419 124.507C292.24 124.811 291.99 125.046 291.668 125.213C291.346 125.379 290.968 125.463 290.533 125.463L289.479 125.463L289.479 127.965L288.362 127.965ZM289.479 124.453L290.533 124.453C290.843 124.453 291.09 124.364 291.275 124.185C291.466 124 291.561 123.756 291.561 123.452C291.561 123.143 291.466 122.898 291.275 122.72C291.09 122.541 290.843 122.452 290.533 122.452L289.479 122.452L289.479 124.453ZM295.507 127.965L295.507 121.442L297.678 121.442C298.113 121.442 298.491 121.525 298.813 121.692C299.141 121.859 299.394 122.094 299.573 122.398C299.751 122.696 299.841 123.047 299.841 123.452C299.841 123.851 299.748 124.203 299.564 124.507C299.385 124.811 299.135 125.046 298.813 125.213C298.491 125.379 298.113 125.463 297.678 125.463L296.624 125.463L296.624 127.965L295.507 127.965ZM296.624 124.453L297.678 124.453C297.988 124.453 298.235 124.364 298.42 124.185C298.611 124 298.706 123.756 298.706 123.452C298.706 123.143 298.611 122.898 298.42 122.72C298.235 122.541 297.988 122.452 297.678 122.452L296.624 122.452L296.624 124.453Z" fill="white"/>
<rect x="211.352" y="49.7949" width="88.5845" height="64.9004" rx="1.5" fill="#FF414C" stroke="#2E2E2E"/>
<path d="M239.709 100.979C242.405 99.7511 245.087 98.4571 247.748 97.1466L250.652 95.6687C254.096 93.9985 257.529 92.2984 260.938 90.5526C262.452 89.7773 263.942 88.9492 265.43 88.1495C266.382 87.6288 267.327 87.1002 268.279 86.5795C269.237 86.0666 270.195 85.5538 271.285 85.285C271.967 85.1154 271.883 85.1565 271.498 85.6385C271.299 85.8752 271.06 86.2728 270.702 86.6429C270.522 86.8315 270.341 87.0413 270.118 87.2253C269.89 87.4014 269.647 87.5759 269.377 87.7331C267.471 88.8604 265.572 89.9956 263.623 91.0537C261.669 92.0968 259.682 93.1076 257.672 94.0727C255.258 95.2237 252.854 96.6197 250.423 97.8692C247.753 99.2506 245.043 100.549 242.325 101.846C240.644 102.631 238.958 103.402 237.259 104.157C236.622 104.447 235.958 104.705 235.308 104.978C234.983 105.115 234.658 105.252 234.32 105.366L233.26 105.76C232.776 105.965 232.37 105.986 231.952 106.048L231.329 106.138C231.228 106.134 231.112 106.208 231.032 106.149C230.976 106.071 230.956 105.989 230.929 105.908C230.821 105.58 230.8 105.118 230.855 104.622L230.978 103.314C231.178 101.182 231.237 99.0853 231.148 97.0153C231.127 96.5607 231.074 96.1242 231.037 95.6751C230.837 94.0237 230.859 93.5666 231.102 93.069C231.157 92.9602 231.179 92.8262 231.224 92.745C231.297 92.6093 231.47 92.6713 231.751 92.9388C232.032 93.1992 232.308 93.7032 232.522 94.3726C233.023 96.3656 233.073 98.3883 233.023 100.407C232.991 101.416 232.929 102.429 232.847 103.432L232.805 103.808L232.802 103.901L233.592 103.607C234.269 103.357 234.952 103.044 235.632 102.767C236.988 102.175 238.353 101.57 239.701 100.921L239.726 100.959L239.709 100.979Z" fill="white"/>
<path d="M224.224 94.1089C224.244 93.6027 224.873 95.8119 226.068 96.0347C228.346 96.4607 265.108 86.2837 266.468 85.085C266.933 84.67 266.794 85.1419 266.956 84.7871C267.308 84.0232 246.847 89.3802 242.016 90.4316C237.185 91.4831 224.224 94.1089 224.224 94.1089Z" fill="white"/>
<path d="M233.442 91.0876C237.106 90.4037 240.767 89.6836 244.411 88.9188C245.74 88.6477 247.057 88.2964 248.388 88.0182C253.07 87.0009 257.759 85.9914 262.391 84.7823C264.454 84.2757 266.49 83.63 268.512 83.0331C269.794 82.6065 271.082 82.1876 272.382 81.7916C273.037 81.6121 273.658 81.35 274.326 81.1932C274.986 81.0286 275.653 80.8789 276.323 80.7583C277.17 80.6067 277.075 80.6823 276.477 81.1258C276.179 81.344 275.765 81.6929 275.233 82.0578C274.968 82.2366 274.692 82.4501 274.369 82.6228C274.048 82.7884 273.698 82.9439 273.336 83.0836C272.022 83.5425 270.717 84.0455 269.386 84.4596C268.056 84.8667 266.714 85.251 265.372 85.6354C262.684 86.3749 259.979 87.0697 257.235 87.6601C253.963 88.3936 250.593 89.2884 247.254 90.0362C243.582 90.8623 239.888 91.6217 236.196 92.367C233.923 92.808 231.643 93.2552 229.37 93.6962L225.271 94.4618L223.193 94.8451C222.251 95.0078 221.308 95.1777 220.373 95.3412C220.036 95.319 219.691 95.3031 219.354 95.2809C219.205 95.2647 219.098 95.2531 218.956 95.2234C218.869 95.1639 218.896 95.0522 218.903 94.9885C218.911 94.9178 218.94 94.8494 218.962 94.7802C219.055 94.5253 219.171 94.2658 219.363 93.9644C219.555 93.6631 219.846 93.3223 220.158 92.9767C220.471 92.6311 220.805 92.2878 221.148 91.9312L221.95 91.1376C222.906 90.203 223.874 89.2841 224.862 88.3817C225.296 87.9848 225.715 87.5864 226.163 87.1981C227.825 85.753 228.482 85.4233 229.089 85.4175C229.226 85.4181 229.388 85.3926 229.486 85.4176C229.654 85.4645 229.589 85.6579 229.364 85.9987C229.139 86.3394 228.744 86.8336 228.177 87.395C226.686 88.9302 225.163 90.4906 223.615 92.077L223.044 92.6738L222.758 92.9721C222.693 93.0367 222.734 92.991 222.725 93.0115L222.72 93.0539C222.718 93.0681 222.756 93.0507 222.756 93.0507C222.787 93.0397 222.838 93.0309 222.882 93.0214C224.541 92.7144 226.199 92.4073 227.865 92.101L233.404 91.0405L233.421 91.0853L233.442 91.0876Z" fill="white"/>
<path d="M248.019 82.3225L254.922 81.7015L257.438 81.4224L266.332 80.6231C267.647 80.4932 268.964 80.3422 270.267 80.1825C271.938 79.9696 273.621 79.7723 275.318 79.8408C275.85 79.8624 275.791 80.006 275.373 80.261C275.164 80.3885 274.864 80.5492 274.499 80.717C274.134 80.8778 273.701 81.0026 273.223 81.0868C271.539 81.4198 269.832 81.5646 268.125 81.7807C266.42 81.9757 264.704 82.148 262.977 82.2835C260.914 82.4471 258.787 82.8038 256.678 83.0624C254.365 83.3418 252.045 83.6064 249.723 83.8348L245.436 84.2589C243.273 84.476 241.095 84.6415 238.946 84.8672C237.274 85.03 235.647 85.3048 233.989 85.4691C233.624 85.5083 233.271 85.5632 232.901 85.5805C231.538 85.6838 231.093 85.5287 230.774 85.1513C230.704 85.0652 230.613 84.9768 230.565 84.8859C230.417 84.5913 230.956 84.2851 231.94 84.0767C233.404 83.8415 234.901 83.5669 236.427 83.417C237.956 83.2459 239.503 83.1053 241.058 82.9514C243.366 82.7285 245.687 82.5141 248.008 82.2927L248.018 82.3366L248.019 82.3225Z" fill="white"/>
<path d="M213.489 163.238C217.705 162.887 221.864 162.536 225.876 161.565C229.866 160.592 233.727 159.021 236.863 156.464C239.156 154.642 240.858 152.172 241.988 149.489C242.989 147.122 243.4 144.496 243.022 141.978C242.653 139.454 241.355 137.13 239.504 135.264C237.669 133.378 235.412 131.864 233.084 130.478C230.789 129.046 228.325 127.911 225.891 126.636C223.734 125.522 221.577 124.349 219.541 122.981C217.513 121.614 215.542 120.044 214.149 117.933C213.246 116.603 212.727 114.912 212.889 113.245C213.086 111.582 213.883 110.086 214.869 108.84C215.85 107.573 217.093 106.536 218.409 105.68C219.726 104.823 221.126 104.12 222.528 103.468C224.285 102.667 224.108 102.899 222.717 103.776C222.028 104.219 221.042 104.824 219.904 105.62C218.774 106.418 217.514 107.41 216.403 108.685C215.444 109.825 214.632 111.125 214.303 112.479C213.961 113.831 214.144 115.233 214.812 116.487C215.456 117.753 216.477 118.865 217.62 119.855C218.761 120.851 220.024 121.731 221.336 122.552C223.967 124.186 226.792 125.569 229.628 126.989C231.039 127.691 232.498 128.477 233.846 129.302C235.215 130.121 236.587 130.985 237.905 131.95C239.467 133.108 240.989 134.441 242.218 136.08C243.472 137.694 244.333 139.667 244.728 141.704C245.128 143.757 245.003 145.874 244.551 147.891C244.092 149.907 243.297 151.835 242.187 153.564C240.979 155.454 239.424 157.17 237.644 158.515C235.882 159.891 233.934 160.995 231.911 161.867C227.849 163.625 223.526 164.49 219.235 164.998C213.948 165.599 208.674 165.697 203.523 166.442C195.727 167.495 188.217 170.66 181.999 175.42C177.137 179.091 173.199 183.706 170.093 188.808C169.462 189.969 168.781 191.061 168.237 192.276C167.692 193.375 167.232 194.289 166.922 195.083C166.584 195.867 166.285 196.496 166.034 197.009C165.595 198.062 165.237 198.635 164.829 199.072C164.643 199.268 164.432 199.547 164.285 199.646C164.028 199.82 163.98 199.404 164.125 198.484C164.197 198.024 164.326 197.44 164.496 196.746C164.665 196.052 164.973 195.28 165.293 194.4C167.233 189.185 170.361 184.273 174.219 179.93C176.186 177.799 178.303 175.742 180.655 173.97C181.794 173.029 183.039 172.237 184.26 171.399C184.868 170.976 185.523 170.638 186.156 170.246C186.8 169.878 187.42 169.478 188.094 169.163C191.994 167.114 196.207 165.618 200.54 164.726C204.872 163.847 209.219 163.554 213.473 163.185L213.488 163.245L213.489 163.238Z" fill="white"/>
<path d="M281.085 72.279C281.068 72.4354 280.879 72.4507 280.59 72.3974C280.498 72.3873 280.269 72.2399 280.261 72.1815C280.238 72.0709 280.221 71.9611 280.218 71.8529C280.211 71.7873 280.536 70.9953 280.645 70.7194C280.747 70.4499 280.895 70.2142 281.043 69.9857C281.366 69.5318 281.656 69.0526 282.026 68.6325C282.101 68.54 282.196 68.4569 282.305 68.3896C282.669 68.1489 282.954 67.8491 283.221 67.5184C283.262 67.4655 283.325 67.4219 283.328 67.3287C283.33 67.1778 284.147 66.3534 284.29 66.2971C284.653 66.1425 284.989 65.9635 285.338 65.8002C285.391 65.7772 285.418 65.7227 285.502 65.7462C285.69 65.8028 285.764 65.7174 285.864 65.6564C286.003 65.578 286.16 65.5233 286.329 65.4843C286.417 65.4723 286.529 65.5061 286.635 65.5178C286.728 65.5279 286.801 65.7087 286.797 65.7443C286.78 65.836 286.876 65.8824 286.926 65.9456C286.945 65.9692 286.964 65.9929 286.976 66.0158C286.986 66.06 286.626 66.9706 286.55 67.0126C286.55 67.0126 286.492 67.0783 286.411 67.1629C286.329 67.2547 286.223 67.3654 286.115 67.4975C285.908 67.7483 285.691 68.0124 285.642 68.0718C285.599 68.1319 285.518 68.1517 285.443 68.1795C285.406 68.1898 284.781 68.9634 284.749 68.9958C284.584 69.1217 284.484 69.3122 284.241 69.3576C284.19 69.3664 284.172 69.4004 284.139 69.4328C283.908 69.7025 283.625 69.9234 283.354 70.16C283.219 70.2819 283.103 70.4203 282.973 70.55C282.949 70.5761 282.912 70.5865 282.882 70.5976C282.843 70.6221 282.798 70.6388 282.774 70.6649C282.486 70.986 282.147 71.2583 281.913 71.6213C281.861 71.7019 281.449 71.9806 281.402 72.0834C281.374 72.1379 281.08 72.1921 281.08 72.264L281.085 72.279Z" fill="white"/>
<path d="M284.72 77.3037C284.586 77.3393 284.508 77.195 284.463 76.9542C284.45 76.8741 284.496 76.6574 284.542 76.6338C284.619 76.585 284.69 76.5283 284.766 76.5007C284.803 76.4904 285.46 76.4255 285.682 76.378C285.903 76.3376 286.113 76.3316 286.323 76.3328C286.756 76.3367 287.191 76.3193 287.625 76.309C287.72 76.3049 287.82 76.3157 287.91 76.3469C288.23 76.4601 288.56 76.4744 288.895 76.4533C288.953 76.4524 289.002 76.4648 289.059 76.4067C289.148 76.3233 290.043 76.327 290.153 76.3747C290.436 76.491 290.718 76.5572 291.005 76.6383C291.047 76.6499 291.085 76.6326 291.129 76.6945C291.214 76.8395 291.302 76.8276 291.388 76.8368C291.509 76.8499 291.635 76.885 291.753 76.9264C291.816 76.9474 291.879 77.0258 291.937 77.0893C291.996 77.1457 291.981 77.3513 291.964 77.371C291.913 77.437 291.967 77.5358 291.98 77.6158C291.984 77.6448 291.987 77.6809 291.985 77.7021C291.987 77.7524 291.238 78.1863 291.159 78.1849C291.145 78.1833 290.084 78.3047 289.93 78.3239C289.863 78.3381 289.802 78.3029 289.74 78.2819C289.697 78.2772 288.847 78.3213 288.818 78.3253C288.641 78.2919 288.463 78.3299 288.291 78.1898C288.258 78.1647 288.221 78.1679 288.185 78.1641C287.883 78.16 287.581 78.0774 287.279 78.0018C287.124 77.9637 286.973 77.9616 286.817 77.9376C286.788 77.9345 286.762 77.9103 286.734 77.9001C286.7 77.8821 286.666 77.8641 286.63 77.8603C286.266 77.821 285.904 77.7032 285.537 77.6851C285.452 77.6758 285.068 77.4914 284.967 77.4876C284.91 77.4815 284.758 77.2863 284.705 77.3092L284.72 77.3037Z" fill="white"/>
</svg>
