<svg width="403" height="223" viewBox="0 0 403 223" fill="none" xmlns="http://www.w3.org/2000/svg">
<rect x="0.5" y="0.5" width="402" height="222" rx="7.5" fill="#1C1C1C"/>
<rect x="0.5" y="0.5" width="402" height="222" rx="7.5" stroke="#2E2E2E"/>
<rect x="44.9375" y="59.3672" width="88.5034" height="88.5034" rx="1.5" fill="#2E2E2E" stroke="#1C1C1C"/>
<rect x="48.3594" y="70.3262" width="81.6536" height="73.8906" rx="1.5" fill="#1C1C1C" stroke="#1C1C1C"/>
<rect x="48.3594" y="62.5625" width="81.6536" height="2.88152" rx="1.44076" fill="#2E2E2E" stroke="#1C1C1C"/>
<path d="M74.5469 102.682C74.5469 95.2778 79.3802 89.7246 86.6303 89.7246C90.4353 89.7246 93.4176 91.3186 94.9087 94.0438L95.2686 90.5473H101.079V114.663C101.079 123.147 95.9885 128.443 87.7615 128.443C80.46 128.443 75.4724 124.278 74.7011 117.491H80.9742C81.3856 120.782 83.9051 122.735 87.7615 122.735C92.0807 122.735 94.8573 120.01 94.8573 115.794V111.578C93.2633 113.943 90.1268 115.434 86.476 115.434C79.2774 115.434 74.5469 110.035 74.5469 102.682ZM80.8714 102.528C80.8714 106.796 83.5966 109.984 87.7101 109.984C92.0293 109.984 94.703 106.95 94.703 102.528C94.703 98.2087 92.0807 95.2264 87.7101 95.2264C83.5452 95.2264 80.8714 98.363 80.8714 102.528Z" fill="#EDEDED"/>
<rect x="121.648" y="93.3848" width="88.7317" height="88.5034" rx="1.5" fill="#2E2E2E" stroke="#1C1C1C"/>
<rect x="125.07" y="104.344" width="81.6536" height="73.8906" rx="1.5" fill="black" stroke="#1C1C1C"/>
<rect x="125.07" y="96.5801" width="74.8039" height="2.88152" rx="1.44076" fill="#2E2E2E" stroke="#1C1C1C"/>
<rect x="202.762" y="96.1783" width="4.37002" height="3.68505" fill="#2E2E2E" stroke="#C7C7C7" stroke-width="0.196478"/>
<path d="M153.609 162.201V125.025H159.42L159.831 128.882C161.374 125.951 164.716 124.254 168.572 124.254C175.719 124.254 180.45 129.447 180.45 137.417C180.45 145.336 176.131 151.095 168.572 151.095C164.767 151.095 161.476 149.603 159.882 147.032V162.201H153.609ZM159.934 137.726C159.934 142.302 162.762 145.438 167.081 145.438C171.503 145.438 174.125 142.25 174.125 137.726C174.125 133.201 171.503 129.961 167.081 129.961C162.762 129.961 159.934 133.149 159.934 137.726Z" fill="white"/>
<rect x="193.805" y="39.5" width="88.5034" height="88.5034" rx="1.5" fill="#2E2E2E" stroke="#1C1C1C"/>
<rect x="197.227" y="50.459" width="81.6536" height="73.8906" rx="1.5" fill="#1C1C1C" stroke="#1C1C1C"/>
<rect x="197.227" y="42.6953" width="81.6536" height="2.88152" rx="1.44076" fill="#2E2E2E" stroke="#1C1C1C"/>
<path d="M243.721 75.248H249.994V100.649H244.184L243.721 97.2553C242.179 99.672 238.888 101.317 235.494 101.317C229.633 101.317 226.188 97.3581 226.188 91.1365V75.248H232.461V88.9254C232.461 93.7588 234.363 95.7127 237.86 95.7127C241.819 95.7127 243.721 93.3989 243.721 88.5655V75.248Z" fill="#EDEDED"/>
<rect x="271.008" y="93.416" width="86.9699" height="86.9699" rx="1.5" fill="#2E2E2E" stroke="#1C1C1C"/>
<rect x="274.375" y="104.189" width="80.2375" height="72.6075" rx="1.5" fill="#FF414C" stroke="#1C1C1C"/>
<path d="M295.819 161.719L295.154 161.501L294.656 162.057L294.663 161.315L293.992 161.078C294.183 160.992 294.624 160.823 294.624 160.823C294.624 160.823 294.752 160.371 294.745 160.135L295.198 160.627C295.198 160.627 295.812 160.579 295.849 160.574C295.806 160.671 295.457 161.089 295.457 161.089C295.457 161.089 295.668 161.424 295.82 161.719L295.819 161.719Z" fill="#231F20"/>
<path d="M324.83 161.246L324.64 160.562L323.909 160.449L324.521 160.045L324.343 159.344C324.519 159.458 324.903 159.739 324.903 159.739C324.903 159.739 325.343 159.597 325.532 159.459L325.379 160.116C325.379 160.116 325.759 160.609 325.783 160.636C325.68 160.654 325.145 160.59 325.145 160.59C325.145 160.59 324.987 160.955 324.83 161.246Z" fill="#231F20"/>
<path d="M335.832 155.964L335.67 155.378L335.045 155.282L335.569 154.936L335.417 154.338C335.567 154.435 335.895 154.675 335.895 154.675C335.895 154.675 336.271 154.553 336.433 154.436L336.302 154.997C336.302 154.997 336.627 155.419 336.649 155.442C336.561 155.457 336.103 155.403 336.103 155.403C336.103 155.403 335.967 155.714 335.833 155.964L335.832 155.964Z" fill="#231F20"/>
<path d="M299.638 121.421L298.75 121.553L298.518 122.487L298.081 121.621L297.175 121.735C297.341 121.526 297.741 121.072 297.741 121.072C297.741 121.072 297.615 120.474 297.465 120.203L298.275 120.513C298.275 120.513 298.945 120.101 298.983 120.075C298.993 120.212 298.846 120.9 298.846 120.9C298.846 120.9 299.288 121.167 299.638 121.422L299.638 121.421Z" fill="#231F20"/>
<path d="M296.589 131.593L296.596 131.593L296.596 131.602C296.669 131.569 296.737 131.546 296.805 131.523L296.843 131.511C297.135 131.421 297.411 131.375 297.688 131.334C298.238 131.256 298.781 131.217 299.322 131.188C301.483 131.089 310.559 131.023 312.703 131.091C313.555 131.121 315.67 131.151 317.915 131.184C320.683 131.224 323.65 131.267 324.691 131.314C325.632 131.368 326.187 131.365 326.655 131.363C327.39 131.359 327.91 131.357 329.377 131.576C329.694 131.63 330.039 131.746 330.282 131.866C330.301 131.857 330.322 131.851 330.346 131.848C330.531 131.848 330.694 131.908 330.857 131.972L331.219 132.118L331.216 132.126L331.217 132.128C331.277 132.153 331.336 132.179 331.396 132.205C331.455 132.231 331.515 132.257 331.575 132.283C331.598 132.293 331.622 132.301 331.646 132.308C331.668 132.314 331.689 132.321 331.71 132.329C331.724 132.336 331.738 132.342 331.753 132.348C331.893 132.408 332.035 132.469 332.179 132.52C332.249 132.545 332.322 132.569 332.393 132.588C332.408 132.593 332.424 132.596 332.439 132.6C332.47 132.608 332.501 132.615 332.531 132.627C332.576 132.647 332.619 132.671 332.663 132.696C332.689 132.712 332.681 132.733 332.65 132.758C332.62 132.781 332.564 132.821 332.505 132.829C332.42 132.835 332.338 132.823 332.255 132.81C332.238 132.808 332.221 132.805 332.204 132.803C332.115 132.787 332.03 132.751 331.946 132.715C331.937 132.712 331.928 132.708 331.919 132.704C331.849 132.672 331.775 132.652 331.7 132.632C331.655 132.621 331.61 132.609 331.566 132.594C331.436 132.552 331.31 132.503 331.186 132.451C331.147 132.435 331.109 132.419 331.07 132.403C331.032 132.388 330.993 132.372 330.955 132.356C330.919 132.341 330.883 132.326 330.847 132.311C330.767 132.277 330.688 132.243 330.607 132.215C330.586 132.208 330.565 132.201 330.543 132.196C330.507 132.21 330.455 132.221 330.383 132.226L330.25 132.236C330.105 132.247 330.027 132.253 329.948 132.255C329.856 132.258 329.763 132.255 329.561 132.249C329.386 132.243 329.128 132.235 328.717 132.226L325.013 132.102C324.396 132.075 322.207 132.049 320.017 132.023C317.828 131.997 315.64 131.971 315.022 131.945C312.553 131.85 303.148 131.877 300.672 131.884C299.933 131.889 299.185 131.913 298.449 131.981C298.081 132.015 297.713 132.061 297.371 132.136C297.201 132.172 297.033 132.221 296.914 132.277L296.909 132.279C296.852 132.308 296.842 132.314 296.82 132.34C296.815 132.348 296.811 132.357 296.806 132.366C296.801 132.377 296.795 132.389 296.787 132.403C296.772 132.427 296.757 132.451 296.744 132.492C296.63 132.771 296.566 133.135 296.508 133.479C296.455 133.831 296.414 134.189 296.381 134.548C296.315 135.268 296.275 135.995 296.244 136.718C296.12 139.905 296.158 143.113 296.275 146.31C296.315 147.294 296.358 148.278 296.439 149.253C296.46 149.495 296.485 149.74 296.518 149.973C296.545 150.177 296.579 150.193 296.798 150.292L296.82 150.303C297.246 150.47 297.761 150.552 298.256 150.623C299.784 150.819 301.354 150.877 309.841 150.802C311.401 150.841 312.962 150.845 314.512 150.836C315.787 150.827 316.17 150.8 316.6 150.77C316.983 150.744 317.404 150.714 318.53 150.693C318.705 150.69 319.63 150.686 320.554 150.683C322.01 150.678 323.467 150.673 321.995 150.668C324.919 150.686 329.546 150.757 329.873 150.911C329.928 150.937 329.94 150.962 329.952 150.987C329.961 151.005 329.969 151.022 329.992 151.039C330.175 151.173 329.533 151.284 328.099 151.316C324.378 151.411 317.705 151.529 313.06 151.533C313.059 151.556 313.055 151.58 313.05 151.604L313.047 151.62C313.037 151.662 313.045 151.703 313.053 151.745C313.057 151.771 313.062 151.796 313.063 151.821C313.067 151.896 313.059 151.97 313.047 152.043C313.044 152.066 313.04 152.089 313.037 152.112L313.031 152.15L313.026 152.18C313.023 152.201 313.019 152.222 313.016 152.244C313.007 152.291 312.999 152.338 312.999 152.385C312.998 152.413 313.007 152.441 313.015 152.469C313.023 152.494 313.031 152.519 313.032 152.544C313.032 152.549 313.033 152.554 313.034 152.559C313.036 152.566 313.037 152.572 313.036 152.578C313.036 152.6 313.022 152.613 312.989 152.622C312.962 152.631 312.925 152.635 312.875 152.638C312.862 152.638 312.85 152.639 312.839 152.64C312.829 152.64 312.819 152.641 312.809 152.641C312.739 152.642 312.673 152.623 312.626 152.589C312.541 152.495 312.547 152.4 312.556 152.304L312.585 152.091L312.597 152.091L312.599 152.09C312.606 152.054 312.613 152.019 312.62 151.983C312.628 151.948 312.635 151.912 312.642 151.877C312.645 151.863 312.643 151.849 312.642 151.836C312.641 151.823 312.64 151.811 312.642 151.799L312.647 151.774C312.662 151.693 312.677 151.613 312.68 151.533C312.156 151.532 311.662 151.53 311.203 151.527C310.707 151.521 309.607 151.524 308.259 151.528C306.451 151.533 304.197 151.54 302.355 151.528L302.352 151.552C302.331 151.704 302.31 151.856 302.323 152.008C302.336 152.188 302.364 152.373 302.468 152.54C302.482 152.566 302.5 152.59 302.523 152.613C302.542 152.637 302.567 152.659 302.595 152.679L302.601 152.684C302.612 152.693 302.625 152.704 302.632 152.704C302.637 152.707 302.653 152.713 302.674 152.719C302.711 152.73 302.76 152.741 302.812 152.75C303.02 152.787 303.257 152.811 303.488 152.833C304 152.879 304.523 152.915 305.045 152.945C305.367 152.963 305.691 152.979 306.014 152.991L306.183 152.997L306.396 152.999C306.874 153.003 307.351 153.003 307.829 152.996C308.553 152.987 309.281 152.972 309.996 152.937C310.42 152.917 310.834 152.883 311.246 152.849C311.375 152.838 311.504 152.827 311.632 152.817C311.751 152.806 311.867 152.796 311.988 152.786C312.434 152.755 312.578 152.757 312.698 152.802C312.707 152.806 312.717 152.809 312.727 152.812C312.747 152.819 312.767 152.826 312.78 152.833C312.844 152.868 312.677 152.928 312.351 152.979C311.38 153.127 310.324 153.18 309.27 153.215C308.485 153.24 307.695 153.249 306.905 153.249L306.905 153.245C306.123 153.241 305.341 153.224 304.561 153.184L304.435 153.178C304.191 153.166 303.946 153.155 303.703 153.135C303.451 153.113 303.2 153.088 302.95 153.054C302.699 153.018 302.449 152.978 302.206 152.899C302.196 152.895 302.186 152.892 302.176 152.889C302.155 152.882 302.134 152.876 302.111 152.864L302.1 152.857C302.069 152.842 302.037 152.824 302.02 152.808L301.968 152.754C301.956 152.737 301.946 152.721 301.936 152.704C301.9 152.638 301.882 152.576 301.869 152.514C301.845 152.39 301.843 152.268 301.849 152.147C301.864 151.939 301.89 151.73 301.959 151.525C300.7 151.514 299.68 151.494 299.202 151.456C298.776 151.42 297.916 151.316 297.916 151.316C297.482 151.248 297.051 151.18 296.582 151.013C296.559 151.003 296.537 150.994 296.515 150.986C296.478 150.971 296.44 150.957 296.399 150.935L296.376 150.924C296.32 150.898 296.272 150.875 296.193 150.824C296.028 150.707 295.869 150.572 295.818 150.378C295.795 150.333 295.781 150.28 295.771 150.233C295.726 150.253 295.679 150.265 295.632 150.277C295.62 150.28 295.608 150.283 295.596 150.286C295.531 150.301 295.464 150.294 295.396 150.288L295.375 150.286C295.319 150.278 295.263 150.284 295.207 150.289C295.174 150.293 295.14 150.296 295.106 150.297C295.006 150.299 294.907 150.294 294.809 150.286C294.779 150.283 294.748 150.281 294.718 150.278C294.687 150.276 294.657 150.274 294.626 150.271C294.598 150.269 294.57 150.266 294.541 150.264C294.478 150.258 294.415 150.252 294.352 150.252C294.315 150.251 294.277 150.257 294.24 150.263C294.206 150.269 294.173 150.274 294.14 150.275C294.133 150.275 294.126 150.276 294.119 150.277C294.111 150.278 294.102 150.278 294.094 150.278C294.065 150.278 294.047 150.268 294.036 150.245C294.023 150.226 294.018 150.2 294.015 150.165C294.014 150.156 294.013 150.148 294.012 150.14C294.011 150.133 294.01 150.125 294.01 150.118C294.008 150.069 294.034 150.023 294.079 149.991C294.206 149.931 294.332 149.935 294.46 149.942L294.746 149.962L294.746 149.97L294.747 149.971C294.794 149.976 294.842 149.981 294.889 149.986C294.936 149.992 294.984 149.997 295.031 150.001C295.05 150.004 295.068 150.003 295.087 150.002C295.103 150.001 295.119 150 295.135 150.001L295.169 150.005C295.281 150.016 295.394 150.027 295.505 150.029C295.56 150.029 295.616 150.029 295.669 150.023C295.681 150.022 295.692 150.021 295.704 150.019C295.714 150.018 295.723 150.017 295.733 150.016L295.731 150.001L295.726 149.966C295.711 149.859 295.699 149.752 295.688 149.65C295.645 149.238 295.615 148.836 295.587 148.431L295.607 148.426L295.612 148.429C295.503 146.544 295.438 144.664 295.411 142.783C295.227 142.77 295.043 142.759 294.858 142.767C294.617 142.776 294.37 142.796 294.147 142.869C294.112 142.879 294.08 142.891 294.05 142.907C294.018 142.921 293.988 142.938 293.962 142.958L293.955 142.962C293.943 142.97 293.928 142.979 293.928 142.983C293.923 142.987 293.916 142.998 293.908 143.013C293.894 143.039 293.879 143.073 293.866 143.11C293.817 143.256 293.786 143.422 293.756 143.584C293.694 143.943 293.645 144.309 293.606 144.675C293.582 144.901 293.561 145.128 293.545 145.354C293.541 145.406 293.537 145.457 293.534 145.508L293.532 145.622C293.527 145.957 293.527 146.292 293.535 146.627C293.548 147.134 293.568 147.645 293.615 148.146C293.642 148.443 293.688 148.733 293.733 149.022C293.747 149.112 293.761 149.203 293.775 149.293C293.79 149.376 293.804 149.458 293.817 149.542C293.858 149.855 293.856 149.956 293.795 150.04C293.79 150.047 293.786 150.054 293.782 150.061C293.773 150.074 293.764 150.088 293.754 150.097C293.707 150.142 293.627 150.025 293.559 149.797C293.36 149.116 293.29 148.376 293.244 147.637C293.21 147.087 293.198 146.533 293.198 145.979L293.203 145.979C293.209 145.431 293.231 144.883 293.285 144.336L293.293 144.247C293.308 144.077 293.324 143.905 293.351 143.735C293.38 143.558 293.413 143.382 293.459 143.207C293.507 143.031 293.56 142.855 293.666 142.685C293.671 142.678 293.675 142.671 293.68 142.664C293.688 142.65 293.697 142.635 293.713 142.619L293.721 142.61C293.743 142.589 293.765 142.567 293.787 142.555L293.859 142.518C293.882 142.51 293.904 142.503 293.926 142.496C294.015 142.47 294.098 142.458 294.181 142.448C294.346 142.432 294.509 142.431 294.671 142.435C294.917 142.444 295.164 142.46 295.407 142.496C295.4 141.939 295.396 141.382 295.396 140.825C295.331 140.835 295.264 140.831 295.197 140.826L295.175 140.825C295.119 140.819 295.064 140.823 295.008 140.827C294.974 140.83 294.94 140.832 294.906 140.833C294.807 140.835 294.707 140.831 294.609 140.825C294.579 140.823 294.548 140.821 294.518 140.82C294.488 140.818 294.457 140.816 294.427 140.814C294.398 140.813 294.37 140.811 294.341 140.809C294.278 140.805 294.215 140.801 294.152 140.801C294.115 140.8 294.077 140.804 294.04 140.809C294.007 140.813 293.973 140.817 293.94 140.817C293.933 140.817 293.926 140.818 293.92 140.818C293.911 140.819 293.903 140.82 293.894 140.819C293.866 140.819 293.847 140.812 293.836 140.796C293.823 140.782 293.819 140.764 293.815 140.738C293.814 140.732 293.813 140.726 293.812 140.721C293.811 140.715 293.81 140.71 293.81 140.705C293.809 140.671 293.835 140.638 293.879 140.614C294.006 140.571 294.133 140.574 294.26 140.579L294.546 140.594L294.546 140.6L294.547 140.601C294.594 140.604 294.642 140.608 294.689 140.611C294.737 140.615 294.784 140.619 294.831 140.622C294.85 140.624 294.868 140.623 294.887 140.622C294.903 140.622 294.919 140.621 294.936 140.622L294.97 140.624C295.081 140.632 295.194 140.641 295.306 140.641C295.335 140.641 295.366 140.641 295.396 140.641C295.396 140.044 295.4 139.448 295.407 138.851C295.41 138.667 295.413 138.484 295.416 138.301L295.416 138.299C295.43 137.366 295.444 136.432 295.508 135.497L295.399 135.483L295.39 135.482L295.385 135.482C295.346 135.48 295.306 135.478 295.267 135.476C295.065 135.466 294.861 135.455 294.657 135.462C294.417 135.469 294.17 135.482 293.946 135.535C293.911 135.541 293.879 135.55 293.849 135.562C293.817 135.572 293.787 135.584 293.761 135.598L293.754 135.601C293.742 135.607 293.728 135.613 293.728 135.616C293.723 135.619 293.715 135.627 293.708 135.638C293.693 135.656 293.678 135.68 293.666 135.706C293.616 135.81 293.585 135.929 293.555 136.044C293.493 136.301 293.445 136.562 293.405 136.823C293.381 136.984 293.36 137.146 293.344 137.308C293.341 137.34 293.338 137.372 293.335 137.405L293.332 137.498C293.327 137.737 293.327 137.976 293.336 138.215C293.348 138.577 293.368 138.941 293.415 139.298C293.443 139.511 293.488 139.717 293.533 139.923C293.548 139.988 293.562 140.052 293.575 140.117C293.59 140.176 293.604 140.234 293.618 140.294C293.658 140.518 293.656 140.59 293.595 140.65C293.591 140.654 293.586 140.659 293.582 140.664C293.573 140.674 293.564 140.684 293.554 140.691C293.507 140.723 293.428 140.639 293.359 140.476C293.161 139.99 293.09 139.462 293.044 138.935C293.011 138.543 292.998 138.148 292.998 137.752L293.003 137.752C293.009 137.361 293.032 136.97 293.085 136.58L293.093 136.517C293.109 136.395 293.124 136.273 293.151 136.151C293.181 136.025 293.213 135.9 293.259 135.775C293.307 135.649 293.361 135.524 293.466 135.403C293.471 135.398 293.475 135.393 293.48 135.387C293.488 135.377 293.497 135.367 293.513 135.355L293.522 135.349C293.543 135.334 293.566 135.318 293.588 135.309L293.66 135.283C293.682 135.277 293.704 135.273 293.727 135.268C293.815 135.249 293.898 135.241 293.981 135.234C294.146 135.222 294.309 135.221 294.471 135.224C294.758 135.232 295.046 135.245 295.328 135.282C295.388 135.29 295.447 135.298 295.507 135.308L295.521 135.31C295.557 134.807 295.604 134.304 295.668 133.799L295.687 133.671C295.758 133.192 295.828 132.72 296.028 132.204C296.039 132.17 296.056 132.134 296.082 132.092L296.133 132.003C296.143 131.781 296.142 131.56 296.136 131.339C296.135 131.309 296.134 131.279 296.133 131.249C296.128 131.216 296.124 131.182 296.119 131.148C296.097 130.987 296.068 130.825 296.035 130.664C295.981 130.403 295.914 130.141 295.829 129.885C295.788 129.77 295.745 129.651 295.677 129.547C295.659 129.521 295.639 129.497 295.618 129.478C295.608 129.468 295.598 129.46 295.591 129.457C295.591 129.454 295.572 129.447 295.555 129.442L295.545 129.438C295.509 129.425 295.468 129.412 295.424 129.403C295.383 129.391 295.338 129.382 295.291 129.375C294.983 129.323 294.643 129.309 294.312 129.303C294.032 129.296 293.751 129.307 293.473 129.317C293.419 129.319 293.365 129.321 293.311 129.323L293.303 129.323L293.292 129.324L293.133 129.339C293.114 129.34 293.096 129.342 293.078 129.344L293.055 129.347L293.036 129.349L293.036 129.348C292.98 129.352 292.931 129.357 292.889 129.361C292.802 129.37 292.744 129.376 292.727 129.359L292.727 129.352C292.726 129.324 292.726 129.283 292.742 129.253C292.756 129.217 292.809 129.196 292.867 129.186L292.959 129.172L293.02 129.163L293.143 129.148C293.225 129.139 293.307 129.131 293.389 129.123C293.777 129.086 294.173 129.072 294.568 129.065C294.792 129.062 295.016 129.063 295.243 129.074C295.357 129.081 295.472 129.09 295.593 129.108C295.624 129.113 295.654 129.118 295.685 129.124L295.784 129.15C295.814 129.159 295.846 129.175 295.875 129.19L295.887 129.196C295.909 129.207 295.921 129.218 295.933 129.228C295.939 129.233 295.945 129.238 295.952 129.243C296.097 129.365 296.17 129.49 296.237 129.615C296.3 129.74 296.345 129.866 296.386 129.992C296.422 130.114 296.443 130.236 296.465 130.358L296.476 130.421C296.549 130.811 296.58 131.202 296.589 131.593Z" fill="#231F20"/>
<path d="M320.1 150.664C320.985 150.665 321.597 150.666 321.995 150.668C321.195 150.663 320.523 150.662 320.1 150.664Z" fill="#231F20"/>
<path d="M333.601 141.438C333.608 141.255 333.607 141.071 333.606 140.887C333.605 140.74 333.605 140.593 333.608 140.446C333.623 139.933 333.643 139.42 333.662 138.907C333.688 138.254 333.713 137.601 333.727 136.948C333.729 136.794 333.731 136.639 333.733 136.484L333.733 136.48C333.738 136.119 333.744 135.756 333.74 135.397C333.74 135.25 333.738 135.103 333.736 134.955L333.736 134.95C333.73 134.439 333.724 133.927 333.791 133.416C333.821 133.21 333.844 133.235 333.928 133.404C334.017 133.574 334.171 133.892 334.225 134.272C334.291 134.946 334.346 135.622 334.382 136.299C334.402 136.975 334.382 137.654 334.349 138.335C334.326 138.832 334.326 139.34 334.327 139.85C334.327 140.177 334.327 140.504 334.321 140.829C334.293 142.106 334.238 142.932 334.181 143.799C334.134 144.518 334.085 145.265 334.047 146.321C334.037 146.651 334.029 146.978 334.027 147.303C334.022 147.627 334.004 147.955 333.984 148.282C333.982 148.318 333.98 148.354 333.978 148.389C333.973 148.497 333.968 148.604 333.958 148.711C333.89 149.249 333.811 149.414 333.649 149.511L333.637 149.518L333.63 149.522L333.617 149.531L333.61 149.536C333.585 149.552 333.561 149.568 333.54 149.574C333.423 149.61 333.347 149.383 333.329 148.992C333.311 148.413 333.301 147.819 333.291 147.215C333.303 146.896 333.315 146.573 333.326 146.25C333.336 145.965 333.346 145.678 333.357 145.392C333.391 144.511 333.436 143.99 333.479 143.483C333.526 142.932 333.571 142.398 333.601 141.438Z" fill="#231F20"/>
<path fill-rule="evenodd" clip-rule="evenodd" d="M323.058 142.801C322.787 142.686 322.555 142.501 322.381 142.293C322.207 142.082 322.073 141.847 322 141.585C321.949 141.4 321.912 141.183 321.947 140.995C321.989 140.656 322.134 140.331 322.362 140.075C322.423 140.006 322.491 139.941 322.563 139.883C322.458 139.7 322.351 139.518 322.238 139.345C322.169 139.238 322.094 139.135 322.018 139.033C321.949 138.94 321.88 138.847 321.817 138.751C321.806 138.733 321.793 138.715 321.781 138.698C321.763 138.671 321.744 138.645 321.727 138.615C321.683 138.554 321.661 138.481 321.662 138.407C321.665 138.357 321.686 138.31 321.722 138.274C321.734 138.256 321.749 138.24 321.765 138.226C321.816 138.185 321.908 138.226 322.034 138.315C322.347 138.635 322.641 138.973 322.914 139.325C322.981 139.411 323.047 139.497 323.112 139.583C323.15 139.571 323.188 139.56 323.227 139.551C323.521 139.477 323.833 139.477 324.124 139.543C324.153 139.552 324.183 139.56 324.213 139.567C324.276 139.584 324.339 139.6 324.396 139.627C324.423 139.64 324.45 139.653 324.478 139.665C324.537 139.691 324.596 139.717 324.65 139.75C324.668 139.762 324.686 139.773 324.704 139.785C324.764 139.824 324.823 139.863 324.876 139.909L324.89 139.924C324.946 139.986 325.003 140.049 325.039 140.13C325.044 140.155 325.049 140.174 325.052 140.187C325.057 140.208 325.06 140.217 325.056 140.221C325.053 140.224 325.046 140.222 325.033 140.22C325.018 140.217 324.995 140.213 324.962 140.212C324.901 140.212 324.817 140.212 324.734 140.198C324.714 140.193 324.691 140.19 324.668 140.187C324.646 140.185 324.624 140.182 324.602 140.178C324.56 140.167 324.52 140.15 324.482 140.13C324.201 139.995 323.912 139.911 323.623 139.92C323.543 139.921 323.463 139.931 323.386 139.949C323.432 140.011 323.479 140.072 323.526 140.134L323.487 140.132L323.552 140.225C323.67 140.397 323.79 140.57 323.903 140.744C324.018 140.771 324.131 140.844 324.199 140.962C324.212 140.984 324.223 141.01 324.231 141.034L324.246 141.099C324.258 141.141 324.258 141.191 324.254 141.24L324.254 141.242L324.266 141.259L324.738 142.002C324.752 141.985 324.764 141.968 324.777 141.951C324.868 141.83 324.918 141.687 324.953 141.545C324.989 141.399 324.998 141.254 324.985 141.119C324.98 141.076 324.969 141.035 324.959 140.995C324.955 140.979 324.951 140.963 324.947 140.947C324.938 140.907 324.929 140.872 324.921 140.841C324.908 140.79 324.898 140.749 324.895 140.711C324.887 140.653 324.905 140.602 324.928 140.55C324.931 140.541 324.935 140.532 324.938 140.522C324.942 140.508 324.947 140.495 324.953 140.485C324.968 140.455 325.002 140.455 325.071 140.474C325.14 140.492 325.218 140.549 325.291 140.647C325.668 141.199 325.509 141.951 325.019 142.438C325.091 142.539 325.169 142.633 325.251 142.732L325.31 142.802C326.362 144.297 326.574 144.59 326.658 144.705C326.673 144.725 326.684 144.74 326.694 144.755C326.764 144.864 326.817 144.983 326.85 145.107C326.87 145.19 326.769 145.231 326.629 145.247C326.473 145.275 326.311 145.25 326.172 145.177C325.881 144.913 324.925 143.599 324.41 142.828C323.98 142.99 323.483 142.989 323.056 142.812L323.06 142.801L323.058 142.801ZM322.515 140.662C322.568 140.508 322.661 140.369 322.78 140.262L323.034 140.705C323.114 140.851 323.203 141.002 323.292 141.15C323.28 141.198 323.275 141.248 323.278 141.299C323.282 141.399 323.341 141.518 323.443 141.593C323.495 141.633 323.559 141.652 323.617 141.662C323.677 141.747 323.741 141.83 323.805 141.911C323.914 142.052 324.022 142.191 324.105 142.342C324.114 142.358 324.123 142.376 324.135 142.396C324.009 142.433 323.877 142.452 323.747 142.45C323.483 142.453 323.227 142.364 323.022 142.216C322.687 141.976 322.456 141.569 322.431 141.194C322.427 141.141 322.432 141.082 322.437 141.022C322.44 140.99 322.443 140.957 322.444 140.925C322.452 140.897 322.457 140.868 322.463 140.84C322.475 140.779 322.488 140.718 322.515 140.662Z" fill="#231F20"/>
<path fill-rule="evenodd" clip-rule="evenodd" d="M305.784 142.34C305.769 142.325 305.756 142.309 305.742 142.293C305.568 142.082 305.434 141.847 305.362 141.585C305.31 141.4 305.274 141.183 305.308 140.995C305.35 140.656 305.496 140.331 305.723 140.075C305.949 139.819 306.255 139.633 306.588 139.551C306.883 139.477 307.195 139.477 307.485 139.543C307.514 139.552 307.544 139.56 307.574 139.567C307.637 139.584 307.7 139.6 307.757 139.627C307.784 139.64 307.811 139.652 307.838 139.664C307.909 139.576 307.977 139.487 308.043 139.397C308.119 139.295 308.188 139.188 308.257 139.081C308.319 138.984 308.382 138.888 308.449 138.794C308.462 138.777 308.475 138.759 308.487 138.742C308.505 138.715 308.523 138.688 308.545 138.662C308.587 138.599 308.648 138.551 308.72 138.523C308.769 138.506 308.823 138.506 308.872 138.523C308.893 138.527 308.915 138.534 308.935 138.542C308.994 138.571 308.991 138.668 308.954 138.813C308.769 139.215 308.56 139.606 308.327 139.984L308.317 140C308.35 140.039 308.379 140.081 308.4 140.13C308.405 140.155 308.41 140.174 308.413 140.187C308.419 140.208 308.421 140.217 308.418 140.221C308.414 140.224 308.407 140.222 308.394 140.22C308.379 140.217 308.356 140.213 308.323 140.212C308.285 140.212 308.238 140.212 308.188 140.209C308.133 140.295 308.078 140.382 308.023 140.468C307.945 140.591 307.866 140.714 307.789 140.839L307.776 140.804L307.711 140.897C307.674 140.951 307.636 141.006 307.598 141.06L307.608 141.099C307.619 141.141 307.619 141.191 307.615 141.24C307.606 141.339 307.558 141.439 307.493 141.511L307.487 141.505L307.487 141.511C307.392 141.607 307.277 141.656 307.156 141.668C307.129 141.709 307.104 141.752 307.078 141.797C307.052 141.841 307.026 141.885 306.996 141.93L306.667 142.369C306.806 142.423 306.956 142.452 307.108 142.45C307.504 142.455 307.914 142.271 308.138 141.951C308.23 141.83 308.279 141.687 308.314 141.545C308.35 141.399 308.36 141.254 308.346 141.119C308.341 141.076 308.33 141.035 308.32 140.995C308.316 140.979 308.312 140.963 308.308 140.947C308.299 140.907 308.291 140.872 308.283 140.841C308.269 140.79 308.259 140.749 308.256 140.711C308.249 140.653 308.266 140.602 308.289 140.55C308.293 140.541 308.296 140.532 308.299 140.522C308.304 140.508 308.308 140.495 308.314 140.485C308.329 140.455 308.364 140.455 308.432 140.474C308.501 140.492 308.58 140.549 308.652 140.647C309.085 141.282 308.811 142.179 308.14 142.636C307.648 142.974 306.973 143.042 306.418 142.812L306.422 142.801L306.42 142.801C306.4 142.793 306.381 142.784 306.363 142.775L306.221 142.965C306.123 143.095 306.046 143.231 305.965 143.374C305.95 143.4 305.935 143.427 305.92 143.454C305.863 143.562 305.8 143.667 305.732 143.769C305.655 143.874 305.561 143.966 305.455 144.044C305.382 144.094 305.303 144.022 305.233 143.905C305.145 143.779 305.105 143.627 305.121 143.476C305.28 143.067 305.504 142.684 305.784 142.34ZM306.092 141.934C305.919 141.714 305.809 141.446 305.792 141.194C305.788 141.141 305.793 141.082 305.799 141.022C305.801 140.99 305.804 140.957 305.805 140.925C305.813 140.897 305.819 140.868 305.824 140.84C305.837 140.779 305.849 140.718 305.876 140.662C305.936 140.49 306.045 140.337 306.184 140.225C306.416 140.04 306.695 139.925 306.984 139.92C307.175 139.914 307.366 139.949 307.555 140.012C307.52 140.055 307.484 140.098 307.449 140.141L307.046 140.63C306.985 140.701 306.924 140.775 306.863 140.85C306.794 140.89 306.747 140.956 306.705 141.022C306.692 141.045 306.68 141.069 306.671 141.093C306.579 141.213 306.49 141.331 306.409 141.441C306.328 141.551 306.257 141.667 306.187 141.781C306.155 141.833 306.124 141.884 306.092 141.934Z" fill="#231F20"/>
<path d="M307.54 147.85C307.614 147.846 307.688 147.841 307.762 147.834C308.159 147.797 308.555 147.745 308.944 147.659C309.335 147.582 309.726 147.455 310.096 147.304C310.841 146.998 311.512 146.542 312.073 145.993C312.634 145.442 313.098 144.802 313.42 144.099L313.451 144.025C313.523 143.85 313.593 143.682 313.631 143.512L313.657 143.409C313.672 143.35 313.687 143.292 313.702 143.235C313.713 143.17 313.721 143.105 313.729 143.043C313.733 143.019 313.736 142.995 313.739 142.971C313.763 142.802 313.775 142.649 313.759 142.51C313.758 142.487 313.757 142.464 313.756 142.442C313.751 142.334 313.747 142.239 313.722 142.157C313.699 142.047 313.688 141.964 313.682 141.912C313.677 141.873 313.674 141.851 313.67 141.848C313.661 141.841 313.635 141.94 313.579 142.157C313.368 143.551 312.671 144.872 311.596 145.838C310.758 146.585 309.697 147.115 308.551 147.296C307.909 147.406 307.255 147.451 306.603 147.421C305.954 147.381 305.31 147.27 304.694 147.079C303.457 146.708 302.366 145.952 301.624 144.959C301.203 144.395 300.9 143.75 300.716 143.076C300.217 141.223 300.681 139.17 301.913 137.671L301.91 137.669L301.92 137.673C302.229 137.296 302.568 136.941 302.961 136.641C303.105 136.518 303.263 136.413 303.421 136.308C303.468 136.277 303.516 136.245 303.563 136.213C303.626 136.167 303.695 136.13 303.765 136.093C303.805 136.072 303.845 136.051 303.884 136.027C303.924 136.007 303.963 135.985 304.001 135.963C304.07 135.924 304.139 135.885 304.213 135.856L304.552 135.705C304.624 135.67 304.7 135.645 304.776 135.62C304.818 135.605 304.86 135.591 304.901 135.576C305.077 135.507 305.26 135.46 305.443 135.413C305.5 135.399 305.558 135.384 305.616 135.368C305.692 135.349 305.77 135.337 305.847 135.324C305.892 135.317 305.938 135.31 305.982 135.301C306.105 135.279 306.228 135.257 306.352 135.25L306.723 135.217L307.095 135.214C308.433 135.225 309.744 135.683 310.784 136.456C311.814 137.247 312.687 138.258 313.049 139.418C313.06 139.459 313.073 139.5 313.085 139.539C313.102 139.593 313.118 139.645 313.131 139.696C313.141 139.736 313.151 139.775 313.161 139.813C313.172 139.858 313.183 139.901 313.194 139.942C313.214 140.043 313.236 140.133 313.256 140.212C313.266 140.253 313.275 140.291 313.283 140.326C313.332 140.529 313.38 140.621 313.426 140.565C313.445 140.542 313.463 140.498 313.482 140.454C313.49 140.435 313.498 140.415 313.506 140.398C313.569 140.267 313.601 140.104 313.581 139.822C313.574 139.752 313.564 139.675 313.552 139.589C313.539 139.512 313.52 139.429 313.498 139.339L313.49 139.306C313.473 139.233 313.448 139.156 313.42 139.074C313.409 139.04 313.398 139.006 313.387 138.971C313.373 138.936 313.359 138.9 313.344 138.864C313.309 138.775 313.272 138.679 313.223 138.582C313.085 138.281 312.911 138.008 312.72 137.743C312.503 137.441 312.258 137.161 311.997 136.898C311.867 136.768 311.731 136.641 311.593 136.519C311.507 136.441 311.414 136.369 311.322 136.297C311.267 136.254 311.212 136.211 311.159 136.168C310.564 135.718 309.888 135.361 309.162 135.124C308.231 134.805 307.216 134.721 306.23 134.83C305.241 134.944 304.286 135.287 303.441 135.783C303.391 135.813 303.342 135.844 303.293 135.875C302.174 136.476 300.936 137.541 300.196 139.462C299.21 142.023 299.931 145.807 303.975 147.26C304.429 147.448 304.9 147.59 305.376 147.689C306.06 147.835 306.764 147.887 307.462 147.854C307.586 147.857 307.711 147.858 307.838 147.858L307.836 147.857L307.54 147.85Z" fill="#231F20"/>
<path d="M303.981 137.117C303.52 137.421 303.099 137.789 302.762 138.224L302.724 138.277C302.677 138.34 302.631 138.403 302.589 138.469C302.537 138.554 302.485 138.639 302.43 138.723C302.251 139.025 302.103 139.343 301.983 139.674C301.874 140.008 301.788 140.35 301.74 140.7C301.723 140.829 301.715 140.959 301.707 141.088L301.702 141.169C301.702 141.208 301.702 141.247 301.702 141.286C301.703 141.404 301.703 141.522 301.709 141.638C301.722 141.839 301.736 142.038 301.765 142.237C301.772 142.283 301.776 142.33 301.781 142.377C301.786 142.43 301.791 142.484 301.799 142.536L301.804 142.574C301.816 142.662 301.828 142.749 301.809 142.843C301.785 142.911 301.772 142.943 301.765 142.942C301.761 142.942 301.757 142.936 301.749 142.927C301.739 142.914 301.723 142.893 301.693 142.867C301.592 142.777 301.459 142.594 301.418 142.355C301.253 141.516 301.288 140.623 301.565 139.794C301.73 139.299 301.933 138.791 302.231 138.341C302.553 137.844 302.977 137.414 303.45 137.053C303.744 136.833 304.06 136.642 304.391 136.48C304.894 136.237 305.433 136.062 305.981 135.959C306.406 135.878 306.833 135.823 307.269 135.829C307.305 135.83 307.341 135.831 307.376 135.831C307.436 135.832 307.495 135.832 307.555 135.839C307.913 135.874 308.021 135.933 308.068 136.05L308.073 136.06L308.078 136.072C308.087 136.091 308.097 136.11 308.1 136.127C308.113 136.208 307.959 136.249 307.719 136.229C307 136.179 306.241 136.238 305.512 136.441C304.97 136.586 304.451 136.822 303.984 137.127L303.979 137.12L303.981 137.117Z" fill="#231F20"/>
<path d="M324.458 147.835C324.384 147.841 324.31 147.846 324.236 147.85L324.533 147.858L324.534 147.859C324.407 147.859 324.282 147.857 324.158 147.854C323.46 147.888 322.755 147.836 322.071 147.689C321.594 147.591 321.121 147.447 320.665 147.259C316.627 145.804 315.907 142.022 316.893 139.462C317.632 137.544 318.867 136.48 319.985 135.878C320.035 135.846 320.086 135.814 320.137 135.783C320.982 135.288 321.936 134.944 322.925 134.83C323.911 134.722 324.926 134.806 325.858 135.124C326.584 135.362 327.259 135.719 327.854 136.168C327.908 136.212 327.963 136.255 328.017 136.297C328.11 136.37 328.203 136.442 328.288 136.52C328.426 136.642 328.563 136.768 328.692 136.899C328.954 137.161 329.198 137.441 329.415 137.743C329.607 138.008 329.781 138.282 329.918 138.582C329.967 138.68 330.005 138.775 330.04 138.864C330.054 138.901 330.068 138.937 330.082 138.971C330.094 139.007 330.105 139.041 330.116 139.074C330.143 139.156 330.169 139.233 330.186 139.306L330.194 139.339C330.215 139.429 330.235 139.512 330.248 139.589C330.259 139.676 330.269 139.753 330.276 139.823C330.297 140.104 330.265 140.268 330.202 140.398C330.193 140.416 330.185 140.435 330.177 140.454C330.159 140.499 330.14 140.543 330.121 140.566C330.075 140.622 330.028 140.53 329.979 140.327C329.971 140.292 329.962 140.254 329.952 140.213L329.951 140.212C329.932 140.133 329.91 140.043 329.89 139.942C329.879 139.901 329.868 139.859 329.857 139.814C329.847 139.776 329.837 139.737 329.827 139.696C329.814 139.645 329.798 139.593 329.781 139.54C329.769 139.5 329.756 139.46 329.745 139.419C329.382 138.258 328.51 137.248 327.479 136.456C326.44 135.683 325.129 135.226 323.791 135.215L323.418 135.218L323.047 135.251C322.924 135.257 322.8 135.279 322.678 135.301C322.633 135.31 322.588 135.317 322.543 135.325C322.465 135.337 322.388 135.35 322.312 135.369C322.254 135.384 322.196 135.399 322.138 135.414C321.955 135.461 321.773 135.507 321.597 135.576C321.556 135.592 321.513 135.606 321.471 135.62C321.396 135.645 321.32 135.671 321.248 135.705L320.909 135.856C320.834 135.885 320.766 135.924 320.697 135.963C320.658 135.985 320.619 136.008 320.579 136.028C320.54 136.051 320.5 136.072 320.46 136.094C320.391 136.13 320.322 136.167 320.259 136.213C320.212 136.245 320.164 136.277 320.116 136.309C319.958 136.413 319.8 136.518 319.657 136.642C319.264 136.941 318.925 137.297 318.616 137.673L318.606 137.669L318.609 137.672C317.377 139.17 316.912 141.223 317.411 143.076C317.595 143.75 317.899 144.396 318.32 144.959C319.061 145.952 320.152 146.709 321.39 147.08C322.005 147.27 322.649 147.382 323.299 147.422C323.95 147.452 324.604 147.406 325.247 147.297C326.392 147.115 327.453 146.585 328.291 145.838C329.367 144.873 330.064 143.551 330.275 142.157C330.331 141.94 330.357 141.841 330.366 141.848C330.37 141.851 330.373 141.873 330.378 141.913C330.384 141.965 330.394 142.047 330.417 142.157C330.442 142.24 330.447 142.334 330.451 142.443L330.453 142.474L330.455 142.51C330.47 142.649 330.459 142.803 330.435 142.972C330.431 142.995 330.428 143.019 330.425 143.043C330.417 143.105 330.409 143.17 330.397 143.235C330.383 143.292 330.368 143.35 330.353 143.409L330.327 143.513C330.289 143.683 330.219 143.85 330.146 144.025L330.115 144.099C329.793 144.802 329.329 145.442 328.769 145.993C328.208 146.543 327.537 146.999 326.792 147.305C326.421 147.456 326.03 147.582 325.639 147.659C325.251 147.746 324.854 147.798 324.458 147.835Z" fill="#231F20"/>
<path d="M319.306 138.373C319.559 138.026 319.871 137.722 320.204 137.448L320.211 137.453C320.543 137.172 320.924 136.938 321.318 136.743C321.713 136.549 322.132 136.398 322.561 136.304C323.719 136.025 324.942 136.17 325.962 136.63C326.031 136.657 326.092 136.684 326.147 136.709C326.235 136.748 326.308 136.78 326.371 136.791C326.47 136.815 326.527 136.808 326.529 136.762C326.53 136.743 326.522 136.719 326.515 136.695L326.511 136.682C326.509 136.676 326.507 136.671 326.506 136.665C326.468 136.519 326.34 136.383 325.827 136.158C325.787 136.144 325.748 136.129 325.708 136.114C325.608 136.076 325.509 136.039 325.405 136.012C324.752 135.819 324.071 135.763 323.392 135.812C322.955 135.845 322.521 135.93 322.1 136.052C321.677 136.175 321.275 136.354 320.891 136.56C320.388 136.838 319.918 137.177 319.513 137.582C319.189 137.915 318.903 138.28 318.663 138.674C318.433 139.072 318.249 139.495 318.117 139.935C318.009 140.337 317.939 140.753 317.927 141.171C317.918 141.587 317.94 142.003 318.019 142.406C318.258 143.753 319.086 145.008 320.302 145.74C320.644 145.949 320.993 146.013 321.189 146.001C321.244 145.999 321.284 146.002 321.309 146.004C321.328 146.006 321.339 146.007 321.341 146.004C321.347 145.998 321.311 145.965 321.23 145.895C321.213 145.875 321.191 145.864 321.17 145.854C321.155 145.846 321.14 145.839 321.127 145.828C321.114 145.82 321.101 145.812 321.088 145.804C321.066 145.79 321.045 145.777 321.022 145.766C320.967 145.739 320.914 145.708 320.86 145.678L320.811 145.649C320.671 145.57 320.535 145.483 320.402 145.393C320.138 145.211 319.889 145.007 319.666 144.78C319.495 144.602 319.33 144.415 319.183 144.213C319.038 144.011 318.909 143.798 318.797 143.578C318.555 143.079 318.387 142.547 318.321 142.003C318.253 141.459 318.281 140.907 318.396 140.373C318.466 140.071 318.542 139.77 318.666 139.483C318.824 139.086 319.05 138.717 319.306 138.373Z" fill="#231F20"/>
<path d="M331.533 150.412C331.474 150.438 331.415 150.465 331.356 150.492C331.297 150.519 331.237 150.546 331.179 150.572C331.156 150.583 331.134 150.596 331.112 150.609C331.093 150.62 331.074 150.631 331.054 150.641L331.012 150.66C330.873 150.724 330.733 150.788 330.599 150.861C330.534 150.896 330.468 150.933 330.407 150.973C330.394 150.981 330.381 150.99 330.368 150.999C330.342 151.017 330.316 151.035 330.287 151.049C330.242 151.069 330.195 151.085 330.147 151.101C330.117 151.11 330.105 151.091 330.105 151.051C330.107 151.015 330.11 150.948 330.142 150.899C330.192 150.834 330.255 150.782 330.318 150.729C330.331 150.719 330.344 150.708 330.357 150.697C330.427 150.642 330.51 150.603 330.593 150.564L330.62 150.552C330.691 150.522 330.754 150.481 330.818 150.439C330.856 150.414 330.895 150.388 330.935 150.366C331.052 150.298 331.174 150.237 331.295 150.18C331.332 150.162 331.37 150.144 331.407 150.127C331.445 150.109 331.482 150.091 331.52 150.073C331.555 150.056 331.59 150.04 331.625 150.023C331.704 149.987 331.782 149.95 331.857 149.909C331.902 149.885 331.943 149.855 331.985 149.825C332.022 149.799 332.058 149.772 332.098 149.75C332.106 149.745 332.114 149.74 332.121 149.735C332.131 149.728 332.141 149.722 332.151 149.717C332.185 149.698 332.212 149.694 332.238 149.707C332.262 149.715 332.282 149.734 332.305 149.763C332.31 149.77 332.316 149.776 332.321 149.783C332.326 149.788 332.331 149.794 332.335 149.799C332.362 149.841 332.355 149.898 332.319 149.956C332.2 150.091 332.046 150.171 331.891 150.249L331.54 150.419L331.535 150.412L331.533 150.412Z" fill="#231F20"/>
<path d="M332.567 124.402C332.58 124.491 332.497 124.539 332.364 124.57C332.324 124.591 332.205 124.547 332.193 124.521C332.173 124.47 332.156 124.417 332.144 124.364C332.129 124.34 332.2 123.876 332.214 123.719C332.234 123.566 332.268 123.415 332.314 123.267C332.398 122.973 332.483 122.675 332.574 122.38C332.593 122.314 332.619 122.25 332.652 122.188C332.76 121.977 332.847 121.757 332.91 121.529C332.926 121.493 332.933 121.454 332.931 121.415C332.986 121.16 333.071 120.912 333.186 120.676C333.302 120.499 333.403 120.32 333.512 120.143C333.527 120.117 333.531 120.087 333.564 120.068C333.623 120.033 333.667 119.977 333.686 119.913C333.727 119.834 333.776 119.759 333.83 119.689C333.865 119.654 333.901 119.623 333.94 119.593C333.979 119.572 334.02 119.603 334.022 119.619C334.025 119.636 334.07 119.643 334.095 119.647C334.1 119.652 334.104 119.659 334.106 119.666C334.116 119.86 334.109 120.055 334.084 120.249C334.084 120.249 334.032 120.433 333.976 120.62C333.921 120.806 333.865 121.004 333.857 121.04C333.841 121.081 333.82 121.121 333.793 121.156C333.776 121.166 333.626 121.733 333.616 121.753C333.585 121.87 333.534 121.981 333.464 122.081C333.45 122.096 333.44 122.114 333.435 122.132C333.377 122.327 333.294 122.518 333.216 122.71C333.179 122.808 333.152 122.912 333.123 123.012L333.094 123.064C333.081 123.083 333.07 123.105 333.062 123.127C332.996 123.369 332.897 123.601 332.843 123.846C332.832 123.902 332.697 124.153 332.693 124.216C332.69 124.278 332.574 124.377 332.567 124.402Z" fill="#221F1F"/>
<path d="M338.213 130.461C338.186 130.504 338.135 130.475 338.052 130.411C338.019 130.377 337.995 130.337 337.982 130.293C337.992 130.26 338.005 130.227 338.019 130.195C338.036 130.185 338.243 130.016 338.31 129.961C338.38 129.912 338.455 129.871 338.534 129.839L338.993 129.627C339.028 129.612 339.066 129.604 339.104 129.601C339.232 129.586 339.356 129.551 339.472 129.496C339.494 129.491 339.514 129.48 339.53 129.464C339.651 129.391 339.783 129.338 339.922 129.306C340.042 129.306 340.162 129.3 340.282 129.287C340.282 129.287 340.31 129.272 340.333 129.291C340.355 129.311 340.41 129.309 340.445 129.304C340.494 129.294 340.546 129.294 340.596 129.303C340.626 129.31 340.655 129.32 340.682 129.334C340.708 129.341 340.712 129.385 340.714 129.388C340.715 129.39 340.733 129.42 340.742 129.436C340.747 129.441 340.751 129.448 340.754 129.455C340.722 129.5 340.688 129.544 340.65 129.586C340.612 129.631 340.57 129.672 340.523 129.708L340.126 129.925C340.105 129.936 340.081 129.939 340.057 129.935C340.057 129.935 339.778 130.088 339.749 130.082C339.685 130.099 339.634 130.145 339.552 130.119C339.546 130.12 339.54 130.122 339.535 130.124C339.529 130.127 339.525 130.131 339.521 130.136C339.418 130.174 339.311 130.203 339.201 130.222C339.146 130.238 339.092 130.257 339.039 130.279L339.006 130.279L338.975 130.296C338.846 130.334 338.719 130.38 338.596 130.432C338.568 130.448 338.413 130.462 338.387 130.48C338.36 130.498 338.222 130.446 338.213 130.461Z" fill="#221F1F"/>
<path d="M334.718 128.031C334.713 128.049 334.704 128.066 334.691 128.08C334.678 128.094 334.662 128.104 334.643 128.111C334.597 128.123 334.549 128.13 334.5 128.132C334.462 128.136 334.369 128.105 334.371 128.072C334.372 128.012 334.38 127.953 334.396 127.895C334.402 127.856 334.66 127.456 334.747 127.323C334.83 127.195 334.923 127.073 335.026 126.958C335.228 126.72 335.432 126.484 335.646 126.264C335.692 126.213 335.744 126.166 335.799 126.124C335.985 125.974 336.156 125.806 336.309 125.625C336.338 125.598 336.362 125.566 336.379 125.53C336.539 125.323 336.717 125.13 336.912 124.951C337.083 124.829 337.242 124.696 337.423 124.565C337.443 124.542 337.472 124.526 337.504 124.521C337.572 124.51 337.633 124.477 337.677 124.426C337.744 124.367 337.816 124.312 337.891 124.263C337.934 124.239 337.98 124.223 338.028 124.213C338.067 124.191 338.112 124.266 338.107 124.283C338.103 124.3 338.138 124.334 338.172 124.347C338.178 124.356 338.183 124.365 338.188 124.374C338.108 124.55 338.014 124.72 337.906 124.883L337.353 125.508C337.323 125.541 337.287 125.57 337.248 125.594C337.232 125.603 336.848 126.054 336.83 126.067C336.751 126.162 336.656 126.244 336.549 126.31C336.529 126.323 336.511 126.339 336.495 126.357C336.352 126.513 336.194 126.653 336.039 126.798C335.961 126.872 335.894 126.951 335.809 127.033C335.793 127.044 335.775 127.054 335.756 127.062L335.692 127.097C335.519 127.28 335.327 127.449 335.172 127.648C335.135 127.693 334.926 127.857 334.875 127.92C334.824 127.984 334.724 128.003 334.718 128.031Z" fill="#221F1F"/>
</svg>
