<svg width="384" height="210" viewBox="0 0 384 210" fill="none" xmlns="http://www.w3.org/2000/svg">
<rect x="0.335938" width="383.667" height="210" rx="4" fill="white"/>
<rect x="0.835938" y="0.5" width="382.667" height="209" rx="3.5" stroke="black" stroke-opacity="0.1"/>
<path d="M196.728 104.619L191.689 105.475L189.855 105.838L183.345 106.997L180.472 107.572C179.246 107.883 177.995 108.085 176.733 108.176C176.31 108.176 176.391 107.944 176.733 107.672C177.175 107.316 177.698 107.073 178.255 106.967C180.724 106.453 183.224 105.959 185.763 105.566C187.275 105.334 188.787 104.961 190.379 104.669L195.418 103.742L198.563 103.198L203.34 102.442C204.569 102.26 205.758 101.988 206.998 101.837L207.804 101.716C208.812 101.635 209.165 101.716 209.386 102.018C209.443 102.084 209.494 102.155 209.538 102.23C209.628 102.472 209.225 102.694 208.53 102.784L201.848 103.792L196.809 104.629L196.728 104.619Z" fill="#11181C"/>
<path d="M152.795 123.241C154.75 124.236 156.715 125.213 158.69 126.174L160.877 127.182L168.527 130.861C169.655 131.405 170.814 131.929 171.943 132.443C173.444 133.052 174.879 133.811 176.226 134.71C176.65 135.003 176.468 135.134 175.994 135.113C175.689 135.093 175.385 135.046 175.087 134.972C174.677 134.898 174.278 134.773 173.898 134.6C170.955 133.259 167.922 132.04 164.989 130.568C163.225 129.691 161.321 128.915 159.486 128.089C157.471 127.162 155.455 126.218 153.44 125.257L149.771 123.413C147.917 122.506 146.072 121.528 144.238 120.601C142.827 119.855 141.386 119.21 139.985 118.454C139.666 118.31 139.356 118.145 139.058 117.961C137.95 117.245 137.677 116.902 137.667 116.429C137.653 116.322 137.653 116.213 137.667 116.106C137.667 115.814 138.322 115.864 139.179 116.257C141.709 117.436 144.218 118.868 146.909 120.198C148.864 121.206 150.829 122.213 152.815 123.221L152.795 123.241Z" fill="#11181C"/>
<path d="M175.984 116.913L175.692 119.937C175.692 120.31 175.692 120.682 175.631 121.065L175.268 125.016C175.268 125.601 175.208 126.185 175.198 126.77C175.221 127.517 175.184 128.265 175.087 129.007C175.016 129.471 174.079 128.876 174.029 127.999C173.968 126.464 174.039 124.927 174.24 123.403C174.371 122.486 174.341 121.529 174.391 120.582L174.593 117.478L174.734 115.623C174.795 114.615 174.885 113.688 174.905 112.731C174.905 111.985 174.905 111.249 174.905 110.514C174.905 110.352 174.905 110.191 174.905 110.02C174.903 109.8 174.941 109.581 175.016 109.375C175.049 109.31 175.098 109.255 175.157 109.213C175.182 109.164 175.217 109.121 175.261 109.088C175.304 109.055 175.355 109.032 175.409 109.022C175.442 109.015 175.475 109.018 175.506 109.03C175.537 109.043 175.563 109.065 175.581 109.093C175.52 108.972 175.581 109.183 175.581 109.093C175.602 109.16 175.632 109.225 175.671 109.284C175.696 109.321 175.732 109.348 175.775 109.361C175.817 109.373 175.862 109.371 175.903 109.355C175.984 109.264 176.004 109.355 176.034 109.445C176.068 109.54 176.092 109.638 176.105 109.738C176.265 111.099 176.309 112.471 176.236 113.839C176.236 114.847 176.135 115.905 176.064 116.943L175.984 116.913Z" fill="#11181C"/>
<path d="M156.256 110.504C156.256 111.451 156.236 112.399 156.196 113.346V114.354L156.136 118.032C156.136 118.577 156.136 119.121 156.136 119.665C156.21 120.374 156.18 121.091 156.045 121.792C155.994 122.013 155.742 121.943 155.521 121.731C155.386 121.619 155.275 121.481 155.196 121.325C155.116 121.169 155.069 120.999 155.057 120.824C155.057 119.453 154.966 118.042 155.057 116.611C155.118 115.765 155.057 114.878 155.007 114.001C154.956 113.124 155.007 112.076 155.007 111.119V109.345L155.097 106.654C155.097 105.959 155.097 105.274 155.097 104.578C155.088 104.427 155.088 104.276 155.097 104.125C155.158 103.56 155.259 103.389 155.541 103.308L155.732 103.248C155.944 103.248 156.095 103.47 156.136 103.883C156.237 105.126 156.267 106.375 156.226 107.622L156.176 110.474L156.256 110.504Z" fill="#11181C"/>
<path d="M182.56 77.4191C183.255 77.2066 183.962 77.0316 184.676 76.8951C184.938 76.8346 185.18 76.7338 185.442 76.6935C186.359 76.5423 187.296 76.4718 188.214 76.3609C188.627 76.3105 189.03 76.2299 189.433 76.1694C189.956 76.0871 190.486 76.05 191.015 76.0586C191.156 76.0586 191.187 76.0586 191.015 76.0586C190.874 76.0586 190.683 76.3307 190.421 76.4919C189.527 77.1015 188.525 77.5327 187.468 77.7618C186.843 77.8727 186.238 78.1548 185.603 78.3161C184.968 78.4773 184.223 78.6587 183.527 78.82C183.104 78.9208 182.671 79.0216 182.267 79.1425C182.013 79.1952 181.77 79.2942 181.552 79.4348C181.37 79.6285 181.257 79.8762 181.229 80.1402C181.149 80.6038 181.229 81.148 181.159 81.6217V81.9644C181.134 82.19 181.077 82.4107 180.988 82.6194C180.988 82.6194 180.988 82.6698 180.988 82.6799C180.977 82.53 180.939 82.3832 180.877 82.2466C180.635 81.3496 179.869 80.5333 180.302 79.0417C180.412 78.7419 180.592 78.4724 180.826 78.2556C181.025 78.0755 181.249 77.9261 181.491 77.8122C181.842 77.6408 182.202 77.4894 182.57 77.3587L182.56 77.4191Z" fill="#11181C"/>
<path d="M173.171 90.7323H173.091H172.798L172.093 90.6819C171.908 90.6926 171.723 90.6926 171.539 90.6819C170.863 90.6819 170.138 90.4904 169.422 90.44C169.1 90.44 168.787 90.44 168.475 90.44C168.037 90.4607 167.6 90.3991 167.185 90.2586C167.064 90.1982 167.084 90.2586 167.185 90.1982C167.286 90.1377 167.437 89.8857 167.618 89.7144C167.885 89.3799 168.215 89.1023 168.591 88.898C168.967 88.6937 169.38 88.567 169.805 88.5252C170.301 88.4456 170.793 88.3379 171.277 88.2027C171.885 88.1229 172.502 88.1229 173.111 88.2027C173.66 88.257 174.172 88.5075 174.552 88.9082C174.936 89.4332 175.154 90.0618 175.177 90.7121C175.258 91.0996 175.285 91.4964 175.257 91.8913C175.257 91.982 175.257 92.0626 175.257 92.1533C175.257 92.4657 175.126 92.6068 175.137 92.6774C175.049 92.5793 174.951 92.4914 174.844 92.4153C174.572 92.1231 174.25 91.8006 173.947 91.5083C173.645 91.2161 173.413 90.9439 173.242 90.7625C173.189 90.7046 173.124 90.6597 173.05 90.6315H172.99C172.99 90.6315 172.99 90.6315 173.04 90.6315C173.104 90.5857 173.162 90.5315 173.212 90.4703C173.236 90.4433 173.257 90.4127 173.272 90.3796C173.272 90.4501 173.474 89.7648 173.383 90.0571V90.1175L173.312 90.3191C173.275 90.4614 173.248 90.6062 173.232 90.7525L173.171 90.7323Z" fill="#11181C"/>
<path d="M142.058 145.516C145.021 147.38 147.994 149.235 150.997 151.049C152.085 151.714 153.224 152.309 154.313 152.974L165.852 160.029C167.565 161.036 169.319 162.044 171.052 163.052C173.28 164.292 175.497 165.582 177.603 167.083C178.258 167.547 178.016 167.748 177.26 167.708C176.096 167.598 174.96 167.284 173.904 166.781C171.526 165.682 169.248 164.433 166.971 163.153C164.693 161.873 162.436 160.563 160.198 159.121C157.528 157.469 154.635 155.947 151.854 154.324C148.803 152.537 145.78 150.726 142.783 148.892C140.919 147.763 139.064 146.625 137.21 145.456C136.515 145.022 135.819 144.569 135.124 144.105C134.771 143.883 134.428 143.641 134.116 143.4C133.925 143.248 133.632 143.077 133.431 142.896L133.259 142.755C133.235 142.685 133.214 142.615 133.199 142.543C133.153 142.404 133.116 142.263 133.088 142.12C132.998 141.653 132.935 141.182 132.897 140.709L132.796 139.459L132.614 136.99C132.423 134.45 132.121 131.951 131.979 129.451C131.979 128.897 131.899 128.353 131.879 127.789C131.825 127.048 131.883 126.304 132.05 125.581C132.163 125.197 132.375 124.85 132.665 124.574C132.755 124.466 132.856 124.368 132.967 124.281C133.128 124.181 133.269 124.342 133.461 124.715C133.738 125.244 133.922 125.816 134.005 126.408C134.348 128.635 134.63 130.923 134.852 133.241C135.073 135.559 135.194 137.927 135.416 140.225L135.527 141.233C136.182 141.706 136.958 142.17 137.674 142.644L142.148 145.425L142.058 145.516Z" fill="#11181C"/>
<path d="M178.384 153.607V157.114C178.384 157.547 178.444 157.97 178.444 158.394L178.384 162.929C178.384 163.604 178.384 164.269 178.464 164.944C178.605 165.812 178.605 166.697 178.464 167.565C178.404 167.847 178.001 167.766 177.607 167.565C177.396 167.455 177.211 167.301 177.065 167.113C176.919 166.925 176.815 166.708 176.761 166.476C176.555 164.758 176.491 163.025 176.569 161.296C176.591 160.223 176.547 159.149 176.438 158.081L176.348 154.534V152.347C176.348 151.248 176.348 150.13 176.348 149.041C176.348 148.184 176.166 147.348 176.156 146.481C176.156 146.29 176.156 146.108 176.156 145.917C176.156 145.201 176.368 144.909 176.811 144.909C176.91 144.879 177.011 144.859 177.114 144.849C177.456 144.849 177.718 145.141 177.809 145.615C177.97 146.33 178.142 147.076 178.242 147.842C178.343 148.608 178.394 149.384 178.454 150.16L178.555 151.913V153.677L178.384 153.607Z" fill="#11181C"/>
<path d="M241.565 153.748L226.448 157.527C224.614 157.98 222.8 158.535 220.965 158.938L201.495 163.473L192.878 165.559C189.238 166.555 185.534 167.299 181.792 167.787C180.572 167.857 180.784 167.494 181.641 166.95C183.092 166.083 184.67 165.447 186.317 165.065C193.744 163.191 201.202 161.367 208.771 159.694C213.296 158.686 217.932 157.366 222.528 156.177L237.645 152.306C240.759 151.5 243.863 150.694 246.947 149.837L248.811 149.303L249.335 149.152C249.396 149.152 249.557 149.152 249.527 149.021V148.759C249.527 145.282 249.527 141.805 249.527 138.358C249.527 134.599 249.376 130.921 249.406 127.192C249.406 126.365 249.406 125.559 249.406 124.733C249.567 121.709 249.88 120.701 250.585 120.087C250.728 119.941 250.891 119.815 251.069 119.714C251.593 119.492 251.825 120.722 251.845 122.949C251.936 129.52 251.956 136.494 251.956 143.498C251.956 145.514 251.956 147.56 251.956 149.636L251.784 150.15L251.694 150.402V150.523V150.593C251.875 150.724 251.442 150.412 251.482 150.452L251.21 150.875C251.139 151.037 250.908 151.097 250.766 151.208C250.396 151.364 250.016 151.496 249.628 151.601L249.003 151.782L246.544 152.458L241.636 153.778L241.565 153.748Z" fill="#11181C"/>
<path d="M221.492 125.097L210.134 127.546L205.982 128.553L191.409 131.768C189.262 132.252 187.095 132.776 184.979 133.33C182.238 133.985 179.507 134.731 176.725 135.195C175.868 135.356 175.939 135.195 176.604 134.852C176.927 134.651 177.41 134.379 177.995 134.086C178.635 133.729 179.311 133.439 180.011 133.22L184.143 131.94C185.523 131.526 186.924 131.164 188.315 130.801C191.11 130.055 193.925 129.383 196.76 128.785C200.167 128.07 203.644 127.102 207.101 126.276L218.509 123.615L225.564 121.993C229.111 121.176 232.689 120.39 236.196 119.533C238.927 118.878 241.578 118.112 244.259 117.417C244.853 117.256 245.428 117.084 246.032 116.943C246.825 116.736 247.643 116.645 248.461 116.671C248.874 116.671 249.279 116.786 249.63 117.004C249.766 117.079 249.894 117.167 250.013 117.266C250.295 117.548 249.459 118.092 247.887 118.727C243.15 120.239 238.071 121.428 232.951 122.587L221.512 125.147L221.492 125.097Z" fill="#11181C"/>
<path d="M150.126 122.75C152.142 123.792 154.194 124.8 156.284 125.774L158.561 126.782L166.553 130.601C167.743 131.166 168.942 131.7 170.131 132.234C171.709 132.856 173.213 133.65 174.616 134.602C175.049 134.915 174.837 135.076 174.324 135.086C173.986 135.083 173.649 135.052 173.316 134.995C172.881 134.939 172.457 134.82 172.056 134.643C169.032 133.272 165.807 132.032 162.744 130.46C160.91 129.533 158.904 128.767 156.989 127.9C154.883 126.953 152.776 125.975 150.69 124.978L146.83 123.113C144.895 122.166 142.97 121.098 141.056 120.17C139.574 119.394 138.032 118.739 136.601 117.923C136.279 117.752 135.946 117.59 135.593 117.389C134.454 116.593 134.192 116.19 134.243 115.655C134.232 115.535 134.232 115.413 134.243 115.293C134.344 114.95 134.999 115 135.865 115.424C138.466 116.673 141.116 118.155 143.867 119.546C145.883 120.553 147.959 121.652 150.025 122.67L150.126 122.75Z" fill="#11181C"/>
<path d="M237.12 107.542C237.12 108.549 237.12 109.618 237.12 110.666C237.12 111.039 237.2 111.412 237.211 111.795C237.211 113.145 237.211 114.486 237.211 115.826C237.217 116.422 237.254 117.017 237.321 117.61C237.447 118.371 237.447 119.147 237.321 119.908C237.321 120.149 236.959 120.129 236.606 119.908C236.202 119.717 235.888 119.378 235.729 118.96C235.52 118.217 235.395 117.453 235.356 116.683C235.291 115.908 235.291 115.129 235.356 114.354C235.362 113.4 235.298 112.447 235.165 111.502L234.963 108.398L234.893 106.453C234.893 105.445 234.893 104.488 234.782 103.51C234.721 102.755 234.53 102.019 234.439 101.263C234.429 101.099 234.429 100.934 234.439 100.769C234.427 100.635 234.427 100.5 234.439 100.366C234.485 100.27 234.547 100.181 234.62 100.104C234.748 99.9641 234.912 99.8628 235.094 99.8118L235.346 99.7211C235.608 99.6606 235.9 99.9125 236.213 100.346C236.334 100.678 236.465 101.001 236.576 101.354C236.687 101.706 236.697 102.019 236.757 102.362C236.858 103.037 236.918 103.732 236.979 104.377C237.059 105.385 237.12 106.453 237.16 107.491L237.12 107.542Z" fill="#11181C"/>
<path d="M203.52 105.225C199.489 105.931 195.458 106.626 191.426 107.372L187.052 108.279C184.493 108.793 181.902 109.287 179.413 109.942L178.476 110.174L177.68 110.436L177.488 110.496H177.388C177.388 110.496 177.388 110.557 177.388 110.587V110.789V111.141L177.186 115.072C177.075 117.4 177.015 119.748 176.974 122.056C176.974 125.079 176.974 128.022 176.702 130.985C176.571 132.829 174.999 130.471 174.969 127.024C174.969 124.001 174.969 120.978 175.08 117.904C175.08 116.382 175.19 114.88 175.271 113.338L175.412 111.04V110.708C175.426 110.544 175.467 110.384 175.533 110.234C175.606 109.945 175.711 109.664 175.846 109.398L175.745 109.277L175.825 109.206L175.997 109.065C176.109 108.955 176.248 108.875 176.4 108.833L177.236 108.551C179.091 108.007 180.905 107.543 182.749 107.14C184.593 106.737 186.438 106.263 188.272 105.891C192.303 105.054 196.334 104.298 200.426 103.542L207.904 102.172C211.683 101.466 215.483 100.791 219.202 99.9949C222.094 99.3801 224.906 98.6343 227.728 97.9188L229.582 97.4149C231.91 96.8505 232.606 96.7396 233.301 97.1428C233.456 97.2115 233.601 97.2996 233.734 97.4048C234.077 97.7374 233.23 98.3421 231.527 98.9467C226.327 100.613 221.029 101.959 215.664 102.978C211.633 103.794 207.602 104.56 203.5 105.326L203.52 105.225Z" fill="#11181C"/>
<path d="M184.751 90.0444L195.112 88.3311C196.372 88.1296 197.621 87.8675 198.881 87.676C201.118 87.3435 203.356 87.0411 205.613 86.7892C206.742 86.6884 207.871 86.5775 209.04 86.5574H209.927H210.491C210.702 86.5821 210.911 86.6226 211.116 86.6783C211.65 86.6279 211.67 87.1822 211.831 87.5551C211.892 87.7466 212.003 87.9784 212.033 88.1296L212.134 88.5629C212.535 90.5525 212.715 92.5806 212.668 94.6098C212.668 97.1797 212.547 99.7093 212.537 102.209C212.537 102.995 212.235 102.924 211.872 102.279C211.356 101.25 211.064 100.124 211.015 98.9736C210.924 96.3432 210.904 93.7733 210.672 91.3142C210.612 90.7096 210.511 90.1049 210.4 89.5203C210.34 89.2281 210.259 88.9358 210.189 88.6536C210.189 88.5831 210.189 88.573 210.189 88.5226H209.181C208.566 88.5226 207.931 88.5831 207.286 88.6335C204.263 88.8653 201.028 89.5304 197.883 90.0746L187.503 91.9391L181.103 93.0981C177.878 93.6927 174.623 94.247 171.428 94.8617C168.929 95.3354 166.52 95.9502 164.041 96.4037C163.497 96.5146 162.963 96.6254 162.408 96.706C161.682 96.8516 160.94 96.9024 160.201 96.8572C159.819 96.8128 159.463 96.6385 159.193 96.3634C159.067 96.2648 158.956 96.1495 158.861 96.0207C158.629 95.6478 159.405 95.1439 160.876 94.7811C165.19 93.7128 169.796 92.8159 174.442 91.9391C177.757 91.2639 181.264 90.5886 184.731 89.9839L184.751 90.0444Z" fill="#11181C"/>
<path d="M157.602 109.747L157.501 113.103C157.501 113.516 157.501 113.919 157.501 114.332L157.32 118.656C157.32 119.301 157.32 119.946 157.32 120.581C157.413 121.416 157.365 122.261 157.179 123.08C157.108 123.352 156.745 123.252 156.392 123C156.203 122.883 156.042 122.726 155.922 122.54C155.802 122.353 155.725 122.142 155.697 121.921C155.632 120.275 155.662 118.626 155.788 116.983C155.842 115.976 155.842 114.967 155.788 113.96V110.573V108.487C155.788 107.479 155.788 106.371 155.788 105.323C155.788 104.506 155.647 103.71 155.657 102.894C155.657 102.712 155.657 102.531 155.657 102.35C155.707 101.674 155.848 101.463 156.261 101.342C156.362 101.342 156.453 101.342 156.554 101.281C156.866 101.281 157.108 101.543 157.199 102.007C157.336 102.724 157.437 103.447 157.501 104.174C157.501 104.909 157.572 105.655 157.582 106.401C157.582 107.52 157.582 108.648 157.582 109.767L157.602 109.747Z" fill="#11181C"/>
<path d="M149.424 101.595L149.303 106.11C149.303 106.655 149.303 107.199 149.303 107.753L149.091 113.558C149.091 114.415 149.091 115.281 149.091 116.138C149.213 117.253 149.179 118.379 148.99 119.484C148.9 119.837 148.486 119.716 148.093 119.393C147.87 119.223 147.684 119.007 147.549 118.761C147.413 118.514 147.331 118.242 147.307 117.962C147.222 115.738 147.252 113.511 147.398 111.29C147.519 109.94 147.398 108.549 147.398 107.169V102.623V99.8216C147.398 98.4107 147.398 96.9896 147.398 95.5888C147.398 94.4903 147.237 93.422 147.227 92.3335C147.227 92.0917 147.227 91.8498 147.227 91.6079C147.227 90.711 147.448 90.4086 147.912 90.2675C148.016 90.2234 148.124 90.1896 148.234 90.1667C148.587 90.1667 148.859 90.5094 148.95 91.1746C149.091 92.1219 149.262 93.0894 149.313 94.0871C149.363 95.0849 149.403 96.1028 149.424 97.1106C149.424 98.6122 149.424 100.134 149.424 101.646V101.595Z" fill="#11181C"/>
<path d="M176.906 83.6664L170.063 84.8053L167.584 85.2991L158.776 86.8209C157.476 87.0527 156.176 87.3349 154.896 87.6271C153.264 88.0588 151.608 88.3953 149.937 88.6349C148.93 88.7559 149.937 87.1635 151.802 86.6999C155.138 85.8937 158.504 85.1681 161.93 84.6339C163.946 84.3316 166.083 83.7975 168.169 83.3943L175.052 82.1043L179.295 81.3384C181.442 80.9554 183.598 80.6128 185.715 80.1895C187.368 79.867 188.96 79.4336 190.593 79.0708C190.945 78.9902 191.298 78.8894 191.661 78.8189C193.001 78.5669 193.455 78.6374 193.828 79.1414C193.921 79.2516 194.006 79.3696 194.08 79.4941C194.271 79.9073 193.777 80.3407 192.82 80.6228C189.853 81.4196 186.845 82.0555 183.81 82.5276L176.917 83.7168L176.906 83.6664Z" fill="#11181C"/>
<path d="M182.538 76.279L185.148 75.8758C185.471 75.8255 185.773 75.7348 186.096 75.6944L189.442 75.3115C189.946 75.251 190.449 75.1502 190.923 75.0797C191.563 74.9299 192.223 74.8789 192.878 74.9285C193.1 74.9285 193.05 75.2107 192.878 75.4727C192.719 75.7734 192.453 76.0035 192.133 76.1177C190.901 76.4588 189.638 76.6715 188.363 76.7526C187.581 76.8493 186.806 77.0008 186.045 77.2062L183.496 77.7302C182.972 77.8411 182.488 77.962 181.954 78.1031L181.238 78.3148C181.153 78.3377 181.072 78.3716 180.996 78.4155C180.916 78.476 180.996 78.5768 180.936 78.6574V79.1008C180.975 79.7237 181.055 80.3432 181.178 80.9552C181.21 81.0811 181.234 81.2091 181.248 81.3382C181.248 81.5801 181.248 81.7212 181.127 81.832C180.963 81.9393 180.787 82.0272 180.603 82.094L180.341 82.2251C180.27 82.2639 180.19 82.2842 180.109 82.2842C180.028 82.2842 179.949 82.2639 179.878 82.2251C179.696 82.1344 179.444 81.9731 179.404 81.7514C179.202 81.2272 179.1 80.6702 179.102 80.1087C179.102 79.8466 179.102 79.5745 179.102 79.3024V78.9094V78.6171C179.091 78.4829 179.091 78.3481 179.102 78.214C179.114 78.0373 179.155 77.8638 179.222 77.7C179.434 77.5992 179.364 77.317 179.565 77.2263C179.727 77.0959 179.902 76.9843 180.089 76.8937C180.301 76.8232 180.502 76.7325 180.714 76.6821L181.097 76.5712C181.55 76.4503 181.994 76.3596 182.437 76.2689L182.538 76.279Z" fill="#11181C"/>
<path d="M174.252 89.2479C173.396 89.3184 172.519 89.4293 171.642 89.5502C171.319 89.5502 171.007 89.6913 170.634 89.7417C169.505 89.8929 168.367 90.0541 167.238 90.2557C166.734 90.3464 166.23 90.4774 165.756 90.5883C165.126 90.7773 164.477 90.8956 163.821 90.941C163.61 90.941 163.6 90.689 163.71 90.4069C163.772 90.2415 163.866 90.0901 163.987 89.962C164.108 89.8338 164.254 89.7315 164.416 89.6611C165.66 89.2011 166.957 88.8964 168.276 88.754C169.082 88.6633 169.868 88.3912 170.674 88.2199C171.481 88.0486 172.448 87.8772 173.345 87.7361L174.182 87.6152C174.549 87.559 174.919 87.5287 175.29 87.5245C175.532 87.4971 175.775 87.5579 175.976 87.6958C176.197 87.8067 176.207 88.0788 176.288 88.3106C176.419 89.0665 176.49 89.4192 176.59 89.9029C176.741 90.5379 176.983 91.1325 177.185 91.7674C177.244 91.9032 177.288 92.0452 177.316 92.1907C177.369 92.395 177.34 92.6121 177.235 92.7954C177.085 92.9468 176.897 93.0547 176.691 93.1078C176.6 93.1414 176.505 93.1617 176.409 93.1683C176.255 93.1724 176.102 93.1378 175.965 93.0675C175.804 92.9969 175.562 92.8961 175.502 92.7248C175.067 91.6619 174.808 90.5352 174.736 89.389H174.272L174.252 89.2479Z" fill="#11181C"/>
<path d="M222.007 149.034C219.991 149.477 218.066 149.87 216.091 150.253C215.375 150.384 214.67 150.586 213.944 150.707C212.674 150.929 211.394 151.13 210.114 151.301C209.443 151.396 208.798 151.476 208.179 151.543L207.172 151.624H206.668C206.527 151.624 206.204 151.624 205.992 151.624C205.787 151.617 205.584 151.583 205.388 151.523C205.338 151.532 205.287 151.532 205.237 151.523L205.146 151.412L204.944 151.181C204.705 150.835 204.522 150.454 204.4 150.052C204.228 149.445 204.137 148.818 204.128 148.187C204.102 147.441 204.122 146.694 204.188 145.95C204.259 145.234 204.38 144.539 204.44 143.854C204.44 143.441 204.793 143.42 205.176 143.793C205.68 144.349 205.979 145.06 206.023 145.809C206.083 146.565 206.023 147.28 206.023 147.945C206.034 148.26 206.067 148.573 206.123 148.883C206.142 149.023 206.172 149.161 206.214 149.296C206.209 149.356 206.209 149.417 206.214 149.477C206.214 149.477 206.214 149.538 206.214 149.558H206.375H206.627C207.333 149.487 208.058 149.407 208.794 149.356C210.589 149.122 212.369 148.786 214.126 148.349C216.141 147.945 218.046 147.542 219.991 147.089C221.19 146.817 222.39 146.524 223.569 146.202C225.348 145.755 227.087 145.162 228.769 144.428L229.192 144.196L229.444 144.015C229.519 143.964 229.577 143.891 229.609 143.807C229.642 143.722 229.647 143.629 229.626 143.541C229.626 143.43 229.575 142.957 229.535 142.634L229.414 141.626C229.414 141.334 229.293 141.052 229.243 140.77C229.092 139.702 229.243 139.48 229.716 139.026L230.029 138.694C230.341 138.311 231.037 138.694 231.49 139.702C231.742 140.366 231.904 141.061 231.974 141.768C231.974 142.12 232.054 142.463 232.075 142.775C232.101 143.222 232.101 143.669 232.075 144.116C232.059 144.435 231.973 144.747 231.823 145.029C231.673 145.311 231.463 145.557 231.208 145.748C230.951 145.955 230.678 146.14 230.392 146.303L229.847 146.575C229.192 146.889 228.519 147.165 227.832 147.401C225.816 148.076 223.861 148.55 221.896 149.054L222.007 149.034Z" fill="#11181C"/>
<path d="M133.346 137.817C133.346 137.817 128.196 136.295 125.062 138.754C122.28 140.931 133.608 152.259 156.808 156.23L133.84 142.292L133.346 137.817Z" fill="#11181C"/>
<path d="M218.719 124.06L208.571 126.367L204.892 127.275L191.871 130.318C189.936 130.782 188.011 131.326 186.117 131.79C183.668 132.394 181.239 133.09 178.749 133.543C177.984 133.694 178.054 133.543 178.639 133.241C178.941 133.069 179.364 132.828 179.878 132.555C180.463 132.237 181.077 131.977 181.712 131.779C184.161 130.963 186.631 130.197 189.13 129.542C191.629 128.887 194.169 128.222 196.668 127.678C199.692 127.002 202.816 126.116 205.9 125.34L216.059 122.85L222.347 121.349C225.512 120.583 228.707 119.857 231.841 119.071C234.28 118.456 236.648 117.761 239.057 117.116C239.581 116.965 240.065 116.813 240.629 116.682C241.336 116.492 242.064 116.394 242.796 116.39C243.15 116.391 243.498 116.485 243.804 116.662C243.927 116.718 244.042 116.789 244.146 116.874C244.408 117.116 243.653 117.6 242.252 118.174C238.019 119.555 233.474 120.663 228.898 121.732L218.739 124.1L218.719 124.06Z" fill="#11181C"/>
<path d="M196.101 94.7716L197.734 94.57C197.936 94.57 198.127 94.4894 198.319 94.4692L200.425 94.2274C200.733 94.1925 201.039 94.1421 201.342 94.0762C201.725 93.9611 202.122 93.9001 202.521 93.8948C202.773 93.8948 202.612 94.6909 202.179 94.832C201.395 95.065 200.586 95.207 199.77 95.2553C199.274 95.3015 198.783 95.3823 198.298 95.4972L196.666 95.7592L195.658 95.9205C195.094 96.0112 194.65 95.991 194.116 96.0918C193.731 96.1712 193.351 96.2721 192.977 96.3942L192.725 96.4647C192.413 96.5352 192.302 96.4647 192.181 96.1926C192.181 96.1321 192.181 96.0717 192.11 96.0011C192.081 95.8968 192.091 95.7851 192.14 95.6881C192.188 95.591 192.271 95.5157 192.373 95.477C193.055 95.1956 193.775 95.0157 194.509 94.9429C194.781 94.9429 195.114 94.9429 195.295 94.8724L196.091 94.7514L196.101 94.7716Z" fill="#11181C"/>
<path d="M192.673 100.739L195.585 100.336L196.593 100.134L200.342 99.5296C200.896 99.4389 201.451 99.3079 201.995 99.187C202.686 98.9957 203.39 98.8542 204.101 98.7637C204.555 98.7637 204.162 99.58 203.366 99.7715C201.95 100.165 200.508 100.461 199.052 100.658C198.175 100.759 197.278 101.001 196.392 101.162L193.459 101.676L191.645 101.989C190.728 102.14 189.811 102.281 188.914 102.462C188.208 102.603 187.533 102.805 186.848 102.976L186.394 103.087C185.83 103.208 185.628 103.168 185.457 102.906C185.412 102.847 185.375 102.782 185.346 102.714C185.245 102.503 185.447 102.281 185.86 102.14C187.109 101.741 188.386 101.434 189.68 101.223L192.612 100.719L192.673 100.739Z" fill="#11181C"/>
<rect x="42.8359" y="104.5" width="44" height="44" stroke="#E5E5E5"/>
<rect x="46.3359" y="108" width="37" height="37" fill="#11181C"/>
<path d="M67.7704 128.638L70.8406 133.132H70.8747L71.3107 133.913H65.2552L62.2257 128.638H67.7704Z" fill="white"/>
<path d="M71.3091 133.914L74.3335 128.639L68.2796 118.088H62.2257L71.3091 133.914Z" fill="white"/>
<path d="M59.1988 123.361H65.2527L59.2013 133.912L56.1719 128.638L59.1988 123.361Z" fill="white"/>
<path d="M65.8359 99.5V77.5H158.836" stroke="#D7DBDF" stroke-dasharray="2 2"/>
<rect x="273.247" y="34.3802" width="69.7879" height="94.2396" fill="white" stroke="#E6E8EB" strokeWidth="0.760417"/>
<path d="M288.048 122V115.071H290.107C290.576 115.071 290.981 115.16 291.322 115.337C291.67 115.514 291.939 115.764 292.129 116.087C292.319 116.409 292.414 116.792 292.414 117.235V119.826C292.414 120.263 292.319 120.646 292.129 120.975C291.939 121.298 291.67 121.551 291.322 121.734C290.981 121.911 290.576 122 290.107 122H288.048ZM289.234 120.908H290.107C290.449 120.908 290.721 120.814 290.924 120.624C291.126 120.428 291.227 120.162 291.227 119.826V117.235C291.227 116.906 291.126 116.647 290.924 116.457C290.721 116.261 290.449 116.163 290.107 116.163H289.234V120.908ZM297.773 122.095C297.33 122.095 296.944 122.013 296.615 121.848C296.292 121.677 296.042 121.44 295.865 121.136C295.694 120.826 295.609 120.462 295.609 120.045V117.026C295.609 116.609 295.694 116.248 295.865 115.944C296.042 115.634 296.292 115.397 296.615 115.233C296.944 115.062 297.33 114.976 297.773 114.976C298.222 114.976 298.608 115.062 298.931 115.233C299.254 115.397 299.5 115.634 299.671 115.944C299.848 116.248 299.937 116.606 299.937 117.017V120.045C299.937 120.462 299.848 120.826 299.671 121.136C299.5 121.44 299.254 121.677 298.931 121.848C298.608 122.013 298.222 122.095 297.773 122.095ZM297.773 121.051C298.096 121.051 298.339 120.965 298.504 120.795C298.668 120.617 298.751 120.367 298.751 120.045V117.026C298.751 116.697 298.668 116.447 298.504 116.277C298.339 116.106 298.096 116.02 297.773 116.02C297.45 116.02 297.207 116.106 297.042 116.277C296.878 116.447 296.795 116.697 296.795 117.026V120.045C296.795 120.367 296.878 120.617 297.042 120.795C297.213 120.965 297.457 121.051 297.773 121.051ZM305.4 122.095C304.957 122.095 304.568 122.013 304.233 121.848C303.904 121.677 303.648 121.44 303.464 121.136C303.287 120.826 303.198 120.462 303.198 120.045V117.026C303.198 116.602 303.287 116.239 303.464 115.935C303.648 115.631 303.904 115.397 304.233 115.233C304.568 115.062 304.957 114.976 305.4 114.976C305.85 114.976 306.236 115.062 306.558 115.233C306.887 115.397 307.144 115.631 307.327 115.935C307.511 116.239 307.602 116.602 307.602 117.026H306.406C306.406 116.697 306.318 116.447 306.141 116.277C305.97 116.106 305.723 116.02 305.4 116.02C305.078 116.02 304.828 116.106 304.651 116.277C304.473 116.447 304.385 116.694 304.385 117.017V120.045C304.385 120.367 304.473 120.617 304.651 120.795C304.828 120.965 305.078 121.051 305.4 121.051C305.723 121.051 305.97 120.965 306.141 120.795C306.318 120.617 306.406 120.367 306.406 120.045H307.602C307.602 120.456 307.511 120.817 307.327 121.127C307.144 121.437 306.887 121.677 306.558 121.848C306.236 122.013 305.85 122.095 305.4 122.095ZM312.971 122.095C312.496 122.095 312.085 122.016 311.737 121.858C311.389 121.699 311.12 121.475 310.93 121.184C310.747 120.886 310.652 120.538 310.645 120.14H311.832C311.832 120.424 311.933 120.649 312.136 120.814C312.344 120.972 312.626 121.051 312.98 121.051C313.322 121.051 313.588 120.972 313.778 120.814C313.974 120.655 314.072 120.437 314.072 120.159C314.072 119.925 314.002 119.722 313.863 119.551C313.73 119.374 313.537 119.254 313.284 119.191L312.487 118.972C311.943 118.833 311.522 118.583 311.224 118.222C310.933 117.862 310.788 117.425 310.788 116.913C310.788 116.52 310.876 116.179 311.054 115.887C311.231 115.596 311.481 115.372 311.803 115.214C312.132 115.055 312.518 114.976 312.961 114.976C313.632 114.976 314.164 115.15 314.556 115.498C314.948 115.84 315.148 116.302 315.154 116.884H313.968C313.968 116.612 313.879 116.4 313.702 116.248C313.525 116.09 313.275 116.011 312.952 116.011C312.642 116.011 312.401 116.084 312.231 116.229C312.06 116.375 311.974 116.58 311.974 116.846C311.974 117.087 312.038 117.292 312.164 117.463C312.297 117.628 312.487 117.745 312.734 117.814L313.559 118.042C314.11 118.181 314.531 118.431 314.822 118.792C315.113 119.146 315.258 119.586 315.258 120.111C315.258 120.504 315.163 120.852 314.974 121.155C314.784 121.453 314.518 121.684 314.176 121.848C313.835 122.013 313.433 122.095 312.971 122.095Z" fill="#374151"/>
<rect x="277.654" y="38.9427" width="60.2345" height="69.1979" fill="#FF414C" stroke="#E5E5E5" strokeWidth="0.760417"/>
<path d="M324.638 61.0688C324.449 60.9081 324.228 60.7896 323.99 60.7212C323.742 60.6346 323.486 60.5706 323.226 60.53C322.695 60.4418 322.16 60.3909 321.622 60.3779C320.54 60.3523 319.456 60.4032 318.381 60.53C318.207 60.5604 318.12 59.4133 318.311 59.422C319.44 59.4139 320.569 59.4865 321.687 59.6393C322.251 59.7145 322.809 59.8307 323.356 59.9869C323.636 60.0649 323.909 60.1651 324.173 60.2867C324.453 60.4087 324.704 60.5878 324.911 60.8124C325.098 61.0471 324.781 61.2078 324.638 61.0688Z" fill="#11181C"/>
<path d="M290.614 78.0437L290.37 71.9606L290.262 69.7403C290.179 67.1332 290.123 64.5261 290.075 61.9191C290.075 60.7633 290.01 59.5988 289.971 58.443C289.856 56.9675 289.865 55.485 289.997 54.011C290.053 53.5504 290.188 53.6113 290.384 54.011C290.507 54.2711 290.616 54.538 290.709 54.8105C290.819 55.1822 290.881 55.5661 290.896 55.9533C291.018 58.9557 291.079 61.9582 291.074 64.9954C291.074 66.8073 291.2 68.6931 291.274 70.5484L291.531 76.6663L291.735 80.4248C291.839 82.3236 291.935 84.2355 292.074 86.1169C292.187 87.5812 292.356 89.0151 292.508 90.462C292.547 90.7792 292.582 91.0877 292.617 91.4092C292.695 92.5998 292.652 92.9822 292.426 93.2559C292.378 93.3211 292.339 93.4036 292.3 93.4427C292.187 93.5905 291.896 93.0995 291.761 92.2348C291.326 89.6582 291.148 86.9251 290.953 84.1833C290.814 82.1455 290.709 80.0946 290.601 78.0524L290.614 78.0437Z" fill="#11181C"/>
<path d="M323.378 81.9601C323.813 76.633 324.247 71.3059 324.603 65.9832C324.664 65.0142 324.712 64.0409 324.742 63.0763C324.742 62.594 324.773 62.1073 324.773 61.6337C324.773 61.3947 324.773 61.1601 324.773 60.9298C324.773 60.8168 324.773 60.6952 324.773 60.6126C324.78 60.5827 324.78 60.5514 324.773 60.5214L324.729 60.4823L324.638 60.4301C324.525 60.3716 324.407 60.3221 324.286 60.2824C324.016 60.191 323.738 60.1213 323.456 60.0738C322.846 59.9799 322.231 59.9233 321.614 59.9044C321.001 59.874 320.384 59.8653 319.763 59.874L318.833 59.9C318.373 59.9 317.79 59.9609 317.282 59.9956L317.391 59.1787L317.434 58.7747L317.469 58.4314L317.543 57.4755C317.586 56.8411 317.617 56.2024 317.638 55.5636C317.66 54.9249 317.677 54.2818 317.677 53.6474V53.1738V52.7654C317.682 52.6988 317.682 52.6321 317.677 52.5655C317.677 52.4743 317.582 52.5047 317.521 52.5003H317.382H317.069L316.361 52.5177L315.031 52.5959L312.363 52.7567C309.322 52.9218 306.241 53.0609 303.204 53.0522C301.24 53.0678 299.277 52.9706 297.325 52.761C296.337 52.6486 295.359 52.4671 294.396 52.2179C293.381 51.9867 292.433 51.5259 291.624 50.8709C291.515 50.7718 291.413 50.6643 291.32 50.5494C291.265 50.4616 291.215 50.3702 291.172 50.2757C291.107 50.1236 291.111 50.0454 291.172 50.028C291.233 50.0106 291.333 50.028 291.472 50.1192L291.698 50.2539L292.011 50.3973C292.616 50.6736 293.252 50.8778 293.905 51.0056C294.727 51.1707 295.704 51.3185 296.777 51.4749C298.481 51.7035 300.195 51.8355 301.913 51.8703C303.651 51.9181 305.389 51.9094 307.127 51.8703C308.865 51.8312 310.604 51.7573 312.342 51.6704L314.949 51.527L316.252 51.4532L316.913 51.4228H317.273H317.869C318.058 51.4231 318.242 51.4891 318.388 51.6095C318.535 51.7298 318.635 51.8972 318.672 52.0832C318.705 52.2919 318.727 52.5022 318.738 52.7132V53.0869C318.738 53.5779 318.738 54.0602 318.738 54.5425C318.738 55.3551 318.677 56.1633 318.629 56.9845C318.603 57.3929 318.572 57.8057 318.546 58.2185L318.507 58.653L318.481 58.8442L319.081 58.8181C319.515 58.8181 319.902 58.792 320.319 58.792C321.153 58.7816 321.987 58.8164 322.818 58.8963C323.246 58.9371 323.671 59.0053 324.091 59.1005C324.312 59.1482 324.53 59.2121 324.742 59.2917C324.999 59.3782 325.24 59.5059 325.455 59.6697C325.523 59.7211 325.589 59.7762 325.651 59.8349L325.742 59.9218C325.777 59.9478 325.768 60 325.781 60.0391C325.822 60.1987 325.85 60.3615 325.863 60.5257C325.863 60.7517 325.89 60.9602 325.894 61.1731C325.894 61.6077 325.894 62.0074 325.894 62.4202C325.803 65.1315 325.598 67.8124 325.407 70.5021L324.755 78.5579C324.495 81.8645 324.23 85.1668 324.008 88.469C323.926 89.7161 323.843 90.9675 323.778 92.2188C323.747 92.8445 323.717 93.4702 323.7 94.0916V94.5608V95.369C323.7 95.3951 323.661 95.4081 323.643 95.4255L323.374 95.6341C323.289 95.6999 323.197 95.7566 323.1 95.8035C323.022 95.8427 322.944 95.8904 322.865 95.9209C321.597 96.4379 320.315 96.4857 319.05 96.5509C317.786 96.6161 316.526 96.5509 315.279 96.4944C313.332 96.3901 311.42 96.225 309.513 96.0599L306.663 95.7731C306.193 95.7253 305.707 95.6732 305.263 95.6558C304.82 95.6384 304.329 95.6558 303.869 95.6906C303.039 95.734 302.235 95.8166 301.414 95.9296C299.893 96.1512 298.915 96.4162 298.211 96.5683C297.729 96.7017 297.23 96.7647 296.73 96.7551C296.565 96.7578 296.401 96.7476 296.239 96.7247C296.056 96.6726 296.239 96.4857 296.76 96.2033C297.56 95.7989 298.402 95.4841 299.272 95.2648C300.992 94.8245 302.758 94.5839 304.533 94.5478C304.759 94.5478 304.968 94.5478 305.216 94.5478C305.463 94.5478 305.694 94.5739 305.924 94.5913L307.253 94.7216L309.9 94.9954C311.664 95.1735 313.441 95.3343 315.218 95.4299C316.979 95.5511 318.747 95.5351 320.506 95.3821C321.11 95.3265 321.705 95.1982 322.279 94.9997L322.466 94.9258L322.544 94.8824L322.596 94.852V94.6651V94.1481C322.631 92.7837 322.709 91.4324 322.792 90.0811C322.961 87.3828 323.161 84.6888 323.365 81.9992L323.378 81.9601Z" fill="#11181C"/>
<path d="M325.837 60.0615C324.26 57.0199 321.444 53.9002 318.741 51.8058C318.507 51.6233 317.538 52.0796 317.668 52.1795C320.549 54.392 322.945 57.1723 324.707 60.3483C324.838 60.6046 325.915 60.1919 325.837 60.0441V60.0615Z" fill="#11181C"/>
<path d="M298.867 95.9197C302.589 95.0577 306.449 94.9778 310.203 95.685C316.569 96.8495 323.338 95.2114 323.338 95.2114C323.338 95.2114 321.744 99.0003 310.816 97.032C304.529 95.9023 299.571 97.6664 298.454 97.6664C297.82 97.6664 298.867 95.9197 298.867 95.9197Z" fill="#11181C"/>
<path d="M312 136L312 155L253 155" stroke="#D7DBDF" stroke-dasharray="2 2"/>
</svg>
