<svg width="384" height="210" viewBox="0 0 384 210" fill="none" xmlns="http://www.w3.org/2000/svg">
<rect width="383.667" height="210" rx="4" fill="#1C1C1C"/>
<rect x="0.5" y="0.5" width="382.667" height="209" rx="3.5" stroke="black" stroke-opacity="0.1"/>
<path d="M196.392 104.619L191.353 105.475L189.519 105.838L183.009 106.997L180.136 107.572C178.91 107.883 177.659 108.085 176.397 108.176C175.974 108.176 176.055 107.944 176.397 107.672C176.839 107.316 177.362 107.073 177.919 106.967C180.388 106.453 182.888 105.959 185.427 105.566C186.939 105.334 188.451 104.961 190.043 104.669L195.082 103.742L198.227 103.198L203.004 102.442C204.233 102.26 205.422 101.988 206.662 101.837L207.468 101.716C208.476 101.635 208.829 101.716 209.051 102.018C209.107 102.084 209.158 102.155 209.202 102.23C209.292 102.472 208.889 102.694 208.194 102.784L201.512 103.792L196.473 104.629L196.392 104.619Z" fill="#EDEDED"/>
<path d="M152.459 123.241C154.414 124.236 156.379 125.213 158.354 126.174L160.541 127.182L168.191 130.861C169.319 131.405 170.478 131.929 171.607 132.443C173.108 133.052 174.543 133.811 175.89 134.71C176.314 135.003 176.132 135.134 175.659 135.113C175.353 135.093 175.049 135.046 174.751 134.972C174.341 134.898 173.942 134.773 173.562 134.6C170.619 133.259 167.586 132.04 164.653 130.568C162.89 129.691 160.985 128.915 159.151 128.089C157.135 127.162 155.119 126.218 153.104 125.257L149.435 123.413C147.581 122.506 145.737 121.528 143.902 120.601C142.491 119.855 141.05 119.21 139.649 118.454C139.33 118.31 139.02 118.145 138.722 117.961C137.614 117.245 137.341 116.902 137.331 116.429C137.317 116.322 137.317 116.213 137.331 116.106C137.331 115.814 137.986 115.864 138.843 116.257C141.373 117.436 143.882 118.868 146.573 120.198C148.528 121.206 150.493 122.213 152.479 123.221L152.459 123.241Z" fill="#EDEDED"/>
<path d="M175.648 116.913L175.356 119.937C175.356 120.31 175.356 120.682 175.295 121.065L174.932 125.016C174.932 125.601 174.872 126.185 174.862 126.77C174.885 127.517 174.848 128.265 174.751 129.007C174.68 129.471 173.743 128.876 173.693 127.999C173.632 126.464 173.703 124.927 173.904 123.403C174.035 122.486 174.005 121.529 174.056 120.582L174.257 117.478L174.398 115.623C174.459 114.615 174.549 113.688 174.569 112.731C174.569 111.985 174.569 111.249 174.569 110.514C174.569 110.352 174.569 110.191 174.569 110.02C174.567 109.8 174.605 109.581 174.68 109.375C174.714 109.31 174.762 109.255 174.821 109.213C174.846 109.164 174.881 109.121 174.925 109.088C174.968 109.055 175.019 109.032 175.073 109.022C175.106 109.015 175.14 109.018 175.17 109.03C175.201 109.043 175.227 109.065 175.245 109.093C175.184 108.972 175.245 109.183 175.245 109.093C175.266 109.16 175.296 109.225 175.335 109.284C175.36 109.321 175.397 109.348 175.439 109.361C175.481 109.373 175.526 109.371 175.567 109.355C175.648 109.264 175.668 109.355 175.698 109.445C175.732 109.54 175.756 109.638 175.769 109.738C175.929 111.099 175.973 112.471 175.9 113.839C175.9 114.847 175.799 115.905 175.728 116.943L175.648 116.913Z" fill="#EDEDED"/>
<path d="M155.921 110.504C155.921 111.451 155.9 112.399 155.86 113.346V114.354L155.8 118.032C155.8 118.577 155.8 119.121 155.8 119.665C155.874 120.374 155.844 121.091 155.709 121.792C155.658 122.013 155.407 121.943 155.185 121.731C155.05 121.619 154.939 121.481 154.86 121.325C154.78 121.169 154.733 120.999 154.721 120.824C154.721 119.453 154.631 118.042 154.721 116.611C154.782 115.765 154.721 114.878 154.671 114.001C154.62 113.124 154.671 112.076 154.671 111.119V109.345L154.762 106.654C154.762 105.959 154.762 105.274 154.762 104.578C154.752 104.427 154.752 104.276 154.762 104.125C154.822 103.56 154.923 103.389 155.205 103.308L155.396 103.248C155.608 103.248 155.759 103.47 155.8 103.883C155.901 105.126 155.931 106.375 155.89 107.622L155.84 110.474L155.921 110.504Z" fill="#EDEDED"/>
<path d="M182.224 77.4191C182.919 77.2066 183.626 77.0316 184.34 76.8951C184.602 76.8346 184.844 76.7338 185.106 76.6935C186.023 76.5423 186.96 76.4718 187.878 76.3609C188.291 76.3105 188.694 76.2299 189.097 76.1694C189.62 76.0871 190.15 76.05 190.679 76.0586C190.82 76.0586 190.851 76.0586 190.679 76.0586C190.538 76.0586 190.347 76.3307 190.085 76.4919C189.191 77.1015 188.189 77.5327 187.132 77.7618C186.507 77.8727 185.902 78.1548 185.267 78.3161C184.632 78.4773 183.887 78.6587 183.191 78.82C182.768 78.9208 182.335 79.0216 181.932 79.1425C181.677 79.1952 181.435 79.2942 181.216 79.4348C181.035 79.6285 180.921 79.8762 180.893 80.1402C180.813 80.6038 180.893 81.148 180.823 81.6217V81.9644C180.798 82.19 180.741 82.4107 180.652 82.6194C180.652 82.6194 180.652 82.6698 180.652 82.6799C180.641 82.53 180.603 82.3832 180.541 82.2466C180.299 81.3496 179.533 80.5333 179.966 79.0417C180.076 78.7419 180.256 78.4724 180.49 78.2556C180.689 78.0755 180.913 77.9261 181.155 77.8122C181.506 77.6408 181.866 77.4894 182.234 77.3587L182.224 77.4191Z" fill="#EDEDED"/>
<path d="M172.835 90.7323H172.755H172.462L171.757 90.6819C171.572 90.6926 171.387 90.6926 171.203 90.6819C170.527 90.6819 169.802 90.4904 169.086 90.44C168.764 90.44 168.451 90.44 168.139 90.44C167.701 90.4607 167.264 90.3991 166.849 90.2586C166.728 90.1982 166.748 90.2586 166.849 90.1982C166.95 90.1377 167.101 89.8857 167.282 89.7144C167.549 89.3799 167.88 89.1023 168.255 88.898C168.631 88.6937 169.044 88.567 169.469 88.5252C169.965 88.4456 170.457 88.3379 170.941 88.2027C171.549 88.1229 172.166 88.1229 172.775 88.2027C173.324 88.257 173.836 88.5075 174.216 88.9082C174.601 89.4332 174.818 90.0618 174.841 90.7121C174.922 91.0996 174.949 91.4964 174.922 91.8913C174.922 91.982 174.922 92.0626 174.922 92.1533C174.922 92.4657 174.791 92.6068 174.801 92.6774C174.713 92.5793 174.615 92.4914 174.508 92.4153C174.236 92.1231 173.914 91.8006 173.611 91.5083C173.309 91.2161 173.077 90.9439 172.906 90.7625C172.853 90.7046 172.788 90.6597 172.714 90.6315H172.654C172.654 90.6315 172.654 90.6315 172.704 90.6315C172.768 90.5857 172.826 90.5315 172.876 90.4703C172.9 90.4433 172.921 90.4127 172.936 90.3796C172.936 90.4501 173.138 89.7648 173.047 90.0571V90.1175L172.976 90.3191C172.939 90.4614 172.912 90.6062 172.896 90.7525L172.835 90.7323Z" fill="#EDEDED"/>
<path d="M141.722 145.516C144.685 147.38 147.658 149.235 150.661 151.049C151.749 151.714 152.888 152.309 153.977 152.974L165.516 160.029C167.229 161.036 168.983 162.044 170.716 163.052C172.944 164.292 175.161 165.582 177.267 167.083C177.922 167.547 177.68 167.748 176.925 167.708C175.76 167.598 174.624 167.284 173.569 166.781C171.19 165.682 168.912 164.433 166.635 163.153C164.357 161.873 162.1 160.563 159.862 159.121C157.192 157.469 154.299 155.947 151.518 154.324C148.467 152.537 145.444 150.726 142.447 148.892C140.583 147.763 138.728 146.625 136.874 145.456C136.179 145.022 135.483 144.569 134.788 144.105C134.435 143.883 134.093 143.641 133.78 143.4C133.589 143.248 133.296 143.077 133.095 142.896L132.923 142.755C132.899 142.685 132.878 142.615 132.863 142.543C132.817 142.404 132.78 142.263 132.752 142.12C132.663 141.653 132.599 141.182 132.561 140.709L132.46 139.459L132.278 136.99C132.087 134.45 131.785 131.951 131.644 129.451C131.644 128.897 131.563 128.353 131.543 127.789C131.489 127.048 131.547 126.304 131.714 125.581C131.827 125.197 132.039 124.85 132.329 124.574C132.419 124.466 132.52 124.368 132.631 124.281C132.792 124.181 132.934 124.342 133.125 124.715C133.402 125.244 133.586 125.816 133.669 126.408C134.012 128.635 134.294 130.923 134.516 133.241C134.738 135.559 134.858 137.927 135.08 140.225L135.191 141.233C135.846 141.706 136.622 142.17 137.338 142.644L141.812 145.425L141.722 145.516Z" fill="#EDEDED"/>
<path d="M178.048 153.607V157.114C178.048 157.547 178.108 157.97 178.108 158.394L178.048 162.929C178.048 163.604 178.048 164.269 178.128 164.944C178.269 165.812 178.269 166.697 178.128 167.565C178.068 167.847 177.665 167.766 177.272 167.565C177.06 167.455 176.875 167.301 176.729 167.113C176.583 166.925 176.479 166.708 176.425 166.476C176.219 164.758 176.155 163.025 176.234 161.296C176.255 160.223 176.211 159.149 176.102 158.081L176.012 154.534V152.347C176.012 151.248 176.012 150.13 176.012 149.041C176.012 148.184 175.83 147.348 175.82 146.481C175.82 146.29 175.82 146.108 175.82 145.917C175.82 145.201 176.032 144.909 176.475 144.909C176.574 144.879 176.675 144.859 176.778 144.849C177.12 144.849 177.382 145.141 177.473 145.615C177.634 146.33 177.806 147.076 177.906 147.842C178.007 148.608 178.058 149.384 178.118 150.16L178.219 151.913V153.677L178.048 153.607Z" fill="#EDEDED"/>
<path d="M241.229 153.748L226.112 157.527C224.278 157.98 222.464 158.535 220.63 158.938L201.159 163.473L192.542 165.559C188.902 166.555 185.198 167.299 181.456 167.787C180.236 167.857 180.448 167.494 181.305 166.95C182.756 166.083 184.334 165.447 185.981 165.065C193.409 163.191 200.866 161.367 208.435 159.694C212.96 158.686 217.596 157.366 222.192 156.177L237.309 152.306C240.423 151.5 243.527 150.694 246.611 149.837L248.475 149.303L248.999 149.152C249.06 149.152 249.221 149.152 249.191 149.021V148.759C249.191 145.282 249.191 141.805 249.191 138.358C249.191 134.599 249.04 130.921 249.07 127.192C249.07 126.365 249.07 125.559 249.07 124.733C249.231 121.709 249.544 120.701 250.249 120.087C250.392 119.941 250.555 119.815 250.733 119.714C251.257 119.492 251.489 120.722 251.509 122.949C251.6 129.52 251.62 136.494 251.62 143.498C251.62 145.514 251.62 147.56 251.62 149.636L251.448 150.15L251.358 150.402V150.523V150.593C251.539 150.724 251.106 150.412 251.146 150.452L250.874 150.875C250.803 151.037 250.572 151.097 250.431 151.208C250.06 151.364 249.68 151.496 249.292 151.601L248.667 151.782L246.208 152.458L241.3 153.778L241.229 153.748Z" fill="#EDEDED"/>
<path d="M221.156 125.097L209.798 127.546L205.646 128.553L191.073 131.768C188.926 132.252 186.76 132.776 184.643 133.33C181.902 133.985 179.171 134.731 176.389 135.195C175.532 135.356 175.603 135.195 176.268 134.852C176.591 134.651 177.074 134.379 177.659 134.086C178.3 133.729 178.975 133.439 179.675 133.22L183.807 131.94C185.187 131.526 186.588 131.164 187.979 130.801C190.774 130.055 193.589 129.383 196.424 128.785C199.831 128.07 203.308 127.102 206.765 126.276L218.173 123.615L225.228 121.993C228.775 121.176 232.353 120.39 235.86 119.533C238.591 118.878 241.242 118.112 243.923 117.417C244.517 117.256 245.092 117.084 245.696 116.943C246.489 116.736 247.307 116.645 248.125 116.671C248.538 116.671 248.943 116.786 249.294 117.004C249.43 117.079 249.558 117.167 249.677 117.266C249.959 117.548 249.123 118.092 247.551 118.727C242.814 120.239 237.735 121.428 232.615 122.587L221.176 125.147L221.156 125.097Z" fill="#EDEDED"/>
<path d="M149.79 122.75C151.806 123.792 153.858 124.8 155.948 125.774L158.225 126.782L166.217 130.601C167.407 131.166 168.606 131.7 169.795 132.234C171.373 132.856 172.877 133.65 174.28 134.602C174.713 134.915 174.502 135.076 173.988 135.086C173.65 135.083 173.313 135.052 172.98 134.995C172.545 134.939 172.121 134.82 171.72 134.643C168.697 133.272 165.472 132.032 162.408 130.46C160.574 129.533 158.568 128.767 156.653 127.9C154.547 126.953 152.441 125.975 150.354 124.978L146.494 123.113C144.559 122.166 142.635 121.098 140.72 120.17C139.238 119.394 137.696 118.739 136.265 117.923C135.943 117.752 135.61 117.59 135.257 117.389C134.119 116.593 133.856 116.19 133.907 115.655C133.896 115.535 133.896 115.413 133.907 115.293C134.008 114.95 134.663 115 135.529 115.424C138.13 116.673 140.78 118.155 143.531 119.546C145.547 120.553 147.623 121.652 149.689 122.67L149.79 122.75Z" fill="#EDEDED"/>
<path d="M236.784 107.542C236.784 108.549 236.784 109.618 236.784 110.666C236.784 111.039 236.865 111.412 236.875 111.795C236.875 113.145 236.875 114.486 236.875 115.826C236.881 116.422 236.918 117.017 236.985 117.61C237.111 118.371 237.111 119.147 236.985 119.908C236.985 120.149 236.623 120.129 236.27 119.908C235.866 119.717 235.552 119.378 235.393 118.96C235.184 118.217 235.059 117.453 235.02 116.683C234.955 115.908 234.955 115.129 235.02 114.354C235.026 113.4 234.962 112.447 234.829 111.502L234.627 108.398L234.557 106.453C234.557 105.445 234.557 104.488 234.446 103.51C234.385 102.755 234.194 102.019 234.103 101.263C234.093 101.099 234.093 100.934 234.103 100.769C234.091 100.635 234.091 100.5 234.103 100.366C234.149 100.27 234.211 100.181 234.285 100.104C234.412 99.9641 234.576 99.8628 234.758 99.8118L235.01 99.7211C235.272 99.6606 235.564 99.9125 235.877 100.346C235.998 100.678 236.129 101.001 236.24 101.354C236.351 101.706 236.361 102.019 236.421 102.362C236.522 103.037 236.582 103.732 236.643 104.377C236.723 105.385 236.784 106.453 236.824 107.491L236.784 107.542Z" fill="#EDEDED"/>
<path d="M203.184 105.225C199.153 105.931 195.122 106.626 191.09 107.372L186.716 108.279C184.157 108.793 181.567 109.287 179.077 109.942L178.14 110.174L177.344 110.436L177.152 110.496H177.052C177.052 110.496 177.052 110.557 177.052 110.587V110.789V111.141L176.85 115.072C176.739 117.4 176.679 119.748 176.638 122.056C176.638 125.079 176.638 128.022 176.366 130.985C176.235 132.829 174.663 130.471 174.633 127.024C174.633 124.001 174.633 120.978 174.744 117.904C174.744 116.382 174.855 114.88 174.935 113.338L175.076 111.04V110.708C175.09 110.544 175.131 110.384 175.197 110.234C175.27 109.945 175.375 109.664 175.51 109.398L175.409 109.277L175.489 109.206L175.661 109.065C175.773 108.955 175.912 108.875 176.064 108.833L176.9 108.551C178.755 108.007 180.569 107.543 182.413 107.14C184.257 106.737 186.102 106.263 187.936 105.891C191.967 105.054 195.998 104.298 200.09 103.542L207.568 102.172C211.347 101.466 215.147 100.791 218.866 99.9949C221.758 99.3801 224.57 98.6343 227.392 97.9188L229.246 97.4149C231.574 96.8505 232.27 96.7396 232.965 97.1428C233.12 97.2115 233.265 97.2996 233.398 97.4048C233.741 97.7374 232.894 98.3421 231.191 98.9467C225.991 100.613 220.693 101.959 215.328 102.978C211.297 103.794 207.266 104.56 203.164 105.326L203.184 105.225Z" fill="#EDEDED"/>
<path d="M184.416 90.0444L194.776 88.3311C196.036 88.1296 197.285 87.8675 198.545 87.676C200.782 87.3435 203.02 87.0411 205.277 86.7892C206.406 86.6884 207.535 86.5775 208.704 86.5574H209.591H210.155C210.366 86.5821 210.575 86.6226 210.78 86.6783C211.314 86.6279 211.334 87.1822 211.495 87.5551C211.556 87.7466 211.667 87.9784 211.697 88.1296L211.798 88.5629C212.199 90.5525 212.379 92.5806 212.332 94.6098C212.332 97.1797 212.211 99.7093 212.201 102.209C212.201 102.995 211.899 102.924 211.536 102.279C211.02 101.25 210.728 100.124 210.679 98.9736C210.588 96.3432 210.568 93.7733 210.336 91.3142C210.276 90.7096 210.175 90.1049 210.064 89.5203C210.004 89.2281 209.923 88.9358 209.853 88.6536C209.853 88.5831 209.853 88.573 209.853 88.5226H208.845C208.23 88.5226 207.595 88.5831 206.95 88.6335C203.927 88.8653 200.692 89.5304 197.547 90.0746L187.167 91.9391L180.767 93.0981C177.542 93.6927 174.287 94.247 171.092 94.8617C168.593 95.3354 166.184 95.9502 163.705 96.4037C163.161 96.5146 162.627 96.6254 162.072 96.706C161.346 96.8516 160.604 96.9024 159.865 96.8572C159.483 96.8128 159.127 96.6385 158.857 96.3634C158.732 96.2648 158.62 96.1495 158.525 96.0207C158.293 95.6478 159.069 95.1439 160.54 94.7811C164.854 93.7128 169.46 92.8159 174.106 91.9391C177.421 91.2639 180.929 90.5886 184.395 89.9839L184.416 90.0444Z" fill="#EDEDED"/>
<path d="M157.266 109.747L157.165 113.103C157.165 113.516 157.165 113.919 157.165 114.332L156.984 118.656C156.984 119.301 156.984 119.946 156.984 120.581C157.077 121.416 157.029 122.261 156.843 123.08C156.772 123.352 156.409 123.252 156.057 123C155.867 122.883 155.706 122.726 155.586 122.54C155.466 122.353 155.389 122.142 155.361 121.921C155.296 120.275 155.327 118.626 155.452 116.983C155.506 115.976 155.506 114.967 155.452 113.96V110.573V108.487C155.452 107.479 155.452 106.371 155.452 105.323C155.452 104.506 155.311 103.71 155.321 102.894C155.321 102.712 155.321 102.531 155.321 102.35C155.371 101.674 155.512 101.463 155.926 101.342C156.026 101.342 156.117 101.342 156.218 101.281C156.53 101.281 156.772 101.543 156.863 102.007C157 102.724 157.101 103.447 157.165 104.174C157.165 104.909 157.236 105.655 157.246 106.401C157.246 107.52 157.246 108.648 157.246 109.767L157.266 109.747Z" fill="#EDEDED"/>
<path d="M149.088 101.595L148.967 106.11C148.967 106.655 148.967 107.199 148.967 107.753L148.755 113.558C148.755 114.415 148.755 115.281 148.755 116.138C148.877 117.253 148.843 118.379 148.654 119.484C148.564 119.837 148.15 119.716 147.757 119.393C147.534 119.223 147.348 119.007 147.213 118.761C147.078 118.514 146.995 118.242 146.971 117.962C146.886 115.738 146.916 113.511 147.062 111.29C147.183 109.94 147.062 108.549 147.062 107.169V102.623V99.8216C147.062 98.4107 147.062 96.9896 147.062 95.5888C147.062 94.4903 146.901 93.422 146.891 92.3335C146.891 92.0917 146.891 91.8498 146.891 91.6079C146.891 90.711 147.112 90.4086 147.576 90.2675C147.68 90.2234 147.788 90.1896 147.898 90.1667C148.251 90.1667 148.523 90.5094 148.614 91.1746C148.755 92.1219 148.926 93.0894 148.977 94.0871C149.027 95.0849 149.067 96.1028 149.088 97.1106C149.088 98.6122 149.088 100.134 149.088 101.646V101.595Z" fill="#EDEDED"/>
<path d="M176.571 83.6664L169.727 84.8053L167.248 85.2991L158.44 86.8209C157.14 87.0527 155.84 87.3349 154.56 87.6271C152.928 88.0588 151.272 88.3953 149.601 88.6349C148.594 88.7559 149.601 87.1635 151.466 86.6999C154.802 85.8937 158.168 85.1681 161.594 84.6339C163.61 84.3316 165.747 83.7975 167.833 83.3943L174.716 82.1043L178.959 81.3384C181.106 80.9554 183.262 80.6128 185.379 80.1895C187.032 79.867 188.624 79.4336 190.257 79.0708C190.609 78.9902 190.962 78.8894 191.325 78.8189C192.665 78.5669 193.119 78.6374 193.492 79.1414C193.586 79.2516 193.67 79.3696 193.744 79.4941C193.935 79.9073 193.441 80.3407 192.484 80.6228C189.517 81.4196 186.509 82.0555 183.474 82.5276L176.581 83.7168L176.571 83.6664Z" fill="#EDEDED"/>
<path d="M182.202 76.279L184.812 75.8758C185.135 75.8255 185.437 75.7348 185.76 75.6944L189.106 75.3115C189.61 75.251 190.114 75.1502 190.587 75.0797C191.227 74.9299 191.887 74.8789 192.542 74.9285C192.764 74.9285 192.714 75.2107 192.542 75.4727C192.383 75.7734 192.117 76.0035 191.797 76.1177C190.565 76.4588 189.302 76.6715 188.027 76.7526C187.245 76.8493 186.47 77.0008 185.709 77.2062L183.16 77.7302C182.636 77.8411 182.152 77.962 181.618 78.1031L180.902 78.3148C180.817 78.3377 180.736 78.3716 180.66 78.4155C180.58 78.476 180.66 78.5768 180.6 78.6574V79.1008C180.639 79.7237 180.72 80.3432 180.842 80.9552C180.874 81.0811 180.898 81.2091 180.912 81.3382C180.912 81.5801 180.912 81.7212 180.791 81.832C180.627 81.9393 180.451 82.0272 180.267 82.094L180.005 82.2251C179.934 82.2639 179.854 82.2842 179.773 82.2842C179.692 82.2842 179.613 82.2639 179.542 82.2251C179.36 82.1344 179.108 81.9731 179.068 81.7514C178.867 81.2272 178.764 80.6702 178.766 80.1087C178.766 79.8466 178.766 79.5745 178.766 79.3024V78.9094V78.6171C178.755 78.4829 178.755 78.3481 178.766 78.214C178.778 78.0373 178.819 77.8638 178.887 77.7C179.098 77.5992 179.028 77.317 179.229 77.2263C179.391 77.0959 179.566 76.9843 179.753 76.8937C179.965 76.8232 180.166 76.7325 180.378 76.6821L180.761 76.5712C181.215 76.4503 181.658 76.3596 182.101 76.2689L182.202 76.279Z" fill="#EDEDED"/>
<path d="M173.916 89.2479C173.06 89.3184 172.183 89.4293 171.306 89.5502C170.984 89.5502 170.671 89.6913 170.298 89.7417C169.169 89.8929 168.031 90.0541 166.902 90.2557C166.398 90.3464 165.894 90.4774 165.42 90.5883C164.79 90.7773 164.141 90.8956 163.485 90.941C163.274 90.941 163.264 90.689 163.375 90.4069C163.436 90.2415 163.53 90.0901 163.651 89.962C163.772 89.8338 163.918 89.7315 164.08 89.6611C165.324 89.2011 166.621 88.8964 167.94 88.754C168.746 88.6633 169.532 88.3912 170.339 88.2199C171.145 88.0486 172.112 87.8772 173.009 87.7361L173.846 87.6152C174.213 87.559 174.583 87.5287 174.954 87.5245C175.196 87.4971 175.439 87.5579 175.64 87.6958C175.861 87.8067 175.871 88.0788 175.952 88.3106C176.083 89.0665 176.154 89.4192 176.254 89.9029C176.406 90.5379 176.647 91.1325 176.849 91.7674C176.908 91.9032 176.952 92.0452 176.98 92.1907C177.033 92.395 177.004 92.6121 176.899 92.7954C176.75 92.9468 176.561 93.0547 176.355 93.1078C176.264 93.1414 176.169 93.1617 176.073 93.1683C175.919 93.1724 175.767 93.1378 175.63 93.0675C175.468 92.9969 175.226 92.8961 175.166 92.7248C174.731 91.6619 174.472 90.5352 174.4 89.389H173.936L173.916 89.2479Z" fill="#EDEDED"/>
<path d="M221.671 149.034C219.655 149.477 217.73 149.87 215.755 150.253C215.039 150.384 214.334 150.586 213.608 150.707C212.338 150.929 211.058 151.13 209.778 151.301C209.107 151.396 208.462 151.476 207.843 151.543L206.836 151.624H206.332C206.191 151.624 205.868 151.624 205.657 151.624C205.451 151.617 205.248 151.583 205.052 151.523C205.002 151.532 204.951 151.532 204.901 151.523L204.81 151.412L204.608 151.181C204.369 150.835 204.186 150.454 204.064 150.052C203.892 149.445 203.801 148.818 203.792 148.187C203.766 147.441 203.787 146.694 203.853 145.95C203.923 145.234 204.044 144.539 204.104 143.854C204.104 143.441 204.457 143.42 204.84 143.793C205.344 144.349 205.643 145.06 205.687 145.809C205.747 146.565 205.687 147.28 205.687 147.945C205.698 148.26 205.731 148.573 205.788 148.883C205.806 149.023 205.836 149.161 205.878 149.296C205.873 149.356 205.873 149.417 205.878 149.477C205.878 149.477 205.878 149.538 205.878 149.558H206.039H206.291C206.997 149.487 207.723 149.407 208.458 149.356C210.253 149.122 212.033 148.786 213.79 148.349C215.805 147.945 217.71 147.542 219.655 147.089C220.854 146.817 222.054 146.524 223.233 146.202C225.012 145.755 226.752 145.162 228.433 144.428L228.856 144.196L229.108 144.015C229.183 143.964 229.241 143.891 229.273 143.807C229.306 143.722 229.312 143.629 229.29 143.541C229.29 143.43 229.239 142.957 229.199 142.634L229.078 141.626C229.078 141.334 228.957 141.052 228.907 140.77C228.756 139.702 228.907 139.48 229.38 139.026L229.693 138.694C230.005 138.311 230.701 138.694 231.154 139.702C231.406 140.366 231.568 141.061 231.638 141.768C231.638 142.12 231.719 142.463 231.739 142.775C231.765 143.222 231.765 143.669 231.739 144.116C231.723 144.435 231.637 144.747 231.487 145.029C231.337 145.311 231.127 145.557 230.872 145.748C230.615 145.955 230.342 146.14 230.056 146.303L229.511 146.575C228.856 146.889 228.183 147.165 227.496 147.401C225.48 148.076 223.525 148.55 221.56 149.054L221.671 149.034Z" fill="#EDEDED"/>
<path d="M133.01 137.817C133.01 137.817 127.86 136.295 124.726 138.754C121.944 140.931 133.272 152.259 156.472 156.23L133.504 142.292L133.01 137.817Z" fill="#EDEDED"/>
<path d="M218.383 124.06L208.235 126.367L204.556 127.275L191.535 130.318C189.6 130.782 187.675 131.326 185.781 131.79C183.332 132.394 180.903 133.09 178.414 133.543C177.648 133.694 177.718 133.543 178.303 133.241C178.605 133.069 179.028 132.828 179.542 132.555C180.127 132.237 180.741 131.977 181.376 131.779C183.825 130.963 186.295 130.197 188.794 129.542C191.293 128.887 193.833 128.222 196.332 127.678C199.356 127.002 202.48 126.116 205.564 125.34L215.723 122.85L222.011 121.349C225.176 120.583 228.371 119.857 231.505 119.071C233.944 118.456 236.312 117.761 238.721 117.116C239.245 116.965 239.729 116.813 240.293 116.682C241 116.492 241.728 116.394 242.46 116.39C242.814 116.391 243.162 116.485 243.468 116.662C243.591 116.718 243.706 116.789 243.81 116.874C244.073 117.116 243.317 117.6 241.916 118.174C237.683 119.555 233.138 120.663 228.562 121.732L218.404 124.1L218.383 124.06Z" fill="#EDEDED"/>
<path d="M195.765 94.7716L197.398 94.57C197.6 94.57 197.791 94.4894 197.983 94.4692L200.089 94.2274C200.397 94.1925 200.703 94.1421 201.006 94.0762C201.389 93.9611 201.786 93.9001 202.185 93.8948C202.437 93.8948 202.276 94.6909 201.843 94.832C201.059 95.065 200.25 95.207 199.434 95.2553C198.938 95.3015 198.447 95.3823 197.963 95.4972L196.33 95.7592L195.322 95.9205C194.758 96.0112 194.314 95.991 193.78 96.0918C193.395 96.1712 193.015 96.2721 192.641 96.3942L192.389 96.4647C192.077 96.5352 191.966 96.4647 191.845 96.1926C191.845 96.1321 191.845 96.0717 191.775 96.0011C191.745 95.8968 191.755 95.7851 191.804 95.6881C191.852 95.591 191.935 95.5157 192.037 95.477C192.719 95.1956 193.439 95.0157 194.173 94.9429C194.445 94.9429 194.778 94.9429 194.959 94.8724L195.755 94.7514L195.765 94.7716Z" fill="#EDEDED"/>
<path d="M192.337 100.739L195.249 100.336L196.257 100.134L200.006 99.5296C200.561 99.4389 201.115 99.3079 201.659 99.187C202.35 98.9957 203.054 98.8542 203.765 98.7637C204.219 98.7637 203.826 99.58 203.03 99.7715C201.614 100.165 200.173 100.461 198.716 100.658C197.839 100.759 196.943 101.001 196.056 101.162L193.123 101.676L191.309 101.989C190.392 102.14 189.475 102.281 188.578 102.462C187.872 102.603 187.197 102.805 186.512 102.976L186.058 103.087C185.494 103.208 185.292 103.168 185.121 102.906C185.076 102.847 185.039 102.782 185.01 102.714C184.909 102.503 185.111 102.281 185.524 102.14C186.773 101.741 188.05 101.434 189.344 101.223L192.276 100.719L192.337 100.739Z" fill="#EDEDED"/>
<rect x="42.5" y="104.5" width="44" height="44" stroke="#3E3E3E"/>
<rect x="46" y="108" width="37" height="37" fill="#3E3E3E"/>
<path d="M67.4345 128.638L70.5047 133.132H70.5388L70.9748 133.913H64.9192L61.8898 128.638H67.4345Z" fill="#EDEDED"/>
<path d="M70.9732 133.914L73.9976 128.639L67.9437 118.088H61.8898L70.9732 133.914Z" fill="#EDEDED"/>
<path d="M58.8629 123.361H64.9168L58.8654 133.912L55.8359 128.638L58.8629 123.361Z" fill="#EDEDED"/>
<path d="M65.5 99.5V77.5H158.5" stroke="#D7DBDF" stroke-dasharray="2 2"/>
<rect x="272.911" y="34.3802" width="69.7879" height="94.2396" fill="#1C1C1C" stroke="#3E3E3E" stroke-width="0.760417"/>
<path d="M287.712 122V115.071H289.772C290.24 115.071 290.645 115.16 290.986 115.337C291.334 115.514 291.603 115.764 291.793 116.087C291.983 116.409 292.078 116.792 292.078 117.235V119.826C292.078 120.263 291.983 120.646 291.793 120.975C291.603 121.298 291.334 121.551 290.986 121.734C290.645 121.911 290.24 122 289.772 122H287.712ZM288.898 120.908H289.772C290.113 120.908 290.385 120.814 290.588 120.624C290.79 120.428 290.892 120.162 290.892 119.826V117.235C290.892 116.906 290.79 116.647 290.588 116.457C290.385 116.261 290.113 116.163 289.772 116.163H288.898V120.908ZM297.437 122.095C296.994 122.095 296.608 122.013 296.279 121.848C295.956 121.677 295.706 121.44 295.529 121.136C295.358 120.826 295.273 120.462 295.273 120.045V117.026C295.273 116.609 295.358 116.248 295.529 115.944C295.706 115.634 295.956 115.397 296.279 115.233C296.608 115.062 296.994 114.976 297.437 114.976C297.886 114.976 298.272 115.062 298.595 115.233C298.918 115.397 299.164 115.634 299.335 115.944C299.512 116.248 299.601 116.606 299.601 117.017V120.045C299.601 120.462 299.512 120.826 299.335 121.136C299.164 121.44 298.918 121.677 298.595 121.848C298.272 122.013 297.886 122.095 297.437 122.095ZM297.437 121.051C297.76 121.051 298.003 120.965 298.168 120.795C298.332 120.617 298.415 120.367 298.415 120.045V117.026C298.415 116.697 298.332 116.447 298.168 116.277C298.003 116.106 297.76 116.02 297.437 116.02C297.114 116.02 296.871 116.106 296.706 116.277C296.542 116.447 296.459 116.697 296.459 117.026V120.045C296.459 120.367 296.542 120.617 296.706 120.795C296.877 120.965 297.121 121.051 297.437 121.051ZM305.064 122.095C304.622 122.095 304.232 122.013 303.897 121.848C303.568 121.677 303.312 121.44 303.128 121.136C302.951 120.826 302.862 120.462 302.862 120.045V117.026C302.862 116.602 302.951 116.239 303.128 115.935C303.312 115.631 303.568 115.397 303.897 115.233C304.232 115.062 304.622 114.976 305.064 114.976C305.514 114.976 305.9 115.062 306.222 115.233C306.551 115.397 306.808 115.631 306.991 115.935C307.175 116.239 307.266 116.602 307.266 117.026H306.071C306.071 116.697 305.982 116.447 305.805 116.277C305.634 116.106 305.387 116.02 305.064 116.02C304.742 116.02 304.492 116.106 304.315 116.277C304.137 116.447 304.049 116.694 304.049 117.017V120.045C304.049 120.367 304.137 120.617 304.315 120.795C304.492 120.965 304.742 121.051 305.064 121.051C305.387 121.051 305.634 120.965 305.805 120.795C305.982 120.617 306.071 120.367 306.071 120.045H307.266C307.266 120.456 307.175 120.817 306.991 121.127C306.808 121.437 306.551 121.677 306.222 121.848C305.9 122.013 305.514 122.095 305.064 122.095ZM312.635 122.095C312.16 122.095 311.749 122.016 311.401 121.858C311.053 121.699 310.784 121.475 310.594 121.184C310.411 120.886 310.316 120.538 310.31 120.14H311.496C311.496 120.424 311.597 120.649 311.8 120.814C312.009 120.972 312.29 121.051 312.644 121.051C312.986 121.051 313.252 120.972 313.442 120.814C313.638 120.655 313.736 120.437 313.736 120.159C313.736 119.925 313.666 119.722 313.527 119.551C313.394 119.374 313.201 119.254 312.948 119.191L312.151 118.972C311.607 118.833 311.186 118.583 310.889 118.222C310.597 117.862 310.452 117.425 310.452 116.913C310.452 116.52 310.541 116.179 310.718 115.887C310.895 115.596 311.145 115.372 311.468 115.214C311.797 115.055 312.183 114.976 312.625 114.976C313.296 114.976 313.828 115.15 314.22 115.498C314.612 115.84 314.812 116.302 314.818 116.884H313.632C313.632 116.612 313.543 116.4 313.366 116.248C313.189 116.09 312.939 116.011 312.616 116.011C312.306 116.011 312.065 116.084 311.895 116.229C311.724 116.375 311.638 116.58 311.638 116.846C311.638 117.087 311.702 117.292 311.828 117.463C311.961 117.628 312.151 117.745 312.398 117.814L313.223 118.042C313.774 118.181 314.195 118.431 314.486 118.792C314.777 119.146 314.922 119.586 314.922 120.111C314.922 120.504 314.828 120.852 314.638 121.155C314.448 121.453 314.182 121.684 313.84 121.848C313.499 122.013 313.097 122.095 312.635 122.095Z" fill="#BBBBBB"/>
<rect x="277.318" y="38.9427" width="60.2345" height="69.1979" fill="#FF414C" stroke="#3E3E3E" stroke-width="0.760417"/>
<path d="M324.302 61.0688C324.113 60.9081 323.893 60.7896 323.654 60.7212C323.406 60.6346 323.15 60.5706 322.89 60.53C322.359 60.4418 321.824 60.3909 321.286 60.3779C320.204 60.3523 319.12 60.4032 318.045 60.53C317.871 60.5604 317.784 59.4133 317.975 59.422C319.104 59.4139 320.233 59.4865 321.352 59.6393C321.915 59.7145 322.473 59.8307 323.02 59.9869C323.3 60.0649 323.573 60.1651 323.837 60.2867C324.117 60.4087 324.369 60.5878 324.576 60.8124C324.762 61.0471 324.445 61.2078 324.302 61.0688Z" fill="#11181C"/>
<path d="M290.278 78.0437L290.035 71.9606L289.926 69.7403C289.843 67.1332 289.787 64.5261 289.739 61.9191C289.739 60.7633 289.674 59.5988 289.635 58.443C289.52 56.9675 289.529 55.485 289.661 54.011C289.717 53.5504 289.852 53.6113 290.048 54.011C290.171 54.2711 290.28 54.538 290.373 54.8105C290.483 55.1822 290.545 55.5661 290.56 55.9533C290.682 58.9557 290.743 61.9582 290.738 64.9954C290.738 66.8073 290.864 68.6931 290.938 70.5484L291.195 76.6663L291.399 80.4248C291.503 82.3236 291.599 84.2355 291.738 86.1169C291.851 87.5812 292.02 89.0151 292.172 90.462C292.211 90.7792 292.246 91.0877 292.281 91.4092C292.359 92.5998 292.316 92.9822 292.09 93.2559C292.042 93.3211 292.003 93.4036 291.964 93.4427C291.851 93.5905 291.56 93.0995 291.425 92.2348C290.99 89.6582 290.812 86.9251 290.617 84.1833C290.478 82.1455 290.373 80.0946 290.265 78.0524L290.278 78.0437Z" fill="#11181C"/>
<path d="M323.042 81.9601C323.477 76.633 323.911 71.3059 324.267 65.9832C324.328 65.0142 324.376 64.0409 324.407 63.0763C324.407 62.594 324.437 62.1073 324.437 61.6337C324.437 61.3947 324.437 61.1601 324.437 60.9298C324.437 60.8168 324.437 60.6952 324.437 60.6126C324.444 60.5827 324.444 60.5514 324.437 60.5214L324.393 60.4823L324.302 60.4301C324.189 60.3716 324.071 60.3221 323.95 60.2824C323.68 60.191 323.402 60.1213 323.12 60.0738C322.51 59.9799 321.895 59.9233 321.278 59.9044C320.665 59.874 320.048 59.8653 319.427 59.874L318.497 59.9C318.037 59.9 317.454 59.9609 316.946 59.9956L317.055 59.1787L317.098 58.7747L317.133 58.4314L317.207 57.4755C317.25 56.8411 317.281 56.2024 317.302 55.5636C317.324 54.9249 317.341 54.2818 317.341 53.6474V53.1738V52.7654C317.346 52.6988 317.346 52.6321 317.341 52.5655C317.341 52.4743 317.246 52.5047 317.185 52.5003H317.046H316.733L316.025 52.5177L314.695 52.5959L312.027 52.7567C308.986 52.9218 305.905 53.0609 302.868 53.0522C300.904 53.0678 298.941 52.9706 296.989 52.761C296.001 52.6486 295.023 52.4671 294.06 52.2179C293.046 51.9867 292.097 51.5259 291.288 50.8709C291.179 50.7718 291.077 50.6643 290.984 50.5494C290.929 50.4616 290.879 50.3702 290.836 50.2757C290.771 50.1236 290.775 50.0454 290.836 50.028C290.897 50.0106 290.997 50.028 291.136 50.1192L291.362 50.2539L291.675 50.3973C292.28 50.6736 292.916 50.8778 293.569 51.0056C294.391 51.1707 295.368 51.3185 296.442 51.4749C298.145 51.7035 299.859 51.8355 301.577 51.8703C303.315 51.9181 305.053 51.9094 306.792 51.8703C308.53 51.8312 310.268 51.7573 312.006 51.6704L314.613 51.527L315.916 51.4532L316.577 51.4228H316.937H317.533C317.722 51.4231 317.906 51.4891 318.052 51.6095C318.199 51.7298 318.299 51.8972 318.336 52.0832C318.369 52.2919 318.391 52.5022 318.402 52.7132V53.0869C318.402 53.5779 318.402 54.0602 318.402 54.5425C318.402 55.3551 318.341 56.1633 318.293 56.9845C318.267 57.3929 318.236 57.8057 318.21 58.2185L318.171 58.653L318.145 58.8442L318.745 58.8181C319.179 58.8181 319.566 58.792 319.983 58.792C320.817 58.7816 321.651 58.8164 322.482 58.8963C322.91 58.9371 323.335 59.0053 323.755 59.1005C323.976 59.1482 324.194 59.2121 324.407 59.2917C324.663 59.3782 324.904 59.5059 325.119 59.6697C325.187 59.7211 325.253 59.7762 325.315 59.8349L325.406 59.9218C325.441 59.9478 325.432 60 325.445 60.0391C325.486 60.1987 325.514 60.3615 325.528 60.5257C325.528 60.7517 325.554 60.9602 325.558 61.1731C325.558 61.6077 325.558 62.0074 325.558 62.4202C325.467 65.1315 325.263 67.8124 325.071 70.5021L324.42 78.5579C324.159 81.8645 323.894 85.1668 323.672 88.469C323.59 89.7161 323.507 90.9675 323.442 92.2188C323.411 92.8445 323.381 93.4702 323.364 94.0916V94.5608V95.369C323.364 95.3951 323.325 95.4081 323.307 95.4255L323.038 95.6341C322.953 95.6999 322.861 95.7566 322.764 95.8035C322.686 95.8427 322.608 95.8904 322.529 95.9209C321.261 96.4379 319.979 96.4857 318.714 96.5509C317.45 96.6161 316.19 96.5509 314.943 96.4944C312.996 96.3901 311.084 96.225 309.177 96.0599L306.327 95.7731C305.857 95.7253 305.371 95.6732 304.927 95.6558C304.484 95.6384 303.993 95.6558 303.533 95.6906C302.703 95.734 301.899 95.8166 301.078 95.9296C299.557 96.1512 298.579 96.4162 297.875 96.5683C297.393 96.7017 296.894 96.7647 296.394 96.7551C296.229 96.7578 296.065 96.7476 295.903 96.7247C295.72 96.6726 295.903 96.4857 296.424 96.2033C297.224 95.7989 298.066 95.4841 298.936 95.2648C300.656 94.8245 302.422 94.5839 304.197 94.5478C304.423 94.5478 304.632 94.5478 304.88 94.5478C305.127 94.5478 305.358 94.5739 305.588 94.5913L306.918 94.7216L309.564 94.9954C311.328 95.1735 313.105 95.3343 314.882 95.4299C316.643 95.5511 318.411 95.5351 320.17 95.3821C320.774 95.3265 321.369 95.1982 321.943 94.9997L322.13 94.9258L322.208 94.8824L322.26 94.852V94.6651V94.1481C322.295 92.7837 322.373 91.4324 322.456 90.0811C322.625 87.3828 322.825 84.6888 323.029 81.9992L323.042 81.9601Z" fill="#11181C"/>
<path d="M325.501 60.0615C323.924 57.0199 321.108 53.9002 318.406 51.8058C318.171 51.6233 317.202 52.0796 317.332 52.1795C320.213 54.392 322.609 57.1723 324.371 60.3483C324.502 60.6046 325.579 60.1919 325.501 60.0441V60.0615Z" fill="#11181C"/>
<path d="M298.531 95.9197C302.253 95.0577 306.113 94.9778 309.867 95.685C316.233 96.8495 323.002 95.2114 323.002 95.2114C323.002 95.2114 321.408 99.0003 310.48 97.032C304.193 95.9023 299.235 97.6664 298.118 97.6664C297.484 97.6664 298.531 95.9197 298.531 95.9197Z" fill="#11181C"/>
<path d="M311.664 136L311.664 155L252.664 155" stroke="#D7DBDF" stroke-dasharray="2 2"/>
</svg>
