<svg width="404" height="223" viewBox="0 0 404 223" fill="none" xmlns="http://www.w3.org/2000/svg">
<rect x="1.5" y="0.5" width="402" height="222" rx="7.5" fill="#1C1C1C"/>
<rect x="1.5" y="0.5" width="402" height="222" rx="7.5" stroke="#2E2E2E"/>
<line x1="0.664062" y1="23.5" x2="403.664" y2="23.5" stroke="#2E2E2E"/>
<line x1="127.5" y1="-2.15656e-08" x2="127.5" y2="223" stroke="#2E2E2E"/>
<line x1="253.5" y1="-2.15656e-08" x2="253.5" y2="223" stroke="#2E2E2E"/>
<line x1="379.5" y1="-2.15656e-08" x2="379.5" y2="223" stroke="#2E2E2E"/>
<line x1="27.5" y1="-2.15656e-08" x2="27.5" y2="223" stroke="#2E2E2E"/>
<line x1="152.5" y1="-2.15656e-08" x2="152.5" y2="223" stroke="#2E2E2E"/>
<line x1="278.5" y1="-2.15656e-08" x2="278.5" y2="223" stroke="#2E2E2E"/>
<line x1="102.5" y1="-2.15656e-08" x2="102.5" y2="223" stroke="#2E2E2E"/>
<line x1="228.5" y1="-2.15656e-08" x2="228.5" y2="223" stroke="#2E2E2E"/>
<line x1="354.5" y1="-2.15656e-08" x2="354.5" y2="223" stroke="#2E2E2E"/>
<line x1="77.5" y1="-2.15656e-08" x2="77.5" y2="223" stroke="#2E2E2E"/>
<line x1="203.5" y1="-2.15656e-08" x2="203.5" y2="223" stroke="#2E2E2E"/>
<line x1="329.5" y1="-2.15656e-08" x2="329.5" y2="223" stroke="#2E2E2E"/>
<line x1="52.5" y1="-2.15656e-08" x2="52.5" y2="223" stroke="#2E2E2E"/>
<line x1="178.5" y1="-2.15656e-08" x2="178.5" y2="223" stroke="#2E2E2E"/>
<line x1="303.5" y1="-2.15656e-08" x2="303.5" y2="223" stroke="#2E2E2E"/>
<line x1="0.664062" y1="74.5" x2="403.664" y2="74.5" stroke="#2E2E2E"/>
<line x1="0.664062" y1="124.5" x2="403.664" y2="124.5" stroke="#2E2E2E"/>
<line x1="0.664062" y1="174.5" x2="403.664" y2="174.5" stroke="#2E2E2E"/>
<line x1="0.664062" y1="48.5" x2="403.664" y2="48.5" stroke="#2E2E2E"/>
<line x1="0.664062" y1="99.5" x2="403.664" y2="99.5" stroke="#2E2E2E"/>
<line x1="0.664062" y1="149.5" x2="403.664" y2="149.5" stroke="#2E2E2E"/>
<line x1="0.664062" y1="199.5" x2="403.664" y2="199.5" stroke="#2E2E2E"/>
<g opacity="0.45">
<path d="M181.079 141.179C181.748 140.54 182.679 140.618 183.355 141.193C183.576 141.371 183.647 142.045 183.497 142.173C183.184 142.422 182.928 142.706 182.694 142.947C182.623 143.018 181.919 143.458 181.392 144.261C180.838 145.041 180.461 146.156 180.319 146.738C180.176 147.306 180.048 147.881 179.927 148.471L179.757 149.33C179.693 149.656 179.643 149.997 179.55 150.295C179.458 150.593 179.309 150.842 179.145 151.034C179.053 151.119 178.996 151.232 178.861 151.275C178.79 151.396 178.662 151.403 178.569 151.474C178.327 151.722 177.716 151.637 177.239 151.673C176.919 151.616 176.599 151.623 176.322 151.63H176.087L175.895 151.658C175.639 151.68 175.376 151.708 175.113 151.758C174.587 151.836 174.053 151.964 173.534 152.113C172.489 152.411 171.479 152.83 170.576 153.348C170.341 153.469 170.135 153.604 169.915 153.731C169.687 153.852 169.474 153.987 169.267 154.122C168.535 154.569 167.888 155.144 167.454 155.833C167.006 156.493 166.786 157.21 166.786 157.899C166.757 158.126 166.807 158.353 166.921 158.545C167.049 158.694 167.262 159.567 168.066 160.086C168.805 160.661 170.078 160.838 170.363 160.874C171.764 161.179 173.52 161.03 175.063 160.632C175.291 160.575 175.504 160.448 175.746 160.469C176.322 160.526 176.777 160.242 177.254 160.008C177.922 159.667 178.59 159.326 179.28 158.978C179.622 158.815 180.02 158.737 180.404 158.63C180.752 158.538 180.838 158.985 180.759 159.092C180.546 159.397 180.887 159.404 181.015 159.525C181.058 159.567 181.115 159.624 181.122 159.674C181.136 159.724 180.319 160.547 179.373 161.349C178.441 162.166 177.296 162.918 177.04 163.018C177.012 163.032 176.585 163.245 175.917 163.508C175.248 163.777 174.324 164.061 173.392 164.253C172.908 164.331 172.425 164.423 171.948 164.487C171.465 164.523 170.995 164.558 170.576 164.573C170.142 164.551 169.765 164.537 169.467 164.523C169.161 164.494 168.933 164.445 168.819 164.431C168.578 164.395 168.343 164.338 168.108 164.253C167.881 164.147 167.646 164.04 167.418 163.941C167.39 163.934 167.269 163.884 167.07 163.813C166.878 163.714 166.615 163.586 166.309 163.43C165.996 163.28 165.676 163.004 165.321 162.748C164.993 162.45 164.631 162.123 164.353 161.733C163.735 160.973 163.393 160.036 163.216 159.319C163.073 158.595 163.031 158.076 163.052 158.005C163.073 156.514 163.486 154.995 164.425 153.98C164.609 153.788 164.745 153.561 164.887 153.334C166.217 151.481 168.115 150.281 170.014 149.493C170.995 149.088 171.97 148.691 172.994 148.449C173.179 148.4 173.371 148.393 173.563 148.371C173.804 148.343 174.039 148.322 174.274 148.286C174.665 148.222 175.049 148.151 175.454 148.123C175.653 148.109 175.853 148.08 176.059 148.08H176.201C176.272 148.08 176.379 148.137 176.429 148.094C176.45 148.023 176.464 147.945 176.485 147.86L176.699 146.958C176.798 146.547 176.912 146.142 177.04 145.723C177.125 145.446 177.481 144.679 177.965 143.941C178.434 143.196 179.053 142.514 179.287 142.237C179.408 142.074 179.792 141.832 180.183 141.641C180.575 141.442 180.973 141.293 181.101 141.172L181.079 141.179Z" fill="white"/>
</g>
<path d="M172.207 166.141C169.647 166.34 166.866 165.885 164.591 164.26C163.474 163.464 162.543 162.428 161.881 161.214C161.213 160.014 160.836 158.566 160.95 157.16C161.042 155.186 161.803 153.22 163.069 151.75C164.008 150.642 165.146 149.748 166.383 149.102C167.62 148.449 168.922 147.945 170.28 147.696C171.638 147.441 173.025 147.355 174.419 147.512L174.938 147.604C175.087 147.632 175.35 147.675 175.329 147.682C175.457 147.703 175.578 147.76 175.713 147.803L175.912 147.866C175.983 147.881 176.054 147.831 176.054 147.76C176.069 147.632 176.069 147.497 176.104 147.362L176.133 147.22C176.133 147.22 176.14 147.164 176.14 147.178L176.19 146.993C176.254 146.752 176.31 146.503 176.403 146.276C176.566 145.8 176.766 145.346 177 144.913C178.38 142.35 180.919 140.341 183.92 140.028C185.84 139.858 187.738 140.462 189.239 141.576C189.431 141.704 189.609 141.867 189.779 142.023C189.957 142.173 190.121 142.343 190.277 142.52C190.583 142.883 190.839 143.287 191.045 143.706C191.465 144.551 191.678 145.495 191.586 146.404C191.323 147.526 191.323 147.299 191.095 146.432C190.91 146.013 190.69 145.438 190.199 144.934C190.099 144.799 189.957 144.686 189.822 144.565C189.694 144.437 189.552 144.324 189.388 144.217C189.239 144.104 189.097 143.983 188.905 143.905C188.762 143.777 188.606 143.664 188.442 143.557C187.546 142.911 186.43 142.549 185.377 142.457C184.844 142.457 184.332 142.428 183.841 142.52C183.336 142.62 182.824 142.762 182.348 143.003C181.388 143.465 180.513 144.189 179.852 145.076C179.525 145.517 179.226 145.992 179.013 146.496C178.892 146.745 178.814 147.007 178.728 147.263L178.622 147.653C178.572 147.881 178.572 148.008 178.543 148.179L178.486 148.662C178.458 148.825 178.444 149.024 178.401 149.159L178.216 149.499C178.081 149.719 178.017 149.982 177.811 150.131C177.704 150.224 177.569 150.302 177.448 150.351C177.384 150.373 177.349 150.401 177.27 150.394L177.05 150.373L176.182 150.295L175.756 150.252L175.542 150.231L175.293 150.153C175.208 150.131 175.137 150.096 175.037 150.082L174.81 150.039L174.575 149.989C174.269 149.904 173.942 149.876 173.615 149.84C169.96 149.443 165.714 151.452 164.065 154.689C163.581 155.562 163.417 156.571 163.353 157.543C163.339 158.48 163.645 159.439 164.164 160.291C165.21 162.03 167.08 163.187 169.178 163.542C171.766 164.004 174.575 163.45 177.05 162.307C177.775 161.966 178.479 161.569 179.148 161.129C179.482 160.909 179.809 160.674 180.129 160.426C180.293 160.305 180.442 160.177 180.599 160.049C180.663 160 180.798 159.879 180.904 159.78L181.246 159.467C181.424 159.304 181.608 159.219 181.786 159.091C181.957 158.956 182.163 158.878 182.391 158.928C182.497 158.949 182.576 158.999 182.632 159.056L182.881 159.226C183.08 159.361 183.272 159.51 183.45 159.694L183.692 159.851C183.749 159.893 183.827 159.929 183.891 159.964C184.026 160.035 184.154 160.113 184.297 160.184C184.581 160.319 184.858 160.461 185.157 160.568C186.323 161.036 187.568 161.349 188.798 161.434C190.363 161.547 191.906 161.207 193.136 160.433C193.463 160.27 193.712 159.986 194.004 159.773C194.267 159.538 194.487 159.283 194.679 158.992C195.07 158.424 195.333 157.763 195.469 157.075C195.589 156.471 195.589 155.868 195.525 155.264C195.362 154.157 195.028 153.525 194.828 153.042C194.736 152.794 194.644 152.602 194.601 152.396C194.58 152.169 194.565 151.963 194.551 151.764C194.544 151.58 194.48 151.374 194.48 151.232C194.48 150.997 194.736 150.976 195.355 151.132C195.661 151.203 195.995 151.416 196.322 151.736C196.656 152.055 196.997 152.488 197.268 153.028C198.1 154.647 198.185 156.571 197.666 158.346C197.396 159.233 196.976 160.099 196.343 160.859C196.023 161.235 195.668 161.597 195.298 161.86L194.743 162.293C194.551 162.435 194.338 162.534 194.132 162.655C192.475 163.599 190.54 163.926 188.755 163.819C186.956 163.699 185.249 163.251 183.628 162.527C183.336 162.399 183.045 162.257 182.753 162.087C182.618 162.016 182.44 161.917 182.327 161.839C182.312 161.824 182.327 161.839 182.32 161.831C182.32 161.831 182.305 161.846 182.334 161.817L182.206 161.924C182.021 162.08 181.836 162.236 181.637 162.385C181.253 162.691 180.855 162.967 180.449 163.244C179.639 163.784 178.778 164.252 177.889 164.657C176.111 165.459 174.213 165.999 172.228 166.176L172.214 166.113L172.207 166.141Z" fill="white"/>
<path d="M257.719 40.2429C258.064 40.2859 258.387 40.4007 258.61 40.6015C258.826 40.8238 258.984 41.0963 259.07 41.3904C259.127 41.5768 258.861 41.9139 258.696 41.8924C258.366 41.8637 258.078 41.7776 257.777 41.7991C257.691 41.7991 256.994 41.584 256.225 41.7991C255.449 41.9641 254.652 42.5091 254.286 42.8247C253.56 43.4271 252.885 44.1299 252.303 44.9116C252.001 45.306 251.75 45.722 251.542 46.1379C251.455 46.3387 251.355 46.5467 251.312 46.7188L251.182 47.1347C251.132 47.3069 251.067 47.479 250.988 47.6511C250.694 48.3396 250.184 48.9922 249.58 49.444C248.977 49.903 248.323 50.1683 247.713 50.3619C247.167 50.534 246.635 50.6273 246.132 50.6918C244.43 50.8783 242.806 51.1938 242.433 52.1405C242.354 52.2911 242.275 52.4775 242.296 52.6783C242.296 52.7572 242.261 53.0154 242.268 53.417C242.311 53.7612 242.311 53.9764 242.555 54.2274C242.785 54.464 243.137 54.7222 243.532 54.8441C243.712 54.923 243.884 54.9732 244.035 55.0091C244.179 55.0449 244.286 55.0808 244.344 55.0951C245.551 55.425 246.966 55.3892 248.323 55.1669C248.517 55.1382 248.718 55.0665 248.912 55.0808C249.365 55.1238 249.782 54.9732 250.184 54.8154C250.759 54.6218 251.312 54.3708 251.886 54.1413C252.159 54.0122 252.468 53.9477 252.77 53.8616C253.043 53.7828 253.064 54.084 252.993 54.1557C252.791 54.3708 253.057 54.3636 253.136 54.4354C253.165 54.464 253.201 54.4999 253.201 54.5286C253.201 54.5501 253.021 54.7007 252.734 54.9374C252.454 55.1812 252.037 55.4537 251.613 55.7262C251.19 56.0131 250.715 56.2354 250.342 56.4362C249.954 56.6155 249.652 56.7302 249.552 56.7661C249.53 56.7733 249.178 56.9024 248.632 57.0386C248.093 57.1892 247.361 57.3398 246.585 57.4115C246.197 57.4546 245.809 57.4833 245.421 57.4761C245.041 57.4904 244.674 57.4617 244.337 57.4259C244.006 57.4115 243.704 57.3398 243.475 57.2896C243.238 57.2466 243.065 57.2107 242.979 57.1749C242.605 57.0601 242.253 56.9024 241.909 56.6585C241.873 56.6298 241.528 56.4864 241.075 56.092C240.838 55.9342 240.623 55.6187 240.393 55.3175C240.278 55.1669 240.213 54.9661 240.12 54.7796C240.034 54.586 239.955 54.3923 239.933 54.1844C239.897 53.9836 239.868 53.7756 239.847 53.5676C239.84 53.3811 239.847 53.2377 239.847 53.0728C239.847 52.7572 239.89 52.4417 239.948 52.1692C240.048 51.617 240.242 51.2225 240.264 51.1723C240.537 50.6058 240.96 50.0751 241.456 49.7022C241.952 49.3292 242.49 49.1069 243 49.0065C243.202 48.9635 243.396 48.8989 243.589 48.8416C245.199 48.3754 246.714 48.3252 247.785 47.8089C248.331 47.5507 248.654 47.1778 248.862 46.6829C248.905 46.5969 248.963 46.5108 248.999 46.4104L249.085 46.2096C249.121 46.102 249.157 45.9945 249.2 45.8941C249.566 44.8183 250.126 44.0151 250.759 43.2263C251.391 42.4517 252.109 41.7489 252.921 41.1107C253.1 40.9601 253.704 40.6015 254.372 40.3505C255.04 40.0851 255.78 39.9704 256.067 39.9345C256.232 39.9202 256.584 39.9345 256.922 40.0206C257.26 40.121 257.576 40.207 257.719 40.2142V40.2429Z" fill="white"/>
<path d="M251.308 57.2694C249.462 58.424 247.401 58.969 245.31 59.0838C244.269 59.1196 243.206 59.0766 242.092 58.7395C241.022 58.3953 239.995 57.8144 239.212 56.8964C238.644 56.2367 238.213 55.3761 238.091 54.4653C237.969 53.5689 238.17 52.615 238.472 51.9338C239.176 49.9616 240.828 48.305 242.703 47.5304C243.637 47.1217 244.606 46.8563 245.583 46.7057C246.072 46.6412 246.56 46.591 247.049 46.5694H247.781C248.097 46.5694 248.083 46.5695 248.205 46.5838C248.27 46.591 248.334 46.5981 248.399 46.6125L248.5 46.6268C248.536 46.6268 248.543 46.5838 248.557 46.5551C248.593 46.4332 248.615 46.3041 248.643 46.175L248.715 45.8451L248.823 45.3718C248.902 45.0563 248.988 44.7407 249.089 44.4323C249.448 43.3279 249.972 42.2307 250.784 41.3199C251.581 40.3948 252.659 39.7206 253.78 39.3477C254.498 39.1254 255.274 38.9748 256.064 39.0035C256.847 39.0322 257.63 39.2043 258.341 39.5485C259.052 39.8999 259.656 40.4665 260.072 41.1263C260.489 41.7932 260.683 42.5606 260.697 43.2921C260.647 44.21 260.561 44.0451 260.309 43.3566C260.144 43.0267 259.921 42.5606 259.498 42.1733C259.095 41.7789 258.556 41.4848 257.967 41.2984C257.105 40.9326 256.078 40.8394 255.187 41.0904C254.203 41.3916 253.305 41.7502 252.63 42.4243C251.941 43.0697 251.452 43.9734 251.114 44.9917C251.028 45.2427 250.956 45.5152 250.892 45.7806L250.798 46.1965L250.755 46.4117L250.683 46.8133C250.59 47.3798 250.468 47.9751 250.159 48.2978C250.087 48.3838 250.008 48.4771 249.879 48.5058C249.821 48.6062 249.692 48.599 249.599 48.6492C249.434 48.7568 249.096 48.6994 248.837 48.7137C248.665 48.6851 248.5 48.6635 248.334 48.6492C248.248 48.642 248.169 48.6349 248.09 48.6349L247.896 48.6205C247.738 48.6062 247.573 48.6062 247.408 48.599C247.085 48.5846 246.754 48.599 246.424 48.6062C244.879 48.6851 243.306 49.1655 242.142 50.1122C241.561 50.5783 241.065 51.1521 240.727 51.8262C240.526 52.1417 240.404 52.5075 240.275 52.866C240.124 53.2318 240.095 53.533 240.059 53.8629C240.045 54.5585 240.303 55.2255 240.842 55.7633C241.367 56.3012 242.114 56.71 242.904 56.9108C243.672 57.1116 244.613 57.1403 245.483 57.0829C246.366 57.0184 247.257 56.8462 248.105 56.5666C248.722 56.3658 249.326 56.1076 249.879 55.7849C250.159 55.6271 250.432 55.455 250.683 55.2613C250.806 55.1609 250.942 55.0749 251.057 54.9673L251.251 54.7952C251.359 54.6948 251.445 54.6087 251.538 54.5083C251.811 54.3434 252.041 53.9992 252.393 54.1067C252.724 54.1498 253.068 54.3004 253.399 54.4294L254.728 54.9601C256.358 55.5912 258.039 56.1076 259.735 56.3084C261.408 56.5164 263.168 56.3658 264.461 55.4693C264.964 55.1251 265.374 54.6804 265.697 54.1641C265.855 53.9131 265.998 53.6262 266.106 53.3537L266.228 52.9665C266.271 52.8374 266.264 52.7011 266.286 52.572C266.322 52.0413 266.2 51.5178 265.948 51.0373C265.682 50.5568 265.295 50.1409 264.849 49.7895C264.454 49.4811 264.002 49.2731 263.535 49.0795C262.658 48.7352 262.033 48.7066 261.595 48.556C261.15 48.4556 260.862 48.2906 260.589 48.0826C260.467 47.9822 260.302 47.9034 260.216 47.8101C260.065 47.6595 260.194 47.4731 260.604 47.2005C260.805 47.0428 261.092 46.9567 261.451 46.8778C261.631 46.8276 261.825 46.7989 262.033 46.7918C262.242 46.7918 262.479 46.7487 262.716 46.7846C264.131 46.9352 265.567 47.4874 266.688 48.5631C267.256 49.0867 267.737 49.7464 268.046 50.5353C268.362 51.3098 268.498 52.2278 268.326 53.1027L268.268 53.4326L268.168 53.7481C268.096 53.949 268.024 54.1784 267.938 54.3577C267.78 54.702 267.586 55.039 267.371 55.3689C266.932 56.0215 266.358 56.6239 265.69 57.0972C264.339 58.0511 262.723 58.3881 261.265 58.4096C259.397 58.4383 257.666 58.0439 256.028 57.5419C255.209 57.2837 254.404 57.004 253.621 56.7028L252.666 56.3299C252.666 56.3299 252.637 56.3084 252.623 56.3299H252.616C252.659 56.294 252.566 56.3801 252.508 56.4303C252.386 56.545 252.257 56.6598 252.127 56.753C251.869 56.961 251.603 57.1546 251.323 57.3267L251.294 57.2909L251.308 57.2694Z" fill="white"/>
<rect x="254.164" y="96.5" width="105" height="105" rx="52.5" fill="#FF414C"/>
<rect x="254.164" y="96.5" width="105" height="105" rx="52.5" stroke="#1C1C1C"/>
<path d="M337.023 139.016C325.218 137.654 327.963 124.525 337.322 125.707C337.322 125.707 333.38 122.849 330.252 124.143C327.125 125.437 324.948 127.958 324.589 129.717C324.23 131.475 324.223 136.128 326.564 138.073C328.906 140.018 332.691 140.632 332.691 140.632L337.031 139.023L337.023 139.016Z" fill="black"/>
<path d="M310.873 123.222C301.41 124.673 302.068 112.801 308.27 113.639C308.27 113.639 305.405 110.773 302.076 112.808C298.746 114.843 297.512 119.227 298.933 122.227C300.347 125.22 303.332 126.446 304.245 126.102C305.158 125.758 310.881 123.229 310.881 123.229L310.873 123.222Z" fill="black"/>
<path d="M283.192 141.544C276.07 140.968 277.35 134.063 279.886 132.552C279.886 132.552 276.893 130.996 273.961 133.524C271.028 136.046 271.05 139.479 272.3 141.395C273.549 143.31 275.307 144.829 277.215 144.671C279.123 144.514 283.192 141.544 283.192 141.544Z" fill="black"/>
<path d="M282.25 163.673C276.834 164.511 277.462 159.087 277.747 158.473C277.747 158.473 274.47 157.77 273.288 160.987C272.098 164.204 273.595 166.89 275.225 167.541C276.856 168.191 278.779 168.139 280.118 167.541C281.457 166.942 282.258 163.673 282.258 163.673H282.25Z" fill="black"/>
<path d="M302.626 181.427C298.198 181.24 298.886 177.798 298.961 177.566C298.961 177.566 295.744 176.803 295.063 179.931C294.382 183.058 295.721 185.624 297.569 185.639C299.417 185.654 301.811 185.826 302.619 184.621C303.427 183.417 302.619 181.419 302.619 181.419L302.626 181.427Z" fill="black"/>
<path d="M326.597 172.375C326.522 172.682 326.41 174.769 330.21 174.185C330.21 174.185 331.661 177.829 328.976 178.726C326.29 179.624 323.327 177.896 323.649 175.958C323.971 174.021 324.158 172.779 325.377 172.375C326.597 171.971 326.597 172.375 326.597 172.375Z" fill="black"/>
<path d="M336.455 155.781C336.455 155.781 337.681 154.165 338.938 155.003C340.195 155.841 341.347 157.277 340.659 158.309C339.978 159.342 338.243 159.866 337.33 159.484C336.417 159.102 335.392 157.659 336.447 155.781H336.455Z" fill="black"/>
<path d="M310.825 121.824C311.895 120.245 311.933 117.956 310.923 116.115C310.556 115.442 310.025 114.881 309.456 114.395C308.439 113.519 307.107 112.951 305.716 112.854C304.324 112.749 302.873 113.108 301.698 113.916C300.651 114.627 299.888 115.726 299.454 116.931C299.147 117.694 298.99 118.524 298.938 119.34C298.908 120.17 298.93 120.948 298.923 121.869C299.042 122.4 299.02 122.362 298.676 121.988C298.586 121.891 298.474 121.786 298.317 121.652C298.107 121.539 298.032 121.345 297.868 121.158C297.718 120.963 297.561 120.739 297.456 120.484C297.367 120.23 297.329 119.946 297.292 119.654C297.224 118.614 297.344 117.582 297.628 116.579C297.928 115.584 298.429 114.642 299.11 113.811C300.486 112.135 302.551 111.118 304.646 111.021C307.13 110.856 309.785 111.672 311.581 113.542C313.511 115.569 314.349 118.592 313.541 121.307C313.04 122.976 311.977 124.39 310.616 125.392C308.544 126.933 305.813 127.322 303.396 126.746C302.454 126.522 301.541 126.17 300.688 125.661C299.843 125.153 299.057 124.472 298.496 123.619L298.152 123.043C298.055 122.849 297.965 122.639 297.875 122.437C297.314 120.859 297.613 120.29 298.055 119.931C298.16 119.849 298.264 119.744 298.369 119.691C298.728 119.527 299.117 120.088 299.536 120.926C299.85 121.547 300.247 122.085 300.696 122.527C301.107 122.998 301.593 123.387 302.14 123.701C303.232 124.337 304.571 124.644 305.88 124.554C306.853 124.487 307.803 124.225 308.656 123.769C309.509 123.312 310.234 122.632 310.751 121.794L310.803 121.824H310.825Z" fill="black"/>
<path d="M338.575 135.685C339.712 133.74 339.69 131.062 338.575 128.9C338.171 128.107 337.58 127.434 336.937 126.858C335.792 125.818 334.273 125.144 332.687 125.062C331.101 124.965 329.463 125.466 328.176 126.476C327.017 127.344 326.239 128.698 325.782 130.097C325.468 130.995 325.311 131.945 325.266 132.895C325.244 133.853 325.281 134.758 325.288 135.805C325.416 136.419 325.393 136.359 325.027 135.925C324.937 135.813 324.802 135.685 324.645 135.536C324.428 135.394 324.338 135.184 324.166 134.967C324.009 134.743 323.837 134.488 323.732 134.204C323.628 133.912 323.59 133.606 323.553 133.276C323.463 132.117 323.583 130.957 323.86 129.828C324.159 128.705 324.675 127.628 325.363 126.656C326.777 124.673 329.067 123.379 331.453 123.169C334.288 122.893 337.333 123.917 339.278 126.102C341.381 128.466 342.226 131.818 341.47 134.87C341.007 136.755 339.914 138.439 338.448 139.665C336.211 141.551 333.099 142.172 330.301 141.431C328.161 140.81 326.231 139.531 324.959 137.638C324.705 137.212 324.451 136.793 324.279 136.321C323.62 134.571 323.919 133.912 324.376 133.501C324.488 133.404 324.593 133.284 324.697 133.232C325.064 133.045 325.49 133.673 325.969 134.638C326.328 135.356 326.792 136 327.316 136.553C327.795 137.137 328.356 137.646 328.977 138.064C329.598 138.476 330.278 138.82 330.967 139C331.61 139.179 332.381 139.232 333.121 139.172C334.214 139.052 335.306 138.73 336.241 138.132C337.191 137.541 337.984 136.688 338.53 135.678L338.583 135.7L338.575 135.685Z" fill="black"/>
<path d="M282.624 140.302C283.297 138.791 283.065 136.801 282.033 135.282C281.658 134.729 281.142 134.295 280.619 133.913C279.676 133.24 278.471 132.873 277.274 132.956C276.077 133.03 274.888 133.547 274.005 134.429C273.212 135.192 272.756 136.292 272.554 137.407C272.404 138.118 272.382 138.858 272.442 139.584C272.524 140.31 272.629 140.99 272.681 141.821C272.823 142.285 272.801 142.247 272.449 141.97C272.292 141.821 271.88 141.671 271.596 141.35C271.439 141.192 271.252 141.02 271.125 140.811C271.005 140.594 270.93 140.355 270.863 140.1C270.661 139.195 270.616 138.267 270.713 137.34C270.826 136.419 271.125 135.514 271.574 134.661C272.494 132.933 274.192 131.676 276.07 131.28C278.292 130.786 280.798 131.257 282.571 132.784C284.479 134.437 285.496 136.988 285.197 139.487C285.01 141.028 284.314 142.449 283.274 143.564C281.696 145.277 279.279 146.033 277.043 145.771C275.329 145.576 273.534 144.873 272.344 143.437C272.09 143.123 271.865 142.801 271.678 142.442C271.035 141.095 271.245 140.557 271.656 140.175C271.753 140.085 271.843 139.98 271.94 139.921C272.269 139.726 272.726 140.168 273.212 140.841C273.571 141.342 273.975 141.769 274.417 142.105C274.821 142.472 275.262 142.756 275.748 142.966C276.721 143.399 277.873 143.519 278.935 143.287C280.506 142.943 281.958 141.888 282.586 140.28L282.639 140.295L282.624 140.302Z" fill="black"/>
<path d="M281.775 163.755C282.126 162.543 281.722 161.04 280.72 160.007C280.353 159.633 279.897 159.371 279.441 159.154C278.618 158.758 277.638 158.631 276.71 158.848C275.775 159.05 274.907 159.596 274.308 160.389C273.777 161.085 273.538 161.99 273.523 162.895C273.493 163.471 273.568 164.055 273.71 164.616C273.867 165.177 274.032 165.686 274.151 166.366C274.323 166.725 274.301 166.703 273.964 166.538C273.815 166.449 273.433 166.404 273.141 166.194C272.984 166.097 272.797 165.985 272.655 165.835C272.52 165.678 272.431 165.491 272.333 165.297C272.042 164.586 271.869 163.838 271.825 163.075C271.795 162.312 271.922 161.533 272.184 160.778C272.737 159.252 273.964 158.025 275.438 157.471C277.174 156.79 279.253 156.79 280.922 157.763C282.717 158.81 283.922 160.748 283.989 162.828C284.027 164.107 283.638 165.349 282.927 166.381C281.857 167.96 280.009 168.865 278.176 168.985C276.77 169.075 275.214 168.813 274.024 167.825C273.77 167.608 273.538 167.384 273.336 167.114C272.61 166.112 272.73 165.633 273.059 165.244C273.134 165.154 273.209 165.05 273.291 164.99C273.568 164.773 274.032 165.042 274.525 165.484C274.884 165.813 275.273 166.067 275.662 166.239C276.022 166.449 276.396 166.591 276.8 166.681C277.6 166.86 278.49 166.793 279.276 166.471C280.436 166 281.431 165.057 281.73 163.755H281.782H281.775Z" fill="black"/>
<path d="M302.334 182.534C302.783 181.591 302.679 180.275 302.02 179.25C301.781 178.876 301.444 178.591 301.107 178.337C300.501 177.873 299.716 177.611 298.923 177.641C298.13 177.671 297.329 178.008 296.731 178.599C296.192 179.108 295.893 179.863 295.766 180.626C295.669 181.112 295.654 181.621 295.691 182.115C295.743 182.616 295.796 183.065 295.758 183.686C295.833 184.023 295.818 184 295.541 183.821C295.422 183.723 295.07 183.641 294.831 183.424C294.696 183.319 294.539 183.2 294.434 183.05C294.337 182.893 294.277 182.721 294.225 182.534C294.06 181.876 294.015 181.202 294.068 180.529C294.135 179.856 294.352 179.197 294.674 178.569C295.339 177.282 296.596 176.347 297.988 176.07C299.626 175.726 301.467 176.063 302.753 177.192C304.137 178.412 304.848 180.267 304.639 182.085C304.504 183.207 304.003 184.247 303.255 185.063C302.117 186.319 300.352 186.866 298.728 186.671C297.487 186.529 296.162 186.035 295.287 184.98C295.1 184.748 294.935 184.516 294.801 184.247C294.344 183.26 294.539 182.863 294.935 182.564C295.033 182.497 295.115 182.414 295.212 182.369C295.519 182.22 295.93 182.504 296.297 182.938C296.566 183.26 296.866 183.521 297.165 183.716C297.434 183.933 297.711 184.098 298.018 184.225C298.631 184.472 299.334 184.546 299.993 184.397C300.95 184.172 301.871 183.566 302.29 182.526L302.342 182.541L302.334 182.534Z" fill="black"/>
<path d="M329.082 176.437C329.426 175.778 329.381 174.798 328.917 174.02C328.745 173.736 328.498 173.527 328.259 173.332C327.832 172.973 327.264 172.756 326.673 172.763C326.082 172.763 325.483 173.018 325.027 173.467C324.623 173.848 324.398 174.439 324.309 175.023C324.234 175.397 324.226 175.793 324.249 176.175C324.286 176.564 324.316 176.901 324.211 177.417C324.249 177.694 324.241 177.679 323.994 177.544C323.89 177.469 323.56 177.432 323.336 177.26C323.216 177.177 323.059 177.088 322.969 176.968C322.88 176.841 322.827 176.699 322.775 176.549C322.625 176.01 322.58 175.457 322.61 174.903C322.655 174.349 322.827 173.803 323.089 173.272C323.62 172.187 324.675 171.387 325.842 171.162C327.219 170.886 328.745 171.162 329.807 172.12C330.937 173.152 331.498 174.664 331.326 176.152C331.221 177.08 330.817 177.933 330.211 178.614C329.291 179.669 327.825 180.125 326.493 179.953C325.468 179.841 324.368 179.429 323.635 178.554C323.486 178.359 323.343 178.165 323.239 177.948C322.872 177.125 323.067 176.796 323.478 176.534C323.575 176.474 323.665 176.407 323.762 176.362C324.069 176.227 324.473 176.444 324.795 176.751C325.027 176.983 325.274 177.162 325.513 177.275C325.715 177.417 325.91 177.522 326.119 177.596C326.538 177.746 327.009 177.791 327.443 177.694C328.064 177.536 328.715 177.162 329.022 176.422L329.074 176.437H329.082Z" fill="black"/>
<path d="M339.655 157.95C339.895 157.554 339.895 156.91 339.588 156.386C339.476 156.199 339.303 156.065 339.146 155.938C338.585 155.436 337.575 155.376 336.924 155.982C336.64 156.229 336.476 156.626 336.408 157.03C336.348 157.284 336.341 157.554 336.356 157.815C336.386 158.077 336.393 158.309 336.296 158.683C336.318 158.878 336.311 158.87 336.124 158.788C336.049 158.743 335.795 158.721 335.623 158.601C335.533 158.549 335.413 158.481 335.338 158.399C335.271 158.309 335.226 158.204 335.196 158.1C335.092 157.711 335.054 157.314 335.077 156.91C335.114 156.506 335.249 156.117 335.451 155.743C335.87 154.972 336.633 154.426 337.471 154.284C338.451 154.105 339.535 154.284 340.306 154.95C341.129 155.676 341.548 156.768 341.406 157.845C341.316 158.511 341.009 159.117 340.56 159.588C339.88 160.322 338.847 160.613 337.897 160.509C337.179 160.434 336.371 160.187 335.825 159.559C335.712 159.424 335.608 159.282 335.533 159.125C335.256 158.534 335.413 158.287 335.742 158.092C335.817 158.047 335.892 157.995 335.967 157.965C336.214 157.868 336.52 158.01 336.76 158.204C336.932 158.354 337.111 158.451 337.269 158.511C337.403 158.593 337.538 158.646 337.673 158.683C337.949 158.765 338.256 158.788 338.548 158.721C338.959 158.616 339.386 158.406 339.603 157.935L339.64 157.95H339.655Z" fill="black"/>
<rect x="34.1641" y="21.5" width="105" height="105" rx="52.5" fill="black"/>
<rect x="34.1641" y="21.5" width="105" height="105" rx="52.5" stroke="#2E2E2E"/>
<path d="M91.1637 80.8888C79.3582 79.5272 82.1039 66.3976 91.4629 67.5797C91.4629 67.5797 87.5203 64.7218 84.3931 66.0161C81.266 67.3103 79.0889 69.8315 78.7298 71.5896C78.3707 73.3477 78.3632 78.001 80.7049 79.9462C83.0465 81.8913 86.832 82.5048 86.832 82.5048L91.1711 80.8963L91.1637 80.8888Z" fill="white"/>
<path d="M92.7158 77.5605C93.853 75.6153 93.8305 72.937 92.7158 70.775C92.3118 69.9819 91.7208 69.3086 91.0774 68.7326C89.9328 67.6927 88.4141 67.0194 86.8281 66.9371C85.242 66.8398 83.6036 67.3411 82.3169 68.351C81.1573 69.2189 80.3792 70.573 79.9229 71.972C79.6087 72.8697 79.4516 73.8198 79.4067 74.7699C79.3842 75.7275 79.4216 76.6328 79.4291 77.6802C79.5563 78.2936 79.5338 78.2338 79.1673 77.7999C79.0775 77.6876 78.9428 77.5605 78.7857 77.4108C78.5688 77.2687 78.479 77.0592 78.3069 76.8423C78.1498 76.6178 77.9777 76.3635 77.873 76.0792C77.7683 75.7874 77.7309 75.4807 77.6935 75.1515C77.6037 73.9919 77.7234 72.8323 78.0002 71.7026C78.2994 70.5804 78.8156 69.5031 79.5039 68.5306C80.9179 66.5481 83.2071 65.2538 85.5937 65.0443C88.4291 64.7675 91.4739 65.7924 93.419 67.977C95.5213 70.341 96.3667 73.6926 95.6111 76.745C95.1472 78.6303 94.055 80.3136 92.5886 81.5405C90.3517 83.4258 87.2395 84.0467 84.4415 83.3061C82.3019 82.6851 80.3717 81.4058 79.0999 79.5131C78.8456 79.0866 78.5912 78.6677 78.4191 78.1964C77.7608 76.4457 78.06 75.7874 78.5164 75.3759C78.6286 75.2787 78.7333 75.159 78.8381 75.1066C79.2047 74.9196 79.6311 75.548 80.1099 76.5131C80.469 77.2313 80.9328 77.8747 81.4565 78.4283C81.9353 79.0118 82.4964 79.5205 83.1174 79.9395C83.7383 80.351 84.4191 80.6951 85.1074 80.8746C85.7508 81.0542 86.5213 81.1066 87.262 81.0467C88.3542 80.927 89.4465 80.6053 90.3817 80.0068C91.3318 79.4158 92.1248 78.5629 92.6709 77.553L92.7233 77.5754L92.7158 77.5605Z" fill="white"/>
<path d="M166.89 139.096C166.894 138.99 166.882 138.885 166.853 138.784C166.753 138.485 166.604 138.205 166.413 137.955C166.259 137.756 166.104 137.567 165.949 137.399C165.632 137.07 165.294 136.763 164.936 136.48C164.581 136.198 164.209 135.937 163.822 135.7C163.624 135.576 163.419 135.463 163.209 135.361C163.1 135.306 162.988 135.256 162.874 135.212C162.751 135.166 162.622 135.138 162.492 135.127C162.432 135.119 162.371 135.123 162.313 135.14C162.078 135.232 161.919 136.189 161.975 136.367C161.99 136.402 162.015 136.434 162.046 136.457C162.106 136.497 162.165 136.595 162.239 136.622C162.318 136.658 162.394 136.7 162.467 136.748C162.619 136.835 162.771 136.943 162.934 137.049C163.241 137.272 163.533 137.515 163.808 137.776C164.084 138.035 164.343 138.31 164.586 138.6C164.702 138.731 164.811 138.869 164.911 139.013C164.95 139.071 164.987 139.131 165.02 139.192C165.048 139.236 165.059 139.308 165.072 139.273C165.216 139.225 165.427 139.213 165.482 139.183C165.543 139.167 165.607 139.167 165.669 139.182L165.99 139.253C166.182 139.306 166.382 139.325 166.581 139.31C166.734 139.317 166.876 139.231 166.89 139.096Z" fill="white"/>
<path d="M158.09 132.953C158.006 132.897 157.93 132.832 157.844 132.786C157.043 132.394 156.197 132.098 155.326 131.907C154.495 131.716 153.65 131.587 152.8 131.521C151.955 131.442 151.107 131.416 150.259 131.442C149.834 131.454 149.407 131.477 148.973 131.53C148.761 131.547 148.538 131.588 148.322 131.625C148.099 131.673 147.881 131.743 147.672 131.832C147.574 131.87 147.481 131.921 147.398 131.985C147.106 132.24 147.53 133.118 147.796 133.193C147.87 133.202 147.945 133.202 148.02 133.195C148.204 133.183 148.379 133.189 148.561 133.166C148.742 133.142 148.929 133.12 149.107 133.111C149.49 133.08 149.874 133.069 150.257 133.079C151.038 133.086 151.817 133.143 152.591 133.251C153.359 133.345 154.121 133.491 154.87 133.688C155.588 133.857 156.282 134.11 156.941 134.441C157.007 134.456 157.067 134.496 157.135 134.527C157.426 134.517 158.334 133.247 158.09 132.953Z" fill="white"/>
<path d="M142.456 132.727C142.398 132.725 142.341 132.727 142.284 132.731C141.202 132.92 140.164 133.302 139.218 133.858C138.753 134.128 138.307 134.43 137.884 134.761C137.676 134.928 137.473 135.097 137.273 135.271C137.062 135.431 136.884 135.631 136.747 135.858C136.709 135.904 136.682 135.958 136.669 136.017C136.617 136.25 137.311 136.949 137.531 136.944C137.586 136.935 137.639 136.916 137.687 136.888C137.796 136.836 137.902 136.778 138.004 136.713L138.278 136.491C138.465 136.346 138.654 136.218 138.844 136.084C139.224 135.825 139.621 135.595 140.034 135.394C140.838 134.999 141.697 134.726 142.581 134.584C142.627 134.574 142.672 134.558 142.714 134.539C142.876 134.388 142.687 132.842 142.456 132.727Z" fill="white"/>
<path d="M132.939 138.98C132.896 138.994 132.855 139.012 132.815 139.033L130.683 140.495L129.61 141.211L129.068 141.56L128.799 141.735C128.711 141.803 128.629 141.88 128.556 141.964C128.52 142 128.491 142.042 128.469 142.088C128.537 142.522 128.76 142.917 129.098 143.199C129.151 143.204 129.204 143.2 129.256 143.186C129.368 143.165 129.477 143.132 129.582 143.087L129.873 142.933L130.476 142.625L131.629 141.98C132.399 141.543 133.149 141.08 133.887 140.599C133.924 140.572 133.956 140.54 133.983 140.503C133.774 139.913 133.414 139.388 132.939 138.98Z" fill="white"/>
<path d="M123.355 143.625C123.307 143.632 123.259 143.644 123.213 143.662C122.355 144.064 121.527 144.471 120.703 144.838C120.292 145.024 119.877 145.187 119.46 145.33C119.252 145.401 119.046 145.462 118.835 145.521C118.734 145.547 118.631 145.577 118.525 145.596C118.419 145.616 118.326 145.696 118.222 145.732C118.175 145.748 118.133 145.775 118.098 145.811C117.963 145.983 118.047 146.951 118.254 147.077C118.307 147.1 118.364 147.112 118.421 147.115C118.681 147.151 118.945 147.133 119.197 147.063C119.442 147.016 119.69 146.959 119.934 146.896C120.416 146.769 120.888 146.617 121.346 146.458C122.273 146.131 123.139 145.747 123.992 145.371C124.035 145.346 124.077 145.318 124.117 145.287C124.216 145.106 123.569 143.672 123.355 143.625Z" fill="white"/>
<path d="M112.711 145.808C112.639 145.787 112.566 145.77 112.492 145.759C111.041 145.717 109.603 145.478 108.217 145.049C107.516 144.836 106.832 144.57 106.172 144.254C105.477 143.992 104.91 143.493 104.173 143.276C104.097 143.246 104.016 143.228 103.934 143.223C103.621 143.212 103.073 144.018 103.242 144.29C103.291 144.361 103.351 144.423 103.42 144.474C103.563 144.606 103.714 144.728 103.872 144.841L104.405 145.135C104.74 145.355 105.088 145.553 105.448 145.73C106.161 146.107 106.901 146.432 107.661 146.702C109.193 147.26 110.802 147.576 112.431 147.639C112.515 147.638 112.598 147.632 112.681 147.62C112.997 147.519 112.969 145.945 112.711 145.808Z" fill="white"/>
<path d="M99.6454 139.459C99.6224 139.43 99.5958 139.404 99.5663 139.382C99.1331 139.079 98.722 138.745 98.3359 138.384C97.9226 138.009 97.5054 137.629 97.1068 137.236C96.7082 136.844 96.313 136.436 95.9467 136.018C95.768 135.813 95.5803 135.601 95.4289 135.37C95.3463 135.261 95.2677 135.158 95.1993 135.058C95.1647 135.004 95.1211 134.956 95.0704 134.917L94.9574 134.801C94.9167 134.792 94.8974 134.735 94.8596 134.737C94.6984 134.765 93.6821 134.699 93.6452 135.128C93.6439 135.181 93.6465 135.233 93.653 135.285L93.6864 135.399C93.7274 135.574 93.7922 135.743 93.8791 135.9C93.9639 136.047 94.0532 136.174 94.1425 136.3C94.3177 136.568 94.5009 136.801 94.688 137.04C95.0572 137.517 95.4484 137.966 95.8458 138.412C96.2432 138.857 96.6554 139.285 97.0851 139.706C97.5363 140.143 98.0168 140.549 98.5234 140.921C98.5953 140.965 98.6713 141.001 98.7502 141.03C99.1076 141.104 99.6482 139.614 99.6454 139.459Z" fill="white"/>
<path d="M191.969 172.369C191.976 172.424 191.987 172.479 192 172.533C192.348 173.412 192.865 174.216 193.521 174.899C193.825 175.234 194.15 175.549 194.494 175.843C194.669 175.994 194.841 176.139 195.025 176.27C195.196 176.427 195.401 176.542 195.623 176.608C195.672 176.63 195.725 176.638 195.778 176.634C196.132 176.376 196.383 176.001 196.485 175.575C196.473 175.53 196.451 175.489 196.42 175.454C196.359 175.38 196.319 175.273 196.238 175.217C196.158 175.162 196.094 175.098 196.021 175.033C195.878 174.909 195.742 174.77 195.606 174.636C195.334 174.365 195.081 174.075 194.848 173.77C194.392 173.203 194.028 172.569 193.768 171.889C193.753 171.86 193.735 171.832 193.714 171.806C193.567 171.766 192.034 172.142 191.969 172.369Z" fill="white"/>
<path d="M199.605 180.66C199.676 180.741 199.741 180.826 199.814 180.896C200.554 181.6 201.349 182.243 202.192 182.82C203.035 183.382 203.917 183.883 204.832 184.319C205.748 184.759 206.697 185.126 207.671 185.418C208.175 185.565 208.652 185.687 209.158 185.788C209.41 185.831 209.672 185.874 209.919 185.916C210.18 185.939 210.443 185.945 210.704 185.931C210.817 185.93 210.93 185.915 211.04 185.887C211.431 185.758 211.415 184.784 211.106 184.611C211.015 184.574 210.92 184.548 210.823 184.531C210.386 184.4 209.943 184.331 209.494 184.229C209.046 184.128 208.603 183.996 208.168 183.849C207.288 183.553 206.434 183.188 205.613 182.755C204.794 182.322 204.003 181.837 203.246 181.303C202.493 180.77 201.785 180.178 201.127 179.533C201.059 179.468 200.978 179.413 200.904 179.353C200.576 179.224 199.432 180.304 199.605 180.66Z" fill="white"/>
<path d="M216.392 186.134C216.44 186.156 216.49 186.173 216.542 186.185C217.531 186.357 218.538 186.4 219.539 186.313C220.041 186.285 220.541 186.23 221.037 186.147C221.277 186.103 221.524 186.049 221.761 185.989C222.009 185.952 222.247 185.864 222.46 185.731C222.512 185.709 222.557 185.675 222.593 185.632C222.652 185.196 222.537 184.753 222.272 184.401C222.224 184.383 222.173 184.374 222.122 184.376C222.008 184.367 221.893 184.367 221.779 184.377L221.456 184.439C221.239 184.476 221.022 184.503 220.802 184.524C220.368 184.578 219.931 184.606 219.493 184.606C218.628 184.607 217.766 184.528 216.916 184.369C216.872 184.359 216.827 184.351 216.782 184.346C216.566 184.437 216.234 185.97 216.392 186.134Z" fill="white"/>
<path d="M226.81 185.117C226.855 185.127 226.899 185.134 226.944 185.139C227.828 185.157 228.711 185.064 229.571 184.862C230 184.759 230.422 184.631 230.836 184.477C231.046 184.403 231.25 184.322 231.448 184.232C231.666 184.162 231.866 184.046 232.034 183.892C232.077 183.864 232.109 183.823 232.128 183.776C232.085 183.342 231.894 182.937 231.586 182.629C231.544 182.61 231.498 182.603 231.452 182.607C231.352 182.61 231.252 182.624 231.154 182.646C231.069 182.685 230.979 182.712 230.889 182.744C230.709 182.809 230.531 182.864 230.333 182.91C229.972 183.009 229.606 183.087 229.236 183.143C228.497 183.247 227.749 183.282 227.003 183.249C226.962 183.25 226.922 183.258 226.883 183.271C226.71 183.871 226.685 184.505 226.81 185.117Z" fill="white"/>
<path d="M235.516 182.517C235.559 182.519 235.602 182.516 235.644 182.507C236.416 182.297 237.154 181.98 237.838 181.566C238.178 181.365 238.506 181.145 238.821 180.907C238.979 180.786 239.132 180.664 239.286 180.536L239.509 180.341C239.576 180.263 239.633 180.177 239.679 180.085C239.708 180.048 239.724 180.003 239.727 179.956C239.545 179.56 239.244 179.23 238.865 179.014C238.824 179.008 238.781 179.016 238.745 179.036C238.582 179.088 238.431 179.172 238.301 179.284C238.169 179.378 238.027 179.47 237.885 179.557C237.604 179.731 237.313 179.888 237.013 180.028C236.421 180.308 235.803 180.53 235.168 180.69C235.137 180.685 235.109 180.723 235.075 180.738C235.096 181.355 235.246 181.961 235.516 182.517Z" fill="white"/>
<path d="M195.899 169.793L195.721 169.847C195.14 170.031 194.587 170.294 194.078 170.627C193.568 170.948 193.093 171.319 192.659 171.735C191.818 172.561 191.061 173.469 190.401 174.445L190.301 174.597C190.181 174.777 190.785 175.206 190.91 175.031L191.014 174.885C191.67 173.973 192.42 173.131 193.25 172.373C193.663 172.007 194.099 171.67 194.557 171.362C195.015 171.067 195.494 170.805 195.989 170.578L196.148 170.515C196.327 170.424 196.111 169.728 195.899 169.793Z" fill="white"/>
<path d="M238.893 175.6C240.766 175.129 242.697 175.042 244.58 175.344C245.257 175.444 245.927 175.582 246.588 175.757C247.035 175.863 247.595 176.216 248.038 176.231L248.176 176.297C248.495 176.493 248.413 176.273 247.935 175.639C247.824 175.886 247.726 176.139 247.642 176.397C247.334 177.058 246.993 177.702 246.621 178.326C245.887 179.613 245.047 180.858 244.427 182.212C243.905 183.342 245.503 184.258 246.018 183.119C246.868 181.27 248.103 179.611 248.997 177.799C249.485 176.824 250.303 175.384 249.192 174.64C248.081 173.896 246.464 173.676 245.227 173.48C242.964 173.089 240.638 173.182 238.382 173.751C237.232 174.055 237.74 175.9 238.881 175.597L238.893 175.6Z" fill="white"/>
</svg>
