<svg width="25" height="24" viewBox="0 0 25 24" fill="none" xmlns="http://www.w3.org/2000/svg">
<g id="github">
<path id="Vector" d="M16.336 22.0268V19.1568C16.3735 18.68 16.3091 18.2006 16.147 17.7506C15.985 17.3006 15.7289 16.8902 15.396 16.5468C18.536 16.1968 21.836 15.0068 21.836 9.54679C21.8358 8.15062 21.2987 6.80799 20.336 5.79679C20.7919 4.5753 20.7596 3.22514 20.246 2.02679C20.246 2.02679 19.066 1.67679 16.336 3.50679C14.044 2.88561 11.628 2.88561 9.33601 3.50679C6.60601 1.67679 5.42601 2.02679 5.42601 2.02679C4.91239 3.22514 4.88016 4.5753 5.33601 5.79679C4.36614 6.81549 3.82854 8.17026 3.83601 9.57679C3.83601 14.9968 7.13601 16.1868 10.276 16.5768C9.94701 16.9168 9.69328 17.3222 9.53132 17.7667C9.36937 18.2112 9.30282 18.6849 9.33601 19.1568V22.0268" stroke="#FA5757" strokeWidth="1.5" strokeLinecap="round" strokeLinejoin="round"/>
<path id="Vector_2" d="M9.33594 20.0273C6.33594 21.0006 3.83594 20.0273 2.33594 17.0273" stroke="#FA5757" strokeWidth="1.5" strokeLinecap="round" strokeLinejoin="round"/>
</g>
</svg>
