<svg width="1920" height="1080" viewBox="0 0 1920 1080" fill="none" xmlns="http://www.w3.org/2000/svg">
<g clip-path="url(#clip0_4886_460)">
<rect width="1920" height="1080" fill="#141414"/>
<line x1="2863.2" y1="370.953" x2="-388.205" y2="370.953" stroke="#E9EBED" stroke-opacity="0.09" stroke-width="1.59383" stroke-linecap="round" stroke-dasharray="9.56 9.56"/>
<line x1="2863.2" y1="175.197" x2="-388.203" y2="175.197" stroke="#E9EBED" stroke-opacity="0.09" stroke-width="1.59383" stroke-linecap="round" stroke-dasharray="9.56 9.56"/>
<line x1="2863.2" y1="568.352" x2="-388.205" y2="568.352" stroke="#E9EBED" stroke-opacity="0.09" stroke-width="1.59383" stroke-linecap="round" stroke-dasharray="9.56 9.56"/>
<line x1="2863.2" y1="76.4981" x2="-388.203" y2="76.4981" stroke="#E9EBED" stroke-opacity="0.09" stroke-width="1.59383" stroke-linecap="round" stroke-dasharray="9.56 9.56"/>
<line x1="2863.2" y1="469.652" x2="-388.205" y2="469.652" stroke="#E9EBED" stroke-opacity="0.09" stroke-width="1.59383" stroke-linecap="round" stroke-dasharray="9.56 9.56"/>
<line x1="2863.2" y1="273.898" x2="-388.205" y2="273.898" stroke="#E9EBED" stroke-opacity="0.09" stroke-width="1.59383" stroke-linecap="round" stroke-dasharray="9.56 9.56"/>
<line x1="2863.2" y1="667.055" x2="-388.205" y2="667.055" stroke="#E9EBED" stroke-opacity="0.09" stroke-width="1.59383" stroke-linecap="round" stroke-dasharray="9.56 9.56"/>
<line x1="2863.2" y1="321.604" x2="-388.203" y2="321.604" stroke="#E9EBED" stroke-opacity="0.09" stroke-width="1.59383" stroke-linecap="round" stroke-dasharray="9.56 9.56"/>
<line x1="2863.2" y1="125.848" x2="-388.205" y2="125.848" stroke="#E9EBED" stroke-opacity="0.09" stroke-width="1.59383" stroke-linecap="round" stroke-dasharray="9.56 9.56"/>
<line x1="2863.2" y1="519.004" x2="-388.205" y2="519.004" stroke="#E9EBED" stroke-opacity="0.09" stroke-width="1.59383" stroke-linecap="round" stroke-dasharray="9.56 9.56"/>
<line x1="2863.2" y1="27.1465" x2="-388.205" y2="27.1465" stroke="#E9EBED" stroke-opacity="0.09" stroke-width="1.59383" stroke-linecap="round" stroke-dasharray="9.56 9.56"/>
<line x1="2863.2" y1="420.303" x2="-388.203" y2="420.303" stroke="#E9EBED" stroke-opacity="0.09" stroke-width="1.59383" stroke-linecap="round" stroke-dasharray="9.56 9.56"/>
<line x1="2863.2" y1="224.547" x2="-388.205" y2="224.547" stroke="#E9EBED" stroke-opacity="0.09" stroke-width="1.59383" stroke-linecap="round" stroke-dasharray="9.56 9.56"/>
<line x1="2863.2" y1="617.703" x2="-388.205" y2="617.703" stroke="#E9EBED" stroke-opacity="0.09" stroke-width="1.59383" stroke-linecap="round" stroke-dasharray="9.56 9.56"/>
<line x1="2863.2" y1="767.172" x2="-388.205" y2="767.172" stroke="#E9EBED" stroke-opacity="0.09" stroke-width="1.59383" stroke-linecap="round" stroke-dasharray="9.56 9.56"/>
<line x1="2863.2" y1="964.57" x2="-388.205" y2="964.57" stroke="#E9EBED" stroke-opacity="0.09" stroke-width="1.59383" stroke-linecap="round" stroke-dasharray="9.56 9.56"/>
<line x1="2863.2" y1="865.871" x2="-388.205" y2="865.871" stroke="#E9EBED" stroke-opacity="0.09" stroke-width="1.59383" stroke-linecap="round" stroke-dasharray="9.56 9.56"/>
<line x1="2863.2" y1="1063.27" x2="-388.203" y2="1063.27" stroke="#E9EBED" stroke-opacity="0.09" stroke-width="1.59383" stroke-linecap="round" stroke-dasharray="9.56 9.56"/>
<line x1="2863.2" y1="717.82" x2="-388.205" y2="717.82" stroke="#E9EBED" stroke-opacity="0.09" stroke-width="1.59383" stroke-linecap="round" stroke-dasharray="9.56 9.56"/>
<line x1="2863.2" y1="915.221" x2="-388.203" y2="915.221" stroke="#E9EBED" stroke-opacity="0.09" stroke-width="1.59383" stroke-linecap="round" stroke-dasharray="9.56 9.56"/>
<line x1="2863.2" y1="816.522" x2="-388.203" y2="816.522" stroke="#E9EBED" stroke-opacity="0.09" stroke-width="1.59383" stroke-linecap="round" stroke-dasharray="9.56 9.56"/>
<line x1="2863.2" y1="1013.92" x2="-388.205" y2="1013.92" stroke="#E9EBED" stroke-opacity="0.09" stroke-width="1.59383" stroke-linecap="round" stroke-dasharray="9.56 9.56"/>
<rect x="125.854" y="130.269" width="1689.88" height="837.516" rx="11.8591" fill="#151515" stroke="#2E2E2E" stroke-width="2.53704"/>
<g filter="url(#filter0_dd_4886_460)">
<rect x="102" y="110" width="1694" height="834" rx="13.1276" fill="#242424"/>
<rect x="103.269" y="111.269" width="1691.46" height="831.463" rx="11.8591" stroke="#2E2E2E" stroke-width="2.53704"/>
<path d="M1014.26 735.516L1078.36 848.258H948.882L884.105 735.516H1014.26Z" fill="url(#paint0_linear_4886_460)"/>
<path d="M1078.33 848.281L1143 735.539L1013.55 510H884.105L1078.33 848.281Z" fill="#FF414C"/>
<path d="M819.39 622.729H948.838L819.444 848.267L754.667 735.525L819.39 622.729Z" fill="#FF414C"/>
</g>
<path d="M451.73 287.461H474.32V388H451.119L449.491 372.329C443.182 382.708 431.174 390.646 414.893 390.646C384.975 390.646 367.88 367.852 367.88 336.51C367.88 304.964 386.807 284.409 415.096 284.409C430.157 284.409 444.199 290.921 450.305 302.929L451.73 287.461ZM449.084 337.731C449.084 319.617 438.094 306.999 420.795 306.999C403.496 306.999 392.709 319.821 392.709 337.731C392.709 355.64 403.292 368.259 420.591 368.259C437.89 368.259 449.084 355.844 449.084 337.731ZM520.95 388H496.324V236.581H520.95V329.59L560.026 287.461H591.164L552.903 327.351L590.35 388H561.858L535.604 345.668L520.95 360.932V388ZM674.735 287.461H697.325V388H674.124L672.496 372.329C666.187 382.708 654.179 390.646 637.898 390.646C607.98 390.646 590.885 367.852 590.885 336.51C590.885 304.964 609.812 284.409 638.101 284.409C653.162 284.409 667.204 290.921 673.31 302.929L674.735 287.461ZM672.089 337.731C672.089 319.617 661.099 306.999 643.8 306.999C626.501 306.999 615.714 319.821 615.714 337.731C615.714 355.64 626.297 368.259 643.596 368.259C660.895 368.259 672.089 355.844 672.089 337.731ZM709.201 357.472H732.809C733.013 366.223 739.525 371.718 750.923 371.718C762.523 371.718 768.832 367.037 768.832 359.711C768.832 354.623 766.187 350.959 757.232 348.924L739.118 344.65C721.005 340.58 712.254 332.032 712.254 315.954C712.254 296.213 728.942 284.409 752.144 284.409C774.734 284.409 789.998 297.434 790.202 316.972H766.594C766.39 308.424 760.691 302.929 751.126 302.929C741.357 302.929 735.659 307.406 735.659 314.936C735.659 320.635 740.136 324.298 748.684 326.334L766.797 330.607C783.689 334.474 792.237 342.208 792.237 357.676C792.237 378.028 774.938 390.646 750.108 390.646C725.076 390.646 709.201 377.213 709.201 357.472ZM831.901 388H807.072V236.581H832.105V300.487C838.414 290.718 850.218 284.409 864.668 284.409C889.497 284.409 902.522 300.08 902.522 326.13V388H877.693V332.032C877.693 315.14 869.349 306.999 856.73 306.999C841.059 306.999 831.901 317.989 831.901 333.05V388Z" fill="white"/>
<path d="M922.573 338.952C922.573 308.017 941.501 286.851 970.197 286.851C992.991 286.851 1009.68 300.08 1013.55 320.431H999.504C995.84 306.796 984.036 299.265 970.4 299.265C950.456 299.265 936.413 314.529 936.413 338.748C936.413 362.153 949.438 377.824 969.383 377.824C984.036 377.824 995.84 369.683 999.707 357.065H1013.95C1009.27 377.213 991.77 390.442 969.383 390.442C941.501 390.442 922.573 369.887 922.573 338.952ZM1024.24 338.748C1024.24 308.627 1045.4 286.851 1074.3 286.851C1103.2 286.851 1124.37 308.627 1124.37 338.748C1124.37 368.666 1103.2 390.442 1074.3 390.442C1045.4 390.442 1024.24 368.666 1024.24 338.748ZM1038.48 338.545C1038.48 361.746 1053.14 377.824 1074.3 377.824C1095.27 377.824 1110.12 361.746 1110.12 338.545C1110.12 315.751 1095.27 299.469 1074.3 299.469C1053.14 299.469 1038.48 315.751 1038.48 338.545ZM1156.8 388H1142.76V289.497H1154.97L1157.01 306.592C1163.52 293.974 1176.54 286.851 1190.79 286.851C1217.86 286.851 1229.05 302.929 1229.05 327.758V388H1215.01V330.811C1215.01 307.813 1204.63 299.673 1188.35 299.673C1168.2 299.673 1156.8 314.326 1156.8 336.51V388ZM1243.43 360.321H1256.87C1256.87 371.718 1265.41 378.842 1279.25 378.842C1294.52 378.842 1303.47 372.329 1303.47 361.746C1303.47 353.605 1299.4 348.924 1287.8 346.075L1270.91 341.801C1253.81 337.527 1245.47 328.572 1245.47 315.14C1245.47 297.841 1259.92 286.851 1281.08 286.851C1301.84 286.851 1315.28 298.248 1315.89 316.565H1302.25C1301.84 305.168 1293.91 298.451 1280.68 298.451C1266.84 298.451 1259.1 304.353 1259.1 314.936C1259.1 322.467 1264.4 327.758 1275.18 330.404L1292.07 334.678C1309.17 338.952 1316.9 346.889 1316.9 361.135C1316.9 378.842 1301.84 390.442 1279.46 390.442C1257.27 390.442 1243.43 378.638 1243.43 360.321ZM1329.03 338.748C1329.03 308.627 1350.2 286.851 1379.1 286.851C1408 286.851 1429.16 308.627 1429.16 338.748C1429.16 368.666 1408 390.442 1379.1 390.442C1350.2 390.442 1329.03 368.666 1329.03 338.748ZM1343.28 338.545C1343.28 361.746 1357.93 377.824 1379.1 377.824C1400.06 377.824 1414.92 361.746 1414.92 338.545C1414.92 315.751 1400.06 299.469 1379.1 299.469C1357.93 299.469 1343.28 315.751 1343.28 338.545ZM1462.21 388H1448.16V239.634H1462.21V388ZM1529.32 390.442C1500.42 390.442 1481.08 369.683 1481.08 338.748C1481.08 308.017 1500.21 286.851 1528.3 286.851C1554.96 286.851 1573.07 305.778 1573.07 333.66V340.58H1494.72C1495.74 364.595 1508.36 378.435 1529.52 378.435C1545.6 378.435 1555.98 371.515 1559.64 358.49H1573.07C1567.78 379.249 1552.52 390.442 1529.32 390.442ZM1528.3 298.858C1509.78 298.858 1497.57 311.07 1495.13 330.404H1559.03C1559.03 311.477 1546.82 298.858 1528.3 298.858Z" fill="#7F7F7F"/>
</g>
<defs>
<filter id="filter0_dd_4886_460" x="91.9558" y="107.991" width="1714.09" height="854.088" filterUnits="userSpaceOnUse" color-interpolation-filters="sRGB">
<feFlood flood-opacity="0" result="BackgroundImageFix"/>
<feColorMatrix in="SourceAlpha" type="matrix" values="0 0 0 0 0 0 0 0 0 0 0 0 0 0 0 0 0 0 127 0" result="hardAlpha"/>
<feMorphology radius="2.00884" operator="erode" in="SourceAlpha" result="effect1_dropShadow_4886_460"/>
<feOffset dy="8.03535"/>
<feGaussianBlur stdDeviation="6.02651"/>
<feComposite in2="hardAlpha" operator="out"/>
<feColorMatrix type="matrix" values="0 0 0 0 0 0 0 0 0 0 0 0 0 0 0 0 0 0 0.1 0"/>
<feBlend mode="normal" in2="BackgroundImageFix" result="effect1_dropShadow_4886_460"/>
<feColorMatrix in="SourceAlpha" type="matrix" values="0 0 0 0 0 0 0 0 0 0 0 0 0 0 0 0 0 0 127 0" result="hardAlpha"/>
<feMorphology radius="4.01767" operator="erode" in="SourceAlpha" result="effect2_dropShadow_4886_460"/>
<feOffset dy="4.01767"/>
<feGaussianBlur stdDeviation="4.01767"/>
<feComposite in2="hardAlpha" operator="out"/>
<feColorMatrix type="matrix" values="0 0 0 0 0 0 0 0 0 0 0 0 0 0 0 0 0 0 0.1 0"/>
<feBlend mode="normal" in2="effect1_dropShadow_4886_460" result="effect2_dropShadow_4886_460"/>
<feBlend mode="normal" in="SourceGraphic" in2="effect2_dropShadow_4886_460" result="shape"/>
</filter>
<linearGradient id="paint0_linear_4886_460" x1="988.314" y1="787.203" x2="1043.54" y2="729.848" gradientUnits="userSpaceOnUse">
<stop stop-color="#FF414C"/>
<stop offset="1" stop-color="#FF414C" stop-opacity="0"/>
</linearGradient>
<clipPath id="clip0_4886_460">
<rect width="1920" height="1080" fill="white"/>
</clipPath>
</defs>
</svg>
