<svg width="22" height="16" viewBox="0 0 22 16" fill="none" xmlns="http://www.w3.org/2000/svg">
<g id="Icon">
<path d="M20.1023 3.19146C19.9997 2.76169 19.7907 2.36792 19.4966 2.04992C19.2024 1.73191 18.8334 1.50094 18.4269 1.38034C16.9415 1 11 1 11 1C11 1 5.05849 1 3.57311 1.41656C3.16658 1.53717 2.79759 1.76814 2.50342 2.08614C2.20926 2.40414 2.00033 2.79791 1.89775 3.22768C1.6259 4.80839 1.49293 6.41192 1.50049 8.01811C1.4908 9.63639 1.62379 11.2521 1.89775 12.8448C2.01084 13.2612 2.22445 13.64 2.51793 13.9445C2.81141 14.2491 3.17484 14.4692 3.57311 14.5834C5.05849 15 11 15 11 15C11 15 16.9415 15 18.4269 14.5834C18.8334 14.4628 19.2024 14.2319 19.4966 13.9139C19.7907 13.5959 19.9997 13.2021 20.1023 12.7723C20.372 11.2035 20.505 9.61221 20.4995 8.01811C20.5092 6.39983 20.3762 4.78407 20.1023 3.19146Z" stroke="#FA5757" stroke-width="1.5" stroke-linecap="round" stroke-linejoin="round"/>
<path d="M9.05692 10.9793L14.0226 8.01811L9.05692 5.05692V10.9793Z" stroke="#FA5757" stroke-width="1.5" stroke-linecap="round" stroke-linejoin="round"/>
</g>
</svg>
