<svg width="182" height="41" viewBox="0 0 182 41" fill="none" xmlns="http://www.w3.org/2000/svg">
<path d="M26.2941 26.4214L33.5663 35.3848L34.945 38.5928H20.967L13.9741 26.4214H26.2941Z" fill="white"/>
<path d="M34.9412 38.6001L41.9226 26.4287L27.9484 2.08008H13.9741L34.9412 38.6001Z" fill="white"/>
<path d="M6.98707 14.2466H20.9613L6.99288 38.5952L0 26.4238L6.98707 14.2466Z" fill="white"/>
<path d="M164.422 38.8555H158.242V1.16748H164.472V17.0735C166.043 14.642 168.981 13.0716 172.577 13.0716C178.757 13.0716 181.999 16.9721 181.999 23.4561V38.8555H175.819V24.9251C175.819 20.7207 173.742 18.6945 170.602 18.6945C166.701 18.6945 164.422 21.4299 164.422 25.1784V38.8555Z" fill="white"/>
<path d="M133.882 31.2553H139.758C139.809 33.4335 141.43 34.8012 144.266 34.8012C147.154 34.8012 148.724 33.6362 148.724 31.8125C148.724 30.5461 148.066 29.6343 145.837 29.1278L141.328 28.064C136.82 27.0509 134.642 24.9233 134.642 20.9215C134.642 16.0079 138.795 13.0698 144.57 13.0698C150.193 13.0698 153.992 16.3118 154.043 21.1748H148.167C148.116 19.0472 146.698 17.6795 144.317 17.6795C141.885 17.6795 140.467 18.794 140.467 20.6682C140.467 22.0866 141.582 22.9984 143.709 23.505L148.217 24.5687C152.422 25.5312 154.549 27.4561 154.549 31.306C154.549 36.3716 150.244 39.5122 144.064 39.5122C137.833 39.5122 133.882 36.169 133.882 31.2553Z" fill="white"/>
<path d="M125.303 13.8297H130.926V38.8537H125.151L124.746 34.9532C123.175 37.5367 120.187 39.5122 116.134 39.5122C108.688 39.5122 104.433 33.8388 104.433 26.0378C104.433 18.1861 109.144 13.0698 116.185 13.0698C119.933 13.0698 123.429 14.6908 124.948 17.6795L125.303 13.8297ZM124.644 26.3417C124.644 21.8333 121.909 18.6926 117.603 18.6926C113.297 18.6926 110.613 21.884 110.613 26.3417C110.613 30.7994 113.247 33.9401 117.553 33.9401C121.858 33.9401 124.644 30.8501 124.644 26.3417Z" fill="white"/>
<path d="M87.0249 38.8555H80.8955V1.16748H87.0249V24.3173L96.7508 13.8315H104.501L94.9779 23.7601L104.299 38.8555H97.2067L90.6721 28.3191L87.0249 32.1183V38.8555Z" fill="white"/>
<path d="M69.797 13.8297H75.4198V38.8537H69.6451L69.2398 34.9532C67.6695 37.5367 64.6808 39.5122 60.6283 39.5122C53.1819 39.5122 48.9268 33.8388 48.9268 26.0378C48.9268 18.1861 53.6378 13.0698 60.6789 13.0698C64.4275 13.0698 67.9228 14.6908 69.4424 17.6795L69.797 13.8297ZM69.1385 26.3417C69.1385 21.8333 66.4031 18.6926 62.0973 18.6926C57.7916 18.6926 55.1068 21.884 55.1068 26.3417C55.1068 30.7994 57.7409 33.9401 62.0467 33.9401C66.3524 33.9401 69.1385 30.8501 69.1385 26.3417Z" fill="white"/>
</svg>