<svg width="1280" height="640" viewBox="0 0 1280 640" fill="none" xmlns="http://www.w3.org/2000/svg">
<rect width="1280" height="640" fill="#FAF9F8"/>
<path d="M342.6 354.002L381.394 421.991H303.031L263.828 354.002H342.6Z" fill="url(#paint0_linear_3775_38026)"/>
<path d="M381.373 422L420.511 354.011L342.17 218H263.828L381.373 422Z" fill="#FF414C"/>
<path d="M224.663 285.97H303.004L224.695 421.982L185.492 353.992L224.663 285.97Z" fill="#FF414C"/>
<rect x="444.508" y="213" width="2" height="214" fill="#E6E8EB"/>
<path d="M488.988 230.532V268.5H483.5V230.532H488.988ZM471.292 233.052V228.012H501.14V233.052H471.292ZM511.025 268.444H505.761V227.284H511.025V245.316C511.884 243.823 513.116 242.628 514.721 241.732C516.326 240.799 518.193 240.332 520.321 240.332C523.793 240.332 526.388 241.359 528.105 243.412C529.822 245.465 530.681 248.247 530.681 251.756V268.5H525.417V252.932C525.417 251.065 525.137 249.572 524.577 248.452C524.054 247.295 523.289 246.455 522.281 245.932C521.31 245.409 520.172 245.148 518.865 245.148C517.185 245.148 515.748 245.521 514.553 246.268C513.396 247.015 512.518 248.023 511.921 249.292C511.324 250.561 511.025 251.98 511.025 253.548V268.444ZM549.788 269.172C547.137 269.172 544.785 268.575 542.732 267.38C540.679 266.148 539.073 264.468 537.916 262.34C536.759 260.175 536.18 257.673 536.18 254.836C536.18 251.961 536.74 249.441 537.86 247.276C539.017 245.111 540.585 243.412 542.564 242.18C544.58 240.948 546.913 240.332 549.564 240.332C552.177 240.332 554.436 240.892 556.34 242.012C558.281 243.132 559.775 244.7 560.82 246.716C561.903 248.732 562.444 251.103 562.444 253.828V255.788L538.98 255.844L539.092 252.316H557.18C557.18 250.039 556.489 248.209 555.108 246.828C553.727 245.447 551.879 244.756 549.564 244.756C547.809 244.756 546.297 245.148 545.028 245.932C543.796 246.679 542.844 247.799 542.172 249.292C541.537 250.748 541.22 252.503 541.22 254.556C541.22 257.841 541.967 260.38 543.46 262.172C544.953 263.927 547.1 264.804 549.9 264.804C551.953 264.804 553.633 264.393 554.94 263.572C556.247 262.751 557.124 261.556 557.572 259.988H562.5C561.828 262.9 560.391 265.159 558.188 266.764C555.985 268.369 553.185 269.172 549.788 269.172ZM592.708 268.5L580.668 228.012H586.38L593.772 252.764C594.071 253.809 594.351 254.911 594.612 256.068C594.873 257.225 595.153 258.569 595.452 260.1C595.788 258.457 596.105 257.095 596.404 256.012C596.74 254.929 597.057 253.847 597.356 252.764L605.028 228.012H610.964L618.58 252.764C618.916 253.847 619.233 254.967 619.532 256.124C619.831 257.281 620.129 258.607 620.428 260.1C620.801 258.383 621.119 256.964 621.38 255.844C621.679 254.724 621.959 253.716 622.22 252.82L629.668 228.012H635.268L623.06 268.5H617.796L607.996 236.468L598.084 268.5H592.708ZM634.563 254.78C634.563 251.98 635.179 249.497 636.411 247.332C637.643 245.167 639.323 243.468 641.451 242.236C643.616 241.004 646.08 240.388 648.843 240.388C651.606 240.388 654.051 241.004 656.179 242.236C658.307 243.468 659.987 245.167 661.219 247.332C662.451 249.497 663.067 251.98 663.067 254.78C663.067 257.58 662.451 260.063 661.219 262.228C659.987 264.393 658.307 266.092 656.179 267.324C654.051 268.556 651.606 269.172 648.843 269.172C646.08 269.172 643.616 268.556 641.451 267.324C639.323 266.092 637.643 264.393 636.411 262.228C635.179 260.063 634.563 257.58 634.563 254.78ZM639.883 254.78C639.883 256.684 640.256 258.364 641.003 259.82C641.787 261.276 642.851 262.415 644.195 263.236C645.539 264.057 647.088 264.468 648.843 264.468C650.598 264.468 652.147 264.057 653.491 263.236C654.835 262.415 655.88 261.276 656.627 259.82C657.411 258.364 657.803 256.684 657.803 254.78C657.803 252.839 657.411 251.159 656.627 249.74C655.88 248.284 654.835 247.145 653.491 246.324C652.147 245.503 650.598 245.092 648.843 245.092C647.088 245.092 645.539 245.503 644.195 246.324C642.851 247.145 641.787 248.284 641.003 249.74C640.256 251.159 639.883 252.839 639.883 254.78ZM684.574 240.892V245.708H682.222C679.721 245.708 677.742 246.436 676.286 247.892C674.867 249.311 674.158 251.345 674.158 253.996V268.5H668.894V241.172H673.822L674.27 246.66H673.766C674.139 244.868 675.035 243.412 676.454 242.292C677.873 241.135 679.646 240.556 681.774 240.556C682.259 240.556 682.707 240.593 683.118 240.668C683.566 240.705 684.051 240.78 684.574 240.892ZM694.887 268.5H689.623V227.284H694.887V268.5ZM713.612 269.172C710.961 269.172 708.684 268.575 706.78 267.38C704.876 266.148 703.401 264.449 702.356 262.284C701.348 260.119 700.844 257.655 700.844 254.892C700.844 252.092 701.367 249.609 702.412 247.444C703.457 245.241 704.951 243.505 706.892 242.236C708.833 240.967 711.148 240.332 713.836 240.332C715.964 240.332 717.849 240.78 719.492 241.676C721.172 242.535 722.479 243.823 723.412 245.54V227.284H728.62V268.5H723.916L723.468 263.516C722.572 265.345 721.247 266.745 719.492 267.716C717.775 268.687 715.815 269.172 713.612 269.172ZM714.676 264.412C716.468 264.412 717.999 264.001 719.268 263.18C720.575 262.359 721.583 261.22 722.292 259.764C723.001 258.308 723.356 256.628 723.356 254.724C723.356 252.82 723.001 251.159 722.292 249.74C721.583 248.284 720.575 247.145 719.268 246.324C717.999 245.503 716.468 245.092 714.676 245.092C712.884 245.092 711.353 245.521 710.084 246.38C708.815 247.201 707.844 248.34 707.172 249.796C706.5 251.215 706.164 252.857 706.164 254.724C706.164 256.628 706.5 258.308 707.172 259.764C707.844 261.22 708.815 262.359 710.084 263.18C711.353 264.001 712.884 264.412 714.676 264.412ZM741.142 231.428L739.798 243.02H736.774L735.318 231.428C735.206 230.569 735.3 229.879 735.598 229.356C735.897 228.833 736.289 228.46 736.774 228.236C737.297 227.975 737.82 227.844 738.342 227.844C738.828 227.844 739.294 227.975 739.742 228.236C740.228 228.46 740.601 228.833 740.862 229.356C741.161 229.879 741.254 230.569 741.142 231.428ZM744.529 260.548H749.569C749.569 261.929 750.073 263.031 751.081 263.852C752.089 264.636 753.452 265.028 755.169 265.028C757.036 265.028 758.473 264.673 759.481 263.964C760.489 263.217 760.993 262.228 760.993 260.996C760.993 260.1 760.713 259.353 760.153 258.756C759.63 258.159 758.66 257.673 757.241 257.3L752.425 256.18C749.998 255.583 748.188 254.668 746.993 253.436C745.836 252.204 745.257 250.58 745.257 248.564C745.257 246.884 745.686 245.428 746.545 244.196C747.441 242.964 748.654 242.012 750.185 241.34C751.753 240.668 753.545 240.332 755.561 240.332C757.577 240.332 759.313 240.687 760.769 241.396C762.262 242.105 763.42 243.095 764.241 244.364C765.1 245.633 765.548 247.145 765.585 248.9H760.545C760.508 247.481 760.041 246.38 759.145 245.596C758.249 244.812 756.998 244.42 755.393 244.42C753.75 244.42 752.481 244.775 751.585 245.484C750.689 246.193 750.241 247.164 750.241 248.396C750.241 250.225 751.585 251.476 754.273 252.148L759.089 253.324C761.404 253.847 763.14 254.705 764.297 255.9C765.454 257.057 766.033 258.644 766.033 260.66C766.033 262.377 765.566 263.889 764.633 265.196C763.7 266.465 762.412 267.455 760.769 268.164C759.164 268.836 757.26 269.172 755.057 269.172C751.846 269.172 749.289 268.388 747.385 266.82C745.481 265.252 744.529 263.161 744.529 260.548ZM793.567 228.012V268.5H788.079V228.012H793.567ZM803.815 254.052H792.335V249.124H802.639C805.364 249.124 807.455 248.396 808.911 246.94C810.367 245.447 811.095 243.449 811.095 240.948C811.095 238.409 810.367 236.449 808.911 235.068C807.455 233.649 805.439 232.94 802.863 232.94H791.103V228.012H803.815C806.466 228.012 808.762 228.553 810.703 229.636C812.644 230.719 814.156 232.231 815.239 234.172C816.322 236.113 816.863 238.391 816.863 241.004C816.863 243.505 816.322 245.745 815.239 247.724C814.156 249.703 812.644 251.252 810.703 252.372C808.762 253.492 806.466 254.052 803.815 254.052ZM837.863 240.892V245.708H835.511C833.01 245.708 831.031 246.436 829.575 247.892C828.156 249.311 827.447 251.345 827.447 253.996V268.5H822.183V241.172H827.111L827.559 246.66H827.055C827.428 244.868 828.324 243.412 829.743 242.292C831.162 241.135 832.935 240.556 835.063 240.556C835.548 240.556 835.996 240.593 836.407 240.668C836.855 240.705 837.34 240.78 837.863 240.892ZM853.632 269.172C850.981 269.172 848.629 268.575 846.576 267.38C844.522 266.148 842.917 264.468 841.76 262.34C840.602 260.175 840.024 257.673 840.024 254.836C840.024 251.961 840.584 249.441 841.704 247.276C842.861 245.111 844.429 243.412 846.408 242.18C848.424 240.948 850.757 240.332 853.408 240.332C856.021 240.332 858.28 240.892 860.184 242.012C862.125 243.132 863.618 244.7 864.664 246.716C865.746 248.732 866.288 251.103 866.288 253.828V255.788L842.824 255.844L842.936 252.316H861.024C861.024 250.039 860.333 248.209 858.952 246.828C857.57 245.447 855.722 244.756 853.408 244.756C851.653 244.756 850.141 245.148 848.872 245.932C847.64 246.679 846.688 247.799 846.016 249.292C845.381 250.748 845.064 252.503 845.064 254.556C845.064 257.841 845.81 260.38 847.304 262.172C848.797 263.927 850.944 264.804 853.744 264.804C855.797 264.804 857.477 264.393 858.784 263.572C860.09 262.751 860.968 261.556 861.416 259.988H866.344C865.672 262.9 864.234 265.159 862.032 266.764C859.829 268.369 857.029 269.172 853.632 269.172ZM877.431 268.5H872.167V241.116H876.871L877.599 246.156L876.927 245.708C877.487 244.177 878.514 242.908 880.007 241.9C881.538 240.855 883.386 240.332 885.551 240.332C887.978 240.332 889.994 240.985 891.599 242.292C893.205 243.599 894.25 245.335 894.735 247.5H893.783C894.157 245.335 895.183 243.599 896.863 242.292C898.543 240.985 900.615 240.332 903.079 240.332C906.215 240.332 908.679 241.247 910.471 243.076C912.263 244.905 913.159 247.407 913.159 250.58V268.5H908.007V251.868C908.007 249.703 907.447 248.041 906.327 246.884C905.245 245.689 903.77 245.092 901.903 245.092C900.597 245.092 899.439 245.391 898.431 245.988C897.461 246.548 896.695 247.369 896.135 248.452C895.575 249.535 895.295 250.804 895.295 252.26V268.5H890.087V251.812C890.087 249.647 889.546 248.004 888.463 246.884C887.381 245.727 885.906 245.148 884.039 245.148C882.733 245.148 881.575 245.447 880.567 246.044C879.597 246.604 878.831 247.425 878.271 248.508C877.711 249.553 877.431 250.804 877.431 252.26V268.5ZM920.456 268.5V241.116H925.72V268.5H920.456ZM923.032 234.62C922.099 234.62 921.278 234.284 920.568 233.612C919.896 232.903 919.56 232.081 919.56 231.148C919.56 230.177 919.896 229.356 920.568 228.684C921.278 228.012 922.099 227.676 923.032 227.676C924.003 227.676 924.824 228.012 925.496 228.684C926.168 229.356 926.504 230.177 926.504 231.148C926.504 232.081 926.168 232.903 925.496 233.612C924.824 234.284 924.003 234.62 923.032 234.62ZM945.179 269.172C942.528 269.172 940.176 268.575 938.123 267.38C936.069 266.148 934.464 264.468 933.307 262.34C932.149 260.175 931.571 257.673 931.571 254.836C931.571 251.961 932.131 249.441 933.251 247.276C934.408 245.111 935.976 243.412 937.955 242.18C939.971 240.948 942.304 240.332 944.955 240.332C947.568 240.332 949.827 240.892 951.731 242.012C953.672 243.132 955.165 244.7 956.211 246.716C957.293 248.732 957.835 251.103 957.835 253.828V255.788L934.371 255.844L934.483 252.316H952.571C952.571 250.039 951.88 248.209 950.499 246.828C949.117 245.447 947.269 244.756 944.955 244.756C943.2 244.756 941.688 245.148 940.419 245.932C939.187 246.679 938.235 247.799 937.563 249.292C936.928 250.748 936.611 252.503 936.611 254.556C936.611 257.841 937.357 260.38 938.851 262.172C940.344 263.927 942.491 264.804 945.291 264.804C947.344 264.804 949.024 264.393 950.331 263.572C951.637 262.751 952.515 261.556 952.963 259.988H957.891C957.219 262.9 955.781 265.159 953.579 266.764C951.376 268.369 948.576 269.172 945.179 269.172ZM979.394 240.892V245.708H977.042C974.541 245.708 972.562 246.436 971.106 247.892C969.688 249.311 968.978 251.345 968.978 253.996V268.5H963.714V241.172H968.642L969.09 246.66H968.586C968.96 244.868 969.856 243.412 971.274 242.292C972.693 241.135 974.466 240.556 976.594 240.556C977.08 240.556 977.528 240.593 977.938 240.668C978.386 240.705 978.872 240.78 979.394 240.892ZM488.596 341.5H475.212V301.012H488.372C492.404 301.012 495.932 301.871 498.956 303.588C502.017 305.268 504.388 307.639 506.068 310.7C507.785 313.724 508.644 317.252 508.644 321.284C508.644 325.279 507.804 328.807 506.124 331.868C504.444 334.892 502.092 337.263 499.068 338.98C496.081 340.66 492.59 341.5 488.596 341.5ZM480.7 303.588V338.98L478.124 336.404H488.204C491.228 336.404 493.822 335.788 495.988 334.556C498.19 333.324 499.889 331.588 501.084 329.348C502.316 327.071 502.932 324.383 502.932 321.284C502.932 318.148 502.316 315.441 501.084 313.164C499.889 310.887 498.172 309.132 495.932 307.9C493.729 306.668 491.078 306.052 487.98 306.052H478.124L480.7 303.588ZM526.546 342.172C523.895 342.172 521.543 341.575 519.49 340.38C517.437 339.148 515.831 337.468 514.674 335.34C513.517 333.175 512.938 330.673 512.938 327.836C512.938 324.961 513.498 322.441 514.618 320.276C515.775 318.111 517.343 316.412 519.322 315.18C521.338 313.948 523.671 313.332 526.322 313.332C528.935 313.332 531.194 313.892 533.098 315.012C535.039 316.132 536.533 317.7 537.578 319.716C538.661 321.732 539.202 324.103 539.202 326.828V328.788L515.738 328.844L515.85 325.316H533.938C533.938 323.039 533.247 321.209 531.866 319.828C530.485 318.447 528.637 317.756 526.322 317.756C524.567 317.756 523.055 318.148 521.786 318.932C520.554 319.679 519.602 320.799 518.93 322.292C518.295 323.748 517.978 325.503 517.978 327.556C517.978 330.841 518.725 333.38 520.218 335.172C521.711 336.927 523.858 337.804 526.658 337.804C528.711 337.804 530.391 337.393 531.698 336.572C533.005 335.751 533.882 334.556 534.33 332.988H539.258C538.586 335.9 537.149 338.159 534.946 339.764C532.743 341.369 529.943 342.172 526.546 342.172ZM543.289 327.836C543.289 324.961 543.849 322.441 544.969 320.276C546.127 318.111 547.713 316.412 549.729 315.18C551.745 313.948 554.079 313.332 556.729 313.332C560.164 313.332 563.02 314.247 565.297 316.076C567.575 317.905 568.937 320.332 569.385 323.356H564.121C563.673 321.601 562.796 320.276 561.489 319.38C560.183 318.484 558.652 318.036 556.897 318.036C555.255 318.036 553.799 318.447 552.529 319.268C551.26 320.052 550.271 321.172 549.561 322.628C548.852 324.084 548.497 325.801 548.497 327.78C548.497 329.759 548.833 331.476 549.505 332.932C550.177 334.351 551.129 335.471 552.361 336.292C553.593 337.076 555.031 337.468 556.673 337.468C558.54 337.468 560.145 337.001 561.489 336.068C562.833 335.135 563.729 333.865 564.177 332.26H569.441C569.105 334.239 568.34 335.975 567.145 337.468C565.988 338.924 564.495 340.081 562.665 340.94C560.873 341.761 558.876 342.172 556.673 342.172C553.985 342.172 551.633 341.575 549.617 340.38C547.639 339.185 546.089 337.524 544.969 335.396C543.849 333.231 543.289 330.711 543.289 327.836ZM586.812 342.172C584.161 342.172 581.809 341.575 579.756 340.38C577.702 339.148 576.097 337.468 574.94 335.34C573.782 333.175 573.204 330.673 573.204 327.836C573.204 324.961 573.764 322.441 574.883 320.276C576.041 318.111 577.609 316.412 579.588 315.18C581.604 313.948 583.937 313.332 586.588 313.332C589.201 313.332 591.46 313.892 593.364 315.012C595.305 316.132 596.798 317.7 597.844 319.716C598.926 321.732 599.467 324.103 599.467 326.828V328.788L576.004 328.844L576.116 325.316H594.204C594.204 323.039 593.513 321.209 592.132 319.828C590.75 318.447 588.902 317.756 586.588 317.756C584.833 317.756 583.321 318.148 582.052 318.932C580.82 319.679 579.868 320.799 579.196 322.292C578.561 323.748 578.244 325.503 578.244 327.556C578.244 330.841 578.99 333.38 580.484 335.172C581.977 336.927 584.124 337.804 586.924 337.804C588.977 337.804 590.657 337.393 591.964 336.572C593.27 335.751 594.148 334.556 594.596 332.988H599.524C598.852 335.9 597.414 338.159 595.212 339.764C593.009 341.369 590.209 342.172 586.812 342.172ZM610.611 341.5H605.347V314.116H610.107L610.667 318.316C611.526 316.748 612.758 315.535 614.363 314.676C616.006 313.78 617.798 313.332 619.739 313.332C623.323 313.332 625.974 314.359 627.691 316.412C629.408 318.465 630.267 321.247 630.267 324.756V341.5H625.003V325.932C625.003 323.169 624.406 321.191 623.211 319.996C622.016 318.764 620.411 318.148 618.395 318.148C615.931 318.148 614.008 318.951 612.627 320.556C611.283 322.161 610.611 324.308 610.611 326.996V341.5ZM634.646 314.116H650.662V318.54H634.646V314.116ZM645.286 341.5H640.022V305.548H645.286V341.5ZM671.066 313.892V318.708H668.714C666.213 318.708 664.234 319.436 662.778 320.892C661.359 322.311 660.65 324.345 660.65 326.996V341.5H655.386V314.172H660.314L660.762 319.66H660.258C660.631 317.868 661.527 316.412 662.946 315.292C664.365 314.135 666.138 313.556 668.266 313.556C668.751 313.556 669.199 313.593 669.61 313.668C670.058 313.705 670.543 313.78 671.066 313.892ZM682.918 342.172C680.006 342.172 677.71 341.407 676.03 339.876C674.387 338.345 673.566 336.348 673.566 333.884C673.566 331.383 674.462 329.385 676.254 327.892C678.046 326.361 680.547 325.465 683.758 325.204L692.382 324.532V323.748C692.382 322.217 692.102 321.004 691.542 320.108C690.982 319.175 690.216 318.521 689.246 318.148C688.275 317.737 687.174 317.532 685.942 317.532C683.739 317.532 682.022 317.999 680.79 318.932C679.595 319.828 678.998 321.116 678.998 322.796H674.406C674.406 320.892 674.891 319.231 675.862 317.812C676.832 316.393 678.195 315.292 679.95 314.508C681.742 313.724 683.814 313.332 686.166 313.332C688.443 313.332 690.422 313.743 692.102 314.564C693.819 315.348 695.144 316.561 696.078 318.204C697.048 319.809 697.534 321.844 697.534 324.308V341.5H693.054L692.494 337.076C691.784 338.644 690.552 339.895 688.798 340.828C687.08 341.724 685.12 342.172 682.918 342.172ZM684.43 338.084C686.931 338.084 688.891 337.337 690.31 335.844C691.728 334.313 692.438 332.26 692.438 329.684V328.228L685.438 328.788C683.123 329.012 681.443 329.553 680.398 330.412C679.39 331.271 678.886 332.372 678.886 333.716C678.886 335.172 679.371 336.273 680.342 337.02C681.35 337.729 682.712 338.084 684.43 338.084ZM710.2 341.5H704.936V300.284H710.2V341.5ZM717.949 341.5V314.116H723.213V341.5H717.949ZM720.525 307.62C719.591 307.62 718.77 307.284 718.061 306.612C717.389 305.903 717.053 305.081 717.053 304.148C717.053 303.177 717.389 302.356 718.061 301.684C718.77 301.012 719.591 300.676 720.525 300.676C721.495 300.676 722.317 301.012 722.989 301.684C723.661 302.356 723.997 303.177 723.997 304.148C723.997 305.081 723.661 305.903 722.989 306.612C722.317 307.284 721.495 307.62 720.525 307.62ZM750.511 341.5H729.175V337.244L743.959 318.54H729.175V314.116H750.511V318.428L735.615 337.076H750.511V341.5ZM767.663 342.172C765.012 342.172 762.66 341.575 760.607 340.38C758.554 339.148 756.948 337.468 755.791 335.34C754.634 333.175 754.055 330.673 754.055 327.836C754.055 324.961 754.615 322.441 755.735 320.276C756.892 318.111 758.46 316.412 760.439 315.18C762.455 313.948 764.788 313.332 767.439 313.332C770.052 313.332 772.311 313.892 774.215 315.012C776.156 316.132 777.65 317.7 778.695 319.716C779.778 321.732 780.319 324.103 780.319 326.828V328.788L756.855 328.844L756.967 325.316H775.055C775.055 323.039 774.364 321.209 772.983 319.828C771.602 318.447 769.754 317.756 767.439 317.756C765.684 317.756 764.172 318.148 762.903 318.932C761.671 319.679 760.719 320.799 760.047 322.292C759.412 323.748 759.095 325.503 759.095 327.556C759.095 330.841 759.842 333.38 761.335 335.172C762.828 336.927 764.975 337.804 767.775 337.804C769.828 337.804 771.508 337.393 772.815 336.572C774.122 335.751 774.999 334.556 775.447 332.988H780.375C779.703 335.9 778.266 338.159 776.063 339.764C773.86 341.369 771.06 342.172 767.663 342.172ZM797.175 342.172C794.524 342.172 792.247 341.575 790.343 340.38C788.439 339.148 786.964 337.449 785.919 335.284C784.911 333.119 784.407 330.655 784.407 327.892C784.407 325.092 784.929 322.609 785.975 320.444C787.02 318.241 788.513 316.505 790.455 315.236C792.396 313.967 794.711 313.332 797.399 313.332C799.527 313.332 801.412 313.78 803.055 314.676C804.735 315.535 806.041 316.823 806.975 318.54V300.284H812.183V341.5H807.479L807.031 336.516C806.135 338.345 804.809 339.745 803.055 340.716C801.337 341.687 799.377 342.172 797.175 342.172ZM798.239 337.412C800.031 337.412 801.561 337.001 802.831 336.18C804.137 335.359 805.145 334.22 805.855 332.764C806.564 331.308 806.919 329.628 806.919 327.724C806.919 325.82 806.564 324.159 805.855 322.74C805.145 321.284 804.137 320.145 802.831 319.324C801.561 318.503 800.031 318.092 798.239 318.092C796.447 318.092 794.916 318.521 793.647 319.38C792.377 320.201 791.407 321.34 790.735 322.796C790.063 324.215 789.727 325.857 789.727 327.724C789.727 329.628 790.063 331.308 790.735 332.764C791.407 334.22 792.377 335.359 793.647 336.18C794.916 337.001 796.447 337.412 798.239 337.412ZM852.785 342.116C848.94 342.116 845.58 341.257 842.705 339.54C839.831 337.785 837.591 335.359 835.985 332.26C834.38 329.124 833.577 325.465 833.577 321.284C833.577 317.103 834.399 313.444 836.041 310.308C837.684 307.172 839.961 304.727 842.873 302.972C845.823 301.217 849.22 300.34 853.065 300.34C856.127 300.34 858.889 300.919 861.353 302.076C863.817 303.196 865.871 304.783 867.513 306.836C869.156 308.889 870.22 311.297 870.705 314.06H864.825C864.079 311.409 862.641 309.337 860.513 307.844C858.385 306.351 855.847 305.604 852.897 305.604C850.172 305.604 847.783 306.257 845.729 307.564C843.713 308.833 842.145 310.644 841.025 312.996C839.905 315.311 839.345 318.055 839.345 321.228C839.345 324.364 839.905 327.108 841.025 329.46C842.145 331.812 843.732 333.641 845.785 334.948C847.839 336.217 850.209 336.852 852.897 336.852C855.884 336.852 858.46 336.124 860.625 334.668C862.828 333.175 864.303 331.177 865.049 328.676H870.873C870.313 331.364 869.175 333.716 867.457 335.732C865.777 337.748 863.668 339.316 861.129 340.436C858.628 341.556 855.847 342.116 852.785 342.116ZM874.914 327.78C874.914 324.98 875.53 322.497 876.762 320.332C877.994 318.167 879.674 316.468 881.802 315.236C883.968 314.004 886.432 313.388 889.194 313.388C891.957 313.388 894.402 314.004 896.53 315.236C898.658 316.468 900.338 318.167 901.57 320.332C902.802 322.497 903.418 324.98 903.418 327.78C903.418 330.58 902.802 333.063 901.57 335.228C900.338 337.393 898.658 339.092 896.53 340.324C894.402 341.556 891.957 342.172 889.194 342.172C886.432 342.172 883.968 341.556 881.802 340.324C879.674 339.092 877.994 337.393 876.762 335.228C875.53 333.063 874.914 330.58 874.914 327.78ZM880.234 327.78C880.234 329.684 880.608 331.364 881.354 332.82C882.138 334.276 883.202 335.415 884.546 336.236C885.89 337.057 887.44 337.468 889.194 337.468C890.949 337.468 892.498 337.057 893.842 336.236C895.186 335.415 896.232 334.276 896.978 332.82C897.762 331.364 898.154 329.684 898.154 327.78C898.154 325.839 897.762 324.159 896.978 322.74C896.232 321.284 895.186 320.145 893.842 319.324C892.498 318.503 890.949 318.092 889.194 318.092C887.44 318.092 885.89 318.503 884.546 319.324C883.202 320.145 882.138 321.284 881.354 322.74C880.608 324.159 880.234 325.839 880.234 327.78ZM914.51 341.5H909.246V314.116H913.95L914.678 319.156L914.006 318.708C914.566 317.177 915.592 315.908 917.086 314.9C918.616 313.855 920.464 313.332 922.63 313.332C925.056 313.332 927.072 313.985 928.678 315.292C930.283 316.599 931.328 318.335 931.814 320.5H930.862C931.235 318.335 932.262 316.599 933.942 315.292C935.622 313.985 937.694 313.332 940.158 313.332C943.294 313.332 945.758 314.247 947.55 316.076C949.342 317.905 950.238 320.407 950.238 323.58V341.5H945.086V324.868C945.086 322.703 944.526 321.041 943.406 319.884C942.323 318.689 940.848 318.092 938.982 318.092C937.675 318.092 936.518 318.391 935.51 318.988C934.539 319.548 933.774 320.369 933.214 321.452C932.654 322.535 932.374 323.804 932.374 325.26V341.5H927.166V324.812C927.166 322.647 926.624 321.004 925.542 319.884C924.459 318.727 922.984 318.148 921.118 318.148C919.811 318.148 918.654 318.447 917.646 319.044C916.675 319.604 915.91 320.425 915.35 321.508C914.79 322.553 914.51 323.804 914.51 325.26V341.5ZM957.535 353.764V314.116H962.295L962.687 319.044C963.583 317.14 964.908 315.721 966.663 314.788C968.455 313.817 970.433 313.332 972.599 313.332C975.212 313.332 977.471 313.948 979.375 315.18C981.279 316.375 982.735 318.055 983.743 320.22C984.788 322.348 985.311 324.812 985.311 327.612C985.311 330.412 984.807 332.913 983.799 335.116C982.828 337.319 981.391 339.055 979.487 340.324C977.62 341.593 975.324 342.228 972.599 342.228C970.396 342.228 968.436 341.78 966.719 340.884C965.001 339.988 963.695 338.7 962.799 337.02V353.764H957.535ZM962.855 327.836C962.855 329.665 963.191 331.327 963.863 332.82C964.572 334.276 965.561 335.415 966.831 336.236C968.137 337.057 969.687 337.468 971.479 337.468C973.271 337.468 974.801 337.057 976.071 336.236C977.34 335.377 978.311 334.22 978.983 332.764C979.692 331.308 980.047 329.665 980.047 327.836C980.047 325.932 979.692 324.252 978.983 322.796C978.311 321.34 977.34 320.201 976.071 319.38C974.801 318.559 973.271 318.148 971.479 318.148C969.687 318.148 968.137 318.559 966.831 319.38C965.561 320.201 964.572 321.34 963.863 322.796C963.191 324.252 962.855 325.932 962.855 327.836ZM1009.38 314.116H1014.59V341.5H1009.89L1009.33 337.356C1008.54 338.775 1007.31 339.932 1005.63 340.828C1003.95 341.724 1002.1 342.172 1000.09 342.172C996.915 342.172 994.451 341.183 992.696 339.204C990.979 337.188 990.12 334.5 990.12 331.14V314.116H995.384V329.404C995.384 332.316 995.963 334.407 997.12 335.676C998.315 336.908 999.92 337.524 1001.94 337.524C1004.36 337.524 1006.21 336.777 1007.48 335.284C1008.75 333.753 1009.38 331.513 1009.38 328.564V314.116ZM1019.32 314.116H1035.33V318.54H1019.32V314.116ZM1029.96 341.5H1024.69V305.548H1029.96V341.5ZM1051.6 342.172C1048.95 342.172 1046.6 341.575 1044.54 340.38C1042.49 339.148 1040.89 337.468 1039.73 335.34C1038.57 333.175 1037.99 330.673 1037.99 327.836C1037.99 324.961 1038.55 322.441 1039.67 320.276C1040.83 318.111 1042.4 316.412 1044.38 315.18C1046.39 313.948 1048.73 313.332 1051.38 313.332C1053.99 313.332 1056.25 313.892 1058.15 315.012C1060.09 316.132 1061.59 317.7 1062.63 319.716C1063.72 321.732 1064.26 324.103 1064.26 326.828V328.788L1040.79 328.844L1040.9 325.316H1058.99C1058.99 323.039 1058.3 321.209 1056.92 319.828C1055.54 318.447 1053.69 317.756 1051.38 317.756C1049.62 317.756 1048.11 318.148 1046.84 318.932C1045.61 319.679 1044.66 320.799 1043.98 322.292C1043.35 323.748 1043.03 325.503 1043.03 327.556C1043.03 330.841 1043.78 333.38 1045.27 335.172C1046.77 336.927 1048.91 337.804 1051.71 337.804C1053.77 337.804 1055.45 337.393 1056.75 336.572C1058.06 335.751 1058.94 334.556 1059.38 332.988H1064.31C1063.64 335.9 1062.2 338.159 1060 339.764C1057.8 341.369 1055 342.172 1051.6 342.172ZM1085.82 313.892V318.708H1083.46C1080.96 318.708 1078.98 319.436 1077.53 320.892C1076.11 322.311 1075.4 324.345 1075.4 326.996V341.5H1070.14V314.172H1075.06L1075.51 319.66H1075.01C1075.38 317.868 1076.28 316.412 1077.7 315.292C1079.11 314.135 1080.89 313.556 1083.02 313.556C1083.5 313.556 1083.95 313.593 1084.36 313.668C1084.81 313.705 1085.29 313.78 1085.82 313.892ZM480.588 414.5H475.212V374.012H480.588L494.532 408.06L508.476 374.012H513.964V414.5H508.588V398.484C508.588 396.58 508.588 394.956 508.588 393.612C508.588 392.268 508.606 391.111 508.644 390.14C508.681 389.169 508.718 388.311 508.756 387.564C508.793 386.78 508.849 386.033 508.924 385.324L497.108 414.5H491.956L480.196 385.436C480.345 386.407 480.438 387.9 480.476 389.916C480.55 391.932 480.588 394.359 480.588 397.196V414.5ZM530.504 415.172C527.592 415.172 525.296 414.407 523.616 412.876C521.973 411.345 521.152 409.348 521.152 406.884C521.152 404.383 522.048 402.385 523.84 400.892C525.632 399.361 528.133 398.465 531.344 398.204L539.968 397.532V396.748C539.968 395.217 539.688 394.004 539.128 393.108C538.568 392.175 537.802 391.521 536.832 391.148C535.861 390.737 534.76 390.532 533.528 390.532C531.325 390.532 529.608 390.999 528.376 391.932C527.181 392.828 526.584 394.116 526.584 395.796H521.992C521.992 393.892 522.477 392.231 523.448 390.812C524.418 389.393 525.781 388.292 527.536 387.508C529.328 386.724 531.4 386.332 533.752 386.332C536.029 386.332 538.008 386.743 539.688 387.564C541.405 388.348 542.73 389.561 543.664 391.204C544.634 392.809 545.12 394.844 545.12 397.308V414.5H540.64L540.08 410.076C539.37 411.644 538.138 412.895 536.384 413.828C534.666 414.724 532.706 415.172 530.504 415.172ZM532.016 411.084C534.517 411.084 536.477 410.337 537.896 408.844C539.314 407.313 540.024 405.26 540.024 402.684V401.228L533.024 401.788C530.709 402.012 529.029 402.553 527.984 403.412C526.976 404.271 526.472 405.372 526.472 406.716C526.472 408.172 526.957 409.273 527.928 410.02C528.936 410.729 530.298 411.084 532.016 411.084ZM568.09 386.892V391.708H565.738C563.236 391.708 561.258 392.436 559.802 393.892C558.383 395.311 557.674 397.345 557.674 399.996V414.5H552.41V387.172H557.338L557.786 392.66H557.282C557.655 390.868 558.551 389.412 559.97 388.292C561.388 387.135 563.162 386.556 565.29 386.556C565.775 386.556 566.223 386.593 566.634 386.668C567.082 386.705 567.567 386.78 568.09 386.892ZM578.403 414.5H573.139V373.284H578.403V399.996L590.555 387.116H597.163L586.691 398.036L597.107 414.5H591.059L583.051 401.844L578.403 406.716V414.5ZM612.187 415.172C609.536 415.172 607.184 414.575 605.131 413.38C603.077 412.148 601.472 410.468 600.315 408.34C599.157 406.175 598.579 403.673 598.579 400.836C598.579 397.961 599.139 395.441 600.258 393.276C601.416 391.111 602.984 389.412 604.963 388.18C606.979 386.948 609.312 386.332 611.963 386.332C614.576 386.332 616.835 386.892 618.739 388.012C620.68 389.132 622.173 390.7 623.219 392.716C624.301 394.732 624.842 397.103 624.842 399.828V401.788L601.379 401.844L601.491 398.316H619.579C619.579 396.039 618.888 394.209 617.507 392.828C616.125 391.447 614.277 390.756 611.963 390.756C610.208 390.756 608.696 391.148 607.427 391.932C606.195 392.679 605.243 393.799 604.571 395.292C603.936 396.748 603.619 398.503 603.619 400.556C603.619 403.841 604.365 406.38 605.859 408.172C607.352 409.927 609.499 410.804 612.299 410.804C614.352 410.804 616.032 410.393 617.339 409.572C618.645 408.751 619.523 407.556 619.971 405.988H624.899C624.227 408.9 622.789 411.159 620.587 412.764C618.384 414.369 615.584 415.172 612.187 415.172ZM627.537 387.116H643.553V391.54H627.537V387.116ZM638.177 414.5H632.913V378.548H638.177V414.5ZM648.277 426.764V387.116H653.037L653.429 392.044C654.325 390.14 655.65 388.721 657.405 387.788C659.197 386.817 661.175 386.332 663.341 386.332C665.954 386.332 668.213 386.948 670.117 388.18C672.021 389.375 673.477 391.055 674.485 393.22C675.53 395.348 676.053 397.812 676.053 400.612C676.053 403.412 675.549 405.913 674.541 408.116C673.57 410.319 672.133 412.055 670.229 413.324C668.362 414.593 666.066 415.228 663.341 415.228C661.138 415.228 659.178 414.78 657.461 413.884C655.743 412.988 654.437 411.7 653.541 410.02V426.764H648.277ZM653.597 400.836C653.597 402.665 653.933 404.327 654.605 405.82C655.314 407.276 656.303 408.415 657.573 409.236C658.879 410.057 660.429 410.468 662.221 410.468C664.013 410.468 665.543 410.057 666.813 409.236C668.082 408.377 669.053 407.22 669.725 405.764C670.434 404.308 670.789 402.665 670.789 400.836C670.789 398.932 670.434 397.252 669.725 395.796C669.053 394.34 668.082 393.201 666.813 392.38C665.543 391.559 664.013 391.148 662.221 391.148C660.429 391.148 658.879 391.559 657.573 392.38C656.303 393.201 655.314 394.34 654.605 395.796C653.933 397.252 653.597 398.932 653.597 400.836ZM687.231 414.5H681.967V373.284H687.231V414.5ZM702.988 415.172C700.076 415.172 697.78 414.407 696.1 412.876C694.457 411.345 693.636 409.348 693.636 406.884C693.636 404.383 694.532 402.385 696.324 400.892C698.116 399.361 700.617 398.465 703.828 398.204L712.452 397.532V396.748C712.452 395.217 712.172 394.004 711.612 393.108C711.052 392.175 710.287 391.521 709.316 391.148C708.345 390.737 707.244 390.532 706.012 390.532C703.809 390.532 702.092 390.999 700.86 391.932C699.665 392.828 699.068 394.116 699.068 395.796H694.476C694.476 393.892 694.961 392.231 695.932 390.812C696.903 389.393 698.265 388.292 700.02 387.508C701.812 386.724 703.884 386.332 706.236 386.332C708.513 386.332 710.492 386.743 712.172 387.564C713.889 388.348 715.215 389.561 716.148 391.204C717.119 392.809 717.604 394.844 717.604 397.308V414.5H713.124L712.564 410.076C711.855 411.644 710.623 412.895 708.868 413.828C707.151 414.724 705.191 415.172 702.988 415.172ZM704.5 411.084C707.001 411.084 708.961 410.337 710.38 408.844C711.799 407.313 712.508 405.26 712.508 402.684V401.228L705.508 401.788C703.193 402.012 701.513 402.553 700.468 403.412C699.46 404.271 698.956 405.372 698.956 406.716C698.956 408.172 699.441 409.273 700.412 410.02C701.42 410.729 702.783 411.084 704.5 411.084ZM723.102 400.836C723.102 397.961 723.662 395.441 724.782 393.276C725.939 391.111 727.526 389.412 729.542 388.18C731.558 386.948 733.891 386.332 736.542 386.332C739.977 386.332 742.833 387.247 745.11 389.076C747.387 390.905 748.75 393.332 749.198 396.356H743.934C743.486 394.601 742.609 393.276 741.302 392.38C739.995 391.484 738.465 391.036 736.71 391.036C735.067 391.036 733.611 391.447 732.342 392.268C731.073 393.052 730.083 394.172 729.374 395.628C728.665 397.084 728.31 398.801 728.31 400.78C728.31 402.759 728.646 404.476 729.318 405.932C729.99 407.351 730.942 408.471 732.174 409.292C733.406 410.076 734.843 410.468 736.486 410.468C738.353 410.468 739.958 410.001 741.302 409.068C742.646 408.135 743.542 406.865 743.99 405.26H749.254C748.918 407.239 748.153 408.975 746.958 410.468C745.801 411.924 744.307 413.081 742.478 413.94C740.686 414.761 738.689 415.172 736.486 415.172C733.798 415.172 731.446 414.575 729.43 413.38C727.451 412.185 725.902 410.524 724.782 408.396C723.662 406.231 723.102 403.711 723.102 400.836ZM766.624 415.172C763.973 415.172 761.621 414.575 759.568 413.38C757.515 412.148 755.909 410.468 754.752 408.34C753.595 406.175 753.016 403.673 753.016 400.836C753.016 397.961 753.576 395.441 754.696 393.276C755.853 391.111 757.421 389.412 759.4 388.18C761.416 386.948 763.749 386.332 766.4 386.332C769.013 386.332 771.272 386.892 773.176 388.012C775.117 389.132 776.611 390.7 777.656 392.716C778.739 394.732 779.28 397.103 779.28 399.828V401.788L755.816 401.844L755.928 398.316H774.016C774.016 396.039 773.325 394.209 771.944 392.828C770.563 391.447 768.715 390.756 766.4 390.756C764.645 390.756 763.133 391.148 761.864 391.932C760.632 392.679 759.68 393.799 759.008 395.292C758.373 396.748 758.056 398.503 758.056 400.556C758.056 403.841 758.803 406.38 760.296 408.172C761.789 409.927 763.936 410.804 766.736 410.804C768.789 410.804 770.469 410.393 771.776 409.572C773.083 408.751 773.96 407.556 774.408 405.988H779.336C778.664 408.9 777.227 411.159 775.024 412.764C772.821 414.369 770.021 415.172 766.624 415.172Z" fill="#11181C"/>
<defs>
<linearGradient id="paint0_linear_3775_38026" x1="334.767" y1="401.011" x2="363.475" y2="366.562" gradientUnits="userSpaceOnUse">
<stop stop-color="#FF414C"/>
<stop offset="1" stop-color="#FF414C" stop-opacity="0"/>
</linearGradient>
</defs>
</svg>
