<svg width="440" height="263" viewBox="0 0 440 263" fill="none" xmlns="http://www.w3.org/2000/svg">
<rect x="0.410065" y="0.958893" width="439.18" height="261.622" rx="4.51072" fill="#232323"/>
<rect x="0.410065" y="0.958893" width="439.18" height="261.622" rx="4.51072" stroke="#2E2E2E" stroke-width="0.82013"/>
<rect x="75.0624" y="32.1445" width="111.299" height="104.594" rx="0.597409" fill="#2E2E2E" stroke="#1C1C1C" stroke-width="0.859242"/>
<rect x="79.1552" y="36.2372" width="103.111" height="96.4056" rx="0.770272" fill="#1C1C1C" stroke="#1C1C1C" stroke-width="0.513515"/>
<path d="M137.735 78.7419L135.395 78.7015H134.541L131.51 78.6207C131.065 78.6207 130.615 78.6207 130.176 78.6207C129.598 78.6383 129.02 78.5908 128.453 78.4792C128.276 78.4388 128.332 78.3377 128.493 78.2518C128.593 78.2044 128.698 78.1688 128.807 78.1457C128.95 78.1075 129.098 78.0904 129.246 78.0952C130.383 78.0952 131.535 78.0952 132.697 78.1407C133.394 78.176 134.122 78.1407 134.829 78.1407H137.184H138.629C139.361 78.1407 140.094 78.1407 140.822 78.1053C141.387 78.1053 141.938 78.0295 142.499 77.9941C142.62 77.9941 142.747 77.9941 142.873 77.9941C143.333 77.9941 143.504 78.0548 143.58 78.2569C143.58 78.3023 143.621 78.3478 143.631 78.3933C143.631 78.5499 143.464 78.656 143.126 78.6863C142.102 78.795 141.073 78.8489 140.044 78.848H137.735V78.7419Z" fill="white"/>
<path d="M125.327 104.271C125.761 104.271 121.84 105.448 121.123 104.503C120.406 103.558 120.729 98.9454 120.729 98.9454C120.729 98.9454 122.144 98.622 122.326 99.0869C122.507 99.5517 121.451 101.28 121.451 102.118C121.431 104.412 125.084 104.271 125.327 104.271Z" fill="white"/>
<path d="M135.305 104.272C135.745 104.272 131.824 105.449 131.101 104.504C130.379 103.559 130.707 98.9462 130.707 98.9462C130.707 98.9462 131.359 98.2287 131.541 98.6986C131.723 99.1685 131.435 101.28 131.435 102.139C131.435 104.413 135.083 104.272 135.305 104.272Z" fill="white"/>
<path d="M145.289 104.008C145.729 104.008 141.808 105.185 141.086 104.241C140.363 103.296 140.692 98.6828 140.692 98.6828C140.692 98.6828 141.343 97.9653 141.525 98.4301C141.707 98.895 141.419 101.017 141.419 101.876C141.419 104.134 145.067 104.008 145.289 104.008Z" fill="white"/>
<path d="M124.56 90.6098C124.994 90.6098 121.073 91.7871 120.356 90.8422C119.638 89.8974 120.305 85.0672 120.305 85.0672C120.305 85.0672 122.534 84.7287 122.721 85.1985C122.907 85.6684 121.205 87.6339 121.205 88.4877C121.215 90.7462 124.317 90.6098 124.56 90.6098Z" fill="white"/>
<path d="M149.906 53.8016C149.906 53.7663 149.906 53.7258 149.952 53.6804C149.997 53.6349 150.022 53.6804 150.033 53.6804L150.088 53.741C150.088 53.741 150.169 53.9785 150.194 54.0543C150.22 54.1268 150.24 54.2011 150.255 54.2766C150.285 54.4281 150.321 54.5797 150.351 54.7313C150.353 54.7666 150.353 54.8021 150.351 54.8374C150.361 54.9551 150.382 55.0717 150.412 55.186C150.406 55.2042 150.406 55.2234 150.412 55.2416C150.451 55.3686 150.48 55.4987 150.497 55.6306C150.497 55.7317 150.497 55.8378 150.497 55.9439C150.502 55.9569 150.502 55.9713 150.497 55.9843C150.485 56.0169 150.485 56.0528 150.497 56.0854V56.2167C150.5 56.2403 150.5 56.264 150.497 56.2875C150.497 56.2875 150.452 56.2875 150.447 56.2875C150.442 56.2875 150.422 56.2875 150.406 56.2875C150.359 56.2023 150.317 56.1146 150.28 56.0247C150.28 56.0247 150.189 55.6559 150.174 55.6155C150.172 55.5937 150.172 55.5716 150.174 55.5498C150.174 55.5498 150.093 55.2467 150.088 55.2365C150.078 55.1763 150.078 55.1149 150.088 55.0547C150.088 55.0547 150.088 55.0294 150.088 55.0142C150.064 54.9108 150.046 54.8063 150.033 54.701L150.002 54.5443C150 54.5344 150 54.524 150.002 54.514V54.4888C149.972 54.3625 149.957 54.2311 149.921 54.1098C149.921 54.0795 149.921 53.938 149.921 53.9027C149.921 53.8673 149.916 53.8168 149.906 53.8016Z" fill="white"/>
<path d="M149.045 55.3138C149.01 55.3391 148.965 55.3138 148.924 55.2633C148.884 55.2127 148.924 55.1925 148.924 55.1824L148.975 55.1269L149.298 55.0207C149.374 54.9952 149.452 54.975 149.531 54.9601L150.005 54.8591H150.112C150.234 54.8496 150.356 54.8293 150.475 54.7984H150.536C150.666 54.7591 150.8 54.7304 150.935 54.7125H151.258C151.266 54.7089 151.275 54.707 151.284 54.707C151.292 54.707 151.301 54.7089 151.309 54.7125C151.342 54.7227 151.377 54.7227 151.41 54.7125C151.456 54.7101 151.501 54.7101 151.546 54.7125C151.57 54.7102 151.594 54.7102 151.617 54.7125C151.617 54.7125 151.617 54.753 151.617 54.758C151.617 54.7631 151.617 54.7883 151.617 54.8035C151.617 54.8035 151.365 54.9248 151.339 54.9298L150.915 55.041H150.844L150.521 55.1269C150.458 55.1433 150.394 55.1518 150.329 55.1521C150.323 55.1498 150.317 55.1485 150.311 55.1485C150.305 55.1485 150.299 55.1498 150.293 55.1521C150.187 55.1521 150.076 55.1925 149.965 55.2077L149.803 55.2431H149.733C149.601 55.2734 149.47 55.2885 149.339 55.3239C149.339 55.3239 149.162 55.3239 149.126 55.3492C149.091 55.3744 149.076 55.3037 149.045 55.3138Z" fill="white"/>
<path d="M149.271 54.3732C149.23 54.3732 149.22 54.3227 149.23 54.257C149.237 54.2302 149.253 54.2068 149.276 54.1913C149.302 54.1862 149.33 54.1862 149.357 54.1913L149.629 54.3227C149.693 54.352 149.754 54.3875 149.811 54.4288L150.175 54.6662C150.203 54.6833 150.228 54.7036 150.251 54.7269C150.332 54.8009 150.422 54.8653 150.519 54.9189L150.569 54.9441C150.677 55.0007 150.781 55.0666 150.877 55.1412L151.095 55.3332C151.095 55.3332 151.095 55.3332 151.095 55.3635C151.095 55.3938 151.135 55.409 151.155 55.4292L151.251 55.51C151.267 55.5257 151.279 55.5447 151.287 55.5656C151.287 55.5656 151.287 55.606 151.261 55.606C151.236 55.606 151.261 55.606 151.261 55.6414C151.172 55.6227 151.086 55.5939 151.004 55.5555L150.66 55.3584C150.66 55.3584 150.63 55.3332 150.615 55.3231C150.599 55.313 150.367 55.1816 150.357 55.1715C150.305 55.1452 150.259 55.1091 150.221 55.0654C150.212 55.0632 150.204 55.0632 150.195 55.0654C150.109 55.0149 150.034 54.9542 149.953 54.8986L149.826 54.8128C149.725 54.7521 149.634 54.6763 149.528 54.6157C149.528 54.6157 149.412 54.5096 149.382 54.4944C149.351 54.4793 149.291 54.3732 149.271 54.3732Z" fill="white"/>
<path d="M149.71 55.9291C149.71 55.9695 149.66 55.9746 149.594 55.9594C149.528 55.9443 149.528 55.924 149.533 55.9089C149.531 55.8837 149.531 55.8583 149.533 55.8331C149.574 55.7466 149.62 55.6623 149.67 55.5805C149.702 55.5219 149.739 55.4661 149.781 55.4137L150.023 55.0853C150.041 55.061 150.061 55.0389 150.084 55.0196C150.159 54.9488 150.225 54.8691 150.281 54.7822C150.281 54.7822 150.281 54.7519 150.281 54.7367C150.339 54.6377 150.407 54.5447 150.483 54.4588L150.68 54.2668C150.68 54.2668 150.68 54.2668 150.71 54.2668C150.738 54.2569 150.762 54.2372 150.776 54.2112L150.887 54.1152H150.948C150.948 54.1152 150.988 54.1152 150.983 54.1152C150.978 54.1152 150.983 54.1152 151.019 54.1455C150.998 54.2297 150.967 54.3111 150.928 54.3881C150.928 54.3881 150.741 54.666 150.726 54.6963L150.685 54.7367C150.685 54.7367 150.539 54.9641 150.529 54.9742C150.518 54.9843 150.473 55.0651 150.422 55.0954C150.422 55.0954 150.306 55.2419 150.246 55.3127C150.185 55.3834 150.19 55.3885 150.16 55.4289C150.094 55.5198 150.018 55.6007 149.958 55.6967C149.958 55.6967 149.852 55.8028 149.836 55.828C149.821 55.8533 149.715 55.9139 149.71 55.9291Z" fill="white"/>
<path d="M159.047 62.5986C159.047 62.5734 159.047 62.5481 159.077 62.5229C159.095 62.5158 159.115 62.5158 159.133 62.5229L159.168 62.5633C159.168 62.5633 159.219 62.7047 159.239 62.7502C159.254 62.7966 159.265 62.8438 159.274 62.8917C159.274 62.9826 159.315 63.0786 159.33 63.1696C159.332 63.1914 159.332 63.2134 159.33 63.2353C159.334 63.3087 159.346 63.3815 159.365 63.4525C159.363 63.4642 159.363 63.4762 159.365 63.4879C159.39 63.5654 159.409 63.6448 159.421 63.7254C159.421 63.786 159.421 63.8517 159.421 63.9174C159.421 63.983 159.421 63.9174 159.421 63.9426C159.421 63.9679 159.421 63.983 159.421 64.0032C159.423 64.0301 159.423 64.0572 159.421 64.0841C159.421 64.0841 159.421 64.1144 159.421 64.1296C159.421 64.1447 159.39 64.1296 159.385 64.1296C159.355 64.0772 159.328 64.0233 159.305 63.9679C159.305 63.9679 159.244 63.7405 159.239 63.7153C159.237 63.7019 159.237 63.6882 159.239 63.6748C159.239 63.6748 159.188 63.4879 159.188 63.4828C159.181 63.4445 159.181 63.405 159.188 63.3666C159.188 63.3009 159.188 63.2403 159.158 63.1746C159.128 63.109 159.158 63.109 159.158 63.0736C159.16 63.0653 159.16 63.0566 159.158 63.0483C159.158 62.9725 159.158 62.8917 159.113 62.8159C159.115 62.7738 159.115 62.7317 159.113 62.6896C159.113 62.6896 159.052 62.6088 159.047 62.5986Z" fill="white"/>
<path d="M158.526 63.5282C158.526 63.5282 158.476 63.5282 158.451 63.4979C158.444 63.48 158.444 63.4601 158.451 63.4423L158.491 63.4069L158.688 63.3362L158.83 63.3008L159.123 63.2402H159.188C159.265 63.2358 159.341 63.224 159.416 63.2048C159.416 63.2048 159.416 63.2048 159.451 63.2048C159.532 63.1817 159.615 63.1648 159.699 63.1543H159.896H159.926C159.946 63.1592 159.967 63.1592 159.987 63.1543H160.072H160.118V63.1846C160.118 63.1846 160.118 63.1846 160.118 63.2149L159.946 63.2958L159.688 63.3665H159.643L159.446 63.417C159.407 63.4219 159.368 63.4219 159.33 63.417C159.263 63.4341 159.196 63.446 159.128 63.4524L159.027 63.4777H158.986C158.905 63.4777 158.824 63.5029 158.744 63.5282C158.7 63.5257 158.656 63.5257 158.612 63.5282C158.612 63.5282 158.536 63.5231 158.526 63.5282Z" fill="white"/>
<path d="M158.678 62.9513C158.678 62.9513 158.647 62.916 158.678 62.8756C158.708 62.8351 158.678 62.8301 158.713 62.8301H158.758L158.93 62.9109C158.971 62.9289 159.01 62.9509 159.046 62.9766L159.269 63.1181L159.314 63.1585C159.365 63.2017 159.419 63.2406 159.476 63.2747H159.506C159.572 63.3115 159.636 63.352 159.698 63.396L159.83 63.5172C159.832 63.527 159.836 63.5362 159.842 63.544C159.848 63.5519 159.856 63.5583 159.865 63.5627C159.886 63.5768 159.904 63.5938 159.92 63.6132C159.92 63.6132 159.92 63.6132 159.92 63.6486C159.92 63.684 159.92 63.6739 159.92 63.6739C159.92 63.6739 159.92 63.6739 159.92 63.6991C159.865 63.6878 159.811 63.6709 159.759 63.6486L159.552 63.5324C159.552 63.5324 159.552 63.5324 159.521 63.5071L159.36 63.4162C159.329 63.3987 159.302 63.3765 159.279 63.3505C159.226 63.3197 159.176 63.286 159.127 63.2494L159.051 63.1989C158.991 63.1585 158.935 63.113 158.87 63.0777C158.804 63.0423 158.799 63.012 158.779 63.0019C158.758 62.9918 158.678 62.9513 158.678 62.9513Z" fill="white"/>
<path d="M158.938 63.9072C158.938 63.9324 158.903 63.9324 158.863 63.9072C158.846 63.8995 158.832 63.8872 158.822 63.8718C158.82 63.855 158.82 63.838 158.822 63.8213C158.822 63.8213 158.883 63.7051 158.903 63.6646C158.924 63.629 158.947 63.5952 158.974 63.5636L159.12 63.3615L159.161 63.3211C159.205 63.2758 159.246 63.2268 159.282 63.1745C159.282 63.1745 159.282 63.1745 159.282 63.1442C159.318 63.0827 159.36 63.0251 159.408 62.9724L159.53 62.8562C159.546 62.8504 159.56 62.8398 159.57 62.8259L159.621 62.7754H159.656C159.643 62.8263 159.625 62.8754 159.6 62.9219C159.6 62.9219 159.489 63.0937 159.479 63.1139C159.481 63.1222 159.481 63.1308 159.479 63.1392L159.383 63.2857C159.367 63.3138 159.344 63.3379 159.317 63.3564C159.282 63.407 159.242 63.4474 159.206 63.4929C159.187 63.5143 159.17 63.538 159.156 63.5636C159.115 63.6242 159.065 63.6747 159.029 63.7303C158.994 63.7859 158.964 63.796 158.954 63.8112C158.943 63.8263 158.938 63.8971 158.938 63.9072Z" fill="white"/>
<path d="M108.516 62.0718C108.516 62.0415 108.516 62.0062 108.561 61.9708C108.607 61.9354 108.627 61.9708 108.632 61.9708C108.651 61.985 108.668 62.002 108.682 62.0213C108.682 62.0213 108.748 62.2133 108.773 62.2739C108.793 62.3333 108.808 62.3941 108.819 62.4558C108.819 62.5822 108.874 62.7034 108.9 62.8297C108.9 62.855 108.9 62.8853 108.9 62.9106C108.902 63.0082 108.917 63.1051 108.945 63.1986C108.94 63.2133 108.94 63.2293 108.945 63.244C108.975 63.3487 108.998 63.455 109.016 63.5623C109.016 63.6482 109.016 63.7291 109.016 63.815C109.018 63.8283 109.018 63.842 109.016 63.8554C109.016 63.8554 109.016 63.9059 109.016 63.9312C109.018 63.9682 109.018 64.0053 109.016 64.0423C109.018 64.0608 109.018 64.0795 109.016 64.0979C109.016 64.0979 108.98 64.0979 108.975 64.0979C108.97 64.0979 108.975 64.0979 108.935 64.0979C108.891 64.0302 108.855 63.9572 108.829 63.8807C108.829 63.8807 108.748 63.5826 108.738 63.5472C108.735 63.5304 108.735 63.5134 108.738 63.4967C108.738 63.4967 108.667 63.2491 108.667 63.244C108.66 63.1938 108.66 63.1427 108.667 63.0925C108.667 63.0925 108.667 63.0925 108.667 63.0621C108.667 62.9763 108.637 62.8904 108.622 62.8045C108.616 62.7602 108.607 62.7164 108.596 62.6731C108.599 62.6615 108.599 62.6494 108.596 62.6377C108.596 62.5367 108.561 62.4356 108.531 62.3346C108.5 62.2335 108.531 62.1931 108.531 62.1628C108.531 62.1325 108.526 62.082 108.516 62.0718Z" fill="white"/>
<path d="M107.828 63.3111C107.797 63.3111 107.762 63.3111 107.727 63.2656C107.691 63.2201 107.727 63.1999 107.727 63.1949C107.741 63.1756 107.758 63.1586 107.777 63.1444L108.04 63.0534C108.102 63.0313 108.167 63.0144 108.232 63.0029L108.616 62.922H108.707C108.808 62.9152 108.908 62.8983 109.005 62.8715C109.02 62.8759 109.036 62.8759 109.05 62.8715C109.158 62.8397 109.268 62.816 109.379 62.8008H109.642C109.642 62.8008 109.667 62.8008 109.682 62.8008C109.708 62.8109 109.737 62.8109 109.763 62.8008H109.879H109.935C109.935 62.8008 109.935 62.8361 109.935 62.8412C109.935 62.8463 109.935 62.8665 109.935 62.8766C109.864 62.9196 109.789 62.9568 109.712 62.9877L109.364 63.0787H109.308L109.045 63.1494C108.993 63.1571 108.941 63.1571 108.889 63.1494C108.889 63.1494 108.889 63.1494 108.858 63.1494C108.77 63.1711 108.681 63.188 108.591 63.1999L108.454 63.2252H108.399C108.293 63.2505 108.186 63.2606 108.08 63.2909H107.909C107.909 63.2909 107.843 63.301 107.828 63.3111Z" fill="white"/>
<path d="M108.011 62.5375C107.976 62.5375 107.971 62.4971 107.981 62.4415C107.991 62.3859 108.011 62.3809 108.022 62.3809H108.087L108.315 62.487L108.461 62.5729L108.759 62.7649L108.82 62.8154C108.887 62.8748 108.96 62.9273 109.037 62.972C109.037 62.972 109.062 62.972 109.078 62.972C109.167 63.0168 109.252 63.071 109.33 63.1337C109.386 63.1893 109.446 63.2398 109.507 63.2903C109.568 63.3408 109.507 63.2903 109.507 63.3156C109.517 63.3394 109.535 63.3591 109.558 63.3712C109.585 63.3903 109.61 63.4123 109.633 63.4368C109.646 63.4517 109.657 63.4689 109.664 63.4874C109.664 63.4874 109.664 63.5227 109.638 63.5227C109.613 63.5227 109.638 63.5227 109.638 63.553C109.564 63.5367 109.492 63.5148 109.421 63.4874C109.421 63.4874 109.163 63.3712 109.163 63.3611C109.149 63.352 109.137 63.3399 109.128 63.3257L108.891 63.2095C108.849 63.1846 108.812 63.154 108.779 63.1185C108.711 63.076 108.645 63.0287 108.582 62.9771L108.481 62.9114C108.481 62.9114 108.325 62.8002 108.239 62.7547C108.153 62.7093 108.143 62.6638 108.118 62.6537C108.092 62.6436 108.027 62.5425 108.011 62.5375Z" fill="white"/>
<path d="M108.378 63.8108C108.378 63.8411 108.338 63.8462 108.282 63.8108C108.259 63.803 108.239 63.7868 108.227 63.7653V63.7148C108.227 63.7148 108.312 63.5582 108.338 63.5077C108.362 63.4585 108.393 63.4126 108.429 63.3712L108.626 63.1035C108.64 63.0826 108.657 63.0639 108.676 63.0479C108.737 62.9881 108.791 62.9221 108.838 62.8508C108.842 62.8394 108.842 62.8269 108.838 62.8155C108.886 62.7342 108.941 62.658 109.005 62.5881L109.166 62.4315C109.175 62.4295 109.183 62.4295 109.192 62.4315C109.222 62.4315 109.232 62.4062 109.247 62.391L109.313 62.3203H109.363C109.363 62.3203 109.399 62.3203 109.399 62.3456C109.399 62.3708 109.399 62.3456 109.424 62.3708C109.404 62.44 109.378 62.5075 109.348 62.5729C109.348 62.5729 109.202 62.7953 109.187 62.8256L109.151 62.8559L109.03 63.0529C109.004 63.0885 108.973 63.1208 108.939 63.1489C108.895 63.2103 108.848 63.2693 108.797 63.3258C108.772 63.351 108.752 63.3864 108.727 63.4167C108.676 63.4925 108.611 63.5582 108.565 63.639C108.52 63.7199 108.474 63.7249 108.464 63.7451C108.454 63.7653 108.383 63.7957 108.378 63.8108Z" fill="white"/>
<path d="M121.549 91.9376H121.09H120.852H120.721C120.654 91.9307 120.589 91.9189 120.524 91.9022C120.394 91.8877 120.27 91.8407 120.163 91.7656C120.056 91.6906 119.97 91.5899 119.912 91.4727C119.84 91.379 119.785 91.2728 119.751 91.1595C119.72 91.077 119.695 90.9926 119.675 90.9068C119.609 90.681 119.557 90.4516 119.518 90.2197C119.472 89.8289 119.445 89.436 119.438 89.0425C119.438 88.6534 119.437 88.2644 119.478 87.8804C119.518 87.4964 119.478 87.1932 119.478 86.8699C119.459 86.4277 119.514 85.9855 119.64 85.5613C119.69 85.4248 119.837 85.4703 119.978 85.6017C120.153 85.7506 120.267 85.9596 120.296 86.1878C120.337 87.0366 120.337 87.8905 120.296 88.7545C120.284 89.2747 120.328 89.7948 120.428 90.3056C120.428 90.4471 120.478 90.5784 120.509 90.7098C120.522 90.7679 120.539 90.8252 120.559 90.8816C120.567 90.911 120.577 90.9397 120.589 90.9675C120.613 90.9934 120.645 91.0105 120.68 91.016C120.715 91.0215 120.751 91.0151 120.781 90.9978C120.909 91.0158 121.037 91.0259 121.165 91.0281C121.524 91.0281 121.888 91.0584 122.252 91.0584C122.802 91.0584 123.358 91.0281 123.904 90.9725C124.328 90.9321 124.738 90.8311 125.152 90.7502L125.425 90.6896C125.768 90.634 125.885 90.6896 125.981 90.9321C126.008 90.9841 126.032 91.0381 126.051 91.0938C126.102 91.2706 125.975 91.4424 125.728 91.5334C124.962 91.7475 124.173 91.8646 123.378 91.882C122.777 91.9123 122.176 91.882 121.565 91.9527L121.549 91.9376Z" fill="white"/>
<path d="M131.68 92.0347C131.498 92.0347 131.316 92.0347 131.124 92.0347H130.81C130.654 92.0091 130.5 91.9702 130.351 91.9184C130.273 91.8516 130.199 91.7808 130.128 91.7062L129.957 91.4435C129.917 91.3677 129.885 91.2882 129.861 91.206C129.836 91.1399 129.816 91.0724 129.8 91.0039C129.736 90.7797 129.685 90.552 129.648 90.3218C129.6 89.9311 129.571 89.5382 129.562 89.1446C129.562 88.7505 129.563 88.3665 129.603 87.9775C129.643 87.5884 129.603 87.2954 129.603 86.967C129.581 86.5247 129.636 86.0821 129.765 85.6584C129.81 85.527 129.957 85.5674 130.103 85.7038C130.276 85.8546 130.389 86.0626 130.421 86.2899C130.462 87.1387 130.462 87.9876 130.421 88.8566C130.408 89.3767 130.45 89.8967 130.548 90.4077C130.572 90.5782 130.608 90.747 130.654 90.913C130.684 90.9938 130.689 91.0393 130.704 91.0646C130.717 91.0995 130.738 91.1307 130.765 91.1555C130.815 91.1763 130.868 91.1867 130.922 91.1858C131.023 91.1858 131.134 91.1858 131.245 91.1858C131.599 91.1858 131.962 91.2161 132.326 91.1858C132.877 91.1858 133.433 91.1858 133.978 91.105C134.403 91.0595 134.817 90.9635 135.231 90.8776C135.322 90.8776 135.408 90.8321 135.504 90.822C135.843 90.7665 135.959 90.822 136.06 91.0646C136.085 91.1155 136.107 91.1678 136.126 91.2212C136.181 91.4031 136.055 91.5749 135.802 91.6658C135.037 91.8786 134.247 91.994 133.453 92.0094C132.852 92.0397 132.25 92.0094 131.644 92.0852L131.68 92.0347Z" fill="white"/>
<path d="M141.612 91.8892H141.152H140.915H140.778C140.713 91.8865 140.649 91.8763 140.586 91.8588C140.453 91.8386 140.327 91.7843 140.221 91.7011C140.114 91.6178 140.032 91.5086 139.98 91.3839C139.908 91.2902 139.853 91.184 139.818 91.0706C139.788 90.988 139.763 90.9036 139.743 90.818C139.677 90.5922 139.625 90.3628 139.586 90.1309C139.538 89.7485 139.51 89.3641 139.5 88.9789C139.5 88.5898 139.5 88.2008 139.535 87.8168C139.571 87.4328 139.535 87.1297 139.535 86.8063C139.514 86.3443 139.575 85.8822 139.717 85.4421C139.763 85.3057 139.909 85.3512 140.056 85.4825C140.23 85.6327 140.343 85.8411 140.374 86.0686C140.415 86.9175 140.415 87.7713 140.374 88.6353C140.362 89.1556 140.406 89.6756 140.505 90.1864C140.522 90.321 140.547 90.4543 140.581 90.5856C140.581 90.6513 140.622 90.7069 140.637 90.7624C140.645 90.7916 140.655 90.8203 140.667 90.8483C140.68 90.8754 140.7 90.8983 140.725 90.9144C140.75 90.9305 140.779 90.9391 140.809 90.9393C140.874 90.9393 141.066 90.9393 141.198 90.9696C141.551 90.9696 141.92 90.9999 142.284 90.9999C142.835 90.9999 143.39 90.9696 143.936 90.914C144.361 90.8736 144.77 90.7725 145.184 90.6917C145.275 90.6917 145.366 90.6462 145.457 90.6311C145.801 90.5755 145.912 90.6311 146.013 90.8736C146.039 90.9239 146.061 90.9763 146.078 91.0302C146.134 91.2121 146.008 91.3839 145.76 91.4748C144.992 91.6865 144.202 91.8036 143.406 91.8235C142.809 91.8235 142.208 91.8235 141.597 91.8942L141.612 91.8892Z" fill="white"/>
<path d="M142.151 105.439H141.691H141.459H141.322C141.256 105.436 141.19 105.426 141.125 105.409C140.996 105.392 140.874 105.344 140.767 105.269C140.661 105.194 140.574 105.095 140.514 104.979C140.442 104.884 140.387 104.776 140.352 104.661C140.321 104.579 140.295 104.494 140.277 104.408C140.211 104.184 140.159 103.956 140.12 103.726C140.073 103.335 140.046 102.942 140.039 102.549C140.039 102.155 140.039 101.771 140.079 101.382C140.12 100.993 140.079 100.7 140.079 100.371C140.056 99.9289 140.11 99.4859 140.241 99.0626C140.287 98.9313 140.433 98.9717 140.58 99.1081C140.753 99.2582 140.864 99.4669 140.893 99.6942C140.933 100.543 140.933 101.392 140.893 102.261C140.881 102.781 140.925 103.301 141.024 103.812C141.024 103.954 141.075 104.08 141.105 104.211C141.118 104.27 141.134 104.327 141.156 104.383C141.163 104.414 141.174 104.444 141.186 104.474C141.2 104.501 141.221 104.524 141.247 104.54C141.272 104.556 141.302 104.564 141.333 104.565C141.398 104.565 141.585 104.59 141.717 104.595C142.075 104.595 142.439 104.625 142.803 104.595C143.354 104.595 143.909 104.595 144.455 104.514C144.879 104.469 145.289 104.373 145.703 104.287C145.799 104.287 145.885 104.241 145.976 104.231C146.319 104.176 146.436 104.231 146.537 104.474C146.562 104.525 146.583 104.577 146.602 104.631C146.653 104.812 146.532 104.984 146.279 105.075C145.513 105.288 144.724 105.403 143.93 105.419C143.328 105.449 142.727 105.419 142.121 105.495L142.151 105.439Z" fill="white"/>
<path d="M131.904 105.757H131.348H131.035C130.878 105.735 130.724 105.698 130.575 105.646C130.496 105.578 130.422 105.506 130.353 105.428L130.181 105.171C130.141 105.093 130.109 105.012 130.085 104.928C130.061 104.864 130.041 104.798 130.024 104.731C129.964 104.494 129.903 104.271 129.868 104.044C129.817 103.645 129.802 103.256 129.787 102.867C129.772 102.478 129.787 102.089 129.827 101.705C129.868 101.321 129.827 101.017 129.827 100.694C129.806 100.252 129.861 99.8092 129.989 99.3855C130.035 99.2491 130.181 99.2945 130.328 99.4259C130.5 99.5775 130.612 99.7851 130.646 100.012C130.686 100.861 130.686 101.715 130.646 102.579C130.636 103.099 130.68 103.619 130.777 104.13C130.803 104.3 130.838 104.469 130.883 104.635C130.896 104.687 130.913 104.738 130.934 104.787C130.945 104.821 130.966 104.851 130.995 104.873C131.045 104.893 131.097 104.905 131.151 104.908H131.47C131.828 104.908 132.192 104.938 132.556 104.938C133.107 104.938 133.662 104.908 134.208 104.852C134.632 104.812 135.047 104.711 135.461 104.63C135.552 104.63 135.638 104.585 135.734 104.569C136.072 104.514 136.189 104.569 136.29 104.812C136.29 104.867 136.34 104.918 136.355 104.974C136.411 105.15 136.285 105.322 136.032 105.413C135.267 105.628 134.477 105.745 133.683 105.762C133.081 105.792 132.48 105.762 131.874 105.833L131.904 105.757Z" fill="white"/>
<path d="M121.758 105.746H121.299H121.066H120.93C120.863 105.743 120.797 105.733 120.733 105.716C120.604 105.699 120.481 105.651 120.374 105.576C120.268 105.501 120.181 105.402 120.121 105.286C120.049 105.191 119.994 105.083 119.96 104.968C119.928 104.886 119.903 104.801 119.884 104.715C119.818 104.491 119.766 104.263 119.727 104.033C119.677 103.634 119.662 103.245 119.646 102.851C119.631 102.457 119.646 102.073 119.687 101.689C119.727 101.305 119.687 101.002 119.687 100.678C119.663 100.236 119.718 99.7929 119.848 99.3697C119.894 99.2383 120.04 99.2787 120.187 99.4101C120.359 99.5629 120.471 99.7729 120.5 100.001C120.546 100.845 120.541 101.699 120.5 102.563C120.488 103.085 120.532 103.607 120.632 104.119C120.632 104.261 120.682 104.387 120.712 104.518C120.725 104.577 120.742 104.634 120.763 104.69C120.771 104.722 120.783 104.752 120.798 104.781C120.811 104.808 120.831 104.831 120.856 104.847C120.881 104.863 120.91 104.872 120.94 104.872C121.006 104.872 121.198 104.872 121.324 104.897C121.683 104.897 122.046 104.927 122.41 104.927C122.961 104.927 123.517 104.927 124.062 104.847C124.487 104.801 124.896 104.705 125.315 104.619C125.406 104.619 125.492 104.574 125.583 104.564C125.927 104.508 126.043 104.564 126.144 104.801C126.144 104.857 126.194 104.907 126.21 104.963C126.26 105.145 126.139 105.317 125.886 105.407C125.12 105.617 124.331 105.733 123.537 105.751C122.936 105.781 122.334 105.751 121.728 105.827L121.758 105.746Z" fill="white"/>
<path d="M151.654 91.6807C151.654 89.7405 151.654 87.7953 151.578 85.85C151.578 85.1427 151.502 84.4353 151.482 83.7229C151.414 81.2236 151.324 78.7226 151.209 76.2199C151.153 75.1084 151.057 73.9968 150.961 72.9004L150.78 70.7884C150.736 70.0722 150.758 69.3534 150.845 68.6411C150.886 68.1864 151.032 68.2521 151.254 68.6411C151.361 68.823 151.507 69.0756 151.669 69.3838C151.83 69.7275 151.946 70.0911 152.012 70.4651C152.336 73.3525 152.504 76.2551 152.518 79.1605C152.518 80.9137 152.684 82.7276 152.75 84.5111C152.816 86.4766 152.856 88.447 152.876 90.4125V94.0453C152.876 94.9648 152.846 95.8844 152.836 96.8039L152.76 99.5475C152.694 100.967 152.72 102.362 152.598 103.771C152.598 104.08 152.598 104.388 152.538 104.701C152.356 105.863 152.214 106.217 151.846 106.394C151.771 106.441 151.692 106.48 151.608 106.51C151.356 106.565 151.214 106.055 151.285 105.242C151.446 102.801 151.568 100.189 151.603 97.582C151.638 95.6368 151.659 93.6764 151.628 91.7211L151.654 91.6807Z" fill="white"/>
<path d="M114.132 96.4134C113.788 90.4564 113.682 84.4995 113.743 78.5426C113.768 76.37 113.783 74.1974 113.894 72.0248C113.964 70.0924 114.132 68.1648 114.4 66.2497C114.44 66.0072 114.501 65.7445 114.546 65.5121C114.608 65.2526 114.687 64.9977 114.784 64.7491C114.975 64.2577 115.228 63.7926 115.536 63.3647C116.175 62.5154 117.037 61.8609 118.027 61.4751C118.963 61.1154 119.944 60.8859 120.943 60.793C121.918 60.6818 122.878 60.6414 123.823 60.5808C125.742 60.4494 127.662 60.4343 129.572 60.4141C132.968 60.4141 136.378 60.4141 139.748 60.5353C141.927 60.5778 144.103 60.7329 146.266 61.0002C147.403 61.1355 148.494 61.5352 149.449 62.1673C149.931 62.504 150.337 62.9377 150.641 63.4405C150.941 63.9392 151.141 64.492 151.227 65.0674C151.256 65.3227 151.256 65.5802 151.227 65.8354C151.227 65.9971 151.182 66.0628 151.142 66.0577C151.101 66.0527 150.985 65.699 150.793 65.1685C150.549 64.474 150.129 63.8544 149.575 63.3698C148.778 62.7565 147.84 62.3534 146.847 62.1976C144.704 61.8935 142.544 61.7248 140.38 61.6924C138.187 61.6115 135.989 61.5761 133.786 61.561C129.392 61.4734 124.997 61.6219 120.619 62.0056C119.384 62.1166 118.202 62.5601 117.199 63.289C116.748 63.6813 116.375 64.1542 116.097 64.6835C115.97 64.9602 115.862 65.2456 115.774 65.5373C115.729 65.6866 115.694 65.8384 115.668 65.9921C115.642 66.1537 115.602 66.3053 115.582 66.4721C115.268 69.1557 115.1 71.8543 115.077 74.5561C114.925 80.513 115.001 86.4952 115.264 92.4572C115.44 96.1304 115.668 99.8036 116.143 103.426C116.309 104.788 116.562 106.139 116.901 107.468C116.975 107.758 117.084 108.038 117.224 108.302C117.403 108.527 117.627 108.712 117.881 108.848C118.465 109.157 119.084 109.394 119.725 109.555C122.407 110.166 125.144 110.504 127.895 110.566C132.133 110.712 136.377 110.602 140.602 110.237C141.532 110.161 142.436 110.06 143.366 109.964C146.822 109.595 147.852 109.459 148.651 109.585C148.833 109.616 149.07 109.585 149.201 109.621C149.333 109.656 149.333 109.702 149.232 109.833C149.059 110.022 148.849 110.173 148.615 110.278C147.691 110.677 146.717 110.951 145.72 111.091C141.839 111.69 137.92 112.009 133.993 112.046C131.972 112.081 129.987 112.046 127.961 111.97C125.919 111.889 123.883 111.699 121.862 111.399C121.092 111.281 120.328 111.124 119.573 110.929C118.764 110.745 117.982 110.46 117.244 110.08C116.783 109.835 116.382 109.49 116.072 109.07C115.979 108.935 115.902 108.792 115.839 108.641C115.789 108.514 115.769 108.433 115.733 108.332C115.668 108.135 115.592 107.933 115.546 107.741C115.339 106.987 115.17 106.223 115.041 105.452C114.536 102.421 114.309 99.4196 114.101 96.4134H114.132Z" fill="white"/>
<path d="M133.492 112.775C131.785 112.775 130.077 112.8 128.364 112.775C127.743 112.775 127.116 112.775 126.49 112.74C124.285 112.64 122.09 112.383 119.921 111.972C118.953 111.788 117.995 111.553 117.052 111.269C115.811 110.952 114.657 110.363 113.671 109.547C113.373 109.274 113.53 109.178 113.914 109.198C114.153 109.211 114.39 109.248 114.621 109.309C114.925 109.379 115.221 109.479 115.505 109.607C117.785 110.524 120.178 111.128 122.619 111.401C124.15 111.58 125.691 111.663 127.232 111.648C128.93 111.679 130.638 111.648 132.346 111.648C133.396 111.628 134.449 111.6 135.503 111.562L140.288 111.386C141.526 111.335 142.734 111.224 143.982 111.219C144.254 111.204 144.527 111.204 144.8 111.219C145.17 111.235 145.536 111.305 145.886 111.426C146.076 111.507 146.228 111.657 146.311 111.845C146.349 111.921 146.379 112.001 146.402 112.083C146.437 112.33 146.013 112.442 145.31 112.457C143.214 112.492 140.94 112.583 138.651 112.664L133.508 112.826L133.492 112.775Z" fill="white"/>
<path d="M118.291 110.982L117.361 110.673C117.25 110.638 117.134 110.633 117.018 110.593C116.624 110.451 116.23 110.305 115.841 110.128C115.669 110.057 115.492 110.001 115.335 109.946C115.091 109.899 114.863 109.789 114.673 109.628C114.618 109.572 114.704 109.43 114.835 109.299C114.966 109.168 115.123 109.046 115.239 109.067C115.683 109.131 116.116 109.253 116.528 109.43C116.794 109.533 117.073 109.601 117.356 109.633L118.281 109.855C118.473 109.9 118.66 109.946 118.852 109.981C119.14 110.051 119.432 110.107 119.726 110.148C119.961 110.151 120.195 110.139 120.428 110.113C120.48 110.11 120.533 110.11 120.585 110.113C120.777 110.113 120.822 110.214 120.807 110.522C120.812 110.591 120.812 110.66 120.807 110.729C120.809 110.823 120.785 110.917 120.737 110.998C120.688 111.079 120.618 111.145 120.534 111.189C120.12 111.304 119.684 111.321 119.261 111.239C118.942 111.184 118.627 111.112 118.316 111.022L118.291 110.982Z" fill="white"/>
<path d="M133.302 65.3822C135.007 65.3822 136.711 65.3957 138.416 65.4226C139.042 65.4226 139.664 65.4226 140.285 65.4226C141.386 65.4732 142.488 65.5388 143.599 65.6702C144.172 65.731 144.737 65.8477 145.287 66.0188L145.514 66.1148C145.604 66.1488 145.687 66.1965 145.762 66.2563C145.91 66.366 146.034 66.5054 146.126 66.6656C146.212 66.802 146.267 66.9384 146.343 67.0748L146.495 67.4942C146.78 68.4558 146.95 69.448 147 70.4499C147.105 71.7176 146.974 72.9936 146.616 74.214C146.444 74.5829 146.363 74.4869 146.277 74.1332C146.161 73.5989 146.107 73.053 146.116 72.5063C146.116 71.8949 146.116 71.2836 146.06 70.6773C146.035 70.0742 145.971 69.4734 145.868 68.8786C145.787 68.3231 145.627 67.782 145.393 67.2719C145.368 67.223 145.338 67.1773 145.302 67.1354L145.257 67.0698L145.408 66.9283L145.363 66.9586C145.317 66.999 145.242 67.0799 145.257 67.0597C145.272 67.0394 145.125 66.999 145.039 66.9637C144.762 66.8851 144.48 66.8227 144.196 66.7767C142.677 66.568 141.145 66.4751 139.613 66.4988C137.91 66.4635 136.203 66.4584 134.49 66.4685L131.332 66.5039C129.735 66.5342 128.134 66.5544 126.552 66.6251C125.319 66.6757 124.117 66.7969 122.894 66.8677C122.626 66.8677 122.389 66.9131 122.091 66.9182C121.08 66.9536 120.742 66.8171 120.54 66.5291C120.49 66.467 120.447 66.3992 120.413 66.327C120.348 66.1047 120.737 65.9582 121.459 65.8673C123.602 65.6601 125.9 65.5338 128.199 65.458C129.912 65.4024 131.63 65.3721 133.348 65.3418L133.302 65.3822Z" fill="white"/>
<path d="M119.044 73.415L119.15 71.8234C119.15 71.6314 119.15 71.4344 119.15 71.2424C119.226 70.5704 119.296 69.8933 119.372 69.2213C119.403 68.9232 119.418 68.6251 119.433 68.322C119.433 67.9276 119.494 67.5355 119.615 67.1599C119.686 66.9932 119.766 67.1094 119.862 67.2155C119.991 67.3548 120.071 67.5321 120.09 67.7207C120.11 68.4959 120.068 69.2715 119.963 70.0399C119.898 70.5097 119.923 70.9948 119.903 71.4748L119.862 73.0512C119.862 73.3745 119.862 73.6979 119.862 74.0162C119.862 74.5215 119.862 74.9964 119.938 75.4814C119.99 75.8502 120.067 76.2149 120.171 76.5728C120.171 76.6536 120.221 76.7294 120.236 76.8103C120.292 77.1084 120.236 77.2145 120.019 77.3155C119.97 77.3432 119.92 77.3669 119.867 77.3862C119.696 77.4469 119.524 77.3509 119.423 77.1286C119.165 76.4566 119.024 75.746 119.003 75.0267C118.978 74.4861 119.003 73.9455 119.003 73.4099L119.044 73.415Z" fill="white"/>
<path d="M135.798 78.3678L132.069 78.4335C131.614 78.4335 131.164 78.4739 130.705 78.4689C129.128 78.4234 127.552 78.5598 125.94 78.6407C125.228 78.676 124.51 78.7114 123.798 78.7064C122.872 78.7188 121.953 78.547 121.095 78.2011C120.832 78.095 120.888 78.0596 121.135 78.0445C121.261 78.0445 121.433 78.0445 121.64 78.0445C121.874 78.0261 122.109 78.0261 122.343 78.0445C122.786 78.0773 123.232 78.0875 123.677 78.0748C124.126 78.0748 124.576 78.0748 125.026 78.0445L127.779 77.8676L129.482 77.7464C129.77 77.7464 130.058 77.711 130.351 77.7009L131.2 77.6756L134.929 77.4584L137.248 77.3573C138.41 77.3068 139.582 77.2765 140.739 77.2108C141.638 77.1603 142.517 77.0491 143.412 76.9935C143.604 76.9935 143.801 76.9531 143.998 76.9531C144.736 76.9531 144.973 77.0744 145.125 77.3119C145.161 77.3604 145.195 77.411 145.226 77.4634C145.291 77.6049 144.988 77.8171 144.463 77.9081C142.833 78.1117 141.194 78.2264 139.552 78.2516L135.803 78.3678H135.798Z" fill="white"/>
<path d="M119.773 90.3458C119.605 89.3939 119.537 88.4269 119.571 87.4608C119.571 87.1122 119.571 86.7635 119.601 86.4149C119.632 86.0663 119.672 85.7985 119.733 85.4852L119.788 85.2427C119.818 85.1231 119.859 85.0064 119.91 84.8941C119.969 84.7895 120.049 84.6985 120.146 84.6271C120.243 84.5557 120.353 84.5055 120.471 84.4798C120.79 84.4002 121.117 84.3528 121.446 84.3383C121.749 84.3383 122.052 84.3029 122.355 84.2928L123.957 84.2474C124.651 84.1936 125.349 84.2551 126.023 84.4293C126.281 84.5404 126.139 84.6516 125.947 84.7627C125.683 84.9289 125.38 85.0262 125.068 85.0457C123.745 85.1012 122.355 85.1316 121.072 85.2629C120.981 85.2629 120.89 85.2932 120.804 85.3084C120.773 85.3121 120.742 85.3206 120.713 85.3337C120.657 85.3791 120.668 85.4044 120.612 85.6368C120.55 86.0386 120.51 86.4434 120.491 86.8494C120.431 87.7554 120.449 88.6649 120.546 89.5677C120.579 89.8361 120.627 90.1026 120.688 90.366C120.774 90.6338 120.799 90.7853 120.966 90.7955C121.051 90.8007 121.138 90.8007 121.223 90.7955H122.198C122.628 90.7955 123.062 90.7955 123.487 90.7399C124.154 90.6894 124.806 90.5782 125.457 90.4822C125.599 90.4822 125.74 90.4317 125.887 90.4165C126.422 90.3458 126.599 90.4165 126.741 90.6287C126.774 90.6793 126.804 90.7316 126.832 90.7854C126.907 90.9672 126.7 91.1491 126.326 91.2502C125.11 91.4974 123.874 91.6311 122.633 91.6493C122.158 91.6493 121.693 91.6493 121.193 91.6493H120.996L120.663 91.5887C120.557 91.561 120.458 91.5129 120.372 91.447C120.285 91.3811 120.212 91.2988 120.157 91.2047C120.056 91.0586 119.976 90.8987 119.92 90.7298C119.873 90.6026 119.834 90.4726 119.804 90.3407L119.773 90.3458Z" fill="white"/>
<path d="M127.135 87.066C127.135 87.3237 127.094 87.5712 127.089 87.8542C127.089 87.9502 127.089 88.0411 127.089 88.1371C127.089 88.4756 127.054 88.8243 127.034 89.1476C127.021 89.2989 127.021 89.451 127.034 89.6024C127.064 89.8013 127.052 90.0046 126.998 90.1986C126.998 90.2642 126.852 90.239 126.731 90.1986C126.609 90.1581 126.468 90.0672 126.448 89.9611C126.35 89.5852 126.326 89.1941 126.377 88.8091C126.391 88.566 126.379 88.3222 126.341 88.0815C126.341 87.8188 126.341 87.5763 126.341 87.2832C126.341 87.1165 126.341 86.9548 126.341 86.778C126.341 86.5304 126.341 86.2727 126.341 86.0302C126.341 85.7877 126.276 85.6412 126.256 85.434C126.248 85.3872 126.248 85.3394 126.256 85.2925C126.257 85.2561 126.267 85.2205 126.284 85.1885C126.302 85.1564 126.326 85.1288 126.356 85.1078C126.386 85.0868 126.42 85.073 126.456 85.0673C126.492 85.0617 126.529 85.0644 126.564 85.0753H126.685C126.802 85.1127 126.903 85.1872 126.973 85.2875C127.056 85.427 127.101 85.5853 127.104 85.7473C127.125 85.9149 127.135 86.0837 127.135 86.2525C127.135 86.5153 127.135 86.7578 127.135 87.0357V87.066Z" fill="white"/>
<path d="M129.884 90.1947C129.713 89.2432 129.645 88.2759 129.682 87.3097C129.682 86.9611 129.682 86.6125 129.712 86.2639C129.712 86.0415 129.757 85.8142 129.798 85.5868C129.798 85.4757 129.838 85.3595 129.864 85.2432L129.909 85.0563C129.934 84.9704 129.96 84.8845 129.99 84.7986C130.057 84.6638 130.156 84.5473 130.279 84.4593C130.401 84.3713 130.543 84.3144 130.692 84.2934C130.894 84.249 131.098 84.2186 131.303 84.2024C131.698 84.162 132.082 84.1468 132.466 84.1367L134.062 84.0913C134.758 84.0372 135.458 84.0987 136.134 84.2732C136.391 84.3843 136.245 84.4955 136.058 84.6066C135.793 84.7728 135.491 84.8701 135.179 84.8896C133.855 84.9452 132.466 84.9704 131.182 85.1068C130.879 85.1675 130.823 85.1371 130.783 85.2281L130.758 85.3089C130.758 85.3696 130.758 85.4251 130.722 85.4908C130.687 85.5565 130.682 85.7485 130.667 85.8799C130.637 86.1477 130.616 86.4205 130.601 86.6933C130.539 87.5993 130.557 88.509 130.657 89.4116C130.685 89.6563 130.727 89.8992 130.783 90.1392C130.811 90.2597 130.848 90.3779 130.894 90.4928C130.915 90.559 130.958 90.6161 131.015 90.6545C131.041 90.6569 131.066 90.6569 131.091 90.6545C131.177 90.6598 131.263 90.6598 131.349 90.6545H132.314C132.743 90.6545 133.173 90.6545 133.602 90.5939C134.269 90.5484 134.916 90.4373 135.568 90.3413L135.997 90.2705C136.538 90.2048 136.71 90.2705 136.851 90.4878C136.888 90.5372 136.92 90.5896 136.947 90.6444C137.018 90.8263 136.816 91.0082 136.442 91.1092C135.226 91.3545 133.989 91.4881 132.748 91.5084C132.44 91.5084 132.132 91.5084 131.814 91.5084H131.309H131.182C131.127 91.5141 131.071 91.5141 131.015 91.5084C130.868 91.489 130.723 91.4569 130.581 91.4124C130.452 91.3329 130.34 91.2281 130.253 91.1042C130.202 91.0445 130.159 90.9782 130.126 90.9071C130.097 90.8593 130.074 90.8085 130.055 90.7556C129.985 90.5747 129.927 90.389 129.884 90.1998V90.1947Z" fill="white"/>
<path d="M137.226 86.9161C137.226 87.1738 137.185 87.4213 137.175 87.6992C137.175 87.7952 137.175 87.8912 137.175 87.9872C137.175 88.3257 137.135 88.6744 137.12 88.9977C137.109 89.1491 137.109 89.301 137.12 89.4524C137.152 89.6511 137.142 89.8543 137.089 90.0486C137.089 90.1143 136.943 90.0891 136.816 90.0486C136.69 90.0082 136.559 89.9173 136.539 89.8112C136.441 89.4353 136.417 89.0442 136.468 88.6592C136.488 88.4188 136.488 88.1771 136.468 87.9367C136.468 87.6689 136.468 87.4011 136.468 87.1384C136.468 86.9717 136.468 86.8049 136.468 86.6331C136.468 86.3856 136.468 86.1279 136.468 85.8854C136.468 85.6428 136.402 85.4963 136.377 85.2892C136.374 85.242 136.374 85.1948 136.377 85.1477C136.378 85.1107 136.388 85.0744 136.406 85.0419C136.423 85.0094 136.448 84.9814 136.479 84.9603C136.509 84.9392 136.544 84.9255 136.581 84.9203C136.618 84.9151 136.655 84.9186 136.69 84.9304H136.811C136.925 84.9681 137.024 85.0406 137.094 85.1376C137.175 85.2798 137.222 85.439 137.231 85.6024C137.231 85.7691 137.231 85.9359 137.261 86.1077C137.261 86.3653 137.261 86.6129 137.261 86.8858L137.226 86.9161Z" fill="white"/>
<path d="M139.895 90.0437C139.726 89.092 139.66 88.1247 139.698 87.1587C139.698 86.8101 139.698 86.4615 139.698 86.1129C139.698 85.8905 139.749 85.6632 139.784 85.4358C139.784 85.3247 139.824 85.2084 139.85 85.0922L139.895 84.9103C139.926 84.8194 139.946 84.7335 139.976 84.6476C140.044 84.5121 140.144 84.3953 140.267 84.3072C140.39 84.2192 140.533 84.1626 140.683 84.1424C140.883 84.0984 141.086 84.0681 141.29 84.0514C141.684 84.011 142.068 83.9958 142.452 83.9857L144.079 83.9251C144.773 83.8713 145.471 83.9328 146.145 84.107C146.408 84.2182 146.261 84.3293 146.074 84.4405C145.808 84.6064 145.504 84.7037 145.19 84.7234C143.867 84.779 142.482 84.8093 141.194 84.9407C140.891 85.0013 140.835 84.971 140.795 85.0619C140.754 85.1529 140.795 85.0922 140.795 85.1428C140.795 85.1933 140.795 85.264 140.754 85.3247C140.714 85.3853 140.714 85.5823 140.699 85.7137C140.668 85.9815 140.653 86.2543 140.633 86.5272C140.576 87.4332 140.594 88.3425 140.688 89.2454C140.722 89.5138 140.769 89.7803 140.83 90.0437C140.916 90.3115 140.946 90.4631 141.113 90.4732C141.199 90.4787 141.285 90.4787 141.371 90.4732H142.331C142.765 90.4732 143.195 90.4479 143.624 90.4176C144.286 90.3671 144.938 90.2559 145.589 90.1599L146.019 90.0892C146.554 90.0235 146.731 90.0892 146.873 90.3065C146.903 90.362 146.944 90.4126 146.969 90.4631C147.04 90.645 146.832 90.8269 146.438 90.9279C145.222 91.1754 143.986 91.3091 142.745 91.3271C142.27 91.3271 141.805 91.3271 141.305 91.3271H141.108L140.774 91.2664C140.562 91.2096 140.381 91.0717 140.269 90.8824C140.168 90.7364 140.088 90.5764 140.032 90.4075C139.986 90.2711 139.946 90.1448 139.915 90.0185L139.895 90.0437Z" fill="white"/>
<path d="M147.245 86.7641C147.245 87.0217 147.21 87.2693 147.2 87.5523C147.2 87.6483 147.2 87.7392 147.2 87.8352C147.2 88.1737 147.159 88.5223 147.139 88.8457C147.129 88.9971 147.129 89.149 147.139 89.3004C147.172 89.4993 147.16 89.7031 147.104 89.8966C147.104 89.9623 146.962 89.9371 146.836 89.8966C146.709 89.8562 146.578 89.7653 146.553 89.6592C146.457 89.2829 146.435 88.8918 146.487 88.5072C146.5 88.2659 146.489 88.024 146.457 87.7847C146.457 87.5219 146.457 87.2794 146.457 86.9864C146.457 86.8196 146.457 86.6529 146.457 86.4811C146.457 86.2335 146.457 85.9759 146.457 85.7333C146.457 85.4908 146.396 85.3443 146.371 85.1371C146.366 85.0901 146.366 85.0427 146.371 84.9957C146.372 84.9592 146.382 84.9236 146.4 84.8916C146.417 84.8596 146.442 84.832 146.471 84.811C146.501 84.7899 146.535 84.7761 146.571 84.7704C146.607 84.7648 146.644 84.7675 146.679 84.7784H146.8C146.916 84.8145 147.017 84.8872 147.088 84.9856C147.169 85.1278 147.216 85.2869 147.225 85.4504C147.225 85.6171 147.225 85.7839 147.25 85.9557C147.25 86.2184 147.25 86.4609 147.25 86.7388L147.245 86.7641Z" fill="white"/>
<path d="M120.016 103.963C119.847 103.009 119.779 102.041 119.813 101.073C119.813 100.729 119.813 100.381 119.844 100.032C119.844 99.8098 119.894 99.5824 119.93 99.3551C119.93 99.2439 119.97 99.1277 119.995 99.0115L120.041 98.8245C120.066 98.7386 120.091 98.6528 120.122 98.5669C120.19 98.4331 120.29 98.3175 120.412 98.2296C120.534 98.1418 120.675 98.0842 120.824 98.0616C121.026 98.022 121.23 97.9933 121.435 97.9757C121.829 97.9353 122.213 97.9201 122.597 97.91L124.199 97.8646C124.893 97.8108 125.591 97.8722 126.266 98.0464C126.523 98.1576 126.382 98.2688 126.19 98.3799C125.925 98.5461 125.623 98.6433 125.311 98.6629C123.987 98.7184 122.597 98.7437 121.314 98.8801C121.011 98.9407 120.955 98.9104 120.915 99.0014C120.874 99.0923 120.915 99.0014 120.915 99.0772C120.915 99.153 120.885 99.1984 120.874 99.2641C120.864 99.3298 120.834 99.5218 120.819 99.6532C120.789 99.9209 120.768 100.194 120.753 100.462C120.693 101.369 120.712 102.28 120.809 103.185C120.839 103.432 120.885 103.69 120.935 103.912C120.959 104.023 120.993 104.131 121.036 104.236C121.055 104.302 121.096 104.359 121.152 104.397C121.178 104.4 121.203 104.4 121.228 104.397C121.263 104.397 121.385 104.397 121.486 104.397H122.451C122.88 104.397 123.315 104.397 123.739 104.337C124.406 104.291 125.058 104.18 125.71 104.084L126.139 104.013C126.675 103.943 126.852 104.013 126.993 104.231C127.026 104.281 127.056 104.334 127.084 104.387C127.16 104.564 126.953 104.751 126.579 104.852C125.362 105.097 124.126 105.231 122.885 105.251C122.572 105.251 122.264 105.251 121.946 105.251H121.466H121.339C121.284 105.257 121.228 105.257 121.173 105.251C121.027 105.23 120.884 105.198 120.743 105.155C120.612 105.076 120.499 104.971 120.41 104.847C120.361 104.786 120.318 104.72 120.283 104.65C120.248 104.584 120.233 104.544 120.213 104.499C120.138 104.324 120.079 104.143 120.036 103.958L120.016 103.963Z" fill="white"/>
<path d="M127.351 100.685C127.351 100.942 127.311 101.19 127.306 101.468C127.306 101.564 127.306 101.66 127.306 101.756C127.306 102.094 127.27 102.443 127.25 102.766C127.238 102.918 127.238 103.07 127.25 103.221C127.281 103.42 127.269 103.623 127.215 103.817C127.215 103.883 127.068 103.858 126.947 103.817C126.826 103.777 126.684 103.686 126.664 103.58C126.567 103.204 126.543 102.813 126.593 102.428C126.608 102.187 126.599 101.945 126.568 101.705V100.407C126.568 100.159 126.568 99.9016 126.568 99.659C126.568 99.4165 126.502 99.27 126.482 99.0628C126.475 99.016 126.475 98.9682 126.482 98.9214C126.483 98.8845 126.492 98.8483 126.509 98.8157C126.526 98.7831 126.551 98.7551 126.581 98.7339C126.611 98.7126 126.646 98.6989 126.682 98.6937C126.718 98.6885 126.756 98.6921 126.79 98.7041H126.912C127.026 98.7402 127.126 98.813 127.195 98.9113C127.28 99.0515 127.327 99.2119 127.331 99.3761C127.351 99.5438 127.361 99.7125 127.361 99.8814C127.361 100.139 127.361 100.387 127.361 100.659L127.351 100.685Z" fill="white"/>
<path d="M130.118 103.811C129.947 102.858 129.879 101.889 129.916 100.921C129.916 100.578 129.916 100.229 129.946 99.8805C129.946 99.6582 129.992 99.4308 130.032 99.2034C130.032 99.0923 130.073 98.9761 130.098 98.8599L130.143 98.6729L130.219 98.4152C130.29 98.2818 130.39 98.1667 130.513 98.079C130.636 97.9912 130.777 97.9334 130.926 97.91C131.139 97.8645 131.336 97.8443 131.538 97.819C131.932 97.7837 132.316 97.7685 132.7 97.7584L134.297 97.7079C134.993 97.6581 135.692 97.7212 136.368 97.8948C136.626 98.0009 136.479 98.1171 136.292 98.2283C136.027 98.3945 135.725 98.4917 135.413 98.5112C134.089 98.5668 132.7 98.5921 131.417 98.7285C131.113 98.7891 131.058 98.7285 131.017 98.8498C131.016 98.875 131.016 98.9003 131.017 98.9256C131.017 98.9862 130.992 99.0468 130.982 99.1125C130.972 99.1782 130.942 99.3702 130.926 99.5015C130.896 99.7693 130.876 100.042 130.861 100.31C130.798 101.218 130.817 102.129 130.916 103.033C130.945 103.278 130.987 103.521 131.043 103.761C131.067 103.871 131.099 103.979 131.139 104.084C131.158 104.15 131.201 104.206 131.26 104.241C131.285 104.245 131.311 104.245 131.336 104.241C131.422 104.245 131.508 104.245 131.593 104.241H131.912H132.558C132.988 104.241 133.417 104.216 133.847 104.18C134.514 104.135 135.161 104.024 135.812 103.928L136.242 103.857C136.782 103.786 136.954 103.857 137.096 104.074C137.133 104.123 137.165 104.175 137.192 104.231C137.262 104.408 137.06 104.589 136.686 104.69C135.471 104.94 134.234 105.075 132.993 105.095C132.685 105.095 132.377 105.095 132.058 105.095H131.553L131.396 105.145C131.341 105.151 131.285 105.151 131.23 105.145C131.083 105.123 130.938 105.091 130.795 105.049C130.666 104.97 130.554 104.865 130.467 104.741C130.417 104.68 130.375 104.614 130.34 104.544C130.312 104.493 130.287 104.441 130.265 104.387C130.194 104.213 130.135 104.034 130.088 103.852L130.118 103.811Z" fill="white"/>
<path d="M137.462 100.533C137.462 100.791 137.422 101.039 137.411 101.316C137.411 101.412 137.411 101.508 137.411 101.604L137.356 102.615C137.346 102.766 137.346 102.918 137.356 103.07C137.388 103.268 137.378 103.472 137.326 103.666C137.326 103.732 137.179 103.706 137.053 103.666C136.926 103.625 136.795 103.534 136.775 103.428C136.677 103.051 136.653 102.658 136.704 102.271C136.716 102.032 136.707 101.792 136.679 101.554C136.679 101.286 136.679 101.018 136.679 100.756C136.679 100.589 136.679 100.422 136.679 100.25C136.679 99.9977 136.679 99.7451 136.679 99.4975C136.679 99.2499 136.613 99.1135 136.588 98.9063C136.585 98.8592 136.585 98.812 136.588 98.7649C136.589 98.7279 136.599 98.6916 136.617 98.6591C136.634 98.6265 136.659 98.5986 136.69 98.5775C136.72 98.5564 136.755 98.5427 136.792 98.5375C136.829 98.5323 136.866 98.5358 136.901 98.5476H137.022C137.137 98.5833 137.237 98.6562 137.305 98.7548C137.386 98.897 137.433 99.0561 137.442 99.2196C137.442 99.3863 137.442 99.5531 137.472 99.7249C137.472 99.9825 137.472 100.23 137.472 100.503L137.462 100.533Z" fill="white"/>
<path d="M140.138 103.661C139.968 102.708 139.902 101.739 139.94 100.771C139.94 100.427 139.94 100.079 139.94 99.7302C139.94 99.5079 139.991 99.2805 140.026 99.0531C140.026 98.942 140.067 98.8258 140.092 98.7096L140.138 98.5226C140.168 98.4367 140.188 98.3508 140.218 98.2649C140.288 98.1305 140.388 98.0145 140.511 97.9266C140.634 97.8388 140.776 97.7815 140.926 97.7597C141.126 97.7197 141.328 97.6911 141.532 97.6738C141.926 97.6334 142.31 97.6182 142.694 97.6081L144.321 97.5677C145.015 97.5139 145.713 97.5754 146.387 97.7496C146.645 97.8607 146.504 97.9719 146.317 98.083C146.05 98.249 145.746 98.3462 145.433 98.366C144.109 98.4216 142.724 98.4468 141.436 98.5832C141.133 98.6439 141.077 98.5832 141.037 98.7045C140.996 98.8258 141.037 98.7298 141.037 98.7803C141.037 98.8308 141.012 98.9015 140.996 98.9672C140.981 99.0329 140.956 99.2249 140.941 99.3563C140.911 99.6241 140.895 99.8969 140.875 100.165C140.818 101.072 140.836 101.983 140.931 102.888C140.961 103.136 141.007 103.393 141.057 103.616C141.081 103.726 141.115 103.834 141.158 103.939C141.177 104.005 141.218 104.062 141.274 104.101C141.301 104.103 141.328 104.103 141.355 104.101C141.441 104.105 141.527 104.105 141.613 104.101H141.931H142.573C143.007 104.101 143.437 104.101 143.866 104.04C144.528 103.995 145.18 103.883 145.832 103.787L146.261 103.717C146.797 103.646 146.974 103.717 147.115 103.934C147.145 103.989 147.186 104.04 147.211 104.091C147.282 104.267 147.075 104.449 146.681 104.555C145.464 104.8 144.228 104.934 142.987 104.954C142.679 104.954 142.366 104.954 142.052 104.954H141.547H141.421C141.367 104.96 141.313 104.96 141.259 104.954C141.112 104.933 140.967 104.901 140.825 104.858C140.695 104.778 140.582 104.673 140.491 104.55C140.445 104.487 140.403 104.421 140.365 104.353C140.335 104.288 140.314 104.247 140.294 104.197C140.222 104.023 140.162 103.844 140.117 103.661H140.138Z" fill="white"/>
<path d="M147.487 100.381C147.487 100.639 147.452 100.886 147.442 101.164C147.442 101.26 147.442 101.356 147.442 101.452C147.442 101.791 147.401 102.139 147.381 102.463C147.371 102.614 147.371 102.766 147.381 102.918C147.414 103.116 147.402 103.32 147.346 103.514C147.346 103.579 147.204 103.554 147.078 103.514C146.952 103.473 146.82 103.382 146.795 103.276C146.7 102.9 146.677 102.509 146.729 102.124C146.742 101.883 146.732 101.641 146.699 101.402C146.699 101.134 146.699 100.866 146.699 100.603C146.699 100.437 146.699 100.27 146.699 100.098C146.699 99.8507 146.699 99.593 146.699 99.3504C146.699 99.1079 146.638 98.9614 146.613 98.7542C146.608 98.7072 146.608 98.6598 146.613 98.6128C146.614 98.576 146.623 98.5398 146.64 98.5072C146.657 98.4745 146.682 98.4465 146.712 98.4253C146.742 98.404 146.776 98.3903 146.813 98.3851C146.849 98.3799 146.887 98.3835 146.921 98.3955H147.043C147.159 98.4316 147.26 98.5043 147.331 98.6027C147.412 98.7449 147.458 98.9041 147.467 99.0675C147.467 99.2342 147.467 99.401 147.492 99.5728C147.492 99.8304 147.492 100.078 147.492 100.351L147.487 100.381Z" fill="white"/>
<path d="M122.949 72.5926C122.994 72.532 123.025 72.4562 123.106 72.4259C123.16 72.3719 123.232 72.3396 123.308 72.3349C123.475 72.3142 123.645 72.3142 123.813 72.3349L124.369 72.3753C124.738 72.3753 125.101 72.4259 125.455 72.436C125.576 72.436 125.693 72.436 125.804 72.436H125.97C125.994 72.4167 126.01 72.3899 126.016 72.3602C126.016 72.3602 126.016 72.2996 126.016 72.249V72.0874C126.029 71.8635 126.029 71.6392 126.016 71.4154C126.016 70.9516 125.956 70.4898 125.839 70.0411C125.825 69.9875 125.803 69.9364 125.773 69.8895C125.762 69.8689 125.745 69.8521 125.725 69.8412C125.704 69.8304 125.68 69.8261 125.657 69.8289H125.384H125.051C124.519 69.8836 123.983 69.8955 123.449 69.8642C123.111 69.8238 123.505 69.0811 124.131 69.0508C124.394 69.0508 124.637 69.0508 124.925 69.0508H125.536H125.854C125.987 69.0726 126.111 69.1283 126.215 69.2124C126.32 69.2965 126.401 69.4062 126.45 69.5308C126.497 69.6264 126.534 69.7262 126.562 69.8289C126.562 69.9148 126.607 69.9906 126.622 70.0663C126.683 70.3676 126.717 70.6736 126.723 70.9808C126.723 71.284 126.723 71.5922 126.723 71.9105C126.727 72.0795 126.717 72.2484 126.693 72.4158C126.691 72.5369 126.659 72.6558 126.6 72.7616C126.541 72.8674 126.457 72.9569 126.354 73.0221C126.231 73.0678 126.102 73.0983 125.97 73.113C125.578 73.1386 125.185 73.1386 124.793 73.113L123.717 73.0372C123.665 73.0296 123.612 73.0296 123.56 73.0372C123.53 73.0812 123.509 73.1311 123.5 73.1838C123.481 73.2738 123.467 73.3649 123.459 73.4566C123.459 73.5627 123.459 73.6738 123.459 73.78C123.441 74.1091 123.457 74.4391 123.505 74.7652C123.56 75.0734 123.682 75.4069 123.858 75.4473H123.944C124.409 75.4473 124.894 75.3816 125.369 75.3513H125.713C126.142 75.3513 126.263 75.3513 126.37 75.5685C126.395 75.614 126.425 75.6544 126.445 75.6949C126.531 75.8414 126.314 76.0081 125.996 76.0536C125.309 76.1496 124.617 76.2036 123.924 76.2153C123.78 76.2099 123.639 76.1738 123.51 76.1093C123.381 76.0448 123.267 75.9535 123.176 75.8414C123.04 75.6709 122.939 75.4752 122.878 75.2654C122.761 74.8601 122.705 74.4394 122.712 74.0174C122.712 73.8153 122.722 73.6132 122.742 73.4111C122.742 73.2949 122.742 73.2343 122.782 73.0726C122.806 72.8973 122.857 72.7269 122.934 72.5673L122.949 72.5926Z" fill="white"/>
<path d="M129.572 75.2793C129.89 75.2793 130.209 75.2793 130.527 75.2339L130.951 75.1833C130.982 75.1833 131.027 75.1833 131.027 75.1429V75.0671C131.027 75.0671 131.027 75.0166 131.027 74.9509L131.068 74.6225C131.103 74.3092 131.103 73.9909 131.118 73.6777C131.174 72.5555 131.108 71.4306 130.921 70.3228C130.895 70.1874 130.86 70.054 130.815 69.9236C130.81 69.9032 130.8 69.8846 130.784 69.8702C130.769 69.8558 130.75 69.8463 130.729 69.8428L130.578 69.8125C130.422 69.7905 130.265 69.7787 130.108 69.7771C129.799 69.7703 129.489 69.7889 129.183 69.8327L128.749 69.9034C128.643 69.9259 128.54 69.958 128.44 69.9994C128.397 69.9757 128.348 69.9635 128.299 69.9641C128.228 69.9641 128.127 69.8984 128.132 69.7316C128.18 69.5426 128.286 69.3732 128.434 69.2465C128.583 69.1199 128.767 69.0422 128.961 69.0243C129.339 68.9716 129.721 68.9563 130.103 68.9788C130.297 68.9873 130.491 69.0075 130.684 69.0394C130.742 69.049 130.799 69.0625 130.855 69.0799L131.103 69.1557C131.173 69.1987 131.239 69.2478 131.3 69.3022C131.33 69.3022 131.341 69.3729 131.391 69.378L131.462 69.479C131.543 69.6809 131.602 69.891 131.639 70.1055C131.674 70.2723 131.699 70.4339 131.719 70.6108C131.76 70.9342 131.78 71.2575 131.795 71.5809C131.821 72.3994 131.891 73.2432 131.846 74.1071C131.846 74.3295 131.815 74.5467 131.79 74.764L131.75 75.0974L131.684 75.5219C131.644 75.5976 131.639 75.6936 131.573 75.7492C131.52 75.7937 131.458 75.8248 131.391 75.8402C131.301 75.8652 131.21 75.8854 131.118 75.9008L130.921 75.9311C130.679 75.9614 130.416 75.9816 130.204 75.9968C129.992 76.0119 129.648 76.0271 129.37 75.9968C129.227 76.0042 129.084 76.0042 128.941 75.9968C128.763 75.985 128.59 75.9331 128.435 75.8452L128.36 75.8048C128.268 75.6879 128.201 75.5539 128.162 75.4107C128.132 75.3028 128.109 75.1931 128.092 75.0823C128.051 74.865 128.026 74.6528 128.001 74.4406C127.955 74.0162 127.925 73.5968 127.895 73.1775C127.854 72.5257 127.789 71.8891 127.773 71.2373C127.773 71.0958 127.773 70.9544 127.773 70.8078C127.773 70.2672 127.874 70.0954 128.087 70.0095C128.134 69.9866 128.183 69.968 128.233 69.954C128.395 69.954 128.486 70.151 128.501 70.5249C128.557 71.6365 128.607 72.8288 128.713 73.996C128.713 74.2638 128.774 74.5012 128.809 74.7842C128.834 74.9054 128.855 75.0419 128.885 75.1429V75.2238H129.067C129.218 75.2238 129.38 75.2238 129.542 75.2238L129.572 75.2793Z" fill="white"/>
<path d="M137.831 72.1621L137.104 73.0009C137.013 73.1019 136.942 73.2181 136.851 73.3192L135.896 74.3954C135.758 74.5569 135.628 74.7255 135.507 74.9006C135.364 75.1341 135.183 75.3424 134.972 75.517C134.901 75.5675 134.81 75.4766 134.754 75.3402C134.721 75.2683 134.703 75.1898 134.703 75.1103C134.703 75.0308 134.721 74.9523 134.754 74.8804C135.07 74.4256 135.425 73.9995 135.815 73.6072C136.053 73.3697 136.235 73.1019 136.457 72.8139L137.185 71.9499L137.639 71.4447C137.867 71.1819 138.109 70.9394 138.327 70.6514C138.544 70.3634 138.645 70.2119 138.832 69.9946C138.861 69.9434 138.897 69.8959 138.938 69.8531C139.084 69.6864 139.186 69.6813 139.327 69.7521L139.423 69.8026C139.468 69.8485 139.497 69.9083 139.504 69.9725C139.512 70.0366 139.497 70.1013 139.463 70.1563C139.223 70.5831 138.935 70.9814 138.604 71.3436L137.882 72.1925L137.831 72.1621Z" fill="white"/>
<path d="M136.549 70.6018C136.548 70.7575 136.499 70.9091 136.409 71.0358C136.318 71.1625 136.191 71.258 136.044 71.3092C135.966 71.342 135.884 71.3674 135.801 71.385C135.688 71.4026 135.572 71.3954 135.462 71.3637C135.352 71.3321 135.25 71.2768 135.164 71.2018C135.077 71.1268 135.008 71.0338 134.961 70.9293C134.914 70.8248 134.89 70.7113 134.892 70.5968C134.885 70.5079 134.905 70.419 134.948 70.341C134.991 70.2629 135.056 70.1991 135.134 70.1572C135.18 70.1572 135.251 70.2431 135.311 70.3543C135.359 70.4285 135.401 70.5061 135.438 70.5867C135.429 70.6245 135.428 70.6638 135.435 70.702C135.442 70.7402 135.457 70.7766 135.478 70.809C135.523 70.8797 135.614 70.8595 135.715 70.809C135.816 70.7585 135.912 70.7332 135.938 70.6726C135.949 70.6515 135.955 70.6281 135.955 70.6044C135.955 70.5806 135.949 70.5572 135.938 70.5362C135.897 70.4604 135.852 70.4351 135.786 70.4806C135.72 70.526 135.71 70.622 135.685 70.713C135.66 70.8039 135.685 70.7585 135.685 70.7787C135.685 70.7989 135.614 70.8646 135.448 70.8292H135.336C135.215 70.7989 135.129 70.7231 135.129 70.6271C135.123 70.4676 135.167 70.3103 135.256 70.1774C135.321 70.0742 135.412 69.9901 135.521 69.9333C135.629 69.8766 135.75 69.8492 135.872 69.8541C135.97 69.8617 136.066 69.8894 136.153 69.9354C136.239 69.9815 136.316 70.045 136.377 70.1218C136.494 70.2643 136.556 70.4431 136.554 70.6271L136.549 70.6018Z" fill="white"/>
<path d="M139.685 74.1527C139.663 74.3346 139.575 74.5021 139.437 74.6226C139.334 74.7184 139.206 74.7848 139.068 74.8146C138.982 74.8456 138.892 74.861 138.8 74.8601C138.704 74.8568 138.609 74.8335 138.522 74.7918C138.435 74.75 138.358 74.6907 138.295 74.6175C138.193 74.4872 138.144 74.3228 138.159 74.1578C138.163 74.0339 138.185 73.9113 138.224 73.794C138.241 73.7141 138.279 73.6405 138.336 73.5815C138.392 73.5226 138.464 73.4806 138.543 73.4605C138.593 73.4605 138.649 73.5868 138.699 73.7232C138.75 73.8597 138.826 73.9809 138.826 73.9961C138.826 74.0112 138.826 74.1274 138.745 74.1578C138.664 74.1881 138.745 74.1578 138.775 74.1578L138.942 74.1274C138.947 74.12 138.95 74.1112 138.95 74.1022C138.95 74.0932 138.947 74.0844 138.942 74.0769C138.93 74.0448 138.908 74.0179 138.878 74.0012C138.848 73.9845 138.814 73.9791 138.78 73.986C138.71 73.986 138.654 74.0618 138.593 74.1173L138.558 74.1527C138.502 74.1931 138.457 74.1527 138.341 74.0112L138.26 73.9102C138.217 73.8707 138.187 73.8193 138.173 73.7626C138.16 73.7059 138.164 73.6464 138.184 73.5919C138.28 73.4373 138.429 73.3234 138.603 73.2722C138.778 73.2209 138.965 73.2358 139.129 73.314C139.304 73.3734 139.455 73.4887 139.558 73.642C139.661 73.7954 139.711 73.9783 139.7 74.1628L139.685 74.1527Z" fill="white"/>
<path d="M112.975 94.4995C112.857 92.438 112.759 90.3749 112.682 88.3101C112.652 87.5573 112.571 86.7944 112.556 86.0567C112.485 83.3991 112.444 80.7414 112.485 78.0838C112.485 76.9065 112.485 75.7192 112.485 74.547C112.485 73.7942 112.485 73.0313 112.525 72.2835C112.583 71.526 112.691 70.7731 112.849 70.03C112.945 69.5652 113.132 69.6562 113.329 70.0705C113.61 70.7089 113.769 71.3944 113.798 72.0915C113.738 75.123 113.829 78.1545 113.798 81.2164C113.768 83.0605 113.95 84.9653 114.046 86.8449C114.154 88.8996 114.273 90.9576 114.405 93.0191C114.501 94.2923 114.577 95.5453 114.688 96.8337C114.854 98.7537 115.011 100.689 115.254 102.589C115.446 104.064 115.759 105.499 116.027 106.939C116.092 107.252 116.173 107.56 116.229 107.879C116.327 108.289 116.365 108.711 116.34 109.132C116.329 109.248 116.293 109.36 116.234 109.46C116.17 109.561 116.097 109.655 116.017 109.743C115.936 109.829 115.87 109.945 115.794 110.021C115.718 110.097 115.506 110.127 115.289 109.915C115.167 109.785 115.067 109.636 114.991 109.475C114.901 109.289 114.825 109.096 114.764 108.899C114.081 106.221 113.631 103.49 113.42 100.734C113.212 98.6628 113.071 96.5811 112.914 94.4995H112.975Z" fill="white"/>
<rect x="275.172" y="126.457" width="111.299" height="104.594" rx="0.597409" fill="#2E2E2E" stroke="#1C1C1C" stroke-width="0.859242"/>
<rect x="279.265" y="130.55" width="103.111" height="96.4056" rx="0.770272" fill="#FF414C" stroke="#1C1C1C" stroke-width="0.513515"/>
<path d="M344.449 184.91C344.449 184.91 341.109 187.655 344.031 195.199C344.031 195.199 345.076 200.883 334.852 208.04L334.745 203.235C334.745 203.235 336.353 200.353 334.788 197.756V189.521C334.788 189.521 341.672 187.603 342.556 182.952C342.556 182.952 340.835 179.574 332.649 184.767C332.649 184.767 330.874 185.161 332.804 191.724L330.102 195.918L327.395 191.729C329.325 185.166 327.55 184.773 327.55 184.773C319.363 179.579 317.642 182.958 317.642 182.958C318.527 187.609 325.411 189.526 325.411 189.526V197.756C323.845 200.353 325.454 203.235 325.454 203.235L325.352 208.04C315.133 200.883 316.173 195.199 316.173 195.199C319.095 187.655 315.755 184.91 315.755 184.91C311.724 168.97 323.518 163.109 328.269 161.431C328 158.024 327.245 152.968 325.138 149.937C325.079 149.857 325.197 149.766 325.272 149.835C326.001 150.508 327.212 151.775 327.861 153.35C327.861 153.35 328.247 152.551 328.73 151.267C329.228 149.943 330.992 149.943 331.491 151.267C331.973 152.551 332.359 153.35 332.359 153.35C333.008 151.775 334.22 150.508 334.949 149.835C335.024 149.766 335.136 149.857 335.083 149.937C332.97 152.968 332.22 158.024 331.946 161.431C336.686 163.103 348.481 168.97 344.449 184.91Z" fill="black"/>
<path d="M109.078 145.641C110.634 157.451 122.278 179.953 156.411 175.477C199.078 169.883 235.087 92.4043 282.721 92.4043C308.22 92.4043 312.47 107.254 312.47 112.699" stroke="white" stroke-width="0.82013" stroke-linejoin="round" stroke-dasharray="1.64 1.64"/>
<path d="M315.785 110.716L309.769 111.876C309.148 111.996 308.89 112.745 309.307 113.221L313.31 117.798C313.723 118.27 314.493 118.122 314.701 117.529L316.714 111.793C316.924 111.196 316.407 110.596 315.785 110.716Z" fill="white"/>
<path d="M107.531 152.645L113.449 151.059C114.06 150.895 114.264 150.13 113.814 149.684L109.496 145.405C109.05 144.963 108.293 145.165 108.127 145.771L106.527 151.637C106.361 152.247 106.92 152.809 107.531 152.645Z" fill="white"/>
</svg>
