<svg width="440" height="263" viewBox="0 0 440 263" fill="none" xmlns="http://www.w3.org/2000/svg">
<rect x="0.410065" y="0.958893" width="439.18" height="261.622" rx="4.51072" fill="white"/>
<rect x="0.410065" y="0.958893" width="439.18" height="261.622" rx="4.51072" stroke="#E6E8EB" stroke-width="0.82013"/>
<rect x="75.0624" y="32.1445" width="111.299" height="104.594" rx="0.597409" fill="white" stroke="#E6E8EB" stroke-width="0.859242"/>
<rect x="79.1552" y="36.2372" width="103.111" height="96.4056" rx="0.770272" fill="#F2F2F2" stroke="#E6E8EB" stroke-width="0.513515"/>
<path d="M137.735 78.74L135.395 78.6995H134.541L131.51 78.6187C131.065 78.6187 130.615 78.6187 130.176 78.6187C129.598 78.6363 129.02 78.5889 128.453 78.4772C128.276 78.4368 128.332 78.3358 128.493 78.2499C128.593 78.2024 128.698 78.1668 128.807 78.1438C128.95 78.1055 129.098 78.0885 129.246 78.0932C130.383 78.0932 131.535 78.0932 132.697 78.1387C133.394 78.1741 134.122 78.1387 134.829 78.1387H137.184H138.629C139.361 78.1387 140.094 78.1387 140.822 78.1033C141.387 78.1033 141.938 78.0276 142.499 77.9922C142.62 77.9922 142.747 77.9922 142.873 77.9922C143.333 77.9922 143.504 78.0528 143.58 78.2549C143.58 78.3004 143.621 78.3459 143.631 78.3913C143.631 78.548 143.464 78.6541 143.126 78.6844C142.102 78.793 141.073 78.847 140.044 78.8461H137.735V78.74Z" fill="#231F20"/>
<path d="M125.327 104.269C125.761 104.269 121.84 105.446 121.123 104.501C120.406 103.556 120.729 98.9434 120.729 98.9434C120.729 98.9434 122.144 98.6201 122.326 99.0849C122.507 99.5498 121.451 101.278 121.451 102.116C121.431 104.41 125.084 104.269 125.327 104.269Z" fill="#221F1F"/>
<path d="M135.305 104.27C135.745 104.27 131.824 105.447 131.101 104.502C130.379 103.557 130.707 98.9443 130.707 98.9443C130.707 98.9443 131.359 98.2268 131.541 98.6967C131.723 99.1666 131.435 101.279 131.435 102.137C131.435 104.411 135.083 104.27 135.305 104.27Z" fill="#221F1F"/>
<path d="M145.289 104.006C145.729 104.006 141.808 105.183 141.086 104.239C140.363 103.294 140.692 98.6808 140.692 98.6808C140.692 98.6808 141.343 97.9633 141.525 98.4282C141.707 98.893 141.419 101.015 141.419 101.874C141.419 104.132 145.067 104.006 145.289 104.006Z" fill="#221F1F"/>
<path d="M124.56 90.6079C124.994 90.6079 121.073 91.7851 120.356 90.8403C119.638 89.8955 120.305 85.0652 120.305 85.0652C120.305 85.0652 122.534 84.7267 122.721 85.1966C122.907 85.6665 121.205 87.6319 121.205 88.4858C121.215 90.7443 124.317 90.6079 124.56 90.6079Z" fill="#221F1F"/>
<path d="M149.906 53.7997C149.906 53.7643 149.906 53.7239 149.952 53.6784C149.997 53.6329 150.022 53.6784 150.033 53.6784L150.088 53.739C150.088 53.739 150.169 53.9765 150.194 54.0523C150.22 54.1249 150.24 54.1991 150.255 54.2746C150.285 54.4262 150.321 54.5778 150.351 54.7293C150.353 54.7647 150.353 54.8001 150.351 54.8354C150.361 54.9531 150.382 55.0698 150.412 55.1841C150.406 55.2022 150.406 55.2215 150.412 55.2396C150.451 55.3666 150.48 55.4968 150.497 55.6287C150.497 55.7297 150.497 55.8358 150.497 55.9419C150.502 55.9549 150.502 55.9694 150.497 55.9824C150.485 56.0149 150.485 56.0509 150.497 56.0834V56.2148C150.5 56.2383 150.5 56.262 150.497 56.2855C150.497 56.2855 150.452 56.2855 150.447 56.2855C150.442 56.2855 150.422 56.2855 150.406 56.2855C150.359 56.2004 150.317 56.1127 150.28 56.0228C150.28 56.0228 150.189 55.654 150.174 55.6135C150.172 55.5917 150.172 55.5697 150.174 55.5479C150.174 55.5479 150.093 55.2447 150.088 55.2346C150.078 55.1744 150.078 55.1129 150.088 55.0527C150.088 55.0527 150.088 55.0274 150.088 55.0123C150.064 54.9089 150.046 54.8043 150.033 54.699L150.002 54.5424C150 54.5324 150 54.522 150.002 54.5121V54.4868C149.972 54.3605 149.957 54.2291 149.921 54.1079C149.921 54.0776 149.921 53.9361 149.921 53.9007C149.921 53.8654 149.916 53.8148 149.906 53.7997Z" fill="#221F1F"/>
<path d="M149.045 55.3118C149.01 55.3371 148.965 55.3118 148.924 55.2613C148.884 55.2108 148.924 55.1906 148.924 55.1805L148.975 55.1249L149.298 55.0188C149.374 54.9933 149.452 54.973 149.531 54.9582L150.005 54.8571H150.112C150.234 54.8476 150.356 54.8273 150.475 54.7965H150.536C150.666 54.7571 150.8 54.7284 150.935 54.7106H151.258C151.266 54.707 151.275 54.7051 151.284 54.7051C151.292 54.7051 151.301 54.707 151.309 54.7106C151.342 54.7207 151.377 54.7207 151.41 54.7106C151.456 54.7081 151.501 54.7081 151.546 54.7106C151.57 54.7082 151.594 54.7082 151.617 54.7106C151.617 54.7106 151.617 54.751 151.617 54.7561C151.617 54.7611 151.617 54.7864 151.617 54.8015C151.617 54.8015 151.365 54.9228 151.339 54.9279L150.915 55.039H150.844L150.521 55.1249C150.458 55.1414 150.394 55.1499 150.329 55.1502C150.323 55.1478 150.317 55.1466 150.311 55.1466C150.305 55.1466 150.299 55.1478 150.293 55.1502C150.187 55.1502 150.076 55.1906 149.965 55.2057L149.803 55.2411H149.733C149.601 55.2714 149.47 55.2866 149.339 55.3219C149.339 55.3219 149.162 55.3219 149.126 55.3472C149.091 55.3725 149.076 55.3017 149.045 55.3118Z" fill="#221F1F"/>
<path d="M149.271 54.3712C149.23 54.3712 149.22 54.3207 149.23 54.255C149.237 54.2283 149.253 54.2048 149.276 54.1893C149.302 54.1843 149.33 54.1843 149.357 54.1893L149.629 54.3207C149.693 54.35 149.754 54.3856 149.811 54.4268L150.175 54.6643C150.203 54.6813 150.228 54.7017 150.251 54.7249C150.332 54.7989 150.422 54.8634 150.519 54.9169L150.569 54.9422C150.677 54.9987 150.781 55.0647 150.877 55.1392L151.095 55.3312C151.095 55.3312 151.095 55.3312 151.095 55.3615C151.095 55.3918 151.135 55.407 151.155 55.4272L151.251 55.5081C151.267 55.5238 151.279 55.5427 151.287 55.5636C151.287 55.5636 151.287 55.604 151.261 55.604C151.236 55.604 151.261 55.604 151.261 55.6394C151.172 55.6207 151.086 55.5919 151.004 55.5535L150.66 55.3565C150.66 55.3565 150.63 55.3312 150.615 55.3211C150.599 55.311 150.367 55.1796 150.357 55.1695C150.305 55.1432 150.259 55.1072 150.221 55.0634C150.212 55.0613 150.204 55.0613 150.195 55.0634C150.109 55.0129 150.034 54.9523 149.953 54.8967L149.826 54.8108C149.725 54.7502 149.634 54.6744 149.528 54.6138C149.528 54.6138 149.412 54.5076 149.382 54.4925C149.351 54.4773 149.291 54.3712 149.271 54.3712Z" fill="#221F1F"/>
<path d="M149.71 55.9271C149.71 55.9676 149.66 55.9726 149.594 55.9575C149.528 55.9423 149.528 55.9221 149.533 55.9069C149.531 55.8817 149.531 55.8563 149.533 55.8311C149.574 55.7447 149.62 55.6604 149.67 55.5785C149.702 55.5199 149.739 55.4642 149.781 55.4118L150.023 55.0834C150.041 55.059 150.061 55.037 150.084 55.0177C150.159 54.9469 150.225 54.8671 150.281 54.7802C150.281 54.7802 150.281 54.7499 150.281 54.7347C150.339 54.6358 150.407 54.5427 150.483 54.4569L150.68 54.2649C150.68 54.2649 150.68 54.2649 150.71 54.2649C150.738 54.255 150.762 54.2352 150.776 54.2093L150.887 54.1133H150.948C150.948 54.1133 150.988 54.1133 150.983 54.1133C150.978 54.1133 150.983 54.1133 151.019 54.1436C150.998 54.2277 150.967 54.3091 150.928 54.3861C150.928 54.3861 150.741 54.664 150.726 54.6943L150.685 54.7347C150.685 54.7347 150.539 54.9621 150.529 54.9722C150.518 54.9823 150.473 55.0632 150.422 55.0935C150.422 55.0935 150.306 55.24 150.246 55.3107C150.185 55.3815 150.19 55.3865 150.16 55.4269C150.094 55.5179 150.018 55.5987 149.958 55.6947C149.958 55.6947 149.852 55.8008 149.836 55.8261C149.821 55.8514 149.715 55.912 149.71 55.9271Z" fill="#221F1F"/>
<path d="M159.047 62.5967C159.047 62.5714 159.047 62.5462 159.077 62.5209C159.095 62.5139 159.115 62.5139 159.133 62.5209L159.168 62.5613C159.168 62.5613 159.219 62.7028 159.239 62.7483C159.254 62.7946 159.265 62.8419 159.274 62.8897C159.274 62.9807 159.315 63.0767 159.33 63.1676C159.332 63.1895 159.332 63.2115 159.33 63.2333C159.334 63.3067 159.346 63.3795 159.365 63.4506C159.363 63.4623 159.363 63.4743 159.365 63.4859C159.39 63.5635 159.409 63.6429 159.421 63.7234C159.421 63.784 159.421 63.8497 159.421 63.9154C159.421 63.9811 159.421 63.9154 159.421 63.9407C159.421 63.9659 159.421 63.9811 159.421 64.0013C159.423 64.0282 159.423 64.0552 159.421 64.0821C159.421 64.0821 159.421 64.1125 159.421 64.1276C159.421 64.1428 159.39 64.1276 159.385 64.1276C159.355 64.0753 159.328 64.0213 159.305 63.9659C159.305 63.9659 159.244 63.7386 159.239 63.7133C159.237 63.6999 159.237 63.6863 159.239 63.6729C159.239 63.6729 159.188 63.4859 159.188 63.4809C159.181 63.4425 159.181 63.4031 159.188 63.3647C159.188 63.299 159.188 63.2384 159.158 63.1727C159.128 63.107 159.158 63.107 159.158 63.0716C159.16 63.0634 159.16 63.0546 159.158 63.0464C159.158 62.9706 159.158 62.8897 159.113 62.814C159.115 62.7719 159.115 62.7297 159.113 62.6876C159.113 62.6876 159.052 62.6068 159.047 62.5967Z" fill="#221F1F"/>
<path d="M158.526 63.5262C158.526 63.5262 158.476 63.5262 158.451 63.4959C158.444 63.4781 158.444 63.4582 158.451 63.4403L158.491 63.405L158.688 63.3342L158.83 63.2989L159.123 63.2382H159.188C159.265 63.2339 159.341 63.222 159.416 63.2029C159.416 63.2029 159.416 63.2029 159.451 63.2029C159.532 63.1797 159.615 63.1628 159.699 63.1523H159.896H159.926C159.946 63.1573 159.967 63.1573 159.987 63.1523H160.072H160.118V63.1827C160.118 63.1827 160.118 63.1827 160.118 63.213L159.946 63.2938L159.688 63.3646H159.643L159.446 63.4151C159.407 63.42 159.368 63.42 159.33 63.4151C159.263 63.4322 159.196 63.444 159.128 63.4504L159.027 63.4757H158.986C158.905 63.4757 158.824 63.501 158.744 63.5262C158.7 63.5238 158.656 63.5238 158.612 63.5262C158.612 63.5262 158.536 63.5212 158.526 63.5262Z" fill="#221F1F"/>
<path d="M158.678 62.9494C158.678 62.9494 158.647 62.914 158.678 62.8736C158.708 62.8332 158.678 62.8281 158.713 62.8281H158.758L158.93 62.909C158.971 62.927 159.01 62.949 159.046 62.9746L159.269 63.1161L159.314 63.1565C159.365 63.1997 159.419 63.2386 159.476 63.2727H159.506C159.572 63.3095 159.636 63.35 159.698 63.394L159.83 63.5153C159.832 63.525 159.836 63.5342 159.842 63.5421C159.848 63.55 159.856 63.5563 159.865 63.5607C159.886 63.5748 159.904 63.5919 159.92 63.6113C159.92 63.6113 159.92 63.6113 159.92 63.6466C159.92 63.682 159.92 63.6719 159.92 63.6719C159.92 63.6719 159.92 63.6719 159.92 63.6972C159.865 63.6859 159.811 63.6689 159.759 63.6466L159.552 63.5304C159.552 63.5304 159.552 63.5304 159.521 63.5052L159.36 63.4142C159.329 63.3968 159.302 63.3746 159.279 63.3485C159.226 63.3178 159.176 63.2841 159.127 63.2475L159.051 63.197C158.991 63.1565 158.935 63.1111 158.87 63.0757C158.804 63.0403 158.799 63.01 158.779 62.9999C158.758 62.9898 158.678 62.9494 158.678 62.9494Z" fill="#221F1F"/>
<path d="M158.938 63.9052C158.938 63.9305 158.903 63.9305 158.863 63.9052C158.846 63.8975 158.832 63.8852 158.822 63.8698C158.82 63.8531 158.82 63.8361 158.822 63.8193C158.822 63.8193 158.883 63.7031 158.903 63.6627C158.924 63.627 158.947 63.5932 158.974 63.5616L159.12 63.3595L159.161 63.3191C159.205 63.2739 159.246 63.2248 159.282 63.1726C159.282 63.1726 159.282 63.1726 159.282 63.1423C159.318 63.0807 159.36 63.0231 159.408 62.9705L159.53 62.8543C159.546 62.8485 159.56 62.8379 159.57 62.824L159.621 62.7734H159.656C159.643 62.8243 159.625 62.8735 159.6 62.92C159.6 62.92 159.489 63.0917 159.479 63.112C159.481 63.1203 159.481 63.1289 159.479 63.1372L159.383 63.2837C159.367 63.3118 159.344 63.336 159.317 63.3545C159.282 63.405 159.242 63.4454 159.206 63.4909C159.187 63.5123 159.17 63.5361 159.156 63.5616C159.115 63.6223 159.065 63.6728 159.029 63.7284C158.994 63.7839 158.964 63.7941 158.954 63.8092C158.943 63.8244 158.938 63.8951 158.938 63.9052Z" fill="#221F1F"/>
<path d="M108.516 62.0699C108.516 62.0396 108.516 62.0042 108.561 61.9688C108.607 61.9335 108.627 61.9688 108.632 61.9688C108.651 61.983 108.668 62.0001 108.682 62.0194C108.682 62.0194 108.748 62.2114 108.773 62.272C108.793 62.3313 108.808 62.3922 108.819 62.4539C108.819 62.5802 108.874 62.7015 108.9 62.8278C108.9 62.853 108.9 62.8834 108.9 62.9086C108.902 63.0062 108.917 63.1031 108.945 63.1966C108.94 63.2114 108.94 63.2273 108.945 63.2421C108.975 63.3468 108.998 63.4531 109.016 63.5604C109.016 63.6463 109.016 63.7271 109.016 63.813C109.018 63.8264 109.018 63.8401 109.016 63.8534C109.016 63.8534 109.016 63.904 109.016 63.9292C109.018 63.9662 109.018 64.0034 109.016 64.0404C109.018 64.0588 109.018 64.0775 109.016 64.096C109.016 64.096 108.98 64.096 108.975 64.096C108.97 64.096 108.975 64.096 108.935 64.096C108.891 64.0283 108.855 63.9553 108.829 63.8787C108.829 63.8787 108.748 63.5806 108.738 63.5452C108.735 63.5285 108.735 63.5115 108.738 63.4947C108.738 63.4947 108.667 63.2471 108.667 63.2421C108.66 63.1918 108.66 63.1407 108.667 63.0905C108.667 63.0905 108.667 63.0905 108.667 63.0602C108.667 62.9743 108.637 62.8884 108.622 62.8025C108.616 62.7583 108.607 62.7144 108.596 62.6711C108.599 62.6595 108.599 62.6474 108.596 62.6358C108.596 62.5347 108.561 62.4337 108.531 62.3326C108.5 62.2316 108.531 62.1912 108.531 62.1608C108.531 62.1305 108.526 62.08 108.516 62.0699Z" fill="#221F1F"/>
<path d="M107.828 63.3091C107.797 63.3091 107.762 63.3091 107.727 63.2637C107.691 63.2182 107.727 63.198 107.727 63.1929C107.741 63.1736 107.758 63.1566 107.777 63.1424L108.04 63.0515C108.102 63.0293 108.167 63.0124 108.232 63.0009L108.616 62.9201H108.707C108.808 62.9132 108.908 62.8963 109.005 62.8696C109.02 62.8739 109.036 62.8739 109.05 62.8696C109.158 62.8377 109.268 62.8141 109.379 62.7988H109.642C109.642 62.7988 109.667 62.7988 109.682 62.7988C109.708 62.809 109.737 62.809 109.763 62.7988H109.879H109.935C109.935 62.7988 109.935 62.8342 109.935 62.8392C109.935 62.8443 109.935 62.8645 109.935 62.8746C109.864 62.9177 109.789 62.9549 109.712 62.9858L109.364 63.0767H109.308L109.045 63.1475C108.993 63.1551 108.941 63.1551 108.889 63.1475C108.889 63.1475 108.889 63.1475 108.858 63.1475C108.77 63.1692 108.681 63.186 108.591 63.198L108.454 63.2232H108.399C108.293 63.2485 108.186 63.2586 108.08 63.2889H107.909C107.909 63.2889 107.843 63.299 107.828 63.3091Z" fill="#221F1F"/>
<path d="M108.011 62.5355C107.976 62.5355 107.971 62.4951 107.981 62.4395C107.991 62.384 108.011 62.3789 108.022 62.3789H108.087L108.315 62.485L108.461 62.5709L108.759 62.7629L108.82 62.8134C108.887 62.8729 108.96 62.9254 109.037 62.9701C109.037 62.9701 109.062 62.9701 109.078 62.9701C109.167 63.0148 109.252 63.069 109.33 63.1317C109.386 63.1873 109.446 63.2378 109.507 63.2884C109.568 63.3389 109.507 63.2884 109.507 63.3136C109.517 63.3375 109.535 63.3571 109.558 63.3692C109.585 63.3883 109.61 63.4104 109.633 63.4349C109.646 63.4498 109.657 63.4669 109.664 63.4854C109.664 63.4854 109.664 63.5208 109.638 63.5208C109.613 63.5208 109.638 63.5208 109.638 63.5511C109.564 63.5348 109.492 63.5128 109.421 63.4854C109.421 63.4854 109.163 63.3692 109.163 63.3591C109.149 63.35 109.137 63.3379 109.128 63.3237L108.891 63.2075C108.849 63.1827 108.812 63.152 108.779 63.1166C108.711 63.074 108.645 63.0267 108.582 62.9751L108.481 62.9094C108.481 62.9094 108.325 62.7983 108.239 62.7528C108.153 62.7073 108.143 62.6618 108.118 62.6517C108.092 62.6416 108.027 62.5406 108.011 62.5355Z" fill="#221F1F"/>
<path d="M108.378 63.8089C108.378 63.8392 108.338 63.8442 108.282 63.8089C108.259 63.801 108.239 63.7848 108.227 63.7634V63.7129C108.227 63.7129 108.312 63.5562 108.338 63.5057C108.362 63.4565 108.393 63.4107 108.429 63.3693L108.626 63.1015C108.64 63.0807 108.657 63.0619 108.676 63.0459C108.737 62.9862 108.791 62.9201 108.838 62.8489C108.842 62.8375 108.842 62.8249 108.838 62.8135C108.886 62.7322 108.941 62.656 109.005 62.5861L109.166 62.4295C109.175 62.4276 109.183 62.4276 109.192 62.4295C109.222 62.4295 109.232 62.4043 109.247 62.3891L109.313 62.3184H109.363C109.363 62.3184 109.399 62.3184 109.399 62.3436C109.399 62.3689 109.399 62.3436 109.424 62.3689C109.404 62.438 109.378 62.5056 109.348 62.571C109.348 62.571 109.202 62.7933 109.187 62.8236L109.151 62.8539L109.03 63.051C109.004 63.0866 108.973 63.1188 108.939 63.147C108.895 63.2083 108.848 63.2674 108.797 63.3238C108.772 63.3491 108.752 63.3844 108.727 63.4148C108.676 63.4905 108.611 63.5562 108.565 63.6371C108.52 63.7179 108.474 63.723 108.464 63.7432C108.454 63.7634 108.383 63.7937 108.378 63.8089Z" fill="#221F1F"/>
<path d="M121.549 91.9356H121.09H120.852H120.721C120.654 91.9287 120.589 91.9169 120.524 91.9002C120.394 91.8857 120.27 91.8387 120.163 91.7637C120.056 91.6886 119.97 91.5879 119.912 91.4708C119.84 91.377 119.785 91.2709 119.751 91.1575C119.72 91.075 119.695 90.9907 119.675 90.9049C119.609 90.6791 119.557 90.4496 119.518 90.2177C119.472 89.8269 119.445 89.434 119.438 89.0405C119.438 88.6515 119.437 88.2624 119.478 87.8784C119.518 87.4944 119.478 87.1913 119.478 86.8679C119.459 86.4258 119.514 85.9835 119.64 85.5593C119.69 85.4229 119.837 85.4684 119.978 85.5997C120.153 85.7487 120.267 85.9577 120.296 86.1858C120.337 87.0346 120.337 87.8885 120.296 88.7525C120.284 89.2728 120.328 89.7929 120.428 90.3036C120.428 90.4451 120.478 90.5765 120.509 90.7078C120.522 90.7659 120.539 90.8233 120.559 90.8796C120.567 90.9091 120.577 90.9378 120.589 90.9655C120.613 90.9915 120.645 91.0086 120.68 91.0141C120.715 91.0196 120.751 91.0131 120.781 90.9958C120.909 91.0139 121.037 91.024 121.165 91.0261C121.524 91.0261 121.888 91.0565 122.252 91.0565C122.802 91.0565 123.358 91.0261 123.904 90.9706C124.328 90.9302 124.738 90.8291 125.152 90.7483L125.425 90.6876C125.768 90.6321 125.885 90.6876 125.981 90.9302C126.008 90.9821 126.032 91.0362 126.051 91.0918C126.102 91.2687 125.975 91.4405 125.728 91.5314C124.962 91.7455 124.173 91.8626 123.378 91.88C122.777 91.9103 122.176 91.88 121.565 91.9508L121.549 91.9356Z" fill="#231F20"/>
<path d="M131.68 92.0327C131.498 92.0327 131.316 92.0327 131.124 92.0327H130.81C130.654 92.0071 130.5 91.9682 130.351 91.9165C130.273 91.8497 130.199 91.7788 130.128 91.7043L129.957 91.4416C129.917 91.3658 129.885 91.2862 129.861 91.2041C129.836 91.138 129.816 91.0705 129.8 91.002C129.736 90.7778 129.685 90.55 129.648 90.3199C129.6 89.9292 129.571 89.5363 129.562 89.1427C129.562 88.7486 129.563 88.3646 129.603 87.9755C129.643 87.5865 129.603 87.2934 129.603 86.965C129.581 86.5228 129.636 86.0801 129.765 85.6564C129.81 85.525 129.957 85.5655 130.103 85.7019C130.276 85.8526 130.389 86.0607 130.421 86.288C130.462 87.1368 130.462 87.9856 130.421 88.8547C130.408 89.3747 130.45 89.8948 130.548 90.4058C130.572 90.5763 130.608 90.7451 130.654 90.911C130.684 90.9919 130.689 91.0373 130.704 91.0626C130.717 91.0975 130.738 91.1288 130.765 91.1536C130.815 91.1744 130.868 91.1847 130.922 91.1839C131.023 91.1839 131.134 91.1839 131.245 91.1839C131.599 91.1839 131.962 91.2142 132.326 91.1839C132.877 91.1839 133.433 91.1839 133.978 91.103C134.403 91.0576 134.817 90.9616 135.231 90.8757C135.322 90.8757 135.408 90.8302 135.504 90.8201C135.843 90.7645 135.959 90.8201 136.06 91.0626C136.085 91.1135 136.107 91.1658 136.126 91.2192C136.181 91.4011 136.055 91.5729 135.802 91.6639C135.037 91.8766 134.247 91.9921 133.453 92.0074C132.852 92.0378 132.25 92.0074 131.644 92.0832L131.68 92.0327Z" fill="#231F20"/>
<path d="M141.612 91.8872H141.152H140.915H140.778C140.713 91.8845 140.649 91.8744 140.586 91.8569C140.453 91.8367 140.327 91.7823 140.221 91.6991C140.114 91.6159 140.032 91.5066 139.98 91.3819C139.908 91.2882 139.853 91.1821 139.818 91.0687C139.788 90.986 139.763 90.9017 139.743 90.8161C139.677 90.5902 139.625 90.3608 139.586 90.1289C139.538 89.7466 139.51 89.3621 139.5 88.9769C139.5 88.5879 139.5 88.1988 139.535 87.8149C139.571 87.4309 139.535 87.1277 139.535 86.8043C139.514 86.3424 139.575 85.8803 139.717 85.4402C139.763 85.3037 139.909 85.3492 140.056 85.4806C140.23 85.6308 140.343 85.8391 140.374 86.0667C140.415 86.9155 140.415 87.7694 140.374 88.6334C140.362 89.1536 140.406 89.6737 140.505 90.1845C140.522 90.3191 140.547 90.4524 140.581 90.5836C140.581 90.6493 140.622 90.7049 140.637 90.7605C140.645 90.7897 140.655 90.8183 140.667 90.8464C140.68 90.8734 140.7 90.8963 140.725 90.9125C140.75 90.9286 140.779 90.9372 140.809 90.9373C140.874 90.9373 141.066 90.9373 141.198 90.9676C141.551 90.9676 141.92 90.998 142.284 90.998C142.835 90.998 143.39 90.9676 143.936 90.9121C144.361 90.8716 144.77 90.7706 145.184 90.6897C145.275 90.6897 145.366 90.6443 145.457 90.6291C145.801 90.5735 145.912 90.6291 146.013 90.8716C146.039 90.9219 146.061 90.9743 146.078 91.0283C146.134 91.2102 146.008 91.3819 145.76 91.4729C144.992 91.6846 144.202 91.8016 143.406 91.8215C142.809 91.8215 142.208 91.8215 141.597 91.8923L141.612 91.8872Z" fill="#231F20"/>
<path d="M142.151 105.437H141.691H141.459H141.322C141.256 105.434 141.19 105.424 141.125 105.407C140.996 105.39 140.874 105.342 140.767 105.267C140.661 105.192 140.574 105.093 140.514 104.977C140.442 104.882 140.387 104.774 140.352 104.659C140.321 104.577 140.295 104.492 140.277 104.406C140.211 104.182 140.159 103.954 140.12 103.724C140.073 103.333 140.046 102.94 140.039 102.547C140.039 102.153 140.039 101.769 140.079 101.38C140.12 100.991 140.079 100.698 140.079 100.369C140.056 99.927 140.11 99.4839 140.241 99.0607C140.287 98.9293 140.433 98.9698 140.58 99.1062C140.753 99.2563 140.864 99.465 140.893 99.6923C140.933 100.541 140.933 101.39 140.893 102.259C140.881 102.779 140.925 103.299 141.024 103.81C141.024 103.952 141.075 104.078 141.105 104.209C141.118 104.268 141.134 104.325 141.156 104.381C141.163 104.412 141.174 104.442 141.186 104.472C141.2 104.499 141.221 104.522 141.247 104.538C141.272 104.554 141.302 104.563 141.333 104.563C141.398 104.563 141.585 104.588 141.717 104.593C142.075 104.593 142.439 104.624 142.803 104.593C143.354 104.593 143.909 104.593 144.455 104.512C144.879 104.467 145.289 104.371 145.703 104.285C145.799 104.285 145.885 104.24 145.976 104.229C146.319 104.174 146.436 104.229 146.537 104.472C146.562 104.523 146.583 104.575 146.602 104.629C146.653 104.81 146.532 104.982 146.279 105.073C145.513 105.286 144.724 105.401 143.93 105.417C143.328 105.447 142.727 105.417 142.121 105.493L142.151 105.437Z" fill="#231F20"/>
<path d="M131.904 105.755H131.348H131.035C130.878 105.733 130.724 105.696 130.575 105.644C130.496 105.576 130.422 105.504 130.353 105.426L130.181 105.169C130.141 105.091 130.109 105.01 130.085 104.926C130.061 104.862 130.041 104.796 130.024 104.729C129.964 104.492 129.903 104.269 129.868 104.042C129.817 103.643 129.802 103.254 129.787 102.865C129.772 102.476 129.787 102.087 129.827 101.703C129.868 101.319 129.827 101.015 129.827 100.692C129.806 100.25 129.861 99.8072 129.989 99.3835C130.035 99.2471 130.181 99.2926 130.328 99.4239C130.5 99.5756 130.612 99.7832 130.646 100.01C130.686 100.859 130.686 101.713 130.646 102.577C130.636 103.097 130.68 103.617 130.777 104.128C130.803 104.298 130.838 104.467 130.883 104.633C130.896 104.685 130.913 104.736 130.934 104.785C130.945 104.819 130.966 104.849 130.995 104.871C131.045 104.891 131.097 104.903 131.151 104.906H131.47C131.828 104.906 132.192 104.936 132.556 104.936C133.107 104.936 133.662 104.906 134.208 104.85C134.632 104.81 135.047 104.709 135.461 104.628C135.552 104.628 135.638 104.583 135.734 104.567C136.072 104.512 136.189 104.567 136.29 104.81C136.29 104.866 136.34 104.916 136.355 104.972C136.411 105.148 136.285 105.32 136.032 105.411C135.267 105.626 134.477 105.743 133.683 105.76C133.081 105.79 132.48 105.76 131.874 105.831L131.904 105.755Z" fill="#231F20"/>
<path d="M121.758 105.744H121.299H121.066H120.93C120.863 105.741 120.797 105.731 120.733 105.714C120.604 105.697 120.481 105.649 120.374 105.574C120.268 105.499 120.181 105.4 120.121 105.284C120.049 105.189 119.994 105.081 119.96 104.966C119.928 104.884 119.903 104.799 119.884 104.713C119.818 104.489 119.766 104.261 119.727 104.031C119.677 103.632 119.662 103.243 119.646 102.849C119.631 102.455 119.646 102.071 119.687 101.687C119.727 101.303 119.687 101 119.687 100.676C119.663 100.234 119.718 99.7909 119.848 99.3677C119.894 99.2364 120.04 99.2768 120.187 99.4081C120.359 99.561 120.471 99.7709 120.5 99.9993C120.546 100.843 120.541 101.697 120.5 102.561C120.488 103.083 120.532 103.605 120.632 104.117C120.632 104.259 120.682 104.385 120.712 104.516C120.725 104.575 120.742 104.632 120.763 104.688C120.771 104.72 120.783 104.75 120.798 104.779C120.811 104.806 120.831 104.829 120.856 104.845C120.881 104.861 120.91 104.87 120.94 104.87C121.006 104.87 121.198 104.87 121.324 104.895C121.683 104.895 122.046 104.926 122.41 104.926C122.961 104.926 123.517 104.926 124.062 104.845C124.487 104.799 124.896 104.703 125.315 104.617C125.406 104.617 125.492 104.572 125.583 104.562C125.927 104.506 126.043 104.562 126.144 104.799C126.144 104.855 126.194 104.905 126.21 104.961C126.26 105.143 126.139 105.315 125.886 105.405C125.12 105.615 124.331 105.731 123.537 105.749C122.936 105.779 122.334 105.749 121.728 105.825L121.758 105.744Z" fill="#231F20"/>
<path d="M151.654 91.6787C151.654 89.7385 151.654 87.7933 151.578 85.8481C151.578 85.1407 151.502 84.4334 151.482 83.721C151.414 81.2217 151.324 78.7206 151.209 76.218C151.153 75.1064 151.057 73.9948 150.961 72.8984L150.78 70.7865C150.736 70.0702 150.758 69.3514 150.845 68.6392C150.886 68.1844 151.032 68.2501 151.254 68.6392C151.361 68.821 151.507 69.0737 151.669 69.3819C151.83 69.7256 151.946 70.0891 152.012 70.4631C152.336 73.3505 152.504 76.2531 152.518 79.1585C152.518 80.9118 152.684 82.7256 152.75 84.5092C152.816 86.4746 152.856 88.4451 152.876 90.4105V94.0433C152.876 94.9629 152.846 95.8824 152.836 96.802L152.76 99.5455C152.694 100.965 152.72 102.36 152.598 103.769C152.598 104.078 152.598 104.386 152.538 104.699C152.356 105.861 152.214 106.215 151.846 106.392C151.771 106.44 151.692 106.478 151.608 106.508C151.356 106.563 151.214 106.053 151.285 105.24C151.446 102.799 151.568 100.187 151.603 97.5801C151.638 95.6349 151.659 93.6745 151.628 91.7191L151.654 91.6787Z" fill="#231F20"/>
<path d="M114.132 96.4114C113.788 90.4545 113.682 84.4975 113.743 78.5406C113.768 76.368 113.783 74.1954 113.894 72.0228C113.964 70.0904 114.132 68.1629 114.4 66.2478C114.44 66.0053 114.501 65.7425 114.546 65.5101C114.608 65.2506 114.687 64.9957 114.784 64.7472C114.975 64.2558 115.228 63.7906 115.536 63.3628C116.175 62.5134 117.037 61.859 118.027 61.4731C118.963 61.1134 119.944 60.8839 120.943 60.791C121.918 60.6799 122.878 60.6395 123.823 60.5788C125.742 60.4475 127.662 60.4323 129.572 60.4121C132.968 60.4121 136.378 60.4121 139.748 60.5334C141.927 60.5758 144.103 60.731 146.266 60.9982C147.403 61.1336 148.494 61.5333 149.449 62.1653C149.931 62.502 150.337 62.9357 150.641 63.4386C150.941 63.9372 151.141 64.49 151.227 65.0655C151.256 65.3207 151.256 65.5783 151.227 65.8335C151.227 65.9952 151.182 66.0608 151.142 66.0558C151.101 66.0507 150.985 65.6971 150.793 65.1665C150.549 64.472 150.129 63.8524 149.575 63.3678C148.778 62.7546 147.84 62.3515 146.847 62.1957C144.704 61.8916 142.544 61.7228 140.38 61.6904C138.187 61.6096 135.989 61.5742 133.786 61.559C129.392 61.4715 124.997 61.6199 120.619 62.0037C119.384 62.1147 118.202 62.5582 117.199 63.287C116.748 63.6794 116.375 64.1523 116.097 64.6815C115.97 64.9583 115.862 65.2436 115.774 65.5354C115.729 65.6846 115.694 65.8365 115.668 65.9901C115.642 66.1518 115.602 66.3034 115.582 66.4701C115.268 69.1537 115.1 71.8523 115.077 74.5542C114.925 80.5111 115.001 86.4933 115.264 92.4553C115.44 96.1285 115.668 99.8017 116.143 103.424C116.309 104.786 116.562 106.137 116.901 107.466C116.975 107.756 117.084 108.036 117.224 108.3C117.403 108.525 117.627 108.71 117.881 108.846C118.465 109.155 119.084 109.392 119.725 109.553C122.407 110.164 125.144 110.502 127.895 110.564C132.133 110.71 136.377 110.6 140.602 110.235C141.532 110.159 142.436 110.058 143.366 109.962C146.822 109.593 147.852 109.457 148.651 109.583C148.833 109.614 149.07 109.583 149.201 109.619C149.333 109.654 149.333 109.7 149.232 109.831C149.059 110.02 148.849 110.171 148.615 110.276C147.691 110.675 146.717 110.949 145.72 111.089C141.839 111.688 137.92 112.007 133.993 112.044C131.972 112.079 129.987 112.044 127.961 111.968C125.919 111.887 123.883 111.697 121.862 111.397C121.092 111.279 120.328 111.122 119.573 110.927C118.764 110.743 117.982 110.458 117.244 110.079C116.783 109.833 116.382 109.488 116.072 109.068C115.979 108.934 115.902 108.79 115.839 108.639C115.789 108.512 115.769 108.431 115.733 108.33C115.668 108.133 115.592 107.931 115.546 107.739C115.339 106.985 115.17 106.221 115.041 105.45C114.536 102.419 114.309 99.4177 114.101 96.4114H114.132Z" fill="#231F20"/>
<path d="M133.492 112.773C131.785 112.773 130.077 112.798 128.364 112.773C127.743 112.773 127.116 112.773 126.49 112.738C124.285 112.638 122.09 112.381 119.921 111.97C118.953 111.786 117.995 111.551 117.052 111.267C115.811 110.95 114.657 110.361 113.671 109.545C113.373 109.272 113.53 109.176 113.914 109.196C114.153 109.209 114.39 109.246 114.621 109.307C114.925 109.377 115.221 109.477 115.505 109.605C117.785 110.523 120.178 111.126 122.619 111.399C124.15 111.579 125.691 111.661 127.232 111.646C128.93 111.677 130.638 111.646 132.346 111.646C133.396 111.626 134.449 111.598 135.503 111.561L140.288 111.384C141.526 111.333 142.734 111.222 143.982 111.217C144.254 111.202 144.527 111.202 144.8 111.217C145.17 111.233 145.536 111.303 145.886 111.424C146.076 111.505 146.228 111.655 146.311 111.843C146.349 111.919 146.379 111.999 146.402 112.081C146.437 112.329 146.013 112.44 145.31 112.455C143.214 112.49 140.94 112.581 138.651 112.662L133.508 112.824L133.492 112.773Z" fill="#231F20"/>
<path d="M118.291 110.98L117.361 110.671C117.25 110.636 117.134 110.631 117.018 110.591C116.624 110.449 116.23 110.303 115.841 110.126C115.669 110.055 115.492 109.999 115.335 109.944C115.091 109.897 114.863 109.787 114.673 109.626C114.618 109.57 114.704 109.428 114.835 109.297C114.966 109.166 115.123 109.045 115.239 109.065C115.683 109.129 116.116 109.251 116.528 109.428C116.794 109.531 117.073 109.599 117.356 109.631L118.281 109.853C118.473 109.898 118.66 109.944 118.852 109.979C119.14 110.049 119.432 110.105 119.726 110.146C119.961 110.149 120.195 110.137 120.428 110.111C120.48 110.108 120.533 110.108 120.585 110.111C120.777 110.111 120.822 110.212 120.807 110.52C120.812 110.589 120.812 110.658 120.807 110.727C120.809 110.821 120.785 110.915 120.737 110.996C120.688 111.077 120.618 111.143 120.534 111.187C120.12 111.302 119.684 111.319 119.261 111.237C118.942 111.182 118.627 111.11 118.316 111.02L118.291 110.98Z" fill="#231F20"/>
<path d="M133.302 65.3803C135.007 65.3803 136.711 65.3937 138.416 65.4207C139.042 65.4207 139.664 65.4207 140.285 65.4207C141.386 65.4712 142.488 65.5369 143.599 65.6683C144.172 65.729 144.737 65.8458 145.287 66.0169L145.514 66.1129C145.604 66.1468 145.687 66.1945 145.762 66.2544C145.91 66.364 146.034 66.5034 146.126 66.6636C146.212 66.8 146.267 66.9364 146.343 67.0729L146.495 67.4922C146.78 68.4538 146.95 69.4461 147 70.448C147.105 71.7156 146.974 72.9917 146.616 74.2121C146.444 74.5809 146.363 74.4849 146.277 74.1313C146.161 73.597 146.107 73.0511 146.116 72.5043C146.116 71.893 146.116 71.2816 146.06 70.6753C146.035 70.0723 145.971 69.4715 145.868 68.8766C145.787 68.3211 145.627 67.78 145.393 67.2699C145.368 67.2211 145.338 67.1753 145.302 67.1335L145.257 67.0678L145.408 66.9263L145.363 66.9567C145.317 66.9971 145.242 67.0779 145.257 67.0577C145.272 67.0375 145.125 66.9971 145.039 66.9617C144.762 66.8831 144.48 66.8207 144.196 66.7748C142.677 66.5661 141.145 66.4732 139.613 66.4969C137.91 66.4615 136.203 66.4565 134.49 66.4666L131.332 66.5019C129.735 66.5322 128.134 66.5525 126.552 66.6232C125.319 66.6737 124.117 66.795 122.894 66.8657C122.626 66.8657 122.389 66.9112 122.091 66.9162C121.08 66.9516 120.742 66.8152 120.54 66.5272C120.49 66.465 120.447 66.3972 120.413 66.3251C120.348 66.1028 120.737 65.9563 121.459 65.8653C123.602 65.6582 125.9 65.5318 128.199 65.4561C129.912 65.4005 131.63 65.3702 133.348 65.3398L133.302 65.3803Z" fill="#231F20"/>
<path d="M119.044 73.413L119.15 71.8214C119.15 71.6295 119.15 71.4324 119.15 71.2404C119.226 70.5684 119.296 69.8914 119.372 69.2194C119.403 68.9213 119.418 68.6232 119.433 68.32C119.433 67.9256 119.494 67.5336 119.615 67.158C119.686 66.9912 119.766 67.1074 119.862 67.2135C119.991 67.3528 120.071 67.5302 120.09 67.7188C120.11 68.494 120.068 69.2696 119.963 70.0379C119.898 70.5078 119.923 70.9928 119.903 71.4728L119.862 73.0492C119.862 73.3726 119.862 73.6959 119.862 74.0142C119.862 74.5195 119.862 74.9944 119.938 75.4795C119.99 75.8483 120.067 76.213 120.171 76.5708C120.171 76.6517 120.221 76.7275 120.236 76.8083C120.292 77.1064 120.236 77.2125 120.019 77.3136C119.97 77.3413 119.92 77.3649 119.867 77.3843C119.696 77.4449 119.524 77.3489 119.423 77.1266C119.165 76.4547 119.024 75.744 119.003 75.0248C118.978 74.4841 119.003 73.9435 119.003 73.4079L119.044 73.413Z" fill="#231F20"/>
<path d="M135.798 78.3659L132.069 78.4316C131.614 78.4316 131.164 78.472 130.705 78.4669C129.128 78.4215 127.552 78.5579 125.94 78.6387C125.228 78.6741 124.51 78.7095 123.798 78.7044C122.872 78.7168 121.953 78.5451 121.095 78.1991C120.832 78.093 120.888 78.0577 121.135 78.0425C121.261 78.0425 121.433 78.0425 121.64 78.0425C121.874 78.0241 122.109 78.0241 122.343 78.0425C122.786 78.0754 123.232 78.0855 123.677 78.0728C124.126 78.0728 124.576 78.0728 125.026 78.0425L127.779 77.8657L129.482 77.7444C129.77 77.7444 130.058 77.7091 130.351 77.6989L131.2 77.6737L134.929 77.4564L137.248 77.3554C138.41 77.3048 139.582 77.2745 140.739 77.2089C141.638 77.1583 142.517 77.0472 143.412 76.9916C143.604 76.9916 143.801 76.9512 143.998 76.9512C144.736 76.9512 144.973 77.0724 145.125 77.3099C145.161 77.3584 145.195 77.409 145.226 77.4615C145.291 77.6029 144.988 77.8152 144.463 77.9061C142.833 78.1097 141.194 78.2244 139.552 78.2497L135.803 78.3659H135.798Z" fill="#231F20"/>
<path d="M119.773 90.3438C119.605 89.3919 119.537 88.4249 119.571 87.4588C119.571 87.1102 119.571 86.7616 119.601 86.413C119.632 86.0643 119.672 85.7965 119.733 85.4833L119.788 85.2408C119.818 85.1211 119.859 85.0044 119.91 84.8921C119.969 84.7875 120.049 84.6965 120.146 84.6251C120.243 84.5537 120.353 84.5035 120.471 84.4778C120.79 84.3982 121.117 84.3508 121.446 84.3364C121.749 84.3364 122.052 84.301 122.355 84.2909L123.957 84.2454C124.651 84.1916 125.349 84.2531 126.023 84.4273C126.281 84.5385 126.139 84.6496 125.947 84.7608C125.683 84.9269 125.38 85.0242 125.068 85.0437C123.745 85.0993 122.355 85.1296 121.072 85.261C120.981 85.261 120.89 85.2913 120.804 85.3064C120.773 85.3101 120.742 85.3187 120.713 85.3317C120.657 85.3772 120.668 85.4024 120.612 85.6349C120.55 86.0367 120.51 86.4414 120.491 86.8475C120.431 87.7535 120.449 88.6629 120.546 89.5657C120.579 89.8341 120.627 90.1006 120.688 90.364C120.774 90.6318 120.799 90.7834 120.966 90.7935C121.051 90.7987 121.138 90.7987 121.223 90.7935H122.198C122.628 90.7935 123.062 90.7935 123.487 90.7379C124.154 90.6874 124.806 90.5762 125.457 90.4802C125.599 90.4802 125.74 90.4297 125.887 90.4146C126.422 90.3438 126.599 90.4146 126.741 90.6268C126.774 90.6774 126.804 90.7297 126.832 90.7834C126.907 90.9653 126.7 91.1472 126.326 91.2482C125.11 91.4955 123.874 91.6291 122.633 91.6474C122.158 91.6474 121.693 91.6474 121.193 91.6474H120.996L120.663 91.5867C120.557 91.5591 120.458 91.5109 120.372 91.445C120.285 91.3792 120.212 91.2968 120.157 91.2028C120.056 91.0567 119.976 90.8967 119.92 90.7278C119.873 90.6006 119.834 90.4707 119.804 90.3388L119.773 90.3438Z" fill="#231F20"/>
<path d="M127.135 87.064C127.135 87.3217 127.094 87.5693 127.089 87.8522C127.089 87.9482 127.089 88.0392 127.089 88.1352C127.089 88.4737 127.054 88.8223 127.034 89.1457C127.021 89.297 127.021 89.4491 127.034 89.6004C127.064 89.7994 127.052 90.0027 126.998 90.1966C126.998 90.2623 126.852 90.237 126.731 90.1966C126.609 90.1562 126.468 90.0652 126.448 89.9591C126.35 89.5832 126.326 89.1921 126.377 88.8072C126.391 88.5641 126.379 88.3202 126.341 88.0796C126.341 87.8169 126.341 87.5743 126.341 87.2813C126.341 87.1146 126.341 86.9529 126.341 86.776C126.341 86.5285 126.341 86.2708 126.341 86.0283C126.341 85.7857 126.276 85.6392 126.256 85.4321C126.248 85.3852 126.248 85.3375 126.256 85.2906C126.257 85.2542 126.267 85.2185 126.284 85.1865C126.302 85.1545 126.326 85.1269 126.356 85.1059C126.386 85.0849 126.42 85.071 126.456 85.0654C126.492 85.0597 126.529 85.0624 126.564 85.0733H126.685C126.802 85.1107 126.903 85.1853 126.973 85.2855C127.056 85.425 127.101 85.5833 127.104 85.7453C127.125 85.913 127.135 86.0817 127.135 86.2506C127.135 86.5133 127.135 86.7558 127.135 87.0337V87.064Z" fill="#231F20"/>
<path d="M129.884 90.1928C129.713 89.2412 129.645 88.2739 129.682 87.3078C129.682 86.9592 129.682 86.6105 129.712 86.2619C129.712 86.0396 129.757 85.8122 129.798 85.5849C129.798 85.4737 129.838 85.3575 129.864 85.2413L129.909 85.0544C129.934 84.9685 129.96 84.8826 129.99 84.7967C130.057 84.6618 130.156 84.5454 130.279 84.4574C130.401 84.3694 130.543 84.3124 130.692 84.2914C130.894 84.247 131.098 84.2167 131.303 84.2005C131.698 84.1601 132.082 84.1449 132.466 84.1348L134.062 84.0893C134.758 84.0353 135.458 84.0967 136.134 84.2712C136.391 84.3824 136.245 84.4935 136.058 84.6047C135.793 84.7708 135.491 84.8681 135.179 84.8876C133.855 84.9432 132.466 84.9685 131.182 85.1049C130.879 85.1655 130.823 85.1352 130.783 85.2261L130.758 85.307C130.758 85.3676 130.758 85.4232 130.722 85.4889C130.687 85.5546 130.682 85.7466 130.667 85.8779C130.637 86.1457 130.616 86.4185 130.601 86.6914C130.539 87.5973 130.557 88.507 130.657 89.4096C130.685 89.6543 130.727 89.8972 130.783 90.1372C130.811 90.2577 130.848 90.376 130.894 90.4909C130.915 90.5571 130.958 90.6141 131.015 90.6526C131.041 90.6549 131.066 90.6549 131.091 90.6526C131.177 90.6578 131.263 90.6578 131.349 90.6526H132.314C132.743 90.6526 133.173 90.6526 133.602 90.5919C134.269 90.5465 134.916 90.4353 135.568 90.3393L135.997 90.2686C136.538 90.2029 136.71 90.2686 136.851 90.4858C136.888 90.5352 136.92 90.5876 136.947 90.6425C137.018 90.8243 136.816 91.0062 136.442 91.1073C135.226 91.3526 133.989 91.4862 132.748 91.5064C132.44 91.5064 132.132 91.5064 131.814 91.5064H131.309H131.182C131.127 91.5121 131.071 91.5121 131.015 91.5064C130.868 91.4871 130.723 91.455 130.581 91.4104C130.452 91.331 130.34 91.2261 130.253 91.1022C130.202 91.0425 130.159 90.9762 130.126 90.9052C130.097 90.8573 130.074 90.8065 130.055 90.7536C129.985 90.5728 129.927 90.387 129.884 90.1978V90.1928Z" fill="#231F20"/>
<path d="M137.226 86.9141C137.226 87.1718 137.185 87.4194 137.175 87.6973C137.175 87.7933 137.175 87.8893 137.175 87.9853C137.175 88.3238 137.135 88.6724 137.12 88.9958C137.109 89.1472 137.109 89.2991 137.12 89.4505C137.152 89.6491 137.142 89.8524 137.089 90.0467C137.089 90.1124 136.943 90.0871 136.816 90.0467C136.69 90.0063 136.559 89.9153 136.539 89.8092C136.441 89.4333 136.417 89.0422 136.468 88.6572C136.488 88.4168 136.488 88.1752 136.468 87.9347C136.468 87.667 136.468 87.3992 136.468 87.1364C136.468 86.9697 136.468 86.803 136.468 86.6312C136.468 86.3836 136.468 86.1259 136.468 85.8834C136.468 85.6409 136.402 85.4944 136.377 85.2872C136.374 85.2401 136.374 85.1929 136.377 85.1457C136.378 85.1087 136.388 85.0725 136.406 85.0399C136.423 85.0074 136.448 84.9795 136.479 84.9584C136.509 84.9372 136.544 84.9235 136.581 84.9184C136.618 84.9132 136.655 84.9166 136.69 84.9285H136.811C136.925 84.9661 137.024 85.0386 137.094 85.1356C137.175 85.2778 137.222 85.437 137.231 85.6005C137.231 85.7672 137.231 85.9339 137.261 86.1057C137.261 86.3634 137.261 86.611 137.261 86.8838L137.226 86.9141Z" fill="#231F20"/>
<path d="M139.895 90.0418C139.726 89.09 139.66 88.1227 139.698 87.1568C139.698 86.8081 139.698 86.4595 139.698 86.1109C139.698 85.8886 139.749 85.6612 139.784 85.4339C139.784 85.3227 139.824 85.2065 139.85 85.0903L139.895 84.9084C139.926 84.8174 139.946 84.7316 139.976 84.6457C140.044 84.5102 140.144 84.3933 140.267 84.3053C140.39 84.2172 140.533 84.1606 140.683 84.1404C140.883 84.0965 141.086 84.0661 141.29 84.0495C141.684 84.009 142.068 83.9939 142.452 83.9838L144.079 83.9232C144.773 83.8694 145.471 83.9308 146.145 84.105C146.408 84.2162 146.261 84.3274 146.074 84.4385C145.808 84.6045 145.504 84.7017 145.19 84.7215C143.867 84.777 142.482 84.8073 141.194 84.9387C140.891 84.9993 140.835 84.969 140.795 85.06C140.754 85.1509 140.795 85.0903 140.795 85.1408C140.795 85.1913 140.795 85.2621 140.754 85.3227C140.714 85.3833 140.714 85.5804 140.699 85.7117C140.668 85.9795 140.653 86.2524 140.633 86.5252C140.576 87.4313 140.594 88.3405 140.688 89.2435C140.722 89.5119 140.769 89.7783 140.83 90.0418C140.916 90.3096 140.946 90.4611 141.113 90.4712C141.199 90.4767 141.285 90.4767 141.371 90.4712H142.331C142.765 90.4712 143.195 90.446 143.624 90.4157C144.286 90.3651 144.938 90.254 145.589 90.158L146.019 90.0872C146.554 90.0216 146.731 90.0872 146.873 90.3045C146.903 90.3601 146.944 90.4106 146.969 90.4611C147.04 90.643 146.832 90.8249 146.438 90.926C145.222 91.1735 143.986 91.3071 142.745 91.3251C142.27 91.3251 141.805 91.3251 141.305 91.3251H141.108L140.774 91.2645C140.562 91.2076 140.381 91.0697 140.269 90.8805C140.168 90.7344 140.088 90.5745 140.032 90.4056C139.986 90.2691 139.946 90.1428 139.915 90.0165L139.895 90.0418Z" fill="#231F20"/>
<path d="M147.245 86.7621C147.245 87.0198 147.21 87.2674 147.2 87.5503C147.2 87.6463 147.2 87.7372 147.2 87.8332C147.2 88.1718 147.159 88.5204 147.139 88.8438C147.129 88.9952 147.129 89.1471 147.139 89.2985C147.172 89.4973 147.16 89.7011 147.104 89.8947C147.104 89.9604 146.962 89.9351 146.836 89.8947C146.709 89.8543 146.578 89.7633 146.553 89.6572C146.457 89.281 146.435 88.8899 146.487 88.5052C146.5 88.264 146.489 88.0221 146.457 87.7827C146.457 87.52 146.457 87.2775 146.457 86.9844C146.457 86.8177 146.457 86.651 146.457 86.4792C146.457 86.2316 146.457 85.9739 146.457 85.7314C146.457 85.4889 146.396 85.3423 146.371 85.1352C146.366 85.0882 146.366 85.0408 146.371 84.9937C146.372 84.9573 146.382 84.9217 146.4 84.8896C146.417 84.8576 146.442 84.83 146.471 84.809C146.501 84.788 146.535 84.7741 146.571 84.7685C146.607 84.7628 146.644 84.7656 146.679 84.7765H146.8C146.916 84.8125 147.017 84.8852 147.088 84.9836C147.169 85.1258 147.216 85.285 147.225 85.4484C147.225 85.6152 147.225 85.7819 147.25 85.9537C147.25 86.2164 147.25 86.459 147.25 86.7368L147.245 86.7621Z" fill="#231F20"/>
<path d="M120.016 103.961C119.847 103.007 119.779 102.039 119.813 101.071C119.813 100.727 119.813 100.379 119.844 100.03C119.844 99.8078 119.894 99.5805 119.93 99.3531C119.93 99.2419 119.97 99.1257 119.995 99.0095L120.041 98.8226C120.066 98.7367 120.091 98.6508 120.122 98.5649C120.19 98.4311 120.29 98.3155 120.412 98.2277C120.534 98.1398 120.675 98.0823 120.824 98.0597C121.026 98.02 121.23 97.9914 121.435 97.9738C121.829 97.9333 122.213 97.9182 122.597 97.9081L124.199 97.8626C124.893 97.8088 125.591 97.8703 126.266 98.0445C126.523 98.1557 126.382 98.2668 126.19 98.378C125.925 98.5441 125.623 98.6414 125.311 98.6609C123.987 98.7165 122.597 98.7417 121.314 98.8782C121.011 98.9388 120.955 98.9085 120.915 98.9994C120.874 99.0904 120.915 98.9994 120.915 99.0752C120.915 99.151 120.885 99.1965 120.874 99.2622C120.864 99.3278 120.834 99.5198 120.819 99.6512C120.789 99.919 120.768 100.192 120.753 100.46C120.693 101.367 120.712 102.278 120.809 103.183C120.839 103.431 120.885 103.688 120.935 103.91C120.959 104.021 120.993 104.129 121.036 104.234C121.055 104.3 121.096 104.357 121.152 104.396C121.178 104.398 121.203 104.398 121.228 104.396C121.263 104.396 121.385 104.396 121.486 104.396H122.451C122.88 104.396 123.315 104.396 123.739 104.335C124.406 104.289 125.058 104.178 125.71 104.082L126.139 104.012C126.675 103.941 126.852 104.012 126.993 104.229C127.026 104.279 127.056 104.332 127.084 104.385C127.16 104.562 126.953 104.749 126.579 104.85C125.362 105.095 124.126 105.229 122.885 105.249C122.572 105.249 122.264 105.249 121.946 105.249H121.466H121.339C121.284 105.255 121.228 105.255 121.173 105.249C121.027 105.228 120.884 105.196 120.743 105.153C120.612 105.074 120.499 104.969 120.41 104.845C120.361 104.784 120.318 104.718 120.283 104.648C120.248 104.582 120.233 104.542 120.213 104.497C120.138 104.322 120.079 104.141 120.036 103.956L120.016 103.961Z" fill="#231F20"/>
<path d="M127.351 100.683C127.351 100.94 127.311 101.188 127.306 101.466C127.306 101.562 127.306 101.658 127.306 101.754C127.306 102.092 127.27 102.441 127.25 102.764C127.238 102.916 127.238 103.068 127.25 103.219C127.281 103.418 127.269 103.621 127.215 103.815C127.215 103.881 127.068 103.856 126.947 103.815C126.826 103.775 126.684 103.684 126.664 103.578C126.567 103.202 126.543 102.811 126.593 102.426C126.608 102.185 126.599 101.943 126.568 101.703V100.405C126.568 100.157 126.568 99.8996 126.568 99.6571C126.568 99.4146 126.502 99.268 126.482 99.0609C126.475 99.014 126.475 98.9663 126.482 98.9194C126.483 98.8826 126.492 98.8464 126.509 98.8138C126.526 98.7812 126.551 98.7531 126.581 98.7319C126.611 98.7107 126.646 98.6969 126.682 98.6918C126.718 98.6866 126.756 98.6902 126.79 98.7022H126.912C127.026 98.7382 127.126 98.811 127.195 98.9093C127.28 99.0496 127.327 99.2099 127.331 99.3741C127.351 99.5418 127.361 99.7105 127.361 99.8794C127.361 100.137 127.361 100.385 127.361 100.657L127.351 100.683Z" fill="#231F20"/>
<path d="M130.118 103.809C129.947 102.856 129.879 101.887 129.916 100.919C129.916 100.576 129.916 100.227 129.946 99.8785C129.946 99.6562 129.992 99.4288 130.032 99.2015C130.032 99.0903 130.073 98.9741 130.098 98.8579L130.143 98.671L130.219 98.4133C130.29 98.2799 130.39 98.1647 130.513 98.077C130.636 97.9893 130.777 97.9314 130.926 97.908C131.139 97.8626 131.336 97.8424 131.538 97.8171C131.932 97.7817 132.316 97.7666 132.7 97.7565L134.297 97.7059C134.993 97.6562 135.692 97.7193 136.368 97.8929C136.626 97.999 136.479 98.1152 136.292 98.2263C136.027 98.3925 135.725 98.4898 135.413 98.5093C134.089 98.5649 132.7 98.5901 131.417 98.7265C131.113 98.7872 131.058 98.7265 131.017 98.8478C131.016 98.873 131.016 98.8984 131.017 98.9236C131.017 98.9842 130.992 99.0449 130.982 99.1105C130.972 99.1762 130.942 99.3682 130.926 99.4996C130.896 99.7674 130.876 100.04 130.861 100.308C130.798 101.216 130.817 102.127 130.916 103.031C130.945 103.276 130.987 103.519 131.043 103.759C131.067 103.869 131.099 103.977 131.139 104.082C131.158 104.148 131.201 104.204 131.26 104.239C131.285 104.243 131.311 104.243 131.336 104.239C131.422 104.243 131.508 104.243 131.593 104.239H131.912H132.558C132.988 104.239 133.417 104.214 133.847 104.178C134.514 104.133 135.161 104.022 135.812 103.926L136.242 103.855C136.782 103.784 136.954 103.855 137.096 104.072C137.133 104.121 137.165 104.173 137.192 104.229C137.262 104.406 137.06 104.587 136.686 104.689C135.471 104.938 134.234 105.073 132.993 105.093C132.685 105.093 132.377 105.093 132.058 105.093H131.553L131.396 105.143C131.341 105.149 131.285 105.149 131.23 105.143C131.083 105.121 130.938 105.089 130.795 105.047C130.666 104.968 130.554 104.863 130.467 104.739C130.417 104.678 130.375 104.612 130.34 104.542C130.312 104.491 130.287 104.439 130.265 104.385C130.194 104.211 130.135 104.032 130.088 103.85L130.118 103.809Z" fill="#231F20"/>
<path d="M137.462 100.531C137.462 100.789 137.422 101.037 137.411 101.314C137.411 101.41 137.411 101.506 137.411 101.602L137.356 102.613C137.346 102.764 137.346 102.916 137.356 103.068C137.388 103.266 137.378 103.47 137.326 103.664C137.326 103.73 137.179 103.704 137.053 103.664C136.926 103.623 136.795 103.533 136.775 103.426C136.677 103.049 136.653 102.656 136.704 102.269C136.716 102.03 136.707 101.79 136.679 101.552C136.679 101.284 136.679 101.016 136.679 100.754C136.679 100.587 136.679 100.42 136.679 100.248C136.679 99.9957 136.679 99.7431 136.679 99.4955C136.679 99.248 136.613 99.1115 136.588 98.9044C136.585 98.8573 136.585 98.81 136.588 98.7629C136.589 98.7259 136.599 98.6897 136.617 98.6571C136.634 98.6246 136.659 98.5967 136.69 98.5755C136.72 98.5544 136.755 98.5407 136.792 98.5355C136.829 98.5304 136.866 98.5338 136.901 98.5457H137.022C137.137 98.5814 137.237 98.6542 137.305 98.7528C137.386 98.895 137.433 99.0542 137.442 99.2176C137.442 99.3844 137.442 99.5511 137.472 99.7229C137.472 99.9806 137.472 100.228 137.472 100.501L137.462 100.531Z" fill="#231F20"/>
<path d="M140.138 103.659C139.968 102.706 139.902 101.737 139.94 100.769C139.94 100.425 139.94 100.077 139.94 99.7282C139.94 99.5059 139.991 99.2785 140.026 99.0512C140.026 98.94 140.067 98.8238 140.092 98.7076L140.138 98.5207C140.168 98.4348 140.188 98.3489 140.218 98.263C140.288 98.1285 140.388 98.0126 140.511 97.9247C140.634 97.8368 140.776 97.7796 140.926 97.7577C141.126 97.7178 141.328 97.6891 141.532 97.6718C141.926 97.6314 142.31 97.6163 142.694 97.6062L144.321 97.5657C145.015 97.512 145.713 97.5734 146.387 97.7476C146.645 97.8588 146.504 97.9699 146.317 98.0811C146.05 98.2471 145.746 98.3443 145.433 98.364C144.109 98.4196 142.724 98.4449 141.436 98.5813C141.133 98.6419 141.077 98.5813 141.037 98.7025C140.996 98.8238 141.037 98.7278 141.037 98.7783C141.037 98.8289 141.012 98.8996 140.996 98.9653C140.981 99.031 140.956 99.223 140.941 99.3543C140.911 99.6221 140.895 99.8949 140.875 100.163C140.818 101.07 140.836 101.981 140.931 102.886C140.961 103.134 141.007 103.391 141.057 103.614C141.081 103.724 141.115 103.832 141.158 103.937C141.177 104.003 141.218 104.06 141.274 104.099C141.301 104.102 141.328 104.102 141.355 104.099C141.441 104.103 141.527 104.103 141.613 104.099H141.931H142.573C143.007 104.099 143.437 104.099 143.866 104.038C144.528 103.993 145.18 103.881 145.832 103.785L146.261 103.715C146.797 103.644 146.974 103.715 147.115 103.932C147.145 103.987 147.186 104.038 147.211 104.089C147.282 104.265 147.075 104.447 146.681 104.553C145.464 104.798 144.228 104.932 142.987 104.953C142.679 104.953 142.366 104.953 142.052 104.953H141.547H141.421C141.367 104.958 141.313 104.958 141.259 104.953C141.112 104.931 140.967 104.899 140.825 104.857C140.695 104.776 140.582 104.671 140.491 104.548C140.445 104.485 140.403 104.42 140.365 104.351C140.335 104.286 140.314 104.245 140.294 104.195C140.222 104.021 140.162 103.842 140.117 103.659H140.138Z" fill="#231F20"/>
<path d="M147.487 100.379C147.487 100.637 147.452 100.884 147.442 101.162C147.442 101.258 147.442 101.354 147.442 101.45C147.442 101.789 147.401 102.137 147.381 102.461C147.371 102.612 147.371 102.764 147.381 102.916C147.414 103.114 147.402 103.318 147.346 103.512C147.346 103.577 147.204 103.552 147.078 103.512C146.952 103.471 146.82 103.38 146.795 103.274C146.7 102.898 146.677 102.507 146.729 102.122C146.742 101.881 146.732 101.639 146.699 101.4C146.699 101.132 146.699 100.864 146.699 100.602C146.699 100.435 146.699 100.268 146.699 100.096C146.699 99.8487 146.699 99.591 146.699 99.3485C146.699 99.106 146.638 98.9595 146.613 98.7523C146.608 98.7053 146.608 98.6578 146.613 98.6108C146.614 98.574 146.623 98.5378 146.64 98.5052C146.657 98.4726 146.682 98.4445 146.712 98.4233C146.742 98.4021 146.776 98.3883 146.813 98.3832C146.849 98.378 146.887 98.3816 146.921 98.3936H147.043C147.159 98.4296 147.26 98.5023 147.331 98.6007C147.412 98.7429 147.458 98.9021 147.467 99.0656C147.467 99.2323 147.467 99.399 147.492 99.5708C147.492 99.8285 147.492 100.076 147.492 100.349L147.487 100.379Z" fill="#231F20"/>
<path d="M122.949 72.5907C122.994 72.53 123.025 72.4542 123.106 72.4239C123.16 72.37 123.232 72.3377 123.308 72.333C123.475 72.3122 123.645 72.3122 123.813 72.333L124.369 72.3734C124.738 72.3734 125.101 72.4239 125.455 72.434C125.576 72.434 125.693 72.434 125.804 72.434H125.97C125.994 72.4148 126.01 72.388 126.016 72.3582C126.016 72.3582 126.016 72.2976 126.016 72.2471V72.0854C126.029 71.8616 126.029 71.6372 126.016 71.4134C126.016 70.9497 125.956 70.4878 125.839 70.0391C125.825 69.9856 125.803 69.9345 125.773 69.8875C125.762 69.8669 125.745 69.8501 125.725 69.8393C125.704 69.8285 125.68 69.8242 125.657 69.8269H125.384H125.051C124.519 69.8817 123.983 69.8935 123.449 69.8623C123.111 69.8219 123.505 69.0791 124.131 69.0488C124.394 69.0488 124.637 69.0488 124.925 69.0488H125.536H125.854C125.987 69.0707 126.111 69.1263 126.215 69.2104C126.32 69.2945 126.401 69.4042 126.45 69.5288C126.497 69.6244 126.534 69.7242 126.562 69.8269C126.562 69.9128 126.607 69.9886 126.622 70.0644C126.683 70.3657 126.717 70.6717 126.723 70.9789C126.723 71.282 126.723 71.5903 126.723 71.9086C126.727 72.0775 126.717 72.2465 126.693 72.4138C126.691 72.535 126.659 72.6538 126.6 72.7596C126.541 72.8654 126.457 72.9549 126.354 73.0201C126.231 73.0658 126.102 73.0963 125.97 73.1111C125.578 73.1366 125.185 73.1366 124.793 73.1111L123.717 73.0353C123.665 73.0277 123.612 73.0277 123.56 73.0353C123.53 73.0792 123.509 73.1292 123.5 73.1818C123.481 73.2719 123.467 73.363 123.459 73.4546C123.459 73.5607 123.459 73.6719 123.459 73.778C123.441 74.1071 123.457 74.4372 123.505 74.7632C123.56 75.0714 123.682 75.4049 123.858 75.4453H123.944C124.409 75.4453 124.894 75.3797 125.369 75.3493H125.713C126.142 75.3493 126.263 75.3493 126.37 75.5666C126.395 75.6121 126.425 75.6525 126.445 75.6929C126.531 75.8394 126.314 76.0062 125.996 76.0516C125.309 76.1476 124.617 76.2016 123.924 76.2133C123.78 76.208 123.639 76.1718 123.51 76.1073C123.381 76.0428 123.267 75.9515 123.176 75.8394C123.04 75.6689 122.939 75.4732 122.878 75.2634C122.761 74.8581 122.705 74.4374 122.712 74.0155C122.712 73.8134 122.722 73.6113 122.742 73.4092C122.742 73.293 122.742 73.2323 122.782 73.0706C122.806 72.8954 122.857 72.7249 122.934 72.5654L122.949 72.5907Z" fill="#231F20"/>
<path d="M129.572 75.2774C129.89 75.2774 130.209 75.2774 130.527 75.2319L130.951 75.1814C130.982 75.1814 131.027 75.1814 131.027 75.141V75.0652C131.027 75.0652 131.027 75.0146 131.027 74.949L131.068 74.6205C131.103 74.3073 131.103 73.989 131.118 73.6757C131.174 72.5536 131.108 71.4287 130.921 70.3208C130.895 70.1854 130.86 70.0521 130.815 69.9217C130.81 69.9012 130.8 69.8826 130.784 69.8682C130.769 69.8538 130.75 69.8443 130.729 69.8408L130.578 69.8105C130.422 69.7885 130.265 69.7767 130.108 69.7752C129.799 69.7683 129.489 69.7869 129.183 69.8307L128.749 69.9015C128.643 69.9239 128.54 69.9561 128.44 69.9975C128.397 69.9737 128.348 69.9616 128.299 69.9621C128.228 69.9621 128.127 69.8964 128.132 69.7297C128.18 69.5407 128.286 69.3712 128.434 69.2446C128.583 69.1179 128.767 69.0403 128.961 69.0223C129.339 68.9696 129.721 68.9544 130.103 68.9769C130.297 68.9853 130.491 69.0056 130.684 69.0375C130.742 69.0471 130.799 69.0606 130.855 69.0779L131.103 69.1537C131.173 69.1968 131.239 69.2458 131.3 69.3002C131.33 69.3002 131.341 69.371 131.391 69.376L131.462 69.4771C131.543 69.679 131.602 69.889 131.639 70.1036C131.674 70.2703 131.699 70.432 131.719 70.6088C131.76 70.9322 131.78 71.2556 131.795 71.5789C131.821 72.3974 131.891 73.2412 131.846 74.1052C131.846 74.3275 131.815 74.5448 131.79 74.762L131.75 75.0955L131.684 75.5199C131.644 75.5957 131.639 75.6917 131.573 75.7473C131.52 75.7917 131.458 75.8229 131.391 75.8382C131.301 75.8632 131.21 75.8835 131.118 75.8988L130.921 75.9292C130.679 75.9595 130.416 75.9797 130.204 75.9948C129.992 76.01 129.648 76.0252 129.37 75.9948C129.227 76.0023 129.084 76.0023 128.941 75.9948C128.763 75.983 128.59 75.9312 128.435 75.8433L128.36 75.8028C128.268 75.6859 128.201 75.5519 128.162 75.4087C128.132 75.3008 128.109 75.1911 128.092 75.0803C128.051 74.8631 128.026 74.6509 128.001 74.4387C127.955 74.0142 127.925 73.5949 127.895 73.1755C127.854 72.5237 127.789 71.8871 127.773 71.2353C127.773 71.0939 127.773 70.9524 127.773 70.8059C127.773 70.2653 127.874 70.0935 128.087 70.0076C128.134 69.9847 128.183 69.9661 128.233 69.952C128.395 69.952 128.486 70.1491 128.501 70.5229C128.557 71.6345 128.607 72.8269 128.713 73.994C128.713 74.2618 128.774 74.4993 128.809 74.7822C128.834 74.9035 128.855 75.0399 128.885 75.141V75.2218H129.067C129.218 75.2218 129.38 75.2218 129.542 75.2218L129.572 75.2774Z" fill="#231F20"/>
<path d="M137.831 72.1602L137.104 72.9989C137.013 73.1 136.942 73.2162 136.851 73.3172L135.896 74.3934C135.758 74.5549 135.628 74.7236 135.507 74.8987C135.364 75.1322 135.183 75.3405 134.972 75.5151C134.901 75.5656 134.81 75.4746 134.754 75.3382C134.721 75.2663 134.703 75.1878 134.703 75.1083C134.703 75.0289 134.721 74.9504 134.754 74.8784C135.07 74.4236 135.425 73.9975 135.815 73.6052C136.053 73.3677 136.235 73.1 136.457 72.812L137.185 71.948L137.639 71.4427C137.867 71.18 138.109 70.9375 138.327 70.6495C138.544 70.3615 138.645 70.2099 138.832 69.9927C138.861 69.9414 138.897 69.8939 138.938 69.8512C139.084 69.6844 139.186 69.6794 139.327 69.7501L139.423 69.8007C139.468 69.8465 139.497 69.9064 139.504 69.9705C139.512 70.0346 139.497 70.0994 139.463 70.1543C139.223 70.5812 138.935 70.9795 138.604 71.3417L137.882 72.1905L137.831 72.1602Z" fill="#231F20"/>
<path d="M136.549 70.5999C136.548 70.7556 136.499 70.9072 136.409 71.0339C136.318 71.1605 136.191 71.256 136.044 71.3072C135.966 71.3401 135.884 71.3654 135.801 71.383C135.688 71.4007 135.572 71.3934 135.462 71.3618C135.352 71.3301 135.25 71.2749 135.164 71.1999C135.077 71.1248 135.008 71.0318 134.961 70.9273C134.914 70.8228 134.89 70.7094 134.892 70.5948C134.885 70.5059 134.905 70.4171 134.948 70.339C134.991 70.261 135.056 70.1971 135.134 70.1553C135.18 70.1553 135.251 70.2412 135.311 70.3523C135.359 70.4265 135.401 70.5042 135.438 70.5847C135.429 70.6226 135.428 70.6618 135.435 70.7C135.442 70.7382 135.457 70.7746 135.478 70.807C135.523 70.8778 135.614 70.8576 135.715 70.807C135.816 70.7565 135.912 70.7312 135.938 70.6706C135.949 70.6496 135.955 70.6262 135.955 70.6024C135.955 70.5786 135.949 70.5552 135.938 70.5342C135.897 70.4584 135.852 70.4331 135.786 70.4786C135.72 70.5241 135.71 70.6201 135.685 70.711C135.66 70.802 135.685 70.7565 135.685 70.7767C135.685 70.7969 135.614 70.8626 135.448 70.8272H135.336C135.215 70.7969 135.129 70.7211 135.129 70.6251C135.123 70.4657 135.167 70.3083 135.256 70.1755C135.321 70.0723 135.412 69.9881 135.521 69.9314C135.629 69.8746 135.75 69.8473 135.872 69.8521C135.97 69.8597 136.066 69.8874 136.153 69.9335C136.239 69.9796 136.316 70.043 136.377 70.1199C136.494 70.2623 136.556 70.4412 136.554 70.6251L136.549 70.5999Z" fill="#231F20"/>
<path d="M139.685 74.1507C139.663 74.3327 139.575 74.5002 139.437 74.6206C139.334 74.7165 139.206 74.7828 139.068 74.8126C138.982 74.8437 138.892 74.8591 138.8 74.8581C138.704 74.8548 138.609 74.8316 138.522 74.7898C138.435 74.7481 138.358 74.6888 138.295 74.6156C138.193 74.4852 138.144 74.3208 138.159 74.1558C138.163 74.032 138.185 73.9094 138.224 73.792C138.241 73.7122 138.279 73.6386 138.336 73.5796C138.392 73.5206 138.464 73.4787 138.543 73.4586C138.593 73.4586 138.649 73.5849 138.699 73.7213C138.75 73.8577 138.826 73.979 138.826 73.9941C138.826 74.0093 138.826 74.1255 138.745 74.1558C138.664 74.1861 138.745 74.1558 138.775 74.1558L138.942 74.1255C138.947 74.118 138.95 74.1092 138.95 74.1002C138.95 74.0912 138.947 74.0824 138.942 74.075C138.93 74.0429 138.908 74.016 138.878 73.9993C138.848 73.9826 138.814 73.9772 138.78 73.984C138.71 73.984 138.654 74.0598 138.593 74.1154L138.558 74.1507C138.502 74.1912 138.457 74.1507 138.341 74.0093L138.26 73.9082C138.217 73.8687 138.187 73.8173 138.173 73.7606C138.16 73.7039 138.164 73.6445 138.184 73.5899C138.28 73.4353 138.429 73.3215 138.603 73.2702C138.778 73.2189 138.965 73.2338 139.129 73.312C139.304 73.3715 139.455 73.4867 139.558 73.6401C139.661 73.7934 139.711 73.9764 139.7 74.1609L139.685 74.1507Z" fill="#231F20"/>
<path d="M112.975 94.4975C112.857 92.4361 112.759 90.373 112.682 88.3082C112.652 87.5553 112.571 86.7924 112.556 86.0547C112.485 83.3971 112.444 80.7395 112.485 78.0818C112.485 76.9046 112.485 75.7172 112.485 74.5451C112.485 73.7922 112.485 73.0293 112.525 72.2815C112.583 71.524 112.691 70.7712 112.849 70.0281C112.945 69.5633 113.132 69.6542 113.329 70.0685C113.61 70.7069 113.769 71.3924 113.798 72.0895C113.738 75.121 113.829 78.1526 113.798 81.2144C113.768 83.0586 113.95 84.9634 114.046 86.8429C114.154 88.8976 114.273 90.9557 114.405 93.0171C114.501 94.2904 114.577 95.5434 114.688 96.8318C114.854 98.7518 115.011 100.687 115.254 102.587C115.446 104.062 115.759 105.497 116.027 106.937C116.092 107.25 116.173 107.558 116.229 107.877C116.327 108.287 116.365 108.709 116.34 109.13C116.329 109.246 116.293 109.358 116.234 109.458C116.17 109.559 116.097 109.653 116.017 109.741C115.936 109.827 115.87 109.943 115.794 110.019C115.718 110.095 115.506 110.125 115.289 109.913C115.167 109.783 115.067 109.634 114.991 109.473C114.901 109.287 114.825 109.094 114.764 108.897C114.081 106.219 113.631 103.488 113.42 100.732C113.212 98.6608 113.071 96.5792 112.914 94.4975H112.975Z" fill="#231F20"/>
<rect x="275.18" y="126.459" width="111.299" height="104.594" rx="0.597409" fill="white" stroke="#E6E8EB" stroke-width="0.859242"/>
<rect x="279.272" y="130.552" width="103.111" height="96.4056" rx="0.770272" fill="#FF414C" stroke="#E6E8EB" stroke-width="0.513515"/>
<path d="M344.457 184.911C344.457 184.911 341.117 187.657 344.039 195.201C344.039 195.201 345.084 200.885 334.86 208.042L334.753 203.237C334.753 203.237 336.361 200.354 334.796 197.758V189.523C334.796 189.523 341.68 187.605 342.564 182.954C342.564 182.954 340.843 179.575 332.657 184.769C332.657 184.769 330.882 185.163 332.812 191.726L330.11 195.92L327.402 191.731C329.333 185.168 327.558 184.775 327.558 184.775C319.371 179.581 317.65 182.96 317.65 182.96C318.535 187.611 325.419 189.528 325.419 189.528V197.758C323.853 200.354 325.462 203.237 325.462 203.237L325.36 208.042C315.141 200.885 316.181 195.201 316.181 195.201C319.103 187.657 315.763 184.911 315.763 184.911C311.731 168.972 323.526 163.111 328.276 161.433C328.008 158.026 327.252 152.97 325.145 149.939C325.086 149.859 325.204 149.768 325.279 149.837C326.009 150.51 327.22 151.777 327.869 153.352C327.869 153.352 328.255 152.553 328.737 151.269C329.236 149.945 331 149.945 331.498 151.269C331.981 152.553 332.367 153.352 332.367 153.352C333.016 151.777 334.227 150.51 334.956 149.837C335.032 149.768 335.144 149.859 335.091 149.939C332.978 152.97 332.228 158.026 331.954 161.433C336.694 163.105 348.488 168.972 344.457 184.911Z" fill="black"/>
<path d="M109.078 145.641C110.634 157.451 122.278 179.953 156.411 175.477C199.078 169.883 235.087 92.4043 282.721 92.4043C308.22 92.4043 312.47 107.254 312.47 112.699" stroke="black" stroke-width="0.82013" stroke-linejoin="round" stroke-dasharray="1.64 1.64"/>
<path d="M315.793 110.718L309.777 111.878C309.156 111.998 308.898 112.747 309.315 113.223L313.317 117.8C313.731 118.272 314.501 118.124 314.709 117.531L316.722 111.795C316.932 111.198 316.414 110.598 315.793 110.718Z" fill="black"/>
<path d="M107.531 152.645L113.449 151.059C114.06 150.895 114.264 150.13 113.814 149.684L109.496 145.405C109.05 144.963 108.293 145.165 108.127 145.771L106.527 151.637C106.361 152.247 106.92 152.809 107.531 152.645Z" fill="black"/>
</svg>
