<svg width="440" height="263" viewBox="0 0 440 263" fill="none" xmlns="http://www.w3.org/2000/svg">
<g clip-path="url(#clip0_3398_37073)">
<rect y="0.548828" width="440" height="262.442" rx="4.92078" fill="#232323"/>
<rect x="0.00381523" y="0.958893" width="329.692" height="182.069" rx="6.15098" fill="#232323"/>
<rect x="0.00381523" y="0.958893" width="329.692" height="182.069" rx="6.15098" stroke="#3E3E3E" strokeWidth="0.82013"/>
<rect x="10.4101" y="-15.5899" width="467.162" height="261.622" rx="6.15098" fill="#232323" stroke="#3E3E3E" strokeWidth="0.82013"/>
<line x1="10" y1="11.4591" x2="477.982" y2="11.4591" stroke="#3E3E3E" strokeWidth="0.82013"/>
<line x1="156.73" y1="-16" x2="156.73" y2="246.442" stroke="#3E3E3E" strokeWidth="0.82013"/>
<line x1="303.043" y1="-16" x2="303.043" y2="246.442" stroke="#3E3E3E" strokeWidth="0.82013"/>
<line x1="40.5976" y1="-16" x2="40.5976" y2="246.442" stroke="#3E3E3E" strokeWidth="0.82013"/>
<line x1="185.762" y1="-16" x2="185.762" y2="246.442" stroke="#3E3E3E" strokeWidth="0.82013"/>
<line x1="332.074" y1="-16" x2="332.074" y2="246.442" stroke="#3E3E3E" strokeWidth="0.82013"/>
<line x1="127.691" y1="-16" x2="127.691" y2="246.442" stroke="#3E3E3E" strokeWidth="0.82013"/>
<line x1="274.012" y1="-16" x2="274.012" y2="246.442" stroke="#3E3E3E" strokeWidth="0.82013"/>
<line x1="420.324" y1="-16" x2="420.324" y2="246.442" stroke="#3E3E3E" strokeWidth="0.82013"/>
<line x1="98.6601" y1="-16" x2="98.6601" y2="246.442" stroke="#3E3E3E" strokeWidth="0.82013"/>
<line x1="244.98" y1="-16" x2="244.98" y2="246.442" stroke="#3E3E3E" strokeWidth="0.82013"/>
<line x1="391.293" y1="-16" x2="391.293" y2="246.442" stroke="#3E3E3E" strokeWidth="0.82013"/>
<line x1="69.6288" y1="-16" x2="69.6288" y2="246.442" stroke="#3E3E3E" strokeWidth="0.82013"/>
<line x1="215.949" y1="-16" x2="215.949" y2="246.442" stroke="#3E3E3E" strokeWidth="0.82013"/>
<line x1="361.105" y1="-16" x2="361.105" y2="246.442" stroke="#3E3E3E" strokeWidth="0.82013"/>
<line x1="10" y1="70.6837" x2="477.982" y2="70.6837" stroke="#3E3E3E" strokeWidth="0.82013"/>
<line x1="10" y1="128.744" x2="477.982" y2="128.744" stroke="#3E3E3E" strokeWidth="0.82013"/>
<line x1="10" y1="186.807" x2="477.982" y2="186.807" stroke="#3E3E3E" strokeWidth="0.82013"/>
<line x1="10" y1="40.4903" x2="477.982" y2="40.4903" stroke="#3E3E3E" strokeWidth="0.82013"/>
<line x1="10" y1="99.7149" x2="477.982" y2="99.7149" stroke="#3E3E3E" strokeWidth="0.82013"/>
<line x1="10" y1="157.775" x2="477.982" y2="157.775" stroke="#3E3E3E" strokeWidth="0.82013"/>
<line x1="10" y1="215.84" x2="477.982" y2="215.84" stroke="#3E3E3E" strokeWidth="0.82013"/>
<g opacity="0.45">
<path d="M204.824 160.517C205.473 159.898 206.376 159.973 207.031 160.531C207.244 160.703 207.313 161.357 207.168 161.481C206.865 161.722 206.617 161.997 206.389 162.231C206.32 162.3 205.638 162.726 205.128 163.504C204.59 164.261 204.225 165.342 204.087 165.906C203.949 166.457 203.825 167.014 203.708 167.585L203.542 168.418C203.48 168.735 203.432 169.065 203.342 169.354C203.253 169.643 203.108 169.884 202.949 170.07C202.86 170.152 202.805 170.263 202.674 170.304C202.605 170.421 202.481 170.428 202.391 170.497C202.157 170.737 201.564 170.655 201.102 170.689C200.792 170.634 200.481 170.641 200.213 170.648H199.985L199.799 170.676C199.551 170.696 199.296 170.724 199.041 170.772C198.53 170.848 198.013 170.971 197.51 171.116C196.497 171.405 195.518 171.811 194.642 172.314C194.415 172.431 194.215 172.561 194.001 172.685C193.781 172.802 193.574 172.933 193.374 173.064C192.664 173.497 192.037 174.055 191.616 174.722C191.182 175.362 190.968 176.058 190.968 176.725C190.94 176.945 190.989 177.166 191.099 177.351C191.223 177.496 191.43 178.342 192.209 178.845C192.926 179.402 194.16 179.574 194.436 179.609C195.794 179.905 197.496 179.76 198.992 179.375C199.213 179.32 199.42 179.196 199.654 179.217C200.213 179.272 200.654 178.996 201.116 178.769C201.764 178.439 202.412 178.108 203.08 177.771C203.411 177.613 203.797 177.537 204.17 177.434C204.507 177.345 204.59 177.778 204.514 177.881C204.307 178.177 204.638 178.184 204.762 178.301C204.804 178.342 204.859 178.398 204.866 178.446C204.88 178.494 204.087 179.292 203.17 180.07C202.267 180.861 201.157 181.591 200.909 181.687C200.881 181.701 200.468 181.908 199.82 182.162C199.172 182.424 198.275 182.699 197.372 182.885C196.904 182.961 196.435 183.05 195.973 183.112C195.504 183.146 195.049 183.181 194.642 183.195C194.222 183.174 193.856 183.16 193.567 183.146C193.271 183.119 193.05 183.071 192.94 183.057C192.705 183.022 192.478 182.967 192.25 182.885C192.03 182.782 191.802 182.678 191.582 182.582C191.554 182.575 191.437 182.527 191.244 182.458C191.058 182.362 190.803 182.238 190.506 182.086C190.203 181.942 189.893 181.674 189.548 181.426C189.231 181.137 188.879 180.82 188.61 180.442C188.011 179.705 187.68 178.797 187.507 178.102C187.369 177.4 187.328 176.897 187.349 176.828C187.369 175.383 187.769 173.91 188.679 172.926C188.859 172.74 188.989 172.52 189.127 172.3C190.416 170.503 192.257 169.34 194.098 168.576C195.049 168.184 195.994 167.799 196.986 167.565C197.166 167.516 197.352 167.51 197.538 167.489C197.772 167.461 198 167.441 198.227 167.406C198.606 167.344 198.979 167.276 199.372 167.248C199.565 167.234 199.758 167.207 199.957 167.207H200.095C200.164 167.207 200.268 167.262 200.316 167.221C200.337 167.152 200.35 167.076 200.371 166.993L200.578 166.119C200.674 165.72 200.785 165.328 200.909 164.922C200.992 164.653 201.336 163.91 201.805 163.194C202.26 162.472 202.86 161.811 203.087 161.543C203.204 161.384 203.577 161.15 203.956 160.964C204.335 160.772 204.721 160.627 204.845 160.51L204.824 160.517Z" fill="#E6E8EB"/>
</g>
<path d="M196.221 184.716C193.74 184.909 191.044 184.468 188.838 182.892C187.756 182.121 186.853 181.117 186.212 179.94C185.564 178.777 185.198 177.373 185.309 176.01C185.398 174.096 186.136 172.19 187.363 170.765C188.273 169.692 189.376 168.825 190.575 168.198C191.775 167.565 193.037 167.076 194.353 166.836C195.67 166.588 197.014 166.505 198.365 166.657L198.869 166.746C199.013 166.774 199.268 166.815 199.248 166.822C199.372 166.842 199.489 166.898 199.62 166.939L199.813 167.001C199.882 167.015 199.951 166.966 199.951 166.898C199.965 166.774 199.965 166.643 199.999 166.512L200.027 166.374C200.027 166.374 200.034 166.319 200.034 166.333L200.082 166.154C200.144 165.92 200.199 165.679 200.289 165.459C200.447 164.998 200.64 164.558 200.868 164.138C202.205 161.653 204.666 159.705 207.575 159.403C209.437 159.237 211.277 159.822 212.732 160.903C212.918 161.027 213.09 161.185 213.256 161.337C213.428 161.481 213.587 161.646 213.739 161.818C214.035 162.169 214.283 162.562 214.483 162.968C214.89 163.787 215.097 164.702 215.007 165.583C214.752 166.67 214.752 166.45 214.531 165.611C214.352 165.204 214.138 164.647 213.663 164.158C213.566 164.028 213.428 163.917 213.297 163.8C213.173 163.677 213.035 163.566 212.877 163.463C212.732 163.353 212.594 163.236 212.408 163.16C212.27 163.037 212.118 162.926 211.96 162.823C211.091 162.197 210.009 161.846 208.989 161.756C208.472 161.756 207.975 161.729 207.5 161.818C207.01 161.915 206.514 162.052 206.052 162.286C205.121 162.734 204.273 163.436 203.632 164.296C203.315 164.723 203.026 165.184 202.819 165.672C202.702 165.913 202.626 166.168 202.543 166.416L202.44 166.794C202.391 167.015 202.391 167.138 202.364 167.304L202.309 167.772C202.281 167.93 202.267 168.123 202.226 168.253L202.047 168.584C201.916 168.797 201.854 169.052 201.654 169.196C201.55 169.286 201.419 169.361 201.302 169.41C201.24 169.43 201.206 169.458 201.13 169.451L200.916 169.43L200.075 169.355L199.661 169.313L199.455 169.293L199.213 169.217C199.131 169.196 199.062 169.162 198.965 169.148L198.745 169.107L198.517 169.059C198.221 168.976 197.903 168.948 197.586 168.914C194.043 168.529 189.927 170.476 188.328 173.615C187.859 174.461 187.701 175.439 187.639 176.381C187.625 177.29 187.921 178.219 188.425 179.045C189.438 180.731 191.251 181.853 193.285 182.197C195.794 182.644 198.517 182.108 200.916 181C201.619 180.669 202.302 180.284 202.95 179.857C203.274 179.644 203.591 179.417 203.901 179.176C204.06 179.059 204.204 178.935 204.356 178.811C204.418 178.763 204.549 178.646 204.653 178.549L204.983 178.247C205.156 178.088 205.335 178.006 205.507 177.882C205.673 177.751 205.873 177.675 206.093 177.724C206.197 177.744 206.273 177.792 206.328 177.847L206.569 178.013C206.762 178.143 206.948 178.288 207.12 178.467L207.355 178.618C207.41 178.66 207.486 178.694 207.548 178.728C207.679 178.797 207.803 178.873 207.941 178.942C208.217 179.072 208.485 179.21 208.775 179.313C209.906 179.768 211.112 180.07 212.305 180.153C213.821 180.263 215.317 179.933 216.51 179.183C216.827 179.024 217.068 178.749 217.351 178.543C217.606 178.315 217.82 178.068 218.006 177.785C218.385 177.235 218.64 176.595 218.771 175.927C218.888 175.342 218.888 174.757 218.826 174.172C218.668 173.099 218.344 172.486 218.151 172.018C218.061 171.777 217.971 171.591 217.93 171.392C217.909 171.171 217.895 170.972 217.882 170.779C217.875 170.6 217.813 170.401 217.813 170.263C217.813 170.036 218.061 170.015 218.661 170.167C218.957 170.235 219.281 170.442 219.598 170.752C219.922 171.061 220.253 171.481 220.515 172.004C221.322 173.573 221.404 175.439 220.901 177.159C220.639 178.019 220.232 178.859 219.619 179.596C219.309 179.96 218.964 180.311 218.606 180.566L218.068 180.986C217.882 181.123 217.675 181.22 217.475 181.337C215.869 182.252 213.994 182.569 212.263 182.465C210.519 182.348 208.865 181.915 207.293 181.213C207.01 181.089 206.728 180.951 206.445 180.786C206.314 180.717 206.142 180.621 206.031 180.545C206.017 180.532 206.031 180.545 206.024 180.538C206.024 180.538 206.011 180.552 206.038 180.525L205.914 180.628C205.735 180.779 205.556 180.931 205.363 181.075C204.99 181.371 204.604 181.64 204.211 181.908C203.425 182.431 202.591 182.885 201.73 183.278C200.006 184.055 198.165 184.578 196.242 184.75L196.228 184.688L196.221 184.716Z" fill="#E6E8EB"/>
<path d="M279.118 62.6708C279.452 62.7125 279.765 62.8238 279.981 63.0184C280.19 63.2339 280.343 63.4981 280.427 63.7832C280.482 63.9639 280.225 64.2907 280.065 64.2698C279.744 64.242 279.466 64.1586 279.173 64.1794C279.09 64.1794 278.414 63.9709 277.669 64.1794C276.917 64.3393 276.144 64.8677 275.789 65.1736C275.086 65.7575 274.431 66.4388 273.867 67.1966C273.575 67.579 273.331 67.9822 273.129 68.3854C273.045 68.5801 272.948 68.7817 272.906 68.9485L272.781 69.3518C272.732 69.5186 272.669 69.6855 272.593 69.8523C272.307 70.5197 271.813 71.1524 271.228 71.5903C270.643 72.0353 270.009 72.2925 269.417 72.4802C268.888 72.647 268.373 72.7374 267.885 72.8C266.235 72.9807 264.661 73.2866 264.299 74.2043C264.222 74.3503 264.146 74.5311 264.167 74.7257C264.167 74.8022 264.132 75.0525 264.139 75.4418C264.181 75.7755 264.181 75.984 264.417 76.2274C264.64 76.4568 264.981 76.7071 265.364 76.8252C265.539 76.9017 265.706 76.9504 265.852 76.9851C265.991 77.0199 266.096 77.0547 266.151 77.0686C267.321 77.3884 268.693 77.3536 270.009 77.1381C270.197 77.1103 270.392 77.0408 270.58 77.0547C271.019 77.0964 271.423 76.9504 271.813 76.7974C272.37 76.6097 272.906 76.3664 273.463 76.1439C273.728 76.0188 274.027 75.9562 274.32 75.8728C274.584 75.7963 274.605 76.0883 274.536 76.1578C274.341 76.3664 274.598 76.3594 274.675 76.429C274.703 76.4568 274.737 76.4915 274.737 76.5193C274.737 76.5402 274.563 76.6862 274.285 76.9156C274.013 77.152 273.609 77.4162 273.199 77.6803C272.788 77.9584 272.328 78.1739 271.966 78.3686C271.59 78.5424 271.297 78.6536 271.2 78.6884C271.179 78.6953 270.838 78.8205 270.309 78.9526C269.786 79.0986 269.076 79.2446 268.324 79.3141C267.948 79.3558 267.572 79.3836 267.196 79.3766C266.827 79.3906 266.472 79.3627 266.144 79.328C265.824 79.3141 265.532 79.2446 265.309 79.1959C265.079 79.1542 264.912 79.1194 264.828 79.0847C264.466 78.9734 264.125 78.8205 263.791 78.5841C263.756 78.5563 263.422 78.4173 262.983 78.0349C262.753 77.8819 262.544 77.5761 262.321 77.2841C262.21 77.1381 262.147 76.9434 262.057 76.7627C261.973 76.575 261.897 76.3873 261.876 76.1857C261.841 75.991 261.813 75.7894 261.792 75.5878C261.785 75.407 261.792 75.268 261.792 75.1081C261.792 74.8022 261.834 74.4963 261.89 74.2321C261.987 73.6968 262.175 73.3145 262.196 73.2658C262.461 72.7166 262.872 72.2021 263.352 71.8406C263.832 71.4791 264.355 71.2636 264.849 71.1663C265.044 71.1245 265.232 71.062 265.42 71.0064C266.98 70.5545 268.449 70.5058 269.487 70.0053C270.016 69.755 270.33 69.3935 270.531 68.9138C270.573 68.8304 270.629 68.7469 270.664 68.6496L270.747 68.4549C270.782 68.3507 270.817 68.2464 270.859 68.1491C271.214 67.1063 271.757 66.3276 272.37 65.5629C272.983 64.8121 273.679 64.1308 274.466 63.512C274.64 63.366 275.225 63.0184 275.873 62.7751C276.52 62.5179 277.237 62.4066 277.516 62.3719C277.676 62.358 278.017 62.3719 278.345 62.4553C278.672 62.5526 278.978 62.6361 279.118 62.643V62.6708Z" fill="#E6E8EB"/>
<path d="M272.911 79.1752C271.121 80.2944 269.122 80.8228 267.096 80.934C266.086 80.9688 265.056 80.9271 263.976 80.6003C262.939 80.2666 261.943 79.7035 261.184 78.8136C260.634 78.1741 260.216 77.3398 260.098 76.4569C259.979 75.5879 260.174 74.6633 260.467 74.0028C261.149 72.091 262.751 70.4851 264.568 69.7342C265.474 69.338 266.414 69.0807 267.361 68.9348C267.834 68.8722 268.308 68.8235 268.781 68.8027H269.492C269.798 68.8027 269.784 68.8027 269.902 68.8166C269.965 68.8235 270.028 68.8305 270.09 68.8444L270.188 68.8583C270.223 68.8583 270.23 68.8166 270.244 68.7888C270.278 68.6706 270.299 68.5454 270.327 68.4203L270.397 68.1005L270.501 67.6417C270.578 67.3358 270.661 67.0299 270.759 66.7309C271.107 65.6603 271.615 64.5967 272.402 63.7138C273.175 62.8169 274.22 62.1634 275.306 61.8019C276.002 61.5864 276.755 61.4404 277.521 61.4682C278.28 61.496 279.039 61.6629 279.728 61.9966C280.417 62.3372 281.002 62.8865 281.406 63.526C281.81 64.1726 281.998 64.9165 282.012 65.6256C281.963 66.5154 281.88 66.3555 281.636 65.6881C281.476 65.3683 281.26 64.9165 280.849 64.541C280.459 64.1587 279.937 63.8737 279.366 63.6929C278.53 63.3383 277.534 63.248 276.671 63.4913C275.717 63.7833 274.847 64.1309 274.192 64.7844C273.523 65.4101 273.05 66.286 272.723 67.2732C272.639 67.5165 272.569 67.7807 272.507 68.0379L272.416 68.4412L272.374 68.6497L272.305 69.039C272.214 69.5883 272.096 70.1653 271.796 70.4781C271.727 70.5615 271.65 70.6519 271.525 70.6797C271.469 70.7771 271.344 70.7701 271.253 70.8188C271.093 70.923 270.766 70.8674 270.515 70.8813C270.348 70.8535 270.188 70.8327 270.028 70.8188C269.944 70.8118 269.868 70.8049 269.791 70.8049L269.603 70.791C269.45 70.777 269.29 70.7771 269.129 70.7701C268.816 70.7562 268.496 70.7701 268.175 70.7771C266.678 70.8535 265.153 71.3193 264.025 72.237C263.461 72.6889 262.981 73.245 262.653 73.8985C262.458 74.2044 262.34 74.559 262.215 74.9066C262.068 75.2611 262.04 75.5531 262.006 75.8729C261.992 76.5473 262.242 77.1938 262.765 77.7152C263.273 78.2366 263.997 78.6329 264.763 78.8276C265.508 79.0222 266.421 79.05 267.263 78.9944C268.12 78.9318 268.983 78.765 269.805 78.4938C270.404 78.2992 270.989 78.0489 271.525 77.7361C271.796 77.5831 272.061 77.4163 272.305 77.2286C272.423 77.1312 272.556 77.0478 272.667 76.9435L272.855 76.7767C272.959 76.6794 273.043 76.5959 273.134 76.4986C273.398 76.3387 273.621 76.005 273.962 76.1093C274.282 76.151 274.617 76.297 274.937 76.4221L276.225 76.9366C277.806 77.5484 279.436 78.0489 281.079 78.2436C282.701 78.4452 284.408 78.2992 285.661 77.4302C286.148 77.0965 286.545 76.6655 286.859 76.1649C287.012 75.9216 287.151 75.6435 287.256 75.3793L287.374 75.0039C287.416 74.8788 287.409 74.7467 287.43 74.6215C287.465 74.1071 287.346 73.5996 287.102 73.1338C286.845 72.668 286.469 72.2648 286.037 71.9241C285.654 71.6252 285.215 71.4236 284.763 71.2359C283.913 70.9022 283.307 70.8744 282.883 70.7284C282.451 70.6311 282.172 70.4712 281.908 70.2695C281.789 70.1722 281.629 70.0958 281.546 70.0054C281.399 69.8594 281.525 69.6786 281.922 69.4144C282.117 69.2615 282.395 69.1781 282.743 69.1016C282.917 69.0529 283.105 69.0251 283.307 69.0182C283.509 69.0182 283.739 68.9765 283.969 69.0112C285.341 69.1572 286.733 69.6925 287.82 70.7353C288.37 71.2428 288.836 71.8824 289.136 72.6472C289.442 73.398 289.575 74.2878 289.407 75.136L289.352 75.4558L289.254 75.7617C289.185 75.9563 289.115 76.1788 289.031 76.3526C288.878 76.6863 288.69 77.0131 288.481 77.3329C288.056 77.9655 287.499 78.5495 286.852 79.0083C285.543 79.9329 283.976 80.2597 282.562 80.2805C280.752 80.3083 279.073 79.926 277.486 79.4393C276.692 79.1891 275.912 78.9179 275.153 78.6259L274.227 78.2644C274.227 78.2644 274.199 78.2436 274.185 78.2644H274.178C274.22 78.2297 274.129 78.3131 274.074 78.3618C273.955 78.473 273.83 78.5842 273.705 78.6746C273.454 78.8762 273.196 79.0639 272.925 79.2308L272.897 79.196L272.911 79.1752Z" fill="#E6E8EB"/>
<rect x="275.672" y="117.205" width="101.787" height="101.787" rx="50.8935" fill="#FF414C"/>
<rect x="275.672" y="117.205" width="101.787" height="101.787" rx="50.8935" stroke="#3E3E3E" strokeWidth="0.969399"/>
<path d="M355.997 158.419C344.552 157.1 347.214 144.372 356.287 145.518C356.287 145.518 352.465 142.747 349.433 144.002C346.402 145.257 344.291 147.701 343.943 149.405C343.595 151.109 343.588 155.62 345.858 157.506C348.128 159.391 351.797 159.986 351.797 159.986L356.004 158.427L355.997 158.419Z" fill="white"/>
<path d="M330.647 143.11C321.472 144.516 322.111 133.007 328.123 133.819C328.123 133.819 325.345 131.042 322.118 133.014C318.891 134.987 317.694 139.237 319.072 142.145C320.443 145.046 323.336 146.235 324.221 145.902C325.106 145.568 330.654 143.117 330.654 143.117L330.647 143.11Z" fill="white"/>
<path d="M303.803 160.872C296.899 160.313 298.139 153.619 300.598 152.154C300.598 152.154 297.697 150.646 294.854 153.097C292.011 155.541 292.033 158.87 293.244 160.727C294.455 162.583 296.159 164.056 298.009 163.903C299.858 163.751 303.803 160.872 303.803 160.872Z" fill="white"/>
<path d="M302.893 182.322C297.642 183.134 298.251 177.877 298.527 177.282C298.527 177.282 295.35 176.6 294.204 179.719C293.051 182.837 294.502 185.441 296.083 186.072C297.664 186.703 299.528 186.652 300.826 186.072C302.124 185.491 302.9 182.322 302.9 182.322H302.893Z" fill="white"/>
<path d="M322.655 199.533C318.362 199.351 319.029 196.015 319.101 195.791C319.101 195.791 315.983 195.051 315.323 198.082C314.663 201.114 315.961 203.601 317.753 203.616C319.544 203.63 321.865 203.797 322.648 202.629C323.431 201.462 322.648 199.525 322.648 199.525L322.655 199.533Z" fill="white"/>
<path d="M345.889 190.76C345.816 191.057 345.707 193.081 349.391 192.515C349.391 192.515 350.798 196.047 348.195 196.917C345.591 197.787 342.719 196.112 343.031 194.234C343.343 192.356 343.524 191.152 344.706 190.76C345.889 190.368 345.889 190.76 345.889 190.76Z" fill="white"/>
<path d="M355.441 174.671C355.441 174.671 356.63 173.105 357.848 173.917C359.067 174.729 360.184 176.122 359.516 177.123C358.856 178.124 357.174 178.631 356.289 178.261C355.404 177.892 354.411 176.492 355.433 174.671H355.441Z" fill="white"/>
<path d="M330.606 141.754C331.643 140.224 331.679 138.005 330.7 136.221C330.345 135.568 329.83 135.024 329.279 134.553C328.292 133.704 327.002 133.153 325.653 133.059C324.304 132.957 322.897 133.305 321.758 134.088C320.743 134.777 320.003 135.843 319.582 137.011C319.285 137.751 319.133 138.556 319.082 139.346C319.053 140.151 319.075 140.906 319.068 141.798C319.184 142.313 319.162 142.276 318.828 141.914C318.741 141.819 318.632 141.718 318.48 141.587C318.277 141.479 318.204 141.29 318.045 141.109C317.9 140.92 317.748 140.703 317.646 140.456C317.559 140.209 317.523 139.934 317.487 139.651C317.421 138.643 317.537 137.642 317.813 136.67C318.103 135.706 318.589 134.792 319.249 133.987C320.583 132.362 322.585 131.376 324.616 131.282C327.023 131.122 329.598 131.913 331.338 133.726C333.21 135.691 334.022 138.621 333.239 141.254C332.753 142.871 331.723 144.242 330.403 145.213C328.394 146.707 325.747 147.085 323.404 146.526C322.491 146.309 321.606 145.968 320.779 145.475C319.96 144.981 319.198 144.321 318.654 143.495L318.321 142.936C318.226 142.748 318.139 142.545 318.052 142.349C317.508 140.819 317.798 140.267 318.226 139.919C318.328 139.84 318.429 139.738 318.531 139.687C318.879 139.528 319.256 140.072 319.662 140.884C319.967 141.486 320.351 142.008 320.786 142.436C321.185 142.893 321.657 143.27 322.186 143.574C323.245 144.191 324.543 144.488 325.812 144.401C326.755 144.336 327.676 144.082 328.503 143.64C329.33 143.197 330.033 142.537 330.533 141.725L330.584 141.754H330.606Z" fill="white"/>
<path d="M357.497 155.192C358.6 153.306 358.578 150.71 357.497 148.614C357.106 147.845 356.533 147.192 355.909 146.634C354.8 145.626 353.327 144.973 351.79 144.893C350.252 144.799 348.664 145.285 347.417 146.264C346.293 147.105 345.538 148.418 345.096 149.774C344.791 150.645 344.639 151.566 344.596 152.487C344.574 153.415 344.61 154.292 344.617 155.308C344.741 155.902 344.719 155.844 344.363 155.424C344.276 155.315 344.146 155.192 343.994 155.047C343.783 154.909 343.696 154.706 343.529 154.495C343.377 154.278 343.21 154.031 343.109 153.756C343.007 153.473 342.971 153.176 342.935 152.856C342.848 151.732 342.964 150.608 343.232 149.513C343.522 148.425 344.023 147.381 344.69 146.438C346.06 144.516 348.28 143.262 350.593 143.059C353.342 142.79 356.294 143.784 358.179 145.901C360.217 148.193 361.037 151.442 360.304 154.401C359.854 156.229 358.796 157.861 357.374 159.05C355.206 160.878 352.189 161.479 349.476 160.761C347.402 160.16 345.531 158.919 344.298 157.085C344.052 156.671 343.805 156.265 343.638 155.808C343 154.111 343.29 153.473 343.732 153.074C343.841 152.98 343.943 152.864 344.044 152.813C344.4 152.632 344.813 153.241 345.277 154.176C345.625 154.873 346.075 155.496 346.583 156.033C347.047 156.599 347.591 157.092 348.193 157.498C348.795 157.897 349.455 158.23 350.122 158.404C350.745 158.579 351.492 158.629 352.21 158.571C353.269 158.455 354.328 158.143 355.235 157.563C356.156 156.99 356.924 156.164 357.454 155.184L357.505 155.206L357.497 155.192Z" fill="white"/>
<path d="M303.258 159.667C303.91 158.202 303.685 156.273 302.685 154.801C302.322 154.264 301.822 153.843 301.314 153.473C300.4 152.821 299.233 152.465 298.072 152.545C296.912 152.618 295.759 153.118 294.903 153.974C294.134 154.713 293.692 155.78 293.496 156.86C293.351 157.549 293.329 158.267 293.387 158.971C293.467 159.674 293.568 160.334 293.619 161.139C293.757 161.589 293.735 161.552 293.394 161.284C293.242 161.139 292.843 160.994 292.568 160.682C292.415 160.53 292.234 160.363 292.111 160.16C291.995 159.95 291.922 159.718 291.857 159.471C291.661 158.593 291.618 157.694 291.712 156.795C291.821 155.903 292.111 155.025 292.546 154.199C293.438 152.523 295.084 151.305 296.905 150.921C299.058 150.442 301.488 150.899 303.207 152.378C305.056 153.981 306.042 156.454 305.752 158.876C305.571 160.37 304.897 161.748 303.889 162.829C302.358 164.49 300.016 165.222 297.847 164.968C296.187 164.78 294.446 164.098 293.293 162.706C293.046 162.401 292.829 162.089 292.647 161.741C292.024 160.436 292.227 159.913 292.626 159.544C292.72 159.457 292.807 159.355 292.901 159.297C293.22 159.108 293.663 159.536 294.134 160.189C294.482 160.675 294.874 161.088 295.302 161.415C295.693 161.77 296.121 162.046 296.593 162.249C297.535 162.669 298.652 162.785 299.682 162.56C301.205 162.227 302.612 161.204 303.221 159.645L303.272 159.66L303.258 159.667Z" fill="white"/>
<path d="M302.439 182.404C302.78 181.229 302.388 179.771 301.416 178.771C301.061 178.408 300.618 178.154 300.176 177.944C299.378 177.559 298.428 177.436 297.529 177.646C296.622 177.842 295.781 178.372 295.201 179.14C294.686 179.815 294.454 180.692 294.44 181.57C294.41 182.128 294.483 182.694 294.621 183.238C294.773 183.782 294.933 184.275 295.049 184.935C295.216 185.283 295.194 185.261 294.867 185.102C294.722 185.015 294.352 184.971 294.07 184.768C293.917 184.674 293.736 184.565 293.598 184.42C293.468 184.268 293.381 184.086 293.286 183.898C293.004 183.209 292.837 182.484 292.793 181.744C292.764 181.004 292.888 180.25 293.141 179.518C293.678 178.038 294.867 176.849 296.296 176.312C297.979 175.652 299.995 175.652 301.612 176.595C303.353 177.61 304.52 179.488 304.585 181.505C304.622 182.745 304.245 183.949 303.556 184.949C302.519 186.48 300.727 187.357 298.95 187.473C297.587 187.56 296.079 187.306 294.925 186.349C294.679 186.139 294.454 185.921 294.258 185.66C293.555 184.688 293.671 184.224 293.99 183.847C294.062 183.76 294.135 183.659 294.215 183.601C294.483 183.39 294.933 183.651 295.411 184.079C295.759 184.398 296.137 184.645 296.514 184.812C296.862 185.015 297.224 185.153 297.616 185.24C298.392 185.414 299.255 185.348 300.017 185.037C301.141 184.58 302.105 183.666 302.395 182.404H302.446H302.439Z" fill="white"/>
<path d="M322.37 200.608C322.805 199.694 322.703 198.417 322.065 197.424C321.833 197.061 321.507 196.786 321.18 196.539C320.593 196.089 319.832 195.836 319.063 195.865C318.294 195.894 317.518 196.22 316.938 196.793C316.416 197.286 316.126 198.018 316.002 198.758C315.908 199.23 315.894 199.723 315.93 200.201C315.981 200.687 316.031 201.122 315.995 201.724C316.068 202.051 316.053 202.029 315.785 201.855C315.669 201.761 315.328 201.681 315.096 201.471C314.965 201.369 314.813 201.253 314.711 201.108C314.617 200.956 314.559 200.789 314.508 200.608C314.349 199.969 314.305 199.317 314.356 198.664C314.421 198.011 314.632 197.373 314.943 196.764C315.589 195.516 316.807 194.61 318.156 194.342C319.745 194.008 321.529 194.334 322.776 195.429C324.118 196.612 324.807 198.41 324.604 200.172C324.473 201.26 323.987 202.268 323.262 203.059C322.16 204.277 320.448 204.807 318.874 204.618C317.67 204.48 316.387 204.002 315.538 202.979C315.357 202.754 315.197 202.529 315.067 202.268C314.624 201.311 314.813 200.927 315.197 200.637C315.292 200.571 315.371 200.492 315.466 200.448C315.763 200.303 316.162 200.579 316.517 200.999C316.778 201.311 317.068 201.565 317.358 201.753C317.62 201.964 317.888 202.123 318.185 202.247C318.78 202.486 319.462 202.558 320.1 202.413C321.028 202.196 321.92 201.608 322.326 200.6L322.377 200.615L322.37 200.608Z" fill="white"/>
<path d="M348.297 194.696C348.631 194.058 348.587 193.108 348.138 192.354C347.971 192.078 347.732 191.875 347.5 191.686C347.086 191.338 346.535 191.128 345.962 191.135C345.389 191.135 344.809 191.382 344.367 191.817C343.975 192.187 343.757 192.76 343.67 193.325C343.598 193.688 343.591 194.072 343.612 194.442C343.649 194.819 343.678 195.146 343.576 195.646C343.612 195.914 343.605 195.9 343.366 195.769C343.264 195.697 342.945 195.661 342.728 195.494C342.612 195.414 342.459 195.327 342.372 195.211C342.285 195.088 342.234 194.95 342.184 194.805C342.039 194.283 341.995 193.746 342.024 193.209C342.068 192.673 342.234 192.143 342.488 191.628C343.003 190.577 344.026 189.801 345.157 189.583C346.492 189.315 347.971 189.583 349.001 190.511C350.096 191.512 350.64 192.977 350.473 194.42C350.372 195.32 349.98 196.147 349.392 196.806C348.5 197.829 347.079 198.271 345.788 198.105C344.794 197.996 343.728 197.597 343.018 196.748C342.873 196.56 342.735 196.371 342.633 196.161C342.278 195.363 342.467 195.044 342.865 194.79C342.96 194.732 343.047 194.667 343.141 194.624C343.438 194.493 343.83 194.703 344.142 195.001C344.367 195.225 344.606 195.4 344.838 195.508C345.034 195.646 345.222 195.748 345.425 195.82C345.832 195.965 346.288 196.009 346.709 195.914C347.311 195.762 347.942 195.4 348.239 194.682L348.29 194.696H348.297Z" fill="white"/>
<path d="M358.538 176.775C358.77 176.391 358.77 175.767 358.473 175.26C358.364 175.078 358.197 174.948 358.045 174.824C357.501 174.339 356.522 174.281 355.891 174.868C355.616 175.107 355.456 175.492 355.391 175.883C355.333 176.13 355.325 176.391 355.34 176.645C355.369 176.899 355.376 177.123 355.282 177.486C355.304 177.675 355.296 177.667 355.115 177.588C355.043 177.544 354.796 177.522 354.629 177.406C354.542 177.355 354.426 177.29 354.354 177.21C354.288 177.123 354.245 177.022 354.216 176.92C354.114 176.543 354.078 176.159 354.1 175.767C354.136 175.376 354.267 174.998 354.462 174.636C354.869 173.889 355.608 173.359 356.421 173.222C357.371 173.048 358.422 173.222 359.169 173.867C359.967 174.571 360.373 175.629 360.235 176.674C360.148 177.319 359.851 177.907 359.416 178.364C358.756 179.074 357.755 179.357 356.834 179.256C356.138 179.183 355.354 178.944 354.825 178.335C354.716 178.204 354.615 178.066 354.542 177.914C354.274 177.341 354.426 177.102 354.745 176.913C354.818 176.87 354.89 176.819 354.963 176.79C355.202 176.696 355.5 176.833 355.732 177.022C355.898 177.167 356.072 177.261 356.225 177.319C356.355 177.399 356.486 177.45 356.616 177.486C356.885 177.566 357.182 177.588 357.465 177.522C357.864 177.421 358.277 177.218 358.487 176.761L358.524 176.775H358.538Z" fill="white"/>
<rect x="62.4066" y="44.5003" width="101.787" height="101.787" rx="50.8935" fill="#232323"/>
<rect x="62.4066" y="44.5003" width="101.787" height="101.787" rx="50.8935" stroke="#3E3E3E" strokeWidth="0.969399"/>
<path d="M117.661 102.07C106.216 100.75 108.878 88.0221 117.951 89.168C117.951 89.168 114.129 86.3976 111.097 87.6523C108.066 88.9069 105.955 91.3509 105.607 93.0552C105.259 94.7595 105.252 99.2705 107.522 101.156C109.792 103.042 113.462 103.636 113.462 103.636L117.668 102.077L117.661 102.07Z" fill="white"/>
<path d="M119.161 98.8441C120.264 96.9585 120.242 94.3621 119.161 92.2662C118.77 91.4975 118.197 90.8448 117.573 90.2863C116.464 89.2783 114.991 88.6255 113.454 88.5458C111.916 88.4515 110.328 88.9374 109.081 89.9165C107.957 90.7577 107.202 92.0704 106.76 93.4266C106.455 94.2969 106.303 95.2179 106.26 96.1389C106.238 97.0672 106.274 97.9448 106.281 98.9601C106.405 99.5548 106.383 99.4968 106.028 99.0761C105.94 98.9674 105.81 98.8441 105.658 98.699C105.447 98.5612 105.36 98.3582 105.193 98.1478C105.041 97.9303 104.874 97.6837 104.773 97.4081C104.671 97.1253 104.635 96.8279 104.599 96.5088C104.512 95.3847 104.628 94.2606 104.896 93.1655C105.186 92.0776 105.687 91.0333 106.354 90.0905C107.725 88.1686 109.944 86.914 112.257 86.7109C115.006 86.4426 117.958 87.4362 119.843 89.5538C121.881 91.8456 122.701 95.0946 121.968 98.0536C121.518 99.8811 120.46 101.513 119.038 102.702C116.87 104.53 113.853 105.132 111.14 104.414C109.066 103.812 107.195 102.572 105.962 100.737C105.716 100.324 105.469 99.9174 105.302 99.4605C104.664 97.7635 104.954 97.1253 105.397 96.7264C105.505 96.6321 105.607 96.5161 105.708 96.4653C106.064 96.284 106.477 96.8932 106.941 97.8287C107.289 98.525 107.739 99.1487 108.247 99.6853C108.711 100.251 109.255 100.744 109.857 101.15C110.459 101.549 111.119 101.883 111.786 102.057C112.41 102.231 113.157 102.282 113.875 102.224C114.933 102.108 115.992 101.796 116.899 101.216C117.82 100.643 118.589 99.8159 119.118 98.8368L119.169 98.8586L119.161 98.8441Z" fill="white"/>
<path d="M191.066 158.498C191.07 158.396 191.058 158.293 191.03 158.195C190.933 157.906 190.789 157.634 190.603 157.392C190.454 157.199 190.304 157.015 190.154 156.853C189.847 156.534 189.519 156.237 189.171 155.963C188.827 155.689 188.467 155.436 188.092 155.206C187.9 155.086 187.701 154.976 187.497 154.877C187.392 154.824 187.283 154.775 187.172 154.733C187.053 154.688 186.929 154.661 186.802 154.65C186.744 154.643 186.685 154.647 186.629 154.663C186.402 154.753 186.247 155.68 186.301 155.852C186.316 155.887 186.34 155.917 186.37 155.94C186.429 155.979 186.485 156.074 186.557 156.1C186.634 156.135 186.708 156.176 186.778 156.222C186.925 156.306 187.073 156.411 187.231 156.514C187.528 156.73 187.811 156.966 188.078 157.219C188.345 157.47 188.597 157.736 188.833 158.017C188.945 158.144 189.05 158.278 189.147 158.418C189.186 158.474 189.221 158.532 189.253 158.591C189.28 158.634 189.291 158.703 189.303 158.67C189.443 158.623 189.648 158.612 189.701 158.582C189.76 158.567 189.823 158.567 189.882 158.581L190.193 158.65C190.379 158.701 190.573 158.72 190.766 158.705C190.915 158.712 191.052 158.629 191.066 158.498Z" fill="#EDEDED"/>
<path d="M182.537 152.542C182.455 152.488 182.381 152.425 182.298 152.381C181.522 152.001 180.702 151.714 179.858 151.529C179.052 151.344 178.233 151.219 177.409 151.155C176.59 151.078 175.767 151.053 174.946 151.078C174.534 151.09 174.12 151.112 173.699 151.163C173.494 151.179 173.278 151.219 173.068 151.255C172.852 151.302 172.641 151.369 172.438 151.457C172.342 151.493 172.253 151.543 172.172 151.604C171.889 151.852 172.3 152.703 172.558 152.776C172.63 152.784 172.703 152.785 172.775 152.777C172.954 152.765 173.123 152.772 173.299 152.749C173.475 152.726 173.656 152.704 173.829 152.696C174.2 152.666 174.572 152.656 174.944 152.665C175.701 152.672 176.456 152.727 177.206 152.831C177.951 152.923 178.689 153.065 179.416 153.255C180.111 153.419 180.785 153.664 181.423 153.985C181.487 154 181.545 154.039 181.611 154.069C181.893 154.059 182.773 152.828 182.537 152.542Z" fill="#EDEDED"/>
<path d="M167.379 152.326C167.323 152.324 167.267 152.326 167.212 152.33C166.164 152.513 165.157 152.883 164.24 153.422C163.789 153.684 163.357 153.977 162.947 154.298C162.745 154.46 162.548 154.623 162.355 154.792C162.15 154.948 161.977 155.141 161.845 155.361C161.807 155.405 161.781 155.458 161.769 155.515C161.719 155.741 162.391 156.418 162.604 156.414C162.658 156.405 162.709 156.387 162.756 156.36C162.862 156.309 162.964 156.253 163.063 156.19L163.329 155.975C163.51 155.835 163.693 155.71 163.878 155.58C164.245 155.329 164.631 155.106 165.031 154.911C165.811 154.529 166.643 154.264 167.5 154.126C167.545 154.116 167.588 154.101 167.629 154.082C167.786 153.936 167.602 152.437 167.379 152.326Z" fill="#EDEDED"/>
<path d="M158.157 158.387C158.116 158.401 158.076 158.418 158.037 158.438L155.971 159.856L154.93 160.55L154.405 160.888L154.144 161.057C154.058 161.123 153.979 161.198 153.908 161.279C153.873 161.314 153.845 161.355 153.824 161.4C153.89 161.821 154.107 162.203 154.434 162.476C154.485 162.482 154.537 162.477 154.587 162.464C154.695 162.444 154.802 162.412 154.903 162.369L155.185 162.219L155.769 161.92L156.887 161.295C157.634 160.871 158.361 160.423 159.076 159.956C159.112 159.93 159.143 159.899 159.169 159.863C158.967 159.291 158.618 158.783 158.157 158.387Z" fill="#EDEDED"/>
<path d="M148.866 162.889C148.819 162.896 148.773 162.908 148.729 162.926C147.896 163.314 147.094 163.71 146.295 164.065C145.897 164.245 145.494 164.404 145.091 164.542C144.889 164.611 144.689 164.67 144.485 164.728C144.386 164.752 144.286 164.782 144.184 164.8C144.081 164.819 143.991 164.897 143.89 164.932C143.845 164.948 143.804 164.974 143.77 165.008C143.639 165.176 143.72 166.114 143.921 166.236C143.972 166.258 144.027 166.27 144.083 166.272C144.335 166.307 144.591 166.29 144.835 166.222C145.073 166.177 145.313 166.121 145.55 166.06C146.017 165.937 146.475 165.79 146.918 165.635C147.817 165.318 148.656 164.946 149.483 164.582C149.526 164.558 149.566 164.531 149.605 164.501C149.701 164.325 149.074 162.935 148.866 162.889Z" fill="#EDEDED"/>
<path d="M138.547 165.005C138.477 164.984 138.406 164.968 138.335 164.957C136.928 164.916 135.534 164.685 134.19 164.269C133.511 164.062 132.848 163.804 132.208 163.498C131.534 163.245 130.985 162.761 130.27 162.55C130.196 162.521 130.118 162.503 130.038 162.499C129.735 162.488 129.204 163.27 129.368 163.534C129.415 163.602 129.473 163.662 129.54 163.712C129.679 163.839 129.825 163.958 129.979 164.067L130.495 164.353C130.82 164.565 131.157 164.758 131.506 164.929C132.197 165.295 132.914 165.609 133.652 165.871C135.136 166.412 136.696 166.718 138.275 166.779C138.357 166.779 138.438 166.773 138.518 166.761C138.824 166.664 138.797 165.138 138.547 165.005Z" fill="#EDEDED"/>
<path d="M125.884 158.85C125.862 158.822 125.836 158.797 125.807 158.776C125.387 158.482 124.989 158.158 124.615 157.808C124.214 157.445 123.81 157.076 123.423 156.696C123.037 156.315 122.654 155.92 122.298 155.515C122.125 155.316 121.943 155.111 121.797 154.887C121.716 154.781 121.64 154.681 121.574 154.584C121.54 154.532 121.498 154.486 121.449 154.448L121.339 154.335C121.3 154.327 121.281 154.271 121.245 154.273C121.088 154.3 120.103 154.236 120.067 154.652C120.066 154.703 120.069 154.754 120.075 154.804L120.107 154.915C120.147 155.084 120.21 155.248 120.294 155.401C120.376 155.543 120.463 155.666 120.55 155.788C120.719 156.048 120.897 156.274 121.078 156.505C121.436 156.967 121.815 157.403 122.201 157.835C122.586 158.267 122.986 158.682 123.402 159.09C123.839 159.514 124.305 159.907 124.796 160.268C124.866 160.31 124.94 160.346 125.016 160.374C125.363 160.445 125.887 159.001 125.884 158.85Z" fill="#EDEDED"/>
<path d="M215.38 190.752C215.387 190.805 215.397 190.858 215.41 190.91C215.747 191.763 216.248 192.542 216.884 193.204C217.179 193.529 217.494 193.835 217.827 194.12C217.997 194.266 218.163 194.406 218.342 194.533C218.508 194.685 218.706 194.797 218.922 194.861C218.969 194.882 219.021 194.891 219.072 194.886C219.415 194.636 219.658 194.273 219.757 193.86C219.746 193.816 219.724 193.776 219.695 193.742C219.635 193.671 219.596 193.567 219.518 193.513C219.44 193.459 219.379 193.397 219.307 193.334C219.169 193.214 219.037 193.079 218.905 192.95C218.642 192.686 218.396 192.406 218.17 192.11C217.728 191.56 217.375 190.945 217.124 190.287C217.109 190.258 217.092 190.231 217.071 190.206C216.929 190.167 215.443 190.532 215.38 190.752Z" fill="#EDEDED"/>
<path d="M222.784 198.791C222.852 198.869 222.915 198.951 222.986 199.019C223.703 199.701 224.474 200.325 225.291 200.884C226.109 201.429 226.964 201.914 227.85 202.337C228.738 202.764 229.659 203.12 230.603 203.402C231.091 203.545 231.553 203.664 232.044 203.761C232.288 203.802 232.543 203.845 232.782 203.885C233.035 203.908 233.289 203.913 233.543 203.9C233.653 203.899 233.762 203.884 233.868 203.857C234.248 203.732 234.233 202.788 233.933 202.62C233.844 202.585 233.752 202.559 233.659 202.543C233.234 202.416 232.805 202.349 232.37 202.25C231.936 202.152 231.506 202.024 231.084 201.881C230.232 201.595 229.403 201.24 228.608 200.821C227.813 200.401 227.047 199.931 226.313 199.413C225.583 198.897 224.897 198.323 224.259 197.697C224.193 197.635 224.115 197.581 224.042 197.523C223.725 197.398 222.616 198.445 222.784 198.791Z" fill="#EDEDED"/>
<path d="M239.05 204.095C239.097 204.116 239.146 204.133 239.196 204.145C240.155 204.311 241.132 204.353 242.102 204.269C242.588 204.242 243.073 204.188 243.553 204.108C243.786 204.065 244.026 204.013 244.256 203.955C244.496 203.919 244.727 203.834 244.933 203.705C244.983 203.683 245.027 203.65 245.062 203.609C245.12 203.186 245.008 202.757 244.751 202.416C244.705 202.398 244.655 202.389 244.606 202.391C244.495 202.383 244.384 202.383 244.273 202.392L243.96 202.452C243.749 202.488 243.54 202.514 243.326 202.535C242.905 202.587 242.481 202.614 242.057 202.614C241.219 202.615 240.383 202.538 239.559 202.384C239.516 202.374 239.473 202.367 239.429 202.362C239.22 202.45 238.898 203.936 239.05 204.095Z" fill="#EDEDED"/>
<path d="M249.155 203.109C249.198 203.119 249.241 203.126 249.285 203.131C250.141 203.148 250.997 203.058 251.831 202.862C252.247 202.763 252.656 202.638 253.057 202.489C253.261 202.418 253.459 202.338 253.651 202.251C253.862 202.184 254.056 202.072 254.219 201.922C254.26 201.894 254.292 201.855 254.31 201.809C254.269 201.389 254.083 200.996 253.784 200.697C253.743 200.68 253.699 200.672 253.655 200.676C253.557 200.679 253.461 200.692 253.366 200.714C253.283 200.752 253.197 200.778 253.109 200.809C252.935 200.872 252.762 200.925 252.57 200.97C252.22 201.066 251.865 201.142 251.507 201.196C250.79 201.296 250.065 201.331 249.342 201.298C249.302 201.3 249.263 201.307 249.225 201.32C249.058 201.902 249.033 202.516 249.155 203.109Z" fill="#EDEDED"/>
<path d="M257.592 200.59C257.634 200.592 257.676 200.588 257.717 200.58C258.465 200.376 259.181 200.069 259.844 199.667C260.173 199.473 260.491 199.259 260.797 199.029C260.95 198.911 261.098 198.793 261.247 198.669L261.463 198.481C261.528 198.405 261.583 198.321 261.628 198.232C261.656 198.196 261.672 198.152 261.675 198.107C261.499 197.723 261.206 197.403 260.839 197.194C260.799 197.188 260.758 197.195 260.723 197.215C260.564 197.265 260.418 197.347 260.293 197.455C260.165 197.547 260.027 197.636 259.889 197.72C259.616 197.889 259.334 198.041 259.044 198.177C258.47 198.449 257.87 198.664 257.255 198.819C257.225 198.814 257.198 198.85 257.165 198.865C257.185 199.463 257.331 200.051 257.592 200.59Z" fill="#EDEDED"/>
<path d="M219.186 188.255L219.013 188.308C218.45 188.486 217.914 188.74 217.42 189.064C216.927 189.374 216.466 189.734 216.045 190.138C215.23 190.939 214.496 191.818 213.856 192.764L213.759 192.912C213.643 193.087 214.229 193.502 214.35 193.333L214.45 193.191C215.087 192.307 215.813 191.491 216.618 190.756C217.018 190.402 217.441 190.074 217.885 189.776C218.329 189.49 218.793 189.236 219.273 189.016L219.427 188.955C219.601 188.867 219.392 188.192 219.186 188.255Z" fill="#EDEDED"/>
<path d="M260.862 193.882C262.678 193.426 264.549 193.342 266.375 193.634C267.031 193.731 267.681 193.865 268.322 194.035C268.755 194.137 269.297 194.479 269.727 194.494L269.86 194.558C270.17 194.748 270.09 194.535 269.627 193.921C269.519 194.16 269.425 194.405 269.343 194.655C269.044 195.296 268.714 195.92 268.353 196.525C267.641 197.773 266.827 198.98 266.227 200.292C265.721 201.388 267.27 202.276 267.769 201.172C268.592 199.379 269.79 197.771 270.656 196.014C271.13 195.069 271.922 193.673 270.846 192.952C269.769 192.231 268.201 192.018 267.001 191.827C264.808 191.449 262.553 191.538 260.367 192.09C259.251 192.385 259.744 194.174 260.85 193.88L260.862 193.882Z" fill="#E6E8EB"/>
</g>
<rect x="0.410065" y="0.958893" width="439.18" height="261.622" rx="4.51072" stroke="#3E3E3E" strokeWidth="0.82013"/>
<defs>
<clipPath id="clip0_3398_37073">
<rect y="0.548828" width="440" height="262.442" rx="4.92078" fill="white"/>
</clipPath>
</defs>
</svg>
