<svg width="1353" height="797" viewBox="0 0 1353 797" fill="none" xmlns="http://www.w3.org/2000/svg">
    <line y1="71.4998" x2="1352" y2="71.4998" stroke="#383838" />
    <line y1="231.5" x2="1352" y2="231.5" stroke="#383838" />
    <line y1="391.5" x2="1352" y2="391.5" stroke="#383838" />
    <line y1="551.5" x2="1352" y2="551.5" stroke="#383838" />
    <line y1="151.5" x2="1352" y2="151.5" stroke="#383838" />
    <line y1="311.5" x2="1352" y2="311.5" stroke="#383838" />
    <line y1="471.5" x2="1352" y2="471.5" stroke="#383838" />
    <line y1="631.5" x2="1352" y2="631.5" stroke="#383838" />
    <line y1="711.5" x2="1352" y2="711.5" stroke="#383838" />
    <path
        d="M665.403 347.511L664.816 347.342C666.323 344.308 676.216 323.232 688.658 301.998L689.245 302.166C676.803 323.401 666.91 344.477 665.403 347.511ZM663.261 354.825C662.725 354.957 662.023 354.661 661.858 354.231C661.711 353.85 662.082 353.289 662.619 353.157C663.095 353.039 663.797 353.336 663.944 353.717C664.109 354.146 663.738 354.708 663.261 354.825Z"
        fill="#0E0E0E" />
    <path
        d="M659.032 346.68L659.619 346.848C655.309 354.802 650.964 358.431 648.758 358.975C647.507 359.283 646.736 358.638 646.46 357.923C645.064 354.3 653.18 344.364 651.949 341.17C651.765 340.693 651.421 340.308 650.587 340.514C646.891 341.425 640.724 350.828 635.801 361.595L635.214 361.426C636.657 357.886 642.932 345.376 642.087 343.183C641.848 342.563 641.632 342.512 641.096 342.644C639.427 343.056 636.674 348.276 634.049 353.152L633.462 352.983C636.087 348.108 639.005 342.638 640.912 342.168C641.687 341.977 642.37 342.226 642.683 343.036C643.142 344.228 641.791 348.007 640.101 351.921C643.876 345.457 647.721 340.698 650.403 340.037C651.595 339.743 652.324 340.451 652.545 341.023C653.849 344.408 645.734 354.343 647.057 357.776C647.295 358.396 647.681 358.718 648.575 358.498C650.661 357.984 654.804 354.509 659.032 346.68Z"
        fill="#0E0E0E" />
    <path
        d="M633.481 352.979L634.068 353.147C630.527 359.71 625.774 363.127 622.188 362.967C620.575 364.878 618.897 366.284 617.288 366.681C615.917 367.019 614.592 366.458 614.059 365.075C613.232 362.93 614.115 358.954 616.465 355.398L617.089 355.662C614.702 359.122 613.865 362.878 614.655 364.928C615.114 366.12 615.972 366.483 617.104 366.204C618.535 365.851 620.089 364.633 621.578 362.908C619.909 362.641 618.56 361.512 617.77 359.462C615.896 354.599 621.096 346.583 625.149 345.584C626.282 345.304 627.437 345.594 627.933 346.881C629.274 350.361 626.362 357.709 622.637 362.439C625.874 362.371 630.169 359.12 633.481 352.979ZM618.366 359.315C619.101 361.222 620.394 362.208 621.967 362.395C625.688 357.823 628.642 350.413 627.337 347.028C626.952 346.027 626.227 345.84 625.333 346.06C621.518 347.001 616.566 354.643 618.366 359.315Z"
        fill="#0E0E0E" />
    <path
        d="M615.32 357.456L615.907 357.624C612.366 364.187 607.613 367.604 604.027 367.444C602.414 369.356 600.736 370.761 599.127 371.158C597.756 371.496 596.43 370.935 595.898 369.552C595.071 367.407 595.954 363.431 598.304 359.875L598.928 360.139C596.541 363.599 595.704 367.355 596.494 369.405C596.953 370.597 597.811 370.96 598.943 370.681C600.374 370.328 601.927 369.11 603.417 367.385C601.747 367.118 600.399 365.989 599.609 363.939C597.735 359.076 602.935 351.06 606.988 350.061C608.121 349.781 609.276 350.071 609.772 351.358C611.113 354.838 608.201 362.186 604.476 366.916C607.713 366.848 612.008 363.597 615.32 357.456ZM600.205 363.792C600.94 365.699 602.233 366.685 603.806 366.872C607.527 362.3 610.48 354.89 609.176 351.505C608.79 350.504 608.066 350.317 607.172 350.537C603.357 351.478 598.405 359.12 600.205 363.792Z"
        fill="#0E0E0E" />
    <path
        d="M588.223 347.952L587.92 347.505C595.8 343.735 602.811 334.489 600.606 328.768C599.596 326.146 597.229 324.746 592.342 325.951C581.732 328.566 566.261 344.648 568.906 351.514C570.927 356.758 585.912 356.353 588.759 363.742C590.394 367.986 586.716 375.209 576.405 377.751C570.325 379.25 565.39 377.961 564.178 374.814C562.91 371.524 566.723 366.513 573.205 364.027L573.508 364.474C567.145 366.931 563.58 371.568 564.774 374.667C565.876 377.528 570.38 378.714 576.221 377.274C586.294 374.791 589.725 367.942 588.163 363.889C585.463 356.881 570.477 357.286 568.31 351.661C565.554 344.509 581.31 328.148 592.158 325.474C597.403 324.181 600.119 325.808 601.202 328.621C603.48 334.533 596.222 344.153 588.223 347.952Z"
        fill="#0E0E0E" />
    <path
        d="M540.441 373.148L541.028 373.317L540.772 374.007C531.472 397.129 528.327 405.735 524.75 406.617C524.095 406.778 523.375 406.434 523.081 405.671C521.96 402.763 527.481 395.241 535.537 385.32L537.616 380.214C534.743 384.785 531.746 387.508 529.6 388.037C528.349 388.345 526.922 387.862 526.39 386.479C524.222 380.853 532.946 368.94 539.026 367.442C540.337 367.118 541.309 367.609 541.64 368.468C542.522 370.756 539.534 375.199 535.391 377.996L534.969 377.578C539.03 374.906 541.852 370.712 541.044 368.615C540.787 367.947 540.282 367.654 539.209 367.918C533.368 369.358 524.947 381.04 526.986 386.332C527.445 387.524 528.403 387.81 529.417 387.56C532.218 386.869 536.979 381.78 540.441 373.148ZM524.567 406.14C527.07 405.523 529.488 400.28 534.837 387.059C527.473 396.235 522.685 402.949 523.677 405.524C523.897 406.096 524.149 406.243 524.567 406.14Z"
        fill="#0E0E0E" />
    <path
        d="M527.484 379.109L528.071 379.278C523.761 387.231 519.416 390.861 517.211 391.404C515.959 391.713 515.188 391.068 514.913 390.352C513.517 386.729 521.632 376.793 520.401 373.599C520.217 373.122 519.873 372.737 519.039 372.943C515.343 373.854 509.177 383.257 504.253 394.024L503.666 393.856C505.109 390.316 511.384 377.806 510.539 375.613C510.3 374.993 510.084 374.942 509.548 375.074C507.879 375.485 505.126 380.706 502.501 385.581L501.914 385.413C504.539 380.537 507.457 375.067 509.364 374.597C510.139 374.406 510.822 374.655 511.135 375.466C511.594 376.658 510.243 380.436 508.554 384.35C512.328 377.886 516.173 373.127 518.855 372.466C520.047 372.172 520.777 372.88 520.997 373.452C522.301 376.837 514.186 386.773 515.509 390.205C515.747 390.825 516.133 391.148 517.027 390.928C519.113 390.413 523.256 386.938 527.484 379.109Z"
        fill="#0E0E0E" />
    <path
        d="M498.069 371.274C498.546 371.156 499.248 371.453 499.395 371.834C499.56 372.263 499.189 372.825 498.712 372.942C498.175 373.075 497.474 372.778 497.308 372.349C497.161 371.967 497.533 371.406 498.069 371.274ZM491.559 396.893C493.943 396.305 497.848 392.889 501.888 385.419L502.475 385.588C498.352 393.182 494.246 396.752 491.742 397.37C490.431 397.693 489.587 396.857 489.33 396.189C488.852 394.95 489.13 392.793 490.994 388.314L490.623 388.197C490.623 388.197 491.351 386.868 494.191 381.366L495.258 379.223L495.845 379.392L494.737 381.596C490.01 391.01 489.301 394.421 489.926 396.042C490.146 396.615 490.605 397.128 491.559 396.893Z"
        fill="#0E0E0E" />
    <path
        d="M490.605 388.201L491.192 388.369C487.757 394.698 483.779 399.281 481.157 399.927C480.501 400.089 479.515 400.071 479.093 398.974C477.678 395.303 484.831 385.918 483.435 382.294C483.196 381.675 482.724 381.635 482.187 381.767C478.671 382.634 473.141 392.506 468.96 401.472L468.58 402.349L467.993 402.18L468.391 401.351C470.054 397.705 474.514 387.26 473.577 384.829C473.375 384.305 472.949 384.044 472.114 384.25C469.79 384.823 465.194 391.02 458.223 405.111L457.636 404.942C459.078 401.402 465.743 389.057 464.898 386.864C464.678 386.292 464.384 386.208 463.788 386.355C462.119 386.766 459.783 391.884 457.159 396.759L456.572 396.591C459.196 391.715 461.697 386.348 463.604 385.878C464.32 385.702 465.163 385.859 465.494 386.717C465.917 387.814 464.722 390.98 463.201 394.487C467.205 387.601 470.142 384.214 471.93 383.773C473.123 383.479 473.935 384.062 474.173 384.682C474.724 386.112 473.612 389.832 472.303 393.548C475.638 387.297 479.321 381.951 482.004 381.29C482.659 381.128 483.645 381.146 484.031 382.148C485.5 385.962 478.348 395.347 479.689 398.827C479.964 399.542 480.437 399.583 480.973 399.45C483.357 398.863 487.252 394.405 490.605 388.201Z"
        fill="#0E0E0E" />
    <path
        d="M456.59 396.586L457.177 396.755C453.636 403.318 448.883 406.735 445.297 406.575C443.684 408.486 442.007 409.892 440.397 410.288C439.026 410.626 437.701 410.066 437.168 408.683C436.342 406.538 437.224 402.561 439.575 399.006L440.198 399.27C437.811 402.73 436.974 406.486 437.764 408.536C438.223 409.728 439.081 410.091 440.214 409.812C441.644 409.459 443.198 408.241 444.687 406.516C443.018 406.249 441.669 405.12 440.879 403.07C439.006 398.207 444.205 390.19 448.259 389.191C449.391 388.912 450.547 389.201 451.043 390.489C452.384 393.969 449.472 401.317 445.746 406.046C448.984 405.979 453.278 402.728 456.59 396.586ZM441.475 402.923C442.21 404.83 443.504 405.816 445.077 406.002C448.798 401.431 451.751 394.021 450.447 390.636C450.061 389.634 449.336 389.448 448.442 389.668C444.628 390.608 439.675 398.25 441.475 402.923Z"
        fill="#0E0E0E" />
    <path
        d="M423.85 389.884L423.428 389.466C435.608 382.287 441.205 371.405 439.772 367.687C438.909 365.446 436.969 364.985 433.393 365.866C419.147 369.378 396.317 395.836 402.637 412.236C403.996 415.764 408.322 419.71 415.534 417.932C424.237 415.786 433.702 409.694 438.407 401.069L438.994 401.238C434.207 409.987 424.539 416.234 415.718 418.408C408.148 420.274 403.437 416.007 402.04 412.383C395.648 395.792 418.725 368.96 433.209 365.389C436.904 364.478 439.395 365.013 440.368 367.54C441.875 371.449 436.112 382.58 423.85 389.884Z"
        fill="#0E0E0E" />
    <path
        d="M760.307 389.95C759.77 390.082 759.068 389.785 758.903 389.356C758.756 388.975 759.127 388.414 759.664 388.281C760.14 388.164 760.842 388.461 760.989 388.842C761.155 389.271 760.783 389.833 760.307 389.95Z"
        fill="#0E0E0E" />
    <path
        d="M750.761 392.303C750.224 392.436 749.523 392.139 749.357 391.71C749.21 391.328 749.581 390.767 750.118 390.635C750.595 390.517 751.296 390.814 751.443 391.195C751.609 391.624 751.238 392.186 750.761 392.303Z"
        fill="#0E0E0E" />
    <path
        d="M741.215 394.657C740.678 394.789 739.977 394.492 739.811 394.063C739.664 393.682 740.035 393.12 740.572 392.988C741.049 392.87 741.75 393.167 741.897 393.549C742.063 393.978 741.692 394.539 741.215 394.657Z"
        fill="#0E0E0E" />
    <path
        d="M727.009 397.898C730.227 397.104 734.521 392.496 737.874 386.292L738.461 386.461C735.026 392.789 730.649 397.522 727.192 398.374C725.583 398.771 724.601 397.917 724.105 396.63C723.756 395.724 723.59 394.616 723.626 393.354C720.745 397.563 717.857 400.571 715.235 401.218C714.281 401.453 712.809 401.189 712.203 399.616C709.539 392.703 718.182 382.272 722.771 381.14C723.844 380.876 724.798 381.319 725.037 381.939C725.79 383.894 723.262 389.529 718.908 392.795L718.522 392.472C722.757 389.236 725.12 383.85 724.441 382.086C724.275 381.657 723.789 381.412 722.955 381.617C718.604 382.69 710.264 392.89 712.799 399.469C713.295 400.756 714.217 400.947 715.051 400.741C717.733 400.08 720.707 396.789 723.717 392.236C724.123 387.02 726.938 379.591 729.901 372.544C733.816 363.226 738.319 354.755 740.048 354.329C740.524 354.211 741.153 354.318 741.41 354.985C742.071 356.701 737.176 368.558 731.432 379.736C729.133 384.271 726.737 388.724 724.286 392.356C724.2 393.996 724.279 395.386 724.701 396.483C725.16 397.675 725.757 398.206 727.009 397.898ZM730.488 372.712C727.736 379.29 725.195 386.077 724.46 391.113C726.608 387.712 728.775 383.68 730.845 379.568C736.589 368.389 741.402 356.658 740.814 355.132C740.667 354.75 740.589 354.718 740.231 354.806C738.741 355.173 734.404 363.394 730.488 372.712Z"
        fill="#0E0E0E" />
    <path
        d="M712.56 392.533L713.147 392.701C709.711 399.03 703.611 404.71 698.843 405.885C696.459 406.473 694.757 405.274 694.077 403.51C691.671 397.265 699.937 386.874 703.871 385.904C705.242 385.566 705.971 386.274 706.247 386.989C707.386 389.945 702.649 397.638 694.501 399.021C694.181 400.561 694.177 402.076 694.673 403.363C695.316 405.032 696.633 405.908 698.659 405.409C703.308 404.262 709.207 398.736 712.56 392.533ZM704.055 386.381C701.253 387.072 695.992 393.067 694.634 398.518C702.309 397.096 706.716 389.901 705.651 387.136C705.412 386.516 705.068 386.131 704.055 386.381Z"
        fill="#0E0E0E" />
    <path
        d="M694.458 396.995L695.045 397.164C690.735 405.117 686.39 408.747 684.184 409.29C682.933 409.599 682.162 408.954 681.886 408.238C680.49 404.615 688.605 394.679 687.375 391.485C687.191 391.008 686.847 390.623 686.012 390.829C682.317 391.74 676.15 401.143 671.227 411.91L670.64 411.742C672.082 408.202 678.357 395.692 677.512 393.499C677.273 392.879 677.058 392.828 676.521 392.96C674.853 393.371 672.1 398.592 669.475 403.467L668.888 403.299C671.513 398.423 674.43 392.953 676.338 392.483C677.113 392.292 677.796 392.541 678.108 393.352C678.568 394.544 677.217 398.322 675.527 402.236C679.302 395.772 683.147 391.013 685.829 390.352C687.021 390.058 687.75 390.766 687.971 391.338C689.275 394.723 681.16 404.659 682.482 408.091C682.721 408.711 683.107 409.034 684.001 408.814C686.087 408.299 690.23 404.824 694.458 396.995Z"
        fill="#0E0E0E" />
    <path
        d="M668.904 403.295L669.491 403.463C666.056 409.792 661.638 414.587 659.314 415.16C658.002 415.484 656.952 414.96 656.566 413.958C656.052 412.623 656.381 410.767 657.278 408.353C654.617 413.134 651.717 417.294 649.452 417.853C648.438 418.102 647.42 417.831 646.961 416.639C646.41 415.209 647.165 412.256 648.772 408.467L648.341 408.364C649.775 405.818 653.233 399.38 653.774 398.411L654.361 398.58C649.844 406.845 646.638 414.109 647.557 416.493C647.906 417.398 648.493 417.567 649.268 417.376C653.202 416.406 659.476 403.218 662.476 396.266L663.063 396.434C659.363 405.125 656.06 410.951 657.162 413.811C657.474 414.622 658.057 414.948 659.13 414.684C661.216 414.169 665.551 409.498 668.904 403.295Z"
        fill="#0E0E0E" />
    <path
        d="M650.788 377.43L651.375 377.598C648.238 384.532 645.509 390.321 643.297 395.251L651.632 392.831L651.815 393.308L643.003 395.846C636.463 410.039 633.835 416.43 634.992 419.433C635.36 420.387 636.062 420.684 637.134 420.419C640.055 419.699 644.995 414.566 648.348 408.362L648.935 408.531C645.5 414.859 640.477 420.117 637.318 420.896C636.007 421.219 634.837 420.724 634.396 419.58C633.184 416.434 635.812 410.043 642.247 396.084L635.484 398.012L635.301 397.536L642.522 395.442C644.835 390.435 647.569 384.488 650.788 377.43Z"
        fill="#0E0E0E" />
    <path
        d="M614.934 408.403L615.522 408.572C605.655 434.966 600.1 447.142 597 447.906C596.225 448.097 595.725 447.646 595.56 447.217C594.366 444.118 601.921 433.068 607.906 426.581C609.074 423.683 610.31 420.454 611.693 416.929C608.523 422.931 604.798 428.339 602.474 428.912C601.043 429.264 600.272 428.619 599.96 427.809C598.876 424.996 602.178 417.134 605.797 410.604L606.384 410.772C602.765 417.303 599.582 425.135 600.556 427.662C600.832 428.377 601.217 428.7 602.29 428.435C605.449 427.656 611.739 416.709 614.934 408.403ZM596.817 447.43C598.724 446.959 602.054 440.866 607.27 428.147C601.5 434.685 595.109 444.353 596.156 447.07C596.285 447.404 596.399 447.532 596.817 447.43Z"
        fill="#0E0E0E" />
    <path
        d="M601.39 419.939L601.977 420.107C598.601 426.421 595.261 430.795 592.459 431.485C590.612 431.941 589.116 430.43 590.118 426.424C588.029 429.811 585.348 433.186 582.547 433.877C581.355 434.17 580.089 433.595 579.574 432.26C577.517 426.92 585.627 415.107 591.647 413.623C593.196 413.241 594.343 413.845 594.674 414.704C595.317 416.372 593.453 421.53 588.164 425.079L587.742 424.661C592.949 421.237 594.684 416.424 594.078 414.85C593.821 414.183 593.142 413.776 591.83 414.099C586.049 415.525 578.242 427.107 580.17 432.113C580.611 433.257 581.409 433.635 582.363 433.4C586.059 432.489 589.563 426.509 591.716 422.272L591.821 422.037L592.408 422.205L592.262 422.502C588.913 429.227 590.488 431.449 592.276 431.008C594.839 430.377 597.977 426.157 601.39 419.939Z"
        fill="#0E0E0E" />
    <path
        d="M583.035 394.132L583.622 394.301C580.485 401.234 577.756 407.023 575.544 411.954L583.879 409.534L584.062 410.01L575.251 412.548C568.711 426.742 566.082 433.132 567.239 436.136C567.607 437.089 568.309 437.386 569.381 437.122C572.302 436.402 577.242 431.269 580.595 425.065L581.182 425.233C577.747 431.562 572.724 436.82 569.565 437.599C568.254 437.922 567.084 437.427 566.643 436.283C565.431 433.136 568.059 426.746 574.494 412.787L567.731 414.715L567.548 414.238L574.769 412.145C577.082 407.137 579.816 401.191 583.035 394.132Z"
        fill="#0E0E0E" />
    <path
        d="M557.409 414.597L557.106 414.15C564.987 410.38 571.997 401.134 569.793 395.413C568.783 392.791 566.416 391.391 561.528 392.596C550.919 395.211 535.447 411.293 538.092 418.159C540.113 423.403 555.098 422.998 557.946 430.388C559.581 434.631 555.903 441.854 545.591 444.396C539.512 445.895 534.577 444.606 533.364 441.459C532.097 438.17 535.909 433.158 542.392 430.672L542.695 431.12C536.331 433.576 532.766 438.213 533.96 441.312C535.063 444.173 539.566 445.36 545.407 443.92C555.481 441.436 558.911 434.587 557.35 430.535C554.649 423.526 539.664 423.932 537.496 418.306C534.741 411.154 550.497 394.793 561.344 392.119C566.59 390.826 569.305 392.454 570.389 395.266C572.667 401.178 565.409 410.798 557.409 414.597Z"
        fill="#0E0E0E" />
    <g filter="url(#filter0_d_0_1)">
        <path
            d="M143.37 745.307C149.673 744.358 155.596 748.732 156.546 755.037L176.079 752.095C175.129 745.79 179.501 739.865 185.804 738.916C192.106 737.966 198.03 742.341 198.979 748.646L218.512 745.703C217.563 739.398 221.935 733.473 228.237 732.524C234.54 731.575 240.463 735.949 241.413 742.254L260.946 739.312C259.996 733.007 264.368 727.082 270.671 726.132C276.973 725.183 282.897 729.557 283.846 735.862L303.379 732.92C302.429 726.615 306.801 720.69 313.104 719.741C319.406 718.791 325.33 723.166 326.279 729.471L345.812 726.529C344.863 720.224 349.235 714.298 355.537 713.349C361.84 712.4 367.763 716.774 368.713 723.079L388.246 720.137C387.296 713.832 391.668 707.907 397.97 706.958C404.273 706.008 410.196 710.383 411.146 716.688L430.679 713.746C429.729 707.441 434.101 701.515 440.404 700.566C446.706 699.617 452.63 703.991 453.58 710.296L473.112 707.354C472.163 701.049 476.535 695.124 482.837 694.174C489.14 693.225 495.063 697.6 496.013 703.905L515.546 700.962C514.596 694.657 518.968 688.732 525.271 687.783C531.573 686.833 537.496 691.208 538.446 697.513L557.979 694.571C557.029 688.266 561.401 682.341 567.704 681.391C574.006 680.442 579.93 684.816 580.88 691.121L600.412 688.179C599.463 681.874 603.835 675.949 610.137 675C616.44 674.05 622.363 678.425 623.313 684.73L642.846 681.788C641.896 675.483 646.268 669.557 652.571 668.608C658.873 667.659 664.796 672.033 665.746 678.338L685.279 675.396C684.329 669.091 688.701 663.166 695.004 662.216C701.306 661.267 707.23 665.642 708.18 671.947L727.712 669.004C726.763 662.699 731.135 656.774 737.437 655.825C743.74 654.876 749.663 659.25 750.613 665.555L770.146 662.613C769.196 656.308 773.568 650.383 779.871 649.433C786.173 648.484 792.097 652.858 793.046 659.163L812.579 656.221C811.629 649.916 816.001 643.991 822.304 643.042C828.606 642.092 834.53 646.467 835.48 652.772L855.012 649.83C854.063 643.525 858.435 637.599 864.737 636.65C871.04 635.701 876.963 640.075 877.913 646.38L897.446 643.438C896.496 637.133 900.868 631.208 907.171 630.259C913.473 629.309 919.397 633.684 920.346 639.989L939.879 637.046C938.929 630.742 943.301 624.816 949.604 623.867C955.906 622.918 961.83 627.292 962.78 633.597L982.312 630.655C981.363 624.35 985.735 618.425 992.037 617.475C998.34 616.526 1004.26 620.901 1005.21 627.205L1024.75 624.263C1023.8 617.958 1028.17 612.033 1034.47 611.084C1040.77 610.134 1046.7 614.509 1047.65 620.814L1059 619.104L1056.88 605.002C1050.57 605.951 1044.65 601.577 1043.7 595.272C1042.75 588.967 1047.12 583.041 1053.43 582.092L1050.63 563.562C1044.33 564.512 1038.41 560.137 1037.46 553.832C1036.51 547.527 1040.88 541.602 1047.18 540.653L1044.39 522.123C1038.09 523.072 1032.17 518.698 1031.22 512.393C1030.27 506.088 1034.64 500.163 1040.94 499.213L1038.15 480.684C1031.85 481.633 1025.92 477.258 1024.97 470.953C1024.03 464.649 1028.4 458.723 1034.7 457.774L1031.91 439.244C1025.61 440.193 1019.68 435.819 1018.73 429.514C1017.78 423.209 1022.16 417.284 1028.46 416.335L1025.67 397.805C1019.36 398.754 1013.44 394.38 1012.49 388.075C1011.54 381.77 1015.91 375.844 1022.22 374.895L1019.42 356.365C1013.12 357.315 1007.2 352.94 1006.25 346.635C1005.3 340.33 1009.67 334.405 1015.97 333.456L1013.18 314.926C1006.88 315.875 1000.96 311.501 1000.01 305.196C999.058 298.891 1003.43 292.966 1009.73 292.016L1006.94 273.487C1000.64 274.436 994.715 270.061 993.765 263.756C992.816 257.452 997.188 251.526 1003.49 250.577L1000.7 232.047C994.397 232.996 988.473 228.622 987.524 222.317C986.574 216.012 990.946 210.087 997.248 209.138L994.457 190.608C988.155 191.557 982.231 187.183 981.282 180.878C980.332 174.573 984.704 168.647 991.007 167.698L988.216 149.168C981.913 150.118 975.99 145.743 975.04 139.438C974.09 133.133 978.462 127.208 984.765 126.259L981.974 107.729C975.671 108.678 969.748 104.304 968.798 97.9989C967.848 91.6939 972.22 85.7687 978.523 84.8194L975.732 66.2896C969.429 67.2389 963.506 62.8644 962.556 56.5595C961.606 50.2545 965.979 44.3293 972.281 43.38L970.266 30L958.912 31.7102C959.861 38.0152 955.489 43.9404 949.187 44.8897C942.884 45.839 936.961 41.4646 936.011 35.1596L916.478 38.1018C917.428 44.4068 913.056 50.332 906.753 51.2813C900.451 52.2306 894.527 47.8562 893.578 41.5512L874.045 44.4934C874.995 50.7983 870.622 56.7236 864.32 57.6729C858.018 58.6222 852.094 54.2478 851.144 47.9428L831.612 50.885C832.561 57.1899 828.189 63.1152 821.887 64.0645C815.584 65.0138 809.661 60.6394 808.711 54.3344L789.178 57.2766C790.128 63.5815 785.756 69.5068 779.453 70.4561C773.151 71.4054 767.227 67.0309 766.278 60.726L746.745 63.6681C747.695 69.9731 743.322 75.8983 737.02 76.8477C730.718 77.797 724.794 73.4225 723.844 67.1176L704.312 70.0597C705.261 76.3647 700.889 82.2899 694.587 83.2392C688.284 84.1886 682.361 79.8141 681.411 73.5092L661.878 76.4513C662.828 82.7563 658.456 88.6815 652.153 89.6308C645.851 90.5801 639.927 86.2057 638.978 79.9007L619.445 82.8429C620.395 89.1479 616.022 95.0731 609.72 96.0224C603.418 96.9717 597.494 92.5973 596.544 86.2923L577.012 89.2345C577.961 95.5394 573.589 101.465 567.287 102.414C560.984 103.363 555.061 98.9889 554.111 92.6839L534.578 95.6261C535.528 101.931 531.156 107.856 524.853 108.806C518.551 109.755 512.627 105.38 511.678 99.0755L492.145 102.018C493.095 108.323 488.722 114.248 482.42 115.197C476.118 116.146 470.194 111.772 469.244 105.467L449.712 108.409C450.661 114.714 446.289 120.639 439.987 121.589C433.684 122.538 427.761 118.164 426.811 111.859L407.278 114.801C408.228 121.106 403.856 127.031 397.553 127.98C391.251 128.93 385.327 124.555 384.378 118.25L364.845 121.192C365.795 127.497 361.422 133.423 355.12 134.372C348.818 135.321 342.894 130.947 341.944 124.642L322.412 127.584C323.361 133.889 318.989 139.814 312.687 140.764C306.384 141.713 300.461 137.338 299.511 131.033L279.978 133.976C280.928 140.281 276.556 146.206 270.253 147.155C263.951 148.104 258.027 143.73 257.078 137.425L237.545 140.367C238.495 146.672 234.122 152.597 227.82 153.547C221.517 154.496 215.594 150.122 214.644 143.817L195.112 146.759C196.061 153.064 191.689 158.989 185.387 159.938C179.084 160.888 173.161 156.513 172.211 150.208L152.678 153.15C153.628 159.455 149.256 165.381 142.953 166.33C136.651 167.279 130.727 162.905 129.778 156.6L110.245 159.542C111.195 165.847 106.822 171.772 100.52 172.721C94.2175 173.671 88.294 169.296 87.3443 162.991L67.8115 165.934C68.7612 172.238 64.3891 178.164 58.0866 179.113C51.7842 180.062 45.8607 175.688 44.911 169.383L35.0003 170.876L37.0156 184.256C43.3181 183.306 49.2416 187.681 50.1913 193.986C51.141 200.291 46.7689 206.216 40.4664 207.165L43.2575 225.695C49.5599 224.746 55.4834 229.12 56.4331 235.425C57.3828 241.73 53.0107 247.655 46.7083 248.605L49.4994 267.135C55.8018 266.185 61.7253 270.56 62.675 276.865C63.6247 283.17 59.2526 289.095 52.9502 290.044L55.7412 308.574C62.0437 307.625 67.9672 311.999 68.9169 318.304C69.8666 324.609 65.4945 330.534 59.192 331.484L61.9831 350.013C68.2856 349.064 74.2091 353.438 75.1588 359.743C76.1084 366.048 71.7364 371.974 65.4339 372.923L68.225 391.453C74.5274 390.503 80.4509 394.878 81.4006 401.183C82.3503 407.488 77.9782 413.413 71.6758 414.362L74.4669 432.892C80.7693 431.943 86.6928 436.317 87.6425 442.622C88.5922 448.927 84.2201 454.852 77.9177 455.802L80.7087 474.332C87.0112 473.382 92.9347 477.757 93.8844 484.062C94.8341 490.367 90.462 496.292 84.1595 497.241L86.9506 515.771C93.253 514.822 99.1766 519.196 100.126 525.501C101.076 531.806 96.7038 537.731 90.4014 538.681L93.1925 557.21C99.4949 556.261 105.418 560.635 106.368 566.94C107.318 573.245 102.946 579.171 96.6433 580.12L99.4344 598.65C105.737 597.7 111.66 602.075 112.61 608.38C113.56 614.685 109.188 620.61 102.885 621.559L105.676 640.089C111.979 639.14 117.902 643.514 118.852 649.819C119.802 656.124 115.429 662.049 109.127 662.999L111.918 681.529C118.221 680.579 124.144 684.954 125.094 691.259C126.043 697.564 121.671 703.489 115.369 704.438L118.16 722.968C124.462 722.019 130.386 726.393 131.336 732.698C132.285 739.003 127.913 744.928 121.611 745.878L123.735 759.979L133.646 758.487C132.696 752.182 137.068 746.256 143.37 745.307Z"
            fill="#C7C2B7" stroke="#F1E8D7" stroke-width="1.8767" stroke-miterlimit="10" />
        <path d="M1019.76 589.872L941.37 69.4629L73.6326 200.167L152.02 720.576L1019.76 589.872Z" fill="#FAA634" />
        <path
            d="M488.267 350.845C488.335 350.833 488.404 350.82 488.471 350.798C488.972 350.645 489.419 350.257 489.688 349.73C489.95 349.214 490.016 348.633 489.861 348.122C489.71 347.632 489.334 347.192 488.826 346.92C488.319 346.647 487.735 346.571 487.245 346.722C486.165 347.043 485.47 348.299 485.785 349.349C486.093 350.36 487.234 351.035 488.265 350.836L488.267 350.845Z"
            fill="#231F20" />
        <path
            d="M548.904 359.58C549.544 359.463 550.195 359.302 550.861 359.109C555.38 357.75 559.095 355.003 561.307 351.384C563.256 348.209 563.903 344.593 563.03 341.723C561.491 336.617 556.472 334.479 552.038 332.589C548.728 331.174 545.596 329.848 544.918 327.594C543.954 324.396 546.348 318.333 551.018 312.157C555.707 305.968 561.518 301.128 565.824 299.828C567.665 299.277 569.103 299.246 570.111 299.752C570.973 300.184 571.576 301.029 571.971 302.349C573.824 308.505 567.333 318.554 560.719 322.454C560.196 322.763 560.011 323.417 560.303 323.953L560.58 324.462C560.721 324.731 560.97 324.929 561.271 325.016C561.56 325.095 561.879 325.057 562.146 324.906C569.682 320.491 576.959 309.078 574.686 301.525C574.069 299.493 572.983 298.066 571.433 297.263C569.738 296.395 567.583 296.343 565.019 297.109C554.846 300.178 539.517 319.395 542.228 328.393C543.298 331.948 547.084 333.571 551.08 335.287C555.076 337.003 559.204 338.776 560.338 342.513C561.585 346.645 558.706 353.773 550.055 356.38C545.461 357.773 541.813 356.847 540.98 354.082C540.122 351.24 542.928 346.424 548.463 343.79C548.744 343.657 548.954 343.415 549.052 343.122C549.151 342.83 549.123 342.51 548.972 342.243L548.694 341.724C548.414 341.196 547.764 340.98 547.221 341.232C541.018 344.162 536.921 350.415 538.271 354.885C539.434 358.728 543.666 360.512 548.899 359.551L548.904 359.58Z"
            fill="#231F20" />
        <path
            d="M628.138 322.612C628.014 322.329 627.779 322.098 627.486 321.999L626.952 321.803C626.396 321.6 625.774 321.866 625.538 322.408C621.796 330.925 618.176 334.742 616.612 335.253C616.609 335.233 616.603 335.203 616.6 335.184C616.125 333.593 617.731 329.719 619.146 326.297C620.844 322.203 622.442 318.341 621.751 316.017C621.361 314.726 620.06 313.623 618.393 314.123C616.621 314.662 614.664 316.903 612.803 319.776C612.851 319.045 612.79 318.599 612.699 318.27C612.257 316.806 611.05 316.103 609.682 316.517C607.678 317.119 605.767 321.049 602.188 329.24L602.095 329.451C602.095 329.451 602.079 329.474 602.071 329.486C600 334.208 597.627 337.175 595.61 338.593C598.36 333.248 600.297 326.416 599.137 322.593C598.766 321.349 598.047 320.759 597.52 320.49C596.825 320.14 596.032 320.082 595.184 320.34C592.65 321.1 590.345 324.381 589.032 327.195C588.352 328.641 587.857 330.095 587.553 331.483C587.419 331.477 587.29 331.49 587.164 331.524C586.874 331.607 586.635 331.804 586.492 332.074C586.066 332.854 585.708 333.672 585.389 334.483C585.391 334.493 585.373 334.506 585.365 334.518C583.294 339.24 580.922 342.208 578.905 343.625C581.654 338.281 583.591 331.448 582.431 327.625C582.06 326.381 581.342 325.791 580.814 325.522C580.12 325.172 579.326 325.114 578.479 325.372C575.944 326.132 573.639 329.413 572.326 332.227C571.647 333.673 571.151 335.127 570.847 336.515C570.714 336.509 570.584 336.522 570.458 336.556C570.168 336.639 569.93 336.836 569.796 337.104C567.555 341.288 566.576 346.196 567.434 349.038C568.029 351.002 569.618 352.073 571.379 351.749C571.517 351.724 571.654 351.699 571.788 351.654C573.32 351.189 574.889 349.823 576.571 347.47C578.986 347.332 581.543 345.591 583.893 342.607C583.944 343.106 584.013 343.592 584.149 344.004C584.744 345.969 586.334 347.039 588.094 346.715C588.232 346.69 588.37 346.665 588.504 346.62C590.035 346.155 591.604 344.789 593.287 342.437C597.239 342.198 601.527 337.76 604.677 330.613C604.676 330.603 604.693 330.59 604.701 330.578L604.968 329.98C606.508 326.464 608.725 321.38 610.064 319.7C609.844 322.435 606.624 331.079 605.182 334.964C604.514 336.754 603.943 338.292 603.622 339.256C603.433 339.83 603.731 340.456 604.308 340.666L604.842 340.862C605.039 340.938 605.245 340.951 605.432 340.917C605.806 340.848 606.143 340.582 606.287 340.2C611.448 326.349 616.632 317.985 619.113 316.878C619.477 318.306 617.975 321.917 616.66 325.107C614.876 329.4 613.192 333.461 613.953 335.996C614.447 337.633 615.876 338.438 617.456 337.965C619.778 337.264 623.986 333.054 628.2 323.505C628.32 323.219 628.331 322.891 628.208 322.609L628.138 322.612ZM586.81 343.21C586.422 341.929 586.575 339.664 587.415 337.1C587.448 337.277 587.498 337.44 587.551 337.614C588.227 339.858 589.287 341.087 590.322 341.741C589.034 343.309 588.117 343.793 587.644 343.931C587.326 344.03 587.074 344.097 586.81 343.21ZM590.247 336.793C589.598 334.645 590.069 331.508 591.51 328.396C592.785 325.651 594.618 323.453 595.976 323.041C596.035 323.03 596.084 323.021 596.123 323.014C596.182 323.003 596.202 323 596.212 322.998C596.237 323.024 596.316 323.121 596.411 323.419C597.349 326.531 595.215 334.06 591.976 339.343C591.064 338.859 590.544 337.745 590.258 336.801L590.247 336.793ZM570.504 348.982C570.504 348.982 570.268 348.802 570.104 348.242C569.716 346.961 569.869 344.696 570.71 342.132C570.742 342.309 570.793 342.473 570.845 342.646C571.522 344.891 572.581 346.119 573.616 346.773C572.329 348.342 571.411 348.825 570.938 348.963C570.794 349.01 570.607 349.044 570.504 348.982ZM573.543 341.835C572.083 336.989 576.353 328.965 579.272 328.083C579.331 328.072 579.38 328.063 579.419 328.056C579.468 328.047 579.498 328.042 579.508 328.04C579.533 328.066 579.614 328.173 579.707 328.461C580.645 331.572 578.511 339.102 575.272 344.384C574.36 343.901 573.84 342.787 573.554 341.843L573.543 341.835Z"
            fill="#231F20" />
        <path
            d="M465.517 406.148C464.762 403.643 462.498 399.737 455.841 401.744C445.669 404.813 430.339 424.03 433.05 433.028C434.12 436.583 437.906 438.206 441.902 439.922C445.898 441.638 450.026 443.411 451.16 447.147C451.805 449.276 451.261 452.121 449.757 454.563C448.457 456.673 445.857 459.509 440.877 461.014C438.498 461.736 436.343 461.847 434.65 461.325C433.616 461.006 432.287 460.305 431.802 458.716C430.945 455.875 433.75 451.058 439.285 448.424C439.566 448.292 439.776 448.05 439.874 447.757C439.973 447.464 439.945 447.144 439.804 446.875L439.526 446.357C439.246 445.829 438.596 445.613 438.053 445.865C431.85 448.794 427.753 455.048 429.103 459.517C430.266 463.36 434.498 465.145 439.731 464.183C440.37 464.066 441.022 463.906 441.688 463.712C446.207 462.353 449.921 459.606 452.134 455.987C454.082 452.813 454.729 449.196 453.856 446.327C452.318 441.22 447.299 439.082 442.864 437.193C439.544 435.779 436.423 434.452 435.744 432.197C433.637 425.213 447.124 407.311 456.651 404.432C458.491 403.88 459.929 403.849 460.937 404.356C461.8 404.787 462.402 405.632 462.797 406.952C464.65 413.109 458.16 423.157 451.546 427.057C451.023 427.366 450.838 428.021 451.12 428.558L451.398 429.077C451.539 429.346 451.789 429.544 452.09 429.631C452.381 429.72 452.697 429.672 452.964 429.521C460.5 425.106 467.778 413.693 465.505 406.139L465.517 406.148Z"
            fill="#231F20" />
        <path
            d="M506.144 420.908L505.609 420.712C505.325 420.601 505.003 420.62 504.722 420.753C504.442 420.885 504.232 421.127 504.145 421.428C500.687 432.434 495.122 442.984 493.167 443.577C493.118 443.586 493.078 443.593 493.041 443.61C493.032 443.561 493.001 443.506 492.979 443.438C492.306 441.214 494.633 433.242 498.388 424.906C498.519 424.617 498.52 424.292 498.397 424.009C498.272 423.717 498.038 423.496 497.743 423.387L497.209 423.191C496.653 422.988 496.041 423.253 495.793 423.786C494.912 425.738 493.007 430.145 491.636 434.524C487.306 444.217 484.953 446.184 483.904 446.509C483.603 446.31 482.932 444.207 485.352 438.231L485.483 437.892C485.593 437.607 485.586 437.293 485.465 437.021C485.435 436.965 485.402 436.9 485.372 436.845C487.392 433.566 488.153 430.233 487.643 428.568C487.203 427.113 485.592 425.925 483.472 426.559C480.033 427.597 476.548 432.152 474.443 436.077C473.684 437.478 473.074 438.861 472.578 440.202C472.58 440.212 472.562 440.226 472.554 440.237C469.456 447.283 465.066 452.716 462.898 453.368C462.658 453.443 462.564 453.43 462.564 453.43C462.564 453.43 462.455 453.338 462.349 452.981C461.368 449.745 464.442 441.077 469.651 427.207L477.251 424.519C477.815 424.324 478.128 423.707 477.951 423.13L477.789 422.58C477.703 422.281 477.497 422.044 477.217 421.902C476.937 421.761 476.619 421.748 476.333 421.851L470.941 423.767C471.75 421.585 472.622 419.249 473.559 416.769C474.816 413.427 476.181 409.79 477.641 405.841C477.742 405.558 477.737 405.254 477.606 404.984C477.484 404.711 477.252 404.499 476.97 404.399L476.435 404.202C475.858 403.993 475.21 404.285 474.991 404.864C472.079 412.699 469.59 419.349 467.47 424.964L461.334 427.149C460.772 427.354 460.456 427.961 460.633 428.539L460.795 429.089C460.879 429.378 461.087 429.625 461.367 429.766C461.638 429.91 461.957 429.933 462.253 429.827L466.199 428.452C460.755 443.036 458.518 450.005 459.663 453.8C460.189 455.554 461.661 456.483 463.323 456.178C463.461 456.153 463.598 456.127 463.732 456.082C465.91 455.428 468.747 452.497 471.382 448.414C471.435 448.699 471.479 448.996 471.557 449.256C471.852 450.249 472.401 451.022 473.14 451.507C473.81 451.943 474.581 452.096 475.338 451.957C475.446 451.937 475.564 451.915 475.678 451.874C477.45 451.335 479.248 449.663 481.107 446.779C481.336 447.693 481.737 448.27 482.129 448.635C482.837 449.278 483.799 449.477 484.772 449.186C486.449 448.685 488.239 446.861 490.186 443.677C490.222 443.874 490.248 444.072 490.293 444.257C490.818 446.011 492.277 446.811 493.989 446.283C494.366 446.173 494.742 445.951 495.143 445.644C490.593 452.529 485.009 462.757 486.13 466.476C486.474 467.632 487.509 468.286 488.601 468.086C488.68 468.071 488.768 468.055 488.845 468.031C491.726 467.166 495.444 459.619 506.849 422.314C507.019 421.744 506.725 421.137 506.169 420.934L506.144 420.908ZM493.835 453.022C491.211 460.153 489.674 463.191 488.801 464.47C489.141 462.171 491.102 457.794 493.835 453.022ZM474.232 448.429C473.533 446.117 474.589 441.795 476.911 437.444C479.18 433.194 482.144 429.904 484.292 429.255C484.379 429.229 484.458 429.214 484.517 429.203C484.763 429.158 484.852 429.203 484.852 429.203C484.852 429.203 484.902 429.255 484.946 429.379C485.335 430.67 483.884 435.776 479.434 439.39C478.957 439.782 478.882 440.478 479.266 440.966L479.649 441.445C479.835 441.685 480.116 441.827 480.417 441.863C480.49 441.87 480.55 441.869 480.621 441.866C477.973 447.152 476.06 448.805 474.826 449.174C474.71 449.205 474.48 449.278 474.224 448.44L474.232 448.429Z"
            fill="#231F20" />
        <path
            d="M555.514 380.002C559.906 378.676 562.611 375.688 561.819 373.038C561.09 370.62 558.135 369.922 553.935 371.192C549.6 372.497 546.239 374.904 543.122 378.964C540.348 379.139 537.377 379.237 534.496 379.329C528.795 379.513 522.955 379.712 517.986 380.503C519.861 375.654 522.203 368.482 525.624 358.052L527.775 351.496L528.017 350.709C528.132 350.342 528.042 349.962 527.827 349.676C528.692 347.799 529.056 345.963 528.614 344.499C528.379 343.718 527.877 343.089 527.212 342.733C526.512 342.354 525.689 342.301 524.822 342.562C521.316 343.624 517.697 348.223 515.486 352.178C514.675 353.629 514.003 355.064 513.467 356.463C513.461 356.485 513.443 356.498 513.435 356.51C509.692 365.027 506.073 368.844 504.509 369.355C504.506 369.335 504.5 369.305 504.495 369.276C504.02 367.686 505.626 363.812 507.041 360.39C508.739 356.295 510.347 352.431 509.646 350.109C509.463 349.502 509.087 348.951 508.604 348.593C507.945 348.104 507.127 347.969 506.288 348.215C504.516 348.754 502.559 350.995 500.698 353.868C500.756 353.136 500.685 352.691 500.594 352.362C500.314 351.448 499.815 351.001 499.428 350.777C498.882 350.461 498.241 350.405 497.575 350.599C495.571 351.201 493.67 355.129 490.08 363.313L489.972 363.556C489.972 363.556 489.964 363.568 489.956 363.58C486.098 372.352 482.663 375.514 481.113 376.043C481.084 375.998 481.06 375.921 481.02 375.816C480.448 373.918 481.866 368.91 485.492 360.038L486.524 357.52C486.645 357.234 486.638 356.92 486.515 356.637C486.392 356.355 486.159 356.143 485.865 356.035L485.331 355.838C484.763 355.627 484.135 355.916 483.903 356.477L482.917 358.915C480.562 364.523 479.768 366.347 479.63 366.646C479.614 366.67 479.596 366.683 479.59 366.705C476.549 373.618 473.323 377.973 471.59 378.83C471.204 377.173 472.477 373.644 473.599 370.51C475.086 366.373 476.491 362.455 475.71 359.863C475.379 358.785 474.706 358.329 474.193 358.139C473.526 357.885 472.885 357.993 472.452 358.123C470.853 358.61 468.966 360.736 466.815 364.467C466.844 363.739 466.781 363.172 466.646 362.718C466.458 362.082 466.018 361.512 465.466 361.166C464.802 360.759 464.001 360.662 463.193 360.913C462.653 361.073 461.362 361.463 458.772 365.568C458.754 365.358 458.719 365.171 458.669 365.008C458.232 363.573 456.953 362.863 455.546 363.284C453.668 363.853 452.101 367.333 449.489 373.425C449.104 374.32 448.721 375.224 448.327 376.12C448.329 376.13 448.311 376.143 448.303 376.155C446.232 380.877 443.859 383.844 441.842 385.262C444.592 379.917 446.529 373.085 445.369 369.262C444.798 367.374 443.208 366.466 441.426 367.007C438.892 367.767 436.587 371.048 435.274 373.862C434.594 375.308 434.099 376.762 433.794 378.15C433.661 378.144 433.531 378.157 433.405 378.191C433.116 378.274 432.877 378.471 432.734 378.741C432.318 379.519 431.966 380.316 431.637 381.129C431.631 381.15 431.613 381.164 431.597 381.187C427.728 389.9 419.735 397.194 411.219 399.766C404.986 401.643 401.76 396.979 400.833 393.927C395.471 376.092 415.486 346.294 428.607 342.338C432.018 341.314 432.635 342.35 433.038 343.709C434.134 347.351 429.258 359.381 418.318 367.349C418.066 367.527 417.902 367.801 417.866 368.103C417.82 368.406 417.908 368.716 418.104 368.954L418.487 369.433C418.868 369.902 419.547 370 420.029 369.637C431.727 361.032 437.233 347.839 435.734 342.889C435.195 341.117 434.177 339.952 432.699 339.43C431.382 338.96 429.778 339.031 427.774 339.634C420.993 341.683 412.061 350.401 405.541 361.339C398.188 373.722 395.481 385.881 398.141 394.716C399.385 398.829 403.663 404.072 410.587 402.8C411.059 402.713 411.546 402.593 412.038 402.452C418.916 400.375 425.477 395.468 430.122 389.206C430.169 389.736 430.239 390.231 430.372 390.675C430.683 391.705 431.267 392.503 432.046 392.98C432.722 393.395 433.52 393.533 434.326 393.384C434.454 393.361 434.592 393.336 434.726 393.291C436.257 392.826 437.826 391.46 439.509 389.107C443.441 388.873 447.759 384.429 450.898 377.274C450.898 377.274 450.906 377.263 450.914 377.251C451.372 376.201 451.826 375.131 452.267 374.104C453.437 371.338 454.986 367.708 455.989 366.415C455.769 368.926 452.701 376.74 451.156 380.673C450.303 382.833 449.577 384.695 449.197 385.833C449.007 386.406 449.305 387.033 449.873 387.244L450.407 387.44C450.604 387.516 450.81 387.529 450.997 387.495C451.36 387.428 451.69 387.174 451.837 386.812C460.243 365.939 463.449 363.855 463.951 363.651C464.407 365.692 461.87 374.241 459.087 381.727L458.714 382.681C458.603 382.965 458.61 383.279 458.731 383.552C458.853 383.824 459.086 384.046 459.369 384.146L459.904 384.343C460.186 384.444 460.5 384.437 460.771 384.306C461.042 384.175 461.253 383.942 461.354 383.66L461.703 382.68C467.22 368.164 471.14 361.994 473.033 360.955C473.365 362.765 472.09 366.334 470.952 369.492C469.506 373.519 468.132 377.33 468.88 379.796C469.424 381.597 470.918 382.034 472.169 381.652C474.038 381.085 476.145 378.664 478.098 375.57C478.131 375.971 478.188 376.337 478.289 376.664C478.685 377.994 479.956 379.154 481.559 378.859C481.667 378.839 481.775 378.819 481.89 378.778C485.079 377.816 489.044 372.562 492.505 364.728C492.505 364.728 492.515 364.726 492.513 364.716L492.786 364.097C494.326 360.581 496.545 355.506 497.874 353.828C497.655 356.563 494.434 365.207 492.984 369.103C492.325 370.882 491.744 372.422 491.424 373.396C491.235 373.97 491.533 374.596 492.11 374.805L492.645 375.002C492.841 375.078 493.047 375.091 493.234 375.056C493.608 374.988 493.945 374.722 494.089 374.34C499.25 360.489 504.434 352.125 506.913 351.008C507.277 352.436 505.775 356.047 504.46 359.237C502.676 363.53 500.993 367.591 501.753 370.125C501.962 370.819 502.363 371.396 502.898 371.765C503.564 372.233 504.409 372.352 505.257 372.095C506.865 371.606 509.366 369.448 512.16 365.01C512.207 365.266 512.262 365.51 512.335 365.741C512.646 366.771 513.25 367.565 514.076 368.024C514.87 368.468 515.79 368.553 516.667 368.29C517.187 368.133 517.735 367.85 518.301 367.441C514.022 374.093 511.053 379.235 509.751 382.941C507.427 384.07 505.515 385.509 504.141 387.215C502.221 389.602 501.54 392.37 502.269 394.788C502.963 397.071 504.805 398.796 507.479 399.626C509.788 400.351 512.53 400.335 514.988 399.599C520.315 397.99 524.153 394.864 526.414 390.291C526.554 390.001 526.565 389.673 526.448 389.369C526.333 389.075 526.087 388.846 525.791 388.727L525.257 388.531C524.712 388.336 524.116 388.578 523.865 389.091C521.991 392.893 518.731 395.515 514.175 396.891C512.21 397.486 510.082 397.521 508.346 396.986C507.109 396.614 505.521 395.777 504.987 393.974C504.498 392.366 504.989 390.557 506.359 388.882C506.923 388.189 507.777 387.361 509.022 386.552C509.029 386.978 509.07 387.367 509.174 387.714C509.378 388.378 509.752 388.919 510.252 389.265C510.739 389.592 511.312 389.721 511.873 389.618C511.951 389.603 512.03 389.589 512.097 389.566C513.687 389.091 515.018 387.423 516.695 383.658C521.84 382.611 528.409 382.39 534.816 382.178C536.898 382.111 539.031 382.044 541.108 381.948C535.085 391.666 529.106 409.48 520.514 437.972C520.344 438.542 520.649 439.147 521.204 439.35L521.739 439.547C521.924 439.614 522.132 439.637 522.328 439.601C522.427 439.583 522.533 439.553 522.626 439.506C522.905 439.363 523.115 439.121 523.202 438.82C532.264 408.737 538.401 390.62 544.589 381.745C548.167 381.464 552.175 381.032 555.489 380.037L555.514 380.002ZM557.924 373.367C558.62 373.392 559.017 373.563 559.113 373.86C559.221 374.227 558.929 374.799 558.352 375.363C557.521 376.156 556.224 376.842 554.703 377.304C552.401 378.002 549.627 378.399 547.081 378.654C549.285 376.317 551.735 374.82 554.758 373.898C556.009 373.516 557.115 373.333 557.934 373.365L557.924 373.367ZM511.827 386.494C511.793 386.084 511.863 385.583 512.01 384.997C512.369 384.849 512.75 384.708 513.152 384.573C512.677 385.474 512.237 386.124 511.837 386.492L511.827 386.494ZM514.676 381.192C514.219 381.307 513.761 381.411 513.327 381.542C514.313 379.439 515.685 377.001 517.119 374.622C516.242 377.153 515.428 379.366 514.686 381.19L514.676 381.192ZM515.057 364.895C514.309 362.429 515.415 358.098 517.929 353.579C520.331 349.275 523.427 345.93 525.633 345.26C525.711 345.246 525.768 345.225 525.818 345.216C525.837 345.212 525.857 345.209 525.877 345.205C525.882 345.235 525.899 345.272 525.916 345.31C526.455 347.082 524.263 351.419 520.653 354.35C520.176 354.742 520.103 355.447 520.485 355.926L520.868 356.405C521.055 356.645 521.335 356.787 521.636 356.823C521.936 356.849 522.236 356.764 522.464 356.569C522.587 356.465 522.701 356.363 522.824 356.259C520.167 361.994 517.372 365.1 515.88 365.557C515.61 365.637 515.313 365.733 515.065 364.883L515.057 364.895ZM433.087 389.85C432.699 388.569 432.853 386.304 433.693 383.74C433.726 383.917 433.776 384.081 433.828 384.254C434.505 386.499 435.565 387.728 436.6 388.381C435.312 389.95 434.394 390.434 433.921 390.571C433.604 390.67 433.354 390.747 433.087 389.85ZM436.526 383.443C435.877 381.295 436.348 378.158 437.789 375.047C439.064 372.301 440.897 370.104 442.255 369.691C442.314 369.681 442.363 369.671 442.403 369.664C442.452 369.655 442.481 369.65 442.491 369.648C442.516 369.674 442.597 369.781 442.69 370.069C443.628 373.181 441.494 380.71 438.255 385.993C437.343 385.51 436.823 384.395 436.538 383.451L436.526 383.443Z"
            fill="#231F20" />
        <path
            d="M615.498 389.609C619.565 379.874 625.704 363.373 624.858 360.539C624.604 359.711 624.104 359.315 623.727 359.14C623.258 358.911 622.723 358.877 622.212 359.032C621.046 359.379 618.19 362.649 612.046 380.564C610.973 383.689 609.88 386.981 608.929 390.216C608.773 390.082 608.608 389.96 608.427 389.861C607.76 389.496 606.955 389.43 606.194 389.662C603.756 390.394 600.519 393.856 598.145 398.258C597.234 399.94 596.547 401.622 596.053 403.248C596.054 403.258 596.037 403.271 596.028 403.283C593.024 410.119 587.81 416.16 583.899 417.337C583.378 417.493 582.3 417.824 581.66 415.725C581.347 414.684 581.279 413.426 581.462 411.989C585.073 411 588.35 408.364 590.566 404.653C592.252 401.822 592.945 398.898 592.388 397.028C592.237 396.537 591.926 395.842 591.269 395.363C590.788 395.014 589.981 394.664 588.815 395.011C585.916 395.889 581.287 402.016 579.388 408.283C579.388 408.283 579.38 408.294 579.372 408.306C575.631 416.833 572.01 420.64 570.446 421.151C570.443 421.131 570.437 421.102 570.434 421.082C569.959 419.492 571.565 415.618 572.98 412.195C574.678 408.101 576.276 404.239 575.585 401.915C575.195 400.625 573.884 399.523 572.227 400.021C570.455 400.56 568.498 402.801 566.637 405.674C566.695 404.942 566.624 404.497 566.533 404.168C566.091 402.704 564.874 402.003 563.516 402.415C561.512 403.017 559.609 406.935 556.027 415.107L555.913 415.372C555.913 415.372 555.895 415.386 555.897 415.396C552.569 422.961 548.759 427.403 547.565 427.765C547.411 427.814 547.319 427.81 547.313 427.832C547.286 427.796 547.238 427.703 547.173 427.512C546.517 425.324 548.253 420.552 550.46 414.524C551.158 412.626 551.907 410.557 552.687 408.329C552.886 407.754 552.586 407.118 552.009 406.908L551.474 406.712C551.192 406.611 550.878 406.618 550.607 406.749C550.336 406.88 550.125 407.112 550.024 407.395C544.601 422.809 540.337 430.262 538.507 430.812C538.487 430.816 538.467 430.82 538.457 430.821C538.427 430.766 538.389 430.671 538.344 430.537C538.052 429.554 538.068 425.657 544.657 410.832C544.787 410.544 544.788 410.218 544.665 409.936C544.542 409.653 544.306 409.422 544.014 409.323L543.479 409.127C542.923 408.924 542.309 409.179 542.073 409.72C541.901 410.108 541.396 411.238 540.766 412.675C539.554 415.43 537.896 419.191 537.025 421.09C536.887 421.39 536.888 421.725 537.022 422.016C537.041 422.063 537.07 422.109 537.099 422.154C535.614 426.636 535.141 429.651 535.648 431.358C536.149 433.035 537.425 433.888 538.939 433.61C539.067 433.587 539.195 433.563 539.319 433.52C540.34 433.21 541.878 432.226 544.344 427.889C544.373 428.046 544.422 428.2 544.459 428.346C545.002 430.137 546.618 431.02 548.372 430.494C551.357 429.59 555.712 422.801 558.468 416.55C558.466 416.54 558.484 416.527 558.492 416.515L558.756 415.907C560.296 412.391 562.516 407.316 563.844 405.639C563.625 408.373 560.404 417.018 558.962 420.902C558.303 422.681 557.724 424.231 557.403 425.195C557.213 425.768 557.511 426.395 558.079 426.606L558.613 426.802C558.81 426.878 559.016 426.891 559.203 426.857C559.576 426.788 559.914 426.523 560.057 426.141C565.219 412.29 570.403 403.925 572.882 402.809C573.246 404.236 571.743 407.847 570.419 411.039C568.635 415.332 566.951 419.393 567.71 421.918C568.204 423.556 569.645 424.369 571.214 423.887C572.938 423.367 575.709 420.906 578.747 415.752C578.798 416.027 578.868 416.299 578.947 416.559C579.75 419.217 581.798 420.621 584.148 420.189C584.335 420.154 584.52 420.11 584.703 420.056C588.075 419.04 592.042 415.342 595.268 410.489C595.345 411.075 595.46 411.643 595.62 412.183C596.04 413.581 596.843 414.246 597.429 414.556C598.049 414.889 598.779 414.989 599.458 414.864C599.566 414.844 599.674 414.824 599.779 414.785C601.811 414.167 603.992 412.038 606.394 408.292C606.439 408.477 606.491 408.651 606.533 408.826C606.841 409.837 607.308 410.605 607.927 411.101C608.477 411.549 609.404 411.999 610.752 411.589C614.201 410.548 618.456 405.1 621.866 397.376C621.987 397.09 621.999 396.772 621.875 396.48C621.751 396.198 621.518 395.976 621.233 395.866L620.699 395.669C620.143 395.466 619.519 395.723 619.285 396.275C615.872 404.039 612.052 408.259 609.951 408.889C609.768 408.943 609.685 408.938 609.676 408.94C609.664 408.932 609.476 408.794 609.241 408.013C608.952 407.049 608.855 405.746 608.926 403.923C611.38 399.405 613.718 393.922 615.49 389.621L615.498 389.609ZM598.316 411.363C597.403 408.328 598.235 404.057 600.595 399.638C602.813 395.499 605.551 392.8 606.995 392.361C607.248 394.125 605.33 399.51 601.76 402.881C601.543 403.083 601.413 403.371 601.407 403.667C601.4 403.964 601.515 404.258 601.717 404.475L602.071 404.847C602.499 405.297 603.205 405.32 603.645 404.893C604.636 403.979 605.537 402.908 606.324 401.767C606.268 402.235 606.219 402.692 606.189 403.134C602.585 409.805 600.267 411.685 598.966 412.077C598.887 412.091 598.771 412.123 598.715 412.093C598.68 412.069 598.494 411.94 598.316 411.363ZM611.234 392.467C612.327 388.565 613.62 384.647 614.695 381.48C617.6 372.996 620.083 367.141 621.647 364.088C620.483 368.602 617.343 377.852 612.872 388.546C612.302 389.922 611.759 391.232 611.234 392.467ZM589.627 397.718C589.627 397.718 589.652 397.795 589.671 397.843C589.949 398.747 589.614 400.801 588.238 403.159C587.472 404.469 585.491 407.355 582.177 408.797C583.913 403.303 587.913 398.237 589.618 397.72C589.618 397.72 589.618 397.72 589.627 397.718Z"
            fill="#231F20" />
        <path d="M211.353 291.738L238.581 317.017L244.137 326.343L199.731 333.032L171.692 297.712L211.353 291.738Z"
            fill="#111111" />
        <path d="M244.127 326.349L260.482 284.342L204.437 213.679L160.044 220.366L244.127 326.349Z" fill="#111111" />
        <path d="M143.668 262.369L188.062 255.683L155.338 339.717L127.299 304.397L143.668 262.369Z" fill="#111111" />
        <path
            d="M713.992 83.5486C713.992 83.5486 707.473 105.239 713.135 107.874C718.797 110.509 727.289 107.83 727.171 98.9757C727.021 90.097 730.008 84.4732 730.008 84.4732C730.008 84.4732 724.994 84.9608 723.824 90.0375C723.502 85.1741 721.109 80.2912 721.109 80.2912C721.109 80.2912 717.624 86.2447 717.379 89.7537C716.594 85.6742 714.021 83.5446 714.021 83.5446L713.992 83.5486Z"
            fill="#231F20" />
        <path
            d="M907.098 337.027L912.399 320.679L884.63 310.067L878.545 327.561C878.545 327.561 866.586 321.663 865.017 317.122C863.424 312.612 855.484 288.828 846.328 286.06C840.96 284.474 840.357 284.876 840.409 282.83C840.408 280.821 836.604 280.331 836.604 280.331C836.604 280.331 830.182 271.575 828.689 264.352C830.993 260.778 830.566 260.007 830.566 260.007C830.566 260.007 824.791 247.942 825.289 242.789C825.831 240.156 825.81 206.08 795.61 210.4C772.664 214.027 782.06 241.164 782.06 241.164C782.06 241.164 784.531 257.434 780.37 261.072C776.091 258.469 773.333 257.657 772.765 251.48C772.193 245.274 765.657 231.308 761.926 233.536C758.975 230.57 759.501 229.634 759.36 226.438C759.219 223.243 755.462 211.234 748.701 195.894C742 180.574 739.762 166.137 739.17 160.795C738.571 155.598 735.244 145.796 730.266 143.321L729.36 136.991C730.784 136.299 731.62 135.519 731.515 134.788C731.427 134.169 730.671 133.703 729.481 133.414C734.715 131.861 738.165 129.674 737.887 127.732C737.855 127.507 737.767 127.29 737.626 127.109C739.029 126.076 739.769 125.023 739.624 124.01C739.354 122.125 736.262 117.572 736.052 116.109C735.722 113.802 730.185 112.641 723.048 113.146C724.548 112.587 725.453 111.883 725.364 111.264L725.018 108.844C724.873 107.832 721.966 107.386 718.56 107.873C715.155 108.36 712.461 109.607 712.606 110.62L712.952 113.04C713.041 113.659 714.106 114.08 715.702 114.196C708.682 115.717 703.689 118.355 704.023 120.691C704.232 122.154 702.54 127.391 702.809 129.276C702.954 130.289 703.96 131.093 705.596 131.691C705.512 131.904 705.488 132.137 705.52 132.362C705.721 133.769 707.844 134.757 711.069 135.215C711.524 137.188 712.606 140.536 714.93 141.725C716.788 142.665 713.362 144.821 713.672 146.987C713.982 149.153 714.742 149.045 714.67 150.749C714.598 152.453 715.812 154.318 716.094 155.282C716.408 156.271 714.864 157.324 716.432 159.655C717.997 161.958 721.069 163.758 721.588 167.387L723.681 182.017C723.681 182.017 725.133 187.752 728.322 188.158C729.557 194.584 730.581 218.009 738.399 228.087C741.682 239.992 744.18 246.611 744.18 246.611C744.18 246.611 729.058 282.854 743.611 290.619C747.604 292.431 752.027 292.631 752.027 292.631C752.027 292.631 746.13 307.227 756.001 303.949C757.425 308.482 756.309 320.356 762.3 319.671C759.064 330.986 760.946 333.1 765.607 337.371C770.292 341.611 770.172 345.188 770.172 345.188C770.172 345.188 749.222 398.715 774.997 401.803C766.531 421.331 770.358 445.877 782.559 454.668C783.933 478.531 786.791 503.932 790.378 505.113C788.787 514.672 792.209 543.007 799.219 555.068C801.294 560.541 806.813 575.026 805.194 587.804C803.575 600.582 807.367 629.295 807.367 629.295L906.946 615.05C906.946 615.05 895.759 575.193 893.5 553.782C897.307 543.247 897.282 541.872 896.525 534.372C895.736 526.848 891.125 503.248 891.125 503.248C891.125 503.248 897.426 503.523 896.094 496.422C894.762 489.32 894.287 486 894.287 486C894.287 486 896.881 484.452 896.144 480.308C895.384 476.196 881.122 417.859 881.122 417.859C881.122 417.859 887.403 421.209 892.082 411.554C899.36 411.03 903.571 393.287 900.098 371.218C906.97 370.062 907.278 362.381 907.849 358.74C908.419 355.098 912.202 344.393 910.508 341.391C908.847 338.413 907.251 337.091 907.251 337.091L907.098 337.027Z"
            fill="#C7C2B7" />
        <path
            d="M810.969 322.958C817.01 306.763 827.751 290.297 829.379 287.825C826.971 291.471 803.848 326.188 798.489 332.897C792.821 340.053 781.689 354.393 777.118 365.21C779.558 354.554 790.542 321.918 824.747 286.966C824.747 286.966 771.397 336.457 773.329 385.505C770.328 372.957 772.253 361.312 772.253 361.312C772.253 361.312 755.172 391.289 774.96 399.713C775.509 384.676 782.059 358.187 797.388 340.261C806.358 331.284 804.959 336.565 803.167 341.903C801.374 347.242 783.304 407.448 781.099 427.774C778.899 448.129 779.663 450.46 782.244 451.641C781.636 439.555 786.39 421.189 790.778 400.063C795.138 378.94 799.035 353.577 810.96 322.902L810.969 322.958ZM823.283 312.469C823.283 312.469 808.805 409.829 803.857 451.736C800.145 481.006 794.645 485.927 794.645 485.927C794.645 485.927 801.554 490.652 807.976 437.165C814.394 383.65 823.311 312.465 823.311 312.465L823.283 312.469ZM829.096 331.821C824.166 356.384 837.804 502.119 837.804 502.119L829.096 331.821ZM907.102 337.027L912.403 320.679L908.241 319.092L902.759 333.973C905.224 336.348 910.524 341.877 909.045 343.783C907.099 346.243 904.408 341.489 902.189 339.423C901.794 339.078 901.412 338.817 901.046 338.668L899.953 341.667C900.468 341.852 901.051 342.113 901.594 342.494C903.83 344.069 905.812 346.083 904.863 347.482C903.911 348.852 902.238 348.805 900.927 347.671C902.56 349.247 902.19 349.673 901.551 350.626C900.883 351.582 898.238 352.162 898.354 352.978C898.471 353.794 898.218 354.433 899.095 355.743C899.971 357.053 899.091 358.126 898.283 358.701C897.559 359.264 897.02 359.111 894.519 356.483L881.347 392.102L879.582 391.608L874.278 325.214C870.671 323.088 866.014 319.85 865.049 317.117C863.456 312.608 855.515 288.823 846.359 286.056C840.991 284.47 840.388 284.872 840.44 282.826C840.44 280.816 836.636 280.327 836.636 280.327C836.636 280.327 830.214 271.57 828.721 264.348C831.024 260.774 830.598 260.002 830.598 260.002C830.598 260.002 824.823 247.938 825.32 242.785C825.501 241.84 825.625 236.683 824.229 230.739L850.726 223.819L822.668 225.651C822.113 224.18 821.446 222.725 820.637 221.29L841.837 206.257L816.724 217.027C815.293 215.853 813.616 214.773 811.461 213.961L820.581 190.98L805.932 212.656C804.384 212.476 802.647 212.38 800.692 212.372C800.178 212.388 799.691 212.401 799.181 212.445L788.2 185.88L792.9 213.516C790.753 214.167 788.9 215.064 787.259 216.045L761.114 202.128L782.809 219.467C782.378 219.873 781.98 220.303 781.606 220.701C781.144 221.887 780.831 223.109 780.606 224.347L759.36 227.817C759.328 227.391 759.32 226.932 759.327 226.386C759.186 223.19 755.429 211.181 748.668 195.841C741.967 180.521 739.73 166.084 739.138 160.742C738.538 155.546 735.212 145.743 730.233 143.268L729.328 136.938C729.46 136.862 729.597 136.814 729.702 136.741C730.341 136.391 730.807 136.037 731.101 135.68C731.129 135.676 731.157 135.672 731.149 135.615C731.173 135.583 731.221 135.519 731.242 135.459C731.237 135.43 731.29 135.394 731.314 135.362C731.338 135.33 731.358 135.27 731.382 135.237C731.374 135.181 731.398 135.149 731.418 135.089C731.418 135.089 731.467 135.024 731.463 134.996C731.451 134.912 731.467 134.823 731.455 134.739C731.366 134.12 730.61 133.654 729.42 133.365C734.655 131.812 738.104 129.625 737.827 127.684C737.794 127.458 737.706 127.241 737.565 127.061C738.968 126.027 739.708 124.974 739.563 123.961C739.294 122.076 736.201 117.523 735.992 116.06C735.662 113.753 730.125 112.593 722.988 113.097C724.487 112.538 725.392 111.834 725.303 111.215L724.957 108.796C724.901 108.402 724.455 108.092 723.711 107.912C723.988 108.848 724.001 109.937 722.818 110.709C721.351 111.695 719.795 113.066 719.795 113.066C719.795 113.066 731.452 114.441 732.482 117.825C732.828 119.039 730.689 119.747 727.673 120.351C725.409 120.387 722.936 120.569 720.375 120.935C710.383 122.365 702.656 125.968 703.086 128.978C703.139 129.344 703.296 129.637 703.541 129.947C704.666 127.374 710.822 124.627 718.751 123.235C725.381 122.803 728.992 123.55 730.339 124.534C727.694 124.31 724.409 124.435 720.947 124.93C712.419 126.15 705.821 129.219 706.187 131.779C706.392 133.214 708.68 134.15 712.098 134.551C714.699 133.461 718.133 132.568 721.961 132.02L723.087 131.859C722.395 132.848 722.005 133.938 722.211 135.171C718.158 135.751 714.515 136.789 711.926 137.963C712.183 138.558 712.468 139.149 712.802 139.675C713.759 139.338 714.776 139.02 715.854 138.722C715.862 139.582 716.055 140.732 717 140.51C718.528 140.148 721.841 141.024 722.754 140.175C723.695 139.323 725.794 138.133 726.425 139.736C727.057 141.34 730.997 142.987 731.078 146.162C731.135 149.37 726.68 148.342 725.449 146.565C724.214 144.761 721.962 142.873 721.85 144.295C721.738 145.718 720.588 146.113 719.277 146.788C717.938 147.468 717.419 148.461 717.419 148.461C717.419 148.461 721.754 147.64 723.929 148.793C726.137 149.97 727.042 150.271 726.716 151.81C726.419 153.346 724.919 153.905 724.919 153.905C724.919 153.905 725.905 157.582 723.653 157.503C721.425 157.391 719.564 158.432 719.882 160.253C723.677 159.279 728.362 161.308 728.933 164.901C729.509 168.522 731.735 184.483 731.735 184.483C731.735 184.483 731.482 186.93 729.773 187.232C732.073 187.248 733.521 190.543 735.29 193.678C737.036 196.845 745.501 203.414 749.21 216.493L757.719 254.493C757.719 254.493 761.549 242.318 762.715 242.237C763.913 242.181 766.346 243.125 763.296 252.72C760.249 262.343 749.68 278.411 748.06 279.733C746.412 281.06 744.896 280.1 745.599 276.784C746.334 273.492 749.175 260.022 749.175 260.022L745.736 249.633C745.736 249.633 740.797 267.106 741.34 270.904C745.075 265.489 746.607 265.356 746.607 265.356C746.607 265.356 743.175 280.518 744.406 285.912C745.641 291.334 757.267 271.813 760.314 263.999C763.328 256.16 765.869 252.036 766.709 253.494C767.55 254.953 757.344 277.975 752.652 283.527C748.298 288.628 748.073 289.464 743.502 290.434C743.502 290.434 743.502 290.434 743.562 290.454C747.555 292.266 751.978 292.466 751.978 292.466C751.978 292.466 746.081 307.061 755.952 303.783C755.988 304.037 756.081 304.282 756.149 304.559C756.824 298.835 758.178 290.832 760.984 283.34C760.984 283.34 757.14 315.499 760.345 316.821C761.104 313.497 764.071 306.326 764.071 306.326C764.071 306.326 761.31 286.02 766.147 284.295C766.59 290.605 768.553 296.698 768.553 296.698C768.553 296.698 774.04 283.855 775.032 280.756C776.58 279.329 777.388 279.557 777.388 279.557C777.388 279.557 768.084 310.087 764.929 319.151C763.205 324.164 761.842 328.091 761.01 331.311C761.738 333.589 763.315 335.173 765.526 337.182C766.753 338.327 767.682 339.4 768.337 340.368C769.751 329.17 772.844 306.822 776.988 292.219C782.691 272.052 785.811 269.366 787.439 271.717C789.04 274.072 793.929 272.511 793.929 272.511C793.929 272.511 794.034 271.635 794.17 270.18C797.663 288.974 815.813 286.55 815.813 286.55C815.813 286.55 815.137 286.646 809.5 285.185C798.357 281.18 794.818 272.097 794.146 270.011C794.343 266.969 794.414 261.647 793.091 256.611C791.019 248.955 790.102 244.751 792.345 243.769C794.802 243.073 798.139 243.113 797.97 241.931C797.801 240.75 797.648 238.274 795.622 238.564C793.595 238.853 791.725 239.035 790.837 241.057C789.896 243.115 788.384 239.771 791.954 236.619C795.528 233.495 799.802 231.85 799.601 229.439C799.613 228.92 801.571 229.157 802.959 230.423C804.374 231.684 807.864 233.195 808.765 233.87C809.662 234.517 809.461 234.718 806.365 235.161C803.269 235.603 801.291 236.231 801.714 240.793C802.132 245.327 803.013 248.273 801.658 248.639C800.247 249.013 798.828 249.13 798.973 250.142C799.117 251.155 800.834 250.307 801.49 251.074C802.173 251.838 802.68 252.569 801.892 252.682C801.104 252.795 798.149 254.624 798.748 256.003C799.83 254.527 801.096 253.743 802.769 253.791C804.466 253.807 805.338 254.888 803.871 255.27C802.407 255.68 800.336 255.862 800.409 256.368C800.481 256.875 802.359 256.549 803.819 256.512C805.25 256.479 806.694 256.531 807.023 257.633C807.321 258.71 807.655 261.045 804.31 261.753C800.969 262.489 795.677 263.246 795.854 264.082C796.059 264.914 800.302 268.671 806.358 272.858C812.414 277.045 813.166 277.282 812.648 279.882C812.157 282.479 814.059 284.131 818.362 283.687C822.608 283.252 827.988 284.119 829.327 285.851C830.485 283.705 833.739 291.996 838.298 290.74C842.854 289.457 850.108 296.602 852.204 304.427C854.304 312.28 856.661 319.925 856.661 319.925C856.661 319.925 839.646 294.136 836.449 294.278C841.247 302.52 839.51 332.341 838.011 336.316C836.516 340.32 837.61 343.149 840.883 343.743C844.156 344.337 849.683 361.49 856.585 383.443C863.484 405.366 878.423 473.857 878.423 473.857C878.423 473.857 833.855 502.425 839.087 508.883C844.323 515.369 861.091 516.932 845.21 528.391C829.333 539.879 813.013 546.261 814.904 555.666C820.111 553.113 824.851 555.133 825.432 565.013C825.948 573.839 827.076 620.274 820.165 627.177L824.302 626.585C826.485 622.57 825.761 592.413 827.139 582.569C829.633 564.268 824.501 552.484 828.718 547.029C832.968 541.598 833.664 544.657 834.215 548.511C834.73 552.112 842.43 609.149 831.56 625.519L873.468 619.523C872.262 615.705 865.623 581.542 863.647 572.351C861.153 560.936 857.402 533.71 860.59 532.508C863.75 531.309 864.474 529.54 864.092 526.867C863.709 524.195 869.458 517.803 870.216 529.925C870.969 542.019 872.752 612.707 876.761 613.626C880.621 614.51 889.133 611.167 892.101 616.858L892.27 616.834C888.685 602.618 879.065 527.338 882.675 521.051C886.358 514.667 888.282 535.953 889.409 544.836C890.379 552.42 900.527 604.284 904.823 615.038L906.821 614.752C906.821 614.752 895.634 574.895 893.375 553.485C897.181 542.949 897.157 541.574 896.4 534.074C895.611 526.55 891 502.95 891 502.95C891 502.95 897.301 503.226 895.969 496.124C894.637 489.022 894.162 485.702 894.162 485.702C894.162 485.702 896.755 484.154 896.019 480.01C895.259 475.898 880.997 417.561 880.997 417.561C880.997 417.561 887.278 420.912 891.957 411.256C899.235 410.732 903.446 392.989 899.973 370.92C906.845 369.764 907.153 362.083 907.724 358.442C908.294 354.8 912.076 344.096 910.383 341.093C908.722 338.116 907.126 336.794 907.126 336.794L907.102 337.027ZM761.922 233.479C759.642 231.193 759.428 230.104 759.392 228.243L780.2 229.343C780.184 230.637 780.281 231.915 780.394 233.105L767.725 237.903C765.738 234.656 763.534 232.502 761.894 233.483L761.922 233.479ZM780.398 261.039C776.119 258.436 773.361 257.625 772.793 251.447C772.527 248.585 770.962 244.072 769.036 240.242L781.323 238.398C781.71 240.094 782.088 241.131 782.088 241.131C782.088 241.131 784.559 257.401 780.398 261.039ZM809.718 230.288C803.541 226.865 800.151 224.651 797.514 226.694C794.905 228.732 790.229 236.808 787.78 235.149C785.331 233.49 786.344 229.727 787.422 228.023C787.422 228.023 793.596 217.177 810.545 222.418C816.504 224.925 815.894 233.711 809.718 230.288ZM810.177 480.461C809.543 490.285 808.305 554.916 808.305 554.916L813.849 458.748C813.849 458.748 810.807 470.609 810.177 480.461Z"
            fill="#231F20" />
        <path
            d="M219.991 627.356L220.445 635.337C216.387 629.699 208.673 627.472 200.936 628.637C186.402 630.827 178.253 642.752 180.671 658.805C183.074 674.755 193.604 685.031 208.975 682.716C217.34 681.456 222.9 676.488 225.346 670.717L227.384 678.566L239.304 676.771L231.597 625.608L219.991 627.356ZM222.485 653.142C223.873 662.36 219.074 669.544 210.186 670.883C201.298 672.221 194.894 666.619 193.521 657.505C192.148 648.391 196.707 641.031 205.595 639.692C214.483 638.354 221.096 643.925 222.485 653.142Z"
            fill="#111111" />
        <path
            d="M261.009 673.502L258.934 659.727L265.292 650.825L282.025 670.336L296.664 668.131L272.776 640.165L289.376 616.905L273.378 619.314L256.531 643.777L249.629 597.953L236.977 599.859L248.357 675.407L261.009 673.502Z"
            fill="#111111" />
        <path
            d="M331.797 610.515L332.25 618.496C328.193 612.858 320.479 610.631 312.742 611.796C298.207 613.986 290.059 625.911 292.477 641.964C294.879 657.914 305.41 668.19 320.78 665.875C329.145 664.615 334.706 659.647 337.152 653.877L339.19 661.725L351.11 659.93L343.403 608.767L331.797 610.515ZM334.291 636.301C335.679 645.519 330.88 652.703 321.992 654.042C313.104 655.38 306.7 649.778 305.327 640.664C303.954 631.55 308.513 624.19 317.401 622.852C326.289 621.513 332.902 627.084 334.291 636.301Z"
            fill="#111111" />
        <path
            d="M355.225 643.422C356.738 653.468 365.924 659.076 378.785 657.138C391.541 655.217 399.462 647.457 397.902 637.1C396.716 629.229 391.732 625.954 382.757 625.294L373.123 624.521C368.575 624.146 365.994 622.629 365.557 619.729C364.98 615.897 367.565 613.177 372.584 612.421C377.498 611.681 380.847 614.036 381.607 618.37L393.736 616.544C392.134 606.617 383.293 601.169 371.687 602.918C359.767 604.713 352.098 612.012 353.611 622.058C354.843 630.24 359.995 633.912 369.613 634.582L379.246 635.355C384.003 635.698 385.643 637.358 386.033 639.947C386.595 643.675 383.712 646.546 377.752 647.443C371.897 648.325 368.129 646.033 367.354 641.595L355.225 643.422Z"
            fill="#111111" />
        <path
            d="M420.089 649.54L415.877 621.576C414.723 613.912 418.586 607.61 426.637 606.398C433.12 605.421 438.031 608.918 439.326 617.514L443.616 645.996L456.372 644.075L451.63 612.59C449.633 599.333 441.74 592.366 428.983 594.287C421.559 595.406 415.979 599.53 413.486 604.989L408.814 573.975L395.953 575.912L407.333 651.461L420.089 649.54Z"
            fill="#111111" />
    </g>
    <g filter="url(#filter1_d_0_1)">
        <path
            d="M1255.99 426.973C1256.71 423.798 1259.84 421.817 1263.02 422.533L1264.57 415.668C1261.39 414.952 1259.41 411.815 1260.13 408.641C1260.84 405.467 1263.98 403.485 1267.15 404.201L1268.7 397.336C1265.53 396.62 1263.55 393.484 1264.26 390.31C1264.98 387.136 1268.11 385.154 1271.29 385.87L1272.84 379.005C1269.66 378.289 1267.68 375.153 1268.4 371.979C1269.11 368.804 1272.25 366.823 1275.42 367.539L1276.97 360.674C1273.8 359.958 1271.82 356.821 1272.53 353.647C1273.25 350.473 1276.38 348.491 1279.56 349.207L1281.11 342.342C1277.93 341.626 1275.95 338.49 1276.67 335.316C1277.38 332.142 1280.52 330.16 1283.69 330.876L1285.24 324.011C1282.07 323.295 1280.09 320.159 1280.8 316.985C1281.52 313.811 1284.66 311.829 1287.83 312.545L1289.38 305.68C1286.2 304.964 1284.22 301.827 1284.94 298.653C1285.65 295.479 1288.79 293.497 1291.96 294.213L1293.51 287.348C1290.34 286.632 1288.36 283.496 1289.07 280.322C1289.79 277.148 1292.93 275.166 1296.1 275.882L1297.65 269.017C1294.47 268.301 1292.49 265.165 1293.21 261.991C1293.92 258.817 1297.06 256.835 1300.24 257.551L1301.78 250.686C1298.61 249.97 1296.63 246.834 1297.34 243.659C1298.06 240.485 1301.2 238.504 1304.37 239.22L1305.92 232.355C1302.74 231.638 1300.76 228.502 1301.48 225.328C1302.2 222.154 1305.33 220.172 1308.51 220.888L1310.05 214.023C1306.88 213.307 1304.9 210.171 1305.61 206.997C1306.33 203.823 1309.47 201.841 1312.64 202.557L1314.19 195.692C1311.02 194.976 1309.03 191.84 1309.75 188.665C1310.47 185.491 1313.6 183.51 1316.78 184.226L1318.32 177.361C1315.15 176.645 1313.17 173.508 1313.88 170.334C1314.6 167.16 1317.74 165.178 1320.91 165.894L1322.46 159.029C1319.29 158.313 1317.3 155.177 1318.02 152.003C1318.74 148.829 1321.87 146.847 1325.05 147.563L1326.29 142.051L1319.23 140.458C1318.51 143.632 1315.38 145.614 1312.2 144.898C1309.03 144.182 1307.05 141.046 1307.76 137.872L1300.9 136.323C1300.18 139.497 1297.04 141.479 1293.87 140.763C1290.7 140.047 1288.71 136.911 1289.43 133.736L1282.57 132.188C1281.85 135.362 1278.71 137.344 1275.54 136.628C1272.36 135.912 1270.38 132.775 1271.1 129.601L1264.23 128.053C1263.52 131.227 1260.38 133.208 1257.21 132.492C1254.03 131.776 1252.05 128.64 1252.77 125.466L1245.9 123.917C1245.19 127.092 1242.05 129.073 1238.88 128.357C1235.7 127.641 1233.72 124.505 1234.44 121.331L1227.57 119.782C1226.86 122.956 1223.72 124.938 1220.54 124.222C1217.37 123.506 1215.39 120.37 1216.11 117.196L1209.24 115.647C1208.52 118.821 1205.39 120.803 1202.21 120.087C1199.04 119.371 1197.06 116.235 1197.77 113.06L1190.91 111.512C1190.19 114.686 1187.06 116.668 1183.88 115.952C1180.71 115.236 1178.73 112.099 1179.44 108.925L1172.58 107.377C1171.86 110.551 1168.73 112.532 1165.55 111.816C1162.38 111.1 1160.4 107.964 1161.11 104.79L1154.25 103.241C1153.53 106.415 1150.39 108.397 1147.22 107.681C1144.05 106.965 1142.06 103.829 1142.78 100.655L1135.91 99.1061C1135.2 102.28 1132.06 104.262 1128.89 103.546C1125.71 102.83 1123.73 99.6937 1124.45 96.5195L1117.58 94.9709C1116.87 98.145 1113.73 100.127 1110.56 99.4107C1107.38 98.6947 1105.4 95.5584 1106.12 92.3843L1099.25 90.8357C1098.54 94.0098 1095.4 95.9916 1092.23 95.2755C1089.05 94.5595 1087.07 91.4232 1087.79 88.2491L1080.92 86.7005C1080.2 89.8746 1077.07 91.8563 1073.89 91.1403C1070.72 90.4243 1068.74 87.288 1069.45 84.1139L1062.59 82.5653C1061.87 85.7394 1058.74 87.7211 1055.56 87.0051C1052.39 86.2891 1050.41 83.1528 1051.12 79.9787L1044.26 78.43C1043.54 81.6042 1040.41 83.5859 1037.23 82.8699C1034.06 82.1539 1032.08 79.0176 1032.79 75.8435L1029.05 74.9998L1027.81 80.5115C1030.98 81.2275 1032.96 84.3638 1032.25 87.5379C1031.53 90.712 1028.4 92.6938 1025.22 91.9778L1023.67 98.8428C1026.85 99.5588 1028.83 102.695 1028.11 105.869C1027.4 109.043 1024.26 111.025 1021.09 110.309L1019.54 117.174C1022.71 117.89 1024.69 121.026 1023.98 124.201C1023.26 127.375 1020.13 129.356 1016.95 128.64L1015.4 135.505C1018.58 136.221 1020.56 139.358 1019.84 142.532C1019.13 145.706 1015.99 147.688 1012.82 146.972L1011.27 153.837C1014.44 154.553 1016.42 157.689 1015.71 160.863C1014.99 164.037 1011.86 166.019 1008.68 165.303L1007.13 172.168C1010.31 172.884 1012.29 176.02 1011.57 179.194C1010.86 182.369 1007.72 184.35 1004.55 183.634L1003 190.499C1006.17 191.215 1008.15 194.352 1007.44 197.526C1006.72 200.7 1003.58 202.682 1000.41 201.966L998.862 208.831C1002.04 209.547 1004.02 212.683 1003.3 215.857C1002.59 219.031 999.449 221.013 996.275 220.297L994.727 227.162C997.901 227.878 999.883 231.014 999.167 234.188C998.451 237.363 995.314 239.344 992.14 238.628L990.592 245.493C993.766 246.209 995.747 249.346 995.031 252.52C994.315 255.694 991.179 257.676 988.005 256.96L986.456 263.825C989.63 264.541 991.612 267.677 990.896 270.851C990.18 274.025 987.044 276.007 983.87 275.291L982.321 282.156C985.495 282.872 987.477 286.008 986.761 289.182C986.045 292.357 982.909 294.338 979.735 293.622L978.186 300.487C981.36 301.203 983.342 304.34 982.626 307.514C981.91 310.688 978.773 312.67 975.599 311.954L974.051 318.819C977.225 319.535 979.207 322.671 978.491 325.845C977.774 329.019 974.638 331.001 971.464 330.285L969.915 337.15C973.09 337.866 975.071 341.002 974.355 344.176C973.639 347.351 970.503 349.332 967.329 348.616L965.78 355.481C968.954 356.197 970.936 359.334 970.22 362.508C969.504 365.682 966.368 367.664 963.194 366.948L962 372.238L965.74 373.081C966.456 369.907 969.593 367.926 972.767 368.642C975.941 369.358 977.923 372.494 977.207 375.668L984.072 377.217C984.788 374.043 987.924 372.061 991.098 372.777C994.272 373.493 996.254 376.629 995.538 379.803L1002.4 381.352C1003.12 378.178 1006.26 376.196 1009.43 376.912C1012.6 377.628 1014.59 380.764 1013.87 383.938L1020.73 385.487C1021.45 382.313 1024.59 380.331 1027.76 381.047C1030.93 381.763 1032.92 384.9 1032.2 388.074L1039.07 389.622C1039.78 386.448 1042.92 384.466 1046.09 385.182C1049.27 385.899 1051.25 389.035 1050.53 392.209L1057.4 393.758C1058.11 390.583 1061.25 388.602 1064.42 389.318C1067.6 390.034 1069.58 393.17 1068.86 396.344L1075.73 397.893C1076.44 394.719 1079.58 392.737 1082.75 393.453C1085.93 394.169 1087.91 397.305 1087.19 400.479L1094.06 402.028C1094.78 398.854 1097.91 396.872 1101.09 397.588C1104.26 398.304 1106.24 401.44 1105.53 404.615L1112.39 406.163C1113.11 402.989 1116.24 401.007 1119.42 401.723C1122.59 402.439 1124.57 405.576 1123.86 408.75L1130.72 410.298C1131.44 407.124 1134.57 405.143 1137.75 405.859C1140.92 406.575 1142.9 409.711 1142.19 412.885L1149.05 414.434C1149.77 411.259 1152.91 409.278 1156.08 409.994C1159.25 410.71 1161.24 413.846 1160.52 417.02L1167.38 418.569C1168.1 415.395 1171.24 413.413 1174.41 414.129C1177.59 414.845 1179.57 417.981 1178.85 421.155L1185.72 422.704C1186.43 419.53 1189.57 417.548 1192.74 418.264C1195.92 418.98 1197.9 422.116 1197.18 425.291L1204.05 426.839C1204.76 423.665 1207.9 421.683 1211.07 422.399C1214.25 423.115 1216.23 426.252 1215.51 429.426L1222.38 430.974C1223.09 427.8 1226.23 425.819 1229.41 426.535C1232.58 427.251 1234.56 430.387 1233.85 433.561L1240.71 435.11C1241.43 431.936 1244.56 429.954 1247.74 430.67C1250.91 431.386 1252.89 434.522 1252.18 437.696L1259.24 439.289L1260.43 433.999C1257.26 433.283 1255.28 430.147 1255.99 426.973Z"
            fill="#101010" />
        <path
            d="M1255.99 426.973C1256.71 423.798 1259.84 421.817 1263.02 422.533L1264.57 415.668C1261.39 414.952 1259.41 411.815 1260.13 408.641C1260.84 405.467 1263.98 403.485 1267.15 404.201L1268.7 397.336C1265.53 396.62 1263.55 393.484 1264.26 390.31C1264.98 387.136 1268.11 385.154 1271.29 385.87L1272.84 379.005C1269.66 378.289 1267.68 375.153 1268.4 371.979C1269.11 368.804 1272.25 366.823 1275.42 367.539L1276.97 360.674C1273.8 359.958 1271.82 356.821 1272.53 353.647C1273.25 350.473 1276.38 348.491 1279.56 349.207L1281.11 342.342C1277.93 341.626 1275.95 338.49 1276.67 335.316C1277.38 332.142 1280.52 330.16 1283.69 330.876L1285.24 324.011C1282.07 323.295 1280.09 320.159 1280.8 316.985C1281.52 313.811 1284.66 311.829 1287.83 312.545L1289.38 305.68C1286.2 304.964 1284.22 301.827 1284.94 298.653C1285.65 295.479 1288.79 293.497 1291.96 294.213L1293.51 287.348C1290.34 286.632 1288.36 283.496 1289.07 280.322C1289.79 277.148 1292.93 275.166 1296.1 275.882L1297.65 269.017C1294.47 268.301 1292.49 265.165 1293.21 261.991C1293.92 258.817 1297.06 256.835 1300.24 257.551L1301.78 250.686C1298.61 249.97 1296.63 246.834 1297.34 243.659C1298.06 240.485 1301.2 238.504 1304.37 239.22L1305.92 232.355C1302.74 231.638 1300.76 228.502 1301.48 225.328C1302.2 222.154 1305.33 220.172 1308.51 220.888L1310.05 214.023C1306.88 213.307 1304.9 210.171 1305.61 206.997C1306.33 203.823 1309.47 201.841 1312.64 202.557L1314.19 195.692C1311.02 194.976 1309.03 191.84 1309.75 188.665C1310.47 185.491 1313.6 183.51 1316.78 184.226L1318.32 177.361C1315.15 176.645 1313.17 173.508 1313.88 170.334C1314.6 167.16 1317.74 165.178 1320.91 165.894L1322.46 159.029C1319.29 158.313 1317.3 155.177 1318.02 152.003C1318.74 148.829 1321.87 146.847 1325.05 147.563L1326.29 142.051L1319.23 140.458C1318.51 143.632 1315.38 145.614 1312.2 144.898C1309.03 144.182 1307.05 141.046 1307.76 137.872L1300.9 136.323C1300.18 139.497 1297.04 141.479 1293.87 140.763C1290.7 140.047 1288.71 136.911 1289.43 133.736L1282.57 132.188C1281.85 135.362 1278.71 137.344 1275.54 136.628C1272.36 135.912 1270.38 132.775 1271.1 129.601L1264.23 128.053C1263.52 131.227 1260.38 133.208 1257.21 132.492C1254.03 131.776 1252.05 128.64 1252.77 125.466L1245.9 123.917C1245.19 127.092 1242.05 129.073 1238.88 128.357C1235.7 127.641 1233.72 124.505 1234.44 121.331L1227.57 119.782C1226.86 122.956 1223.72 124.938 1220.54 124.222C1217.37 123.506 1215.39 120.37 1216.11 117.196L1209.24 115.647C1208.52 118.821 1205.39 120.803 1202.21 120.087C1199.04 119.371 1197.06 116.235 1197.77 113.06L1190.91 111.512C1190.19 114.686 1187.06 116.668 1183.88 115.952C1180.71 115.236 1178.73 112.099 1179.44 108.925L1172.58 107.377C1171.86 110.551 1168.73 112.532 1165.55 111.816C1162.38 111.1 1160.4 107.964 1161.11 104.79L1154.25 103.241C1153.53 106.415 1150.39 108.397 1147.22 107.681C1144.05 106.965 1142.06 103.829 1142.78 100.655L1135.91 99.1061C1135.2 102.28 1132.06 104.262 1128.89 103.546C1125.71 102.83 1123.73 99.6937 1124.45 96.5195L1117.58 94.9709C1116.87 98.145 1113.73 100.127 1110.56 99.4107C1107.38 98.6947 1105.4 95.5584 1106.12 92.3843L1099.25 90.8357C1098.54 94.0098 1095.4 95.9916 1092.23 95.2755C1089.05 94.5595 1087.07 91.4232 1087.79 88.2491L1080.92 86.7005C1080.2 89.8746 1077.07 91.8563 1073.89 91.1403C1070.72 90.4243 1068.74 87.288 1069.45 84.1139L1062.59 82.5653C1061.87 85.7394 1058.74 87.7211 1055.56 87.0051C1052.39 86.2891 1050.41 83.1528 1051.12 79.9787L1044.26 78.43C1043.54 81.6042 1040.41 83.5859 1037.23 82.8699C1034.06 82.1539 1032.08 79.0176 1032.79 75.8435L1029.05 74.9998L1027.81 80.5115C1030.98 81.2275 1032.96 84.3638 1032.25 87.5379C1031.53 90.712 1028.4 92.6938 1025.22 91.9778L1023.67 98.8428C1026.85 99.5588 1028.83 102.695 1028.11 105.869C1027.4 109.043 1024.26 111.025 1021.09 110.309L1019.54 117.174C1022.71 117.89 1024.69 121.026 1023.98 124.201C1023.26 127.375 1020.13 129.356 1016.95 128.64L1015.4 135.505C1018.58 136.221 1020.56 139.358 1019.84 142.532C1019.13 145.706 1015.99 147.688 1012.82 146.972L1011.27 153.837C1014.44 154.553 1016.42 157.689 1015.71 160.863C1014.99 164.037 1011.86 166.019 1008.68 165.303L1007.13 172.168C1010.31 172.884 1012.29 176.02 1011.57 179.194C1010.86 182.369 1007.72 184.35 1004.55 183.634L1003 190.499C1006.17 191.215 1008.15 194.352 1007.44 197.526C1006.72 200.7 1003.58 202.682 1000.41 201.966L998.862 208.831C1002.04 209.547 1004.02 212.683 1003.3 215.857C1002.59 219.031 999.449 221.013 996.275 220.297L994.727 227.162C997.901 227.878 999.883 231.014 999.167 234.188C998.451 237.363 995.314 239.344 992.14 238.628L990.592 245.493C993.766 246.209 995.747 249.346 995.031 252.52C994.315 255.694 991.179 257.676 988.005 256.96L986.456 263.825C989.63 264.541 991.612 267.677 990.896 270.851C990.18 274.025 987.044 276.007 983.87 275.291L982.321 282.156C985.495 282.872 987.477 286.008 986.761 289.182C986.045 292.357 982.909 294.338 979.735 293.622L978.186 300.487C981.36 301.203 983.342 304.34 982.626 307.514C981.91 310.688 978.773 312.67 975.599 311.954L974.051 318.819C977.225 319.535 979.207 322.671 978.491 325.845C977.774 329.019 974.638 331.001 971.464 330.285L969.915 337.15C973.09 337.866 975.071 341.002 974.355 344.176C973.639 347.351 970.503 349.332 967.329 348.616L965.78 355.481C968.954 356.197 970.936 359.334 970.22 362.508C969.504 365.682 966.368 367.664 963.194 366.948L962 372.238L965.74 373.081C966.456 369.907 969.593 367.926 972.767 368.642C975.941 369.358 977.923 372.494 977.207 375.668L984.072 377.217C984.788 374.043 987.924 372.061 991.098 372.777C994.272 373.493 996.254 376.629 995.538 379.803L1002.4 381.352C1003.12 378.178 1006.26 376.196 1009.43 376.912C1012.6 377.628 1014.59 380.764 1013.87 383.938L1020.73 385.487C1021.45 382.313 1024.59 380.331 1027.76 381.047C1030.93 381.763 1032.92 384.9 1032.2 388.074L1039.07 389.622C1039.78 386.448 1042.92 384.466 1046.09 385.182C1049.27 385.899 1051.25 389.035 1050.53 392.209L1057.4 393.758C1058.11 390.583 1061.25 388.602 1064.42 389.318C1067.6 390.034 1069.58 393.17 1068.86 396.344L1075.73 397.893C1076.44 394.719 1079.58 392.737 1082.75 393.453C1085.93 394.169 1087.91 397.305 1087.19 400.479L1094.06 402.028C1094.78 398.854 1097.91 396.872 1101.09 397.588C1104.26 398.304 1106.24 401.44 1105.53 404.615L1112.39 406.163C1113.11 402.989 1116.24 401.007 1119.42 401.723C1122.59 402.439 1124.57 405.576 1123.86 408.75L1130.72 410.298C1131.44 407.124 1134.57 405.143 1137.75 405.859C1140.92 406.575 1142.9 409.711 1142.19 412.885L1149.05 414.434C1149.77 411.259 1152.91 409.278 1156.08 409.994C1159.25 410.71 1161.24 413.846 1160.52 417.02L1167.38 418.569C1168.1 415.395 1171.24 413.413 1174.41 414.129C1177.59 414.845 1179.57 417.981 1178.85 421.155L1185.72 422.704C1186.43 419.53 1189.57 417.548 1192.74 418.264C1195.92 418.98 1197.9 422.116 1197.18 425.291L1204.05 426.839C1204.76 423.665 1207.9 421.683 1211.07 422.399C1214.25 423.115 1216.23 426.252 1215.51 429.426L1222.38 430.974C1223.09 427.8 1226.23 425.819 1229.41 426.535C1232.58 427.251 1234.56 430.387 1233.85 433.561L1240.71 435.11C1241.43 431.936 1244.56 429.954 1247.74 430.67C1250.91 431.386 1252.89 434.522 1252.18 437.696L1259.24 439.289L1260.43 433.999C1257.26 433.283 1255.28 430.147 1255.99 426.973Z"
            stroke="#2B2B2B" stroke-width="2.54817" stroke-miterlimit="10" />
    </g>
    <path fill-rule="evenodd" clip-rule="evenodd"
        d="M1114.04 237.217C1112.41 243.185 1107.57 242.379 1102.85 241.313C1098.12 240.247 1093.37 238.27 1088.53 237.177C1083.14 235.961 1077.66 235.139 1072.18 234.421C1065.9 233.624 1061.83 231.283 1063.35 225.655C1064.37 221.849 1067.15 219.839 1071.79 220.913L1078.04 222.323C1081.41 223.083 1083.54 219.864 1084.09 217.275L1095.7 164.79C1096.34 161.96 1095.99 159.037 1092.63 158.356L1085.46 156.894C1080.74 155.932 1078.66 152.205 1079.66 147.984C1080.91 142.655 1085.51 142.323 1089.84 143.428C1091.36 143.822 1094.59 144.603 1096.57 145.255C1099.93 146.377 1103.53 147.163 1107 147.945C1112.34 149.15 1117.72 149.485 1122.96 150.667C1127.91 151.782 1132 154.05 1130.94 160.12C1130.28 163.826 1125.82 165.611 1121.7 164.605L1116.87 163.438C1113.22 162.562 1110.43 164.725 1109.77 167.757L1098.53 220.686C1097.47 225.747 1099.81 227.749 1103.85 228.635L1108.61 229.657C1112.16 230.407 1115.18 232.975 1114.02 237.291L1114.04 237.217Z"
        fill="white" />
    <path fill-rule="evenodd" clip-rule="evenodd"
        d="M1250.06 292.673C1249.45 295.172 1248.3 296.826 1247.05 297.657C1244.6 299.329 1239.54 298.497 1236.97 297.4C1235.53 296.791 1234.1 296.365 1233.3 296.236C1229.74 295.743 1227.35 297.531 1224.78 300.105L1193.09 331.795L1189.33 346.85C1188.48 350.278 1188.51 353.466 1192.56 354.198L1199.07 355.357C1203 356.062 1206.08 359.369 1205.27 363.53C1204.22 368.879 1199.49 370.242 1194.73 368.884C1191.77 368.034 1189.11 366.97 1186.73 365.942C1181.66 363.789 1177.92 363.282 1172.48 362.728C1167.43 362.208 1163.53 361.717 1160.91 361.074C1156.68 360.015 1153.02 356.967 1153.6 352.443C1154.17 348.073 1158.15 345.919 1162.3 347.218L1167.84 348.932C1169.96 349.593 1173.06 349.154 1173.68 346.631L1177.86 329.706L1162.37 285.123C1161.53 282.683 1159.74 280.882 1157.89 279.664C1155.5 278.092 1152.83 277.437 1150.02 277.166C1147.75 276.937 1147.42 276.577 1146.85 276.45C1142.03 275.129 1140.42 272.517 1141.69 268.045C1143.28 262.482 1146.62 262.332 1152.01 263.547C1152.94 263.758 1155.13 264.252 1159.39 265.885C1162.51 267.08 1165.23 267.433 1167.31 267.826C1172.84 268.867 1178.78 269.121 1184.16 270.49C1187.15 271.241 1189.13 272.413 1190.44 273.484C1192.28 274.984 1193.25 276.858 1192.57 279.523C1191.91 282.09 1190.39 284.151 1188.67 284.901C1187.37 285.488 1184.3 284.898 1181.94 284.365C1177.63 283.29 1177.22 285.887 1178.32 287.453L1188.4 316.232L1210.74 294.12C1211.38 292.869 1213.62 290.994 1208.85 290.462C1207.38 290.312 1207.21 290.298 1205.5 289.86C1203.03 289.226 1201.44 288.351 1200.68 287.481C1198.15 284.608 1198.99 282.575 1200.25 279.523C1201.16 277.324 1203.21 276.701 1205.37 276.566C1207.6 276.422 1209.76 276.936 1211.97 277.435C1214.46 277.996 1216.91 278.808 1219.24 279.721C1223.57 281.396 1226.76 282.142 1231.36 282.611C1234.54 282.941 1238.38 283.005 1241.87 283.818C1244.26 284.356 1246.54 285.001 1248.31 286.564C1250.01 288.085 1250.81 290.153 1250.19 292.676L1250.06 292.673Z"
        fill="white" />
    <path fill-rule="evenodd" clip-rule="evenodd"
        d="M1140.01 267.46C1138.43 273.567 1134.42 274.113 1128.77 272.836C1128.79 272.737 1119.8 269.727 1118.71 274.549L1105.05 335.104C1103.4 342.412 1098.3 348.502 1090.58 346.76C1085.58 345.633 1080.73 341.822 1079.74 336.583L1065.97 262.911L1053.97 315.436C1053.01 319.693 1053.57 322.354 1057.88 323.197L1063.18 324.237C1067.94 325.155 1070.6 328.471 1069.34 333.359C1067.97 338.764 1063.62 338.999 1059.02 337.961C1053.46 336.707 1048.57 333.742 1043.05 332.78C1037.18 331.741 1031.36 331.282 1025.55 329.972C1020.54 328.839 1017.1 326.434 1018.41 320.603C1019.51 315.731 1022.78 315.459 1027.08 316.327L1032.92 317.514C1036.4 318.223 1038.86 317.278 1039.53 314.326L1052.06 258.766C1052.7 255.936 1051.92 254.259 1048.03 253.511L1043.02 252.562C1037.12 251.438 1035.11 249.795 1036.58 243.972C1037.88 238.887 1041.83 237.425 1048.19 239.377C1051.65 240.442 1055.12 241.665 1058.66 242.464C1062.53 243.336 1066.41 244.109 1070.27 244.98C1076.77 246.445 1078.44 250.96 1079.72 257.453L1092.64 323.617L1104.15 272.609C1104.66 270.321 1104.12 268.363 1103.57 267.489C1103.02 266.614 1101.97 265.99 1100.49 265.657L1094.43 264.34C1089.99 263.366 1086.64 260.592 1087.65 256.45C1089.3 249.711 1095.77 250.008 1101.26 251.479C1106.57 252.91 1112.05 255.672 1117.38 256.693C1122.44 257.678 1127.75 257.506 1132.71 258.884C1139.14 260.669 1140.96 263.693 1140.02 267.436L1140.01 267.46Z"
        fill="white" />
    <path
        d="M1172.57 225.494L1202.42 232.226C1202.98 232.354 1203.44 232.717 1203.69 233.237L1214.36 257.78C1214.36 257.78 1214.44 257.925 1214.47 258.01L1217.21 266.851L1184.04 259.369C1183.4 259.224 1182.88 258.747 1182.67 258.103L1172.58 225.469"
        fill="#EE2F32" />
    <path
        d="M1217.18 266.87L1240.28 241.724C1240.72 241.23 1240.87 240.566 1240.68 239.928L1220.55 174.647C1220.36 174.009 1219.85 173.531 1219.18 173.381L1189.14 166.604C1187.76 166.293 1186.54 167.594 1186.95 168.955L1217.18 266.87Z"
        fill="#EE2F32" />
    <path
        d="M1163.22 192.071L1196.39 199.554L1150.94 249.057C1149.97 250.108 1148.23 249.714 1147.81 248.352L1138.68 218.78C1138.49 218.142 1138.64 217.478 1139.09 216.984L1161.47 192.607C1161.92 192.114 1162.59 191.902 1163.25 192.052L1163.22 192.071Z"
        fill="#EE2F32" />
    <defs>
        <filter id="filter0_d_0_1" x="2.02876" y="0.781912" width="1089.94" height="795.922"
            filterUnits="userSpaceOnUse" color-interpolation-filters="sRGB">
            <feFlood flood-opacity="0" result="BackgroundImageFix" />
            <feColorMatrix in="SourceAlpha" type="matrix" values="0 0 0 0 0 0 0 0 0 0 0 0 0 0 0 0 0 0 127 0"
                result="hardAlpha" />
            <feOffset dy="3.7534" />
            <feGaussianBlur stdDeviation="15.9519" />
            <feComposite in2="hardAlpha" operator="out" />
            <feColorMatrix type="matrix" values="0 0 0 0 0 0 0 0 0 0 0 0 0 0 0 0 0 0 0.55 0" />
            <feBlend mode="normal" in2="BackgroundImageFix" result="effect1_dropShadow_0_1" />
            <feBlend mode="normal" in="SourceGraphic" in2="effect1_dropShadow_0_1" result="shape" />
        </filter>
        <filter id="filter1_d_0_1" x="936.269" y="64.558" width="415.752" height="415.751" filterUnits="userSpaceOnUse"
            color-interpolation-filters="sRGB">
            <feFlood flood-opacity="0" result="BackgroundImageFix" />
            <feColorMatrix in="SourceAlpha" type="matrix" values="0 0 0 0 0 0 0 0 0 0 0 0 0 0 0 0 0 0 127 0"
                result="hardAlpha" />
            <feOffset dy="15.289" />
            <feGaussianBlur stdDeviation="12.1038" />
            <feComposite in2="hardAlpha" operator="out" />
            <feColorMatrix type="matrix" values="0 0 0 0 0 0 0 0 0 0 0 0 0 0 0 0 0 0 0.25 0" />
            <feBlend mode="normal" in2="BackgroundImageFix" result="effect1_dropShadow_0_1" />
            <feBlend mode="normal" in="SourceGraphic" in2="effect1_dropShadow_0_1" result="shape" />
        </filter>
    </defs>
</svg>