<svg width="170" height="20" viewBox="0 0 170 20" fill="none" xmlns="http://www.w3.org/2000/svg">
<path d="M13.7518 12.0425L17.1474 18.0147H10.2884L6.85693 12.0425H13.7518Z" fill="url(#paint0_linear_4_2)"/>
<path d="M17.1455 18.0158L20.5713 12.0436L13.7141 0.0961914H6.85693L17.1455 18.0158Z" fill="#FF414C"/>
<path d="M3.42857 6.06689H10.2858L3.43142 18.0143L0 12.042L3.42857 6.06689Z" fill="#FF414C"/>
<path d="M35.1479 5.80031L34.9755 7.67254C34.2366 6.2191 32.537 5.43079 30.7143 5.43079C27.2907 5.43079 25 7.91889 25 11.7372C25 15.5309 27.069 18.29 30.6897 18.29C32.6602 18.29 34.1134 17.3293 34.877 16.0729L35.074 17.9698H37.8819V5.80031H35.1479ZM34.8277 11.885C34.8277 14.0775 33.473 15.5802 31.3794 15.5802C29.2858 15.5802 28.005 14.0528 28.005 11.885C28.005 9.71721 29.3104 8.16523 31.404 8.16523C33.4976 8.16523 34.8277 9.69258 34.8277 11.885Z" fill="white"/>
<path d="M42.9947 17.9698V14.6933L44.7681 12.8458L47.9455 17.9698H51.3938L46.8617 10.6286L51.4923 5.80026H47.7238L42.9947 10.8996V0H40.0144V17.9698H42.9947Z" fill="white"/>
<path d="M61.4851 5.80031L61.3127 7.67254C60.5737 6.2191 58.8742 5.43079 57.0515 5.43079C53.6279 5.43079 51.3372 7.91889 51.3372 11.7372C51.3372 15.5309 53.4062 18.29 57.0269 18.29C58.9974 18.29 60.4506 17.3293 61.2141 16.0729L61.4112 17.9698H64.2191V5.80031H61.4851ZM61.1649 11.885C61.1649 14.0775 59.8102 15.5802 57.7166 15.5802C55.6229 15.5802 54.3421 14.0528 54.3421 11.885C54.3421 9.71721 55.6476 8.16523 57.7412 8.16523C59.8348 8.16523 61.1649 9.69258 61.1649 11.885Z" fill="white"/>
<path d="M65.7397 14.2746C65.7397 16.6641 67.6609 18.29 70.6905 18.29C73.6955 18.29 75.7891 16.7627 75.7891 14.2992C75.7891 12.427 74.7546 11.4909 72.7102 11.0228L70.5181 10.5055C69.4836 10.2591 68.9417 9.81575 68.9417 9.12598C68.9417 8.2145 69.6314 7.67254 70.8136 7.67254C71.9713 7.67254 72.661 8.33767 72.6856 9.37233H75.5428C75.5181 7.0074 73.6708 5.43079 70.9368 5.43079C68.1289 5.43079 66.1092 6.8596 66.1092 9.24915C66.1092 11.1952 67.1683 12.2299 69.3604 12.7226L71.5526 13.2399C72.6363 13.4863 72.9565 13.9297 72.9565 14.5455C72.9565 15.4324 72.193 15.999 70.789 15.999C69.4097 15.999 68.6215 15.3338 68.5969 14.2746H65.7397Z" fill="white"/>
<path d="M80.4681 17.9698V11.3184C80.4681 9.49545 81.5765 8.16518 83.4731 8.16518C85.0002 8.16518 86.01 9.15056 86.01 11.1952V17.9698H89.015V10.4808C89.015 7.3276 87.4386 5.43074 84.4337 5.43074C82.6849 5.43074 81.2563 6.19441 80.4927 7.37687V0H77.4631V17.9698H80.4681Z" fill="white"/>
<path d="M92 12.0452C92 15.797 94.247 18.29 97.557 18.29C100.215 18.29 102.293 16.6856 102.848 14.242H101.157C100.698 15.7723 99.2966 16.7597 97.557 16.7597C95.1892 16.7597 93.6429 14.8591 93.6429 12.0206C93.6429 9.08331 95.31 7.2321 97.6778 7.2321C99.2966 7.2321 100.698 8.14536 101.133 9.79912H102.8C102.341 7.33083 100.36 5.72644 97.6536 5.72644C94.247 5.72644 92 8.29346 92 12.0452Z" fill="#A3A3A3"/>
<path d="M104.069 12.0206C104.069 15.6489 106.582 18.29 110.013 18.29C113.444 18.29 115.956 15.6489 115.956 12.0206C115.956 8.36751 113.444 5.72644 110.013 5.72644C106.582 5.72644 104.069 8.36751 104.069 12.0206ZM105.76 11.9959C105.76 9.23141 107.5 7.25678 110.013 7.25678C112.501 7.25678 114.265 9.23141 114.265 11.9959C114.265 14.8097 112.501 16.7597 110.013 16.7597C107.5 16.7597 105.76 14.8097 105.76 11.9959Z" fill="#A3A3A3"/>
<path d="M119.807 17.9938V11.749C119.807 9.05863 121.16 7.28146 123.551 7.28146C125.484 7.28146 126.717 8.26878 126.717 11.0579V17.9938H128.384V10.6877C128.384 7.67639 127.055 5.72644 123.841 5.72644C122.15 5.72644 120.604 6.59034 119.831 8.12068L119.589 6.04732H118.139V17.9938H119.807Z" fill="#A3A3A3"/>
<path d="M130.091 14.6369C130.091 16.8584 131.734 18.29 134.367 18.29C137.025 18.29 138.813 16.8831 138.813 14.7357C138.813 13.0079 137.895 12.0452 135.865 11.5269L133.86 11.0086C132.58 10.6877 131.951 10.0459 131.951 9.13268C131.951 7.84917 132.869 7.13337 134.512 7.13337C136.083 7.13337 137.025 7.9479 137.073 9.33014H138.692C138.62 7.10868 137.025 5.72644 134.561 5.72644C132.048 5.72644 130.333 7.05932 130.333 9.15736C130.333 10.7864 131.323 11.8725 133.353 12.3908L135.358 12.9091C136.735 13.2547 137.218 13.8224 137.218 14.8097C137.218 16.0932 136.155 16.8831 134.343 16.8831C132.7 16.8831 131.686 16.0192 131.686 14.6369H130.091Z" fill="#A3A3A3"/>
<path d="M140.253 12.0206C140.253 15.6489 142.766 18.29 146.196 18.29C149.627 18.29 152.14 15.6489 152.14 12.0206C152.14 8.36751 149.627 5.72644 146.196 5.72644C142.766 5.72644 140.253 8.36751 140.253 12.0206ZM141.944 11.9959C141.944 9.23141 143.684 7.25678 146.196 7.25678C148.685 7.25678 150.449 9.23141 150.449 11.9959C150.449 14.8097 148.685 16.7597 146.196 16.7597C143.684 16.7597 141.944 14.8097 141.944 11.9959Z" fill="#A3A3A3"/>
<path d="M156.063 17.9938V0H154.396V17.9938H156.063Z" fill="#A3A3A3"/>
<path d="M164.03 18.29C166.784 18.29 168.596 16.9324 169.224 14.4148H167.63C167.195 15.9945 165.963 16.8337 164.054 16.8337C161.541 16.8337 160.043 15.1553 159.923 12.2427H169.224V11.4035C169.224 8.02195 167.074 5.72644 163.909 5.72644C160.575 5.72644 158.304 8.29346 158.304 12.0206C158.304 15.7723 160.599 18.29 164.03 18.29ZM163.909 7.18273C166.108 7.18273 167.557 8.71307 167.557 11.0086H159.971C160.261 8.6637 161.71 7.18273 163.909 7.18273Z" fill="#A3A3A3"/>
<defs>
<linearGradient id="paint0_linear_4_2" x1="12" y1="16.5" x2="16.0069" y2="12.0061" gradientUnits="userSpaceOnUse">
<stop stop-color="#FF414C"/>
<stop offset="1" stop-color="#FF414C" stop-opacity="0"/>
</linearGradient>
</defs>
</svg>
