<svg width="340" height="200" viewBox="0 0 340 200" fill="none" xmlns="http://www.w3.org/2000/svg">
<rect width="340" height="200" fill="#1C1C1C"/>
<path d="M99.8797 104.846L104.541 113.056H95.1249L90.4141 104.846H99.8797Z" fill="url(#paint0_linear_3694_114)"/>
<path d="M104.539 113.058L109.242 104.847L99.828 88.4219H90.4141L104.539 113.058Z" fill="#FF414C"/>
<path d="M85.7069 96.6309H95.1209L85.7108 113.056L81 104.846L85.7069 96.6309Z" fill="#FF414C"/>
<path d="M193.175 112.543H188.986V87H193.209V97.7802C194.273 96.1323 196.265 95.068 198.702 95.068C202.891 95.068 205.088 97.7115 205.088 102.106V112.543H200.899V103.102C200.899 100.252 199.492 98.8788 197.363 98.8788C194.72 98.8788 193.175 100.733 193.175 103.273V112.543Z" fill="white"/>
<path d="M172.477 107.393H176.459C176.493 108.87 177.592 109.797 179.515 109.797C181.471 109.797 182.536 109.007 182.536 107.771C182.536 106.913 182.089 106.295 180.579 105.952L177.523 105.231C174.468 104.544 172.992 103.102 172.992 100.39C172.992 97.0596 175.807 95.0684 179.721 95.0684C183.531 95.0684 186.106 97.2656 186.141 100.561H182.158C182.124 99.1195 181.163 98.1926 179.549 98.1926C177.901 98.1926 176.94 98.9479 176.94 100.218C176.94 101.179 177.695 101.797 179.137 102.141L182.192 102.862C185.042 103.514 186.484 104.819 186.484 107.428C186.484 110.861 183.566 112.99 179.377 112.99C175.154 112.99 172.477 110.724 172.477 107.393Z" fill="white"/>
<path d="M166.662 95.5833H170.473V112.543H166.559L166.285 109.9C165.22 111.651 163.195 112.99 160.448 112.99C155.401 112.99 152.518 109.144 152.518 103.857C152.518 98.5359 155.71 95.0684 160.483 95.0684C163.023 95.0684 165.392 96.167 166.422 98.1926L166.662 95.5833ZM166.216 104.063C166.216 101.008 164.362 98.8792 161.444 98.8792C158.526 98.8792 156.706 101.042 156.706 104.063C156.706 107.084 158.491 109.213 161.41 109.213C164.328 109.213 166.216 107.119 166.216 104.063Z" fill="white"/>
<path d="M140.721 112.543H136.566V87H140.721V102.69L147.312 95.583H152.565L146.111 102.312L152.428 112.543H147.621L143.192 105.402L140.721 107.977V112.543Z" fill="white"/>
<path d="M129.043 95.5833H132.854V112.543H128.94L128.665 109.9C127.601 111.651 125.576 112.99 122.829 112.99C117.782 112.99 114.898 109.144 114.898 103.857C114.898 98.5359 118.091 95.0684 122.863 95.0684C125.404 95.0684 127.773 96.167 128.803 98.1926L129.043 95.5833ZM128.597 104.063C128.597 101.008 126.743 98.8792 123.825 98.8792C120.907 98.8792 119.087 101.042 119.087 104.063C119.087 107.084 120.872 109.213 123.79 109.213C126.709 109.213 128.597 107.119 128.597 104.063Z" fill="white"/>
<path d="M259.765 112.544H257.396V87.5156H259.765V112.544Z" fill="#999999"/>
<path d="M243.009 112.544H240.229L246.168 104.236L240.263 95.9277H243.044L247.747 102.588L252.416 95.9277H255.163L249.258 104.27L255.129 112.544H252.313L247.644 105.884L243.009 112.544Z" fill="#999999"/>
<path d="M229.516 112.955C224.676 112.955 221.826 109.248 221.826 104.27C221.826 99.2571 224.676 95.4806 229.619 95.4806C232.366 95.4806 234.563 96.6822 235.731 99.0854V87.5156H238.099V112.544H236.04L235.799 109.145C234.632 111.72 232.297 112.955 229.516 112.955ZM229.928 110.793C233.568 110.793 235.696 108.046 235.696 104.201C235.696 100.39 233.568 97.6092 229.928 97.6092C226.324 97.6092 224.229 100.39 224.229 104.201C224.229 108.046 226.324 110.793 229.928 110.793Z" fill="#999999"/>
<path d="M207.387 107.874H209.653C209.653 109.797 211.095 110.998 213.429 110.998C216.004 110.998 217.515 109.9 217.515 108.115C217.515 106.741 216.828 105.952 214.871 105.471L212.022 104.75C209.138 104.029 207.73 102.518 207.73 100.253C207.73 97.3344 210.168 95.4805 213.738 95.4805C217.24 95.4805 219.506 97.4031 219.609 100.493H217.309C217.24 98.5703 215.901 97.4374 213.669 97.4374C211.335 97.4374 210.03 98.433 210.03 100.218C210.03 101.489 210.923 102.381 212.742 102.827L215.592 103.548C218.476 104.269 219.781 105.608 219.781 108.012C219.781 110.998 217.24 112.955 213.463 112.955C209.721 112.955 207.387 110.964 207.387 107.874Z" fill="#999999"/>
<defs>
<linearGradient id="paint0_linear_3694_114" x1="97.4748" y1="110.974" x2="102.984" y2="104.804" gradientUnits="userSpaceOnUse">
<stop stop-color="#FF414C"/>
<stop offset="1" stop-color="#FF414C" stop-opacity="0"/>
</linearGradient>
</defs>
</svg>
