<svg width="1220" height="260" viewBox="0 0 1220 260" fill="none" xmlns="http://www.w3.org/2000/svg">
<path d="M86.4756 82.2373L107.828 119.846H64.6965L43.1189 82.2373H86.4756Z" fill="url(#paint0_linear_19_115)"/>
<path d="M107.816 119.852L129.358 82.2435L86.2387 7.00781H43.1189L107.816 119.852Z" fill="#FF414C"/>
<path d="M21.5597 44.6069H64.6795L21.5777 119.843L0 82.2339L21.5597 44.6069Z" fill="#FF414C"/>
<path d="M507.883 117.393H488.698V0.395508H508.041V49.7733C512.916 42.2251 522.036 37.3502 533.201 37.3502C552.386 37.3502 562.451 49.4588 562.451 69.5873V117.393H543.266V74.1477C543.266 61.0956 536.818 54.8054 527.068 54.8054C514.96 54.8054 507.883 63.2971 507.883 74.9339V117.393Z" fill="white"/>
<path d="M413.077 93.8043H431.318C431.475 100.566 436.507 104.812 445.314 104.812C454.277 104.812 459.152 101.195 459.152 95.5341C459.152 91.6027 457.108 88.7722 450.189 87.1996L436.193 83.8973C422.197 80.7522 415.435 74.1475 415.435 61.7245C415.435 46.4708 428.33 37.3501 446.257 37.3501C463.712 37.3501 475.507 47.4144 475.664 62.5107H457.422C457.265 55.9061 452.862 51.6602 445.471 51.6602C437.923 51.6602 433.52 55.1198 433.52 60.9382C433.52 65.3413 436.979 68.1719 443.584 69.7444L457.58 73.0468C470.632 76.0346 477.236 82.0103 477.236 93.9616C477.236 109.687 463.87 119.437 444.685 119.437C425.342 119.437 413.077 109.058 413.077 93.8043Z" fill="white"/>
<path d="M386.445 39.7089H403.9V117.392H385.973L384.715 105.284C379.841 113.304 370.563 119.437 357.982 119.437C334.866 119.437 321.656 101.824 321.656 77.6071C321.656 53.2328 336.281 37.3501 358.139 37.3501C369.776 37.3501 380.627 42.3822 385.344 51.6602L386.445 39.7089ZM384.401 78.5507C384.401 64.555 375.909 54.8053 362.543 54.8053C349.176 54.8053 340.841 64.7123 340.841 78.5507C340.841 92.389 349.019 102.139 362.385 102.139C375.752 102.139 384.401 92.5463 384.401 78.5507Z" fill="white"/>
<path d="M267.62 117.393H248.593V0.395508H267.62V72.2606L297.813 39.709H321.873L292.309 70.5308L321.244 117.393H299.228L278.943 84.6837L267.62 96.4777V117.393Z" fill="white"/>
<path d="M214.135 39.7089H231.591V117.392H213.664L212.406 105.284C207.531 113.304 198.253 119.437 185.672 119.437C162.556 119.437 149.347 101.824 149.347 77.6071C149.347 53.2328 163.971 37.3501 185.83 37.3501C197.466 37.3501 208.317 42.3822 213.035 51.6602L214.135 39.7089ZM212.091 78.5507C212.091 64.555 203.599 54.8053 190.233 54.8053C176.866 54.8053 168.532 64.7123 168.532 78.5507C168.532 92.389 176.709 102.139 190.075 102.139C203.442 102.139 212.091 92.5463 212.091 78.5507Z" fill="white"/>
<path d="M1144.05 152.53V140.214H1154.12C1161.32 140.214 1167.08 139.094 1170.76 129.177L1173.48 121.659L1141.97 39.2832H1157.8L1180.52 102.305L1203.71 39.2832H1219.22L1182.28 135.095C1177 148.531 1169.16 154.13 1157.16 154.13C1152.2 154.13 1148.05 153.49 1144.05 152.53Z" fill="#A3A3A3"/>
<path d="M1125.91 117.5H1110.88V51.9192H1095.52V39.2829H1110.88V14.8101H1125.91V39.2829H1141.27V51.9192H1125.91V117.5Z" fill="#A3A3A3"/>
<path d="M1077.53 20.7282C1072.1 20.7282 1067.62 16.2495 1067.62 10.8111C1067.62 5.21278 1072.1 0.894043 1077.53 0.894043C1082.97 0.894043 1087.45 5.21278 1087.45 10.8111C1087.45 16.2495 1082.97 20.7282 1077.53 20.7282ZM1070.18 117.5V39.2828H1085.21V117.5H1070.18Z" fill="#A3A3A3"/>
<path d="M995.279 94.7865H1009.68C1009.68 102.784 1015.75 107.583 1025.67 107.583C1036.23 107.583 1042.31 103.264 1042.31 96.0661C1042.31 90.7877 1039.75 87.5886 1031.59 85.5092L1017.83 82.3102C1003.92 78.9512 997.359 72.0732 997.359 60.5566C997.359 46.1608 1009.52 37.0435 1026.79 37.0435C1043.91 37.0435 1055.1 46.6406 1055.42 61.5163H1041.03C1040.71 53.6786 1035.43 48.72 1026.31 48.72C1016.87 48.72 1011.59 52.8788 1011.59 60.0767C1011.59 65.3552 1015.43 68.8741 1023.11 70.7936L1036.87 74.1526C1050.14 77.3516 1056.7 83.4298 1056.7 95.1064C1056.7 109.982 1043.91 119.419 1025.35 119.419C1006.96 119.419 995.279 109.662 995.279 94.7865Z" fill="#A3A3A3"/>
<path d="M990.774 38.6433V52.3993H984.056C969.82 52.3993 961.023 61.0367 961.023 76.0723V117.5H945.987V39.4431H960.063L961.023 51.2796C964.222 43.122 972.06 37.6836 982.777 37.6836C985.496 37.6836 987.735 38.0035 990.774 38.6433Z" fill="#A3A3A3"/>
<path d="M896.243 119.419C873.21 119.419 857.375 102.784 857.375 78.4713C857.375 53.9985 872.89 37.0435 895.603 37.0435C917.837 37.0435 932.393 52.399 932.393 75.5922V81.1905L871.93 81.3505C873.05 97.8256 881.687 106.943 896.563 106.943C908.24 106.943 915.917 102.144 918.477 93.187H932.552C928.714 109.982 915.597 119.419 896.243 119.419ZM895.603 49.6797C882.487 49.6797 874.17 57.5175 872.25 71.2734H917.357C917.357 58.3172 908.879 49.6797 895.603 49.6797Z" fill="#A3A3A3"/>
<path d="M809.816 117.5L778.305 39.2832H794.3L811.415 82.9504C814.135 90.3082 816.374 96.8663 817.654 101.665C818.933 96.5464 821.493 89.8284 824.212 82.9504L841.647 39.2832H857.322L824.692 117.5H809.816Z" fill="#A3A3A3"/>
<path d="M761.595 20.7282C756.157 20.7282 751.678 16.2495 751.678 10.8111C751.678 5.21278 756.157 0.894043 761.595 0.894043C767.034 0.894043 771.512 5.21278 771.512 10.8111C771.512 16.2495 767.034 20.7282 761.595 20.7282ZM754.237 117.5V39.2828H769.273V117.5H754.237Z" fill="#A3A3A3"/>
<path d="M680.468 117.5H665.432V39.2828H679.028L680.628 51.2793C685.586 42.3219 695.503 37.0435 706.54 37.0435C727.174 37.0435 736.611 49.6797 736.611 69.6739V117.5H721.576V73.0329C721.576 57.1975 714.218 50.7994 702.701 50.7994C688.625 50.7994 680.468 60.8765 680.468 76.072V117.5Z" fill="#A3A3A3"/>
<path d="M631.941 39.2832H646.816V117.5H633.38L631.781 105.664C627.302 113.821 616.905 119.42 605.389 119.42C587.154 119.42 576.917 107.103 576.917 87.9089V39.2832H591.953V82.9504C591.953 99.7455 599.15 106.144 610.667 106.144C624.423 106.144 631.941 97.3462 631.941 80.5511V39.2832Z" fill="#A3A3A3"/>
<path d="M1012.93 193.997C1011.42 194.088 1010.02 193.162 1009.27 191.861C1008.89 191.211 1008.69 190.55 1008.65 189.88C1008.58 188.706 1009 187.334 1009.44 186.298C1010.34 184.393 1011.4 182.479 1012.13 180.584C1013.02 178.679 1013.74 176.617 1014.47 174.722C1017.51 166.63 1019.87 158.243 1022.4 150.014C1023.69 146.235 1024.11 142.003 1025.74 138.371C1026.48 136.644 1027.57 135.232 1029.59 135.111C1031.26 135.01 1033 135.916 1033.76 137.384C1034.14 138.035 1034.18 138.706 1034.22 139.376C1034.28 140.382 1034.18 141.566 1034.24 142.572C1034.3 143.578 1034.67 144.061 1035.17 144.031C1036.01 143.98 1037.57 142.035 1038.05 141.502C1040.89 138.47 1044.12 136.089 1048.48 135.827C1052.16 135.605 1055.14 137.446 1056.86 140.876C1057.61 142.177 1058.22 143.992 1059.56 143.911C1059.9 143.891 1060.22 143.703 1060.54 143.347C1062.15 142.241 1063.58 140.809 1065.02 139.544C1068.56 136.808 1072.77 134.031 1077.29 133.759C1081.15 133.527 1084.47 135.515 1086.33 138.6C1087.44 140.216 1087.89 142.041 1088 143.885C1088.13 146.064 1087.76 148.274 1087.21 150.327C1085.94 154.441 1084.15 158.251 1082.54 162.218C1081.23 165.662 1078.91 171.859 1079.09 174.877C1079.18 176.386 1080.09 177.509 1081.6 177.419C1083.61 177.298 1085.37 175.678 1086.8 174.414C1089.85 171.875 1092.34 168.528 1094.5 165.201C1096.8 161.529 1098.93 157.867 1100.72 153.89C1101.46 152.331 1102.02 150.446 1103.49 149.685C1103.97 149.319 1104.47 149.121 1104.97 149.091C1106.31 149.01 1107.69 149.6 1108.59 150.556C1109.31 151.354 1109.89 152.498 1109.94 153.336C1110 154.342 1107.76 159.188 1106.55 161.448C1102.95 168.732 1098.51 176.066 1092.28 181.489C1089.23 184.027 1085.33 186.281 1081.31 186.523C1076.95 186.785 1073.64 184.964 1071.58 181.554C1070.63 179.76 1070.18 177.768 1070.06 175.756C1069.94 173.744 1070.14 171.545 1070.52 169.502C1071.45 165.24 1073.05 161.106 1074.66 157.138C1075.55 155.066 1076.44 153.161 1077.33 151.089C1078.06 149.362 1079.42 146.756 1079.49 145.069C1079.4 143.56 1078.35 142.95 1077.01 143.031C1074.66 143.172 1071.1 145.573 1069.97 146.314C1066.93 148.853 1064.06 151.549 1061.89 154.708C1059.25 158.233 1057.29 162.053 1055.51 166.03C1053.89 169.997 1051.95 173.984 1050.68 178.099C1050.26 179.47 1049.52 181.197 1048.94 182.747C1047.92 185.332 1046.2 187.623 1043.69 187.774C1042.18 187.865 1040.63 187.285 1039.71 185.994C1039.16 185.185 1038.94 184.357 1038.89 183.519C1038.83 182.513 1038.94 181.497 1039.22 180.638C1040.32 176.534 1042.28 172.714 1043.9 168.915C1045.5 164.78 1047.45 160.793 1048.88 156.5C1049.42 154.28 1050.19 150.364 1050.05 148.016C1049.93 146.004 1049.02 144.881 1047.34 144.982C1045.67 145.082 1043.72 146.377 1042.6 147.286C1041 148.56 1039.4 150.002 1037.98 151.602C1032.47 157.823 1028.07 165.828 1024.49 173.447C1022.71 177.424 1021.1 181.559 1019.49 185.526C1018.32 188.457 1016.78 193.598 1012.93 193.997Z" fill="#FF414C"/>
<path d="M969.535 196.773C967.02 196.924 964.465 196.404 962.362 195.016C959.026 192.693 957.946 188.719 957.714 184.863C957.089 174.468 960.981 163.633 967.204 155.182C970.484 150.946 974.454 147.006 978.997 144.209C983.698 141.234 986.833 140.204 992.366 139.872C994.881 139.72 997.111 140.428 999.459 140.287C1001.3 140.176 1002.74 138.912 1004.42 138.811C1006.43 138.69 1008.22 140.433 1008.35 142.613C1008.51 145.296 1006.86 148.592 1006.14 150.655C1004.38 154.967 1002.44 159.122 1001.53 163.552C1000.73 166.966 999.793 171.06 1000.02 174.749C1000.28 179.108 1001.7 180.369 1003.54 180.258C1005.89 180.117 1008.6 177.598 1010.19 175.989C1013.34 172.434 1015.61 168.259 1017.71 163.926C1018.44 162.199 1019.49 159.949 1020.52 157.531C1021.56 155.281 1023.15 153.671 1025.66 153.52C1028.01 153.379 1029.12 154.995 1029.24 157.007C1029.29 157.845 1029.03 159.207 1028.6 160.411C1026.38 165.424 1023.55 171.484 1020.64 176.37C1018.81 179.509 1016.45 182.175 1013.89 184.348C1011.02 187.044 1007.62 189.268 1003.76 189.5C997.391 189.883 995.03 186.996 992.045 182.127C991.669 181.476 991.314 181.161 990.811 181.191C989.637 181.262 987.166 184.944 985.915 186.534C983.089 189.901 978.301 194.227 974.19 195.82C972.701 196.246 971.044 196.682 969.535 196.773ZM969.987 187.491C971.329 187.41 972.807 186.817 974.098 185.898C977.478 183.339 980.127 179.814 982.44 176.31C985.069 172.45 987.865 168.58 990.139 164.405C992.264 160.575 996.006 155.639 995.744 151.279C995.603 148.932 993.886 148.362 991.874 148.483C989.862 148.604 987.398 149.593 985.929 150.355C981.838 152.283 978.478 155.177 975.662 158.712C970.502 165.248 965.878 175.117 966.362 183.165C966.503 185.513 967.808 187.622 969.987 187.491Z" fill="#FF414C"/>
<path d="M940.713 197.327C934.509 197.7 929.7 193.277 929.368 187.744C929.045 182.379 931.868 176.152 934.614 171.443C935.835 169.351 937.213 167.08 938.423 164.82C939.181 163.429 941.239 161.286 941.129 159.441C940.988 157.094 937.198 155.639 935.471 154.901C934.603 154.449 933.744 154.164 933.073 154.204C932.067 154.265 931.269 154.986 930.679 156.367C929.627 158.45 928.919 160.68 928.034 162.752C927.129 164.489 926.284 167.232 924.983 167.984C924.49 168.182 923.83 168.39 923.327 168.42C921.482 168.531 918.521 166.858 918.4 164.846C918.3 163.169 919.362 161.254 920.1 159.527C921.153 157.445 922.343 154.849 923.218 152.609C923.65 151.405 924.093 150.369 924.18 149.017C924.18 149.017 924.17 148.85 924.16 148.682C924.089 147.508 923.526 146.533 923.298 145.537C922.902 144.551 922.684 143.723 922.623 142.717C922.412 139.196 924.045 135.564 926.774 133.381C928.065 132.462 929.711 131.858 931.22 131.767C934.741 131.556 936.056 133.832 936.217 136.515C936.298 137.856 936.211 139.208 935.946 140.402C935.681 141.595 935.249 142.799 935.319 143.973C935.47 146.488 938.539 147.145 940.454 148.208C944.639 150.649 950.175 153.176 950.518 158.877C950.78 163.236 947.481 167.137 945.345 170.799C942.884 174.648 939.655 179.722 938.596 184.498C938.458 185.011 938.478 185.346 938.509 185.849C938.599 187.358 939.508 188.481 941.185 188.38C945.209 188.139 951.187 181.217 952.595 179.45C955.737 175.727 958.641 170.841 960.904 166.498C962.114 164.238 963.304 161.642 964.357 159.56C965.105 158 966.091 157.605 967.432 157.524C968.103 157.484 968.783 157.611 969.642 157.896C971.033 158.654 972.11 159.767 972.201 161.276C972.241 161.947 972.124 162.795 971.829 163.486C971.111 165.548 969.753 168.154 968.701 170.236C964.637 178.221 958.297 187.52 951.054 193.004C947.989 195.207 944.402 197.105 940.713 197.327Z" fill="#FF414C"/>
<path d="M851.397 258.897C844.188 259.33 838.272 253.291 837.859 246.417C837.395 238.704 842.327 231.172 847.39 225.82C852.453 220.467 857.775 216.614 863.737 212.217C866.476 210.202 870.211 207.958 873.129 206.1C876.046 204.242 879.141 202.542 881.87 200.358C882.983 199.282 884.422 198.017 884.834 196.478C885.267 195.274 886.946 189.62 886.866 188.279C886.825 187.608 886.648 187.451 886.312 187.471C885.642 187.511 885.347 188.202 883.308 190.68C882.383 192.082 880.502 194.383 879.221 195.469C876.049 198.689 871.053 202.354 866.19 202.647C864.178 202.768 862.136 202.385 860.379 201.145C856.529 198.684 854.758 194.415 854.496 190.056C854.325 187.206 854.687 184.828 855.039 182.283C856.114 174.983 859.578 168.212 863.584 162.082C867.591 155.951 873.472 150.213 880.373 147.443C882.68 146.631 885.007 146.155 887.355 146.014C890.708 145.812 894.289 146.607 896.301 146.486C898.313 146.365 899.722 144.598 901.901 144.467C904.416 144.315 906.727 146.364 906.878 148.879C906.979 150.556 906.399 152.105 905.651 153.664C904.914 155.391 904.354 157.276 903.784 158.993C901.555 166.699 899.483 174.228 897.244 181.766C896.684 183.651 896.124 185.535 895.732 187.41C895.594 187.923 895.635 188.594 895.675 189.264C895.715 189.935 895.923 190.595 896.594 190.555C898.103 190.464 900.172 188.489 901.275 187.245C902.546 185.991 904.142 184.549 905.245 183.304C909.983 178.14 913.714 173.036 916.852 166.453C917.295 165.417 918.18 163.344 918.938 161.953C919.706 160.729 920.514 160.175 921.687 160.105C923.364 160.004 926.335 161.845 926.476 164.192C926.587 166.036 925.652 167.27 924.914 168.997C923.271 172.462 921.766 175.413 919.61 178.739C917.612 181.888 914.175 186.302 911.476 188.988C906.235 194.183 901.614 198.499 895.643 202.728C894.352 203.647 892.893 204.576 891.948 205.642C890.697 207.232 890.315 209.274 889.755 211.159C888.615 214.593 887.445 217.523 886.138 220.967C883.177 227.708 880.405 234.774 876.22 240.746C872.026 246.551 867.318 252.219 861.621 255.422C858.379 257.468 854.583 258.705 851.397 258.897ZM866.998 193.68C868.171 193.609 868.979 193.056 869.798 192.67C872.893 190.97 875.287 188.807 877.463 185.815C879.816 182.982 882.15 179.812 883.991 176.841C885.999 173.86 887.82 170.553 889.483 167.425C890.988 164.474 892.936 160.486 892.755 157.468C892.614 155.121 890.521 153.901 888.174 154.042C881.299 154.455 874.503 161.762 871.127 167.181C868.971 170.508 866.993 173.992 865.705 177.772C864.173 183.08 863.023 186.346 863.225 189.7C863.396 192.55 865.321 193.781 866.998 193.68ZM851.574 250.641C855.263 250.419 857.815 248.078 860.219 246.083C862.78 243.91 865.154 241.411 867.163 238.43C869.181 235.616 871.179 232.467 872.852 229.506C874.693 226.535 876.356 223.406 877.851 220.287C878.589 218.56 880.832 213.882 880.772 212.876C880.731 212.206 880.386 212.058 880.05 212.078C877.2 212.25 871.279 217.317 868.056 219.698C862.41 223.739 857.119 228.096 852.569 233.586C849.88 236.44 847.546 239.609 846.772 243.525C846.477 244.216 846.527 245.055 846.577 245.893C846.759 248.911 848.556 250.822 851.574 250.641Z" fill="#FF414C"/>
<path d="M817.947 206.892C812.917 207.194 808.101 205.464 805.126 200.763C803.08 197.52 801.822 193.389 801.591 189.533C801.389 186.18 801.858 182.786 802.515 179.718C804.134 173.058 807.755 166.109 812.336 161.123C815.182 158.091 819.233 155.492 823.009 153.919C824.98 153.127 826.281 152.376 827.877 150.934C829.799 149.304 832.096 148.325 834.946 148.153C843.161 147.66 846.744 156.867 847.177 164.077C847.388 167.598 847.107 171.317 846.608 174.208C846.48 174.888 846.226 176.25 846.266 176.92C846.326 177.926 846.524 178.419 847.53 178.359C848.872 178.278 851.306 176.786 852.282 176.222C855.336 173.851 858.213 171.323 860.044 168.184C860.802 166.792 861.254 165.924 861.865 164.877C862.16 164.186 863.115 163.288 865.127 163.167C867.139 163.046 869.42 164.591 869.551 166.771C869.661 168.615 868.283 170.886 867.21 172.633C865.37 175.604 862.218 179.159 859.163 181.53C856.276 183.891 853.507 185.404 850.066 186.957C848.272 187.906 846.29 188.53 844.466 188.976C842.632 189.254 841.499 189.995 840.386 191.072C839.282 192.316 838.367 193.886 837.274 195.297C836.181 196.709 834.92 198.131 833.482 199.396C828.861 203.712 823.144 206.579 817.947 206.892ZM835.448 178.917C836.957 178.826 837.604 175.59 837.986 173.548C838.358 171.338 838.563 169.138 838.777 167.106C838.737 166.435 838.666 165.262 838.596 164.088C838.404 160.902 837.659 156.909 834.987 157.237C832.975 157.358 832.11 159.766 831.698 161.305C830.833 163.713 830.551 167.432 830.682 169.612C830.773 171.121 831.031 172.619 831.625 174.098C832.209 175.409 833.436 179.038 835.448 178.917ZM818.261 198.123C819.938 198.022 821.752 197.408 823.21 196.479C825.497 195.332 827.408 193.535 829.142 191.579C830.245 190.335 831.861 189.228 831.781 187.887C831.74 187.216 830.694 186.606 829.805 185.818C827.495 183.77 825.519 181.701 823.997 178.763C823.007 176.299 822.363 173.982 821.863 168.459C821.823 167.788 821.91 166.437 820.736 166.507C819.562 166.578 818.007 168.691 817.386 169.569C815.998 171.672 814.148 174.475 813.293 177.051C811.838 180.84 810.403 184.965 810.645 188.989C810.705 189.995 810.766 191.001 811.004 192.164C811.658 194.649 812.973 196.926 815.548 197.781C816.407 198.066 817.423 198.173 818.261 198.123Z" fill="#FF414C"/>
<path d="M783.438 206.778C777.234 207.151 772.425 202.728 772.093 197.195C771.77 191.83 774.593 185.603 777.339 180.894C778.559 178.802 779.937 176.531 781.148 174.271C782.073 172.869 783.964 170.737 783.853 168.892C783.722 166.713 779.923 165.09 778.196 164.352C777.327 163.9 776.469 163.615 775.966 163.645C774.792 163.716 773.994 164.437 773.404 165.818C772.351 167.901 771.624 169.795 770.739 171.868C770.296 172.904 769.716 174.453 767.316 179.309C765.821 182.428 762.947 187.817 761.442 190.768C759.149 194.608 757.013 198.27 756.382 198.981C755.772 200.027 754.786 200.423 753.78 200.483C751.936 200.594 749.488 199.058 749.327 196.376C749.256 195.202 749.709 194.334 750.309 193.12C751.204 191.215 752.455 189.625 754.728 185.45C756.086 182.845 758.222 179.183 759.412 176.587C761.212 172.945 762.117 171.208 763.465 168.435C764.34 166.195 765.068 164.3 765.943 162.06C766.375 160.856 766.985 159.81 766.905 158.468C766.905 158.468 766.895 158.301 766.885 158.133C766.814 156.959 766.418 155.973 766.023 154.988C765.627 154.002 765.409 153.174 765.348 152.168C765.137 148.647 766.769 145.015 769.667 142.821C770.79 141.913 772.436 141.309 773.945 141.218C777.466 141.007 778.781 143.283 778.942 145.966C779.023 147.307 778.936 148.659 778.671 149.853C778.574 151.036 778.141 152.24 778.212 153.414C778.363 155.929 781.431 156.586 783.178 157.659C787.364 160.099 792.9 162.627 793.243 168.328C793.505 172.687 790.205 176.588 788.07 180.25C785.609 184.099 782.38 189.173 781.321 193.948C781.351 194.451 781.203 194.797 781.234 195.3C781.324 196.809 782.233 197.932 783.91 197.831C787.934 197.59 793.912 190.668 795.32 188.9C798.63 185.168 801.366 180.292 803.629 175.949C804.839 173.689 806.029 171.093 807.082 169.011C807.83 167.451 808.815 167.056 810.324 166.965C810.995 166.925 811.676 167.052 812.367 167.347C813.926 168.095 814.835 169.218 814.926 170.727C814.966 171.398 814.849 172.246 814.554 172.937C813.836 174.999 812.646 177.595 811.593 179.677C807.362 187.672 801.022 196.971 793.779 202.455C790.714 204.658 787.126 206.556 783.438 206.778Z" fill="#FF414C"/>
<path d="M681.411 223.005C678.729 223.166 675.778 221.661 675.566 218.14C675.435 215.96 676.31 213.72 676.702 211.846C677.731 206.567 679.136 201.94 680.678 196.799C680.805 196.118 681.523 194.056 681.462 193.05C681.422 192.379 681.077 192.232 680.396 192.104C679.715 191.977 678.709 192.037 678.186 191.732C676.804 191.142 676.566 189.979 676.516 189.14C676.395 187.128 677.23 184.218 679.024 183.268C679.516 183.071 680.019 183.04 680.69 183C682.031 182.919 683.728 183.154 684.704 182.591C685.995 181.672 686.622 178.1 687.202 176.551C688.204 173.63 689.206 170.709 690.376 167.778C692.559 162.094 694.909 156.4 697.437 150.864C700.27 144.804 703.281 138.902 707.16 133.452C709.011 130.649 712.199 124.904 716.223 124.662C718.403 124.531 721.207 126.382 721.348 128.729C721.539 131.915 717.737 135.846 716.023 138.136C712.764 142.707 710.196 147.573 707.796 152.429C705.11 158.143 702.75 163.669 700.577 169.521C699.545 171.939 698.512 174.357 697.48 176.775C697.352 177.455 696.732 178.334 696.782 179.172C696.803 179.508 697.158 179.823 697.661 179.793C697.829 179.783 697.829 179.783 698.164 179.762C703.647 178.592 709.552 176.049 714.618 173.557C719.695 171.233 724.741 168.406 729.067 164.78C733.067 161.343 736.702 157.422 739.3 153.06C742.509 147.65 744.514 141.809 744.131 135.437C743.778 129.569 741.179 125.519 736.963 122.575C731.179 118.716 722.517 117.385 713.295 117.939C703.403 118.534 693.306 121.328 684.474 125.561C679.24 128.063 674.046 131.235 669.908 135.186C665.288 139.502 660.57 145.002 660.993 152.044C661.235 156.068 663.311 159.813 667.121 161.604C668.848 162.341 671.037 162.378 672.312 163.984C672.855 164.625 673.251 165.61 673.301 166.449C673.462 169.131 671.571 171.264 668.553 171.446C664.697 171.677 659.979 168.764 657.668 166.715C653.748 163.08 651.423 158.004 651.101 152.638C650.758 146.938 652.616 141.441 655.519 136.555C658.895 131.136 663.821 126.297 668.827 122.799C674.474 118.758 680.842 115.514 687.427 113.099C695.827 110.071 704.475 108.373 712.523 107.889C721.074 107.376 729.873 108.193 737.65 111.596C747.667 115.874 754.079 124.575 754.724 135.306C755.52 148.551 747.989 160.446 739.114 169.561C730.554 178.321 718.281 184.107 706.726 187.83C704.083 188.662 701.273 189.504 698.453 190.178C695.643 191.02 693.108 190.836 692.106 193.756C689.933 199.608 688.452 205.755 686.96 211.734C686.558 213.441 686.374 215.976 685.844 218.364C685.147 220.761 683.926 222.854 681.411 223.005Z" fill="#FF414C"/>
<defs>
<linearGradient id="paint0_linear_19_115" x1="75.4598" y1="110.307" x2="100.696" y2="82.0442" gradientUnits="userSpaceOnUse">
<stop stop-color="#FF414C"/>
<stop offset="1" stop-color="#FF414C" stop-opacity="0"/>
</linearGradient>
</defs>
</svg>
