<svg width="24" height="24" viewBox="0 0 24 24" fill="none" xmlns="http://www.w3.org/2000/svg">
<g clip-path="url(#clip0_4323_71247)">
<path d="M19.1954 11.0567L13.0735 14.2635L10.2451 11.435L13.4518 5.31312C14.3662 3.56746 16.0795 2.38211 18.0355 2.1419L22.2108 1.62915C22.598 1.58158 22.927 1.91052 22.8794 2.29781L22.3667 6.4731C22.1265 8.42905 20.9411 10.1423 19.1954 11.0567Z" stroke="#FF414C" stroke-linecap="round" stroke-linejoin="round"/>
<path d="M8.12102 13.5561C6.7068 14.9703 7.41391 17.0916 7.41391 17.0916C7.41391 17.0916 9.53523 17.7988 10.9494 16.3845" stroke="#FF414C" stroke-linecap="round" stroke-linejoin="round"/>
<path d="M12.3637 7.19276C8.12102 6.48565 6.7068 10.7283 6.7068 10.7283L10.2423 11.4354" stroke="#FF414C" stroke-linecap="round" stroke-linejoin="round"/>
<path d="M17.6178 12.4459C18.3249 16.6886 14.0823 18.1028 14.0823 18.1028L13.3752 14.5672" stroke="#FF414C" stroke-linecap="round" stroke-linejoin="round"/>
<path d="M15.9058 8.6066C15.1247 7.82555 15.1247 6.55922 15.9058 5.77817C16.6868 4.99712 17.9532 4.99712 18.7342 5.77817C19.5153 6.55922 19.5153 7.82555 18.7342 8.6066C17.9532 9.38764 16.6868 9.38764 15.9058 8.6066Z" stroke="#FF414C" stroke-linecap="round" stroke-linejoin="round"/>
<path d="M6.003 18.5L1.5 23.5M10 19L4 23.5M5 15L1 21.5" stroke="#FF414C" stroke-linecap="round" stroke-linejoin="round"/>
</g>
<defs>
<clipPath id="clip0_4323_71247">
<rect width="24" height="24" fill="white"/>
</clipPath>
</defs>
</svg>
