<svg xmlns="http://www.w3.org/2000/svg" fill="none" viewBox="0 0 107 32"><g fill="#000" clip-path="url(#a)"><path d="M50.963 14.024c1.068.286 1.895.856 2.504 1.69.597.832.896 1.802.896 2.92 0 1.38-.506 2.59-1.505 3.617-1 1.016-2.366 1.518-4.1 1.518H41.12V5.957h7.305c1.573 0 2.79.445 3.664 1.324.884.878 1.332 1.917 1.332 3.103 0 .8-.218 1.54-.666 2.214s-1.034 1.152-1.78 1.426zM48 8.48h-4.124v4.598h4.032c.804 0 1.459-.228 1.94-.696a2.26 2.26 0 0 0 .724-1.688c0-.662-.23-1.153-.7-1.575-.471-.422-1.091-.64-1.872-.64m-4.124 12.745h4.388q1.43 0 2.308-.821c.586-.548.873-1.21.873-1.997s-.287-1.506-.86-2.054c-.575-.548-1.368-.822-2.39-.822h-4.319zm22.223-8.638v-1.803h2.572V23.77H66.1v-1.78c-1.183 1.403-2.665 2.099-4.468 2.099-1.895 0-3.458-.662-4.686-1.974-1.23-1.312-1.85-2.955-1.85-4.918s.62-3.549 1.85-4.815c1.228-1.267 2.79-1.906 4.686-1.906s3.285.708 4.468 2.123zm-4.1 9.06c1.217 0 2.227-.422 3.031-1.278.793-.833 1.183-1.871 1.183-3.103s-.401-2.248-1.183-3.081c-.803-.856-1.814-1.278-3.032-1.278s-2.25.422-3.032 1.278c-.78.833-1.16 1.871-1.16 3.104 0 1.232.39 2.27 1.16 3.103.781.833 1.792 1.255 3.032 1.255m19.146-9.208v-1.666h2.572v11.66c0 2.089-.643 3.755-1.94 4.987-1.299 1.233-3.01 1.86-5.146 1.86s-4.112-.616-5.846-1.86l1.16-2.053c1.435 1.026 2.986 1.54 4.628 1.54 1.379 0 2.47-.377 3.274-1.141.804-.765 1.217-1.757 1.217-2.978v-.936c-1.148 1.29-2.607 1.928-4.387 1.928-1.907 0-3.48-.638-4.71-1.905-1.228-1.267-1.849-2.864-1.849-4.77s.644-3.491 1.918-4.746c1.276-1.267 2.86-1.906 4.756-1.906 1.734 0 3.181.662 4.341 1.974zm-4.124 8.99c1.218 0 2.217-.41 3.01-1.231.792-.8 1.183-1.826 1.183-3.058 0-1.233-.402-2.271-1.183-3.058-.805-.8-1.815-1.21-3.01-1.21s-2.17.41-2.986 1.232c-.792.788-1.183 1.803-1.183 3.036 0 1.232.39 2.282 1.183 3.08.804.8 1.803 1.21 2.986 1.21m21.25-4.416c0 .422-.034.844-.091 1.278H87.968c.195 1.05.654 1.871 1.39 2.488.735.616 1.722.912 2.951.912a7.6 7.6 0 0 0 2.343-.388c.816-.262 1.517-.593 2.102-1.015l1.114 1.951c-1.63 1.21-3.514 1.803-5.65 1.803-2.298 0-4.043-.662-5.226-1.997-1.195-1.335-1.78-2.944-1.78-4.815s.608-3.572 1.849-4.85c1.24-1.289 2.86-1.928 4.823-1.928s3.435.582 4.606 1.757q1.792 1.78 1.792 4.793zm-6.409-4.267c-.999 0-1.86.308-2.56.924-.701.616-1.15 1.438-1.345 2.442h7.615c-.115-1.016-.516-1.826-1.206-2.442q-1.033-.924-2.515-.924zM102.349 5.5v18.268h-2.665V5.5zm-82.604 6.823c.207.171.47.422.677.605l.08.091c-.114-.171.104-.536.369-.935.93-1.37 3.17-3.675 5.007-5.146 1.666-1.324 1.93-1.176 2.022-1.119l-.184-.182c-.414-.388-.988-.89-1.413-1.267-.08-.068-.643.445-1.596 1.506-1.562 1.723-3.572 4.234-4.503 5.603-.356.536-.505.81-.448.856zm1.848.594c-.334.502-.426.844-.288 1.027.161.24.38.559.529.81-.138-.24-.07-.605.252-1.072.93-1.37 3.584-3.127 5.939-3.926 1.538-.525 2.572-.502 2.825-.045a40 40 0 0 0-1.206-1.86c-.23-.32-1.126-.137-2.492.57-2.148 1.119-4.63 3.138-5.56 4.507zm-3.078-2.511c-.357.525-.586.753-.69.708.207.102.483.25.69.365l.195.114s.218-.24.574-.765c.93-1.369 2.642-4.096 3.813-6.093.724-1.21 1.08-1.871 1.034-1.894l-.413-.25c-.425-.24-1.023-.537-1.46-.765.162.068-.022.833-.539 2.168-.85 2.168-2.297 5.043-3.216 6.412zm-7.41 5.934-.218-.423-.16-.376c-.254-.64-1.402-.902-3.148-.605-2.527.434-5.33 1.894-6.26 3.263-.287.422-.367.799-.252 1.084l.425.982.528 1.038c-.138-.251-.069-.616.253-1.084.93-1.37 3.595-3.104 5.96-3.88 1.058-.342 2.413-.616 2.86 0zm3.079 3.184c-.218-.148-.516-.342-.723-.502l-.115-.091c-.07-.057-.609.479-1.528 1.552-1.516 1.757-3.491 4.301-4.422 5.67-.367.537-.505.81-.47.845l.24.182c.449.331 1.057.742 1.517 1.05.023.012.206-.24.574-.776.93-1.37 2.653-4.085 3.86-6.059.734-1.21 1.102-1.86 1.067-1.882zm2.023.946c-.207-.067-.483-.182-.69-.262l-.23-.102c.173.08.024.844-.47 2.202-.804 2.19-2.206 5.089-3.124 6.458-.356.525-.598.753-.7.708l.481.205c.448.183 1.046.4 1.505.56.184.056.448-.16.793-.663.93-1.369 2.044-4.37 2.503-6.698.288-1.46.242-2.304-.057-2.407zm2.008.388c-.172 0-.402-.034-.563-.057l-.322-.057c.471.08.77 1.004.759 2.579-.023 2.442-.782 5.534-1.712 6.903-.333.48-.632.685-.884.64l.746.113c.414.057.965.103 1.379.137.298.012.608-.182.918-.639.93-1.369 1.402-4.495 1.069-6.972-.23-1.665-.77-2.624-1.379-2.658z"/><path d="M19.984 20.723c-.115.022-.275.057-.39.08l-.356.045c.47-.034 1.39.251 2.193 2.636 1.023 3.446.425 7.28-1.171 7.6l1-.126c.355-.057.815-.16 1.17-.24.31-.08.586-.274.816-.616.93-1.37.77-4.439-.356-6.858-.838-1.814-1.987-2.738-2.906-2.521"/><path d="m21.293 20.175-.207.125c-.092.046-.218.114-.31.16.402-.171 1.872-.536 3.802 2.214 1.883 2.92 2.09 6.275.448 7.165.344-.16.792-.388 1.125-.559l.816-.49a1.6 1.6 0 0 0 .46-.468c.93-1.37.206-4.2-1.62-6.322-1.562-1.825-3.434-2.533-4.514-1.825M18.468 2.909c-.069 2.43-.884 5.511-1.815 6.88-.447.662-.723.65-.872.64.183.034.425.102.608.148l.31.091c.184.057.46-.148.804-.662.93-1.37 2.022-4.37 2.458-6.71.265-1.471.207-2.327-.103-2.418L19.18.673c-.413-.115-.964-.229-1.378-.331.632.205.69 1.563.678 2.567z"/><path d="M15.127 2.704c.723 2.476.563 5.603-.368 6.972-.275.4-.585.605-.907.639.138 0 .322-.011.448-.023h.379c.413 0 .666-.285.919-.627.93-1.37 1.378-4.496 1.01-6.984-.264-1.654-.735-2.555-1.424-2.658L14.231 0c-.367 0-.85.034-1.206.046.758-.069 1.573.901 2.09 2.647z"/><path d="M11.945 3.458c1.481 2.304 1.93 5.271 1.01 6.64a1.5 1.5 0 0 1-.666.57l.276-.102.379-.114c.298-.08.574-.285.804-.616.93-1.37.746-4.439-.402-6.846-.862-1.815-2.033-2.74-2.952-2.51-.356.09-.827.239-1.183.353l-.953.365c1.022-.433 2.503.422 3.698 2.26z"/><path d="M9.395 5.09c2.09 1.916 3.032 4.575 2.113 5.944a1.6 1.6 0 0 1-.253.297l.127-.115c.08-.068.195-.148.275-.205a1.55 1.55 0 0 0 .448-.456c.93-1.37.184-4.188-1.654-6.299-1.596-1.826-3.48-2.522-4.57-1.791-.357.24-.805.593-1.138.855l-.551.491c1.068-.993 3.296-.48 5.214 1.278z"/><path d="M7.683 7.372c1.93 1.061 3.687 2.99 2.964 4.747l.183-.331c0-.012.012-.023.023-.034v-.023s.035-.023.046-.035c.93-1.369-.218-3.8-2.56-5.43-2.321-1.61-4.951-1.838-5.893-.503l-.195.274c-.264.41-.586.97-.839 1.426.023-.034.035-.057.058-.091.93-1.37 3.71-1.37 6.202 0z"/><path d="M6.88 10.145c2.24.582 3.606 1.848 3.468 3.047.011-.114.046-.274.069-.388l.034-.126c.356-1.312-.999-2.92-3.319-3.81-2.665-1.005-5.984-.857-6.685 1.14l-.137.536a35 35 0 0 0-.253 1.518c.23-1.62 3.09-2.807 6.822-1.917"/><path d="M7.053 13.192c1.355 0 3.032.262 3.388 1.415-.023-.126-.057-.308-.069-.445l-.022-.24c-.07-1.015-1.402-1.883-3.492-2.122-2.7-.308-5.64.547-6.57 1.917q-.31.462-.276.924l.08.787c.058.4.15.924.22 1.312-.265-1.506 2.79-3.434 6.741-3.548m3.308 5.989c1.149-.901 1.884-1.266 2.045-1.095a41 41 0 0 1-.643-.742l-.023-.023c-.23-.296-1.103-.09-2.435.64-2.114 1.163-4.572 3.217-5.502 4.586-.344.502-.425.845-.298 1.016l.045.057c.402.49.965 1.13 1.39 1.597-.103-.102 0-.422.356-.947.93-1.369 3.193-3.651 5.054-5.1zm17.573.833c-1.999-1.358-4.583-2.065-5.858-.559-.092.126-.092.126-.299.342 1.057-1.038 3.331-.547 5.307 1.198 2.125 1.883 3.1 4.519 2.17 5.888a1.7 1.7 0 0 1-.218.263c.54-.525.551-.548 1.401-1.61.678-.912.61-3.206-2.492-5.51z"/><path d="M29.184 17.446c-2.63-1.039-5.513-.765-6.432.605-.115.182-.126.194-.23.479a5 5 0 0 1-.138.376l-.034.069c.034-.08.092-.171.138-.24.93-1.369 3.721-1.403 6.248-.08 2.4 1.324 3.595 3.15 3.02 4.633l.15-.342c.195-.48.413-1.141.574-1.632.287-1.027-.413-2.659-3.308-3.88z"/><path d="M32.987 16.693c-.023-.4-.345-1.723-3.492-2.18-2.699-.342-5.64.503-6.57 1.872-.264.422-.275.639-.275.913v.605c.011-.252.103-.502.264-.742.93-1.37 3.87-1.94 6.558-1.29 2.217.548 3.584 1.758 3.48 2.933l.046-.593c.012-.445 0-1.05 0-1.506z"/><path d="M28.806 11.4c-2.538.41-5.34 1.848-6.271 3.218-.38.582-.299.878-.253 1.084.058.137.115.33.161.467l.08.286c-.08-.457.092-.753.265-1.039.93-1.369 3.824-2.533 6.466-2.601 1.332-.023 2.998.194 3.365 1.312l-.218-.821c-.115-.377-.299-.88-.425-1.244-.195-.48-.896-.981-3.158-.662z"/></g><defs><clipPath id="a"><path fill="#000" d="M0 0h106.506v31.139H0z"/></clipPath></defs></svg>