<svg xmlns="http://www.w3.org/2000/svg" fill="none" viewBox="0 0 152 20"><path fill="#000" d="M52.971 0a.5.5 0 0 0-.19.057l-.056.025c-.564.262-1.531.48-2.914.656v.541q1.167 0 1.309.067.104.039.15.13c.046.09.081.508.107 1.262.038 1.115.055 2.2.055 3.244v3.906a442 442 0 0 1-.055 2.7q-.021.481-.125.668c-.077.127-.206.21-.486.224l-.898.01v.543a88 88 0 0 1 2.437-.058c1.19.014 2.017.044 2.26.058v-.543a25 25 0 0 1-1.055-.03.6.6 0 0 1-.226-.095c-.181-.149-.22-.4-.229-.836q-.01-.196-.056-2.644l.021-6.356s.086-3.263.092-3.37a.18.18 0 0 0-.037-.118Q53.037 0 52.97 0m5.709 0c-.108.019-.285.103-.514.191-.582.215-1.461.397-2.646.547v.541q1.167 0 1.308.067.105.039.15.13c.046.09.082.508.108 1.262.038 1.115.057 2.2.057 3.244v3.906a354 354 0 0 1-.057 2.7q-.02.481-.125.668c-.076.127-.208.21-.488.224l-.896.01v.543a77 77 0 0 1 2.437-.058c1.015.01 1.817.038 2.26.058v-.543a25 25 0 0 1-1.055-.029.6.6 0 0 1-.227-.096c-.182-.149-.218-.4-.228-.836q-.008-.196-.057-2.644l.022-6.355s.084-3.264.092-3.372a.17.17 0 0 0-.038-.117Q58.747 0 58.68 0M7.58.375c-2.305.044-4.134.694-5.484 1.967Q0 4.316 0 7.318c0 1.581.424 2.893 1.215 4.024.789 1.127 2.047 2.09 3.718 2.577a9.6 9.6 0 0 0 2.713.368q1.244-.001 2.297-.25a10 10 0 0 0 2.156-.809l.367-.879-.16-.197a5.6 5.6 0 0 1-1.496.777c-.802.265-1.7.377-2.62.352-1.8-.045-3.258-.618-4.372-1.727-1.16-1.16-1.74-2.687-1.74-4.59q.009-1.626.463-2.706.452-1.076 1.166-1.78c.922-.908 2.069-1.316 3.781-1.363q.069-.003.139-.003c2.392 0 3.622.593 3.75 1.822l.007 1.107h.57q.057-1.053.205-1.853.103-.5.307-1.018a35 35 0 0 1-1.285-.326A15 15 0 0 0 9.4.469 13 13 0 0 0 7.58.375m56.909.277v.6c.726.01 1.166.046 1.32.1a.6.6 0 0 1 .34.242q.105.164.132 1.058.06 1.224.06 2.502V9.31q0 1.818.263 2.588c.137.39.392.768.761 1.145.742.745 2.195 1.244 4.137 1.244 1.658 0 3.071-.41 3.938-1.11q.867-.705 1.19-1.628.325-.921.325-3.244v-3.15q.029-2.483.086-2.672.028-.726.139-.91.091-.146.326-.221.234-.083 1.328-.1v-.6a80 80 0 0 1-2.695.055 83 83 0 0 1-1.887-.055v.6q1.086.017 1.324.1.24.077.344.242.106.164.125 1.057.059 1.223.059 2.501v2.893c0 1.644-.114 2.686-.381 3.299-.27.615-.75 1.12-1.84 1.46q-.818.26-1.869.26c-1.209 0-2.222-.278-2.8-.704a2.46 2.46 0 0 1-.823-1.069q-.259-.645-.26-2.664V5.153q.043-2.481.057-2.67.027-.723.148-.912.082-.142.323-.219c.16-.054.601-.09 1.324-.1v-.6a100 100 0 0 1-3.121.055 71 71 0 0 1-2.373-.055M131.6.766a1 1 0 0 0-.748.31 1 1 0 0 0-.311.748q0 .432.311.74c.41.41 1.07.415 1.484 0q.311-.308.311-.74 0-.438-.305-.748a1 1 0 0 0-.742-.31M92.37.768q-.437 0-.747.309a1.02 1.02 0 0 0-.309.748q0 .43.309.74.31.31.748.31.43 0 .738-.31a1 1 0 0 0 .31-.74q.001-.44-.304-.748a1 1 0 0 0-.744-.309m45.167 1.252q-.602.387-1.57.727v2.86q-.539.265-1.453.6v.395c.95-.051 1.453-.057 1.453-.057s-.001 4.064-.014 4.278a58 58 0 0 0-.045 1.414q.05.672.219.986c.226.419.56.685.951.836.198.075.465.115.791.115.535 0 .9-.043 1.373-.217q.412-.376.852-.724l-.114-.366a3.4 3.4 0 0 1-.513.143c-.03.006-.068.018-.096.02q-.241.035-.629.035c-.039-.004-.071-.013-.107-.018-.6-.092-.796-.244-.963-.502a1.3 1.3 0 0 1-.18-.482q-.046-.277-.017-1.697l.056-3.877c1.556-.01 2.1-.004 2.479 0l.197-.823-.066-.058c-1.324.058-1.76.065-2.063.062l-.547-.007q.124-2.672.229-3.455zM18.513 4.895c-1.396 0-2.54.442-3.433 1.336q-1.337 1.336-1.338 3.45 0 1.172.432 2.202a3.96 3.96 0 0 0 1.94 2.065q.755.369 1.845.369a5.2 5.2 0 0 0 2.564-.647 4.6 4.6 0 0 0 1.803-1.787 5.1 5.1 0 0 0 .639-2.523q0-1.973-1.24-3.219t-3.212-1.246m27.357 0c-1.022 0-1.861.323-2.748.93q-.574.393-.847.693-.377.417-.674 1.289-.294.873-.295 1.959c0 1.851.786 3.282 2.123 3.972q1.007.521 2.246.522a5.4 5.4 0 0 0 2.207-.477q.301-.132.95-.543l.302-.675-.152-.162c-.56.347-1.03.572-1.407.7-.945.314-1.9.236-2.779-.21-1.049-.534-1.672-1.631-1.697-3.444h3.018q1.017 0 2.03-.076a10 10 0 0 0 1.214-.168q.056-.376.056-.642c0-1.394-.505-2.545-1.642-3.188a3.8 3.8 0 0 0-1.905-.48m63.394 0c-1.018 0-1.859.323-2.748.93q-.576.393-.848.693-.376.417-.672 1.289-.296.873-.296 1.959c0 1.851.785 3.282 2.122 3.972.672.347 1.415.522 2.247.522.838 0 1.619-.208 2.206-.477q.3-.132.95-.543l.302-.675-.152-.162q-.841.509-1.406.7a3.54 3.54 0 0 1-2.777-.21c-1.048-.534-1.675-1.631-1.702-3.444h3.02q1.016 0 2.031-.076a10 10 0 0 0 1.213-.168q.056-.376.057-.642c0-1.394-.505-2.545-1.643-3.188q-.849-.48-1.904-.48m15.357.011a4.2 4.2 0 0 0-1.555.38c-1.115.52-1.613 1.39-1.613 2.376 0 .678.264 1.279.678 1.652q.308.285.834.48.348.122 1.541.395 1.19.274 1.552.442c.484.225.747.64.747 1.164q-.001.883-.616 1.388-.614.508-1.572.506c-.264-.002-.58-.011-.869-.037a1.97 1.97 0 0 1-1.076-.484c-.314-.284-.444-.718-.508-1.145a7 7 0 0 1-.057-.867h-.539q-.016 1.221-.045 1.607c-.053.52-.119.849-.127.948q.001.063.04.093.055.058.793.204c.89.168 1.606.252 2.138.252q1.749 0 2.791-.942 1.043-.945 1.043-2.21c0-.85-.397-1.475-.988-1.763q-.445-.211-1.623-.515l-1.553-.383c-.586-.176-.88-.372-1.072-.725a1.3 1.3 0 0 1-.145-.628q0-.654.5-1.143c.333-.324.78-.488 1.32-.488 1.155 0 1.775.516 1.981.853q.103.167.162.383.061.216.107.9h.539q.026-1.086.086-2.136-.485-.242-1.263-.407a6.6 6.6 0 0 0-1.631-.15m-88.057.045a4.3 4.3 0 0 0-1.539.281l-1.752 1.5c.023-.857.054-1.449.057-1.539q0-.093-.037-.138a.13.13 0 0 0-.106-.045q-.064 0-.254.09-.01.006-.023.01-.882.41-2.768.667v.54h.073q.994-.005 1.138.042a.38.38 0 0 1 .21.156q.06.104.087.656.058.861.059 1.612s-.04 2.829-.059 3.806q-.028.48-.133.666c-.075.128-.21.213-.474.227l-.9.007v.543c1.793-.05 2.424-.058 2.591-.058a53 53 0 0 1 2.096.058v-.543a23 23 0 0 1-1.037-.029c-.21-.047-.3-.13-.348-.244q-.097-.217-.115-.687c-.02-1.014-.057-3.788-.057-3.788q0-1.036.25-1.476.249-.437.834-.777a2.5 2.5 0 0 1 1.293-.342c1.07 0 1.88.566 2.094 1.408q.112.462.111 1.943v1.588q0 .613-.111 2.928l-.003.02a48 48 0 0 1 1.713-.06c.676.01 1.231.043 1.504.06v-.543l-.982-.03c-.272-.036-.383-.151-.442-.525q-.057-.444-.056-1.67V9.599q-.001-1.943-.065-2.367c-.151-.951-.576-1.555-1.484-1.969a3.4 3.4 0 0 0-1.365-.312m48.128 0a4.3 4.3 0 0 0-1.53.281l-1.75 1.5c.022-.842.055-1.449.057-1.539q0-.093-.039-.138-.035-.045-.103-.045a.7.7 0 0 0-.248.088l-.008.002c-.587.278-1.517.507-2.789.678v.54h.082q.982-.005 1.127.042.149.053.211.156.06.105.086.656.058.861.059 1.612s-.04 2.829-.059 3.806q-.025.48-.13.666c-.076.128-.209.213-.475.227l-.9.007v.543c1.804-.051 2.432-.058 2.593-.058a61 61 0 0 1 2.092.058v-.543a23 23 0 0 1-1.037-.029c-.214-.047-.298-.13-.348-.244q-.095-.217-.113-.688c-.019-1.013-.057-3.787-.057-3.787q0-1.037.248-1.476.25-.437.836-.777c.39-.225.815-.342 1.291-.342 1.069 0 1.879.565 2.094 1.408q.112.462.113 1.943v1.588q-.002.613-.113 2.93v.018a50 50 0 0 1 1.713-.06 32 32 0 0 1 1.502.06v-.543l-.983-.03c-.27-.036-.379-.149-.441-.525q-.057-.444-.057-1.67V9.6q0-1.943-.066-2.367c-.149-.951-.574-1.555-1.483-1.969a3.4 3.4 0 0 0-1.375-.313m8.435 0q-1.244.59-3.064.795v.543q1.118.001 1.265.07a.4.4 0 0 1 .205.211q.094.264.094 1.664v1.654a592 592 0 0 0-.056 2.701q-.03.48-.133.666c-.075.128-.21.211-.477.225l-.898.01v.543a90 90 0 0 1 2.48-.058c1.043.012 1.926.042 2.3.058v-.543a24 24 0 0 1-1.054-.03.6.6 0 0 1-.226-.095c-.174-.141-.219-.393-.229-.836q-.009-.196-.056-2.644V8.172q0-1.066.056-3.07zm39.228 0c-.834.4-1.851.658-3.066.795v.543q1.12.001 1.267.07a.4.4 0 0 1 .205.211q.095.264.094 1.664v1.654a377 377 0 0 0-.056 2.701q-.031.48-.133.666c-.079.128-.209.211-.475.225l-.902.01v.543a96 96 0 0 1 2.482-.059c1.094.013 1.987.045 2.301.06v-.544a24 24 0 0 1-1.055-.03.6.6 0 0 1-.226-.095c-.175-.141-.217-.393-.227-.836a346 346 0 0 1-.059-2.644V8.172q0-1.066.059-3.07zM28.76 4.967a2.13 2.13 0 0 0-1.596.521q-.161.142-.515.623-.358.482-.778.97c.017-1.093.056-1.795.059-1.888q0-.093-.04-.138a.13.13 0 0 0-.103-.045q-.066 0-.255.09l-.112.049c-.59.257-1.48.467-2.68.628v.541h.007q1.057-.007 1.209.041a.37.37 0 0 1 .215.157q.06.103.08.656.055.861.054 1.613s0 1.19-.054 3.729c-.02.468-.086.731-.24.851a.6.6 0 0 1-.239.088q-.084.02-1.142.037v.543c1.416-.054 2.218-.056 2.341-.059 1.448.015 2.506.046 2.838.059v-.543q-1.246-.083-1.531-.168c-.189-.061-.253-.135-.3-.348q-.04-.16-.048-.744a77 77 0 0 1-.058-2.27v-.97q0-1.192.503-1.789.501-.6 1.221-.6c.57 0 .922.263 1.211.86h.424q.021-.951.17-2.209l-.055-.13a2 2 0 0 0-.586-.155m91.279 0a2.14 2.14 0 0 0-1.594.521q-.158.142-.515.623c-.353.458-.623.783-.778.97.023-1.274.057-1.795.059-1.888q0-.093-.039-.138a.13.13 0 0 0-.104-.045c-.128.03-.361.141-.611.236q-.872.32-2.435.531v.541q1.061-.007 1.215.041a.37.37 0 0 1 .214.157q.062.103.08.656.057.861.055 1.613s.003 1.19-.055 3.729c-.017.468-.084.731-.24.851a.6.6 0 0 1-.238.088q-.086.02-1.145.037v.543c1.364-.051 2.165-.056 2.344-.059 1.296.01 2.329.043 2.838.059v-.543q-1.248-.083-1.531-.168c-.188-.061-.252-.135-.301-.348q-.04-.16-.047-.744a85 85 0 0 1-.059-2.27v-.97q0-1.191.504-1.789c.337-.397.742-.6 1.221-.6.571 0 .925.262 1.213.86h.422q.02-.952.172-2.209l-.057-.13a2 2 0 0 0-.588-.155m-25.278.24v.539c.379.015.608.032.697.059.214.048.361.177.614.742l2.703 6.28q.145.33.511 1.29h.967q1.398-3.307 1.637-3.828l.906-1.926c.59-1.205.932-1.879 1.019-2.031q.191-.338.383-.447.193-.11.781-.139v-.539c-1.293.045-1.891.059-2.183.053q-.487-.014-1.424-.053v.539q.983.03 1.209.152c.145.078.141.263.084.508q-.152.593-.603 1.711c-.472 1.174-.75 1.852-.86 2.108l-.937 2.126-.008-.01c-.442-1.036-.898-2.116-.898-2.116L98.21 7.374q-.377-.93-.377-1.21 0-.18.18-.283.177-.103 1.197-.134v-.54c-1.32.046-2.271.06-2.52.055q-.703-.011-1.93-.055m46.144 0v.541q.67.076.863.191c.129.08.249.227.361.457q.426.869 1.092 2.526l1.496 3.707q.425 1.054.725 1.898a24 24 0 0 1-.893 2.05q-.331.654-.572.92c-.319.357-.696.518-1.086.518-.13 0-.231-.011-.32-.025-.039-.008-.08-.013-.111-.022-.194-.063-.338-.177-.577-.38h-.228l-.481 1.453c.415.227.707.314 1.123.314.855 0 1.584-.369 2.108-1.058q.392-.519.947-1.729l2.16-5.086q1.434-3.163 1.967-4.248.531-1.085.795-1.277.263-.187.744-.21l.093-.54c-.654.036-1.911.089-3.624 0v.541q.988.095 1.132.197c.16.108.177.285.112.547q-.123.435-.86 2.28a77 77 0 0 1-1.027 2.497l-.498 1.11c-.46-1.06-1.498-3.6-1.498-3.6q-.329-.818-.695-1.97c-.106-.31-.16-.51-.16-.612q0-.238.244-.328.143-.055 1.113-.121v-.541a62 62 0 0 1-2.404.055 45 45 0 0 1-2.041-.055m-122.776.314c1.09 0 2.025.538 2.607 2q.437 1.095.438 2.606-.001 1.817-.735 2.687-.731.875-1.822.875c-.567 0-1.097-.187-1.582-.555q-.728-.554-1.113-1.763a7.8 7.8 0 0 1-.385-2.373q0-1.785.719-2.633.718-.844 1.873-.844m27.343 0c1.341 0 2.211.901 2.211 2.895q.001.123-.008.35-.395.047-1.648.046h-.12c-.97-.02-2.298-.064-2.806-.103q.01-1.655.659-2.422.65-.766 1.712-.766m63.391 0c1.343 0 2.215.901 2.215 2.895q-.001.123-.01.35-.397.047-1.647.046c-.107 0-.542-.003-1.931-.047a18 18 0 0 1-.998-.056q.01-1.655.66-2.422c.432-.51 1.007-.766 1.711-.766"/></svg>