<svg xmlns="http://www.w3.org/2000/svg" fill="none" viewBox="0 0 105 17"><path fill="#000" d="M100.627 2.3h-1.142V1.141h-1.157V0h-9.182v1.142H87.99v1.157h-1.142V8.04h1.157v1.14h2.3v1.158h6.882v1.142h-1.142v1.158h-4.598V11.48h-1.142v-1.142h-3.457v3.441h1.125v1.158h1.126v1.142h9.198v-1.142h1.157V13.78h1.174V9.181h-1.142V8.04h-1.157V6.882h-6.882V5.74h-1.142V4.6h1.142V3.44h4.598v1.158h1.142V5.74h3.441V2.3M31.13.016h-4.326V16.08h4.326zm21.498 0-6.4 16.064h4.358l1.077-2.814.499-.29h5.515l.466.274 1.094 2.846h4.615L57.468.016zm3.763 9.712h-2.895l-.337-.337 1.575-4.406h.37l1.592 4.438zM17.96 12.156V.016h-4.326V16.08H25.92v-3.57h-7.59zm-13.699 0v-2.042l.402-.402h5.885V6.191H4.583l-.322-.322V3.843l.273-.273h7.88V0H0v16.064h12.639v-3.57h-8.04zm33.687-.112 7.541-8.667V.017H32.16v3.569h7.461v.434l-7.541 8.763v3.297H45.7v-3.57h-7.75zm65.814 1.736h-1.158v1.142h-1.142v1.158h3.441v-3.441h-1.141zM83.404 2.3h-1.142V1.141h-1.158V0h-8.04v1.142h-1.141v1.141h-1.158v1.158h-1.142v9.182h1.142v1.157h1.158v1.142h1.141v1.142h8.04v-1.142h1.158V13.78h1.142v-1.14h1.157v-9.2h-1.157zm-2.3 8.04h-1.141v1.14H78.82v1.143h-3.44V11.48h-1.142v-1.142h-1.157V5.74h1.157V4.6h1.142V3.457h3.44V4.6h1.143v1.14h1.141zm-12.636 3.44h-1.142v-1.14H66.17v3.44h3.44v-1.157h-1.14zM66.169 3.441h1.157V2.299h1.142V1.142h1.142V0h-3.441zM101.462 0v1.142h1.142v1.157h1.158v1.142h1.141V0z"/></svg>