<svg xmlns="http://www.w3.org/2000/svg" fill="none" viewBox="0 0 133 17"><path fill="#000" d="M97.011.031h1.834v13.15H97.01zm5.235 12.979q-.84-.352-1.27-.98a2.5 2.5 0 0 1-.431-1.445q0-1.422 1.013-2.132t2.71-.812l3.567-.229v-.275q0-1-.666-1.5-.664-.5-1.874-.5h-.302q-.944 0-1.577.362-.633.363-.734 1.013h-1.871a2.7 2.7 0 0 1 .661-1.495q.568-.66 1.527-1.037.958-.375 2.15-.375 1.44 0 2.457.45t1.54 1.256.522 1.861v3.944q.001.421.038.994.037.574.1 1.068h-1.752a8 8 0 0 1-.091-.811q-.036-.51-.037-.674-.22.431-.744.816a4.3 4.3 0 0 1-1.274.62 5.5 5.5 0 0 1-1.642.234q-1.182 0-2.021-.352zm2.47-1.179q.778 0 1.494-.243.716-.244 1.17-.743.453-.5.453-1.234v-.77l-2.971.165q-1.32.082-1.889.454-.57.372-.57 1.032 0 .624.497.982.494.358 1.55.357zm10.557 1.108q-1.004-.426-1.545-1.133v1.376h-1.833V.032h1.833V5.22q.302-.46.857-.826a4.7 4.7 0 0 1 1.274-.578q.72-.21 1.5-.21 1.493 0 2.636.559a4.17 4.17 0 0 1 1.789 1.655q.647 1.095.647 2.663c0 1.045-.216 1.863-.647 2.6a4.3 4.3 0 0 1-1.806 1.69q-1.162.588-2.655.588-1.045 0-2.05-.427zm2.086-1.107q.944 0 1.673-.39t1.132-1.145q.405-.758.404-1.811 0-1.055-.404-1.811a2.7 2.7 0 0 0-1.132-1.146q-.73-.39-1.673-.39h-.267q-.961 0-1.723.39-.761.39-1.201 1.146-.44.757-.44 1.81 0 1.055.44 1.812.441.756 1.201 1.145.762.39 1.723.39zm8.247 1.155q-.994-.376-1.531-1.068-.538-.69-.591-1.645h1.879q.066.761.766 1.16.701.4 1.747.4h.267q1.119 0 1.733-.285t.615-.88a.84.84 0 0 0-.166-.522q-.166-.219-.568-.394-.404-.175-1.11-.311l-1.559-.294q-1.567-.302-2.361-.912t-.794-1.756q0-.898.542-1.55.541-.651 1.467-.986.926-.336 2.063-.335 2.136 0 3.278.821 1.141.82 1.253 2.27h-1.881a1.4 1.4 0 0 0-.349-.794q-.302-.353-.852-.56-.551-.207-1.311-.206h-.267q-.99 0-1.536.326t-.545.857q0 .292.151.49.15.196.55.352.399.155 1.15.302l1.467.284q1.575.3 2.404.954.825.65.825 1.843 0 .845-.522 1.482t-1.5.986q-.976.349-2.315.35c-.893 0-1.735-.126-2.397-.377zM8.312 0C3.729 0 0 3.73 0 8.312s3.73 8.311 8.312 8.311 8.311-3.729 8.311-8.311C16.623 3.729 12.896 0 8.312 0m0 14.863a6.557 6.557 0 0 1-6.55-6.55c0-3.61 2.94-6.55 6.55-6.55s6.55 2.938 6.55 6.549a6.56 6.56 0 0 1-6.55 6.55"/><path fill="#000" d="M10.795 8.312c0 .37-.082.724-.228 1.039h-4.51a2.5 2.5 0 0 1-.226-1.039c0-.37.08-.724.227-1.039h4.51c.145.315.226.669.226 1.039M8.313 5.829c1.002 0 1.863.592 2.254 1.444h2.198a4.58 4.58 0 0 0-4.45-3.533 4.58 4.58 0 0 0-4.453 3.533H6.06A2.48 2.48 0 0 1 8.315 5.83zm0 4.967a2.48 2.48 0 0 1-2.255-1.444H3.86a4.58 4.58 0 0 0 4.452 3.532 4.574 4.574 0 0 0 4.45-3.532h-2.197a2.48 2.48 0 0 1-2.254 1.444zM32.624 9.27h-7.61q.228 1.007.953 1.544a2.72 2.72 0 0 0 1.66.537h.266q.799 0 1.344-.298.546-.298.738-.849h2.54a3.3 3.3 0 0 1-.826 1.678q-.651.716-1.655 1.095-1.004.38-2.233.38-1.55 0-2.768-.564a4.4 4.4 0 0 1-1.922-1.678q-.7-1.115-.7-2.71 0-1.513.75-2.605a4.74 4.74 0 0 1 1.967-1.645Q26.342 3.6 27.71 3.6q1.514 0 2.622.572A4 4 0 0 1 32.033 5.8q.59 1.054.59 2.467zm-2.615-1.917q-.055-.898-.66-1.32-.606-.423-1.532-.423h-.266q-.98 0-1.618.46-.637.458-.876 1.283zm3.497-3.567h2.504v1.376q.477-.687 1.298-1.123.82-.434 2.022-.434 1.32 0 2.223.49a3.2 3.2 0 0 1 1.352 1.361q.449.871.45 2.007v5.713H40.85V7.92q0-1.073-.473-1.693-.472-.618-1.426-.618h-.256q-.698 0-1.316.357a2.7 2.7 0 0 0-.995 1.005q-.376.646-.377 1.472v4.732h-2.504v-9.39zm20.638 0-4.318 9.39H47.23l-4.282-9.39h2.687l2.906 6.556 2.972-6.556zm2.703 0h-2.504v9.39h2.504zM56.845 0H54.34v2.504h2.504zm2.913 12.96q-1.036-.398-1.596-1.138-.559-.737-.615-1.746h2.532q.056.633.623.954.567.322 1.422.322h.266q1.879 0 1.879-.771 0-.293-.299-.482-.3-.188-1.077-.344l-1.56-.302q-1.659-.33-2.499-1-.84-.668-.839-1.926 0-.917.565-1.582.564-.664 1.532-1.004.967-.34 2.168-.34 2.256 0 3.424.867t1.288 2.416h-2.54q-.055-.56-.59-.916-.536-.358-1.454-.357h-.266q-.769 0-1.193.196-.421.197-.422.537.001.193.115.33.116.138.413.25.296.115.866.225l1.457.276q1.67.31 2.545 1.022.876.71.876 2.004 0 .89-.51 1.54-.509.65-1.526 1.01-1.019.357-2.485.357t-2.504-.4zM70.284 0H67.78v2.504h2.504zm0 3.785H67.78v9.39h2.504zm3.401 8.972q-1.25-.6-1.948-1.705-.696-1.105-.697-2.572 0-1.468.697-2.573t1.948-1.705q1.253-.6 2.874-.6c1.081 0 2.032.2 2.866.6q1.25.6 1.954 1.705.7 1.105.7 2.573t-.7 2.572-1.954 1.705q-1.252.6-2.866.6c-1.075 0-2.04-.2-2.874-.6m3.004-1.407q.824 0 1.482-.349a2.53 2.53 0 0 0 1.027-1q.372-.65.371-1.521 0-.871-.371-1.523a2.54 2.54 0 0 0-1.027-1 3.1 3.1 0 0 0-1.482-.348h-.256q-.836 0-1.485.349a2.53 2.53 0 0 0-1.022 1q-.373.65-.372 1.521 0 .873.372 1.523a2.54 2.54 0 0 0 1.022 1q.651.347 1.485.348zm6.183-7.565h2.504v1.376q.476-.687 1.298-1.123.82-.434 2.022-.434 1.32 0 2.223.49a3.2 3.2 0 0 1 1.352 1.361q.45.871.45 2.007v5.713h-2.505V7.92q0-1.073-.472-1.693-.472-.618-1.426-.618h-.257q-.697 0-1.316.357a2.7 2.7 0 0 0-.995 1.005q-.375.646-.376 1.472v4.732H82.87v-9.39z"/></svg>