<svg xmlns="http://www.w3.org/2000/svg" fill="none" viewBox="0 0 91 21"><g fill="#000" clip-path="url(#a)"><path d="M8.523.008H0v6.848l2.974 2.97v-6.84h8.523zm0 10.362H0v6.848l2.974 2.971v-6.84h8.523zm23.861 8.08c-4.005 0-6.46-3.291-6.46-6.851s2.455-6.851 6.46-6.851c4.006 0 6.46 3.29 6.46 6.85 0 3.561-2.454 6.852-6.46 6.852m0-2.133c2.213 0 3.458-1.925 3.458-4.711s-1.238-4.712-3.458-4.712-3.429 1.897-3.429 4.712 1.238 4.711 3.43 4.711m14.214 2.133c-3.878 0-6.353-3.213-6.353-6.851s2.397-6.851 6.246-6.851c3.088 0 5.407 1.684 5.905 4.797h-2.902C49.18 7.86 48.1 6.887 46.542 6.887c-2.135 0-3.273 1.976-3.273 4.712s1.21 4.711 3.401 4.711c1.53 0 2.64-1.03 2.924-2.714h2.924c-.498 3.105-2.846 4.846-5.933 4.846zm10.232-7.136v6.872h-2.874V.015h2.874v10.432"/><path d="m62.858 6.148-3.92 3.916-2.107 2.104 2.107 2.103 3.92 3.916h4.211l-2.106-2.104-3.92-3.915 3.92-3.923 2.106-2.097zm5.58 12.038v-2.95h3.059v2.95zm4.975-15.251V.015h3.059v2.92zm.078 15.251V5.018h2.874v13.168zm11.049.264c-4.006 0-6.46-3.291-6.46-6.851s2.454-6.851 6.46-6.851c4.005 0 6.46 3.29 6.46 6.85 0 3.561-2.455 6.852-6.46 6.852m0-2.133c2.212 0 3.457-1.925 3.457-4.711S86.76 6.894 84.54 6.894s-3.43 1.897-3.43 4.712 1.239 4.711 3.43 4.711M13.257 0h2.864v15.598h8.045v2.632H13.257z"/></g><defs><clipPath id="a"><path fill="#000" d="M0 0h91v20.241H0z"/></clipPath></defs></svg>