<svg xmlns="http://www.w3.org/2000/svg" fill="none" viewBox="0 0 104 34"><g fill="#000" clip-path="url(#a)"><path d="M51.313 16.63v-.803h-.802v-.804h-.802V12.61h.802v-.804h.802v-.803h6.429v.803h-1.604v.804h.802v2.412h-.802v.804h-.803v.804zm5.627 6.442v-1.608h-.802v-.804h-4.825v-.803h-.802v-.804h-.802v-1.608h.802v-.804h.802v1.608h.803v.804h4.824v.803h.802v.804h.802v1.608h-.802v.804zm-5.627 1.608v-.804h-.802v-.804h-.802v-1.608h.802v-.804h.802v2.422h.803v.804h4.022v.804h-4.825zm3.22-8.853v-.804h.802V12.61h-.802v-.804h-2.417v.804h-.803v2.412h.803v.804zm1.605 8.049v-.804h.802v.804zm4.825-4.03v-.804h-.802v-.804h-.802v-1.607h-.802v-2.412h.802v-1.608h.802v.804h4.824v-.804h-.802v-.804h-3.21v-.803h4.023v.803h.802v.804h.802v1.608h-6.428v2.412h.802v1.607h.802v.804h3.21v.804zm-.802-7.245v-.804h.802v.804zm4.824 6.452v-.804h.803v.804zm.803-.815v-.803h.802v.803zm2.008 1.608v-.804h.803v-6.441h-.803v-.804h.803v-.804h.802v-.804h.802v1.608h.802v.804h-.802v6.441h.802v.804zm6.022 0v-.804h.803v-6.441h-.802v-.804h-2.814v-.804h3.616v.804h.802v.804h.802v6.441h.803v.804h-3.22zm5.232 0v-.804h-.802v-2.015h.802v1.211h.803v.804h2.417v-.804h.802v-1.607h-.802v-.804h-1.605v-.804h-1.604v-.804h-.802V12.61h.802v-.804h.802v1.608h.802v.804h1.605v.804h1.604v.804h.803v2.422h-.803v.804h-.802v.803H79.05zm4.429-6.441V12.6h-.803v-.804h-2.813v-.804h3.616v.804h.802v1.608zm5.219 8.049V17.83h-.802v-2.015h-.802V13.8h-.802v-2.014h-1.199v-.804h4.012v.803h-1.209V13.8h.802v2.015h.803v2.015h.802v2.015h-.802v1.608zM85.49 24.68v-1.608h2.407v.804h-.802v.804zm2.407-1.608v-1.608h.802v1.608zm2.407-5.23v-2.015h.802v2.015zm1.604-4.03v-2.015H90.71v-.804h3.21v.804h-1.21v2.015zm-.792 2.015v-2.015h.803v2.015zm3.615 4.019v-.804h.803v-6.441h-.803v-.804h.803v-.804h.802v-.804h.802v1.608h.802v.804h-.802v6.441h.802v.804zm6.023 0v-.804h.802v-6.441h-.802v-.804H97.94v-.804h3.616v.804h.802v.804h.802v6.441h.803v.804h-3.22zm-65.736-8.884H31.07v-3.33h-3.94V3.904h-3.626V0H11.471v3.884H7.554V7.61H3.615v3.34H0v11.526h3.636v3.654h3.939v3.727h3.907v3.529h12.044v-3.498h3.584v-3.727h3.939v-3.675h3.98V10.962zm-8.71 14.407H22.37v3.393H12.336V25.39H8.398v-3.727h-3.49v-9.521h3.458V8.415h3.939V4.688H22.38v3.706h3.938v3.727h3.824v9.531h-3.824v3.727z"/></g><defs><clipPath id="a"><path fill="#000" d="M0 0h104v33.7H0z"/></clipPath></defs></svg>