<svg xmlns="http://www.w3.org/2000/svg" fill="none" viewBox="0 0 143 26"><path fill="#000" d="M54.405 4.94 56.692 0 35.608 8.907c-.896.378-1.68.98-2.279 1.748l-4.984 6.4-4.984-6.4a5.7 5.7 0 0 0-2.279-1.748L-.001 0l2.287 4.94 17.084 7.218v1.85L3.35 7.24l2.286 4.94 13.734 5.802v1.85L6.7 14.478l2.288 4.94 10.382 4.387 4.02 1.698v-8.17l4.955 6.362 4.956-6.362v8.171l4.02-1.698 10.382-4.386 2.288-4.941-12.67 5.352v-1.85l13.734-5.801 2.287-4.94-16.021 6.766v-1.85zm81.337 11.612h1.484c0 .825.627 1.32 1.65 1.32 1.089 0 1.716-.445 1.716-1.188 0-.544-.264-.874-1.105-1.089l-1.419-.33c-1.435-.346-2.112-1.056-2.112-2.243 0-1.485 1.254-2.425 3.036-2.425 1.765 0 2.92.99 2.953 2.524h-1.485c-.033-.809-.577-1.32-1.518-1.32-.973 0-1.518.429-1.518 1.171 0 .545.396.908 1.188 1.106l1.419.346c1.369.33 2.046.957 2.046 2.161 0 1.534-1.32 2.508-3.234 2.508-1.897 0-3.101-1.007-3.101-2.54m-2.963-5.725h1.534v8.067h-1.386l-.165-1.221c-.462.841-1.534 1.419-2.722 1.419-1.881 0-2.936-1.27-2.936-3.25v-5.015h1.55v4.503c0 1.733.743 2.392 1.931 2.392 1.418 0 2.194-.907 2.194-2.64zm-11.037 8.265c-2.376 0-4.009-1.716-4.009-4.224 0-2.524 1.6-4.272 3.943-4.272 2.293 0 3.794 1.583 3.794 3.975v.578l-6.236.016c.115 1.7 1.006 2.64 2.541 2.64 1.204 0 1.996-.495 2.26-1.419h1.452c-.396 1.732-1.749 2.706-3.745 2.706m-.066-7.193c-1.353 0-2.211.808-2.409 2.227h4.652c0-1.336-.874-2.227-2.243-2.227m-11.355 6.978h-1.55V6.753h1.55v5.312c.512-.875 1.485-1.468 2.739-1.468 2.062 0 3.052 1.303 3.052 3.365v4.933h-1.551v-4.587c0-1.633-.775-2.293-1.93-2.293-1.501 0-2.31 1.09-2.31 2.475zm-11.442 3.63v-11.68h1.402l.116 1.451c.544-1.105 1.633-1.682 2.92-1.682 2.309 0 3.745 1.732 3.745 4.206 0 2.459-1.353 4.306-3.745 4.306-1.287 0-2.359-.544-2.887-1.534v4.933zm1.567-7.639c0 1.65.957 2.838 2.541 2.838s2.524-1.188 2.524-2.838c0-1.666-.94-2.854-2.524-2.854s-2.541 1.172-2.541 2.854m-3.02-4.107v1.418h-.693c-1.468 0-2.376.891-2.376 2.442v4.273h-1.55v-8.051h1.451l.1 1.22c.33-.84 1.138-1.402 2.243-1.402.28 0 .511.033.825.1M82.69 14.853c0-2.491 1.782-4.24 4.208-4.24 2.408 0 4.19 1.749 4.19 4.24s-1.782 4.24-4.19 4.24c-2.425 0-4.207-1.749-4.207-4.24m1.568 0c0 1.683 1.072 2.854 2.64 2.854 1.55 0 2.64-1.171 2.64-2.854s-1.09-2.854-2.64-2.854c-1.568 0-2.64 1.171-2.64 2.854m-13.385 4.042H69.29V6.967h1.584l4.108 10.03 4.108-10.03h1.616v11.928h-1.583v-4.719c0-2.227.016-3.035.099-3.876l-3.481 8.595h-1.518l-3.465-8.562c.083.577.116 1.798.116 3.464z"/></svg>