<svg xmlns="http://www.w3.org/2000/svg" fill="none" viewBox="0 0 119 26"><path fill="#000" d="M40.76 14.523V6.68h2.5v12.683h-1.73l-6.555-7.774v7.774h-2.5V6.68h1.61zm4.368.155q0-2.077 1.403-3.484 1.421-1.442 3.595-1.442t3.595 1.442q1.403 1.408 1.403 3.483 0 2.094-1.403 3.501-1.422 1.425-3.595 1.425-2.175 0-3.595-1.425-1.403-1.407-1.403-3.5m3.15 1.904q.735.773 1.848.773 1.079 0 1.832-.773a2.7 2.7 0 0 0 .753-1.905 2.64 2.64 0 0 0-.753-1.887 2.46 2.46 0 0 0-1.832-.772q-1.113 0-1.849.772-.735.754-.736 1.888 0 1.115.736 1.904m15.513-5.491V6.32h2.413v13.042h-2.362v-1.15q-1.13 1.373-2.892 1.373-2.004 0-3.304-1.39-1.319-1.425-1.318-3.519 0-2.075 1.318-3.5Q58.98 9.77 60.95 9.769q1.677 0 2.841 1.322m.12 3.587q0-1.133-.72-1.905-.718-.79-1.865-.79-1.146 0-1.883.79-.719.773-.719 1.905 0 1.149.719 1.939.736.772 1.883.772 1.146 0 1.866-.772.72-.79.719-1.94m13.536-.206q0 .428-.085 1.064H70.36q.514 1.99 2.722 1.99 1.626 0 3.013-.944l.958 1.7q-1.78 1.286-4.074 1.286-2.447 0-3.766-1.424-1.3-1.407-1.3-3.466 0-2.145 1.352-3.519 1.352-1.39 3.509-1.39 2.037 0 3.355 1.27t1.318 3.433m-4.673-2.695q-.907 0-1.558.532-.633.515-.856 1.425h4.742q-.171-.91-.788-1.425-.615-.531-1.54-.532m10.188 7.791a6.2 6.2 0 0 1-2.755-.617 5.14 5.14 0 0 1-2.037-1.75l1.455-1.768q1.267 1.767 3.354 1.767.788 0 1.301-.377.514-.378.514-.979 0-.789-1.147-1.32a29 29 0 0 0-1.25-.499 12.5 12.5 0 0 1-1.489-.686q-2.002-1.15-2.002-3.158 0-1.596 1.198-2.643 1.215-1.064 3.115-1.064 2.465 0 4.16 1.717l-1.353 1.853a3.5 3.5 0 0 0-1.283-.858 3.7 3.7 0 0 0-1.49-.326q-.753 0-1.198.343-.428.327-.428.875 0 .738 1.027 1.253l1.25.55q1.061.446 1.54.668 2.157 1.047 2.157 3.158 0 1.7-1.284 2.78-1.283 1.081-3.355 1.081m8.739-.206h-2.414V6.32h2.345v4.908q.377-.653 1.181-1.064a3.8 3.8 0 0 1 1.763-.412q1.507 0 2.568 1.013t1.061 2.883v5.715h-2.413V14.3q0-1.098-.53-1.699-.515-.618-1.421-.618-.96 0-1.558.67-.582.651-.582 1.698zM103.009 7.47q0 .635-.428 1.064a1.44 1.44 0 0 1-1.062.429q-.633 0-1.061-.43a1.45 1.45 0 0 1-.428-1.063q0-.635.428-1.047a1.44 1.44 0 0 1 1.061-.429q.634 0 1.062.429.428.413.428 1.047m-.291 2.54v9.353h-2.414V10.01zm7.113-1.957q-.838 0-1.284.43-.445.411-.445 1.2v.327h2.893v2.025h-2.893v7.328h-2.414v-7.328h-1.437V10.01h1.437v-.378q0-1.82 1.045-2.763 1.06-.96 2.738-.96 1.387 0 2.654.686l-.788 1.853q-.89-.395-1.506-.395m8.45 8.855.719 1.905q-1.164.773-2.756.773-1.61 0-2.431-.927-.822-.944-.822-2.763v-3.861h-1.523V10.01h1.541V6.698h2.396v3.312h3.082v2.025h-3.082v3.707q0 1.647 1.318 1.647.72 0 1.558-.48"/><path fill="#000" fill-rule="evenodd" d="M12.715 0c7.017 0 12.702 5.81 12.702 12.984 0 7.173-5.685 12.984-12.702 12.984H6.416c6.994-.037 12.656-5.835 12.656-12.984 0-3.58-2.843-6.498-6.357-6.498-2.772 0-5.12 1.808-5.992 4.34-.448 1.29-1.651 2.158-2.996 2.158a3.16 3.16 0 0 1-2.595-1.374 3.31 3.31 0 0 1-.389-2.966C2.49 3.604 7.195 0 12.715 0" clip-rule="evenodd"/><path fill="#000" fill-rule="evenodd" d="M6.416 25.98c6.994-.024 12.656-5.835 12.656-12.984h-3.173c-1.746 0-3.184 1.459-3.184 3.255 0 5.377-4.27 9.74-9.53 9.74h3.231z" clip-rule="evenodd"/><path fill="#000" fill-rule="evenodd" d="M3.185 25.98c5.26 0 9.53-4.365 9.53-9.742H9.541c-1.746 0-3.185 1.46-3.185 3.255 0 3.58-2.842 6.498-6.357 6.498h3.185z" clip-rule="evenodd"/><path fill="#000" fill-rule="evenodd" d="M.012 25.98c3.503 0 6.357-2.905 6.357-6.498H3.196c-1.745 0-3.184 1.46-3.184 3.256z" clip-rule="evenodd"/></svg>