<svg xmlns="http://www.w3.org/2000/svg" fill="none" viewBox="0 0 36 38"><g fill="#000" clip-path="url(#a)" mask="url(#mask0_38_1049)"><path d="M9.567 1.329c.137-.405.813-.565.517-1.235C9.399.075 7.085.072 6.362.07c-.052.082-.058.628-.023.725.035.102.68.304.759.91.146 1.112.025 2.436-.026 3.707.024 3.781.074 7.571.023 11.352-.004.224.09.413-.209.348-.145-1.568-.451-3.156-.58-4.731q-.136-.851-.286-1.702c-.092-.209-.192-.427-.038-.66-.218-.48-.188-.87-.212-1.353-.238-1.589-.396-3.244-.757-4.807-.162-1.271-.124-2.6-.505-3.839L.196 0C.068.126.14.67.174.77c.29.217.757.327.902.698.095 4.313.01 8.642.038 12.967q-.003 7.544.003 15.096c-.226.715-.356.75-1.015 1-.06.087-.05.488-.1.63h4.242c-.018-.099.015-.464.008-.62a.4.4 0 0 0-.067-.078c-.223.027-.788-.36-.845-.518V11.828h.209c-.098.436.147.78.139 1.182-.047.353.073.629.205.943.187 1.343.254 2.681.56 3.995.163 1.36.537 2.933.626 4.312.346 1.412.583 3.055.626 4.52.275.192.171.628.215.933.237 1.152.358 2.285.55 3.449h2.85c.085-7.736-.077-17.321.07-24.967-.213-.927.01-1.966 0-2.921-.199-.623 0-1.343.176-1.945m1.326 5.961-.015-.086c.067 1.037.107 2.08.13 3.126a87 87 0 0 0-.114-3.04m7.677 17.612.02.315zm-7.59 2.558-.022-.473q.008.24.023.474m3.09 4.382.111.024q-.055-.014-.11-.024m18.031-12.829a5 5 0 0 0-.25-.598q.131.297.25.598"/><path d="M33.227 31.027c1.727-.564 2.203-2.562 2.386-4.14.896-6.954-.41-8.906-3.411-14.643-.008-.01-.062.011-.07 0-.096-.151-.198-.221-.209-.417l-.561-.796c-.031-.383-.408-.41-.412-.803-.724-.633-.39-3.456-.416-4.49.014-.907-.061-1.836-.002-2.743-.006-.606.492-1.674 1.175-.931.805.729.29 7.404.426 8.43 1.002-.623 1.987-1.292 2.994-1.909 0-1.604-.073-3.216-.28-4.794-.128-.79-.104-1.21-.498-1.99-.74-1.464-2.442-1.805-3.994-1.592-1.606.255-2.634 1.863-2.795 3.378.022.776.13 1.501.051 2.26.116.072.07.263.07.38.01.83-.038 1.655-.07 2.47.076.266.074.595.024.905.312 2.068 1.64 4.142 2.612 5.9 1.147 1.727 2.32 3.64 2.302 5.783.162 2.208.489 4.647-.145 6.781.07.42.023.47-.153.85-.166.264-.734.12-.95-.019a6 6 0 0 1-.335-.324c-.651-3.015-.195-6.883-.087-10l-3.274 1.644c-.099 1.82.027 3.672-.063 5.52.136.109-.028.296 0 .417.369 2.542.976 4.704 3.894 5.216.4-.076 1.6-.03 1.791-.343"/><path d="m32.003 28.996-.04.012.03-.003zm-4.183-8.933.196-.105-.222.111.027-.007m4.092-17.54.012.04c-.002-.017-.002-.02-.012-.04m-1.162 24.487a17 17 0 0 1-.097-1.165c.02.416.023.807.097 1.165M27.544.999a.8.8 0 0 0-.21.048q.113-.024.21-.048m-.241.067.03-.019zm-.491 22.046q.006-.835.006-1.67c0 .558-.008 1.114-.006 1.67m.042-21.528-.009.02zm-5.729 28.462q.133.277.301.525c-.06-.196-.223-.357-.3-.525"/><path d="M27.331 1.048c.728-.317.733-.092.696-.974h-3.408c.002 7.278.003 14.562 0 21.838-.007 1.568.012 3.122-.073 4.691-.037.695.057 1.855-.345 2.436-.57.875-.991-.137-.985-.7-.329-.157-.187-1.833-.226-2.288.116-8.655-.022-17.32.03-25.977h-3.965c-.263 1.213 1.069.52 1.3 1.516.28 8.648-.072 17.372.16 26.025l.055.033a1 1 0 0 0-.054.453c.252.405.228.884.37 1.335.12.39.492 1.07.746 1.393.224.285.622.375.83.68 1.041.243 1.196.462 2.227 0 .215.05.982-.791 1.139-.982 1.48-2.413.825-7.773.965-10.738-.072-5.638-.151-11.205-.048-16.83.04-.651-.161-1.591.586-1.912"/><path d="M24.556 26.004q-.025.684-.056 1.357c.032-.497.043-.943.055-1.357m-1.529-2.173-.006.825c.006-.278.006-.549.006-.825m.191 4.508q.015.08.031.153c-.008-.048-.003-.11-.03-.153m3.592-5.563c.022-2.616-.017-5.235-.054-7.855.018 2.618.044 5.238.054 7.855M10.988 27.72l.011.067-.017-.293zm.014-17.607c.09 5.768-.322 11.636-.02 17.381-.133-5.77.166-11.612.02-17.381m-.076-2.568a2 2 0 0 0-.033-.256q.076 1.408.111 2.823a84 84 0 0 0-.078-2.567m-3.832 1.5v7.512c.055-2.498.004-5.013 0-7.512m17.527-2.434v10.363c.006-3.452-.002-6.907 0-10.363m7.928 14.675c.03.236.051.538.072.849.004-.29.04-.594-.072-.85"/><path d="M32.627 22.355q.067.743.102 1.505c-.011-.602-.076-1.105-.108-1.726q-.002.112.007.22zm-8.006-4.021v-1.29zm-.001 0v3.578c.007-1.192.002-2.385 0-3.578M1.113 15.305a3.7 3.7 0 0 0 0 1.6zm5.982-7.929a3.7 3.7 0 0 0 0 1.6zm-.979 3.586a1 1 0 0 0-.038-.139q.049.302.105.612zm-2.42 2.519-.009-.124a.4.4 0 0 0 .009.124m23.846 9.265c-.04.942-.175 1.997 0 2.921.074-.966.017-1.953 0-2.92m2.99-18.64c-.014-.285.202-.782 0-1.043a4.3 4.3 0 0 0 0 1.043M9.39 6.545v-.212c-.002.061 0 .14 0 .212m18.152 19.191c0 .035-.137.263 0 .348.008-.083.118-.27 0-.348m4.381-13.839c.077.18.102.2.208.347-.018-.14-.07-.287-.208-.347M20.519 27.614v.209l.054-.175zM5.705 26.71v-.139c0 .009-.01.041 0 .14m12.865-1.878c-.046-5.211.033-10.54-.063-15.83-.046-2.536.233-5.657-1.309-7.825-1.397-1.7-4.581-1.537-5.435.624-.757 1.615-.842 3.563-.88 5.333.396 6.757-.066 13.589.1 20.353.162 1.549.655 3.18 2.103 3.976.25.136 1.422.508 1.613.462.05-.012.04-.127.094-.138.143-.032.32.029.471-.004 3.203-.66 3.34-4.284 3.307-6.952zM15.443 26.4c-.23.633-.04 1.63-.49 2.148-.108.162-.215.246-.333.236l-.05.02c-.017 0-.06-.034-.112-.085a1.2 1.2 0 0 1-.28-.322.4.4 0 0 1-.044-.067c-.053-.158-.01-.375-.151-.545-.083-3-.141-6.02-.168-9.045-.071-3.93-.1-7.886.066-11.714q.04-1.858.1-3.705c.258-.136.076-.213.172-.462v-.002l.023-.03q.15-.198.277-.284a.4.4 0 0 1 .044-.039c.23-.127.416.063.536.311q.054.104.11.234c.018.047.02.099.018.152.014.073.022.14.022.193.009.019.104.017.116.066q.012.952.029 1.909c.166 2.803.185 5.666.16 8.546.048 3.336.05 6.675-.087 9.987q.008 1.255.04 2.498zM2.977 35.93v.53h.152q.151 0 .216.058.066.06.065.153a.2.2 0 0 1-.065.15q-.064.06-.216.06H2.49q-.153 0-.217-.06a.2.2 0 0 1-.065-.152.19.19 0 0 1 .066-.15q.066-.06.216-.06h.065v-1.645H2.49q-.153 0-.217-.058a.2.2 0 0 1-.065-.153q0-.094.065-.153.064-.06.217-.059l.951.002q.446 0 .69.22a.7.7 0 0 1 .246.538q0 .196-.115.357a1 1 0 0 1-.347.286q.133.118.285.3.095.117.254.365.16 0 .212.032a.2.2 0 0 1 .092.179.2.2 0 0 1-.064.15q-.064.06-.215.059h-.24q-.51-.79-.848-.95h-.416zm0-.42h.328q.183 0 .326-.056a.6.6 0 0 0 .26-.156.26.26 0 0 0 .066-.162q0-.119-.128-.22-.126-.102-.371-.102h-.483v.696zm3.95.332v.617H8v-.228q0-.152.059-.216a.2.2 0 0 1 .153-.065q.093 0 .15.065.06.064.06.216v.649h-1.98q-.153 0-.217-.059a.2.2 0 0 1-.065-.153.19.19 0 0 1 .066-.15q.066-.06.215-.06h.066v-1.644h-.066q-.152 0-.216-.059a.2.2 0 0 1-.065-.153q0-.095.065-.153.064-.058.216-.058l1.887.002v.64q0 .15-.057.215a.2.2 0 0 1-.152.064.2.2 0 0 1-.153-.064q-.058-.063-.058-.215v-.22h-.981v.608h.37q0-.165.03-.212a.2.2 0 0 1 .18-.1q.091 0 .15.064.06.064.06.217v.483q0 .139-.033.185a.2.2 0 0 1-.177.097.2.2 0 0 1-.18-.101q-.03-.047-.03-.214h-.37zm3.77.931a.4.4 0 0 1-.09.084.2.2 0 0 1-.083.018.2.2 0 0 1-.155-.064q-.058-.064-.058-.215v-.283q0-.151.058-.216a.2.2 0 0 1 .155-.065q.074 0 .124.04.051.038.077.13a.4.4 0 0 0 .055.123q.06.064.212.13a.8.8 0 0 0 .332.066.76.76 0 0 0 .462-.132q.115-.08.115-.197 0-.078-.055-.146a.4.4 0 0 0-.18-.114 3 3 0 0 0-.368-.084 2 2 0 0 1-.52-.153.7.7 0 0 1-.383-.61.69.69 0 0 1 .253-.528q.251-.226.656-.227a1.2 1.2 0 0 1 .3.037.8.8 0 0 1 .252.109q.082-.08.164-.08.093 0 .151.065.06.064.059.214v.316q0 .152-.059.217a.2.2 0 0 1-.15.064.2.2 0 0 1-.136-.047q-.046-.035-.067-.14a.4.4 0 0 0-.058-.15.45.45 0 0 0-.178-.13.7.7 0 0 0-.275-.054.56.56 0 0 0-.36.105q-.132.106-.132.22 0 .08.054.151.055.074.159.114.069.029.393.092.322.065.496.14.173.076.288.238a.65.65 0 0 1 .115.386.62.62 0 0 1-.22.498q-.29.246-.742.246a1.4 1.4 0 0 1-.66-.168zm4.132-.931v.617H15.9v-.228q0-.152.06-.216a.2.2 0 0 1 .152-.065q.094 0 .15.065.06.064.06.216v.649h-1.98q-.153 0-.217-.059a.2.2 0 0 1-.064-.153.19.19 0 0 1 .065-.15q.066-.06.215-.06h.066v-1.644h-.066q-.15 0-.216-.059a.2.2 0 0 1-.064-.153q0-.095.064-.153.065-.058.216-.058l1.888.002v.64q0 .15-.058.215a.2.2 0 0 1-.152.064.2.2 0 0 1-.152-.064q-.06-.063-.06-.215v-.22h-.98v.608h.37q0-.165.03-.212a.2.2 0 0 1 .18-.1q.093 0 .15.064.06.064.06.217v.483q0 .139-.033.185a.2.2 0 0 1-.177.097.2.2 0 0 1-.18-.101q-.03-.047-.03-.214h-.37zm4.896.361h-1.022l-.103.257h.103q.153 0 .217.059t.064.152a.2.2 0 0 1-.064.15q-.064.06-.217.06h-.566q-.152 0-.217-.06a.2.2 0 0 1-.064-.152q0-.095.067-.153.068-.06.224-.055l.66-1.646h-.274q-.151 0-.216-.058a.2.2 0 0 1-.065-.153q0-.094.065-.153.064-.06.216-.059l.91.002.836 2.067q.149 0 .195.032a.21.21 0 0 1 .094.178q.001.093-.064.15-.064.06-.215.06h-.566q-.152 0-.217-.06a.2.2 0 0 1-.064-.152q0-.093.064-.15.064-.06.217-.06h.103zm-.175-.42-.338-.834-.34.834zm3.178.147v.53h.152q.151 0 .216.058.066.06.065.153a.2.2 0 0 1-.065.15q-.064.06-.216.06h-.638q-.153 0-.217-.06a.2.2 0 0 1-.064-.152.19.19 0 0 1 .066-.15q.065-.06.215-.06h.066v-1.645h-.066q-.153 0-.217-.058a.2.2 0 0 1-.064-.153q0-.094.064-.153.064-.06.217-.059l.951.002q.446 0 .691.22a.7.7 0 0 1 .245.538.6.6 0 0 1-.115.357 1 1 0 0 1-.347.286q.133.118.285.3.095.117.254.365.16 0 .212.032a.2.2 0 0 1 .092.179.2.2 0 0 1-.064.15q-.064.06-.215.059h-.24q-.51-.79-.847-.95h-.417zm0-.42h.328q.183 0 .326-.056a.6.6 0 0 0 .26-.156.26.26 0 0 0 .066-.162q0-.119-.128-.22-.126-.102-.371-.102h-.483v.696zm5.042-1.01a.3.3 0 0 1 .085-.08.2.2 0 0 1 .1-.026q.091 0 .15.063.06.065.059.215v.358q0 .151-.059.216a.2.2 0 0 1-.15.065.2.2 0 0 1-.136-.047q-.051-.047-.076-.177a.26.26 0 0 0-.057-.133.6.6 0 0 0-.235-.148.9.9 0 0 0-.303-.055.75.75 0 0 0-.347.082.76.76 0 0 0-.279.266.8.8 0 0 0-.12.44v.272q-.001.304.22.507.219.204.612.203.233 0 .396-.063a.6.6 0 0 0 .201-.146.5.5 0 0 1 .103-.085.2.2 0 0 1 .084-.02q.084 0 .148.064a.2.2 0 0 1 .064.15q0 .087-.087.185a.86.86 0 0 1-.322.226q-.266.11-.585.11-.373 0-.672-.153a1.06 1.06 0 0 1-.413-.389 1.05 1.05 0 0 1-.17-.58v-.285q0-.328.153-.612t.424-.438q.27-.154.574-.154.183 0 .342.042t.296.129zm3.752 1.35h-.898v.61h.065q.153 0 .217.058.066.06.065.153a.2.2 0 0 1-.065.15q-.064.06-.217.06h-.515q-.151 0-.216-.06a.2.2 0 0 1-.065-.152q0-.115.1-.178.051-.033.21-.03v-1.646a.26.26 0 0 1-.167-.067.2.2 0 0 1-.057-.144q0-.094.065-.152.064-.06.216-.06l.43.003q.15 0 .216.057.066.059.065.152a.2.2 0 0 1-.065.153q-.064.06-.217.059h-.066v.616h.899v-.616h-.066q-.152 0-.217-.059a.2.2 0 0 1-.064-.153q0-.094.064-.152.064-.06.217-.06l.429.003q.151 0 .216.057.065.059.065.152a.2.2 0 0 1-.057.144.26.26 0 0 1-.167.067v1.645q.161 0 .21.03.1.066.1.181a.2.2 0 0 1-.065.15q-.064.06-.216.06h-.515q-.152 0-.217-.06a.2.2 0 0 1-.064-.152.19.19 0 0 1 .066-.15q.066-.06.215-.06h.066z"/></g><defs><clipPath id="a"><path fill="#000" d="M0 0h35.945v37.014H0z"/></clipPath></defs></svg>