<svg xmlns="http://www.w3.org/2000/svg" fill="none" viewBox="0 0 106 37"><g fill="#000" clip-path="url(#a)"><path d="M17.247 2.285c8.693 0 15.755 7.038 15.755 15.755a15.735 15.735 0 0 1-15.756 15.754c-8.716 0-15.754-7.085-15.754-15.778S8.53 2.285 17.247 2.285m0-1.492a17 17 0 0 0-6.713 1.375 17.5 17.5 0 0 0-5.477 3.706A17.16 17.16 0 0 0 0 18.063c0 2.307.466 4.591 1.352 6.712a18.2 18.2 0 0 0 3.705 5.477 17.43 17.43 0 0 0 12.19 5.057 17 17 0 0 0 6.712-1.375 17.5 17.5 0 0 0 5.477-3.705 17.24 17.24 0 0 0 5.057-12.19c0-2.307-.466-4.59-1.352-6.712a17.5 17.5 0 0 0-3.705-5.477 16.9 16.9 0 0 0-5.477-3.705A17.4 17.4 0 0 0 17.247.793"/><path d="M17.247 4.172c-7.645 0-13.844 6.2-13.844 13.844s6.2 13.843 13.844 13.843S31.09 25.66 31.09 18.016c.024-7.645-6.176-13.844-13.843-13.844M13.26 16.36l-2.12 2.12h2.12v2.308a2.964 2.964 0 0 1-2.96 2.96 2.964 2.964 0 0 1-2.96-2.96v-5.5a2.964 2.964 0 0 1 2.96-2.96 2.964 2.964 0 0 1 2.96 2.96zm13.937 2.12v2.308a2.964 2.964 0 0 1-2.96 2.96 2.964 2.964 0 0 1-2.96-2.96v-5.5a2.964 2.964 0 0 1 2.96-2.96 2.964 2.964 0 0 1 2.96 2.96v1.118l-2.12 2.121h2.12z"/></g><path fill="#000" d="M101.524 22.318q-1.289 0-2.221-.552a3.74 3.74 0 0 1-1.432-1.562q-.5-1.011-.5-2.37 0-1.34.5-2.363a3.9 3.9 0 0 1 1.41-1.597q.907-.574 2.124-.574.739 0 1.432.245.693.244 1.244.767.551.522.87 1.358.318.83.318 2.017v.602h-6.938v-1.273h5.273q0-.67-.273-1.187a2.06 2.06 0 0 0-.767-.824q-.488-.3-1.148-.301-.716 0-1.25.352a2.37 2.37 0 0 0-.818.91q-.285.556-.284 1.21v.994q0 .875.307 1.488.312.615.869.938.558.318 1.301.318.483 0 .881-.136.397-.142.688-.42.29-.279.443-.688l1.608.29q-.194.71-.693 1.244-.495.528-1.245.824-.744.29-1.699.29m-9.977 3.278q-1.04 0-1.79-.273-.744-.273-1.216-.721a3 3 0 0 1-.704-.983l1.46-.603q.153.25.41.529.26.284.704.483.448.199 1.153.199.966 0 1.597-.472.63-.465.63-1.489v-1.715h-.108q-.153.278-.443.619-.284.34-.784.59t-1.3.25q-1.035 0-1.865-.482-.823-.489-1.306-1.438-.478-.954-.478-2.346t.472-2.387q.477-.993 1.307-1.522a3.4 3.4 0 0 1 1.88-.535q.813 0 1.313.273.5.268.778.625.285.36.438.63h.125v-1.414h1.665v8.92q0 1.125-.523 1.847-.523.721-1.415 1.068-.885.347-2 .347m-.017-4.994q.734 0 1.239-.341.51-.346.772-.989.267-.648.267-1.551 0-.88-.26-1.551-.262-.67-.768-1.046-.506-.38-1.25-.38-.766 0-1.278.397-.512.393-.773 1.069-.255.675-.256 1.511 0 .858.262 1.506.26.647.772 1.011.518.363 1.273.364m-10.212 1.733a3.6 3.6 0 0 1-1.5-.307 2.53 2.53 0 0 1-1.062-.904q-.386-.59-.386-1.448 0-.74.284-1.216.284-.478.767-.756a4 4 0 0 1 1.08-.42 11 11 0 0 1 1.215-.216l1.273-.148q.488-.063.71-.199t.222-.443v-.04q0-.744-.42-1.153-.415-.41-1.24-.41-.857 0-1.352.381-.488.375-.676.835l-1.596-.363q.284-.796.83-1.284.55-.495 1.266-.716.716-.228 1.506-.228.523 0 1.108.125.59.12 1.102.444.517.323.847.926.33.597.33 1.551v5.795h-1.66v-1.193h-.068q-.165.33-.494.648-.33.318-.847.528t-1.239.21m.37-1.364q.704 0 1.204-.278a1.95 1.95 0 0 0 .767-.728q.267-.455.267-.971v-1.125q-.09.09-.352.17-.255.075-.585.13-.33.052-.642.097l-.523.069q-.494.061-.903.21a1.55 1.55 0 0 0-.648.426q-.24.273-.239.727 0 .63.466.955.466.318 1.188.318m-4.948-5.425-1.54.273a1.8 1.8 0 0 0-.306-.563 1.5 1.5 0 0 0-.557-.437q-.353-.17-.88-.17-.722 0-1.205.323-.483.318-.483.824 0 .438.324.704.323.267 1.045.438l1.386.318q1.205.279 1.796.858.59.579.59 1.506.001.783-.454 1.397-.449.609-1.255.955-.802.347-1.858.347-1.467 0-2.392-.625-.927-.631-1.137-1.79l1.642-.25q.154.642.63.971.48.324 1.245.324.835 0 1.335-.346.5-.352.5-.858a.9.9 0 0 0-.306-.688q-.302-.278-.927-.42l-1.477-.324q-1.22-.279-1.807-.887-.58-.607-.58-1.54 0-.771.433-1.351.431-.58 1.193-.904.762-.33 1.744-.33 1.415 0 2.228.614.813.609 1.073 1.63m-8.578.001-1.54.273a1.8 1.8 0 0 0-.306-.563 1.5 1.5 0 0 0-.557-.437q-.353-.17-.88-.17-.723 0-1.205.323-.483.318-.483.824 0 .438.323.704.324.267 1.046.438l1.386.318q1.205.279 1.796.858.59.579.59 1.506.001.783-.454 1.397-.45.609-1.256.955-.8.347-1.858.347-1.465 0-2.392-.625-.926-.631-1.136-1.79l1.642-.25q.154.642.63.971.479.324 1.245.324.836 0 1.335-.346.5-.352.5-.858a.9.9 0 0 0-.306-.688q-.302-.278-.927-.42l-1.477-.324q-1.22-.279-1.807-.887-.58-.607-.58-1.54 0-.771.433-1.351.431-.58 1.193-.904.761-.33 1.744-.33 1.415 0 2.227.614.813.609 1.074 1.63m-13.109 6.791a3.6 3.6 0 0 1-1.5-.307 2.53 2.53 0 0 1-1.063-.904q-.386-.59-.386-1.448 0-.74.284-1.216.284-.478.767-.756a4 4 0 0 1 1.08-.42 11 11 0 0 1 1.215-.216l1.273-.148q.49-.063.71-.199.222-.136.222-.443v-.04q0-.744-.42-1.153-.415-.41-1.24-.41-.857 0-1.351.381-.489.375-.676.835l-1.597-.363q.284-.796.83-1.284.551-.495 1.267-.716.716-.228 1.505-.228.523 0 1.108.125.59.12 1.102.444.517.323.847.926.33.597.33 1.551v5.795H57.7v-1.193h-.068q-.164.33-.494.648t-.847.528-1.238.21m.37-1.364q.703 0 1.204-.278a1.95 1.95 0 0 0 .767-.728q.267-.455.267-.971v-1.125q-.09.09-.353.17a6 6 0 0 1-.585.13q-.33.052-.642.097l-.523.069q-.494.061-.903.21a1.55 1.55 0 0 0-.648.426q-.238.273-.238.727 0 .63.466.955.465.318 1.187.318m-12.929 1.172V10.505h4.148q1.357 0 2.25.494.892.494 1.335 1.353.444.852.443 1.92 0 1.074-.449 1.932-.443.852-1.34 1.352-.892.495-2.245.495h-2.852v-1.49h2.693q.858 0 1.392-.294.535-.302.784-.819a2.7 2.7 0 0 0 .25-1.176q0-.66-.25-1.17a1.8 1.8 0 0 0-.79-.801q-.534-.29-1.409-.29H44.25v10.13z"/><defs><clipPath id="a"><path fill="#000" d="M0 0h34.493v36.101H0z"/></clipPath></defs></svg>