<svg xmlns="http://www.w3.org/2000/svg" fill="none" viewBox="0 0 177 23"><path fill="#000" d="M38.832 17.712q-.435 0-.996.035-.562.037-.982.036 0-.181.023-.253t.126-.092q.51-.09.734-.218.226-.125.293-.452.067-.326.081-.976.09-2.477.09-4.954 0-1.031-.008-2.043a30 30 0 0 0-.081-2.008q-.031-.65-.112-.94a.56.56 0 0 0-.345-.39q-.263-.097-.847-.135 0-.345.149-.345.45 0 .974.036.525.036.93.035.15 0 .524-.028t.818-.045.773-.018q1.8 0 2.864.877 1.065.877 1.065 2.505 0 1.156-.502 2.034A3.45 3.45 0 0 1 43 11.728q-.9.48-2.084.479a2 2 0 0 1-.584-.073q-.226-.072-.226-.488.27.054.63.054 1.334 0 2.024-.895.69-.894.69-2.325c0-.953-.236-1.715-.705-2.251q-.705-.805-2.01-.805-.584 0-.87.099a.55.55 0 0 0-.366.39q-.083.29-.082.902l.03 4.178q0 1.211.007 2.277.009 1.068.052 2.477.015.706.112 1.04.098.334.404.443t.952.162q0 .217-.052.298-.052.082-.233.082-.42 0-.93-.036t-.929-.035z"/><path fill="#000" d="M47.049 17.712q-.675 0-1.222.035-.548.037-1.026.036 0-.18.022-.244.023-.063.127-.082.51-.09.734-.225.225-.137.292-.47.068-.333.082-.985.03-.65.052-1.51l.045-1.755a65 65 0 0 0 .022-1.618q0-1.175-.022-2.233a37 37 0 0 0-.082-1.872q-.03-.632-.112-.93a.56.56 0 0 0-.344-.4q-.262-.098-.863-.135 0-.345.15-.345.419.001.914.035.495.037.914.036.226 0 .622-.019l.81-.035q.414-.018.682-.019 0 .181-.03.254-.03.072-.15.09-.54.074-.81.2t-.36.453q-.09.326-.09.994v3.96q0 .614.008 1.51.008.895.03 1.808l.037 1.619q.014.578.134.877t.426.398.863.1q.81 0 1.333-.118.524-.118.87-.453.344-.334.585-1.004.24-.669.48-1.77.15 0 .21.035t.06.18q0 .074-.045.596a69 69 0 0 0-.178 2.82q-.015.254-.24.253-.392 0-.99-.01-.6-.007-1.296-.027-.697-.016-1.387-.028-.69-.01-1.26-.01zm9.881.181q-1.755 0-2.766-.95-1.012-.949-1.011-2.993l.014-6.926q-.014-.687-.082-1.013-.067-.325-.285-.462-.218-.136-.696-.244 0-.18.022-.244t.159-.063q.284 0 .743.028.457.027.907.028a39 39 0 0 0 1.514-.038q.374-.016.465-.018 0 .162-.014.234-.016.073-.135.092-.824.108-1.043.497-.217.389-.247 1.022-.014.887-.023 1.673-.007.787-.007 1.59 0 .805.022 1.745.023.942.038 2.151.03 1.61.748 2.242.72.634 1.995.634c.85 0 1.588-.244 2.099-.732q.765-.732.765-2.324V6.733q0-.74-.352-1.039t-1.177-.37q0-.2.023-.272.021-.073.156-.073.39.001.825.035.435.037.87.036a21 21 0 0 0 1.14-.037q.285-.019.419-.019a.8.8 0 0 1-.023.225q-.023.065-.173.099-.6.125-.825.38-.225.254-.225 1.03v6.926q0 1.211-.375 2.17a3.1 3.1 0 0 1-1.222 1.51q-.845.552-2.242.551z"/><path fill="#000" d="M63.855 17.729q-.434 0-1.004.028-.57.027-1.004.028 0-.181.023-.253t.126-.092q.51-.09.734-.19.225-.098.292-.389.068-.287.082-.905.044-1.356.075-2.622.03-1.266.03-2.514 0-1.013-.015-2.025a34 34 0 0 0-.09-2.007q-.03-.633-.111-.922a.56.56 0 0 0-.345-.39q-.263-.098-.847-.154 0-.345.149-.345.45 0 .974.036t.914.035q.494 0 .93-.045.435-.044.973-.044 1.71-.001 2.684.823.975.823.974 2.251 0 1.104-.728 2.008-.727.905-1.972 1.23.719.124 1.095.642.374.515.704 1.346.615 1.5 1.011 2.341.397.84.682 1.293.36.542 1.08.542 0 .126-.022.234t-.174.108h-1.559a.8.8 0 0 1-.381-.082q-.157-.081-.345-.389a8 8 0 0 1-.473-.976q-.285-.669-.765-1.843a41 41 0 0 0-.667-1.59 5.6 5.6 0 0 0-.466-.869q-.202-.289-.426-.398a2 2 0 0 0-.57-.162q-.24-.036-.322-.127-.083-.09-.082-.361.09.019.24.035.15.018.285.019 1.154 0 1.8-.796.645-.795.644-2.134 0-1.23-.6-1.953t-1.784-.723q-.525 0-.78.099a.56.56 0 0 0-.338.398q-.083.3-.082.877v4.394q0 .705.008 1.574.007.869.03 1.71l.037 1.472q.03.615.136.922a.66.66 0 0 0 .404.425q.3.118.9.171.045.307-.226.307-.3 0-.855-.028-.555-.027-.989-.027z"/><path fill="#000" d="M77.229 17.766a.8.8 0 0 1 .03-.253q.03-.09.18-.108.54-.054.744-.2.201-.144.188-.452a4 4 0 0 0-.151-.814 68 68 0 0 0-.931-3.308q-.392-.016-.833-.027t-.892-.01q-.405 0-.803.01-.396.007-.743.028l-.03.072q-.494 1.627-.772 2.632-.278 1.003-.278 1.292 0 .453.285.615.285.163.75.199 0 .182-.03.263t-.18.082q-.225 0-.562-.028a12 12 0 0 0-.952-.028q-.465 0-.825.028-.36.027-.57.027 0-.217.03-.28.03-.065.18-.083.316-.072.54-.208t.412-.462.367-.94l2.835-9.15a9 9 0 0 0-.404-.796q-.135-.216-.135-.307 0-.09.174-.171.173-.082.503-.244.344-.18.487-.244a.6.6 0 0 1 .233-.064q.09 0 .151.082.06.081.12.336.224.776.554 1.843.33 1.068.704 2.297.375 1.23.773 2.477a672 672 0 0 0 1.403 4.358q.194.578.458.832.262.254.862.345 0 .18-.037.271-.038.091-.248.092-.165 0-.6-.019a24 24 0 0 0-.9-.018q-.539 0-1.139.018t-.944.019zm-3.013-5.768q.345.018.728.019h1.484q.353 0 .667-.019a151 151 0 0 0-1.47-4.592z"/><path fill="#000" d="M83.23 17.712q-.675 0-1.223.035a16 16 0 0 1-1.026.036q0-.18.023-.244.022-.063.126-.082.51-.09.734-.225.226-.137.292-.47.068-.333.082-.985.03-.65.052-1.51l.045-1.755q.023-.894.023-1.618 0-1.175-.023-2.233a37 37 0 0 0-.082-1.872q-.03-.632-.112-.93a.56.56 0 0 0-.344-.4q-.262-.098-.862-.135 0-.345.149-.345.419.001.914.035.495.037.914.036.226 0 .622-.019l.81-.035q.415-.018.682-.019 0 .181-.03.254-.03.072-.15.09-.54.074-.81.2t-.36.453q-.09.326-.09.994v3.96a162 162 0 0 0 .038 3.318q.023.913.037 1.619.014.578.134.877t.427.398.862.1q.81 0 1.334-.118.523-.118.87-.453.345-.334.584-1.004.24-.669.48-1.77.15 0 .21.035t.06.18q0 .074-.044.596a69 69 0 0 0-.179 2.82q-.015.254-.24.253-.39 0-.99-.01-.6-.007-1.295-.027-.698-.016-1.388-.028-.69-.01-1.259-.01zm5.515.073q0-.345.18-.361.465-.09.674-.21.21-.116.285-.398.075-.28.09-.858.045-1.156.06-1.98.013-.822.022-1.574a150 150 0 0 0-.008-3.75 49 49 0 0 0-.074-2.008q-.03-.58-.105-.84a.5.5 0 0 0-.33-.352q-.254-.09-.824-.127-.001-.198.052-.271.052-.073.203-.073.315.001.84.035.525.036.944.036.24 0 .63-.019L92.141 5q.367-.019.518-.019a1 1 0 0 1-.022.253q-.023.073-.127.092-.48.073-.711.17a.54.54 0 0 0-.308.38q-.075.28-.104.932-.015.58-.03 1.4l-.03 1.708q-.014.886-.014 1.663 0 1.085.015 2.243.014 1.156.06 2.277.03.58.118.842.09.263.345.335.255.074.78.127 0 .38-.21.38-.3-.001-.788-.035a12 12 0 0 0-.877-.036q-.42 0-.996.036-.579.035-1.012.035zm4.722.162q-.061 0-.097-.091-.038-.09-.037-.38-.015-.36-.06-.95-.046-.588-.097-1.203-.052-.614-.09-1.086a9 9 0 0 1-.037-.596q0-.271.315-.272.33 1.881 1.08 2.876t1.995.994q1.004 0 1.507-.696t.502-1.691q0-.87-.351-1.455a3.8 3.8 0 0 0-.907-1.022 13 13 0 0 0-1.177-.814q-.623-.38-1.178-.833a3.7 3.7 0 0 1-.906-1.076q-.352-.623-.352-1.565a3.6 3.6 0 0 1 .366-1.646 3.06 3.06 0 0 1 1.012-1.184 2.55 2.55 0 0 1 1.484-.444q.705 0 1.155.218t.719.218q.255 0 .389-.19.135-.19.27-.19.12 0 .119.162.075 1.52.15 2.35.076.834.075.976 0 .219-.27.218-.3-1.663-1.035-2.432t-1.618-.77q-.72 0-1.245.562-.525.56-.525 1.52 0 .795.36 1.336.36.543.921.96.563.415 1.2.804a10 10 0 0 1 1.2.859q.56.47.921 1.12.36.652.36 1.61-.001 1.085-.434 1.907-.435.825-1.17 1.292-.735.47-1.65.47-.646 0-1.222-.2-.578-.199-.877-.199a.5.5 0 0 0-.344.127q-.136.126-.226.262-.09.137-.195.136zm12.578-.218q-.435 0-1.004.028-.57.027-1.004.028 0-.181.023-.253t.126-.092q.51-.09.734-.19.226-.098.292-.389.068-.287.082-.905.044-1.356.075-2.622.03-1.266.03-2.514 0-1.013-.015-2.025a33 33 0 0 0-.09-2.007q-.03-.633-.111-.922a.56.56 0 0 0-.345-.39q-.263-.098-.847-.154 0-.345.149-.345.45 0 .974.036t.914.035q.494 0 .93-.045.435-.044.974-.044 1.708-.001 2.683.823.975.823.974 2.251 0 1.104-.728 2.008-.726.905-1.972 1.23.719.124 1.095.642.374.515.704 1.346.615 1.5 1.011 2.341.397.84.682 1.293.36.542 1.08.542 0 .126-.022.234t-.174.108h-1.558a.8.8 0 0 1-.382-.082q-.157-.081-.345-.389a8 8 0 0 1-.473-.976q-.285-.669-.765-1.843a41 41 0 0 0-.667-1.59 5.6 5.6 0 0 0-.466-.869q-.202-.289-.426-.398a2 2 0 0 0-.57-.162q-.24-.036-.322-.127-.083-.09-.082-.361.09.019.24.035.151.018.285.019 1.154 0 1.799-.796.645-.795.645-2.134 0-1.23-.6-1.953-.601-.724-1.784-.723-.524 0-.781.099a.56.56 0 0 0-.337.398q-.083.3-.082.877v4.394q0 .705.008 1.574.007.869.03 1.71.023.84.037 1.472.03.615.136.922a.67.67 0 0 0 .404.425q.299.118.899.171.046.307-.225.307-.298 0-.855-.028-.555-.027-.989-.027z"/><path fill="#000" d="M113.257 17.785q0-.145.03-.235t.134-.108q.495-.09.719-.225.226-.135.307-.453.082-.315.097-.966.09-2.477.089-4.954 0-2.079-.089-4.05-.03-.652-.112-.941a.56.56 0 0 0-.352-.39q-.27-.098-.869-.136 0-.198.037-.271t.158-.073q.48.001 1.019.035.539.036.944.036 1.274 0 2.362-.019 1.086-.018 1.806-.035.721-.019.855-.019.178 0 .195.218.015.489.06 1.112t.089 1.112q.045.489.045.596 0 .126-.059.152a.5.5 0 0 1-.196.028q-.24-.814-.466-1.337-.225-.524-.547-.814t-.84-.398q-.517-.109-1.358-.108-.628 0-.944.082-.315.08-.419.352-.105.27-.104.867v3.997l1.469-.127q.508-.035.766-.152.254-.118.374-.47.12-.351.21-1.111.21.001.27.035.06.036.06.235 0 .326-.015.804-.014.48-.015.985 0 .634.015 1.239t.015.896q-.195 0-.27-.045-.076-.046-.104-.244l-.211-.96q-.06-.343-.18-.424t-.555-.098l-1.829-.109a146 146 0 0 0 .074 4.757q.015.525.112.778.097.255.404.326.307.073.922.073 1.124 0 1.806-.235a1.9 1.9 0 0 0 1.058-.886q.375-.65.57-1.881.165 0 .218.028.052.027.052.136 0 .126-.044.605-.045.48-.09 1.13-.045.651-.059 1.34-.015.198-.105.262a.37.37 0 0 1-.225.063q-.735-.001-1.965-.035-1.228-.035-3.209-.035-.285 0-.674.018-.391.017-.773.036-.382.017-.667.018zm8.83.162q-.061 0-.097-.091-.038-.09-.037-.38-.015-.36-.06-.95-.046-.588-.097-1.203-.053-.614-.089-1.086a10 10 0 0 1-.038-.596q0-.271.315-.272.33 1.881 1.08 2.876t1.995.994q1.004 0 1.507-.696t.503-1.691q0-.87-.352-1.455a3.8 3.8 0 0 0-.907-1.022q-.555-.435-1.177-.814-.623-.38-1.177-.833a3.7 3.7 0 0 1-.907-1.076q-.352-.623-.352-1.565a3.6 3.6 0 0 1 .366-1.646 3.06 3.06 0 0 1 1.012-1.184q.644-.445 1.484-.444.704 0 1.155.218.45.218.719.218a.45.45 0 0 0 .389-.19q.134-.19.27-.19.12 0 .119.162.075 1.52.151 2.35.075.834.074.976 0 .219-.27.218-.3-1.663-1.035-2.432t-1.619-.77q-.719 0-1.244.562-.525.56-.525 1.52 0 .795.36 1.336.36.543.922.96.561.415 1.199.804.637.389 1.199.859t.922 1.12.36 1.61q-.001 1.085-.434 1.907-.436.825-1.17 1.292-.734.47-1.65.47-.645 0-1.222-.2-.578-.199-.877-.199a.48.48 0 0 0-.344.127q-.135.126-.226.262-.09.137-.195.136zm6.644-.162q0-.145.03-.235t.134-.108q.494-.09.718-.225.227-.135.308-.453.082-.315.097-.966.089-2.477.089-4.954 0-2.079-.089-4.05-.031-.652-.112-.941a.56.56 0 0 0-.352-.39q-.27-.098-.87-.136 0-.198.037-.271.038-.073.159-.073.48.001 1.018.035.54.036.945.036 1.274 0 2.361-.019 1.087-.018 1.807-.035.72-.019.854-.019.18 0 .196.218.014.489.06 1.112.044.623.089 1.112t.045.596q0 .126-.06.152A.5.5 0 0 1 136 8.2a12 12 0 0 0-.466-1.337q-.226-.524-.548-.814t-.84-.398q-.516-.109-1.357-.108-.629 0-.944.082-.317.08-.419.352-.106.27-.105.867v3.997l1.47-.127q.508-.035.765-.152.254-.118.374-.47.121-.351.211-1.111.21.001.27.035.06.036.06.235 0 .326-.015.804-.015.48-.015.985 0 .634.015 1.239t.015.896q-.196 0-.271-.045-.075-.046-.104-.244l-.21-.96q-.061-.343-.181-.424t-.555-.098l-1.829-.109q0 1.302.023 2.578.022 1.275.052 2.179.013.525.111.778.098.255.405.326.306.073.922.073 1.123 0 1.806-.235a1.92 1.92 0 0 0 1.058-.886q.374-.65.57-1.881.165 0 .218.028.052.027.052.136 0 .126-.045.605-.045.48-.089 1.13-.046.651-.06 1.34-.014.198-.104.262a.4.4 0 0 1-.226.063 77 77 0 0 1-1.964-.035q-1.23-.035-3.209-.035-.286 0-.674.018-.391.017-.773.036-.382.017-.667.018zm14.184-.019a1 1 0 0 1 .029-.253q.03-.09.181-.108.539-.054.743-.2.201-.144.188-.452a4 4 0 0 0-.151-.814 72 72 0 0 0-.931-3.308q-.391-.016-.832-.027-.443-.01-.892-.01-.407 0-.803.01-.397.007-.743.028l-.03.072q-.494 1.627-.773 2.632-.276 1.003-.277 1.292 0 .453.285.615.284.163.75.199a.8.8 0 0 1-.03.263q-.03.081-.18.082-.225 0-.563-.028a12 12 0 0 0-.951-.028q-.465 0-.826.028-.36.027-.569.027 0-.217.029-.28.03-.065.181-.083.315-.072.54-.208t.412-.462.367-.94l2.834-9.15a9 9 0 0 0-.404-.796q-.134-.216-.134-.307 0-.09.173-.171t.503-.244q.345-.18.488-.244a.6.6 0 0 1 .233-.064q.089 0 .151.082.06.081.119.336.224.776.555 1.843.329 1.068.704 2.297.373 1.23.773 2.477.396 1.248.758 2.369.36 1.12.644 1.989.195.578.458.832.262.254.862.345 0 .18-.037.271t-.248.092q-.164 0-.599-.019a24 24 0 0 0-.9-.018q-.539 0-1.14.018t-.944.019zm-3.016-5.768q.344.018.729.019h1.484q.352 0 .667-.019a163 163 0 0 0-1.47-4.592z"/><path fill="#000" d="M148.672 17.729q-.434 0-1.004.028-.57.027-1.003.028 0-.181.022-.253.023-.073.127-.092.508-.09.733-.19.226-.098.293-.389.066-.287.082-.905a314 314 0 0 0 .074-2.622q.03-1.266.03-2.514 0-1.013-.015-2.025a34 34 0 0 0-.089-2.007q-.031-.633-.112-.922a.56.56 0 0 0-.345-.39q-.263-.098-.847-.154 0-.345.149-.345.45 0 .974.036.525.036.914.035.494 0 .93-.045.434-.044.974-.044 1.709-.001 2.683.823.974.823.974 2.251 0 1.104-.728 2.008-.726.905-1.972 1.23.72.124 1.095.642.375.515.704 1.346.615 1.5 1.011 2.341.397.84.682 1.293.36.542 1.08.542 0 .126-.022.234-.023.109-.173.108h-1.559a.8.8 0 0 1-.382-.082q-.157-.081-.345-.389a8 8 0 0 1-.473-.976q-.285-.669-.765-1.843a41 41 0 0 0-.667-1.59 5.6 5.6 0 0 0-.465-.869q-.202-.289-.427-.398a2 2 0 0 0-.57-.162q-.24-.036-.322-.127-.083-.09-.082-.361.09.019.24.035.151.018.285.019 1.155 0 1.799-.796.646-.795.645-2.134 0-1.23-.6-1.953t-1.784-.723q-.524 0-.78.099a.55.55 0 0 0-.337.398q-.083.3-.082.877v4.394q-.001.705.007 1.574t.03 1.71q.023.84.037 1.472.03.615.136.922a.67.67 0 0 0 .404.425q.298.118.9.171.044.307-.226.307-.299 0-.854-.028a20 20 0 0 0-.989-.027z"/><path fill="#000" d="M160.712 17.928q-1.545 0-2.766-.778-1.221-.776-1.926-2.198-.704-1.418-.704-3.354 0-1.483.451-2.712.45-1.229 1.229-2.134a5.5 5.5 0 0 1 1.792-1.393 4.9 4.9 0 0 1 2.151-.488q.99 0 1.635.225.644.226 1.019.226.24 0 .359-.108.12-.109.196-.209.075-.098.149-.099.12 0 .136.181.014.58.059 1.22.045.642.09 1.23.044.586.082.984.036.399.037.47a.33.33 0 0 1-.045.19q-.045.063-.21.063-.36-1.427-.93-2.252-.57-.82-1.281-1.184a3.32 3.32 0 0 0-3.516.316q-.914.68-1.462 1.97-.548 1.293-.548 3.139 0 1.953.57 3.3.57 1.348 1.552 2.043a3.7 3.7 0 0 0 2.195.697q1.364 0 2.265-.976.9-.977 1.14-3.003.164 0 .225.045.06.045.06.172 0 .162-.023.57-.022.406-.067.912t-.096 1.02q-.055.517-.127.913-.3.254-.87.479a7.5 7.5 0 0 1-1.296.37 8 8 0 0 1-1.522.146zm4.602-.143q0-.345.18-.361.464-.09.674-.21.21-.116.285-.398.076-.28.09-.858.045-1.156.059-1.98.014-.822.023-1.574a168 168 0 0 0-.008-3.75 49 49 0 0 0-.074-2.008q-.031-.58-.105-.84a.5.5 0 0 0-.329-.352q-.255-.09-.825-.127 0-.198.052-.271t.203-.073q.315.001.84.035.525.036.944.036.24 0 .63-.019l.758-.035q.366-.019.517-.019a1 1 0 0 1-.022.253q-.023.073-.127.092-.48.073-.711.17a.54.54 0 0 0-.307.38q-.077.28-.105.932l-.037 1.808q-.023 1.084-.037 2.135.674.017 1.348.018h2.758q.721 0 1.47-.018 0-1.14-.015-2.097a49 49 0 0 0-.075-2.008q-.03-.58-.104-.84a.5.5 0 0 0-.33-.352q-.254-.09-.825-.127 0-.198.053-.271.052-.073.203-.073.315.001.839.035.526.036.945.036.239 0 .629-.019l.758-.035a14 14 0 0 1 .518-.019q0 .181-.022.253-.023.073-.127.092-.48.073-.712.17a.54.54 0 0 0-.307.38q-.075.28-.104.932-.015.58-.03 1.4l-.03 1.708q-.014.886-.015 1.663 0 1.085.015 2.243.015 1.156.06 2.277.03.58.119.842.09.263.345.335.254.074.78.127 0 .38-.21.38-.3-.001-.788-.035a12 12 0 0 0-.877-.036q-.42 0-.997.036a16 16 0 0 1-1.011.035q0-.345.181-.361.464-.09.674-.209.209-.116.285-.399.075-.28.089-.858l.052-1.78a86 86 0 0 0 .037-2.794q-.75-.016-1.491-.028-.744-.009-1.403-.01a109 109 0 0 0-2.683.038v.2q0 1.084.015 2.242.014 1.156.059 2.277.031.58.119.842.09.263.345.335.254.073.78.127 0 .38-.21.38-.299 0-.788-.036a12 12 0 0 0-.877-.035q-.42 0-.997.035a16 16 0 0 1-1.011.036zM3.592 22.616q-.772-.001-1.769.064t-1.743.065q0-.321.04-.45.04-.127.226-.16.905-.16 1.304-.385t.518-.803.146-1.732q.16-4.394.16-8.79 0-1.83-.013-3.624a53 53 0 0 0-.147-3.562q-.053-1.154-.2-1.668-.145-.513-.61-.69Q1.037.706 0 .641.001.03.266.03q.798 0 1.73.064.93.065 1.649.065.265 0 .931-.048A47 47 0 0 1 7.396 0q3.19.001 5.08 1.556 1.889 1.556 1.889 4.442 0 2.054-.891 3.609a6.1 6.1 0 0 1-2.487 2.406q-1.597.85-3.697.85-.639 0-1.038-.128-.399-.126-.399-.866.48.097 1.118.097 2.367 0 3.59-1.588 1.224-1.587 1.224-4.122c0-1.69-.417-3.042-1.25-3.993Q9.284.835 6.97.835q-1.038 0-1.543.176a.98.98 0 0 0-.653.69q-.146.514-.146 1.604l.053 7.41q0 2.15.013 4.042.014 1.893.094 4.395.026 1.25.2 1.844.172.594.718.786.545.192 1.69.29 0 .385-.094.528-.094.145-.412.145-.745 0-1.65-.065a23 23 0 0 0-1.648-.064m14.866.051q-.713 0-1.646.044a35 35 0 0 1-1.647.044q0-.295.037-.415.037-.118.21-.148.835-.149 1.203-.311.37-.163.479-.637.11-.474.135-1.482.074-2.222.123-4.297.05-2.074.05-4.119-.001-1.658-.025-3.32a55 55 0 0 0-.147-3.289q-.05-1.037-.184-1.511-.135-.474-.566-.637-.43-.162-1.388-.252 0-.563.246-.564.737 0 1.597.06t1.499.06q.81 0 1.524-.074.712-.075 1.597-.075 2.802 0 4.398 1.349 1.596 1.35 1.597 3.69 0 1.807-1.191 3.289t-3.232 2.015q1.179.209 1.794 1.052.613.845 1.155 2.208 1.006 2.46 1.658 3.837.65 1.379 1.119 2.12.589.889 1.77.889 0 .207-.038.385-.037.178-.282.178h-2.555q-.37 0-.626-.133-.258-.132-.566-.637-.307-.502-.774-1.6-.467-1.096-1.253-3.022a67 67 0 0 0-1.094-2.608q-.43-.948-.762-1.422-.331-.474-.7-.653a3.4 3.4 0 0 0-.933-.266q-.393-.059-.53-.208-.134-.148-.134-.592a5.3 5.3 0 0 0 .86.09q1.89 0 2.949-1.305 1.056-1.303 1.056-3.496 0-2.014-.982-3.201-.983-1.185-2.925-1.186-.86 0-1.278.163t-.553.652q-.135.488-.135 1.437v7.201q0 1.156.013 2.578.012 1.423.049 2.8.037 1.38.061 2.415.05 1.007.222 1.512.171.504.664.696.49.194 1.475.281.073.505-.37.504-.49 0-1.4-.044a33 33 0 0 0-1.622-.044z"/></svg>