<svg xmlns="http://www.w3.org/2000/svg" fill="none" viewBox="0 0 150 27"><g fill="#000" clip-path="url(#a)"><path d="M50.854 16.262v-3.92c0-.77.173-.976.94-1.15.656-.148.993-.517 1.055-1.158.057-.577.354-.842.957-.842q3.236-.002 6.468 0c.584 0 .898.292.92.831.027.687.43 1.101 1.16 1.195.714.093.88.306.866 1.13-.01.568-.27.822-.909.888-.586.06-1.093.484-1.109.926-.017.49.465.979 1.054 1.072.82.13.964.292.964 1.09v2.503c0 .591-.31.889-.922.894h-.264c-.563-.009-.862-.292-.864-.83-.004-1.283 0-1.111 0-2.393 0-.765-.453-1.246-1.248-1.251a373 373 0 0 0-5.713 0c-.812.005-1.28.486-1.283 1.262-.004 1.245-.006 1.037.001 2.285.002.381-.085.741-.48.86-.427.13-.927.212-1.292-.111-.18-.161-.28-.486-.285-.738-.027-1.33-.014-1.208-.014-2.54zm6.136-5.052c-.919 0-1.84-.003-2.758.004-.2 0-.407.018-.595.077-.746.233-.95 1.052-.415 1.598.295.301.675.352 1.073.352q2.7.002 5.403-.002c.186 0 .382-.014.56-.065.458-.13.785-.418.844-.88.051-.41-.187-.733-.556-.912a1.9 1.9 0 0 0-.759-.164c-.931-.019-1.863-.008-2.795-.008zm33.45 8.535h-3.214c-.628 0-.867-.206-.945-.796-.1-.758-.45-1.094-1.257-1.207-.483-.068-.75-.335-.752-.802-.005-2.117-.005-2.78 0-4.897 0-.478.251-.734.744-.803.822-.116 1.166-.453 1.269-1.244.068-.54.357-.787.93-.787q3.233-.003 6.468 0c.586 0 .907.292.928.825.028.694.422 1.123 1.15 1.194.37.037.7.136.805.488.12.406.18.851-.1 1.224-.354.47-.864.3-1.32.205-.373-.077-.546-.351-.575-.72-.059-.776-.51-1.19-1.318-1.191a745 745 0 0 0-5.711 0c-.717.004-1.235.438-1.208.985a1.02 1.02 0 0 0 1.02.975q2.038.027 4.077.014c.65-.005 1.054.298 1.069.862.023.859-.226 1.146-1.002 1.147q-2.006.002-4.01 0c-.728 0-1.148.397-1.156 1.098-.007.605-.004-.245 0 .36 0 .5.327.91.835 1.023.194.044.4.056.6.056q2.626.008 5.256 0c1.04 0 1.432-.34 1.554-1.322.053-.422.332-.676.776-.696.188-.007.378-.01.567.006a.9.9 0 0 1 .32.09c.355.185.493.68.372 1.28-.074.363-.34.599-.772.624-.49.03-.889.201-1.117.625-.082.151-.1.347-.108.522-.027.592-.297.857-.923.858-1.084.004-2.168 0-3.252 0zm-7.985-3.555v2.65c0 .635-.28.898-.943.903h-.152c-.715-.002-.959-.23-.96-.911-.003-2.143 0-2.83 0-4.972 0-.47.035-.948-.02-1.413-.036-.307-.13-.667-.336-.886-.537-.58-1.419-.353-1.668.39-.05.149-.029.324-.1.46-.12.237-.237.523-.446.666-.417.281-.601.615-.597 1.094.011 1.368.005 1.28.004 2.648 0 .661-.297.931-1.005.933-.743.002-1.048-.26-1.05-.926-.003-1.368-.009-1.28.004-2.648.004-.495-.186-.838-.62-1.12-.2-.13-.312-.407-.42-.637-.112-.237-.133-.517-.264-.741-.211-.364-.588-.51-1.003-.433-.412.078-.686.358-.785.752a2.8 2.8 0 0 0-.065.683c-.004 2.517-.005 3.58 0 6.097 0 .356-.011.763-.4.855-.402.096-.868.069-1.277-.024-.168-.038-.358-.396-.36-.61-.023-2.844-.019-4.234-.011-7.076 0-.433.308-.7.867-.812.824-.167 1.044-.382 1.198-1.173.109-.557.438-.753 1.229-.727.517.016.8.289.858.824.07.655.401 1.063.994 1.165.253.042.52.026.778.016.459-.014.924.006 1.371-.073.649-.113.927-.456 1.014-1.1.08-.578.337-.821.885-.832.806-.018 1.097.172 1.215.785.14.735.473 1.03 1.253 1.118.54.06.808.34.81.864.004 1.405 0 2.807 0 4.212zm-45.037.094v-3.992c0-.683.211-.928.902-1.069.673-.137 1.02-.504 1.101-1.163.076-.617.34-.848.987-.85h6.432c.584 0 .898.287.928.832.04.7.43 1.101 1.155 1.194.71.091.867.296.854 1.101-.012.618-.236.853-.87.917q-1.09.11-1.139 1.155c-.025.57-.321.843-.943.845-1.892.004-3.785.039-5.675-.01-1.273-.034-1.733-.833-1.69.155.047 1.123.01 2.25.01 3.375 0 .756-.224.968-1.015.97-.795 0-1.037-.22-1.037-.957zm6.132-5.051c-.907 0-1.816-.004-2.724.003-.2 0-.407.015-.597.07-.785.228-1.023 1.06-.431 1.594.203.183.526.336.798.34 1.967.029 3.933.02 5.9.01.18 0 .373-.067.542-.14.386-.166.637-.471.64-.871.005-.402-.254-.712-.636-.873a1.9 1.9 0 0 0-.696-.128c-.932-.015-1.866-.005-2.798-.005zm21.83 3.937v-5.006c0-.66.306-.953.986-.957.797-.003 1.11.256 1.11.948.005 3.374.005 5.293 0 8.668 0 .678-.3.926-1.081.924-.717-.001-1.012-.264-1.014-.915-.002-1.705 0-1.956 0-3.662zm33.105 4.589.16-.525q.849-.046 1.243-.277t.634-1.049l2.038-6.845q.112-.34.113-.586 0-.417-.29-.539-.289-.123-.932-.139l.16-.524h4.449l-.16.524q-.916.015-1.236.278-.322.263-.546 1.002l-2.086 7.016a1.5 1.5 0 0 0-.065.416q0 .357.304.532.306.177 1.06.193l-.16.524h-4.688zm11.655.137q-.433 0-.698-.239t-.265-.67q.001-.477.386-1.326l1.157-2.607q.288-.802.289-1.11 0-.478-.481-.479-.625.001-1.478 1.034a13.5 13.5 0 0 0-1.573 2.444q-.721 1.412-1.221 2.814h-1.236l1.67-5.32q.159-.51.159-.74t-.224-.231q-.417 0-1.109 1.201l-.513-.153q1.092-2.252 2.375-2.252.417 0 .651.215.233.217.232.618 0 .446-.257 1.086-.258.641-1.139 2.583h.224q1.236-2.452 2.151-3.477.916-1.025 1.894-1.025.643 0 .995.292.354.294.354.848 0 .646-.386 1.464l-1.221 2.808q-.274.586-.274.77 0 .247.241.247.418 0 1.14-1.218l.513.153q-1.076 2.266-2.36 2.267zm6.296-6.427-1.8 4.564a1.1 1.1 0 0 0-.097.416q0 .247.242.247.578 0 1.605-1.372l.499.139q-1.301 2.436-2.827 2.436-.385.001-.69-.232-.305-.23-.304-.677 0-.494.321-1.233l1.814-4.287h-1.525l.224-.74h1.558l.546-1.479 1.59-.124-.803 1.604h1.8l-.225.74h-1.926zm7.547.045q0 1.079-1.373 1.936-1.371.855-3.492.87-.111.54-.112.927 0 1.45 1.366 1.45 1.108 0 1.959-1.357l.498.139a5.3 5.3 0 0 1-.955 1.558 2.8 2.8 0 0 1-.882.677 2.45 2.45 0 0 1-1.117.263q-1.012 0-1.597-.531-.587-.532-.586-1.673c0-.762.202-1.578.603-2.42a6.3 6.3 0 0 1 1.702-2.174q1.099-.91 2.305-.91 1.685 0 1.685 1.25zm-2.2-.448q-.69 0-1.406.795a5.6 5.6 0 0 0-1.099 1.888q1.413-.153 2.248-.802.836-.646.835-1.326 0-.555-.578-.555m2.888 6.831q-.465 0-.715-.247-.249-.246-.249-.677 0-.525.353-1.496l2.345-6.661q.209-.57.08-.833-.128-.262-.626-.292l-.625-.046.112-.43 2.617-.4h.401l-3.083 8.757q-.256.725-.256.878-.001.247.241.247.611 0 1.717-1.711l.514.138q-.755 1.481-1.396 2.128-.643.648-1.428.649zm4.208 0q-.465 0-.715-.247-.249-.246-.249-.677 0-.525.353-1.496l2.345-6.661q.209-.57.08-.833-.129-.262-.625-.292l-.626-.046.112-.43 2.617-.4h.401l-3.083 8.757q-.256.725-.256.878-.001.247.241.247.61 0 1.718-1.711l.513.138q-.755 1.481-1.396 2.128-.643.648-1.428.649zm9.295-6.383q0 1.079-1.373 1.936-1.373.855-3.492.87-.112.54-.112.927 0 1.45 1.366 1.45 1.107 0 1.958-1.357l.499.139a5.3 5.3 0 0 1-.955 1.558 2.9 2.9 0 0 1-.882.677 2.45 2.45 0 0 1-1.117.263q-1.013 0-1.597-.531-.587-.532-.586-1.673c0-.762.201-1.578.603-2.42a6.3 6.3 0 0 1 1.702-2.174q1.098-.91 2.305-.91 1.685 0 1.685 1.25zm-2.2-.448q-.69 0-1.406.795a5.6 5.6 0 0 0-1.099 1.888q1.412-.153 2.248-.802.835-.646.835-1.326 0-.555-.578-.555m4.048 6.907q-.964 0-1.532-.531-.571-.532-.571-1.659c0-.75.192-1.578.578-2.42a6.3 6.3 0 0 1 1.645-2.182q1.069-.917 2.256-.917.835 0 1.316.4t.481.986q0 .477-.264.77-.265.293-.715.293-.674 0-.77-.6a5 5 0 0 1-.016-.556q0-.447-.112-.663-1.221.015-2.151 1.472-.931 1.458-.932 2.906c0 .966.428 1.42 1.284 1.42q1.091 0 1.944-1.373l.498.14a7 7 0 0 1-.377.763 5.7 5.7 0 0 1-.57.801 2.7 2.7 0 0 1-.875.687 2.45 2.45 0 0 1-1.117.263m7.305-6.504-1.799 4.564a1.1 1.1 0 0 0-.097.416q0 .247.242.247.578 0 1.605-1.372l.498.139q-1.3 2.436-2.826 2.436-.385.001-.69-.232-.305-.23-.305-.677 0-.494.322-1.233l1.814-4.287h-1.525l.224-.74h1.558l.546-1.479 1.59-.124-.803 1.604h1.799l-.224.74h-1.927zM22.868 11.227l-.125.002-.003-.004c-.148.034-.331.022-.52.01-.556-.037-1.15-.076-.953 1.063.044.25-.26.312-.462.323q-.86.047-1.721.032c-.109-.002-.22-.093-.32-.176l-.052-.041c-.017-.015.05-.204.084-.206.56-.033.763-.413.965-.791.102-.19.204-.38.351-.526 1.33-1.318 2.687-2.611 4.24-3.673.152-.104.337-.199.462-.019.097.139.007.218-.086.298-.04.036-.082.071-.108.113-.094.149-.26.258-.426.367-.325.215-.646.426-.407.928.207.434.022.511-.263.63l-.012.004q-.184.076-.371.144c-.266.099-.53.198-.768.341-.238.145-.352.426.037.592.852.363 3.058-.216 3.488-1.015.403-.747 1.004-1.301 1.605-1.855.337-.31.674-.622.976-.966.65-.742 1.412-1.387 2.174-2.032.379-.32.758-.641 1.123-.974.275-.25.39-.581.174-.942-.214-.358-.578-.406-.92-.326-2.252.53-4.428 1.245-6.36 2.58a779 779 0 0 1-9.293 6.34c-1.062.713-1.704.365-2.059-.868-.787-2.736-1.94-5.122-5.256-5.493-1.211-.136-2.1.623-1.924 1.827.089.61.008 1.185-.286 1.758l-.195.38c-.452.875-.909 1.757-1.192 2.689q-.035.117-.078.244c-.253.762-.573 1.732.957 1.785.063.002.183.16.169.219-.034.139-.102.304-.21.384-1.468 1.082-2.674 2.392-3.192 4.163-.263.895-.09 1.824.675 2.517.546.496 1.245.783 1.857.366.559-.38 1.172-.635 1.784-.89.538-.224 1.076-.448 1.574-.756.12-.075.267-.142.414-.211.409-.19.83-.387.757-.742-.116-.557-.704-1.074-1.195-1.48-.486-.402-1.724-3.104-1.577-3.753.206-.909.671-1.695 1.136-2.483.397-.673.795-1.346 1.032-2.096.098-.309.474-.478.837-.355.246.083.204.31.165.52q0 .008-.003.017-.22 1.215-.435 2.43l-.217 1.214c-.046.259.034.466.303.518.517.102.506.335.273.735-.248.424-.282.943-.005 1.335.278.394.743.476 1.215.24.295-.146.524-.016.52.281-.018 1.586.646 1.228 1.453.536a.8.8 0 0 1 .274-.133l.053-.018.23-.082c1.52-.54 3.04-1.078 3.898-2.636.066-.121.284-.18.453-.226l.029-.008c.982-.267 1.984-.27 2.986-.274.752-.004 1.504-.007 2.247-.12.733-.114 1.531-.541 1.538-1.249.005-.57-.431-.535-.867-.5-.19.016-.378.031-.53-.003a.5.5 0 0 0-.117-.003"/><path d="M11.327 19.216c-.182 1.21.28 2.246 2.17 2.232 1.614-.066 3.442-1.043 5.227-2.293 1.179-.826 2.198-1.696 2.858-2.983.486-.946.236-1.705-.496-2.368-.323-.293-.631-.325-.993.028-1.284 1.256-2.882 1.942-4.523 2.632-.418.176-.894.263-1.374.352-1.278.236-2.58.476-2.87 2.4"/></g><defs><clipPath id="a"><path fill="#000" d="M0 0h149.508v26.775H0z"/></clipPath></defs></svg>