<svg xmlns="http://www.w3.org/2000/svg" fill="none" viewBox="0 0 97 28"><path fill="#000" d="M10.628 27.375a25 25 0 0 1-4.88-4.748l-.132-.159 5.12-4.986 5.145 4.985-.133.158a25.7 25.7 0 0 1-4.88 4.722l-.132.106z"/><path fill="#000" d="m10.76 12.627-7.135 6.842-.133-.238A25.8 25.8 0 0 1 .76 11.99l-.053-.264h20.107l-.132.61c-.558 2.415-1.433 4.748-2.653 6.896l-.132.238z"/><path fill="#000" d="m10.734 11.698-.317.292-7.083 6.79-.239.238.16.291a24 24 0 0 0 2.308 3.422l.318.397.344-.344 4.51-4.403 4.535 4.403.345.344.317-.397a27.5 27.5 0 0 0 2.309-3.422l.159-.291-.238-.239-7.11-6.763zm0 .636 7.083 6.816a27 27 0 0 1-2.254 3.37l-4.827-4.722-4.827 4.695a25.5 25.5 0 0 1-2.254-3.37z"/><path fill="#231f20" d="m10.734 12.334-7.083 6.79a26 26 0 0 0 2.254 3.37l4.828-4.696 4.827 4.695c.822-1.06 1.592-2.174 2.254-3.37z"/><path fill="#000" d="M11.182.61c1.486 2.492 4.272 4.032 7.216 4.032.849 0 1.698-.132 2.494-.37l.531-.16.053.558c.213 2.467.054 4.96-.45 7.401l-.08.344h-.003a26 26 0 0 1-2.68 6.948l-.29.505-.04-.038a27 27 0 0 1-1.859 2.719l-.195.262a25.4 25.4 0 0 1-4.906 4.774l-.265.184-.264-.211c-1.83-1.379-3.5-2.97-4.908-4.775l-.238-.317.03-.031a24 24 0 0 1-2.074-3.126l-.158-.291.005-.006a25.4 25.4 0 0 1-2.58-6.97l-.105-.531h.016a24.8 24.8 0 0 1-.336-6.814L.15 4.14l.53.159a8.8 8.8 0 0 0 2.495.37c2.944 0 5.729-1.565 7.215-4.03L10.76 0zM6.18 22.828a25.2 25.2 0 0 0 4.555 4.36l.012-.011a25.2 25.2 0 0 1-4.552-4.363zm-.273-.337.002.002 4.633-4.508zm-1.912-3.046-.1.094a26 26 0 0 0 1.734 2.596l4.788-4.655.318-.291.266.318 4.813 4.682a27 27 0 0 0 1.79-2.666l-.055-.051-6.79-6.526zm15.909-5.047a26 26 0 0 1-1.82 4.308l.002.001a24.6 24.6 0 0 0 1.818-4.31M10.76.847a8.88 8.88 0 0 1-7.586 4.245 8.5 8.5 0 0 1-2.627-.398 25 25 0 0 0-.085 1.591c-.049 1.782.085 3.53.412 5.226h.009l.088.45.007.03-.005-.026h9.47l.001-.002H11l.002.002h9.526v-.002h.021a24.8 24.8 0 0 0 .425-7.269 8.7 8.7 0 0 1-2.626.398c-3.237 0-6.075-1.698-7.586-4.245"/><path fill="#000" d="M15.563 7.692v-.823h-.505v-.584l-.531-.16h-.026v-.504s-.186.212-1.035.212c-.796 0-1.272-.265-1.91-.265-.61 0-.795.344-.795.344v.212h-.027v-.212s-.185-.344-.796-.344c-.637 0-1.114.265-1.91.265-.849 0-.981-.212-.981-.212v.531H7.02l-.584.133v.584h-.505v.823h.505v1.351h-.505v.823h.505V10.9s.85.133 1.645.133c.929 0 1.486-.133 2.095-.16v.266s.239.132.585.132c.317 0 .584-.133.584-.133v-.264c.61 0 1.14.159 2.095.159.796 0 1.645-.133 1.645-.133V9.866h.505v-.823h-.505V7.692z"/><path fill="#231f20" d="M14.979 10.849c-.212.026-.902.132-1.566.132-.928 0-2.068-.132-2.068-.132l-.106-.027v.292a1.8 1.8 0 0 1-.505.079c-.212 0-.397-.053-.478-.08v-.317l-.106.026s-1.14.133-2.069.133c-.637 0-1.352-.08-1.565-.133V6.34c.08-.026.317-.08.45-.08v4.059c.053.105.238.317 1.087.317l1.087-.132.823-.106c.558 0 .716.291.716.291l.027-.026h.132l.027.026s.185-.291.716-.291l.823.106 1.087.132c.849 0 1.087-.238 1.087-.238l.027-4.137c.105.026.317.08.397.106v4.483zM7.126 5.834c.133.08.397.133.902.133l1.088-.133.822-.106c.531 0 .717.292.717.292v4.43a1.07 1.07 0 0 0-.717-.238l-.849.132-1.034.132c-.77 0-.929-.185-.929-.185zm3.714.186s.185-.292.717-.292l.822.106 1.087.133c.532 0 .796-.08.929-.16v4.51c0-.026-.212.133-.929.133l-1.034-.132-.849-.133c-.37 0-.584.133-.716.238V6.02zm3.742.054v-.637l-.159.16s-.185.184-.955.184l-1.034-.132-.849-.132c-.478 0-.717.185-.796.317a1.06 1.06 0 0 0-.796-.317l-.85.132-1.033.132c-.77 0-.929-.185-.929-.185l-.159-.185v.662l-.61.132v4.774h.08s.875.133 1.67.133c.77 0 1.699-.106 1.99-.133v.212l.053.026s.264.133.61.133c.345 0 .611-.133.638-.133l.053-.026v-.212c.29.027 1.22.133 1.989.133.796 0 1.645-.133 1.671-.133h.08V6.205z"/><path fill="#231f20" d="M8.4 6.631c-.079 0-.105.053-.132.08l-.29.637H7.95l-.027-.027c0-.026-.053-.106-.106-.29l-.079-.213c-.026-.079-.053-.132-.08-.132-.026-.053-.079-.053-.132-.08v-.052h.397v.053c-.026 0-.106 0-.106.053v.052l.186.45.159-.37c.026-.053.026-.08.026-.106 0-.053-.026-.053-.106-.08v-.052h.344v.08H8.4m.797.687h-.715v-.053c.053 0 .106-.026.106-.026 0-.027.027-.053.027-.106v-.423c0-.08-.053-.08-.133-.08V6.58h.662l.026.027v.158h-.053a.7.7 0 0 0-.105-.132l-.053-.026h-.186v.291h.107l.079-.053.026-.053h.053v.318h-.053a.15.15 0 0 0-.08-.133l-.079-.026h-.055v.265l.053.052h.266c.026-.026.105-.079.131-.158h.053v.185zm.902-.505a.4.4 0 0 0-.08-.106.3.3 0 0 0-.132-.08h-.08v.583c0 .08.054.08.133.106v.053h-.397V7.32c.132 0 .132-.026.132-.08v-.556H9.57a.45.45 0 0 0-.158.16h-.053v-.186l.026-.026h.715v.186M8.348 7.985a.3.3 0 0 0-.08-.106.3.3 0 0 0-.132-.08h-.08v.583c0 .08.054.08.133.106v.052h-.397v-.052c.133 0 .133-.027.133-.08v-.556h-.106a.45.45 0 0 0-.16.159h-.052v-.238l.026-.027h.715zm.876.529h-.717V8.46a.3.3 0 0 0 .106-.027c.026-.026.026-.053.026-.106v-.423c0-.08-.053-.08-.132-.08v-.052h.662l.026.026v.159h-.053c-.053-.08-.08-.106-.106-.133L8.983 7.8h-.185v.291h.106l.08-.053.026-.053h.053v.318H9.01a.15.15 0 0 0-.08-.132l-.079-.027h-.053v.265l.053.053h.265c.026-.027.106-.08.132-.16h.053v.186zm.529 0a.5.5 0 0 1-.186-.053h-.026l-.053.026-.053-.026.027-.08V8.25l.026-.027.08.16q.078.079.158.079c.053 0 .106 0 .133-.027.026-.026.053-.053.053-.08l-.027-.079c-.026-.026-.026-.026-.08-.053-.026-.026-.158-.052-.185-.079a.3.3 0 0 1-.105-.08.4.4 0 0 1-.053-.132c0-.132.105-.211.238-.211.053 0 .132 0 .185.052l.053-.052.053.026v.212h-.053a.3.3 0 0 1-.053-.133c-.026-.053-.08-.053-.159-.053-.08 0-.132.053-.132.106s.053.08.08.106a.2.2 0 0 1 .105.053c.053.027.106.027.133.053.079.053.132.106.132.185-.025.16-.159.239-.291.239M8.665 9.68h-.714v-.052a.3.3 0 0 0 .106-.027c0-.026.026-.053.026-.106v-.423c0-.08-.053-.08-.132-.08V8.94h.662l.026.027v.159h-.053c-.053-.08-.08-.106-.106-.133l-.053-.026h-.186v.291h.107l.08-.053.026-.053h.053v.318h-.053a.15.15 0 0 0-.08-.133l-.08-.026h-.052v.265l.053.053h.265c.026-.027.105-.08.132-.16h.053v.186zm1.088-.714c-.08 0-.132.053-.132.159v.556h-.053l-.532-.558v.398c0 .052.027.052.027.079l.106.026v.053h-.292v-.053a.3.3 0 0 0 .133-.053v-.45l-.027-.08-.026-.052-.08-.027v-.053h.212l.027.027.397.423.08.106V9.07l-.027-.08c0-.026-.08-.026-.133-.026v-.053h.344v.053h-.024M12.22 6.63c-.079 0-.132.054-.132.16v.556h-.053l-.531-.558v.397c0 .053.026.053.026.08l.106.026v.053h-.318V7.29c.027 0 .106-.027.106-.053v-.45l-.026-.08-.027-.053-.079-.026v-.053h.212l.026.026.397.424.08.106v-.398l-.027-.079c0-.026-.08-.026-.132-.026v-.053h.344v.053h.028m.664.056q-.04-.08-.159-.08a.15.15 0 0 0-.132.08c-.053.053-.08.159-.08.265s.027.212.053.265q.04.079.16.079c.079 0 .131-.027.158-.106a.5.5 0 0 0 .053-.238c.026-.106 0-.212-.053-.265m.132.558a.38.38 0 0 1-.264.106.38.38 0 0 1-.265-.106.4.4 0 0 1-.106-.291c0-.106.026-.212.106-.291a.38.38 0 0 1 .264-.106.5.5 0 0 1 .186.053.41.41 0 0 1 .185.344.56.56 0 0 1-.106.29m1.061-.61c-.079 0-.105.053-.132.08l-.291.637h-.027l-.026-.027c0-.026-.053-.106-.106-.29l-.08-.213c-.026-.079-.052-.132-.079-.132-.026-.053-.08-.053-.132-.08v-.052h.397v.053c-.027 0-.106 0-.106.053v.052l.185.45.16-.37c.026-.053.026-.08.026-.106 0-.053-.027-.053-.106-.08v-.052h.344zm-2.095 1.354a.4.4 0 0 0-.08-.106.3.3 0 0 0-.132-.08h-.08v.583c0 .08.054.08.133.106v.052h-.397v-.052c.133 0 .133-.027.133-.08v-.556h-.106a.45.45 0 0 0-.16.159h-.052v-.238l.026-.027h.715zm.424-.08-.053.132c-.053.106-.053.133-.053.133h.212c-.027-.027-.08-.185-.106-.265m.478.609h-.37v-.053c.08 0 .106-.026.106-.053 0 0 0-.026-.027-.106-.026-.053-.026-.08-.053-.106h-.265c-.026.027-.026.08-.053.133v.053c0 .026.027.053.106.053v.053h-.317v-.053c.053 0 .08-.027.106-.053 0-.027.052-.08.105-.186s.08-.238.106-.29c.027-.054.053-.08.053-.107l.053-.08.027-.026.026.027.027.026c.053.106.08.186.132.318.026.053.053.106.08.185.026.053.026.08.052.106.027.053.08.053.106.08zm1.166 0h-.396v-.053h.079c.026-.026.053-.053.053-.08v-.555l-.159.344c-.026.026-.026.08-.053.132-.026.08-.053.133-.053.159l-.026.027-.027-.027c-.026-.053-.026-.08-.053-.106l-.238-.558v.477c0 .106.053.159.132.159v.053h-.317v-.053l.106-.027c.026-.026.026-.053.026-.132v-.397c0-.053 0-.08-.026-.106 0 0-.053-.027-.106-.027v-.053h.317l.027.027.212.505.053-.106c.026-.08.079-.212.158-.344l.053-.08h.292v.053c-.027 0-.08 0-.106.053 0 .027-.027.027-.027.08v.37c0 .133.027.16.053.16h.08v.105zm-2.094.663a.4.4 0 0 0-.08-.106.3.3 0 0 0-.132-.079h-.08v.582c0 .08.053.08.133.106v.053H11.4V9.68c.132 0 .132-.026.132-.08v-.556h-.106a.45.45 0 0 0-.159.16h-.053v-.186l.027-.026h.715v.186m.954-.212c-.079 0-.105.053-.132.08l-.291.637h-.028l-.027-.027c0-.026-.053-.106-.106-.291l-.08-.212c-.026-.08-.052-.132-.079-.132-.026-.053-.079-.053-.132-.08V8.89h.397v.052c-.026 0-.106 0-.106.053v.053l.186.45.158-.37c.027-.053.027-.08.027-.106 0-.053-.027-.053-.106-.08V8.89h.344zm1.14.714h-.37v-.053h.08c.026-.026.052-.053.052-.08v-.555l-.158.344c-.027.026-.027.08-.053.132-.027.08-.053.133-.053.16l-.027.026-.026-.027c-.027-.053-.027-.08-.053-.106l-.239-.558v.477c0 .106.054.159.133.159v.053h-.344v-.053l.106-.027c.026-.026.026-.053.026-.132v-.397c0-.053 0-.08-.026-.106 0 0-.053-.026-.106-.026v-.053h.317l.027.026.212.505.053-.106c.026-.08.079-.212.158-.344l.053-.08h.292v.053c-.027 0-.08 0-.106.053 0 .027-.027.027-.027.08v.37c0 .133.027.16.053.16h.08v.105z"/><path fill="#000" d="M31.373 7.77c0-.716-.424-1.406-1.035-1.697-.317-.133-.875-.212-1.724-.212-.743 0-1.91.053-2.415.053-.37 0-.902-.053-1.193-.053a.4.4 0 0 0-.053.159c0 .053 0 .132.027.185.185.053.478.106.69.159.159.132.212.265.265.558.026.344.053.77.053 1.512 0 2.043 0 3.13-.027 3.343a.83.83 0 0 1-.558.69c-.132.027-.37.08-.558.106 0 .053-.026.106-.026.212 0 .08 0 .08.026.133.318 0 1.22-.053 1.566-.053.875 0 1.751.053 2.095.053h.238c.027-.053.027-.106.027-.16 0-.052 0-.132-.027-.184-.29-.027-.716-.106-.902-.318-.105-.106-.185-.291-.185-.585l-.026-2.121c.584.027 1.193.053 1.539.053.45 0 .822-.08 1.113-.185.638-.214 1.09-.904 1.09-1.647m-1.751-.026c0 .505-.186.929-.505 1.22-.212.159-.532.265-1.008.265-.212 0-.37 0-.424-.027-.079 0-.132-.026-.132-.08V6.286c.106 0 .291-.053.558-.053.664 0 1.06.158 1.246.584.185.24.265.584.265.928m10.53 5.015a.6.6 0 0 0-.053-.212c-.106 0-.505-.027-.637-.132a1.2 1.2 0 0 1-.16-.239c-.132-.45-.264-.743-.423-1.113-.212-.479-.478-.929-.716-1.167-.08-.08-.397-.212-.717-.318a3 3 0 0 1-.397-.158c.132-.027.212-.053.397-.053.717-.08.875-.212 1.06-.371.398-.291.611-.743.611-1.273 0-.796-.504-1.539-1.22-1.777-.237-.08-.636-.106-1.166-.106-.716 0-1.75.08-2.227.08-.159 0-.981-.027-1.326-.027-.158 0-.505-.026-.584-.026-.026.08-.053.132-.053.185 0 .026 0 .132.027.185.158.027.478.053.61.08.239.185.318.317.397.531.053.318.053 1.114.053 2.468 0 .98 0 2.121-.026 2.494-.027.238-.106.53-.397.637-.133.026-.37.053-.558.08a.7.7 0 0 0-.053.184c0 .027.026.106.026.16.133 0 1.62-.027 1.937-.027.61 0 1.14.026 1.698.026.026-.026.026-.106.026-.132 0-.053-.026-.159-.026-.212a6 6 0 0 1-.532-.106c-.238-.106-.423-.344-.423-.69V9.503h.238c.132 0 .265.026.505.159.37.211.531.344.77.716.317.479.504 1.379.61 2.095.027.212.106.37.291.397.08 0 .585.027.955.027h1.379c.077-.006.104-.085.104-.138M37.34 7.69c0 .611-.397 1.3-.875 1.407q-.278.08-.797.08c-.105 0-.238 0-.37-.027v-2.6c0-.106.026-.185.053-.212.026-.026.212-.053.397-.053.743 0 1.087.053 1.352.532q.24.358.24.873m7.773 5.068c0-.053 0-.16-.026-.186-.133 0-.532-.053-.717-.079-.159-.185-.265-.397-.317-.743 0-.478-.027-1.433-.027-2.335V7.028c0-.265.106-.479.185-.532.186-.185.558-.211.876-.238.026-.026.026-.132.026-.185a.3.3 0 0 0-.053-.159h-.29c-.398 0-1.353.053-1.699.053-.212 0-1.14-.027-1.592-.027h-.212a.23.23 0 0 0-.053.16c0 .052 0 .132.027.185.478.053.69.079.743.132.106.08.291.291.318.822 0 .186.026.585.026 1.487 0 .478.026 1.166.026 1.724 0 .291-.026.902-.026 1.246-.026.238-.08.45-.132.584-.106.106-.239.265-.929.318-.026.026-.026.159-.026.212 0 .08.026.106.026.159h.16c.396 0 1.351-.053 1.856-.053.132 0 1.14.026 1.486.026h.318c.026-.077.026-.157.026-.183m9.575-6.74c0-.026 0-.105-.026-.131h-.212c-.478 0-.796.026-1.671.026-.292 0-.743-.026-.85-.026h-.238a.4.4 0 0 0-.053.158c0 .053 0 .133.053.16.16.052.743.105 1.008.29.186.212.239.611.291.982 0 .132.027.29.027.69v2.016c0 .238 0 .317-.027.423-.158-.185-.397-.531-.796-.981L48.931 6.07a1 1 0 0 0-.159-.132h-.291c-.61 0-1.751-.027-1.91-.027-.026.027-.026.106-.026.132l.026.186c.132.026.478.08.717.37.159.186.423.424.505.611.026.08.026.185.026.318 0 .505-.027 1.22-.027 1.883v1.963c0 .317-.026.584-.052.743-.212.212-.505.37-1.008.505-.027.053-.027.132-.027.185l.027.132h.185c.185 0 .637-.026.928-.026.424 0 .717.026 1.114.026h.584c.027 0 .053-.132.053-.159s0-.105-.026-.158c-.344-.08-.823-.16-1.167-.611-.08-.133-.132-.876-.132-1.193v-1.3c0-.769 0-1.432.026-1.777.053.08.133.16.186.212l4.483 5.04c.053.052.212.052.265.052.052 0 .079 0 .105-.026.027-.053.08-.212.08-.424V7.848c0-1.22.584-1.539 1.246-1.592.026-.102.026-.181.026-.236m7.56 5.545c-.026-.08-.106-.239-.318-.239h-.08c-.583.823-1.219 1.14-1.935 1.14-1.008 0-1.725-.69-1.963-1.272-.132-.317-.291-1.008-.291-1.777 0-.717.106-1.273.291-1.698.424-1.114 1.034-1.486 1.804-1.486.637 0 1.14.37 1.539.875.159.212.344.664.505 1.167.053 0 .132.026.212.026a.8.8 0 0 0 .238-.08c0-.105-.106-.848-.106-1.086 0-.292.08-.77.08-.955-.054-.053-.239-.106-.371-.106-.133.106-.186.238-.318.397-.531-.397-1.034-.69-2.148-.69-1.008 0-1.83.344-2.441.955-.664.663-1.034 1.565-1.034 2.732 0 1.246.531 2.254 1.38 2.89.531.398 1.325.638 2.254.638 1.193 0 2.042-.45 2.494-1.034.102-.184.129-.236.208-.397m8.197-.344v-.292c-.053-.026-.08-.026-.133-.026-.08 0-.132 0-.211.027-.318.743-.796 1.325-1.061 1.486-.133.08-.37.106-.717.106h-.796c-.317 0-.558-.027-.637-.053-.132-.027-.291-.265-.37-.424s-.107-.159-.107-.61V9.311h.371c.106 0 .318.026.584.132a.78.78 0 0 1 .424.397c.08.133.132.664.159.796.053.027.185.027.264.027s.133 0 .186-.053c0-.265-.053-.982-.053-1.352 0-.479.08-1.14.106-1.513-.027-.026-.106-.053-.186-.053s-.185 0-.238.027a6 6 0 0 1-.159.584c-.132.238-.397.424-.663.505-.186.053-.424.08-.558.08h-.212v-.85c0-.928.026-1.22.026-1.407 0-.105.027-.238.027-.317.08 0 .132-.027.584-.027h.902c.265.027.478.08.61.186.371.29.638.716.93 1.193a.6.6 0 0 0 .211.026c.053 0 .08-.026.132-.053 0-.584-.026-1.352-.052-1.592 0-.106-.027-.132-.212-.132-.08 0-.45-.027-.823-.027h-3.422c-.585 0-1.087-.026-1.326-.026h-.317a.3.3 0 0 0-.053.159c0 .053.026.159.053.185.105.027.584.027.716.106.133.106.265.159.344.637.027.212.027.77.027 1.22v1.989c0 .397 0 1.008-.027 1.246-.026.37-.158.822-.211.928-.08.08-.479.133-.876.133a.6.6 0 0 0-.053.212.5.5 0 0 0 .053.185H64c.318 0 1.46-.027 1.724-.027.239 0 .717.027 1.273.027.318 0 1.22.053 3.182.053.08 0 .159 0 .265-.027.026-.053.026-.08.026-.159-.024-.157-.024-.714-.024-1.51m8.329-3.156v-1.99c0-.132-.053-.185-.212-.185-.291 0-1.83.027-3.37.027-1.193 0-2.2-.027-2.732-.027h-.716c-.133 0-.16.027-.16.16v1.856a.3.3 0 0 0 .16.053c.026 0 .185 0 .212-.027.423-.875.848-1.351 1.351-1.618.292-.027.85-.027 1.008-.027 0 .106.027.45.027.85v2.652c0 1.434 0 2.069-.027 2.228-.026.264 0 .478-1.14.531-.026.08-.026.132-.026.212v.159h.37c.37 0 1.193-.027 1.566-.027.291 0 1.193.027 1.777.027h.265c.026-.053.026-.16.026-.212 0-.053 0-.133-.026-.185-.106 0-.717.026-1.008-.186a3.3 3.3 0 0 1-.08-.716c0-1.035-.026-1.434-.026-2.148V6.288h.743c.611.16.902.397 1.14.743.16.212.345.611.505 1.061a.34.34 0 0 0 .16.027c.08-.002.213-.029.213-.055m8.543 1.246c0-1.352-.611-2.388-1.725-3.024-.61-.317-1.193-.504-1.83-.504-1.407 0-2.706.849-3.264 1.803a3.67 3.67 0 0 0-.558 1.963c0 1.114.532 2.201 1.38 2.838.638.479 1.38.69 2.202.69.504 0 1.007-.105 1.486-.29a3.7 3.7 0 0 0 1.352-.93 3.8 3.8 0 0 0 .957-2.546m-1.751-.185c0 1.46-.397 2.758-.955 3.208-.291.239-.637.345-1.035.345-.53 0-1.007-.212-1.298-.638-.371-.557-.585-1.618-.585-2.52 0-1.352.344-2.415.982-2.918.317-.264.663-.37 1.007-.37.532 0 1.035.238 1.326.663q.557.718.558 2.23M96.653 6.02c0-.027 0-.106-.026-.132h-.212c-.478 0-.796.026-1.671.026-.291 0-.743-.026-.85-.026h-.238c-.026.026-.026.132-.026.158 0 .053 0 .133.053.16.159.052.743.105 1.008.29.185.212.264.611.291.982 0 .132.026.29.026.69v2.016c0 .238 0 .317-.026.423-.159-.185-.397-.531-.796-.981l-3.237-3.582-.132-.132h-.292c-.61 0-1.75-.026-1.91-.026-.026.026-.026.106-.026.132l.027.185c.132.027.478.08.716.37.159.186.424.424.505.612.026.079.026.185.026.317 0 .505-.026 1.22-.026 1.884v1.962c0 .318-.026.584-.053.743-.212.212-.505.37-1.008.505-.026.053-.026.133-.026.185l.026.133h.186c.185 0 .637-.027.928-.027.424 0 .717.027 1.114.027h.584c.026 0 .053-.133.053-.159 0-.027 0-.106-.027-.159-.344-.08-.822-.159-1.166-.61-.08-.133-.133-.876-.133-1.194V9.493c0-.77 0-1.433.027-1.777.053.08.132.159.185.212l4.483 5.039c.053.053.212.053.265.053s.08 0 .106-.027a1.1 1.1 0 0 0 .08-.423V7.822c0-1.22.584-1.54 1.245-1.592-.053-.076-.053-.155-.053-.21M32.46 16.896a.3.3 0 0 0-.053-.132h-.291c-.291 0-.717.026-1.061.026-.397 0-.823-.026-1.114-.026h-.344c-.026.053-.026.08-.026.132s0 .08.026.133c.053 0 .743 0 .876.185.105.132.344.505.37.716.027.106.08.505.08 1.061v1.672c-.027.531-.08.981-.186 1.299q-.397 1.273-1.91 1.272c-.423 0-.796-.08-1.14-.238-.637-.318-.928-.902-.928-1.22l-.053-2.917v-1.193c0-.212.291-.424.37-.532.08-.026.505-.079.744-.105.026-.053.053-.08.053-.133a.15.15 0 0 0-.08-.132h-.37c-.371 0-.823.026-1.14.026h-1.484c-.054.027-.054.08-.054.133s0 .08.027.106c.317.026.505.079.637.105a.88.88 0 0 1 .344.424c0 .132.026.424.026 1.034v2.335c0 .611.027 1.035.106 1.3.133.504.397.901.85 1.193.478.317 1.06.478 1.777.478q.955 0 1.671-.397c.479-.265.796-.69.955-1.3.106-.343.159-.742.159-1.14v-1.856c0-.344.026-.796.026-.955 0-.531.16-.823.292-1.06.159-.054.29-.08.796-.133.022-.081.049-.108.049-.16m8.966-.053c0-.026 0-.08-.026-.106h-.212c-.479 0-.69.027-1.566.027-.29 0-.743-.027-.849-.027h-.264c-.027.027-.027.08-.027.133s0 .08.053.106c.159.053.743.105 1.008.29.185.213.238.612.291.982 0 .133.026.291.026.69v2.891c0 .239 0 .318-.026.424a83 83 0 0 1-.823-.981l-3.713-4.325c-.026-.053-.08-.08-.132-.132h-.239c-.61 0-1.166-.027-1.325-.027-.027.027-.027.053-.027.106l.027.133c.132.053.584.08.743.264.159.186.397.371.478.585a1 1 0 0 1 .053.317c0 .505-.026 1.434-.026 2.095v2.069c0 .318-.027.584-.053.743-.212.212-.505.37-1.008.505-.026.053-.026.08-.026.106l.026.106h.185c.186 0 .638-.027.929-.027.423 0 .61.027 1.008.027h.58c.026 0 .053-.08.053-.133 0-.026 0-.053-.026-.106-.345-.079-.823-.158-1.167-.61-.08-.133-.133-.876-.133-1.22V20.37c0-.77 0-1.83.027-2.148.053.08.132.185.212.238l4.589 5.385c.053.053.08.053.106.053.053 0 .026 0 .053-.026.026-.053.053-.212.053-.424V18.62c0-1.22.584-1.566 1.246-1.592-.078-.106-.078-.133-.078-.186m4.375 6.792c0-.053 0-.106-.026-.132-.159 0-.531-.053-.717-.08-.158-.185-.264-.397-.317-.743 0-.478-.027-1.512-.027-2.414v-2.468c0-.265.106-.478.186-.531.185-.186.557-.212.849-.238.026-.027.026-.08.026-.133s-.026-.106-.053-.106h-.291c-.397 0-.981.053-1.326.053-.211 0-.796-.026-1.22-.026h-.21c-.027.026-.054.026-.054.132 0 .053 0 .08.027.132.478.027.69.08.743.133.106.08.29.291.317.822 0 .186.027.69.027 1.566 0 .478.026 1.14.026 1.698 0 .291-.026 1.008-.026 1.352-.027.238-.08.45-.133.584-.105.106-.238.265-.928.318-.026.026-.026.106-.026.132 0 .08.026.08.026.133h.159c.397 0 .981-.053 1.486-.053.133 0 .796.026 1.114.026h.318c.05-.077.05-.13.05-.157m8.49-6.765c0-.053 0-.106-.053-.106h-.317c-.239 0-.611.026-.77.026-.796 0-1.06-.053-1.193-.053h-.185c-.027.053-.053.08-.053.133 0 .026.026.08.026.106.238.026.45.08.664.159a.93.93 0 0 1 .238.61c0 .106-.106.558-.238.876l-1.566 3.846-1.91-4.854c.027-.238.16-.45.318-.532.16-.026.37-.079.637-.079.027-.026.027-.106.027-.132s0-.106-.053-.106h-.238c-.291 0-.743.026-1.273.026-.211 0-.663-.026-1.087-.026h-.374c-.027.026-.027.053-.027.106s0 .08.027.106c.264.08.531.185.822.317.185.265.584 1.246.796 1.751l.796 1.936c.664 1.619 1.061 2.68 1.114 2.865.053.027 0 .053.08.053.079 0 .079-.026.105-.053l2.494-6.022c.08-.212.212-.424.344-.558.16-.185.479-.238.77-.318q.08.003.08-.077m7.187 5.279v-.291c-.053-.027-.079-.027-.132-.027-.08 0-.053 0-.132.027-.212.716-.585 1.22-1.008 1.486-.133.08-.397.106-.823.106h-1.087c-.344 0-.558-.027-.637-.053-.132-.027-.291-.265-.37-.424s-.107-.211-.107-.663v-2.201h.318c.318 0 .558.026.823.132.238.106.423.265.53.424.08.132.107.663.133.796.053.026.08.026.16.026.078 0 .078 0 .158-.053 0-.265-.053-.981-.053-1.352 0-.478.08-1.087.106-1.433-.027-.027-.053-.027-.159-.027-.08 0-.106 0-.159.027-.026.132-.106.531-.132.584-.132.238-.478.424-.743.505-.186.053-.424.08-.796.08h-.16v-.955c0-.929.027-1.3.027-1.486 0-.106.027-.239.053-.318.08 0 .37-.027.823-.027h1.06c.265.027.479.08.611.186.479.37.611.61.876 1.193.053.026.08.026.106.026.053 0 .08-.026.132-.053 0-.584-.026-1.272-.053-1.512 0-.106-.026-.133-.212-.133-.08 0-.45-.026-.822-.026h-3.264c-.584 0-.716-.027-.955-.027h-.317a.2.2 0 0 0-.053.106c0 .053.026.106.053.133.106.026.584.026.716.105.133.106.265.16.344.611.027.212.027.876.027 1.3v1.988c0 .397 0 1.088-.027 1.326-.026.37-.158.849-.211.928-.08.08-.479.133-.876.133a.4.4 0 0 0-.053.158c0 .053.027.08.053.133h.318c.318 0 1.087-.027 1.352-.027.238 0 .584.027 1.14.027.318 0 1.22.053 3.182.053.08 0 .16 0 .265-.027.026-.053.026-.08.026-.159-.05-.052-.05-.529-.05-1.325m8.118 1.486a.2.2 0 0 0-.053-.132c-.106 0-.505-.027-.637-.133a1.2 1.2 0 0 1-.16-.238c-.132-.45-.264-.849-.396-1.22-.212-.478-.479-.928-.717-1.14-.08-.079-.37-.211-.69-.317a3 3 0 0 1-.397-.16c.132-.026.212-.026.397-.052.637-.08.849-.212 1.034-.37a1.5 1.5 0 0 0 .637-1.247c0-.796-.505-1.539-1.22-1.75-.238-.08-.663-.107-1.166-.107-.716 0-1.272.054-1.75.054-.133 0-.611-.027-.956-.027-.132 0-.505-.026-.584-.026-.026.079-.053.079-.053.132 0 .026 0 .106.027.132.159.027.478.053.61.08.239.185.318.317.397.531.053.318.053 1.193.053 2.547 0 .981 0 2.227-.026 2.6-.027.238-.106.531-.397.637-.133.027-.37.053-.558.08-.026.052-.053.079-.053.132 0 .026.027.08.053.106.132 0 1.246-.027 1.566-.027.61 0 .77.027 1.325.027.027-.053.053-.08.053-.106 0-.08-.026-.106-.053-.132a6 6 0 0 1-.531-.106c-.238-.106-.424-.345-.424-.69v-2.415h.424c.264 0 .531.026.77.132.37.159.716.424.954.796.318.479.505 1.407.611 2.122.026.212.106.37.291.397.08 0 .185.026.558.026h1.008c.026-.056.053-.083.053-.136m-2.042-5.147c0 .611-.505 1.326-1.061 1.434-.238.052-.584.079-1.008.079-.106 0-.45 0-.584-.027v-2.652c0-.133.026-.186.08-.212.026-.027.423-.053.69-.053.901 0 1.325.08 1.644.558.16.236.239.556.239.873m8.593 3.343c0-.77-.344-1.299-1.087-1.698-.212-.106-.558-.238-1.087-.397-.584-.159-1.087-.344-1.407-.531-.212-.106-.584-.424-.584-1.06 0-.612.637-1.141 1.38-1.141.585 0 1.035.291 1.326.69.238.344.317.505.61 1.114l.106.026c.08 0 .16-.053.212-.106-.026-.238-.08-.584-.08-.875 0-.238.054-.584.08-.77-.08-.105-.159-.132-.291-.132a1.5 1.5 0 0 0-.37.344c-.638-.505-1.167-.61-1.646-.61-1.193 0-2.042.796-2.042 1.856 0 .37.133.717.344 1.061.212.291.532.531.929.717.29.105 1.539.505 1.724.557.77.292 1.06.558 1.06 1.246 0 .345-.131.638-.423.982-.238.318-.637.45-1.087.45s-1.246-.185-1.618-.717c-.239-.291-.558-.928-.664-1.299-.08-.026-.08-.026-.132-.026a.5.5 0 0 0-.186.053c0 .132.027.77.027.954 0 .479-.08.717-.106.876.026.106.185.185.317.185.212-.185.424-.317.479-.317a.6.6 0 0 1 .238.08c.637.396 1.167.477 1.619.477 1.378.053 2.36-.637 2.36-1.989m4.777 1.804c0-.053 0-.106-.027-.132-.132 0-.531-.053-.716-.08-.16-.185-.265-.397-.318-.743 0-.478-.027-1.512-.027-2.414v-2.468c0-.265.106-.478.186-.531.185-.186.557-.212.849-.238.026-.027.026-.08.026-.133s-.026-.106-.053-.106h-.29c-.398 0-.982.053-1.326.053-.212 0-.796-.026-1.22-.026h-.212c-.026.026-.053.026-.053.132 0 .053 0 .08.027.132.478.027.69.08.77.133.105.08.29.291.317.822 0 .186.026.69.026 1.566 0 .478.027 1.14.027 1.698 0 .291-.026 1.008-.026 1.352-.027.238-.08.45-.133.584-.106.106-.238.265-.928.318-.027.026-.027.106-.027.132 0 .08.027.08.027.133h.159c.397 0 .98-.053 1.486-.053.159 0 .796.026 1.113.026h.318c.025-.077.025-.13.025-.157m8.062-4.803V16.95c0-.159-.053-.185-.212-.185-.29 0-1.618.026-3.182.026-1.193 0-2.016-.026-2.547-.026h-.716c-.133 0-.16.026-.16.159v1.75c.054.027.08.027.107.027.053 0 .079 0 .106-.026.37-.85.584-1.3 1.22-1.619.29-.026 1.298-.026 1.459-.026 0 .105.026.45.026.849v2.732c0 1.433 0 2.148-.026 2.309-.027.264 0 .478-1.14.53-.027.08-.027.08-.027.16v.106h.37c.371 0 .823-.053 1.194-.053.291 0 .822.026 1.407.026h.264c.027-.053.027-.106.027-.132 0-.053 0-.08-.027-.133-.106 0-.716.027-1.007-.185a3.3 3.3 0 0 1-.08-.717c0-1.034-.026-1.539-.026-2.227V17.03h1.14c.61.16.822.397 1.087.744.238.317.291.584.424 1.06.053.027.079.027.158.027.082.024.135-.002.161-.029m7.826-1.989c0-.053-.026-.08-.053-.106-.397 0-.928.027-1.113.027-.505 0-1.088-.053-1.352-.053-.027.053-.027.08-.027.106 0 .053 0 .08.027.106.29.053.69.132.77.264.079.133.079.212.079.371 0 .106 0 .238-.053.37-.08.239-.265.611-.532 1.14-.45.903-.716 1.46-.875 1.699a43 43 0 0 1-.955-1.83l-.558-1.194c-.026-.026-.026-.185-.026-.264 0-.133.026-.212.026-.239.08-.185.397-.185.796-.238.027-.053.027-.106.027-.132 0-.08-.027-.053-.053-.106h-.185c-.638 0-.45.026-1.566.026-.478 0-1.034-.026-1.114-.026-.026.08-.053.08-.053.132 0 .027 0 .08.053.106.638.159.85.265.902.397l1.698 3.317q.239.476.318.716c.08.265.08.664.08 1.167 0 .424-.16.637-.318.743-.08.027-.558.106-.77.132-.026.08-.053.08-.053.133s.027.08.027.106h1.299c.211 0 .504 0 1.087.026.317 0 .584.027.743.027.026-.053.053-.08.053-.133s0-.08-.053-.132c-.318-.027-.743-.106-.85-.185-.158-.16-.237-.239-.264-.611l-.08-1.46c0-.106.027-.212.027-.238.027-.106.08-.185.106-.265l1.486-2.944c.133-.238.424-.531.611-.637.132-.08.424-.132.637-.185.025-.053.051-.106.051-.133"/></svg>