<svg width="183" height="29" viewBox="0 0 183 29" fill="none" xmlns="http://www.w3.org/2000/svg">
<path d="M101.047 25.8281H86.5471L99.2346 3.17187L101.047 0H97.4221H80.6565V3.17187H95.6096L82.469 25.8281L80.6565 29H84.2815H99.2346L101.047 25.8281Z" fill="black"/>
<path d="M141.375 0H120.984V3.17187H139.562L141.375 0Z" fill="black"/>
<path d="M141.375 12.6877H120.984V15.8596H139.562L141.375 12.6877Z" fill="black"/>
<path d="M141.375 25.8279H120.984V28.9998H139.562L141.375 25.8279Z" fill="black"/>
<path d="M181.703 9.0625V7.25C181.703 3.17188 178.531 0 174.453 0H164.484H161.312V15.8594V28.5469H164.484V15.8594H170.375L177.625 28.5469H181.25L174 15.8594H174.453C178.531 15.8594 181.703 12.6875 181.703 9.0625ZM164.484 3.17187H174.453C176.719 3.17187 178.531 4.98438 178.531 7.25V9.0625C178.531 11.3281 176.719 13.1406 174.453 13.1406H164.484V3.17187Z" fill="black"/>
<path d="M20.3906 9.0625V7.25C20.3906 3.17188 17.2188 0 13.1406 0H3.17187H0V15.8594V28.5469H3.17187V15.8594H9.0625L16.3125 28.5469H19.9375L13.1406 15.8594H13.5938C17.2188 15.8594 20.3906 12.6875 20.3906 9.0625ZM3.17187 3.17187H13.1406C15.4063 3.17187 17.2188 4.98438 17.2188 7.25V9.0625C17.2188 11.3281 15.4063 13.1406 13.1406 13.1406H3.17187V3.17187Z" fill="black"/>
<path d="M42.1405 29L50.7499 8.60937L58.9061 29H62.078L52.1093 4.07812L50.7499 0L48.9374 4.07812L38.9686 29H42.1405Z" fill="black"/>
</svg>
