<svg xmlns="http://www.w3.org/2000/svg" fill="none" viewBox="0 0 92 26"><g fill="#000" clip-path="url(#a)"><path d="M15.397.534C15.352.526 11.14 0 7.854 0S.36.523.314.534L0 .571v6.665c0 2.466.243 5.652 2.141 8.436a10 10 0 0 0 1.367 1.615l.008.008c1.026.994 2.393 1.932 4.338 3.016 1.943-1.084 3.302-2.022 4.339-3.016l.008-.008a11 11 0 0 0 1.366-1.615c1.899-2.79 2.142-5.97 2.142-8.436V.568l-.315-.037zm-2.42 14.728a9.8 9.8 0 0 1-1.295 1.525c-1.565 1.447-3.33 2.24-3.825 2.448-.494-.208-2.258-1.001-3.825-2.448a10 10 0 0 1-1.296-1.525C.954 12.652.722 9.618.722 7.26l7.135-.397 7.127.397c0 2.355-.232 5.39-2.006 8.002m-5.12-8.84H.73l.378-5.248C2.43 1.028 5.409.732 7.857.732s5.427.299 6.76.442l.367 5.248z"/><path d="m11.159 14.242.008.007a1.8 1.8 0 0 0-.325.381 1.7 1.7 0 0 0-.18-.894l-.09-.171-.172.1a1.73 1.73 0 0 0-.782 1.002c-.127.426-.082.867.116 1.264v.008a1.6 1.6 0 0 0-.386.306 1.7 1.7 0 0 0 .008-.912l-.045-.187-.18.063a1.77 1.77 0 0 0-.97.822c-.198.37-.251.804-.153 1.219l-.172.119-.172-.119a1.72 1.72 0 0 0-1.126-2.041l-.18-.063-.045.187a1.75 1.75 0 0 0 .008.912 1.7 1.7 0 0 0-.396-.306l.007-.008c.199-.397.236-.84.117-1.264a1.74 1.74 0 0 0-.783-1.002l-.172-.1-.09.172c-.142.28-.198.586-.18.893a1.6 1.6 0 0 0-.324-.38l.008-.008a1.74 1.74 0 0 0-.188-2.358l-.143-.136-.116.154a1.7 1.7 0 0 0-.36.84 1.7 1.7 0 0 0-.235-.441l.008-.008a1.736 1.736 0 0 0 .307-2.34l-.117-.163-.153.126a1.63 1.63 0 0 0-.52.74 1.4 1.4 0 0 0-.136-.46c.352-.261.595-.642.674-1.065.082-.433 0-.875-.235-1.245l-.098-.161-.142.124a1.73 1.73 0 0 0-.675 1.076 1.5 1.5 0 0 0 0 .64 2 2 0 0 0-.576-.307l-.188-.053-.045.19c-.097.434-.026.876.188 1.256.217.378.576.661.991.786l.162.045q.029.201.098.407a1.63 1.63 0 0 0-.783-.262l-.188-.019v.199a1.714 1.714 0 0 0 1.576 1.745l.172.018c.045.135.108.262.18.37a1.7 1.7 0 0 0-.603-.108c-.072 0-.143 0-.217.008l-.188.026.037.19a1.72 1.72 0 0 0 1.692 1.402q.107.002.217-.008l.17-.019q.105.174.25.325a1.7 1.7 0 0 0-.82.072l-.179.063.072.18a1.7 1.7 0 0 0 .88.904c.225.1.46.153.692.153.188 0 .386-.037.566-.1l.135-.045c.225.19.476.38.828.624-.162.108-.334.217-.532.352l.341.208c.188-.127.36-.235.513-.343q.23.151.513.343l.341-.209c-.198-.126-.37-.243-.531-.351.351-.243.602-.434.827-.624l.135.045c.18.063.378.1.566.1a1.73 1.73 0 0 0 1.576-1.057l.07-.18-.18-.063a1.7 1.7 0 0 0-.819-.072q.145-.148.252-.325l.171.019q.107.01.217.008c.37 0 .711-.109 1.007-.326a1.8 1.8 0 0 0 .685-1.076l.037-.19-.19-.026q-.107-.01-.217-.008c-.206 0-.404.037-.603.108.072-.116.135-.243.18-.37l.172-.018a1.714 1.714 0 0 0 1.575-1.745v-.199l-.198.019c-.28.018-.547.116-.782.262.053-.127.082-.27.098-.407l.198-.045a1.73 1.73 0 0 0 1.176-2.04l-.045-.19-.187.054a1.7 1.7 0 0 0-.577.306 1.9 1.9 0 0 0 0-.64 1.75 1.75 0 0 0-.674-1.075l-.153-.117-.098.162c-.235.37-.315.811-.235 1.245.082.433.325.803.674 1.065a2 2 0 0 0-.135.46 1.74 1.74 0 0 0-.52-.74l-.154-.127-.117.164a1.72 1.72 0 0 0-.306 1.23c.053.433.28.83.613 1.11l.008.008c-.098.134-.18.28-.235.441a1.8 1.8 0 0 0-.36-.84l-.116-.154-.143.135c-.325.299-.52.706-.558 1.14a1.72 1.72 0 0 0 .37 1.21zm-8.494-3.234a1.35 1.35 0 0 1-.584-.542 1.4 1.4 0 0 1-.18-.785c.243.116.45.307.584.542a1.3 1.3 0 0 1 .18.785m.071-2.022c.053-.27.18-.516.378-.714.109.254.135.523.09.796-.053.27-.18.515-.378.714a1.4 1.4 0 0 1-.09-.796m.548 2.104a1.4 1.4 0 0 1 .333-.732c.127.243.171.515.134.796-.037.27-.153.523-.333.73a1.34 1.34 0 0 1-.134-.796zm-.521 1.652a1.5 1.5 0 0 1-.341-.732c.261.064.505.209.684.407.18.199.296.46.341.733a1.24 1.24 0 0 1-.684-.408m1.475-.415c.172.217.27.471.296.751.018.28-.045.55-.18.785a1.4 1.4 0 0 1-.296-.75 1.5 1.5 0 0 1 .18-.786m-.341 2.51a1.43 1.43 0 0 1-.487-.64c.27.007.532.1.757.261q.338.245.475.64a1.46 1.46 0 0 1-.748-.262zm1.348.081a1.37 1.37 0 0 1 .008-.803 1.37 1.37 0 0 1 .434 1.473 1.4 1.4 0 0 1-.442-.67m.198 1.727a1.35 1.35 0 0 1-.602-.532q.101-.016.2-.021.303-.01.59.119c.251.108.46.299.603.531a1.4 1.4 0 0 1-.793-.097zm1.901.36a1.32 1.32 0 0 1-.566-.57 1.36 1.36 0 0 1-.153-.776c.243.126.442.325.566.56a1.4 1.4 0 0 1 .153.785m1.565-.57a1.35 1.35 0 0 1-.565.57 1.26 1.26 0 0 1 .153-.786c.135-.243.333-.442.566-.569a1.4 1.4 0 0 1-.154.786m1.74-.343q.104.002.203.018a1.37 1.37 0 0 1-.602.532 1.3 1.3 0 0 1-.55.116q-.122-.002-.243-.018a1.37 1.37 0 0 1 1.192-.65zm-.209-1.174a1.43 1.43 0 0 1-.442.67 1.34 1.34 0 0 1-.007-.805c.082-.261.235-.497.441-.668.082.261.09.541.008.803m2.77-4.695c.135-.235.334-.423.585-.542.018.27-.045.542-.18.785a1.36 1.36 0 0 1-.584.542c-.019-.27.045-.542.18-.785m-.73-1.147c-.052-.27-.018-.55.09-.804a1.37 1.37 0 0 1 .288 1.517 1.44 1.44 0 0 1-.377-.713m.786 2.934a1.3 1.3 0 0 1-.341.732 1.3 1.3 0 0 1-.685.408c.037-.27.154-.524.341-.733a1.33 1.33 0 0 1 .685-.407m-1.324-.856c-.037-.27.008-.553.134-.796.18.209.297.46.333.732.037.27-.007.55-.134.796a1.4 1.4 0 0 1-.333-.73zm.325 3.043c-.09.253-.251.478-.476.64a1.37 1.37 0 0 1-.756.261 1.36 1.36 0 0 1 1.232-.902m-.82-1.88c.135.235.199.505.172.785a1.4 1.4 0 0 1-.296.75 1.47 1.47 0 0 1-.172-.784c.019-.28.127-.534.296-.751m.096-10.402h-.225c-.476 0-.954-.071-1.414-.135-.423-.063-.82-.119-1.18-.119-.359 0-.628.056-.864.164-.235-.108-.52-.164-.864-.164-.37 0-.764.064-1.18.12-.46.07-.935.134-1.41.134h-.226v.93H3.85v.543h.333v.74H3.85v.542h.333V5.68h.225c.513 0 1.015-.082 1.494-.153.415-.064.8-.127 1.126-.127.27 0 .468.037.621.119h.431c.153-.082.352-.119.621-.119.334 0 .72.063 1.124.127.486.071.991.153 1.494.153h.224V4.67h.334v-.542h-.334v-.74h.334v-.532h-.334v-.938zm-3.923.695L7.54 5.002a2.2 2.2 0 0 0-.521-.056c-.37 0-.775.064-1.198.127a9 9 0 0 1-1.142.135l.098-2.863a13 13 0 0 0 1.097-.127c.405-.063.783-.116 1.116-.116.262 0 .468.037.63.108v.397zM9.89 5.076c-.423-.064-.827-.127-1.198-.127q-.296 0-.52.055L8.09 2.612v-.397a1.6 1.6 0 0 1 .629-.108c.333 0 .711.053 1.116.116.351.053.719.1 1.097.127l.098 2.863a10 10 0 0 1-1.143-.135z"/><path d="M7.056 9.662h-2.52s-.018 0-.026.01c0 .019 0 .027.019.027l2.043 1.491-.782 2.43s0 .008.008.008h.008l2.062-1.5 2.06 1.5h.007s.008-.019 0-.019l-.782-2.419 2.043-1.491s.019-.008.008-.026q-.001-.011-.019-.011H8.659l-.782-2.411s-.008-.019-.019-.019c0 0-.018.008-.018.019zm.801-.722.468 1.182 1.258.082-.97.811.315 1.23-1.07-.677-1.072.677.315-1.23-.98-.811 1.268-.09zm77.457 14.43-.378-.185c-.217-.106-.34-.2-.34-.36 0-.174.187-.28.377-.28s.333.08.378.106l.127.341h.262v-.484a1.33 1.33 0 0 0-.703-.22c-.577.125-.902.318-.902.651 0 .273.198.455.415.56l.386.202c.251.132.36.22.36.404 0 .201-.135.368-.397.368a.77.77 0 0 1-.404-.122l-.172-.404h-.315l.09.544c.135.072.45.22.756.22.569-.122.928-.28.928-.72 0-.272-.135-.454-.468-.623zm-5.65-2.143-.298.079-1.224 3.125-.39.053.027.166.532-.018.595.018.026-.166-.434-.061.326-.904v.008h1.216l.333.904-.423.063.026.167.659-.019.684.019.027-.167-.389-.053-1.298-3.212zm-.766 2.062.55-1.536.037.264.468 1.272zm4.632 1.099c-.037-.08-.064-.15-.064-.36v-1.657l-.251.018-.55.122.026.185.3-.026v1.361l-.099.06c-.19.123-.388.247-.541.247-.244 0-.352-.106-.352-.36v-1.607l-.243.018-.595.122.026.185.352-.026v1.263c0 .56.108.79.766.79l.722-.438.135.394.64-.122-.019-.166h-.253zm-30.778-1.985-.43-.018-.027.166.225.053-.614 1.748-.037-.334-.55-1.414.326-.053-.027-.166h-1.56v-.606h-.126l-.326.315v.314h-.325l-.172.167v.08h.476v1.438c0 .438.072.631.632.631l.621-.333-.082-.166c-.134.06-.288.132-.433.132-.206 0-.262-.148-.262-.29V22.59h.748l.83 2.035.199-.06-.497.727h-.423v.5h.595l.557-1.22.801-1.974.315-.053-.026-.167-.416.019zm2.594-.096c-.767.132-1.217.534-1.217 1.263 0 .65.45 1.15 1.108 1.15.767-.121 1.216-.534 1.216-1.253 0-.658-.441-1.158-1.108-1.158zm.018 2.175c-.441 0-.738-.465-.73-1.017 0-.526.199-.923.603-.923.405 0 .73.412.73 1.026 0 .518-.206.912-.603.912zm-6.686-2.105-.243.018-.595.149.029.166.341-.026v1.766l-.341.042.026.166.569-.015.558.015.026-.166-.37-.042zm39.6-1.061-.045.228.026.272.135.026.352-.026.055-.23-.026-.27-.138-.029zm3.484-8.556c0-2.384-1.602-3.55-3.437-4.343l-2.672-1.163c-1.277-.56-2.187-1.354-2.187-2.639 0-1.562 1.09-2.564 2.935-2.564 1.395 0 2.141.516 2.744 1.147l.674 2.123h1.16V2.17C89.82 1.303 88.192.816 86.724.816c-3.23.677-5.562 2.168-5.562 4.714 0 2.078 1.377 3.151 3.05 3.873l2.816 1.237c1.396.606 2.422 1.518 2.422 3.107 0 1.707-1.16 2.96-3.16 2.96-1.305 0-2.582-.605-3.275-1.472l-.809-1.985h-1.628l.513 3.15c1.231.976 2.672 1.59 4.814 1.59 4.372-.912 5.858-3.035 5.858-5.23m-15.776 9.019h-.127l-.325.314v.315h-.325l-.172.166v.08h.476v1.438c0 .439.071.632.632.632l.576-.315-.082-.166c-.145.06-.254.113-.396.113-.207 0-.262-.148-.262-.29V22.65h.748v-.22h-.748v-.658zM74.8 24.377c-.045-.08-.082-.151-.082-.36v-.946c0-.606-.161-.764-.785-.764l-.883.394v.37h.423l.082-.386a1.2 1.2 0 0 1 .404-.088c.262 0 .289.175.289.466v.238l-1.119.36c-.108.147-.172.271-.172.446 0 .386.307.613.73.613l.587-.42.153.367.64-.121-.018-.167h-.252zm-.56-.254-.206.14a.6.6 0 0 1-.326.122c-.145 0-.288-.088-.288-.334 0-.105.027-.2.098-.272l.722-.29zM57.8 21.244l-.416.457a.9.9 0 0 0-.27.675v.045h-.288l-.153.166v.08h.433v1.781l-.351.045.026.167.569-.019.766.019.027-.185-.569-.035v-1.782h.622v-.227h-.622v-.122c0-.317.037-.457.109-.544l.098-.132h.64v-.386h-.622zM47.058 23.37l-.379-.185c-.216-.106-.343-.2-.343-.36 0-.174.19-.28.378-.28s.325.08.378.106l.127.341h.261v-.484a1.33 1.33 0 0 0-.703-.22c-.576.122-.901.318-.901.651 0 .273.198.455.415.56l.388.202c.262.132.36.22.36.404 0 .201-.135.368-.397.368a.8.8 0 0 1-.407-.122l-.172-.404h-.314l.09.544c.135.072.45.22.756.22.568-.122.928-.28.928-.72 0-.272-.135-.454-.468-.623zm22.127 1.007c-.045-.08-.082-.151-.082-.36v-.946c0-.606-.16-.764-.785-.764l-.901.394v.37h.423l.082-.386a1.2 1.2 0 0 1 .404-.088c.262 0 .288.175.288.466v.238l-1.118.36c-.108.147-.172.271-.172.446 0 .386.307.613.73.613l.595-.42.153.367.64-.121-.019-.167h-.243zm-.557-.254-.207.14a.6.6 0 0 1-.325.122c-.145 0-.288-.088-.288-.334 0-.105.026-.2.098-.272l.722-.29zm2.326-.753-.378-.185c-.217-.106-.341-.2-.341-.36 0-.174.187-.28.378-.28.19 0 .325.08.378.106l.127.341h.261v-.484a1.33 1.33 0 0 0-.703-.22c-.576.122-.901.318-.901.651 0 .273.198.455.415.56l.386.202c.261.132.36.22.36.404 0 .201-.136.368-.397.368a.77.77 0 0 1-.405-.122l-.172-.404h-.314l.09.544c.134.072.46.22.756.22.568-.122.928-.28.928-.72 0-.272-.135-.454-.468-.623zm-8.769-1.853.224.614h.188v-.852l-1.422.019-1.423-.019v.852h.196l.227-.614.746-.008v2.922l-.592.06.026.167.83-.016.801.016.019-.167-.569-.06v-2.922zm3.884 1.862.658-.775.36-.05-.027-.177-.516.018-.386-.018-.026.177.243.05-.47.661-.035-.124-.37-.537.198-.05-.026-.177-.468.018-.568-.018-.027.177.307.05.719.96-.73.875-.351.045.029.166.513-.018.386.018.029-.166-.243-.034.52-.738.037.114.442.624-.206.042.026.166.468-.015.568.015.027-.166-.307-.042zm-2.38.983c-.513 0-.82-.386-.82-.938v-.008h1.515v-.201c0-.5-.216-.904-.875-.904-.677.14-1.115.526-1.115 1.237 0 .764.53 1.176 1.134 1.176.314-.08.631-.22.864-.378l-.082-.185c-.19.114-.423.201-.621.201m-.288-1.819c.388 0 .46.265.46.632l-.992.042c.037-.404.233-.676.532-.676zm28.219 1.905v-1.343c0-.58-.11-.79-.738-.79l-.73.465-.026-.405-.217.019-.595.148.026.166.341-.026v1.763l-.34.045.026.167.566-.019.467.027.027-.167-.27-.042v-1.43l.154-.098c.171-.114.34-.22.512-.22.207 0 .326.106.326.36v1.377l-.252.045.027.167.476-.019.568.019.027-.167-.378-.045zM27.888 2.33l3.482.044 1.07 2.964h.91V1.21l-6.696.071-6.675-.071v4.127h.909l1.068-2.964 3.484-.045v14.144l-2.789.307.117.811 3.904-.071 3.77.071.12-.811-2.674-.307zm1.483 22.032c-.513 0-.82-.386-.82-.938v-.008h1.505v-.201c0-.5-.217-.904-.875-.904-.677.14-1.119.526-1.119 1.237 0 .764.543 1.176 1.145 1.176.315-.08.632-.22.865-.378l-.082-.185c-.19.114-.423.201-.621.201zm-.288-1.819c.389 0 .46.265.46.632l-.991.042c.037-.404.224-.676.531-.676zm-1.605.617c0-.614-.108-.844-.737-.844l-.722.457v-1.562h-.172l-.531.06-1.216.009-1.425-.008v.851h.188l.224-.605.748-.019v2.924l-.594.06.026.167.83-.018.801.018.03-.166-.57-.061v-2.924l1.01.019.18-.027v2.958l-.296.045.027.167.523-.019.468.019.027-.167-.27-.045v-1.43l.143-.087c.18-.114.37-.22.523-.22.198 0 .315.106.315.36v1.377l-.243.045.026.167.468-.019.558.008.026-.166-.37-.045v-1.282zm19.712-5.569.81-4.317h-.883l-1.557 3.154-6.398.071V9.491l3.258.1.928 2.446h.819l-.235-3.151.235-2.916h-.82l-.928 2.445-3.257.1V2.303l6.166.071 1.303 3.035h.793l-.235-4.198-9.232.071-3.212-.071-.119.812 2.099.306v14.144l-2.099.307.119.811 3.212-.071zm-9.235 3.725-.045.228.03.272.134.026.35-.026.055-.23-.027-.27-.134-.029zm-3.865-.03-.631-.018-.027.166.434.053v2.02c0 .624-.288.957-.801.957-.569 0-.83-.341-.83-.939v-2.027l.422-.061-.026-.167-.677.019-.684-.019-.027.167.452.06v1.957c0 .772.352 1.282 1.325 1.282.991-.227 1.253-.64 1.253-1.271v-1.967l.423-.061-.027-.167-.576.019zm8.68 3.076c-.514 0-.82-.386-.82-.938v-.008h1.504v-.201c0-.5-.217-.904-.875-.904-.677.14-1.116.526-1.116 1.237 0 .764.54 1.176 1.145 1.176.315-.08.632-.22.865-.378l-.082-.185c-.19.114-.423.201-.622.201m-.28-1.819c.388 0 .46.265.46.632l-.992.042c.037-.404.224-.676.531-.676zm46.249-.166-.244.018-.595.149.027.166.34-.026v1.766l-.34.042.026.166.569-.015.558.015.026-.166-.368-.042zm-8.288-5.571-1.819-.254-6.075-15.55-1.393.397-5.769 15.127-1.116.153-1.115-.172-5.166-7.63 4.77-6.582 1.816-.254-.117-.814-2.717.074-2.718-.074-.117.814 2.026.307-3.691 5.446-3.284-5.465 1.98-.307-.116-.814-3.302.09-3.328-.09-.116.814 1.819.254 4.814 7.305-5.02 6.934-1.82.254.117.84 2.601-.074 2.718.075.116-.841-1.908-.28 3.968-5.817 3.616 5.798-1.98.307.116.84 3.329-.073 2.718.055 1.908-.055 2.79.073.116-.814-2.025-.306 1.512-4.363h5.742l1.583 4.363-1.98.306.117.814 3.069-.073 3.212.073.116-.814zm-11.5-5.798 2.41-6.998 2.538 6.998zM38.434 22.377l-.251.018-.595.149.026.166.344-.026v1.766l-.344.042.027.166.568-.015.569.015.026-.166-.37-.042zm-1.378.728c0-.58-.108-.79-.737-.79l-.73.465-.026-.405-.217.019-.595.148.026.166.341-.026v1.763l-.34.045.026.167.568-.019.476.027.026-.167-.27-.042v-1.43l.144-.098c.172-.114.343-.22.513-.22.206 0 .325.106.325.36v1.377l-.252.045.027.167.476-.019.568.019.027-.167-.378-.045v-1.343zm4.397-.728-.415.018-.431-.018-.03.167.228.052-.605 1.748-.019-.333-.54-1.415.326-.052-.03-.167-.52.018-.568-.018-.027.167.307.052.864 2.134.36-.148.812-1.986.314-.052zm45.447-.598h-.127l-.325.314v.315h-.325l-.172.166v.08h.479v1.438c0 .439.071.632.631.632l.577-.315-.082-.166c-.135.06-.243.113-.386.113-.206 0-.262-.148-.262-.29V22.65h.738v-.22h-.748v-.658zm-41.762.555-.568.677-.019-.64-.198.018-.595.151.027.167.34-.027v1.764l-.34.044.026.167.558-.018.722.018.026-.185-.523-.042v-1.15l.097-.114c.135-.159.352-.315.468-.341h.37v-.484h-.396zm3.199-.492.349-.026.055-.23-.026-.27-.138-.029-.36.03-.044.227.026.272zM9.393 2.953v-.37a7 7 0 0 0-.457-.042 3 3 0 0 0-.431.005l.008.36c.261-.02.557 0 .88.044zM8.568 4.19l.008.361c.296-.018.648.019 1.015.072v-.36a5.4 5.4 0 0 0-1.026-.074zm.754-.426v-.362a6 6 0 0 0-.783-.037l.008.362c.235-.018.494 0 .772.037zm1.25-.198c-.225-.026-.45-.063-.674-.09-.098-.018-.206-.029-.307-.045v.37c.082.008.172.027.251.038.244.037.487.07.738.097zm-4.418-.964v.37c.386-.053.738-.09 1.045-.063l.007-.36a4 4 0 0 0-.248-.016c-.256 0-.526.03-.804.069m3.752 1.697s-.019 0-.037-.008v.378H9.86c.243.037.494.074.756.1l-.008-.37c-.243-.026-.476-.063-.703-.097zm.648-1.193-.008-.37q-.324-.038-.648-.09a2 2 0 0 1-.235-.037v.37c.063.008.116.019.18.027.235.037.467.071.71.098zm-3.694.257a9 9 0 0 0-1.03.114v.37c.018 0 .026 0 .044-.008.486-.072.928-.135 1.295-.109l.008-.362a3 3 0 0 0-.317-.005m-.975-.354v-.37c-.027.008-.045.008-.072.008-.216.037-.43.063-.647.09l-.008.37c.243-.027.476-.064.71-.098h.02zm-.325.505h-.008c-.135.018-.28.037-.415.053l-.008.37.43-.053zm.325.786c-.026 0-.045.007-.063.007q-.352.057-.704.098l-.008.37c.262-.026.521-.063.775-.1h.018v-.378h-.018zm.27-.038v.37c.359-.053.692-.09.98-.072l.008-.362c-.306-.018-.64.019-.991.063z"/></g><defs><clipPath id="a"><path fill="#000" d="M0 0h92v25.8H0z"/></clipPath></defs></svg>