<svg xmlns="http://www.w3.org/2000/svg" fill="none" viewBox="0 0 180 32"><g clip-path="url(#a)"><path fill="#000" d="M70.196 12.19V8.75c0-.858-.376-1.27-.76-1.391-.265-.082-.386-.041-.386-.183 0-.09.061-.11.224-.11.365 0 .638.02 1.063.02.426 0 .7-.02 1.065-.02.162 0 .223.02.223.11 0 .142-.122.1-.385.183-.385.12-.76.533-.76 1.39v5.195c0 .071-.042.142-.122.142a.25.25 0 0 1-.202-.1l-4.319-5.69v3.964c0 .857.375 1.27.76 1.392.264.08.385.041.385.181 0 .091-.06.111-.222.111-.366 0-.64-.02-1.065-.02-.426 0-.7.02-1.064.02-.162 0-.224-.02-.224-.11 0-.141.122-.102.386-.182.386-.121.76-.535.76-1.392V7.944c-.588-.839-1.135-.546-1.135-.738 0-.11.07-.14.222-.14.244 0 .448.02.771.02h.944zm60.863 1.007V7.81c0-.676-.842-.353-.842-.605 0-.121.062-.141.223-.141.356 0 .619.02 1.227.02 2.24 0 2.991-.02 3.639-.02l.488 1.886c.04.13.06.211.06.262 0 .07-.02.1-.082.1-.121 0-.09-.251-.587-.957-.618-.878-1.48-1.05-2.687-1.05h-.223v2.966h.223c.872 0 1.531-.343 1.531-1.361 0-.152.051-.193.122-.193.081 0 .122.041.122.193v3.015c0 .152-.041.182-.122.182-.071 0-.122-.03-.122-.181 0-1.06-.659-1.413-1.531-1.413h-.223v2.684c0 .676.842.352.842.605 0 .12-.061.14-.223.14-.355 0-.619-.02-1.227-.02s-.871.02-1.227.02c-.161 0-.223-.02-.223-.14 0-.253.842.07.842-.605m-4.989-6.275c1.713 0 3.64 1.322 3.64 3.582s-1.927 3.58-3.64 3.58-3.639-1.321-3.639-3.58 1.925-3.582 3.639-3.582m2.301 3.582c0-2.28-.974-3.34-2.301-3.34s-2.301 1.06-2.301 3.34.974 3.338 2.301 3.338 2.301-1.06 2.301-3.338m-10.182-1.955-1.348 2.007v2.641c0 .677.922.354.922.606 0 .121-.14.141-.303.141-.355 0-.619-.02-1.227-.02s-.872.02-1.226.02c-.162 0-.263-.02-.263-.14 0-.253.881.07.881-.607v-2.329l-1.653-2.945c-.405-.727-.962-.544-.962-.747 0-.08.051-.11.152-.11.466 0 .922.02 1.389.02.385 0 .77-.02 1.134-.02.224 0 .275.05.275.14 0 .203-.649 0-.649.515 0 .131.07.374.161.535l1.207 2.179c.862-1.241 1.368-1.968 1.368-2.543 0-.766-.709-.494-.709-.716 0-.08.051-.11.223-.11.294 0 .7.02 1.003.02.305 0 .609-.02.862-.02.173 0 .264.03.264.12 0 .173-.537-.06-1.501 1.363m-7.958-1.22v5.868c0 .677 1.004.354 1.004.606 0 .121-.102.141-.264.141-.476 0-.74-.02-1.348-.02s-.872.02-1.348.02c-.162 0-.264-.02-.264-.14 0-.253 1.004.07 1.004-.607l-.011-5.869c-1.024 0-1.905.897-2.3 1.714-.112.232-.163.364-.224.364-.071 0-.091-.041-.091-.082 0-.12.061-.363.101-.555l.325-1.653c.011-.06.02-.192.112-.192.061 0 .08.04.131.081.061.04.152.081.365.081h4.389c.213 0 .304-.04.365-.081.051-.04.07-.081.132-.081.091 0 .102.131.111.192l.326 1.653c.04.192.101.435.101.555 0 .041-.02.082-.091.082-.062 0-.112-.132-.224-.364-.395-.817-1.277-1.714-2.301-1.714m-6.496 5.868V7.811c0-.675-.84-.352-.84-.605 0-.12.06-.14.222-.14.355 0 .618.02 1.227.02.608 0 .872-.02 1.226-.02.163 0 .224.02.224.14 0 .253-.842-.07-.842.605v5.386c0 .677.842.354.842.606 0 .121-.061.141-.224.141-.354 0-.618-.02-1.226-.02-.609 0-.872.02-1.227.02-.162 0-.222-.02-.222-.14 0-.253.84.07.84-.607m-6.643.728V11.15c0-.091.05-.121.102-.121.09 0 .11.082.142.303.172 1.241.708 2.511 2.047 2.511 1.013 0 1.469-.605 1.469-1.29 0-2.038-3.76-1.21-3.76-3.693 0-1.049.972-1.936 2.129-1.936.901 0 1.246.404 1.642.404.293 0 .161-.323.353-.323.072 0 .092.04.102.151.132 1.412.173 2.109.173 2.24 0 .1-.051.14-.111.14-.082 0-.102-.13-.133-.241-.343-1.15-.891-2.129-2.037-2.129-.77 0-1.226.455-1.226 1.09 0 1.856 3.761 1.23 3.761 3.68 0 1.07-.771 2.15-2.423 2.15-.74 0-1.42-.384-1.683-.384-.415 0-.264.344-.456.344-.041 0-.091-.021-.091-.121m-5.32-6.618v3.208h.467c1.095 0 1.673-.454 1.673-1.624 0-1.16-.578-1.584-1.542-1.584zm-1.215 5.89V7.811c0-.675-.842-.352-.842-.605 0-.12.06-.14.223-.14.355 0 .619.02 1.227.02.547 0 .942-.02 1.338-.02 1.976 0 2.747.928 2.747 1.794 0 1.02-.993 1.645-2.454 1.766.974.11 1.42.273 1.926 1.291l.559 1.13c.435.867 1.165.525 1.165.776 0 .091-.061.121-.203.121s-.841-.01-1.743-.02l-.882-1.634c-.71-1.311-.912-1.533-1.683-1.533h-.163v2.44c0 .677.842.354.842.606 0 .121-.061.141-.223.141-.355 0-.619-.02-1.226-.02-.608 0-.873.02-1.227.02-.163 0-.223-.02-.223-.14 0-.253.842.07.842-.607m-6.92 0V7.811c0-.675-.841-.352-.841-.605 0-.12.06-.14.223-.14.355 0 .618.02 1.227.02 2.24 0 2.99-.02 3.72-.02l.487 1.885c.04.132.06.213.06.263 0 .07-.02.1-.08.1-.122 0-.092-.25-.589-.958-.618-.876-1.48-1.05-2.686-1.05h-.304v2.967h.223c.872 0 1.53-.343 1.53-1.362 0-.151.051-.192.122-.192.08 0 .121.041.121.192v3.016c0 .151-.04.182-.12.182-.072 0-.123-.03-.123-.182 0-1.059-.658-1.412-1.53-1.412h-.223v2.622c0 .384.242.565.852.565 1.875 0 2.676-1.23 2.97-2.229.05-.152.08-.202.15-.202.073 0 .093.05.093.102 0 .06 0 .151-.03.293l-.427 2.278c-.84 0-1.703-.02-4.216-.02-.609 0-.872.02-1.227.02-.162 0-.223-.02-.223-.14 0-.253.841.07.841-.607m-5.843-5.052 1.683 4.417 1.267-3.388c.182-.505.232-.778.232-1.07 0-.958-.88-.635-.88-.918 0-.09.05-.12.202-.12.222 0 .547.02.972.02.427 0 .75-.02 1.075-.02.254 0 .314.01.314.12 0 .263-.831-.08-1.48 1.583l-2.006 5.165c-.041.112-.082.152-.153.152s-.111-.04-.152-.152l-2.432-5.99c-.346-.848-.883-.505-.883-.758 0-.07.052-.12.244-.12.172 0 .607.02 1.004.02.618 0 .982-.02 1.408-.02.173 0 .234.02.234.12 0 .263-.75-.06-.75.565 0 .081.05.263.101.394m-4.477 5.052V7.811c0-.675-.842-.352-.842-.605 0-.12.061-.14.223-.14.355 0 .619.02 1.227.02.607 0 .872-.02 1.226-.02.163 0 .224.02.224.14 0 .253-.843-.07-.843.605v5.386c0 .677.843.354.843.606 0 .121-.061.141-.224.141-.354 0-.619-.02-1.226-.02-.608 0-.872.02-1.227.02-.162 0-.223-.02-.223-.14 0-.253.842.07.842-.607M57.75 12.078V7.811c0-.675-.843-.352-.843-.605 0-.12.06-.14.224-.14.354 0 .618.02 1.226.02s.872-.02 1.226-.02c.162 0 .224.02.224.14 0 .253-.842-.07-.842.605v4.278c0 1.058.74 1.694 1.845 1.694 1.196 0 1.814-.705 1.814-1.916V8.75c0-.858-.375-1.27-.76-1.391-.264-.082-.385-.041-.385-.183 0-.09.061-.11.223-.11.365 0 .639.02 1.064.02s.7-.02 1.065-.02c.162 0 .223.02.223.11 0 .142-.122.1-.385.183-.386.12-.76.533-.76 1.39v3.097c0 1.412-.822 2.24-2.403 2.24-1.876 0-2.757-.868-2.757-2.008m54.058 11.326v-3.44c0-.857-.374-1.27-.761-1.392-.263-.08-.385-.04-.385-.182 0-.09.062-.11.223-.11.365 0 .639.02 1.065.02s.699-.02 1.065-.02c.162 0 .222.02.222.11 0 .142-.121.101-.385.182-.385.122-.76.535-.76 1.393v5.194c0 .07-.04.142-.122.142a.25.25 0 0 1-.202-.102l-4.319-5.689v3.965c0 .857.375 1.27.76 1.392.264.08.386.04.386.18 0 .091-.061.112-.223.112-.365 0-.639-.02-1.065-.02s-.699.02-1.065.02c-.162 0-.222-.02-.222-.112 0-.14.121-.1.385-.18.385-.121.761-.535.761-1.392v-4.318c-.588-.837-1.136-.544-1.136-.737 0-.11.072-.14.223-.14.243 0 .446.02.771.02h.942zm-10.356-4.882h.598c.963 0 1.541.424 1.541 1.584 0 1.17-.578 1.624-1.673 1.624h-.466zm-1.216 5.89c0 .676-.842.354-.842.605 0 .121.062.142.224.142.353 0 .618-.02 1.226-.02s.871.02 1.227.02c.162 0 .223-.02.223-.142 0-.251-.842.071-.842-.605v-2.44h.162c.771 0 .973.221 1.683 1.533l.883 1.633c.901.01 1.601.021 1.743.021s.202-.03.202-.12c0-.253-.73.09-1.165-.778l-.558-1.129c-.506-1.02-.953-1.18-1.926-1.291 1.46-.121 2.453-.747 2.453-1.766 0-.866-.771-1.796-2.746-1.796-.396 0-.792.02-1.339.02-.608 0-.873-.02-1.226-.02-.162 0-.224.02-.224.141 0 .254.842-.069.842.606zm-6.714 0v-5.386c0-.675-.841-.352-.841-.606 0-.12.06-.14.222-.14.355 0 .619.02 1.226.02 2.24 0 2.991-.02 3.721-.02l.486 1.886c.04.13.062.212.062.262 0 .072-.021.1-.082.1-.121 0-.091-.252-.588-.957-.618-.877-1.48-1.05-2.685-1.05h-.306v2.966h.224c.871 0 1.53-.342 1.53-1.362 0-.151.052-.191.123-.191.08 0 .12.04.12.191v3.016c0 .151-.04.182-.12.182-.072 0-.122-.03-.122-.182 0-1.06-.66-1.411-1.531-1.411h-.224v2.622c0 .384.244.565.853.565 1.874 0 2.676-1.231 2.969-2.229.05-.152.081-.202.153-.202.07 0 .091.05.091.1 0 .061 0 .152-.03.293l-.426 2.28c-.842 0-1.703-.02-4.218-.02-.607 0-.87.02-1.226.02-.162 0-.222-.02-.222-.142 0-.251.84.071.84-.605m-3.844-2.763h-2.93v2.763c0 .676.842.354.842.605 0 .121-.062.142-.223.142-.355 0-.619-.02-1.227-.02s-.872.02-1.226.02c-.163 0-.224-.02-.224-.142 0-.251.843.071.843-.605v-5.386c0-.675-.843-.352-.843-.606 0-.12.061-.14.224-.14.354 0 .618.02 1.226.02s.873-.02 1.227-.02c.161 0 .223.02.223.14 0 .254-.842-.069-.842.606v2.38h2.93v-2.38c0-.675-.841-.352-.841-.606 0-.12.06-.14.223-.14.354 0 .618.02 1.226.02s.872-.02 1.227-.02c.162 0 .224.02.224.14 0 .254-.843-.069-.843.606v5.386c0 .676.843.354.843.605 0 .121-.062.142-.224.142-.355 0-.619-.02-1.227-.02s-.872.02-1.226.02c-.162 0-.223-.02-.223-.142 0-.251.841.071.841-.605zm-8.019-3.107v5.87c0 .676 1.004.354 1.004.605 0 .121-.101.142-.263.142-.477 0-.74-.02-1.35-.02-.607 0-.87.02-1.346.02-.163 0-.265-.02-.265-.142 0-.251 1.004.071 1.004-.605l-.01-5.87c-1.024 0-1.906.898-2.301 1.715-.112.232-.162.362-.223.362-.072 0-.092-.04-.092-.08 0-.121.062-.363.102-.555l.324-1.655c.01-.059.02-.19.112-.19.06 0 .08.04.131.08.061.041.153.08.365.08h4.39c.212 0 .303-.039.365-.08.05-.04.071-.08.131-.08.092 0 .102.131.112.19l.325 1.655c.04.192.1.434.1.555 0 .04-.02.08-.09.08-.06 0-.112-.13-.224-.362-.395-.817-1.276-1.715-2.3-1.715m-10.069 4.75v-4.266c0-.675-.84-.352-.84-.606 0-.12.06-.14.222-.14.355 0 .618.02 1.226.02.609 0 .872-.02 1.227-.02.162 0 .222.02.222.14 0 .254-.84-.069-.84.606v4.277c0 1.06.74 1.694 1.845 1.694 1.196 0 1.814-.706 1.814-1.916v-3.116c0-.858-.375-1.271-.76-1.393-.264-.08-.386-.04-.386-.182 0-.09.06-.11.224-.11.365 0 .638.02 1.064.02s.699-.02 1.065-.02c.161 0 .222.02.222.11 0 .142-.121.101-.385.182-.386.122-.76.535-.76 1.393v3.096c0 1.412-.821 2.24-2.402 2.24-1.876 0-2.758-.869-2.758-2.009m-4.775-5.153c1.713 0 3.639 1.321 3.639 3.58s-1.926 3.582-3.64 3.582c-1.712 0-3.638-1.322-3.638-3.581s1.926-3.581 3.639-3.581m2.301 3.58c0-2.28-.973-3.338-2.301-3.338s-2.302 1.059-2.302 3.339c0 2.279.973 3.338 2.302 3.338 1.328 0 2.301-1.06 2.301-3.338M57.71 25.14v-2.774c0-.091.051-.121.101-.121.092 0 .112.08.143.303.172 1.24.71 2.511 2.048 2.511 1.014 0 1.47-.606 1.47-1.29 0-2.038-3.762-1.212-3.762-3.693 0-1.049.974-1.936 2.13-1.936.902 0 1.247.403 1.641.403.295 0 .164-.323.356-.323.07 0 .09.041.101.151.131 1.413.172 2.109.172 2.24 0 .1-.05.141-.112.141-.08 0-.1-.132-.131-.242-.345-1.15-.892-2.128-2.038-2.128-.77 0-1.226.453-1.226 1.09 0 1.855 3.761 1.23 3.761 3.68 0 1.07-.771 2.15-2.423 2.15-.74 0-1.42-.384-1.683-.384-.416 0-.264.343-.456.343-.04 0-.092-.02-.092-.122m118.478-2.704-1.095-2.481-.952 2.481zm.101.242h-2.25c-.274.777-.405 1.07-.405 1.363 0 1.007.841.765.841 1.007 0 .111-.05.111-.162.111-.213 0-.457-.02-1.146-.02-.334 0-.659.02-1.024.02-.102 0-.132-.04-.132-.12 0-.182.396-.082.68-.324.264-.22.598-.755.871-1.44 1.217-3.028 1.389-3.4 1.389-3.482 0-.07-.244-.262-.244-.382 0-.151.173-.131.457-.727.213-.444.162-.585.294-.585s.132.333.73 1.664l2.159 4.75c.263.596.75.304.75.525 0 .111-.071.122-.172.122-.406 0-.811-.02-1.216-.02s-.802.02-1.217.02c-.102 0-.162-.03-.162-.122 0-.251.709.041.709-.504 0-.09-.101-.393-.172-.545zm-6.526 1.735v-5.386c0-.675-.84-.352-.84-.606 0-.12.06-.14.222-.14.355 0 .618.02 1.227.02.608 0 .872-.02 1.226-.02.163 0 .224.02.224.14 0 .254-.842-.069-.842.606v5.386c0 .676.842.354.842.605 0 .121-.061.142-.224.142-.354 0-.618-.02-1.226-.02-.609 0-.872.02-1.227.02-.162 0-.222-.02-.222-.142 0-.251.84.071.84-.605m-2.916-1.008v-3.44c0-.857-.374-1.27-.759-1.392-.265-.08-.386-.04-.386-.182 0-.09.061-.11.224-.11.364 0 .638.02 1.063.02.426 0 .7-.02 1.064-.02.163 0 .224.02.224.11 0 .142-.122.101-.386.182-.385.122-.76.535-.76 1.393v5.194c0 .07-.04.142-.121.142a.25.25 0 0 1-.203-.102l-4.318-5.689v3.965c0 .857.375 1.27.76 1.391.263.081.385.04.385.181 0 .091-.061.111-.223.111-.364 0-.638-.02-1.064-.02s-.7.02-1.064.02c-.162 0-.224-.02-.224-.11 0-.142.122-.1.385-.182.385-.121.761-.534.761-1.391v-4.318c-.588-.837-1.136-.544-1.136-.737 0-.11.072-.14.224-.14.243 0 .446.02.769.02h.944zm-10.458-4.882h.598c.963 0 1.541.423 1.541 1.584 0 1.17-.578 1.623-1.673 1.623h-.466zm-1.215 5.89c0 .676-.842.354-.842.605 0 .121.06.142.224.142.353 0 .618-.02 1.225-.02s.872.02 1.226.02c.163 0 .224-.02.224-.142 0-.251-.842.071-.842-.605v-2.44h.162c.771 0 .974.22 1.683 1.533l.882 1.633c.902.01 1.602.02 1.744.02s.203-.03.203-.12c0-.252-.73.09-1.166-.777l-.558-1.129c-.506-1.02-.953-1.18-1.925-1.293 1.459-.12 2.453-.745 2.453-1.764 0-.868-.771-1.796-2.748-1.796-.396 0-.79.02-1.338.02-.607 0-.872-.02-1.225-.02-.164 0-.224.02-.224.141 0 .254.842-.069.842.606zm-4.991-6.273c1.715 0 3.64 1.321 3.64 3.58s-1.925 3.582-3.64 3.582c-1.711 0-3.638-1.322-3.638-3.581s1.927-3.581 3.638-3.581m2.302 3.58c0-2.28-.973-3.34-2.302-3.34-1.327 0-2.3 1.06-2.3 3.34s.973 3.34 2.3 3.34c1.329 0 2.302-1.06 2.302-3.34m-11.175 2.693v-5.386c0-.675-.842-.352-.842-.606 0-.12.06-.14.224-.14.353 0 .618.02 1.226.02 2.24 0 2.99-.02 3.639-.02l.486 1.886c.04.13.061.21.061.262 0 .07-.021.1-.081.1-.122 0-.091-.252-.588-.957-.618-.877-1.481-1.05-2.686-1.05h-.224v2.966h.224c.871 0 1.53-.343 1.53-1.362 0-.151.05-.191.121-.191.082 0 .122.04.122.191v3.016c0 .151-.04.182-.122.182-.071 0-.121-.03-.121-.182 0-1.06-.659-1.412-1.53-1.412h-.224v2.683c0 .676.842.354.842.605 0 .121-.061.142-.223.142-.355 0-.619-.02-1.226-.02-.608 0-.873.02-1.226.02-.164 0-.224-.02-.224-.142 0-.251.842.071.842-.605m-4.118 0v-5.386c0-.675-.841-.352-.841-.606 0-.12.06-.14.222-.14.356 0 .619.02 1.228.02.608 0 .871-.02 1.226-.02.162 0 .222.02.222.14 0 .254-.84-.069-.84.606v5.386c0 .676.84.354.84.605 0 .121-.06.142-.222.142-.355 0-.618-.02-1.226-.02-.609 0-.872.02-1.228.02-.162 0-.222-.02-.222-.142 0-.251.841.071.841-.605m-6.1 0v-5.386c0-.675-.841-.352-.841-.606 0-.12.061-.14.223-.14.355 0 .618.02 1.227.02s.871-.02 1.227-.02c.161 0 .222.02.222.14 0 .254-.84-.069-.84.606v5.175c0 .574.262.716.769.716 1.582 0 2.463-1.231 2.758-2.229.05-.152.081-.202.151-.202.071 0 .092.05.092.1 0 .061 0 .152-.03.293l-.426 2.28c-.79 0-1.673-.02-3.923-.02-.609 0-.872.02-1.227.02-.162 0-.223-.02-.223-.142 0-.251.841.071.841-.605m-3.896-1.977-1.094-2.481-.953 2.481zm.101.242h-2.249c-.274.777-.406 1.07-.406 1.363 0 1.007.841.765.841 1.007 0 .111-.05.111-.162.111-.213 0-.456-.02-1.145-.02-.335 0-.659.02-1.024.02-.102 0-.132-.04-.132-.12 0-.182.396-.082.679-.324.264-.22.598-.755.872-1.44 1.215-3.028 1.388-3.4 1.388-3.482 0-.07-.243-.262-.243-.382 0-.151.173-.131.457-.727.213-.444.162-.585.294-.585s.132.333.729 1.664l2.159 4.75c.265.596.75.304.75.525 0 .111-.07.122-.171.122-.406 0-.812-.02-1.217-.02s-.801.02-1.217.02c-.102 0-.162-.03-.162-.122 0-.251.711.041.711-.504 0-.09-.103-.393-.173-.545zm-4.872-4.226v2.502c0 .1-.021.19-.092.19-.101 0-.101-.09-.152-.3-.223-1.09-1.084-2.463-2.473-2.463-1.186 0-2.16 1.12-2.16 3.34 0 2.268.974 3.338 2.18 3.338 1.166 0 2.27-1.16 2.493-2.4.031-.152.051-.234.153-.234.07 0 .091.092.091.192v2.492c0 .101-.021.193-.142.193-.244 0-.061-.485-.487-.485-.385 0-1.013.485-2.25.485-1.845 0-3.376-1.554-3.376-3.581 0-2.049 1.815-3.581 3.457-3.581 1.237 0 1.846.594 2.21.594.365 0 .213-.473.436-.473.091 0 .112.091.112.191M.917 30.88h48.12v.184H.917zm.001-1.405h48.12v.741H.918zM.904.928h48.12v.185H.903zm0 .862H49.02v.742H.904zm47.003 15.597h.541c0 2.624-.42 4.563-1.546 5.883-1.063 1.243-2.685 1.943-4.992 1.943-9.505 0-9.322-8.91-9.322-9.25 0-2.76.854-5.252 2.64-6.982 2.634-2.55 6.493-2.348 7.281-2.348.72 0 2.288.033 5.66.556v5.502h-.342c0-2.402-1.093-5.674-5.832-5.674-2.8 0-5.074 2.23-5.074 8.936 0 6.599 2.7 8.813 5.09 8.813.967 0 3.401-.09 4.786-2.219.722-1.11 1.11-2.728 1.11-5.16m-28.939-.274h.197c0 6.642 4.098 7.704 6.161 7.704 1.754 0 3.21-1.062 3.21-3.987 0-5.085-9.785-2.404-9.785-9.08 0-4.31 3.384-5.117 6.784-5.117.883 0 2.869.034 5.468.547l.006 5.5h-.204c0-3.769-2.39-5.667-5.207-5.667-1.668 0-3.162.636-3.162 3.478 0 4.198 9.851 1.49 9.851 8.61 0 3.86-3.042 6.096-7.05 6.096-2.342 0-5.21-.4-6.269-.782zM4.01 11.043c0-3.384-2.132-3.817-3.033-3.817v-.17h9.91v.17c-.489 0-2.849-.128-2.849 3.818v9.035c0 .13 0 .91.034 1.31.21 2.396 2.3 3.295 3.683 3.295 3.56 0 4.64-1.886 4.95-3.343.139-.642.146-1.407.146-1.84l-.001-8.457c0-2.791-1.388-3.818-3.02-3.818v-.17h6.357v.17c-2.029 0-2.865 1.608-2.865 3.818v8.445c0 .32.014 1.204-.145 1.986-.392 1.941-1.887 3.738-5.412 3.738-3.293 0-7.755-.493-7.755-4.42z"/></g><defs><clipPath id="a"><path fill="#000" d="M0 0h180v31.992H0z"/></clipPath></defs></svg>