<svg xmlns="http://www.w3.org/2000/svg" fill="none" viewBox="0 0 67 31"><path fill="#000" fill-rule="evenodd" d="M66.743 21.825a.38.38 0 0 0-.239-.08.58.58 0 0 0-.4.177l-.018.019-.014.022c-1.49 2.342-2.74 3.904-3.832 4.88-1.091.973-2.007 1.345-2.836 1.345-.468 0-.736-.136-.896-.33-.168-.206-.253-.523-.253-.962 0-.688.202-1.503.523-2.354a19 19 0 0 1 1.144-2.427c1.6-.475 3.472-1.33 4.694-2.407l.002-.002.002-.002c.436-.4.808-.817 1.072-1.236.263-.419.428-.855.428-1.288 0-.327-.092-.67-.342-.93-.252-.264-.633-.412-1.142-.412-1.008 0-2.291.48-3.525 1.294-1.24.817-2.459 1.99-3.333 3.41a10 10 0 0 0-.766 1.513c-1.437 2.146-2.664 3.685-3.77 4.686-1.109 1.005-2.071 1.447-2.979 1.447-.423 0-.686-.138-.85-.343-.172-.213-.264-.534-.264-.95 0-.806.27-1.777.72-2.828.447-1.048 1.063-2.158 1.735-3.238.762-1.222 1.518-2.276 2.203-3.02.342-.374.66-.663.947-.857.29-.197.525-.281.705-.281.19 0 .36.11.54.365.18.257.334.61.505 1.005l.247.57 1.116-2.03-.163-.124c-.51-.393-1.204-.62-1.996-.62-2.71 0-5.373 2.03-6.857 4.42a12.5 12.5 0 0 0-.913 1.74l-1.151 1.78c-.84 1.304-1.568 2.425-2.286 3.222-.72.798-1.39 1.224-2.105 1.224-.299 0-.502-.078-.628-.192-.123-.11-.201-.281-.201-.53 0-.332.066-.645.535-1.495.472-.855 1.33-2.218 2.88-4.64v-.001L47.88 16.8l-.128-.642H43.49l-.064.048a.7.7 0 0 0-.212.244.6.6 0 0 0-.061.267v.239h1.507l-1.72 2.73c-.5.799-.944 1.53-1.313 2.237l-.001.001-.984 1.457c-1 1.482-1.852 2.728-2.664 3.606-.816.882-1.548 1.343-2.299 1.343-.262 0-.438-.07-.546-.168-.105-.097-.176-.25-.176-.483 0-.275.108-.622.426-1.17.316-.547.825-1.267 1.59-2.281l1.103-1.46c1.44-1.908 1.863-3.025 1.863-4.45 0-.69-.098-1.303-.362-1.749-.276-.467-.72-.731-1.335-.731-.818 0-1.709.417-2.641 1.133-.937.72-1.945 1.763-3.002 3.066l-.025.03h-.322v-1.855c0-.68-.127-1.207-.45-1.562-.327-.36-.808-.492-1.39-.492h-1.307l-.07.07a.93.93 0 0 0-.24.431l-.075.297h1.55c.446 0 .666.08.776.176.102.089.16.234.16.51 0 .268-.098.603-.306 1.036-.207.43-.511.936-.902 1.54l-5.393 8.518h3.053l3.097-4.773.177-.283c1.49-2.198 2.884-3.953 4.121-5.155.62-.601 1.194-1.06 1.715-1.365.524-.308.98-.454 1.367-.454.234 0 .339.055.387.104s.086.134.086.299c0 .24-.1.563-.352 1.013-.25.448-.633.997-1.164 1.688l-1.175 1.53v.001c-1.507 1.974-2.22 3.555-2.22 5.128 0 .57.09 1.213.377 1.723.297.526.8.9 1.57.9 1.076 0 2.064-.715 2.981-1.707.655-.708 1.298-1.584 1.937-2.51a8 8 0 0 0-.114 1.345c0 .544.062 1.22.332 1.769.136.277.329.529.6.71.272.184.608.286 1.015.286 1.012 0 1.898-.643 2.705-1.535.761-.84 1.49-1.949 2.221-3.076a8 8 0 0 0-.038.778c0 1.012.239 1.97.722 2.683.488.72 1.226 1.185 2.186 1.185 1.058 0 2.1-.463 3.213-1.402.936-.79 1.935-1.926 3.05-3.436a8 8 0 0 0-.065 1.006c0 .997.249 1.946.736 2.653.492.713 1.228 1.18 2.172 1.18 1.073 0 2.177-.472 3.396-1.55 1.217-1.077 2.566-2.771 4.137-5.252l.037-.059v-.069c0-.101-.041-.2-.125-.266m-3.87-4c.393-.408.763-.718 1.101-.924.34-.208.633-.301.876-.301.204 0 .31.057.368.12.06.065.105.176.105.353 0 .257-.109.568-.332.917a5.5 5.5 0 0 1-.942 1.077c-.918.83-2.282 1.566-3.582 2.07.83-1.4 1.651-2.528 2.406-3.311" clip-rule="evenodd"/><path fill="#000" fill-rule="evenodd" d="M26.956 22.16v-.069c0-.101-.041-.2-.125-.266a.38.38 0 0 0-.238-.08.58.58 0 0 0-.4.177l-.018.019-.014.022c-1.49 2.342-2.74 3.904-3.833 4.88-1.09.973-2.006 1.345-2.835 1.345-.468 0-.737-.136-.896-.33-.168-.206-.254-.523-.254-.962 0-.688.203-1.503.523-2.354a19 19 0 0 1 1.144-2.427c1.6-.475 3.472-1.33 4.694-2.407l.002-.002.002-.002c.437-.4.809-.817 1.073-1.236s.428-.855.428-1.288c0-.327-.092-.67-.342-.93-.252-.264-.633-.412-1.142-.412-1.009 0-2.291.48-3.526 1.294-1.24.818-2.458 1.99-3.333 3.41-.947 1.53-1.387 3.14-1.387 4.645 0 .997.248 1.947.736 2.654.491.713 1.228 1.18 2.171 1.18 1.074 0 2.178-.472 3.397-1.55 1.217-1.077 2.565-2.771 4.136-5.252zm-3.995-4.334q.593-.616 1.102-.925c.34-.208.632-.301.875-.301.204 0 .31.057.368.12.061.065.106.176.106.353 0 .257-.109.568-.332.917-.222.347-.544.713-.943 1.077-.918.83-2.28 1.566-3.582 2.07.83-1.4 1.652-2.528 2.406-3.311m-3.801-3.378q.515-.744 1.025-1.474c2.244-3.21 4.37-6.25 6.678-8.49C29.166 2.247 31.622.833 34.52.833c1.006 0 2.048.174 2.947.485l.222.077.31-.85-.244-.073A11.6 11.6 0 0 0 34.52 0c-3.116 0-5.75 1.51-8.14 3.808H9.65l-.5.833h6.891c-1.802.86-3.128 2.305-4.122 3.864-1.204 1.89-1.933 3.97-2.43 5.429a126 126 0 0 0-1.381 4.243v.001c-.866 2.775-1.564 5.006-2.68 6.822-1.106 1.8-2.631 3.197-5.168 4.274l-.26.11.597.929.197-.115a11.3 11.3 0 0 1 2.576-1.11c3.862-1.149 6.946-3.58 9.62-6.517 2.267-2.489 4.252-5.354 6.17-8.123M5.38 26.96c1.4-1.243 2.534-2.631 3.55-4.361 1.125-1.915 2.106-4.248 3.145-7.265.275-.794.53-1.587.777-2.36v-.001c.734-2.284 1.407-4.374 2.395-5.898.977-1.506 2.245-2.435 4.183-2.435h6.128c-2.091 2.206-4.046 4.995-6.06 7.87l-.009.01c-3.954 5.642-8.145 11.609-14.108 14.44" clip-rule="evenodd"/></svg>