<svg xmlns="http://www.w3.org/2000/svg" fill="none" viewBox="0 0 119 25"><g fill="#000" clip-path="url(#a)"><path d="M13.84 5.273v2.735L8.6 6.114l5.24 4.5v13.504l-2.702-2.613-.15-9.48S4.12 6.352 1.407 3.7L0 0zm1.815 0v2.735l5.24-1.894-5.24 4.5v13.504l2.703-2.613.15-9.48s6.869-5.672 9.581-8.325L29.496 0z"/></g><path fill="#000" d="M114.51 16.123V7.376h1.645v1.39h.091q.24-.706.843-1.11.61-.41 1.378-.41a7 7 0 0 1 .723.04v1.628a3 3 0 0 0-.364-.063 3.5 3.5 0 0 0-.524-.04q-.603 0-1.076.257a1.9 1.9 0 0 0-1.014 1.714v5.341zm-5.978.177q-1.23 0-2.147-.564a3.8 3.8 0 0 1-1.423-1.578q-.507-1.013-.507-2.368 0-1.362.507-2.38a3.8 3.8 0 0 1 1.423-1.584q.918-.564 2.147-.563 1.23 0 2.147.563a3.8 3.8 0 0 1 1.424 1.583q.506 1.02.506 2.38 0 1.356-.506 2.37a3.8 3.8 0 0 1-1.424 1.577q-.917.563-2.147.563m.006-1.43q.797 0 1.321-.421a2.47 2.47 0 0 0 .774-1.122q.257-.7.257-1.543a4.4 4.4 0 0 0-.257-1.538 2.5 2.5 0 0 0-.774-1.133q-.524-.427-1.321-.427-.803 0-1.333.427a2.55 2.55 0 0 0-.78 1.133q-.25.7-.25 1.538 0 .843.25 1.543.257.7.78 1.122.53.42 1.333.421m-9.531 1.254V7.376h1.645v1.39h.091q.24-.706.843-1.11.61-.41 1.378-.41a7 7 0 0 1 .723.04v1.628a3 3 0 0 0-.364-.063 3.5 3.5 0 0 0-.524-.04q-.603 0-1.076.257a1.9 1.9 0 0 0-1.014 1.714v5.341zm-6.155 0V7.376h1.646v1.39h.091q.24-.706.843-1.11.609-.41 1.378-.41a7 7 0 0 1 .723.04v1.628a3 3 0 0 0-.364-.063 3.5 3.5 0 0 0-.524-.04q-.603 0-1.076.257a1.9 1.9 0 0 0-1.014 1.714v5.341zm-5.642.177q-1.291 0-2.226-.553a3.75 3.75 0 0 1-1.435-1.566q-.5-1.013-.5-2.374 0-1.344.5-2.37a3.9 3.9 0 0 1 1.412-1.6q.912-.574 2.13-.574.74 0 1.435.244.695.245 1.247.77.552.523.871 1.36.32.831.32 2.022v.603H84.01v-1.275h5.285q0-.672-.273-1.19a2.07 2.07 0 0 0-.77-.826q-.49-.302-1.15-.302-.717 0-1.252.353a2.37 2.37 0 0 0-.82.911q-.285.558-.285 1.213v.997q0 .877.307 1.492.314.615.872.94.558.318 1.304.318.484 0 .882-.137.399-.142.69-.421a1.8 1.8 0 0 0 .444-.69l1.611.291q-.193.712-.695 1.247-.495.53-1.247.826-.745.29-1.702.29m-9.747.001q-1.23 0-2.147-.564a3.8 3.8 0 0 1-1.424-1.578q-.507-1.013-.507-2.368 0-1.362.507-2.38a3.8 3.8 0 0 1 1.424-1.584q.917-.564 2.147-.563 1.23 0 2.147.563a3.8 3.8 0 0 1 1.423 1.583q.507 1.02.507 2.38 0 1.356-.507 2.37a3.8 3.8 0 0 1-1.424 1.577q-.915.563-2.146.563m.005-1.43q.797 0 1.322-.421a2.47 2.47 0 0 0 .774-1.122q.256-.7.256-1.543 0-.836-.256-1.538a2.5 2.5 0 0 0-.775-1.133q-.524-.427-1.32-.427-.804 0-1.333.427-.525.428-.78 1.133-.25.7-.25 1.538 0 .843.25 1.543.255.7.78 1.122.53.42 1.332.421M65.898 10.93v5.193h-1.703V7.376h1.635V8.8h.108a2.5 2.5 0 0 1 .945-1.116q.65-.421 1.634-.421.894 0 1.566.375.672.37 1.042 1.105t.37 1.817v5.563h-1.702v-5.358q0-.951-.496-1.487-.495-.54-1.36-.54-.592 0-1.054.256-.456.256-.723.751-.262.49-.262 1.185m-3.745-1.418-1.544.273a1.8 1.8 0 0 0-.307-.564 1.5 1.5 0 0 0-.558-.438q-.353-.17-.883-.17-.723 0-1.207.324-.484.318-.484.825a.87.87 0 0 0 .325.707q.324.267 1.047.438l1.39.319q1.207.278 1.8.86.592.58.592 1.509 0 .785-.456 1.4-.45.61-1.259.957-.803.348-1.862.347-1.468 0-2.397-.626-.928-.632-1.139-1.794l1.646-.25q.153.643.632.974.479.324 1.247.324.837 0 1.338-.347.501-.354.501-.86a.9.9 0 0 0-.307-.689q-.301-.28-.928-.421l-1.48-.325q-1.225-.279-1.812-.888-.58-.608-.58-1.544 0-.774.432-1.355.433-.58 1.196-.905.764-.33 1.748-.33 1.418 0 2.232.615.815.609 1.077 1.634M49.956 16.3q-1.292 0-2.226-.553a3.75 3.75 0 0 1-1.435-1.566q-.501-1.013-.501-2.374 0-1.344.5-2.37a3.9 3.9 0 0 1 1.413-1.6q.912-.574 2.13-.574.74 0 1.435.244.695.245 1.247.77.553.523.871 1.36.32.831.32 2.022v.603h-6.954v-1.275h5.285q0-.672-.274-1.19a2.07 2.07 0 0 0-.769-.826q-.49-.302-1.15-.302-.718 0-1.252.353a2.37 2.37 0 0 0-.82.911 2.6 2.6 0 0 0-.285 1.213v.997q0 .877.307 1.492.315.615.871.94.559.318 1.305.318.483 0 .882-.137.399-.142.69-.421a1.8 1.8 0 0 0 .443-.69l1.612.291q-.194.712-.695 1.247-.495.53-1.247.826-.746.29-1.703.29m-11.478 3.104q-.381 0-.695-.063a2.2 2.2 0 0 1-.467-.125l.41-1.395q.468.126.832.108a1 1 0 0 0 .643-.273q.285-.256.501-.837l.21-.581-3.2-8.86h1.823l2.215 6.787h.091l2.215-6.788h1.828L41.28 17.29q-.252.684-.638 1.156a2.5 2.5 0 0 1-.923.718q-.535.24-1.241.24"/><defs><clipPath id="a"><path fill="#000" d="M0 0h29.496v24.116H0z"/></clipPath></defs></svg>