<svg width="24" height="24" viewBox="0 0 24 24" fill="none" xmlns="http://www.w3.org/2000/svg">
<path d="M9.87868 14.1218C11.0503 15.2934 12.9497 15.2934 14.1213 14.1218C15.2929 12.9502 15.2929 11.0507 14.1213 9.87913C12.9497 8.70756 11.0503 8.70756 9.87868 9.87913C8.70711 11.0507 8.7071 12.9502 9.87868 14.1218Z" stroke="#FF414C" strokeWidth="1.5" stroke-miterlimit="1.5" strokeLinecap="round" strokeLinejoin="round"/>
<path d="M4.36979 16.7726C4.09034 16.3274 3.84782 15.8547 3.64889 15.3612C3.23019 14.323 3 13.1891 3 12.0012C3 7.7649 5.93373 4.20879 9.87822 3.25392C10.5584 3.0891 11.2689 3.00195 11.9992 3.00195" stroke="#FF414C" strokeWidth="1.49671" stroke-miterlimit="1.5" strokeLinecap="round" strokeLinejoin="round"/>
<path d="M19.7147 7.36719C20.5303 8.7218 20.9992 10.3066 20.9992 12.0013C20.9992 15.8075 18.631 19.0643 15.2899 20.3791C14.2706 20.7798 13.1604 21.0005 12 21.0005" stroke="#FF414C" strokeWidth="1.49671" stroke-miterlimit="1.5" strokeLinecap="round" strokeLinejoin="round"/>
<path fill-rule="evenodd" clip-rule="evenodd" d="M14.1245 9.87966C14.1245 9.87966 14.1154 7.0774 15.5388 5.63702C16.9487 4.22846 18.3325 2.77253 19.7814 4.22281C21.1581 5.60096 19.7963 7.03214 18.3672 8.46545C16.9657 9.87118 14.1245 9.87966 14.1245 9.87966Z" stroke="#FF414C" strokeWidth="1.5" stroke-miterlimit="1.5" strokeLinecap="round" strokeLinejoin="round"/>
<path fill-rule="evenodd" clip-rule="evenodd" d="M9.87545 14.1203C9.87545 14.1203 9.88465 16.9226 8.46124 18.363C7.05127 19.7715 5.66746 21.2275 4.2186 19.7772C2.84186 18.399 4.20375 16.9679 5.63281 15.5345C7.0343 14.1288 9.87545 14.1203 9.87545 14.1203Z" stroke="#FF414C" strokeWidth="1.5" stroke-miterlimit="1.5" strokeLinecap="round" strokeLinejoin="round"/>
</svg>
