<svg width="161" height="137" viewBox="0 0 161 137" fill="none" xmlns="http://www.w3.org/2000/svg">
    <rect x="0.548387" y="0.548387" width="82.8725" height="82.6702" rx="3.83871" fill="white" stroke="#E4E4E7" stroke-width="1.09677"/>
    <g clip-path="url(#clip0_1_1379)">
    <path d="M35.4607 34.9852V31.9881C35.7523 31.9666 36.046 31.9516 36.3461 31.943C44.5465 31.6858 49.9256 38.9879 49.9256 38.9879C49.9256 38.9879 44.1156 47.0576 37.8854 47.0576C36.9871 47.0576 36.1853 46.9139 35.4607 46.6695V37.5794C38.653 37.9653 39.294 39.376 41.2149 42.5747L45.4834 38.975C45.4834 38.975 42.3683 34.8888 37.1158 34.8888C36.5434 34.8888 35.9988 34.9295 35.4628 34.9874M35.4607 25.0826V29.5612C35.7544 29.5376 36.0503 29.5183 36.3461 29.5076C47.7495 29.1238 55.1782 38.8593 55.1782 38.8593C55.1782 38.8593 46.6454 49.2358 37.7547 49.2358C36.94 49.2358 36.1767 49.1607 35.4607 49.0342V51.802C36.0738 51.8792 36.7084 51.9264 37.3709 51.9264C45.6442 51.9264 51.6257 47.7029 57.4207 42.7011C58.3811 43.4708 62.3131 45.3403 63.1213 46.1614C57.6115 50.7729 44.7759 54.4883 37.4995 54.4883C36.7985 54.4883 36.1231 54.4454 35.4628 54.3833V58.2745H66.9053V25.0826H35.4607ZM35.4607 46.6695V49.0321C27.8091 47.6686 25.6866 39.7147 25.6866 39.7147C25.6866 39.7147 29.3591 35.6434 35.4607 34.9852V37.5772C35.4607 37.5772 35.4521 37.5772 35.4478 37.5772C32.247 37.1935 29.745 40.1842 29.745 40.1842C29.745 40.1842 31.1471 45.2202 35.4607 46.6695ZM21.8705 39.3717C21.8705 39.3717 26.4048 32.6805 35.4607 31.9881V29.5612C25.4315 30.3651 16.7466 38.8593 16.7466 38.8593C16.7466 38.8593 21.6647 53.0798 35.4607 54.3811V51.7999C25.3372 50.5264 21.8705 39.3695 21.8705 39.3695V39.3717Z" fill="#8DC63F"/>
    </g>
    <rect x="76.2258" y="53.1936" width="82.8725" height="82.6702" rx="3.83871" fill="white" stroke="#E4E4E7" stroke-width="1.09677"/>
    <path d="M125.406 100.907L132.814 113.936H117.85L110.364 100.907H125.406Z" fill="url(#paint0_linear_1_1379)"/>
    <path d="M132.81 113.938L140.284 100.909L125.324 74.8446H110.364L132.81 113.938Z" fill="#FF414C"/>
    <path d="M102.886 87.8721H117.846L102.892 113.937L95.4059 100.908L102.886 87.8721Z" fill="#FF414C"/>
    <path d="M92 12.25C91.5858 12.25 91.25 12.5858 91.25 13C91.25 13.4142 91.5858 13.75 92 13.75V12.25ZM127 44.5L131.1 36.872L122.444 37.1349L127 44.5ZM93.8342 13.7935C94.2479 13.8131 94.5992 13.4936 94.6189 13.0799C94.6385 12.6661 94.319 12.3148 93.9053 12.2952L93.8342 13.7935ZM97.6987 12.6567C97.2887 12.5978 96.9086 12.8824 96.8496 13.2924C96.7907 13.7024 97.0753 14.0825 97.4853 14.1414L97.6987 12.6567ZM101.085 14.8366C101.488 14.9346 101.894 14.6878 101.992 14.2854C102.09 13.8829 101.843 13.4772 101.44 13.3792L101.085 14.8366ZM105.095 14.4605C104.704 14.3237 104.277 14.5297 104.14 14.9207C104.003 15.3116 104.209 15.7395 104.6 15.8763L105.095 14.4605ZM107.992 17.2567C108.368 17.4319 108.814 17.2696 108.989 16.8942C109.164 16.5189 109.002 16.0726 108.627 15.8974L107.992 17.2567ZM111.998 17.6865C111.643 17.4736 111.182 17.5891 110.969 17.9444C110.756 18.2997 110.872 18.7604 111.227 18.9732L111.998 17.6865ZM114.261 21.0173C114.591 21.2669 115.061 21.2014 115.311 20.8708C115.561 20.5403 115.495 20.07 115.165 19.8203L114.261 21.0173ZM118.081 22.2891C117.781 22.0041 117.306 22.0168 117.021 22.3174C116.736 22.6179 116.749 23.0927 117.049 23.3776L118.081 22.2891ZM119.548 26.0387C119.813 26.3569 120.286 26.3998 120.604 26.1346C120.923 25.8694 120.965 25.3965 120.7 25.0783L119.548 26.0387ZM122.969 28.1631C122.744 27.8149 122.28 27.7146 121.932 27.939C121.584 28.1634 121.484 28.6275 121.708 28.9757L122.969 28.1631ZM123.484 32.1558C123.663 32.5296 124.111 32.6878 124.484 32.5092C124.858 32.3306 125.016 31.8829 124.838 31.5092L123.484 32.1558ZM126.264 35.0671C126.135 34.6735 125.711 34.4589 125.318 34.5878C124.924 34.7167 124.709 35.1403 124.838 35.5339L126.264 35.0671ZM125.745 39.0593C125.822 39.4663 126.214 39.7337 126.621 39.6567C127.028 39.5796 127.296 39.1872 127.219 38.7802L125.745 39.0593ZM127.692 42.5842C127.667 42.1708 127.311 41.8561 126.897 41.8813C126.484 41.9066 126.169 42.2622 126.195 42.6757L127.692 42.5842ZM92 13.75C92.6138 13.75 93.2254 13.7646 93.8342 13.7935L93.9053 12.2952C93.2729 12.2652 92.6376 12.25 92 12.25V13.75ZM97.4853 14.1414C98.7035 14.3165 99.9051 14.549 101.085 14.8366L101.44 13.3792C100.213 13.0802 98.9645 12.8386 97.6987 12.6567L97.4853 14.1414ZM104.6 15.8763C105.76 16.2823 106.892 16.7433 107.992 17.2567L108.627 15.8974C107.481 15.3627 106.302 14.8829 105.095 14.4605L104.6 15.8763ZM111.227 18.9732C112.279 19.6037 113.292 20.2861 114.261 21.0173L115.165 19.8203C114.153 19.0563 113.096 18.3441 111.998 17.6865L111.227 18.9732ZM117.049 23.3776C117.936 24.2182 118.771 25.1062 119.548 26.0387L120.7 25.0783C119.885 24.0999 119.01 23.1692 118.081 22.2891L117.049 23.3776ZM121.708 28.9757C122.365 29.9951 122.959 31.0561 123.484 32.1558L124.838 31.5092C124.285 30.3513 123.66 29.2349 122.969 28.1631L121.708 28.9757ZM124.838 35.5339C125.212 36.6756 125.516 37.8516 125.745 39.0593L127.219 38.7802C126.978 37.5086 126.658 36.2699 126.264 35.0671L124.838 35.5339Z" fill="black"/>
    <defs>
    <linearGradient id="paint0_linear_1_1379" x1="122.407" y1="106.88" x2="128.79" y2="100.252" gradientUnits="userSpaceOnUse">
    <stop stop-color="#FF414C"/>
    <stop offset="1" stop-color="#FF414C" stop-opacity="0"/>
    </linearGradient>
    <clipPath id="clip0_1_1379">
    <rect width="50.1566" height="33.1898" fill="white" transform="translate(16.7466 25.0826)"/>
    </clipPath>
    </defs>
    </svg>
    