<svg width="297" height="160" viewBox="0 0 297 160" fill="none" xmlns="http://www.w3.org/2000/svg">
<rect width="297" height="160" rx="4" fill="#272727"/>
<path d="M155.664 109.4V87.2666C155.664 86.9353 155.933 86.6666 156.264 86.6666H178.397C178.729 86.6666 178.997 86.9353 178.997 87.2666V109.4C178.997 109.731 178.729 110 178.397 110H156.264C155.933 110 155.664 109.731 155.664 109.4Z" stroke="#535353" stroke-width="5"/>
<path d="M119 109.4V87.2666C119 86.9353 119.269 86.6666 119.6 86.6666H141.733C142.065 86.6666 142.333 86.9353 142.333 87.2666V109.4C142.333 109.731 142.065 110 141.733 110H119.6C119.269 110 119 109.731 119 109.4Z" stroke="#535353" stroke-width="5"/>
<path d="M155.664 72.7333V50.6C155.664 50.2686 155.933 50 156.264 50H178.397C178.729 50 178.997 50.2686 178.997 50.6V72.7333C178.997 73.0647 178.729 73.3333 178.397 73.3333H156.264C155.933 73.3333 155.664 73.0647 155.664 72.7333Z" stroke="#535353" stroke-width="5"/>
<path d="M119 72.7333V50.6C119 50.2686 119.269 50 119.6 50H141.733C142.065 50 142.333 50.2686 142.333 50.6V72.7333C142.333 73.0647 142.065 73.3333 141.733 73.3333H119.6C119.269 73.3333 119 73.0647 119 72.7333Z" stroke="#FF414C" stroke-width="5"/>
</svg>
