<svg width="787" height="164" viewBox="0 0 787 164" fill="none" xmlns="http://www.w3.org/2000/svg">
<path d="M115.175 107.912L139.598 136.586L153.657 161.428H92.1939L61.4454 107.912H115.175Z" fill="black"/>
<path d="M153.64 161.437L184.338 107.921L122.892 0.861938H61.4454L153.64 161.437Z" fill="black"/>
<path d="M30.7231 54.3643H92.1694L30.7486 161.423L0.000183105 107.907L30.7231 54.3643Z" fill="black"/>
<path d="M303.955 51.9753L302.41 68.752C295.789 55.728 280.56 48.6641 264.227 48.6641C233.548 48.6641 213.021 70.9595 213.021 105.175C213.021 139.17 231.561 163.894 264.006 163.894C281.663 163.894 294.685 155.285 301.527 144.027L303.293 161.024H328.454V51.9753H303.955ZM301.086 106.5C301.086 126.146 288.947 139.612 270.186 139.612C251.426 139.612 239.948 125.925 239.948 106.5C239.948 87.074 251.646 73.167 270.407 73.167C289.167 73.167 301.086 86.8533 301.086 106.5Z" fill="black"/>
<path d="M374.269 161.024V131.665L390.161 115.109L418.633 161.024H449.533L408.921 95.2417L450.415 51.9753H416.646L374.269 97.6699V0H347.563V161.024H374.269Z" fill="black"/>
<path d="M539.959 51.9753L538.414 68.752C531.792 55.728 516.563 48.6641 500.231 48.6641C469.551 48.6641 449.025 70.9595 449.025 105.175C449.025 139.17 467.565 163.894 500.01 163.894C517.667 163.894 530.689 155.285 537.531 144.027L539.297 161.024H564.458V51.9753H539.959ZM537.09 106.5C537.09 126.146 524.95 139.612 506.19 139.612C487.429 139.612 475.952 125.925 475.952 106.5C475.952 87.074 487.65 73.167 506.41 73.167C525.171 73.167 537.09 86.8533 537.09 106.5Z" fill="black"/>
<path d="M578.084 127.912C578.084 149.325 595.299 163.894 622.447 163.894C649.374 163.894 668.135 150.208 668.135 128.133C668.135 111.356 658.865 102.968 640.546 98.7736L620.902 94.1379C611.632 91.9305 606.777 87.957 606.777 81.7761C606.777 73.6085 612.957 68.752 623.551 68.752C633.924 68.752 640.104 74.7122 640.325 83.9836H665.928C665.707 62.7919 649.153 48.6641 624.654 48.6641C599.493 48.6641 581.395 61.4674 581.395 82.8798C581.395 100.319 590.885 109.59 610.529 114.005L630.172 118.641C639.884 120.848 642.753 124.822 642.753 130.34C642.753 138.287 635.911 143.365 623.33 143.365C610.97 143.365 603.907 137.404 603.687 127.912H578.084Z" fill="black"/>
<path d="M710.063 161.024V101.423C710.063 85.0873 719.995 73.167 736.99 73.167C750.674 73.167 759.723 81.9969 759.723 100.319V161.024H786.65V93.9172C786.65 65.6616 772.525 48.6641 745.598 48.6641C729.927 48.6641 717.126 55.5072 710.284 66.1031V0H683.136V161.024H710.063Z" fill="black"/>
</svg>
