<svg width="120" height="27" viewBox="0 0 120 27" fill="none" xmlns="http://www.w3.org/2000/svg">
<path d="M19.6605 18.0261L24.2314 26.0657H14.9981L10.3789 18.0261H19.6605Z" fill="url(#paint0_linear_570_3163)"/>
<path d="M24.229 26.0669L28.8405 18.0273L19.6097 1.94434H10.3789L24.229 26.0669Z" fill="#FA5757"/>
<path d="M5.76382 9.98193H14.9947L5.76766 26.065L1.14844 18.0254L5.76382 9.98193Z" fill="#FA5757"/>
<path d="M46.2047 8.84715L45.975 11.3292C44.9908 9.40234 42.727 8.35728 40.2991 8.35728C35.7387 8.35728 32.6875 11.6558 32.6875 16.7178C32.6875 21.7471 35.4434 25.4049 40.2663 25.4049C42.891 25.4049 44.8267 24.1312 45.8438 22.4656L46.1063 24.9803H49.8465V8.84715H46.2047ZM45.7782 16.9137C45.7782 19.8203 43.9737 21.8125 41.185 21.8125C38.3962 21.8125 36.6902 19.7876 36.6902 16.9137C36.6902 14.0398 38.429 11.9823 41.2178 11.9823C44.0065 11.9823 45.7782 14.0071 45.7782 16.9137Z" fill="#E0E0E0"/>
<path d="M56.6568 24.9803V20.6368L59.0191 18.1874L63.2514 24.9803H67.8446L61.8078 15.2482L67.9758 8.84715H62.9561L56.6568 15.6074V1.15771H52.687V24.9803H56.6568Z" fill="#E0E0E0"/>
<path d="M81.2864 8.84715L81.0567 11.3292C80.0725 9.40234 77.8087 8.35728 75.3808 8.35728C70.8204 8.35728 67.7692 11.6558 67.7692 16.7178C67.7692 21.7471 70.5251 25.4049 75.348 25.4049C77.9727 25.4049 79.9084 24.1312 80.9255 22.4656L81.188 24.9803H84.9282V8.84715H81.2864ZM80.8599 16.9137C80.8599 19.8203 79.0554 21.8125 76.2667 21.8125C73.4779 21.8125 71.7719 19.7876 71.7719 16.9137C71.7719 14.0398 73.5107 11.9823 76.2995 11.9823C79.0882 11.9823 80.8599 14.0071 80.8599 16.9137Z" fill="#E0E0E0"/>
<path d="M86.9536 20.0816C86.9536 23.2494 89.5127 25.4049 93.5482 25.4049C97.5508 25.4049 100.34 23.38 100.34 20.1142C100.34 17.6322 98.9616 16.3912 96.2385 15.7707L93.3185 15.0849C91.9406 14.7583 91.2188 14.1704 91.2188 13.256C91.2188 12.0477 92.1374 11.3292 93.7122 11.3292C95.2542 11.3292 96.1729 12.2109 96.2057 13.5826H100.012C99.9787 10.4474 97.518 8.35728 93.8763 8.35728C90.1361 8.35728 87.4458 10.2514 87.4458 13.4193C87.4458 15.9993 88.8565 17.3709 91.7765 18.0241L94.6965 18.7099C96.1401 19.0365 96.5666 19.6244 96.5666 20.4408C96.5666 21.6165 95.5495 22.3676 93.6794 22.3676C91.8421 22.3676 90.7923 21.4859 90.7594 20.0816H86.9536Z" fill="#E0E0E0"/>
<path d="M106.572 24.9803V16.1626C106.572 13.7459 108.049 11.9823 110.575 11.9823C112.609 11.9823 113.954 13.2887 113.954 15.9993V24.9803H117.957V15.0522C117.957 10.872 115.857 8.35728 111.854 8.35728C109.525 8.35728 107.622 9.36968 106.605 10.9373V1.15771H102.57V24.9803H106.572Z" fill="#E0E0E0"/>
<defs>
<linearGradient id="paint0_linear_570_3163" x1="15.6246" y1="20.4789" x2="24.2158" y2="26.0802" gradientUnits="userSpaceOnUse">
<stop stop-color="#FA5757"/>
<stop offset="0.0240912" stop-color="#FA5757" stop-opacity="0.99831"/>
<stop offset="0.045037" stop-color="#FA5757" stop-opacity="0.992615"/>
<stop offset="0.064967" stop-color="#FA5757" stop-opacity="0.981977"/>
<stop offset="0.0860106" stop-color="#FA5757" stop-opacity="0.96546"/>
<stop offset="0.110297" stop-color="#FA5757" stop-opacity="0.942125"/>
<stop offset="0.139956" stop-color="#FA5757" stop-opacity="0.911036"/>
<stop offset="0.177117" stop-color="#FA5757" stop-opacity="0.871255"/>
<stop offset="0.223909" stop-color="#FA5757" stop-opacity="0.821844"/>
<stop offset="0.282462" stop-color="#FA5757" stop-opacity="0.761867"/>
<stop offset="0.354904" stop-color="#FA5757" stop-opacity="0.690386"/>
<stop offset="0.443367" stop-color="#FA5757" stop-opacity="0.606463"/>
<stop offset="0.549978" stop-color="#FA5757" stop-opacity="0.509162"/>
<stop offset="0.676868" stop-color="#FA5757" stop-opacity="0.397545"/>
<stop offset="0.826165" stop-color="#FA5757" stop-opacity="0.270674"/>
<stop offset="1" stop-color="#FA5757" stop-opacity="0.127613"/>
</linearGradient>
</defs>
</svg>
