<svg width="132" height="26" viewBox="0 0 132 26" fill="none" xmlns="http://www.w3.org/2000/svg">
<path d="M19.8991 17.226L24.8126 25.8374H14.8873L9.92188 17.226H19.8991Z" fill="url(#paint0_linear_3793_36515)"/>
<path d="M24.81 25.8386L29.7672 17.2273L19.8445 0.000534058H9.92188L24.81 25.8386Z" fill="#FF414C"/>
<path d="M4.96129 8.60942H14.884L4.96542 25.8362L0 17.2249L4.96129 8.60942Z" fill="#FF414C"/>
<path d="M54.2552 8.24531L54.0075 10.9068C52.9462 8.84063 50.5052 7.72003 47.8872 7.72003C42.9698 7.72003 39.6797 11.257 39.6797 16.6849C39.6797 22.0779 42.6514 26 47.8519 26C50.682 26 52.7693 24.6343 53.866 22.8483L54.149 25.5447H58.182V8.24531H54.2552ZM53.7953 16.895C53.7953 20.0117 51.8495 22.1479 48.8424 22.1479C45.8353 22.1479 43.9957 19.9767 43.9957 16.895C43.9957 13.8133 45.8707 11.6071 48.8778 11.6071C51.8849 11.6071 53.7953 13.7783 53.7953 16.895Z" fill="#232323"/>
<path d="M65.5256 25.5447V20.8872L68.0727 18.2608L72.6364 25.5447H77.5893L71.0798 15.1091L77.7308 8.24531H72.318L65.5256 15.4943V0H61.2449V25.5447H65.5256Z" fill="#232323"/>
<path d="M92.0834 8.24531L91.8358 10.9068C90.7744 8.84063 88.3334 7.72003 85.7155 7.72003C80.798 7.72003 77.5079 11.257 77.5079 16.6849C77.5079 22.0779 80.4796 26 85.6801 26C88.5103 26 90.5975 24.6343 91.6942 22.8483L91.9773 25.5447H96.0103V8.24531H92.0834ZM91.6235 16.895C91.6235 20.0117 89.6777 22.1479 86.6707 22.1479C83.6636 22.1479 81.824 19.9767 81.824 16.895C81.824 13.8133 83.699 11.6071 86.706 11.6071C89.7131 11.6071 91.6235 13.7783 91.6235 16.895Z" fill="#232323"/>
<path d="M98.1943 20.2919C98.1943 23.6887 100.954 26 105.305 26C109.621 26 112.628 23.8288 112.628 20.3269C112.628 17.6654 111.142 16.3347 108.206 15.6694L105.058 14.934C103.572 14.5838 102.793 13.9534 102.793 12.9729C102.793 11.6772 103.784 10.9068 105.482 10.9068C107.145 10.9068 108.135 11.8523 108.171 13.3231H112.275C112.239 9.96125 109.586 7.72003 105.659 7.72003C101.626 7.72003 98.725 9.75113 98.725 13.148C98.725 15.9145 100.246 17.3853 103.395 18.0857L106.543 18.8211C108.1 19.1713 108.56 19.8016 108.56 20.6771C108.56 21.9378 107.463 22.7432 105.447 22.7432C103.466 22.7432 102.333 21.7977 102.298 20.2919H98.1943Z" fill="#232323"/>
<path d="M119.349 25.5447V16.0896C119.349 13.4982 120.941 11.6071 123.665 11.6071C125.858 11.6071 127.309 13.0079 127.309 15.9145V25.5447H131.625V14.8989C131.625 10.4165 129.361 7.72003 125.045 7.72003C122.533 7.72003 120.481 8.80562 119.384 10.4865V0H115.033V25.5447H119.349Z" fill="#232323"/>
<defs>
<linearGradient id="paint0_linear_3793_36515" x1="18.9069" y1="23.1801" x2="22.5429" y2="18.8168" gradientUnits="userSpaceOnUse">
<stop stop-color="#FF414C"/>
<stop offset="1" stop-color="#FF414C" stop-opacity="0"/>
</linearGradient>
</defs>
</svg>
