<svg width="170" height="21" viewBox="0 0 170 21" fill="none" xmlns="http://www.w3.org/2000/svg">
<g clip-path="url(#clip0_12_581)">
<path d="M12.9375 12.7039L15.9799 18.0549H9.83427L6.75977 12.7039H12.9375Z" fill="url(#paint0_linear_12_581)"/>
<path d="M15.9782 18.0558L19.0477 12.7047L12.9037 2H6.75977L15.9782 18.0558Z" fill="white"/>
<path d="M3.68719 7.34973H9.83114L3.68974 18.0544L0.615234 12.7034L3.68719 7.34973Z" fill="white"/>
</g>
<path d="M31.4227 7.3541L31.2698 9.00611C30.6147 7.72363 29.108 7.02804 27.492 7.02804C24.4566 7.02804 22.4258 9.22348 22.4258 12.5927C22.4258 15.9402 24.2601 18.3748 27.4702 18.3748C29.2171 18.3748 30.5055 17.527 31.1825 16.4184L31.3572 18.0922H33.8466V7.3541H31.4227ZM31.1388 12.7231C31.1388 14.6577 29.9378 15.9837 28.0816 15.9837C26.2255 15.9837 25.0899 14.636 25.0899 12.7231C25.0899 10.8103 26.2473 9.44085 28.1035 9.44085C29.9596 9.44085 31.1388 10.7885 31.1388 12.7231Z" fill="white"/>
<path d="M38.3795 18.0922V15.2011L39.9518 13.5709L42.7688 18.0922H45.826L41.808 11.6145L45.9134 7.3541H42.5723L38.3795 11.8537V2.23608H35.7372V18.0922H38.3795Z" fill="white"/>
<path d="M54.7727 7.3541L54.6199 9.00611C53.9648 7.72363 52.458 7.02804 50.842 7.02804C47.8067 7.02804 45.7758 9.22348 45.7758 12.5927C45.7758 15.9402 47.6101 18.3748 50.8202 18.3748C52.5672 18.3748 53.8556 17.527 54.5325 16.4184L54.7072 18.0922H57.1967V7.3541H54.7727ZM54.4889 12.7231C54.4889 14.6577 53.2878 15.9837 51.4316 15.9837C49.5755 15.9837 48.44 14.636 48.44 12.7231C48.44 10.8103 49.5973 9.44085 51.4535 9.44085C53.3096 9.44085 54.4889 10.7885 54.4889 12.7231Z" fill="white"/>
<path d="M58.5448 14.8316C58.5448 16.9401 60.2481 18.3748 62.9341 18.3748C65.5982 18.3748 67.4544 17.0271 67.4544 14.8534C67.4544 13.2013 66.5372 12.3753 64.7247 11.9623L62.7812 11.5059C61.864 11.2885 61.3836 10.8972 61.3836 10.2886C61.3836 9.48432 61.9951 9.00611 63.0433 9.00611C64.0696 9.00611 64.681 9.59301 64.7029 10.506H67.236C67.2142 8.41921 65.5764 7.02804 63.1524 7.02804C60.663 7.02804 58.8724 8.28879 58.8724 10.3973C58.8724 12.1145 59.8113 13.0275 61.7549 13.4622L63.6984 13.9187C64.6592 14.136 64.9431 14.5273 64.9431 15.0707C64.9431 15.8533 64.2661 16.3532 63.0214 16.3532C61.7985 16.3532 61.0997 15.7663 61.0779 14.8316H58.5448Z" fill="white"/>
<path d="M71.6027 18.0922V12.2232C71.6027 10.6146 72.5854 9.44085 74.2668 9.44085C75.6207 9.44085 76.5161 10.3103 76.5161 12.1145V18.0922H79.1802V11.4841C79.1802 8.70179 77.7826 7.02804 75.1185 7.02804C73.5681 7.02804 72.3015 7.70189 71.6245 8.74526V2.23608H68.9386V18.0922H71.6027Z" fill="white"/>
<path d="M83.4913 18.3252C84.4415 18.3252 85.2404 17.5478 85.2404 16.6192C85.2404 15.6691 84.4415 14.8917 83.4913 14.8917C82.5412 14.8917 81.7422 15.6691 81.7422 16.6192C81.7422 17.5478 82.5412 18.3252 83.4913 18.3252Z" fill="white"/>
<path d="M90.5735 18.0661V12.322C90.5735 10.5945 91.5669 9.47158 93.1864 9.47158C94.5469 9.47158 95.4322 10.3353 95.4322 12.1277V18.0661H98.0667V11.5014C98.0667 8.73738 96.6847 7.07463 94.007 7.07463C92.5602 7.07463 91.2645 7.70086 90.5951 8.78057L90.3792 7.39854H87.939V18.0661H90.5735Z" fill="white"/>
<path d="M104.813 18.3468C107.599 18.3468 109.542 16.9432 109.996 14.611H107.556C107.253 15.6259 106.303 16.1874 104.856 16.1874C103.107 16.1874 102.114 15.2372 101.919 13.3585L109.952 13.3369V12.538C109.952 9.21245 107.923 7.07463 104.727 7.07463C101.596 7.07463 99.4145 9.38521 99.4145 12.7323C99.4145 16.0362 101.639 18.3468 104.813 18.3468ZM104.748 9.23405C106.325 9.23405 107.34 10.2058 107.34 11.6742H101.984C102.243 10.0762 103.193 9.23405 104.748 9.23405Z" fill="white"/>
<path d="M114.969 18.0661V9.60115H117.042V7.39854H114.969V4.07304H112.334V7.39854H110.283V9.60115H112.334V18.0661H114.969Z" fill="white"/>
<path d="M121.034 18.0661H123.603L125.072 13.4881C125.611 11.739 125.806 10.9832 125.914 10.4865C126 11.0264 126.238 12.0413 126.67 13.4449L128.138 18.0661H130.6L134.292 7.39854H131.507L130.081 11.9765C129.887 12.6459 129.542 13.92 129.369 14.719C129.239 14.0064 128.807 12.4084 128.678 11.9765L127.253 7.39854H124.575L123.107 11.9765C122.761 13.0346 122.567 13.704 122.372 14.7406C122.178 13.7472 121.962 12.8187 121.725 11.9765L120.321 7.39854H117.578L121.034 18.0661Z" fill="white"/>
<path d="M134.12 12.7107C134.12 16.0362 136.517 18.3252 139.821 18.3252C143.125 18.3252 145.521 16.0362 145.521 12.7107C145.521 9.38521 143.125 7.09622 139.821 7.09622C136.517 7.09622 134.12 9.38521 134.12 12.7107ZM136.754 12.7107C136.754 10.7672 138.007 9.44999 139.821 9.44999C141.635 9.44999 142.887 10.7672 142.887 12.7107C142.887 14.6542 141.635 15.9714 139.821 15.9714C138.007 15.9714 136.754 14.6542 136.754 12.7107Z" fill="white"/>
<path d="M153.075 7.35535C152.643 7.24738 152.276 7.20419 151.909 7.20419C150.484 7.20419 149.469 7.9168 149.015 8.97492L148.864 7.42014H146.381V18.0661H149.015V12.8835C149.015 10.8104 150.203 9.79549 152.103 9.79549H153.075V7.35535Z" fill="white"/>
<path d="M156.9 18.0661V15.194L158.455 13.5745L161.24 18.0661H164.264L160.29 11.631L164.35 7.39854H161.046L156.9 11.8685V2H154.287V18.0661H156.9Z" fill="white"/>
<defs>
<linearGradient id="paint0_linear_12_581" x1="10.2513" y1="14.3364" x2="15.9695" y2="18.0646" gradientUnits="userSpaceOnUse">
<stop/>
<stop offset="1" stop-opacity="0.127613"/>
</linearGradient>
<clipPath id="clip0_12_581">
<rect y="0.77124" width="19.6605" height="19.6605" rx="4.91513" fill="white"/>
</clipPath>
</defs>
</svg>
