<svg width="48" height="49" viewBox="0 0 48 49" fill="none" xmlns="http://www.w3.org/2000/svg">
<rect y="0.765198" width="48" height="48" rx="6" fill="#F9FAFB"/>
<g clip-path="url(#clip0_1_814)">
<path fill-rule="evenodd" clip-rule="evenodd" d="M19.6519 23.4551C19.6519 23.7138 19.6798 23.9235 19.7287 24.0773C19.7847 24.2311 19.8546 24.3989 19.9525 24.5806C19.9874 24.6366 20.0014 24.6925 20.0014 24.7414C20.0014 24.8114 19.9595 24.8812 19.8686 24.9512L19.4282 25.2448C19.3652 25.2867 19.3023 25.3077 19.2464 25.3077C19.1765 25.3077 19.1066 25.2728 19.0367 25.2099C18.9388 25.105 18.8549 24.9931 18.785 24.8813C18.7151 24.7624 18.6452 24.6296 18.5683 24.4688C18.023 25.112 17.3379 25.4335 16.5129 25.4335C15.9257 25.4335 15.4573 25.2657 15.1148 24.9302C14.7723 24.5946 14.5975 24.1472 14.5975 23.5879C14.5975 22.9937 14.8072 22.5113 15.2337 22.1478C15.6602 21.7843 16.2264 21.6025 16.9464 21.6025C17.1841 21.6025 17.4288 21.6234 17.6875 21.6584C17.9462 21.6934 18.2118 21.7493 18.4914 21.8122V21.3019C18.4914 20.7706 18.3796 20.4001 18.1628 20.1834C17.9391 19.9666 17.5616 19.8618 17.0233 19.8618C16.7786 19.8618 16.527 19.8897 16.2683 19.9526C16.0096 20.0155 15.758 20.0924 15.5133 20.1903C15.4014 20.2392 15.3176 20.2672 15.2686 20.2812C15.2197 20.2952 15.1847 20.3021 15.1568 20.3021C15.0589 20.3021 15.01 20.2322 15.01 20.0854V19.7428C15.01 19.631 15.024 19.5471 15.0589 19.4982C15.0938 19.4492 15.1568 19.4003 15.2546 19.3514C15.4993 19.2255 15.7929 19.1207 16.1355 19.0368C16.4781 18.9459 16.8416 18.904 17.2261 18.904C18.058 18.904 18.6662 19.0927 19.0577 19.4702C19.4422 19.8478 19.6379 20.421 19.6379 21.19V23.455H19.6519L19.6519 23.4551H19.6519ZM16.8135 24.5177C17.0443 24.5177 17.2819 24.4758 17.5336 24.3919C17.7853 24.308 18.009 24.1542 18.1977 23.9445C18.3096 23.8117 18.3934 23.6648 18.4354 23.4971C18.4774 23.3293 18.5053 23.1265 18.5053 22.8889V22.5952C18.3026 22.5463 18.0858 22.5044 17.8622 22.4764C17.6384 22.4484 17.4218 22.4344 17.205 22.4344C16.7366 22.4344 16.3941 22.5253 16.1634 22.7141C15.9326 22.9028 15.8208 23.1685 15.8208 23.518C15.8208 23.8466 15.9047 24.0913 16.0795 24.259C16.2473 24.4338 16.492 24.5177 16.8136 24.5177L16.8135 24.5176L16.8135 24.5177ZM22.4272 25.2727C22.3013 25.2727 22.2175 25.2518 22.1615 25.2028C22.1056 25.1609 22.0567 25.063 22.0147 24.9301L20.3719 19.5262C20.33 19.3864 20.3089 19.2955 20.3089 19.2466C20.3089 19.1347 20.3649 19.0718 20.4767 19.0718H21.1619C21.2947 19.0718 21.3856 19.0928 21.4346 19.1417C21.4905 19.1836 21.5324 19.2815 21.5743 19.4144L22.7488 24.0423L23.8394 19.4144C23.8744 19.2746 23.9163 19.1836 23.9722 19.1417C24.0282 19.0997 24.126 19.0718 24.2519 19.0718H24.8111C24.9439 19.0718 25.0349 19.0928 25.0908 19.1417C25.1467 19.1836 25.1957 19.2815 25.2236 19.4144L26.3281 24.0982L27.5376 19.4144C27.5795 19.2746 27.6285 19.1836 27.6774 19.1417C27.7333 19.0998 27.8242 19.0718 27.9501 19.0718H28.6002C28.7121 19.0718 28.775 19.1277 28.775 19.2466C28.775 19.2815 28.768 19.3165 28.761 19.3584C28.754 19.4004 28.74 19.4563 28.712 19.5332L27.0273 24.9372C26.9853 25.077 26.9364 25.1678 26.8805 25.2098C26.8245 25.2518 26.7337 25.2798 26.6148 25.2798H26.0136C25.8807 25.2798 25.7898 25.2588 25.7339 25.2098C25.678 25.1609 25.6291 25.07 25.6011 24.9302L24.5175 20.4211L23.4409 24.9232C23.406 25.063 23.364 25.1539 23.3081 25.2028C23.2521 25.2517 23.1543 25.2727 23.0285 25.2727H22.4272ZM31.4105 25.4614C31.0469 25.4614 30.6834 25.4195 30.3339 25.3356C29.9843 25.2518 29.7117 25.1609 29.5299 25.056C29.418 24.993 29.3412 24.9232 29.3132 24.8603C29.2852 24.7973 29.2713 24.7275 29.2713 24.6645V24.308C29.2713 24.1612 29.3272 24.0913 29.4321 24.0913C29.474 24.0913 29.5159 24.0983 29.5579 24.1123C29.5998 24.1262 29.6627 24.1542 29.7326 24.1822C29.9703 24.287 30.229 24.3709 30.5016 24.4268C30.7813 24.4828 31.0539 24.5107 31.3336 24.5107C31.774 24.5107 32.1166 24.4338 32.3542 24.28C32.5919 24.1262 32.7178 23.9025 32.7178 23.6159C32.7178 23.4201 32.6548 23.2593 32.529 23.1265C32.4032 22.9937 32.1655 22.8749 31.823 22.763L30.8093 22.4484C30.299 22.2876 29.9214 22.0499 29.6907 21.7353C29.4601 21.4277 29.3412 21.0852 29.3412 20.7217C29.3412 20.4281 29.4042 20.1694 29.53 19.9457C29.6558 19.722 29.8236 19.5262 30.0333 19.3724C30.2431 19.2116 30.4807 19.0928 30.7604 19.0089C31.04 18.925 31.3337 18.89 31.6413 18.89C31.7951 18.89 31.9559 18.897 32.1097 18.9179C32.2705 18.9389 32.4173 18.9668 32.5641 18.9948C32.7038 19.0297 32.8367 19.0647 32.9625 19.1066C33.0883 19.1486 33.1863 19.1905 33.2561 19.2325C33.354 19.2884 33.424 19.3444 33.4659 19.4072C33.5078 19.4632 33.5288 19.5401 33.5288 19.638V19.9666C33.5288 20.1134 33.4729 20.1903 33.368 20.1903C33.3121 20.1903 33.2212 20.1623 33.1024 20.1064C32.7039 19.9246 32.2564 19.8337 31.7601 19.8337C31.3616 19.8337 31.047 19.8966 30.8303 20.0294C30.6136 20.1622 30.5017 20.365 30.5017 20.6516C30.5017 20.8474 30.5716 21.0152 30.7114 21.148C30.8512 21.2808 31.1099 21.4136 31.4804 21.5324L32.4731 21.847C32.9765 22.0078 33.34 22.2316 33.5567 22.5182C33.7735 22.8048 33.8783 23.1334 33.8783 23.4969C33.8783 23.7975 33.8154 24.0702 33.6966 24.3078C33.5707 24.5456 33.403 24.7552 33.1863 24.923C32.9695 25.0978 32.7109 25.2236 32.4103 25.3145C32.0957 25.4124 31.7672 25.4613 31.4105 25.4613L31.4105 25.4614L31.4105 25.4614Z" fill="#81848B"/>
<path fill-rule="evenodd" clip-rule="evenodd" d="M32.7337 28.8588C30.4338 30.5576 27.0921 31.4594 24.2189 31.4594C20.1921 31.4594 16.5639 29.9703 13.8234 27.4956C13.6067 27.2998 13.8025 27.0342 14.0611 27.188C17.0253 28.9077 20.6815 29.9494 24.4635 29.9494C27.0152 29.9494 29.8185 29.418 32.3982 28.3274C32.7827 28.1526 33.1113 28.5791 32.7337 28.8588V28.8588Z" fill="#81848B"/>
<path fill-rule="evenodd" clip-rule="evenodd" d="M33.6896 27.7682C33.396 27.3906 31.7461 27.5864 30.9981 27.6773C30.7744 27.7053 30.7394 27.5095 30.9422 27.3627C32.2564 26.4399 34.4166 26.7056 34.6683 27.0132C34.92 27.3278 34.5984 29.488 33.368 30.5226C33.1793 30.6834 32.9975 30.5995 33.0814 30.3898C33.3611 29.6977 33.9832 28.1387 33.6896 27.7682H33.6896V27.7682Z" fill="#81848B"/>
</g>
<defs>
<clipPath id="clip0_1_814">
<rect width="21.0195" height="12.5697" fill="white" transform="translate(13.7305 18.8902)"/>
</clipPath>
</defs>
</svg>
