<svg width="48" height="49" viewBox="0 0 48 49" fill="none" xmlns="http://www.w3.org/2000/svg">
<rect y="0.765198" width="48" height="48" rx="6" fill="#F9FAFB"/>
<g clip-path="url(#clip0_1_844)">
<path d="M20.9682 14.7657H26.9313L20.741 33.1178C20.7094 33.2115 20.6633 33.2998 20.6045 33.3793C20.5458 33.4588 20.475 33.5287 20.3947 33.5864C20.3143 33.6441 20.2256 33.6889 20.1314 33.7191C20.0372 33.7494 19.9389 33.765 19.8402 33.765H15.1993C15.0487 33.765 14.9001 33.7292 14.7661 33.6601C14.6319 33.5913 14.5161 33.4915 14.4282 33.3689C14.3403 33.2463 14.2828 33.1046 14.2605 32.9555C14.238 32.8064 14.2517 32.654 14.2998 32.5112L20.0672 15.4124C20.0986 15.3187 20.1447 15.2304 20.2037 15.1509C20.2624 15.0713 20.3335 15.0015 20.4135 14.9438C20.4939 14.8861 20.5826 14.8413 20.6768 14.811C20.771 14.7808 20.8693 14.7652 20.968 14.7652V14.7654L20.9682 14.7657Z" fill="#81848B"/>
<path d="M31.9602 33.7654H26.6057C26.546 33.7654 26.4863 33.7599 26.4274 33.7486C26.3687 33.7375 26.311 33.7209 26.2553 33.6989C26.1996 33.677 26.1462 33.6498 26.0956 33.6181C26.045 33.5861 25.9975 33.5495 25.9538 33.5087L19.8776 27.834C19.8134 27.774 19.7686 27.6961 19.7491 27.6103C19.7094 27.4348 19.781 27.2529 19.9298 27.1516C20.0025 27.1022 20.0885 27.0757 20.1764 27.0757H29.6323L31.9598 33.7656L31.9603 33.7654L31.9602 33.7654Z" fill="#81848B"/>
<path d="M26.951 14.7652L22.7768 27.0761L29.5971 27.0746L31.9367 33.7644H26.6024C26.5472 33.7639 26.4921 33.7588 26.4377 33.7491C26.3833 33.7393 26.3298 33.7249 26.278 33.7057C26.1739 33.6678 26.0771 33.6124 25.9918 33.5417L21.8901 29.7136L20.7418 33.0999C20.7121 33.1846 20.6713 33.2649 20.6204 33.3387C20.5184 33.4872 20.3789 33.606 20.2161 33.6831C20.1349 33.7214 20.0492 33.7487 19.9609 33.7644H15.2005C15.0483 33.7649 14.8981 33.7286 14.7629 33.6586C14.4883 33.5166 14.3001 33.2498 14.2586 32.9434C14.2382 32.7924 14.2543 32.6387 14.3057 32.4953L20.0637 15.4247C20.0936 15.3292 20.1387 15.2393 20.1972 15.1582C20.2554 15.077 20.3264 15.0055 20.407 14.9465C20.4876 14.8876 20.5773 14.8417 20.6723 14.811C20.7673 14.7803 20.8668 14.7647 20.9668 14.7652H26.9513H26.951Z" fill="#81848B"/>
<path d="M34.3513 32.5107C34.3995 32.6536 34.413 32.8059 34.3908 32.955C34.3685 33.1042 34.311 33.2458 34.2233 33.3684C34.045 33.6169 33.758 33.7643 33.4522 33.7644H26.8062C26.9568 33.7644 27.1054 33.7284 27.2397 33.6596C27.3737 33.5908 27.4896 33.4908 27.5775 33.3684C27.6654 33.246 27.7229 33.1042 27.7453 32.955C27.7677 32.8059 27.7541 32.6535 27.706 32.5107L21.9384 15.4114C21.8749 15.223 21.7539 15.0594 21.5925 14.9433C21.5124 14.8856 21.4238 14.8411 21.3298 14.8108C21.2357 14.7805 21.1375 14.7652 21.0391 14.7652H27.6848C27.7836 14.7652 27.8816 14.7805 27.9758 14.8108C28.0697 14.8411 28.1584 14.8858 28.2388 14.9433C28.3189 15.001 28.3897 15.0707 28.4484 15.1501C28.507 15.2296 28.5529 15.3177 28.5847 15.4114L34.3523 32.5107H34.3513Z" fill="#81848B"/>
</g>
<defs>
<clipPath id="clip0_1_844">
<rect width="20.152" height="19" fill="white" transform="translate(14.25 14.7652)"/>
</clipPath>
</defs>
</svg>
