<svg width="48" height="48" viewBox="0 0 48 48" fill="none" xmlns="http://www.w3.org/2000/svg">
<rect width="48" height="48" rx="6" fill="#E6E6E6"/>
<path d="M34 24C34 29.5228 29.5228 34 24 34M34 24C34 18.4772 29.5228 14 24 14M34 24H14M24 34C18.4772 34 14 29.5228 14 24M24 34C26.5013 31.2616 27.9228 27.708 28 24C27.9228 20.292 26.5013 16.7384 24 14M24 34C21.4987 31.2616 20.0772 27.708 20 24C20.0772 20.292 21.4987 16.7384 24 14M14 24C14 18.4772 18.4772 14 24 14" stroke="#09090B" stroke-width="1.5" stroke-linecap="round" stroke-linejoin="round"/>
</svg>
