<svg width="48" height="49" viewBox="0 0 48 49" fill="none" xmlns="http://www.w3.org/2000/svg">
<rect y="0.765198" width="48" height="48" rx="6" fill="#F9FAFB"/>
<g clip-path="url(#clip0_1_830)">
<path d="M26.6839 21.371L27.3474 21.3807L29.1502 19.5779L29.2376 18.814C27.807 17.542 25.92 16.7652 23.855 16.7652C20.1199 16.7652 16.9673 19.306 16.0352 22.7498C16.2326 22.6139 16.6534 22.7142 16.6534 22.7142L20.2558 22.1219C20.2558 22.1219 20.4403 21.8144 20.5342 21.8306C21.3854 20.8952 22.5927 20.3612 23.8582 20.3612C24.9264 20.3612 25.9103 20.7399 26.6839 21.3645V21.371Z" fill="#81848B"/>
<path d="M31.6792 22.7563C31.2617 21.2124 30.3975 19.8498 29.2323 18.814L26.6785 21.3678C27.7013 22.1931 28.3584 23.4554 28.3584 24.8699V25.3198C29.6013 25.3198 30.6079 26.3296 30.6079 27.5693C30.6079 28.8089 29.598 29.8188 28.3584 29.8188H23.8562L23.4062 30.2719V32.9746L23.8562 33.4212H28.3584C31.5886 33.418 34.2071 30.7995 34.2103 27.5693C34.2103 25.5787 33.207 23.8147 31.676 22.7531L31.6792 22.7563Z" fill="#81848B"/>
<path d="M19.3502 33.4289H23.8492V29.8232H19.3502C19.0298 29.8232 18.7158 29.7553 18.4245 29.6226L17.7739 29.8232L15.9711 31.6261L15.8125 32.2346C16.8288 33.0081 18.0717 33.4289 19.3502 33.4289Z" fill="#81848B"/>
<path d="M19.3519 21.7223C16.1217 21.7255 13.5032 24.344 13.5 27.5742C13.5 29.4742 14.4095 31.167 15.8207 32.2351L18.4295 29.6263C17.6235 29.2638 17.1024 28.4611 17.1024 27.5742C17.1024 26.3313 18.1123 25.3247 19.3519 25.3247C20.2647 25.3247 21.048 25.875 21.404 26.6518L24.0128 24.043C22.9414 22.635 21.2519 21.7223 19.3519 21.7223Z" fill="#81848B"/>
</g>
<defs>
<clipPath id="clip0_1_830">
<rect width="20.7148" height="16.6625" fill="white" transform="translate(13.5 16.7652)"/>
</clipPath>
</defs>
</svg>
