<svg width="48" height="48" viewBox="0 0 48 48" fill="none" xmlns="http://www.w3.org/2000/svg">
    <rect width="48" height="48" rx="6" fill="#E6E6E6" />
    <path
        d="M26.1208 26.1213C27.2924 24.9497 27.2924 23.0503 26.1208 21.8787C24.9492 20.7071 23.0497 20.7071 21.8782 21.8787C20.7066 23.0503 20.7066 24.9497 21.8782 26.1213C23.0497 27.2929 24.9492 27.2929 26.1208 26.1213Z"
        stroke="black" stroke-width="1.5" stroke-miterlimit="1.5" stroke-linecap="round" stroke-linejoin="round" />
    <path fill-rule="evenodd" clip-rule="evenodd"
        d="M21.8787 21.8784C21.8787 21.8784 19.0764 21.8876 17.636 20.4642C16.2275 19.0542 14.7716 17.6704 16.2218 16.2215C17.6 14.8448 19.0312 16.2067 20.4645 17.6357C21.8702 19.0372 21.8787 21.8784 21.8787 21.8784Z"
        stroke="black" stroke-width="1.5" stroke-miterlimit="1.5" stroke-linecap="round" stroke-linejoin="round" />
    <path fill-rule="evenodd" clip-rule="evenodd"
        d="M26.1216 21.8787C26.1216 21.8787 26.1124 19.0764 27.5358 17.636C28.9458 16.2275 30.3296 14.7716 31.7785 16.2218C33.1552 17.6 31.7933 19.0312 30.3643 20.4645C28.9628 21.8702 26.1216 21.8787 26.1216 21.8787Z"
        stroke="black" stroke-width="1.5" stroke-miterlimit="1.5" stroke-linecap="round" stroke-linejoin="round" />
    <path fill-rule="evenodd" clip-rule="evenodd"
        d="M21.8784 26.1213C21.8784 26.1213 21.8876 28.9236 20.4642 30.364C19.0542 31.7725 17.6704 33.2284 16.2215 31.7782C14.8448 30.4 16.2067 28.9688 17.6357 27.5355C19.0372 26.1298 21.8784 26.1213 21.8784 26.1213Z"
        stroke="black" stroke-width="1.5" stroke-miterlimit="1.5" stroke-linecap="round" stroke-linejoin="round" />
    <path fill-rule="evenodd" clip-rule="evenodd"
        d="M26.1213 26.1216C26.1213 26.1216 28.9236 26.1124 30.364 27.5358C31.7725 28.9458 33.2284 30.3296 31.7782 31.7785C30.4 33.1552 28.9688 31.7933 27.5355 30.3643C26.1298 28.9628 26.1213 26.1216 26.1213 26.1216Z"
        stroke="black" stroke-width="1.5" stroke-miterlimit="1.5" stroke-linecap="round" stroke-linejoin="round" />
</svg>