<svg width="48" height="48" viewBox="0 0 48 48" fill="none" xmlns="http://www.w3.org/2000/svg">
    <rect width="48" height="48" rx="6" fill="#E6E6E6" />
    <path
        d="M18 31V28M22 31V28M26 31V28M30 31V28M20 23V21M28 23V21M24 23V21M14 27H34M14 19C14 18.4696 14.2107 17.9609 14.5858 17.5858C14.9609 17.2107 15.4696 17 16 17H32C32.5304 17 33.0391 17.2107 33.4142 17.5858C33.7893 17.9609 34 18.4696 34 19V20.1C33.5858 20.222 33.2222 20.4748 32.9635 20.8206C32.7049 21.1664 32.5651 21.5867 32.5651 22.0185C32.5651 22.4503 32.7049 22.8706 32.9635 23.2164C33.2222 23.5622 33.5858 23.815 34 23.937V29C34 29.5304 33.7893 30.0391 33.4142 30.4142C33.0391 30.7893 32.5304 31 32 31H16C15.4696 31 14.9609 30.7893 14.5858 30.4142C14.2107 30.0391 14 29.5304 14 29V23.9C14.4142 23.778 14.7778 23.5252 15.0365 23.1794C15.2951 22.8336 15.4349 22.4133 15.4349 21.9815C15.4349 21.5497 15.2951 21.1294 15.0365 20.7836C14.7778 20.4378 14.4142 20.185 14 20.063V19Z"
        stroke="#09090B" stroke-width="1.5" stroke-linecap="round" stroke-linejoin="round" />
</svg>