<svg width="48" height="48" viewBox="0 0 48 48" fill="none" xmlns="http://www.w3.org/2000/svg">
<rect width="48" height="48" rx="6" fill="#E6E6E6"/>
<path d="M18 18H18.01M18 30H18.01M16 14H32C33.1046 14 34 14.8954 34 16V20C34 21.1046 33.1046 22 32 22H16C14.8954 22 14 21.1046 14 20V16C14 14.8954 14.8954 14 16 14ZM16 26H32C33.1046 26 34 26.8954 34 28V32C34 33.1046 33.1046 34 32 34H16C14.8954 34 14 33.1046 14 32V28C14 26.8954 14.8954 26 16 26Z" stroke="#09090B" stroke-width="1.5" stroke-linecap="round" stroke-linejoin="round"/>
</svg>
