<svg width="400" height="239" viewBox="0 0 400 239" fill="none" xmlns="http://www.w3.org/2000/svg">
<g clip-path="url(#clip0_3729_60911)">
<rect x="0.739974" y="-141.319" width="398.882" height="425.173" fill="white" stroke="#EEF0F3" stroke-width="0.745573"/>
<line x1="0.739974" y1="-141.691" x2="0.739993" y2="284.227" stroke="#EEF0F3" stroke-width="0.745573"/>
<line x1="125.623" y1="-141.691" x2="125.623" y2="284.227" stroke="#EEF0F3" stroke-width="0.745573"/>
<line x1="250.506" y1="-141.691" x2="250.506" y2="284.227" stroke="#EEF0F3" stroke-width="0.745573"/>
<line x1="375.388" y1="-141.691" x2="375.388" y2="284.227" stroke="#EEF0F3" stroke-width="0.745573"/>
<line x1="25.7165" y1="-141.691" x2="25.7166" y2="284.227" stroke="#EEF0F3" stroke-width="0.745573"/>
<line x1="150.599" y1="-141.691" x2="150.599" y2="284.227" stroke="#EEF0F3" stroke-width="0.745573"/>
<line x1="275.482" y1="-141.691" x2="275.482" y2="284.227" stroke="#EEF0F3" stroke-width="0.745573"/>
<line x1="100.646" y1="-141.691" x2="100.646" y2="284.227" stroke="#EEF0F3" stroke-width="0.745573"/>
<line x1="225.529" y1="-141.691" x2="225.529" y2="284.227" stroke="#EEF0F3" stroke-width="0.745573"/>
<line x1="350.412" y1="-141.691" x2="350.412" y2="284.227" stroke="#EEF0F3" stroke-width="0.745573"/>
<line x1="75.6697" y1="-141.691" x2="75.6697" y2="284.227" stroke="#EEF0F3" stroke-width="0.745573"/>
<line x1="200.552" y1="-141.691" x2="200.552" y2="284.227" stroke="#EEF0F3" stroke-width="0.745573"/>
<line x1="325.435" y1="-141.691" x2="325.435" y2="284.227" stroke="#EEF0F3" stroke-width="0.745573"/>
<line x1="50.6931" y1="-141.691" x2="50.6931" y2="284.227" stroke="#EEF0F3" stroke-width="0.745573"/>
<line x1="175.576" y1="-141.691" x2="175.576" y2="284.227" stroke="#EEF0F3" stroke-width="0.745573"/>
<line x1="300.459" y1="-141.691" x2="300.459" y2="284.227" stroke="#EEF0F3" stroke-width="0.745573"/>
<line x1="0.367188" y1="31.8958" x2="399.994" y2="31.8958" stroke="#EEF0F3" stroke-width="0.745573"/>
<line x1="0.367188" y1="81.8518" x2="399.994" y2="81.8518" stroke="#EEF0F3" stroke-width="0.745573"/>
<line x1="0.367188" y1="131.805" x2="399.994" y2="131.805" stroke="#EEF0F3" stroke-width="0.745573"/>
<line x1="0.367188" y1="181.756" x2="399.994" y2="181.756" stroke="#EEF0F3" stroke-width="0.745573"/>
<line x1="0.367188" y1="231.709" x2="399.994" y2="231.709" stroke="#EEF0F3" stroke-width="0.745573"/>
<line x1="0.367188" y1="6.91921" x2="399.994" y2="6.91921" stroke="#EEF0F3" stroke-width="0.745573"/>
<line x1="0.367188" y1="56.8733" x2="399.994" y2="56.8733" stroke="#EEF0F3" stroke-width="0.745573"/>
<line x1="0.367188" y1="106.826" x2="399.994" y2="106.826" stroke="#EEF0F3" stroke-width="0.745573"/>
<line x1="0.367188" y1="156.78" x2="399.994" y2="156.78" stroke="#EEF0F3" stroke-width="0.745573"/>
<line x1="0.367188" y1="206.735" x2="399.994" y2="206.735" stroke="#EEF0F3" stroke-width="0.745573"/>
<g filter="url(#filter0_d_3729_60911)">
<rect x="131.594" y="54.6309" width="137.185" height="128.984" rx="1.49115" fill="#FAF9F8"/>
<rect x="131.967" y="55.0036" width="136.44" height="128.239" rx="1.11836" stroke="#E6E8EB" stroke-width="0.745573"/>
</g>
<rect x="136.836" y="59.873" width="126.528" height="105.906" rx="1.49115" fill="#FF414C"/>
<path d="M207.062 120.135L214.053 132.43H199.932L192.867 120.135H207.062Z" fill="url(#paint0_linear_3729_60911)"/>
<path d="M214.049 132.433L221.102 120.138L206.984 95.541H192.867L214.049 132.433Z" fill="black"/>
<path d="M185.809 107.834H199.926L185.814 132.431L178.75 120.135L185.809 107.834Z" fill="black"/>
<path d="M145.519 72.062C145.163 72.062 144.882 71.9711 144.676 71.7893C144.473 71.6033 144.372 71.3513 144.372 71.0331C144.372 70.7108 144.479 70.4587 144.694 70.2769C144.913 70.0909 145.213 69.998 145.593 69.998H146.541V69.6819C146.541 69.4959 146.483 69.3513 146.368 69.248C146.252 69.1447 146.089 69.093 145.878 69.093C145.692 69.093 145.537 69.1344 145.413 69.217C145.289 69.2955 145.217 69.4009 145.196 69.5331H144.539C144.576 69.2273 144.717 68.9835 144.961 68.8017C145.209 68.6199 145.521 68.529 145.897 68.529C146.302 68.529 146.622 68.6323 146.857 68.8389C147.093 69.0414 147.211 69.3182 147.211 69.6695V72H146.56V71.374H146.448L146.56 71.25C146.56 71.4979 146.465 71.6963 146.275 71.845C146.085 71.9897 145.833 72.062 145.519 72.062ZM145.717 71.5475C145.957 71.5475 146.153 71.4876 146.306 71.3678C146.463 71.2438 146.541 71.0868 146.541 70.8967V70.4504H145.605C145.432 70.4504 145.293 70.498 145.19 70.593C145.091 70.688 145.041 70.8182 145.041 70.9835C145.041 71.157 145.101 71.2955 145.221 71.3988C145.341 71.4979 145.506 71.5475 145.717 71.5475ZM148.38 72V67.4753H149.049V69.9608H149.65L150.555 68.591H151.311L150.227 70.2273L151.33 72H150.561L149.65 70.5372H149.049V72H148.38ZM153.2 72.062C152.844 72.062 152.563 71.9711 152.357 71.7893C152.154 71.6033 152.053 71.3513 152.053 71.0331C152.053 70.7108 152.16 70.4587 152.375 70.2769C152.594 70.0909 152.894 69.998 153.274 69.998H154.222V69.6819C154.222 69.4959 154.164 69.3513 154.049 69.248C153.933 69.1447 153.77 69.093 153.559 69.093C153.373 69.093 153.218 69.1344 153.094 69.217C152.97 69.2955 152.898 69.4009 152.877 69.5331H152.22C152.257 69.2273 152.398 68.9835 152.642 68.8017C152.89 68.6199 153.202 68.529 153.578 68.529C153.983 68.529 154.303 68.6323 154.538 68.8389C154.774 69.0414 154.892 69.3182 154.892 69.6695V72H154.241V71.374H154.129L154.241 71.25C154.241 71.4979 154.146 71.6963 153.956 71.845C153.766 71.9897 153.514 72.062 153.2 72.062ZM153.398 71.5475C153.638 71.5475 153.834 71.4876 153.987 71.3678C154.144 71.2438 154.222 71.0868 154.222 70.8967V70.4504H153.286C153.113 70.4504 152.974 70.498 152.871 70.593C152.772 70.688 152.722 70.8182 152.722 70.9835C152.722 71.157 152.782 71.2955 152.902 71.3988C153.022 71.4979 153.187 71.5475 153.398 71.5475ZM157.263 72.0558C157.019 72.0558 156.804 72.0165 156.619 71.938C156.437 71.8595 156.292 71.7521 156.185 71.6157C156.081 71.4752 156.021 71.3099 156.005 71.1199H156.674C156.691 71.2314 156.751 71.3223 156.854 71.3926C156.957 71.4587 157.094 71.4917 157.263 71.4917H157.53C157.732 71.4917 157.885 71.4504 157.988 71.3678C158.092 71.2851 158.143 71.1756 158.143 71.0393C158.143 70.907 158.096 70.8037 158.001 70.7294C157.91 70.6509 157.773 70.5992 157.592 70.5744L157.152 70.5062C156.788 70.4484 156.519 70.3451 156.346 70.1963C156.176 70.0434 156.092 69.8182 156.092 69.5207C156.092 69.2067 156.193 68.9649 156.395 68.7955C156.602 68.622 156.906 68.5352 157.307 68.5352H157.542C157.897 68.5352 158.18 68.6178 158.391 68.7831C158.606 68.9443 158.728 69.1612 158.757 69.4339H158.087C158.071 69.3348 158.015 69.2542 157.92 69.1922C157.829 69.1302 157.703 69.0992 157.542 69.0992H157.307C157.112 69.0992 156.97 69.1364 156.879 69.2108C156.792 69.281 156.749 69.3864 156.749 69.5269C156.749 69.6509 156.788 69.7438 156.866 69.8058C156.945 69.8678 157.067 69.9112 157.232 69.936L157.685 70.0104C158.069 70.0641 158.35 70.1715 158.528 70.3327C158.709 70.4897 158.8 70.719 158.8 71.0207C158.8 71.3471 158.693 71.6012 158.478 71.7831C158.267 71.9649 157.951 72.0558 157.53 72.0558H157.263ZM159.883 72V67.4753H160.552V68.591L160.546 69.2418H160.707L160.546 69.3967C160.546 69.124 160.626 68.9112 160.787 68.7583C160.949 68.6054 161.172 68.529 161.457 68.529C161.796 68.529 162.066 68.6385 162.269 68.8575C162.471 69.0724 162.573 69.3637 162.573 69.7315V72H161.903V69.8058C161.903 69.5827 161.843 69.4091 161.723 69.2852C161.604 69.1612 161.44 69.0992 161.234 69.0992C161.023 69.0992 160.856 69.1653 160.732 69.2976C160.612 69.4257 160.552 69.6096 160.552 69.8492V72H159.883ZM168.927 72.062C168.646 72.062 168.398 72.0103 168.183 71.907C167.973 71.7996 167.809 71.6467 167.694 71.4484C167.582 71.2459 167.526 71.0104 167.526 70.7418V69.8492C167.526 69.5765 167.582 69.341 167.694 69.1426C167.809 68.9443 167.973 68.7935 168.183 68.6902C168.398 68.5827 168.646 68.529 168.927 68.529C169.336 68.529 169.665 68.6364 169.913 68.8513C170.161 69.0662 170.291 69.3596 170.303 69.7315H169.634C169.621 69.5372 169.553 69.3864 169.429 69.279C169.305 69.1715 169.138 69.1178 168.927 69.1178C168.7 69.1178 168.52 69.1819 168.388 69.31C168.256 69.4339 168.19 69.6116 168.19 69.843V70.7418C168.19 70.9732 168.256 71.1529 168.388 71.281C168.52 71.4091 168.7 71.4732 168.927 71.4732C169.138 71.4732 169.305 71.4194 169.429 71.312C169.553 71.2046 169.621 71.0537 169.634 70.8595H170.303C170.291 71.2314 170.161 71.5248 169.913 71.7397C169.665 71.9545 169.336 72.062 168.927 72.062ZM172.743 72.0558C172.462 72.0558 172.218 72.0021 172.011 71.8946C171.805 71.7872 171.646 71.6343 171.534 71.436C171.423 71.2376 171.367 71.0042 171.367 70.7356V69.8554C171.367 69.5827 171.423 69.3492 171.534 69.155C171.646 68.9567 171.805 68.8038 172.011 68.6964C172.218 68.5889 172.462 68.5352 172.743 68.5352C173.024 68.5352 173.268 68.5889 173.474 68.6964C173.681 68.8038 173.84 68.9567 173.951 69.155C174.063 69.3492 174.119 69.5827 174.119 69.8554V70.7356C174.119 71.0042 174.063 71.2376 173.951 71.436C173.84 71.6343 173.681 71.7872 173.474 71.8946C173.268 72.0021 173.024 72.0558 172.743 72.0558ZM172.743 71.467C172.97 71.467 173.146 71.405 173.27 71.281C173.394 71.1529 173.456 70.9711 173.456 70.7356V69.8554C173.456 69.6158 173.394 69.4339 173.27 69.31C173.146 69.186 172.97 69.124 172.743 69.124C172.52 69.124 172.344 69.186 172.216 69.31C172.092 69.4339 172.03 69.6158 172.03 69.8554V70.7356C172.03 70.9711 172.092 71.1529 172.216 71.281C172.344 71.405 172.52 71.467 172.743 71.467ZM175.244 72V68.591H175.908V69.2418H176.069L175.908 69.3967C175.908 69.124 175.988 68.9112 176.149 68.7583C176.311 68.6054 176.534 68.529 176.819 68.529C177.158 68.529 177.428 68.6385 177.631 68.8575C177.833 69.0724 177.934 69.3637 177.934 69.7315V72H177.265V69.8058C177.265 69.5827 177.205 69.4112 177.085 69.2914C176.965 69.1715 176.802 69.1116 176.596 69.1116C176.385 69.1116 176.218 69.1757 176.094 69.3038C175.974 69.4277 175.914 69.6096 175.914 69.8492V72H175.244ZM180.306 72.0558C180.062 72.0558 179.847 72.0165 179.661 71.938C179.48 71.8595 179.335 71.7521 179.227 71.6157C179.124 71.4752 179.064 71.3099 179.048 71.1199H179.717C179.734 71.2314 179.794 71.3223 179.897 71.3926C180 71.4587 180.137 71.4917 180.306 71.4917H180.572C180.775 71.4917 180.928 71.4504 181.031 71.3678C181.134 71.2851 181.186 71.1756 181.186 71.0393C181.186 70.907 181.139 70.8037 181.044 70.7294C180.953 70.6509 180.816 70.5992 180.634 70.5744L180.194 70.5062C179.831 70.4484 179.562 70.3451 179.389 70.1963C179.219 70.0434 179.134 69.8182 179.134 69.5207C179.134 69.2067 179.236 68.9649 179.438 68.7955C179.645 68.622 179.949 68.5352 180.349 68.5352H180.585C180.94 68.5352 181.223 68.6178 181.434 68.7831C181.649 68.9443 181.771 69.1612 181.8 69.4339H181.13C181.114 69.3348 181.058 69.2542 180.963 69.1922C180.872 69.1302 180.746 69.0992 180.585 69.0992H180.349C180.155 69.0992 180.013 69.1364 179.922 69.2108C179.835 69.281 179.792 69.3864 179.792 69.5269C179.792 69.6509 179.831 69.7438 179.909 69.8058C179.988 69.8678 180.11 69.9112 180.275 69.936L180.727 70.0104C181.112 70.0641 181.393 70.1715 181.57 70.3327C181.752 70.4897 181.843 70.719 181.843 71.0207C181.843 71.3471 181.736 71.6012 181.521 71.7831C181.31 71.9649 180.994 72.0558 180.572 72.0558H180.306ZM184.264 72.0558C183.983 72.0558 183.739 72.0021 183.533 71.8946C183.326 71.7872 183.167 71.6343 183.056 71.436C182.944 71.2376 182.888 71.0042 182.888 70.7356V69.8554C182.888 69.5827 182.944 69.3492 183.056 69.155C183.167 68.9567 183.326 68.8038 183.533 68.6964C183.739 68.5889 183.983 68.5352 184.264 68.5352C184.545 68.5352 184.789 68.5889 184.996 68.6964C185.202 68.8038 185.361 68.9567 185.473 69.155C185.584 69.3492 185.64 69.5827 185.64 69.8554V70.7356C185.64 71.0042 185.584 71.2376 185.473 71.436C185.361 71.6343 185.202 71.7872 184.996 71.8946C184.789 72.0021 184.545 72.0558 184.264 72.0558ZM184.264 71.467C184.491 71.467 184.667 71.405 184.791 71.281C184.915 71.1529 184.977 70.9711 184.977 70.7356V69.8554C184.977 69.6158 184.915 69.4339 184.791 69.31C184.667 69.186 184.491 69.124 184.264 69.124C184.041 69.124 183.865 69.186 183.737 69.31C183.613 69.4339 183.551 69.6158 183.551 69.8554V70.7356C183.551 70.9711 183.613 71.1529 183.737 71.281C183.865 71.405 184.041 71.467 184.264 71.467ZM188.594 72C188.384 72 188.2 71.9587 188.043 71.876C187.886 71.7893 187.762 71.6674 187.671 71.5103C187.584 71.3533 187.541 71.1715 187.541 70.9649V68.0827H186.425V67.4753H188.21V70.9649C188.21 71.0971 188.247 71.2025 188.322 71.281C188.396 71.3554 188.497 71.3926 188.625 71.3926H189.679V72H188.594ZM191.945 72.062C191.668 72.062 191.424 72.0083 191.214 71.9008C191.007 71.7893 190.848 71.6343 190.736 71.436C190.625 71.2376 190.569 71.0062 190.569 70.7418V69.8492C190.569 69.5806 190.625 69.3492 190.736 69.155C190.848 68.9567 191.007 68.8038 191.214 68.6964C191.424 68.5848 191.668 68.529 191.945 68.529C192.226 68.529 192.47 68.5848 192.677 68.6964C192.883 68.8038 193.042 68.9567 193.154 69.155C193.265 69.3492 193.321 69.5806 193.321 69.8492V70.4566H191.214V70.7418C191.214 70.9938 191.276 71.186 191.4 71.3182C191.528 71.4504 191.712 71.5165 191.951 71.5165C192.146 71.5165 192.303 71.4835 192.422 71.4174C192.542 71.3471 192.617 71.2459 192.646 71.1137H193.309C193.259 71.4029 193.11 71.6343 192.862 71.8079C192.615 71.9773 192.309 72.062 191.945 72.062ZM192.677 70.0538V69.843C192.677 69.5951 192.615 69.4029 192.491 69.2666C192.367 69.1302 192.185 69.062 191.945 69.062C191.71 69.062 191.528 69.1302 191.4 69.2666C191.276 69.4029 191.214 69.5972 191.214 69.8492V70.0042L192.726 69.998L192.677 70.0538Z" fill="white"/>
<rect x="137.209" y="169.822" width="8.67621" height="8.57447" rx="1.11836" fill="#F2F2F2" stroke="#E6E8EB" stroke-width="0.745573"/>
<rect x="148.513" y="169.822" width="8.67621" height="8.57447" rx="1.11836" fill="#F2F2F2" stroke="#E6E8EB" stroke-width="0.745573"/>
<rect x="160.295" y="169.822" width="8.67621" height="8.57447" rx="1.11836" fill="#F2F2F2" stroke="#E6E8EB" stroke-width="0.745573"/>
<rect x="172.068" y="169.822" width="8.67621" height="8.57447" rx="1.11836" fill="#F2F2F2" stroke="#E6E8EB" stroke-width="0.745573"/>
<rect x="219.177" y="169.822" width="8.67621" height="8.57447" rx="1.11836" fill="#F2F2F2" stroke="#E6E8EB" stroke-width="0.745573"/>
<rect x="183.842" y="169.822" width="8.67621" height="8.57447" rx="1.11836" fill="#F2F2F2" stroke="#E6E8EB" stroke-width="0.745573"/>
<rect x="230.951" y="169.822" width="8.67621" height="8.57447" rx="1.11836" fill="#F2F2F2" stroke="#E6E8EB" stroke-width="0.745573"/>
<rect x="195.623" y="169.822" width="8.67621" height="8.57447" rx="1.11836" fill="#F2F2F2" stroke="#E6E8EB" stroke-width="0.745573"/>
<rect x="242.732" y="169.822" width="8.67621" height="8.57447" rx="1.11836" fill="#F2F2F2" stroke="#E6E8EB" stroke-width="0.745573"/>
<rect x="207.396" y="169.822" width="8.67621" height="8.57447" rx="1.11836" fill="#F2F2F2" stroke="#E6E8EB" stroke-width="0.745573"/>
<rect x="254.506" y="169.822" width="8.67621" height="8.57447" rx="1.11836" fill="#F2F2F2" stroke="#E6E8EB" stroke-width="0.745573"/>
</g>
<rect x="0.372787" y="0.622787" width="399.254" height="237.838" rx="4.10065" stroke="#E6E8EB" stroke-width="0.745573"/>
<defs>
<filter id="filter0_d_3729_60911" x="116.682" y="47.1751" width="167.01" height="158.807" filterUnits="userSpaceOnUse" color-interpolation-filters="sRGB">
<feFlood flood-opacity="0" result="BackgroundImageFix"/>
<feColorMatrix in="SourceAlpha" type="matrix" values="0 0 0 0 0 0 0 0 0 0 0 0 0 0 0 0 0 0 127 0" result="hardAlpha"/>
<feOffset dy="7.45573"/>
<feGaussianBlur stdDeviation="7.45573"/>
<feComposite in2="hardAlpha" operator="out"/>
<feColorMatrix type="matrix" values="0 0 0 0 0 0 0 0 0 0 0 0 0 0 0 0 0 0 0.1 0"/>
<feBlend mode="normal" in2="BackgroundImageFix" result="effect1_dropShadow_3729_60911"/>
<feBlend mode="normal" in="SourceGraphic" in2="effect1_dropShadow_3729_60911" result="shape"/>
</filter>
<linearGradient id="paint0_linear_3729_60911" x1="201.38" y1="125.107" x2="206.399" y2="118.102" gradientUnits="userSpaceOnUse">
<stop/>
<stop offset="1" stop-opacity="0.127613"/>
</linearGradient>
<clipPath id="clip0_3729_60911">
<rect y="0.25" width="400" height="238.583" rx="4.47344" fill="white"/>
</clipPath>
</defs>
</svg>
