<svg width="537" height="320" viewBox="0 0 537 320" fill="none" xmlns="http://www.w3.org/2000/svg">
<g clip-path="url(#clip0_3729_60967)">
<rect x="1" y="-189.877" width="535" height="570.263" fill="#1C1C1C" stroke="#3E3E3E"/>
<line x1="1" y1="-190.377" x2="1.00002" y2="380.886" stroke="#3E3E3E"/>
<line x1="168.5" y1="-190.377" x2="168.5" y2="380.886" stroke="#3E3E3E"/>
<line x1="336" y1="-190.377" x2="336" y2="380.886" stroke="#3E3E3E"/>
<line x1="503.5" y1="-190.377" x2="503.5" y2="380.886" stroke="#3E3E3E"/>
<line x1="34.5" y1="-190.377" x2="34.5" y2="380.886" stroke="#3E3E3E"/>
<line x1="202" y1="-190.377" x2="202" y2="380.886" stroke="#3E3E3E"/>
<line x1="369.5" y1="-190.377" x2="369.5" y2="380.886" stroke="#3E3E3E"/>
<line x1="135" y1="-190.377" x2="135" y2="380.886" stroke="#3E3E3E"/>
<line x1="302.5" y1="-190.377" x2="302.5" y2="380.886" stroke="#3E3E3E"/>
<line x1="470" y1="-190.377" x2="470" y2="380.886" stroke="#3E3E3E"/>
<line x1="101.5" y1="-190.377" x2="101.5" y2="380.886" stroke="#3E3E3E"/>
<line x1="269" y1="-190.377" x2="269" y2="380.886" stroke="#3E3E3E"/>
<line x1="436.5" y1="-190.377" x2="436.5" y2="380.886" stroke="#3E3E3E"/>
<line x1="68" y1="-190.377" x2="68" y2="380.886" stroke="#3E3E3E"/>
<line x1="235.5" y1="-190.377" x2="235.5" y2="380.886" stroke="#3E3E3E"/>
<line x1="403" y1="-190.377" x2="403" y2="380.886" stroke="#3E3E3E"/>
<line x1="0.5" y1="42.4473" x2="536.5" y2="42.4473" stroke="#3E3E3E"/>
<line x1="0.5" y1="109.449" x2="536.5" y2="109.449" stroke="#3E3E3E"/>
<line x1="0.5" y1="176.449" x2="536.5" y2="176.449" stroke="#3E3E3E"/>
<line x1="0.5" y1="243.447" x2="536.5" y2="243.447" stroke="#3E3E3E"/>
<line x1="0.5" y1="310.447" x2="536.5" y2="310.447" stroke="#3E3E3E"/>
<line x1="0.5" y1="8.94727" x2="536.5" y2="8.94727" stroke="#3E3E3E"/>
<line x1="0.5" y1="75.9473" x2="536.5" y2="75.9473" stroke="#3E3E3E"/>
<line x1="0.5" y1="142.947" x2="536.5" y2="142.947" stroke="#3E3E3E"/>
<line x1="0.5" y1="209.947" x2="536.5" y2="209.947" stroke="#3E3E3E"/>
<line x1="0.5" y1="276.949" x2="536.5" y2="276.949" stroke="#3E3E3E"/>
<g filter="url(#filter0_d_3729_60967)">
<rect x="176.5" y="72.9375" width="184" height="173" rx="2" fill="#3E3E3E"/>
<rect x="177" y="73.4375" width="183" height="172" rx="1.5" stroke="#2E2E2E"/>
</g>
<rect x="183.531" y="79.9688" width="169.705" height="142.046" rx="2" fill="#232323"/>
<path d="M283.426 167.604L298.964 194.932H267.577L251.875 167.604H283.426Z" fill="url(#paint0_linear_3729_60967)"/>
<path d="M298.956 194.938L314.632 167.609L283.253 112.938H251.875L298.956 194.938Z" fill="#FF414C"/>
<path d="M236.189 140.26H267.567L236.202 194.931L220.5 167.602L236.189 140.26Z" fill="#FF414C"/>
<path d="M195.027 96.0206C194.65 96.0206 194.318 95.9514 194.03 95.8128C193.747 95.6687 193.528 95.4636 193.373 95.1976C193.223 94.926 193.148 94.6101 193.148 94.2499V93.0528C193.148 92.687 193.223 92.3711 193.373 92.105C193.528 91.839 193.747 91.6367 194.03 91.4982C194.318 91.3541 194.65 91.282 195.027 91.282C195.576 91.282 196.017 91.4261 196.349 91.7143C196.682 92.0025 196.856 92.396 196.873 92.8948H195.975C195.958 92.6343 195.867 92.432 195.701 92.2879C195.534 92.1438 195.31 92.0718 195.027 92.0718C194.722 92.0718 194.481 92.1577 194.304 92.3295C194.127 92.4958 194.038 92.7341 194.038 93.0445V94.2499C194.038 94.5603 194.127 94.8013 194.304 94.9732C194.481 95.145 194.722 95.2309 195.027 95.2309C195.31 95.2309 195.534 95.1588 195.701 95.0147C195.867 94.8706 195.958 94.6683 195.975 94.4078H196.873C196.856 94.9066 196.682 95.3001 196.349 95.5883C196.017 95.8765 195.576 96.0206 195.027 96.0206ZM200.802 95.9375C200.519 95.9375 200.273 95.8821 200.062 95.7712C199.851 95.6548 199.685 95.4913 199.563 95.2807C199.447 95.0701 199.389 94.8263 199.389 94.5492V90.6835H197.892V89.8687H200.286V94.5492C200.286 94.7265 200.336 94.8678 200.436 94.9732C200.536 95.0729 200.672 95.1228 200.843 95.1228H202.257V95.9375H200.802ZM205.296 96.0123C204.919 96.0123 204.592 95.9403 204.315 95.7962C204.038 95.6521 203.825 95.447 203.675 95.181C203.525 94.915 203.451 94.6018 203.451 94.2416V93.0611C203.451 92.6953 203.525 92.3822 203.675 92.1217C203.825 91.8556 204.038 91.6506 204.315 91.5065C204.592 91.3624 204.919 91.2903 205.296 91.2903C205.673 91.2903 206 91.3624 206.277 91.5065C206.554 91.6506 206.768 91.8556 206.917 92.1217C207.067 92.3822 207.142 92.6953 207.142 93.0611V94.2416C207.142 94.6018 207.067 94.915 206.917 95.181C206.768 95.447 206.554 95.6521 206.277 95.7962C206 95.9403 205.673 96.0123 205.296 96.0123ZM205.296 95.2226C205.601 95.2226 205.836 95.1394 206.003 94.9732C206.169 94.8013 206.252 94.5575 206.252 94.2416V93.0611C206.252 92.7396 206.169 92.4958 206.003 92.3295C205.836 92.1632 205.601 92.0801 205.296 92.0801C204.997 92.0801 204.761 92.1632 204.589 92.3295C204.423 92.4958 204.34 92.7396 204.34 93.0611V94.2416C204.34 94.5575 204.423 94.8013 204.589 94.9732C204.761 95.1394 204.997 95.2226 205.296 95.2226ZM210.439 96.0206C209.89 96.0206 209.452 95.8627 209.125 95.5468C208.798 95.2253 208.635 94.7903 208.635 94.2416V91.3652H209.533V94.2416C209.533 94.5575 209.613 94.8041 209.774 94.9815C209.934 95.1533 210.156 95.2392 210.439 95.2392C210.727 95.2392 210.951 95.1533 211.112 94.9815C211.278 94.8041 211.362 94.5575 211.362 94.2416V91.3652H212.259V94.2416C212.259 94.7903 212.093 95.2253 211.761 95.5468C211.434 95.8627 210.993 96.0206 210.439 96.0206ZM215.274 96.0206C214.814 96.0206 214.445 95.8655 214.168 95.5551C213.891 95.2447 213.753 94.8263 213.753 94.2998V93.0112C213.753 92.4791 213.891 92.0579 214.168 91.7476C214.445 91.4372 214.814 91.282 215.274 91.282C215.651 91.282 215.95 91.3873 216.172 91.5979C216.393 91.803 216.504 92.0856 216.504 92.4459L216.313 92.2381H216.521L216.496 91.1739V89.8687H217.394V95.9375H216.504V95.0646H216.313L216.504 94.8568C216.504 95.217 216.393 95.5024 216.172 95.713C215.95 95.9181 215.651 96.0206 215.274 96.0206ZM215.582 95.2392C215.864 95.2392 216.086 95.1533 216.247 94.9815C216.413 94.8041 216.496 94.5603 216.496 94.2499V93.0528C216.496 92.7424 216.413 92.5013 216.247 92.3295C216.086 92.1522 215.864 92.0635 215.582 92.0635C215.288 92.0635 215.058 92.1494 214.892 92.3212C214.725 92.4875 214.642 92.7313 214.642 93.0528V94.2499C214.642 94.5713 214.725 94.818 214.892 94.9898C215.058 95.156 215.288 95.2392 215.582 95.2392ZM218.746 95.9375V91.3652H219.494V91.9471H219.66L219.535 92.1217C219.535 91.8667 219.605 91.6644 219.743 91.5148C219.882 91.3596 220.067 91.282 220.3 91.282C220.55 91.282 220.741 91.379 220.874 91.573C221.012 91.767 221.082 92.033 221.082 92.3711L220.882 91.9471H221.198L221.065 92.1217C221.065 91.8667 221.134 91.6644 221.273 91.5148C221.417 91.3596 221.608 91.282 221.847 91.282C222.129 91.282 222.351 91.3901 222.512 91.6062C222.672 91.8168 222.753 92.0995 222.753 92.4542V95.9375H221.955V92.4791C221.955 92.3073 221.916 92.1743 221.838 92.0801C221.766 91.9859 221.661 91.9388 221.522 91.9388C221.384 91.9388 221.276 91.9859 221.198 92.0801C221.126 92.1688 221.09 92.299 221.09 92.4708V95.9375H220.417V92.4791C220.417 92.3018 220.378 92.1688 220.3 92.0801C220.223 91.9859 220.112 91.9388 219.968 91.9388C219.829 91.9388 219.724 91.9859 219.652 92.0801C219.585 92.1688 219.552 92.299 219.552 92.4708V95.9375H218.746ZM225.9 96.0123C225.523 96.0123 225.196 95.9403 224.919 95.7962C224.642 95.6521 224.429 95.447 224.279 95.181C224.129 94.915 224.055 94.6018 224.055 94.2416V93.0611C224.055 92.6953 224.129 92.3822 224.279 92.1217C224.429 91.8556 224.642 91.6506 224.919 91.5065C225.196 91.3624 225.523 91.2903 225.9 91.2903C226.277 91.2903 226.604 91.3624 226.881 91.5065C227.158 91.6506 227.372 91.8556 227.521 92.1217C227.671 92.3822 227.746 92.6953 227.746 93.0611V94.2416C227.746 94.6018 227.671 94.915 227.521 95.181C227.372 95.447 227.158 95.6521 226.881 95.7962C226.604 95.9403 226.277 96.0123 225.9 96.0123ZM225.9 95.2226C226.205 95.2226 226.441 95.1394 226.607 94.9732C226.773 94.8013 226.856 94.5575 226.856 94.2416V93.0611C226.856 92.7396 226.773 92.4958 226.607 92.3295C226.441 92.1632 226.205 92.0801 225.9 92.0801C225.601 92.0801 225.365 92.1632 225.194 92.3295C225.027 92.4958 224.944 92.7396 224.944 93.0611V94.2416C224.944 94.5575 225.027 94.8013 225.194 94.9732C225.365 95.1394 225.601 95.2226 225.9 95.2226ZM230.893 96.0123C230.566 96.0123 230.278 95.9597 230.029 95.8544C229.785 95.7491 229.591 95.605 229.447 95.4221C229.308 95.2336 229.228 95.0119 229.206 94.757H230.104C230.126 94.9066 230.206 95.0286 230.345 95.1228C230.483 95.2115 230.666 95.2558 230.893 95.2558H231.251C231.522 95.2558 231.727 95.2004 231.866 95.0895C232.005 94.9787 232.074 94.8318 232.074 94.6489C232.074 94.4716 232.01 94.333 231.883 94.2333C231.761 94.128 231.578 94.0587 231.334 94.0254L230.744 93.934C230.256 93.8564 229.896 93.7178 229.663 93.5183C229.436 93.3133 229.322 93.0112 229.322 92.6122C229.322 92.1909 229.458 91.8667 229.729 91.6395C230.007 91.4067 230.414 91.2903 230.951 91.2903H231.267C231.744 91.2903 232.124 91.4012 232.406 91.6229C232.695 91.839 232.858 92.13 232.897 92.4958H231.999C231.977 92.3628 231.902 92.2547 231.775 92.1715C231.653 92.0884 231.484 92.0468 231.267 92.0468H230.951C230.691 92.0468 230.5 92.0967 230.378 92.1965C230.261 92.2907 230.203 92.432 230.203 92.6205C230.203 92.7867 230.256 92.9114 230.361 92.9946C230.467 93.0777 230.63 93.1359 230.852 93.1692L231.459 93.2689C231.974 93.341 232.351 93.4851 232.589 93.7012C232.833 93.9118 232.955 94.2194 232.955 94.624C232.955 95.0618 232.811 95.4027 232.523 95.6465C232.24 95.8904 231.816 96.0123 231.251 96.0123H230.893Z" fill="#7E7E7E"/>
<rect x="184.031" y="227.438" width="11.637" height="11.5005" rx="1.5" fill="#1C1C1C" stroke="#2E2E2E"/>
<rect x="199.195" y="227.438" width="11.637" height="11.5005" rx="1.5" fill="#1C1C1C" stroke="#2E2E2E"/>
<rect x="214.992" y="227.438" width="11.637" height="11.5005" rx="1.5" fill="#1C1C1C" stroke="#2E2E2E"/>
<rect x="230.789" y="227.438" width="11.637" height="11.5005" rx="1.5" fill="#1C1C1C" stroke="#2E2E2E"/>
<rect x="293.969" y="227.438" width="11.637" height="11.5005" rx="1.5" fill="#1C1C1C" stroke="#2E2E2E"/>
<rect x="246.578" y="227.438" width="11.637" height="11.5005" rx="1.5" fill="#1C1C1C" stroke="#2E2E2E"/>
<rect x="309.766" y="227.438" width="11.637" height="11.5005" rx="1.5" fill="#1C1C1C" stroke="#2E2E2E"/>
<rect x="262.383" y="227.438" width="11.637" height="11.5005" rx="1.5" fill="#1C1C1C" stroke="#2E2E2E"/>
<rect x="325.562" y="227.438" width="11.637" height="11.5005" rx="1.5" fill="#1C1C1C" stroke="#2E2E2E"/>
<rect x="278.172" y="227.438" width="11.637" height="11.5005" rx="1.5" fill="#1C1C1C" stroke="#2E2E2E"/>
<rect x="341.359" y="227.438" width="11.637" height="11.5005" rx="1.5" fill="#1C1C1C" stroke="#2E2E2E"/>
</g>
<rect x="0.5" y="0.5" width="535.5" height="319" rx="5.5" stroke="#3E3E3E"/>
<defs>
<filter id="filter0_d_3729_60967" x="156.5" y="62.9375" width="224" height="213" filterUnits="userSpaceOnUse" color-interpolation-filters="sRGB">
<feFlood flood-opacity="0" result="BackgroundImageFix"/>
<feColorMatrix in="SourceAlpha" type="matrix" values="0 0 0 0 0 0 0 0 0 0 0 0 0 0 0 0 0 0 127 0" result="hardAlpha"/>
<feOffset dy="10"/>
<feGaussianBlur stdDeviation="10"/>
<feComposite in2="hardAlpha" operator="out"/>
<feColorMatrix type="matrix" values="0 0 0 0 0 0 0 0 0 0 0 0 0 0 0 0 0 0 0.1 0"/>
<feBlend mode="normal" in2="BackgroundImageFix" result="effect1_dropShadow_3729_60967"/>
<feBlend mode="normal" in="SourceGraphic" in2="effect1_dropShadow_3729_60967" result="shape"/>
</filter>
<linearGradient id="paint0_linear_3729_60967" x1="270.795" y1="178.655" x2="281.952" y2="163.086" gradientUnits="userSpaceOnUse">
<stop stop-color="#FF414C"/>
<stop offset="1" stop-opacity="0.127613"/>
</linearGradient>
<clipPath id="clip0_3729_60967">
<rect width="536.5" height="320" rx="6" fill="white"/>
</clipPath>
</defs>
</svg>