<svg width="284" height="331" viewBox="0 0 284 331" fill="none" xmlns="http://www.w3.org/2000/svg">
<path d="M170.351 155.325C170.177 157.285 169.779 159.097 168.737 160.63C168.959 159.841 169.107 159.032 169.178 158.216C169.826 150.867 163.835 144.432 156.53 144.195C156.13 144.184 155.73 144.194 155.332 144.225C156.737 143.623 158.254 143.325 159.782 143.349C161.274 143.406 162.74 143.766 164.089 144.406C165.438 145.046 166.644 145.953 167.632 147.073C168.62 148.193 169.371 149.502 169.838 150.92C170.305 152.339 170.48 153.837 170.351 155.325Z" fill="#272540"/>
<path d="M169.101 147.646C170.186 149.405 170.851 151.391 171.045 153.448C171.239 155.505 170.956 157.58 170.22 159.511C169.696 160.92 168.938 162.23 167.977 163.387C166.274 165.415 163.997 166.881 161.445 167.592C160.813 167.766 160.169 167.893 159.518 167.97C159.194 168.019 158.865 168.027 158.541 168.054C158.217 168.082 157.887 168.079 157.561 168.054C156.909 168.038 156.258 167.976 155.615 167.869L154.654 167.66C154.335 167.575 154.028 167.467 153.715 167.371C152.626 166.978 151.585 166.463 150.612 165.836C149.656 165.192 148.772 164.448 147.975 163.615C146.953 162.537 146.132 161.284 145.552 159.916C144.972 158.54 144.7 157.054 144.757 155.561C144.798 154.63 145.03 154.796 145.272 155.561C145.332 155.746 145.378 155.97 145.446 156.223C145.514 156.476 145.607 156.751 145.683 157.053L145.74 157.284C145.764 157.36 145.792 157.439 145.819 157.518C145.873 157.679 145.925 157.845 145.977 158.014C146.058 158.359 146.219 158.702 146.336 159.072C147.281 161.677 149.24 163.882 151.627 165.346C152.82 166.086 154.131 166.615 155.503 166.909C156.893 167.191 158.321 167.241 159.727 167.056C161.449 166.817 163.096 166.197 164.548 165.24C166.913 163.68 168.682 161.367 169.567 158.676C170.452 155.985 170.402 153.074 169.425 150.414C168.999 149.3 168.427 148.246 167.724 147.282C166.995 146.335 166.145 145.487 165.196 144.761C163.744 143.664 162.064 142.907 160.28 142.546C159.392 142.371 158.488 142.287 157.583 142.295C156.681 142.326 155.787 142.463 154.918 142.703C153.576 143.078 152.301 143.661 151.14 144.432C149.988 145.182 148.968 146.117 148.122 147.2C147.755 147.666 147.432 148.164 147.155 148.689C146.798 149.385 146.509 150.114 146.293 150.866C146.257 150.989 146.222 151.1 146.184 151.198C146.146 151.296 146.124 151.389 146.094 151.47C146.036 151.612 145.969 151.749 145.892 151.881C145.838 151.993 145.773 152.1 145.699 152.2C145.596 152.309 145.52 152.126 145.476 151.683C145.452 151.003 145.544 150.323 145.748 149.674C146.165 148.385 146.837 147.194 147.724 146.171C148.608 145.134 149.645 144.239 150.8 143.517C151.973 142.777 153.246 142.208 154.58 141.83C155.257 141.64 155.948 141.504 156.646 141.424C156.82 141.402 156.997 141.389 157.174 141.378C157.351 141.367 157.523 141.34 157.705 141.34H157.977H158.249L158.777 141.373C160.877 141.507 162.912 142.152 164.706 143.251C166.491 144.349 168.004 145.838 169.131 147.605L169.101 147.646Z" fill="#272540"/>
<path d="M152.694 160.775C152.057 160.314 151.427 159.841 150.805 159.357C150.582 159.18 150.337 159.025 150.116 158.842C149.335 158.195 148.587 157.506 147.863 156.793C147.705 156.632 147.541 156.477 147.375 156.322L146.904 155.851C146.46 155.471 146.081 155.02 145.783 154.517C145.696 154.354 145.911 154.245 146.191 154.21C146.339 154.19 146.49 154.204 146.631 154.251C146.773 154.299 146.901 154.377 147.008 154.482C147.732 155.299 148.524 156.115 149.316 156.948C149.828 157.434 150.374 157.883 150.949 158.293C151.561 158.772 152.179 159.248 152.813 159.7C153.2 159.986 153.597 160.244 153.995 160.516C154.599 160.919 155.206 161.333 155.835 161.689C156.322 161.962 156.831 162.19 157.332 162.43C157.443 162.484 157.555 162.528 157.666 162.585C158.072 162.794 158.167 162.922 158.129 163.192C158.125 163.252 158.115 163.312 158.102 163.371C158.045 163.565 157.805 163.614 157.481 163.497C156.506 163.12 155.57 162.646 154.689 162.084C154.014 161.676 153.358 161.227 152.699 160.783L152.694 160.775Z" fill="#272540"/>
<path d="M149.792 157.967C148.58 156.995 147.396 155.993 146.253 154.945C145.834 154.562 145.401 154.194 144.999 153.794C144.278 153.088 143.598 152.343 142.96 151.562C142.639 151.166 142.339 150.754 142.062 150.326C141.771 149.889 141.533 149.42 141.351 148.927C141.159 148.453 141.112 147.932 141.215 147.43C141.282 147.163 141.415 146.917 141.602 146.715C141.693 146.618 141.79 146.527 141.893 146.442C141.999 146.367 142.11 146.299 142.225 146.238C142.525 146.101 142.848 146.023 143.178 146.007C143.49 145.994 143.803 146.021 144.108 146.086C144.705 146.212 145.267 146.466 145.755 146.832C145.91 146.954 145.932 147.068 145.867 147.134C145.753 147.215 145.617 147.261 145.478 147.264C144.998 147.308 144.515 147.266 144.051 147.139C143.628 147.006 143.175 146.994 142.745 147.107C142.577 147.157 142.425 147.251 142.304 147.379C142.197 147.495 142.129 147.641 142.111 147.798C142.1 148.256 142.211 148.709 142.432 149.11C142.674 149.597 142.954 150.064 143.267 150.509C144.038 151.597 145.08 152.588 146.093 153.546C147.209 154.602 148.379 155.612 149.577 156.589C150.313 157.192 151.063 157.78 151.825 158.353C152.976 159.221 154.144 160.079 155.339 160.868C156.27 161.483 157.219 162.022 158.175 162.564L158.806 162.909C159.587 163.358 159.805 163.546 159.854 163.859C159.872 163.93 159.882 164.002 159.884 164.074C159.87 164.287 159.462 164.254 158.85 163.963C157.001 163.042 155.229 161.975 153.55 160.773C152.268 159.883 151.014 158.938 149.778 157.975L149.792 157.967Z" fill="#272540"/>
<path d="M168.542 167.945C167.92 167.934 167.302 167.843 166.704 167.673C166.492 167.618 166.274 167.583 166.07 167.512C165.356 167.259 164.661 166.954 163.991 166.6C163.694 166.451 163.389 166.314 163.087 166.173C162.686 166.027 162.316 165.806 161.998 165.52C161.903 165.422 162.056 165.231 162.271 165.09C162.368 165.012 162.483 164.961 162.605 164.939C162.727 164.918 162.853 164.928 162.97 164.967C163.675 165.359 164.394 165.746 165.12 166.162C165.573 166.39 166.051 166.565 166.544 166.682C167.067 166.845 167.605 166.954 168.15 167.006C168.459 167.039 168.772 167.015 169.072 166.935C169.157 166.914 169.235 166.872 169.299 166.813C169.364 166.754 169.412 166.68 169.44 166.598C169.481 166.388 169.455 166.171 169.366 165.977C169.202 165.632 168.978 165.319 168.705 165.052C168.648 164.989 168.583 164.935 168.525 164.872C168.313 164.638 168.291 164.526 168.427 164.303C168.456 164.25 168.486 164.198 168.52 164.148C168.637 163.99 168.855 163.979 169.064 164.148C169.394 164.399 169.679 164.704 169.908 165.049C170.194 165.456 170.36 165.935 170.387 166.432C170.393 166.687 170.332 166.939 170.21 167.164C170.083 167.392 169.894 167.581 169.666 167.708C169.319 167.884 168.936 167.978 168.547 167.98L168.542 167.945Z" fill="#272540"/>
<path d="M136.946 153.315C137.535 153.755 138.082 154.25 138.579 154.793C138.663 154.867 138.773 154.906 138.886 154.902C138.998 154.898 139.105 154.852 139.184 154.772C139.264 154.693 139.31 154.586 139.314 154.474C139.318 154.361 139.279 154.251 139.205 154.167C138.654 153.572 138.048 153.032 137.395 152.553C136.921 152.234 136.477 152.999 136.948 153.315H136.946Z" fill="#272540"/>
<path d="M137.222 159.335C137.662 159.04 138.15 158.822 138.664 158.693C139.209 158.551 138.98 157.696 138.427 157.838C137.84 157.988 137.281 158.235 136.775 158.57C136.304 158.883 136.745 159.659 137.222 159.335Z" fill="#272540"/>
<path d="M190.999 151.145C190.969 151.133 190.968 151.097 190.986 151.05C191.004 151.002 191.023 151.003 191.041 151.014C191.061 151.016 191.08 151.021 191.099 151.028C191.099 151.028 191.242 151.133 191.286 151.166C191.329 151.199 191.369 151.236 191.407 151.276C191.483 151.353 191.561 151.428 191.639 151.507C191.655 151.526 191.668 151.547 191.679 151.569C191.729 151.636 191.785 151.699 191.847 151.755C191.854 151.767 191.862 151.778 191.881 151.778C191.953 151.838 192.019 151.903 192.08 151.973C192.121 152.035 192.161 152.096 192.201 152.158C192.201 152.158 192.213 152.176 192.219 152.185C192.221 152.197 192.225 152.208 192.231 152.218C192.238 152.228 192.246 152.236 192.256 152.242C192.274 152.27 192.29 152.295 192.308 152.322C192.319 152.334 192.328 152.348 192.335 152.363C192.344 152.377 192.313 152.394 192.303 152.384C192.293 152.374 192.282 152.397 192.273 152.403C192.21 152.373 192.149 152.338 192.091 152.298C192.091 152.298 191.892 152.119 191.876 152.113C191.866 152.101 191.857 152.087 191.849 152.072C191.849 152.072 191.684 151.93 191.68 151.923C191.645 151.895 191.617 151.861 191.595 151.822C191.593 151.814 191.588 151.807 191.581 151.802C191.528 151.75 191.477 151.695 191.429 151.638C191.408 151.606 191.374 151.583 191.348 151.554C191.323 151.525 191.341 151.543 191.338 151.538C191.334 151.53 191.329 151.522 191.323 151.516C191.257 151.455 191.2 151.382 191.126 151.319C191.116 151.303 191.061 151.219 191.047 151.198C191.034 151.178 191.012 151.15 190.999 151.145Z" fill="#272540"/>
<path d="M191.09 152.362C191.075 152.395 191.04 152.395 190.992 152.377C190.945 152.359 190.945 152.34 190.957 152.323L190.969 152.262L191.116 152.069C191.151 152.025 191.189 151.983 191.231 151.945L191.472 151.703L191.534 151.663C191.604 151.612 191.67 151.553 191.729 151.49C191.74 151.479 191.748 151.467 191.755 151.454C191.813 151.381 191.877 151.313 191.948 151.252C192.012 151.211 192.076 151.169 192.132 151.116C192.132 151.116 192.15 151.104 192.159 151.098C192.184 151.093 192.205 151.08 192.219 151.059C192.245 151.039 192.272 151.021 192.301 151.006C192.314 150.994 192.328 150.985 192.344 150.977C192.358 150.968 192.375 151 192.365 151.009C192.355 151.019 192.377 151.028 192.383 151.037C192.385 151.041 192.387 151.044 192.39 151.048C192.358 151.113 192.32 151.176 192.278 151.235L192.075 151.466C192.062 151.477 192.049 151.486 192.033 151.492C192.033 151.492 191.885 151.664 191.876 151.67C191.848 151.705 191.813 151.734 191.774 151.756C191.765 151.759 191.757 151.764 191.751 151.771C191.697 151.829 191.638 151.877 191.582 151.931C191.525 151.984 191.525 151.987 191.497 152.015L191.456 152.042C191.389 152.108 191.318 152.168 191.26 152.239C191.244 152.249 191.155 152.307 191.134 152.32C191.114 152.334 191.09 152.343 191.09 152.362Z" fill="#272540"/>
<path d="M190.851 151.723C190.826 151.739 190.801 151.71 190.781 151.665C190.761 151.619 190.776 151.603 190.783 151.598L190.831 151.567L191.044 151.535C191.094 151.528 191.144 151.525 191.194 151.525L191.499 151.524L191.566 151.532C191.643 151.545 191.721 151.549 191.799 151.546C191.812 151.546 191.825 151.544 191.837 151.54C191.923 151.529 192.009 151.527 192.094 151.535C192.162 151.549 192.229 151.558 192.295 151.569C192.362 151.581 192.311 151.559 192.326 151.576C192.34 151.593 192.365 151.592 192.387 151.594C192.416 151.596 192.444 151.6 192.473 151.607C192.488 151.612 192.503 151.62 192.517 151.63C192.524 151.641 192.521 151.666 192.516 151.669C192.512 151.672 192.514 151.69 192.515 151.702C192.454 151.726 192.391 151.745 192.327 151.757L192.052 151.774C192.038 151.775 192.023 151.774 192.01 151.769L191.8 151.782C191.76 151.788 191.718 151.784 191.679 151.771C191.673 151.773 191.667 151.776 191.663 151.781C191.594 151.784 191.527 151.776 191.456 151.773C191.386 151.77 191.384 151.772 191.351 151.771L191.33 151.768L191.307 151.763C191.224 151.766 191.139 151.756 191.057 151.764C191.041 151.774 190.945 151.746 190.923 151.748C190.901 151.749 190.86 151.717 190.851 151.723Z" fill="#272540"/>
<path d="M191.72 152.465C191.736 152.49 191.706 152.513 191.66 152.527C191.638 152.532 191.615 152.53 191.594 152.521C191.582 152.507 191.572 152.492 191.564 152.475C191.564 152.475 191.548 152.32 191.542 152.272C191.537 152.225 191.538 152.177 191.544 152.131C191.55 152.036 191.553 151.94 191.561 151.843C191.562 151.823 191.565 151.802 191.57 151.782C191.587 151.711 191.596 151.637 191.596 151.563C191.599 151.551 191.598 151.538 191.594 151.526C191.589 151.445 191.593 151.364 191.606 151.284L191.651 151.095C191.651 151.095 191.642 151.082 191.66 151.07C191.674 151.053 191.681 151.032 191.681 151.011L191.697 150.932C191.704 150.917 191.713 150.904 191.723 150.892C191.723 150.892 191.759 150.892 191.762 150.896C191.765 150.901 191.783 150.899 191.795 150.897C191.814 150.956 191.828 151.016 191.838 151.077L191.838 151.337C191.839 151.351 191.837 151.364 191.832 151.377C191.832 151.377 191.833 151.568 191.834 151.574C191.835 151.613 191.828 151.652 191.814 151.688C191.811 151.695 191.81 151.702 191.811 151.709C191.808 151.775 191.801 151.84 191.79 151.905C191.785 151.937 191.788 151.971 191.783 152.004L191.791 152.015C191.788 152.023 191.786 152.03 191.786 152.038C191.781 152.116 191.767 152.193 191.77 152.272C191.779 152.286 191.744 152.377 191.748 152.398C191.751 152.418 191.716 152.454 191.72 152.465Z" fill="#272540"/>
<path d="M158.236 194.343C158.189 194.322 158.186 194.268 158.207 194.196C158.222 194.167 158.247 194.145 158.278 194.134C158.308 194.14 158.339 194.149 158.369 194.159C158.376 194.17 158.593 194.338 158.661 194.387C158.729 194.44 158.793 194.498 158.853 194.561C158.977 194.688 159.103 194.81 159.227 194.935C159.255 194.962 159.28 194.992 159.302 195.025C159.383 195.132 159.474 195.232 159.574 195.322C159.589 195.339 159.606 195.353 159.626 195.363C159.741 195.458 159.847 195.562 159.944 195.675C160.01 195.775 160.088 195.864 160.158 195.958C160.172 195.969 160.182 195.984 160.187 196.001C160.196 196.037 160.217 196.07 160.246 196.092C160.277 196.133 160.305 196.175 160.33 196.22C160.346 196.241 160.359 196.264 160.368 196.289C160.38 196.307 160.338 196.332 160.323 196.319C160.308 196.306 160.295 196.337 160.284 196.344L160.268 196.355C160.173 196.313 160.08 196.264 159.991 196.21C159.991 196.21 159.676 195.922 159.637 195.892C159.621 195.872 159.607 195.851 159.596 195.828C159.596 195.828 159.336 195.595 159.326 195.585C159.273 195.539 159.228 195.485 159.193 195.425C159.187 195.412 159.18 195.401 159.17 195.391C159.083 195.308 159.006 195.215 158.925 195.125C158.892 195.075 158.839 195.038 158.795 194.996C158.788 194.987 158.782 194.978 158.777 194.968C158.77 194.957 158.762 194.945 158.755 194.934C158.65 194.833 158.558 194.718 158.448 194.624C158.43 194.597 158.331 194.47 158.301 194.444C158.271 194.418 158.254 194.351 158.236 194.343Z" fill="#272540"/>
<path d="M158.365 196.296C158.342 196.346 158.287 196.346 158.216 196.328C158.146 196.309 158.149 196.274 158.152 196.259C158.158 196.227 158.167 196.196 158.179 196.166C158.193 196.158 158.355 195.938 158.419 195.861C158.477 195.788 158.541 195.719 158.609 195.655L159.004 195.264C159.032 195.235 159.063 195.209 159.095 195.185C159.208 195.101 159.312 195.007 159.406 194.904C159.423 194.888 159.438 194.87 159.449 194.85C159.547 194.731 159.655 194.62 159.772 194.518C159.874 194.451 159.968 194.371 160.065 194.295C160.078 194.286 160.094 194.275 160.108 194.266C160.146 194.256 160.179 194.234 160.204 194.204C160.243 194.168 160.284 194.135 160.327 194.104C160.352 194.091 160.377 194.081 160.404 194.073C160.425 194.059 160.447 194.103 160.434 194.118C160.421 194.133 160.452 194.146 160.461 194.159C160.465 194.163 160.468 194.168 160.47 194.173C160.416 194.275 160.355 194.372 160.286 194.465L159.954 194.832C159.934 194.85 159.912 194.864 159.888 194.875L159.636 195.156C159.587 195.21 159.532 195.258 159.471 195.297C159.457 195.302 159.445 195.311 159.434 195.321C159.351 195.411 159.255 195.493 159.163 195.576C159.11 195.61 159.071 195.665 159.026 195.711L158.96 195.754C158.855 195.862 158.739 195.957 158.642 196.073C158.614 196.091 158.48 196.194 158.454 196.224C158.428 196.254 158.378 196.287 158.365 196.296Z" fill="#272540"/>
<path d="M157.998 195.263C157.957 195.29 157.916 195.248 157.885 195.181C157.872 195.16 157.875 195.096 157.889 195.087L157.962 195.04C157.976 195.031 158.223 195.006 158.304 194.991C158.384 194.982 158.464 194.979 158.545 194.981L159.035 194.985C159.072 194.985 159.109 194.988 159.145 194.995C159.268 195.013 159.392 195.02 159.515 195.013C159.536 195.015 159.558 195.012 159.578 195.005C159.715 194.992 159.853 194.99 159.99 194.999C160.098 195.02 160.207 195.033 160.314 195.047C160.314 195.047 160.346 195.046 160.361 195.059C160.376 195.072 160.425 195.082 160.46 195.086C160.506 195.087 160.552 195.093 160.598 195.103C160.621 195.11 160.644 195.12 160.666 195.133C160.678 195.151 160.675 195.186 160.668 195.19C160.661 195.195 160.663 195.223 160.666 195.237L160.675 195.251C160.578 195.283 160.478 195.309 160.377 195.328C160.377 195.328 159.98 195.347 159.935 195.353C159.912 195.353 159.889 195.351 159.866 195.347C159.866 195.347 159.55 195.361 159.53 195.365C159.465 195.369 159.4 195.363 159.337 195.348C159.324 195.344 159.311 195.343 159.298 195.344C159.187 195.348 159.077 195.338 158.966 195.333C158.91 195.33 158.853 195.33 158.797 195.333L158.767 195.326L158.727 195.32C158.593 195.323 158.46 195.309 158.324 195.32C158.301 195.335 158.147 195.293 158.111 195.297C158.074 195.301 158.015 195.255 157.998 195.263Z" fill="#272540"/>
<path d="M159.375 196.468C159.398 196.505 159.355 196.543 159.287 196.568C159.266 196.581 159.201 196.572 159.193 196.558C159.175 196.536 159.159 196.512 159.146 196.487C159.137 196.474 159.127 196.243 159.127 196.174C159.121 196.099 159.122 196.024 159.13 195.949L159.155 195.49C159.157 195.456 159.162 195.422 159.17 195.389C159.196 195.274 159.208 195.157 159.208 195.039C159.211 195.019 159.21 194.999 159.205 194.979C159.199 194.849 159.205 194.719 159.224 194.59C159.25 194.491 159.269 194.391 159.291 194.289C159.291 194.289 159.291 194.26 159.305 194.247C159.32 194.235 159.33 194.186 159.336 194.155C159.339 194.111 159.348 194.067 159.362 194.025C159.37 194.003 159.382 193.982 159.396 193.964C159.415 193.952 159.449 193.959 159.453 193.966C159.457 193.972 159.483 193.972 159.501 193.97C159.529 194.063 159.549 194.159 159.561 194.256C159.561 194.256 159.558 194.629 159.56 194.672C159.56 194.694 159.555 194.716 159.547 194.736L159.552 195.058C159.553 195.12 159.543 195.181 159.524 195.239C159.519 195.25 159.517 195.263 159.519 195.275C159.515 195.379 159.498 195.483 159.485 195.587C159.471 195.69 159.48 195.694 159.475 195.746C159.474 195.756 159.472 195.766 159.469 195.776C159.465 195.787 159.463 195.798 159.461 195.81C159.457 195.937 159.434 196.062 159.437 196.19C159.436 196.22 159.398 196.355 159.401 196.389C159.404 196.423 159.37 196.452 159.375 196.468Z" fill="#272540"/>
<path opacity="0.5" d="M203.509 140.175C203.612 141.463 201.389 141.174 201.764 139.93C202.034 139.04 203.438 139.299 203.509 140.175Z" fill="#272540"/>
<path opacity="0.3" d="M211.521 168.945C211.646 170.086 210.375 170.186 209.844 169.604C208.99 168.665 209.97 167.848 211.023 168.548C211.159 168.638 211.442 168.246 211.521 168.945Z" fill="#272540"/>
<path opacity="0.3" d="M157.356 187.941C157.482 189.082 156.211 189.182 155.68 188.6C154.825 187.661 155.805 186.844 156.858 187.544C156.994 187.634 157.277 187.242 157.356 187.941Z" fill="#272540"/>
<path opacity="0.3" d="M105.051 148.279C101.433 153.102 96.4715 147.037 94.1444 140.358C92.6365 136.03 93.3931 132.021 93.9593 129.836C94.7813 126.659 98.649 126.379 98.649 126.379C98.649 126.379 96.7382 132.914 99.1797 139.591C101.621 146.27 105.051 148.279 105.051 148.279Z" fill="#272540"/>
<path d="M132.095 125.139C132.095 125.139 134.806 125.038 135.323 125.381C135.84 125.727 135.323 126.274 135.323 126.274L132.71 125.705L132.095 125.136V125.139Z" fill="#272540"/>
<path d="M99.0108 139.765C98.9237 139.335 98.8311 138.907 98.7631 138.475C98.6842 138.045 98.6134 137.615 98.5481 137.182C98.4936 136.869 98.4256 136.556 98.3902 136.24C98.2487 135.124 98.1834 134 98.1806 132.876C98.167 132.378 98.1915 131.877 98.1915 131.382C98.2078 131.063 98.216 130.745 98.2541 130.426C98.2759 130.268 98.314 130.111 98.363 129.958C98.4174 129.806 98.4719 129.656 98.529 129.501C98.6025 129.313 98.6161 129.343 98.6706 129.52C98.6978 129.607 98.7413 129.732 98.7985 129.882C98.823 129.955 98.8611 130.037 98.8801 130.119C98.8965 130.2 98.9074 130.288 98.9074 130.375C98.8992 131.627 98.9128 132.868 98.9346 134.144C98.9455 134.906 99.0979 135.69 99.2204 136.461C99.2939 136.882 99.3673 137.307 99.449 137.729C99.5443 138.148 99.6205 138.573 99.7266 138.989C99.7892 139.248 99.8545 139.504 99.909 139.765L100.102 140.538C100.301 141.316 100.532 142.095 100.783 142.854C100.99 143.442 101.226 144.003 101.46 144.569C101.512 144.694 101.564 144.814 101.607 144.944C101.771 145.424 101.79 145.592 101.743 145.731C101.733 145.764 101.727 145.802 101.714 145.824C101.673 145.894 101.531 145.731 101.322 145.413C101.245 145.293 101.169 145.176 101.09 145.056C101.014 144.934 100.954 144.806 100.886 144.68C100.755 144.427 100.614 144.171 100.494 143.907C100.241 143.382 100.002 142.841 99.7838 142.291C99.6341 141.877 99.498 141.458 99.3619 141.039C99.2367 140.614 99.1033 140.195 98.989 139.768L99.0108 139.762V139.765Z" fill="#272540"/>
<path d="M102.025 150.299C102.025 150.299 84.9429 155.903 79.7306 163.483C79.7306 163.483 78.9549 164.548 79.2243 165.506C79.4094 166.159 81.2222 162.212 87.5667 158.306C93.9112 154.401 102.025 150.299 102.025 150.299Z" fill="#272540"/>
<path d="M80.6571 165.635C80.6652 166.087 79.6881 166.96 79.4486 170.041C79.1682 173.653 80.4856 176.228 80.4856 176.228L80.6571 165.635Z" fill="#272540"/>
<path d="M100.39 129.405C100.067 128.899 99.2582 125.875 98.6594 126.773C97.4182 128.635 97.8401 132.244 97.881 132.154L100.39 129.405Z" fill="#272540"/>
<path d="M100.865 143.768C100.865 143.768 103.739 149.1 104.763 148.675C105.963 148.177 103.5 142.391 103.5 142.391L100.865 143.768Z" fill="#272540"/>
<path d="M131.036 152.813C131.27 152.381 131.447 151.806 131.504 151.289C131.567 150.761 131.523 150.211 131.398 149.664C131.147 148.567 130.589 147.498 129.953 146.472C129.316 145.44 128.583 144.444 127.859 143.418C127.497 142.901 127.144 142.373 126.82 141.801C126.501 141.229 126.196 140.614 126.082 139.863C126.055 139.73 126.052 139.585 126.052 139.441C126.044 139.3 126.066 139.15 126.09 139.003C126.137 138.709 126.256 138.415 126.414 138.162C126.749 137.65 127.168 137.332 127.601 137.062C128.472 136.537 129.389 136.249 130.301 136.025C131.915 135.647 133.532 135.484 135.14 135.361C136.752 135.247 138.357 135.192 139.958 135.149C141.558 135.105 143.156 135.081 144.746 135.016C145.54 134.983 146.332 134.937 147.119 134.882C147.903 134.822 148.689 134.735 149.424 134.556C149.746 134.474 150.067 134.37 150.312 134.221C150.434 134.15 150.54 134.057 150.587 133.984C150.633 133.913 150.657 133.823 150.633 133.739C150.611 133.606 150.363 133.372 150.089 133.219C149.814 133.056 149.498 132.922 149.177 132.805C147.881 132.343 146.49 132.076 145.116 131.85C143.344 131.57 141.545 131.396 139.748 131.259C137.952 131.126 136.147 131.047 134.365 131.039C133.812 131.044 133.573 131.017 133.575 130.933C133.581 130.851 133.842 130.712 134.318 130.574C135.268 130.28 137.059 130.046 139.163 130.168C141.025 130.274 142.881 130.457 144.735 130.734C145.66 130.876 146.586 131.042 147.508 131.254C148.434 131.477 149.354 131.717 150.284 132.166C150.519 132.283 150.753 132.416 150.992 132.604C151.112 132.697 151.232 132.811 151.346 132.952C151.471 133.108 151.588 133.328 151.632 133.54C151.678 133.761 151.662 133.987 151.596 134.199C151.526 134.403 151.392 134.621 151.27 134.746C151.014 135.021 150.744 135.165 150.489 135.288C149.98 135.519 149.492 135.636 149.011 135.737C148.529 135.835 148.055 135.903 147.582 135.957C147.108 136.012 146.637 136.058 146.169 136.085C145.698 136.11 145.23 136.129 144.762 136.142C143.826 136.17 142.892 136.183 141.961 136.191C139.732 136.216 137.465 136.265 135.206 136.442C134.076 136.532 132.949 136.654 131.847 136.845C130.747 137.041 129.65 137.291 128.69 137.732C128.428 137.854 128.175 137.988 127.952 138.148C127.726 138.304 127.525 138.489 127.386 138.666C127.261 138.856 127.157 139.049 127.141 139.283C127.122 139.515 127.135 139.768 127.214 140.032C127.353 140.557 127.628 141.093 127.938 141.613C128.249 142.133 128.6 142.645 128.954 143.156C129.661 144.183 130.421 145.195 131.079 146.295C131.735 147.389 132.323 148.578 132.538 149.907C132.674 150.715 132.625 151.591 132.383 152.375C132.266 152.77 132.111 153.162 131.88 153.535C131.763 153.723 131.624 153.905 131.439 154.066C131.256 154.226 131.025 154.365 130.764 154.428C130.502 154.493 130.23 154.474 129.991 154.408C129.757 154.338 129.544 154.237 129.359 154.117C128.984 153.878 128.69 153.584 128.417 153.282C127.87 152.68 127.443 152.002 127.027 151.355C125.788 149.403 124.389 147.541 122.762 145.908C121.945 145.097 121.085 144.327 120.159 143.652C119.234 142.977 118.254 142.384 117.228 141.899C115.633 141.14 113.924 140.68 112.201 140.549C110.475 140.418 108.741 140.625 107.089 141.118C106.907 141.175 106.727 141.232 106.548 141.287C106.368 141.346 106.194 141.42 106.017 141.485C105.66 141.611 105.32 141.774 104.966 141.924C103.668 142.506 102.879 143.023 102.283 143.323C101.695 143.636 101.314 143.763 100.979 143.842C100.826 143.878 100.641 143.946 100.543 143.957C100.377 143.973 100.511 143.777 100.87 143.355C101.224 142.928 101.885 142.373 102.824 141.79C104.223 140.941 105.764 140.233 107.419 139.822C109.065 139.387 110.821 139.256 112.56 139.417C114.297 139.599 116.017 140.073 117.606 140.821C118.409 141.18 119.166 141.627 119.909 142.092C120.636 142.579 121.349 143.091 122.01 143.66C124 145.326 125.682 147.31 127.141 149.417C127.329 149.678 127.503 149.945 127.677 150.214L128.197 151.014C128.515 151.523 128.858 152.013 129.231 152.438C129.416 152.653 129.612 152.841 129.806 152.999C129.996 153.159 130.192 153.268 130.325 153.298C130.462 153.328 130.508 153.322 130.628 153.252C130.745 153.178 130.889 153.001 131.009 152.789L131.036 152.797V152.813Z" fill="#272540"/>
<path d="M136.503 127.202C136.391 127.123 136.282 127.039 136.16 126.973L135.978 126.867L135.784 126.777C135.534 126.652 135.232 126.546 134.951 126.451C134.742 126.383 134.527 126.347 134.315 126.29C133.569 126.086 132.777 125.988 131.974 125.912C131.617 125.882 131.255 125.879 130.901 125.882C130.673 125.89 130.444 125.885 130.213 125.874C130.098 125.865 129.984 125.865 129.867 125.838C129.753 125.808 129.638 125.776 129.521 125.743C129.377 125.697 129.396 125.626 129.519 125.506C129.579 125.446 129.666 125.37 129.769 125.291C129.821 125.253 129.878 125.207 129.938 125.177C129.998 125.152 130.06 125.133 130.128 125.125L130.482 125.082L130.659 125.06H130.836C131.073 125.052 131.31 125.054 131.546 125.06C132.02 125.076 132.499 125.106 132.981 125.199C133.552 125.302 134.168 125.329 134.755 125.476C135.079 125.555 135.395 125.653 135.705 125.765C135.858 125.817 136.016 125.882 136.174 125.95C136.331 126.01 136.484 126.094 136.633 126.173C137.001 126.38 137.352 126.625 137.649 126.932C138.12 127.379 138.438 127.967 138.656 128.56C138.816 129.026 138.958 129.494 139.021 129.978C139.037 130.084 139.048 130.19 139.042 130.297C139.037 130.495 139.007 130.626 138.942 130.713C138.884 130.8 138.792 130.844 138.667 130.874C138.61 130.887 138.558 130.906 138.506 130.912C138.348 130.931 138.163 130.762 138.098 130.503L138.022 130.22C137.997 130.125 137.964 130.035 137.951 129.943C137.935 129.85 137.91 129.76 137.888 129.671C137.869 129.581 137.847 129.491 137.82 129.404C137.777 129.227 137.72 129.058 137.66 128.895C137.622 128.816 137.605 128.729 137.573 128.647L137.475 128.408C137.26 127.948 136.949 127.515 136.489 127.218L136.5 127.199L136.503 127.202Z" fill="#272540"/>
<path d="M133.755 123.275C133.428 122.913 133.009 122.649 132.514 122.456C132.331 122.385 132.135 122.347 131.942 122.29C131.264 122.08 130.54 121.939 129.814 121.846C129.49 121.805 129.16 121.797 128.836 121.786L128.21 121.77C128.107 121.762 128.001 121.767 127.897 121.74C127.794 121.71 127.691 121.68 127.584 121.647C127.454 121.604 127.473 121.544 127.584 121.441C127.639 121.389 127.72 121.321 127.816 121.247C127.865 121.212 127.916 121.168 127.971 121.144C128.025 121.125 128.085 121.111 128.145 121.106C129.008 121.021 129.882 121.059 130.755 121.228C131.275 121.334 131.83 121.362 132.369 121.495C132.952 121.637 133.575 121.865 134.087 122.252C134.408 122.48 134.683 122.766 134.922 123.068C135.282 123.531 135.532 124.053 135.763 124.562C135.943 124.957 136.153 125.335 136.283 125.741C136.313 125.831 136.351 125.915 136.365 126.008C136.395 126.182 136.395 126.299 136.362 126.389C136.321 126.481 136.259 126.544 136.172 126.601C136.131 126.628 136.095 126.658 136.06 126.677C135.998 126.71 135.929 126.696 135.848 126.653C135.766 126.609 135.663 126.536 135.597 126.427L135.431 126.19C135.377 126.111 135.339 126.027 135.29 125.948L135.156 125.706C135.11 125.627 135.067 125.545 135.034 125.463C134.887 125.137 134.754 124.805 134.593 124.5C134.364 124.037 134.079 123.64 133.741 123.297L133.757 123.278L133.755 123.275Z" fill="#272540"/>
<path d="M117.875 119.614C115.899 120.161 113.956 120.85 112.078 121.699C111.735 121.852 111.397 122.015 111.062 122.189C110.728 122.358 110.393 122.529 110.061 122.704C107.701 123.904 105.434 125.311 103.392 127.001C102.486 127.747 101.631 128.572 100.869 129.445C100.371 130.001 99.9384 130.61 99.492 131.201C99.062 131.808 98.6564 132.423 98.2264 133.041C98.0631 133.221 97.9732 133.294 97.9433 133.272C97.9106 133.251 97.9242 133.131 97.9215 132.908C97.9161 132.682 97.946 132.371 98.0222 132.009C98.0984 131.645 98.2645 131.255 98.4931 130.858C98.5884 130.678 98.7054 130.518 98.8116 130.346C98.9231 130.178 99.0239 130.001 99.1518 129.848C99.3995 129.533 99.639 129.209 99.903 128.909L100.295 128.455L100.706 128.019C100.975 127.723 101.269 127.453 101.552 127.175C102.704 126.07 103.991 125.129 105.328 124.271C106.931 123.256 108.591 122.189 110.33 121.334C111.28 120.855 112.257 120.434 113.24 120.025C114.231 119.639 115.224 119.26 116.239 118.947C117.486 118.553 118.752 118.215 120.028 117.935C121.966 117.527 123.947 117.276 125.915 117.195L126.49 117.176C126.683 117.17 126.865 117.154 127.075 117.167L127.382 117.178L127.687 117.222C127.894 117.244 128.09 117.312 128.289 117.361C129.078 117.616 129.772 118.112 130.317 118.697C130.559 118.953 130.787 119.211 130.975 119.508C131.329 120.05 131.498 120.431 131.588 120.714C131.675 120.997 131.683 121.179 131.642 121.351C131.626 121.43 131.618 121.522 131.59 121.577C131.501 121.762 131.136 121.375 130.583 120.687C130.387 120.425 130.178 120.18 129.965 119.946C129.75 119.715 129.544 119.481 129.312 119.282C128.858 118.877 128.357 118.575 127.823 118.425L127.622 118.368C127.554 118.351 127.483 118.346 127.415 118.335C127.279 118.305 127.137 118.302 126.993 118.297C126.865 118.283 126.672 118.297 126.509 118.3L125.997 118.313C125.314 118.34 124.628 118.387 123.945 118.46C122.927 118.566 121.909 118.713 120.899 118.918C119.887 119.108 118.882 119.361 117.889 119.639L117.878 119.612L117.875 119.614Z" fill="#272540"/>
<path d="M98.9012 136.047C99.2305 137.636 99.6633 139.215 100.202 140.75C100.398 141.311 100.64 141.855 100.864 142.402C101.258 143.368 101.696 144.318 102.214 145.211C102.731 146.096 103.313 146.98 104.084 147.555C104.168 147.62 104.255 147.669 104.345 147.723L104.478 147.791C104.524 147.816 104.535 147.816 104.568 147.829C104.622 147.848 104.677 147.865 104.734 147.868C104.791 147.868 104.846 147.832 104.876 147.786C104.908 147.74 104.93 147.685 104.944 147.631C104.952 147.598 104.955 147.584 104.963 147.546C104.974 147.497 104.979 147.446 104.987 147.394C105.012 147.184 105.02 146.961 105.02 146.741C105.012 145.584 104.759 144.408 104.633 143.235C104.622 142.859 104.699 142.876 104.971 143.132C105.107 143.259 105.259 143.461 105.412 143.711C105.485 143.839 105.567 143.978 105.63 144.13C105.689 144.286 105.738 144.452 105.776 144.626C105.907 145.249 106.008 145.878 106.049 146.537C106.068 146.869 106.076 147.203 106.021 147.571C106.008 147.674 106 147.726 105.956 147.911C105.94 147.985 105.91 148.055 105.885 148.126C105.864 148.2 105.834 148.265 105.798 148.328C105.668 148.589 105.458 148.79 105.197 148.891C104.933 148.986 104.644 148.943 104.364 148.856L104.154 148.785C104.075 148.766 104.051 148.741 104.002 148.719C103.912 148.676 103.825 148.632 103.746 148.583C103.419 148.387 103.147 148.159 102.9 147.917C102.412 147.429 102.029 146.893 101.688 146.343C100.896 145.018 100.172 143.624 99.6034 142.19C98.9828 140.614 98.4875 138.997 98.0874 137.359C97.8424 136.349 97.6383 135.331 97.4777 134.307C97.2354 132.753 97.1048 131.169 97.1973 129.588C97.2354 129 97.3008 128.415 97.4396 127.83C97.5131 127.538 97.6083 127.244 97.739 126.961C97.807 126.82 97.8832 126.681 97.9731 126.545C98.0139 126.474 98.0683 126.411 98.1173 126.346C98.1745 126.262 98.2643 126.183 98.3405 126.101C98.4031 126.044 98.4684 125.992 98.5446 125.951C98.9175 125.758 99.3639 125.913 99.6987 126.183C100.183 126.607 100.281 126.975 100.327 127.228C100.379 127.478 100.333 127.639 100.259 127.775C100.229 127.835 100.208 127.906 100.18 127.941C100.134 128.001 100.061 127.941 99.9246 127.808C99.8484 127.745 99.7831 127.658 99.7041 127.557C99.6306 127.457 99.5218 127.353 99.4265 127.244C99.3612 127.163 99.2904 127.089 99.2196 127.027C99.1843 126.994 99.1489 126.967 99.1108 126.945C99.0781 126.92 99.0754 126.929 99.0591 126.92C99.0073 126.904 98.9502 126.915 98.9311 126.964C98.9502 126.948 98.8223 127.138 98.7569 127.272C98.6889 127.424 98.6236 127.579 98.5691 127.748C98.4575 128.083 98.3813 128.45 98.3296 128.831C98.2289 129.593 98.218 130.407 98.2616 131.224C98.3459 132.821 98.58 134.446 98.9339 136.044L98.9066 136.052L98.9012 136.047Z" fill="#272540"/>
<path d="M64.5578 152.837C64.6585 152.633 64.7755 152.434 64.8926 152.236C65.0096 152.037 65.1239 151.836 65.2491 151.656L65.9895 150.551L66.7298 149.446C66.972 149.076 67.2578 148.736 67.5191 148.376L68.3221 147.317L68.7222 146.789C68.8583 146.615 69.0052 146.449 69.1468 146.28C69.7211 145.605 70.2872 144.928 70.867 144.261L72.1761 142.837L72.8294 142.124C73.0553 141.893 73.2866 141.67 73.518 141.447C76.7597 138.265 80.3062 135.418 84.0623 132.892C85.7416 131.792 87.4346 130.687 89.1847 129.729L90.0231 129.256C90.3034 129.1 90.5919 128.959 90.8777 128.809C91.452 128.521 92.0209 128.224 92.6169 127.976C93.2103 127.723 93.79 127.448 94.4106 127.255L95.3279 126.956C95.4803 126.907 95.6436 126.882 95.8015 126.847C95.9621 126.817 96.1172 126.773 96.2778 126.754C96.6779 126.694 96.8521 126.683 96.8494 126.713C96.8494 126.746 96.6697 126.836 96.3785 127.026C95.7879 127.391 94.7672 128.118 93.4743 128.752L92.6169 129.179C92.3312 129.324 92.0535 129.487 91.7732 129.639C91.2125 129.95 90.6382 130.23 90.0857 130.559C89.5331 130.883 88.9643 131.183 88.4199 131.526C87.8728 131.863 87.3257 132.201 86.7732 132.527C84.5958 133.896 82.4619 135.358 80.3797 136.912C77.9001 138.787 75.543 141.019 73.3411 143.308C70.9132 145.82 68.7058 148.55 66.787 151.468L66.3379 152.138L66.1147 152.473L65.916 152.813L65.7173 153.153L65.5349 153.504L65.3526 153.855L65.1865 154.217C64.7402 155.181 64.3727 156.185 64.057 157.209C63.118 160.317 62.5926 163.578 62.3014 166.806C62.0837 169.321 62.051 171.8 62.0755 174.293C62.0809 174.843 62.1027 175.379 62.1054 175.932C62.1082 176.958 62.1109 177.633 62.0619 178.109C61.9993 178.586 61.9176 178.863 61.7979 179.089C61.7434 179.193 61.6917 179.329 61.6427 179.389C61.5556 179.492 61.4631 179.337 61.3569 178.964C61.2535 178.591 61.1229 178.006 61.0766 177.247C60.8888 174.996 60.8752 172.677 60.9487 170.325C61.0276 167.973 61.2236 165.586 61.5638 163.207C61.8142 161.441 62.1544 159.674 62.6171 157.93C62.8567 157.059 63.1125 156.191 63.431 155.336C63.7467 154.481 64.0951 153.632 64.5306 152.816L64.5578 152.826V152.837Z" fill="#272540"/>
<path d="M93.6063 155.282C92.9176 155.655 92.2236 156.023 91.5486 156.42L90.5306 157.008L89.5317 157.626C89.2895 157.778 89.0472 157.931 88.8131 158.091C88.5791 158.254 88.345 158.418 88.1055 158.576C87.2535 159.117 86.4397 159.705 85.615 160.285C84.8121 160.895 84.0037 161.493 83.2416 162.155C82.5421 162.715 81.9134 163.358 81.271 163.97C80.8791 164.384 80.5062 164.814 80.1033 165.217C79.8992 165.416 79.7141 165.633 79.5127 165.835C79.3167 166.042 79.0908 166.224 78.8785 166.42C78.6036 166.654 78.571 166.57 78.6581 166.251C78.7016 166.091 78.7697 165.867 78.8649 165.603C78.9684 165.345 79.1181 165.067 79.314 164.792C80.8192 162.939 82.6074 161.338 84.5481 159.947C85.7048 159.109 86.8779 158.2 88.0837 157.386C88.7478 156.94 89.431 156.518 90.106 156.091C90.7973 155.685 91.4751 155.263 92.1746 154.874L93.462 154.153L94.763 153.459C96.0749 152.756 97.425 152.111 98.7423 151.444C99.7739 150.941 100.754 150.377 101.774 149.879C102 149.771 102.215 149.651 102.447 149.55C103.315 149.199 103.623 149.166 103.911 149.335C103.976 149.373 104.055 149.406 104.104 149.452C104.265 149.604 103.985 149.915 103.399 150.271C102.531 150.799 101.617 151.276 100.675 151.736C99.7358 152.196 98.7859 152.664 97.8305 153.129C97.1256 153.483 96.4206 153.837 95.7129 154.191C95.0162 154.564 94.3058 154.915 93.6199 155.304L93.6063 155.282Z" fill="#272540"/>
<path d="M79.7445 173.104C79.7445 172.424 79.7635 171.743 79.7962 171.063C79.8071 170.815 79.7907 170.567 79.8152 170.32C79.8724 169.449 80.0085 168.583 80.15 167.723C80.2153 167.342 80.2534 166.955 80.3297 166.58C80.3759 166.338 80.4222 166.095 80.493 165.856C80.561 165.616 80.659 165.385 80.7515 165.156C80.8141 165.015 80.8659 165.05 80.9176 165.194C80.9666 165.339 81.0455 165.597 81.0482 165.878C81.0537 166.868 80.9067 167.821 80.7706 168.804C80.727 169.097 80.7134 169.4 80.6971 169.702C80.6889 170.007 80.6917 170.311 80.678 170.614C80.6617 171.28 80.6454 171.947 80.659 172.614L80.6726 173.232L80.7025 173.847C80.7352 174.468 80.776 175.094 80.8713 175.706C80.9557 176.18 81.0782 176.634 81.1979 177.091C81.2251 177.192 81.2551 177.29 81.2687 177.394C81.3286 177.777 81.2905 177.913 81.1271 178.039C81.089 178.069 81.0537 178.101 81.0156 178.123C80.8904 178.194 80.7325 178.066 80.5909 177.796C80.1718 176.996 79.9785 176.079 79.8697 175.162C79.788 174.478 79.7336 173.79 79.72 173.104H79.7445Z" fill="#272540"/>
<path d="M93.6513 141.391C93.3219 140.411 93.0552 139.412 92.8701 138.4C92.7993 138.03 92.7122 137.665 92.6633 137.292C92.4972 135.978 92.4564 134.647 92.5734 133.329C92.5898 133.038 92.636 132.744 92.6578 132.453C92.7068 132.162 92.7395 131.87 92.8021 131.587C92.8701 131.22 92.9599 130.852 93.0634 130.493C93.1967 130.139 93.3682 129.802 93.5615 129.481C93.6812 129.279 93.7302 129.339 93.7601 129.557C93.7738 129.666 93.7874 129.815 93.7928 129.99C93.7983 130.164 93.8173 130.368 93.7928 130.569C93.6431 131.274 93.5506 131.982 93.4798 132.695C93.39 133.408 93.3492 134.132 93.3328 134.867C93.311 135.749 93.4716 136.658 93.6349 137.543C93.8146 138.52 94.0541 139.489 94.3481 140.441C94.5277 141.029 94.74 141.609 94.9686 142.178C95.3252 143.038 95.7226 143.89 96.2071 144.679C96.5827 145.292 97.0427 145.828 97.4945 146.359C97.5925 146.478 97.7041 146.576 97.8048 146.696C98.1831 147.121 98.2729 147.279 98.1994 147.54C98.1831 147.6 98.1749 147.665 98.1504 147.717C98.0769 147.888 97.783 147.839 97.4183 147.553C96.8902 147.126 96.3921 146.631 95.9784 146.067C95.562 145.507 95.1945 144.902 94.8652 144.282C94.3753 143.359 93.9752 142.387 93.6213 141.408L93.6431 141.397L93.6513 141.391Z" fill="#272540"/>
<path d="M95.1929 134.399C95.2854 134.312 95.3807 134.225 95.4732 134.141C95.5059 134.111 95.5331 134.07 95.5685 134.04C95.691 133.934 95.8298 133.841 95.9604 133.746C96.0203 133.703 96.072 133.654 96.1237 133.605C96.1891 133.542 96.2544 133.469 96.3551 133.444C96.385 133.436 96.4231 133.501 96.4449 133.575C96.4667 133.651 96.483 133.733 96.4504 133.768C96.3333 133.888 96.2108 134.01 96.0584 134.108C95.9686 134.168 95.9006 134.261 95.8243 134.337C95.74 134.421 95.6529 134.508 95.5658 134.593C95.5141 134.647 95.4623 134.699 95.4133 134.756C95.3426 134.843 95.2582 134.922 95.1983 135.017C95.1521 135.091 95.1221 135.172 95.084 135.246C95.0758 135.262 95.0704 135.279 95.0595 135.295C95.0241 135.352 94.9942 135.357 94.9153 135.338L94.8608 135.325C94.8037 135.306 94.771 135.257 94.771 135.194C94.7764 135.102 94.79 135.009 94.8145 134.922C94.8418 134.835 94.8908 134.764 94.937 134.688C95.0024 134.576 95.0949 134.484 95.182 134.391L95.1902 134.397L95.1929 134.399Z" fill="#272540"/>
<path d="M96.0883 137.236C96.1455 137.179 96.2162 137.133 96.2788 137.081C96.3006 137.062 96.3197 137.038 96.3414 137.021C96.4258 136.961 96.5129 136.899 96.5946 136.839C96.6299 136.812 96.6626 136.779 96.6953 136.746C96.7361 136.706 96.7715 136.659 96.8286 136.638C96.864 136.624 96.9538 136.79 96.9157 136.842C96.845 136.931 96.7688 137.013 96.6708 137.078C96.6109 137.117 96.5755 137.182 96.5292 137.234C96.4775 137.288 96.4258 137.345 96.3714 137.402C96.3387 137.435 96.3033 137.47 96.2734 137.506C96.2244 137.56 96.1754 137.612 96.1373 137.672C96.1074 137.718 96.0965 137.778 96.0774 137.83C96.072 137.841 96.0693 137.851 96.0611 137.862C96.0339 137.898 96.0067 137.898 95.9359 137.862L95.8869 137.838C95.8352 137.808 95.8025 137.767 95.7998 137.724C95.7862 137.593 95.857 137.506 95.9168 137.416C95.9658 137.351 96.023 137.291 96.0774 137.231L96.0829 137.236H96.0883Z" fill="#272540"/>
<path d="M96.9857 142.45C97.0592 142.357 97.1327 142.265 97.2143 142.177C97.2415 142.145 97.2606 142.107 97.2905 142.077C97.3994 141.971 97.5137 141.87 97.6226 141.766C97.6688 141.72 97.7097 141.669 97.7451 141.614C97.7913 141.546 97.8267 141.464 97.9165 141.434C97.971 141.415 98.2187 141.723 98.1724 141.796C98.0826 141.927 97.9819 142.047 97.843 142.145C97.7587 142.202 97.7233 142.3 97.6634 142.379C97.5981 142.466 97.53 142.553 97.4647 142.637C97.4239 142.692 97.3831 142.746 97.3477 142.804C97.2905 142.888 97.2361 142.975 97.1953 143.068C97.1653 143.141 97.1599 143.223 97.1435 143.299C97.1408 143.315 97.1408 143.334 97.1354 143.351C97.1136 143.41 97.0782 143.416 96.9612 143.386L96.8822 143.364C96.7951 143.337 96.7325 143.283 96.7217 143.225C96.6944 143.054 96.7217 142.891 96.787 142.746C96.8387 142.64 96.9067 142.542 96.9721 142.442L96.983 142.447L96.9857 142.45Z" fill="#272540"/>
<path d="M108.004 114.477C108.88 115.56 107.652 116.499 106.73 116.254C105.238 115.86 105.698 114.384 107.236 114.401C107.435 114.401 107.911 114.363 108.004 114.477Z" fill="#272540"/>
<path opacity="0.5" d="M122.396 107.277C123.523 107.976 122.712 109.201 121.805 109.272C120.341 109.383 120.295 107.914 121.68 107.448C121.86 107.388 122.276 107.203 122.393 107.277H122.396Z" fill="#272540"/>
<path opacity="0.5" d="M109.988 163.074C111.115 163.773 110.304 164.998 109.398 165.069C107.933 165.18 107.887 163.711 109.272 163.245C109.452 163.185 109.868 163 109.986 163.074H109.988Z" fill="#272540"/>
<path opacity="0.3" d="M209.307 189.309C209.307 189.309 212.089 190.068 213.523 192.719C214.957 195.37 211.041 204.7 207.388 208.163C204.032 211.339 201.955 211.611 201.955 211.611C201.955 211.611 198.602 209.564 198.403 207.847C198.205 206.129 198.967 209.681 202.889 205.294C206.811 200.904 209.307 194.017 209.307 191.663V189.311V189.309Z" fill="#272540"/>
<path d="M218.51 199.658C217.987 198.853 217.438 198.061 216.863 197.285C216.656 196.999 216.43 196.73 216.221 196.449C215.489 195.448 214.716 194.476 213.886 193.553C213.524 193.14 213.123 192.756 212.732 192.377C212.467 192.149 212.206 191.912 211.942 191.689L211.548 191.343C211.414 191.232 211.273 191.136 211.134 191.027C210.962 190.894 211 190.872 211.191 190.919C211.286 190.94 211.42 190.981 211.58 191.036C211.741 191.09 211.907 191.185 212.089 191.291C212.71 191.697 213.232 192.211 213.763 192.71C214.022 192.965 214.272 193.229 214.525 193.493C214.773 193.76 215.01 194.041 215.246 194.318C215.804 194.99 216.422 195.657 216.983 196.351C217.595 197.119 218.17 197.916 218.736 198.719C219.076 199.217 219.416 199.718 219.746 200.224C220.246 200.992 220.723 201.779 221.185 202.56C221.36 202.867 221.542 203.167 221.727 203.463L222.244 204.378C222.32 204.511 222.399 204.642 222.454 204.792C222.672 205.331 222.693 205.521 222.601 205.693C222.579 205.731 222.563 205.78 222.535 205.807C222.451 205.899 222.263 205.725 222.035 205.377C221.697 204.86 221.376 204.321 221.055 203.771C220.715 203.229 220.383 202.677 220.048 202.122C219.805 201.705 219.547 201.297 219.288 200.886C219.035 200.472 218.766 200.069 218.494 199.667L218.507 199.656L218.51 199.658Z" fill="#272540"/>
<path d="M190.368 187.428C190.368 187.428 191.135 187.735 191.571 188.427C191.862 188.892 188.697 188.862 188.697 188.862L190.368 187.428Z" fill="#272540"/>
<path d="M188.433 184.194C188.433 184.227 188.485 184.918 188.765 185.071C189.045 185.223 189.584 186.061 189.584 186.061L186.588 186.606C186.588 186.606 188.022 184.992 188.087 184.632C188.153 184.273 188.433 184.191 188.433 184.191V184.194Z" fill="#272540"/>
<path d="M181.027 183.865C181.027 183.865 186.406 180.854 188.085 183.059L187.418 183.236C187.418 183.236 183.145 183.462 183.063 183.699C182.981 183.936 181.03 183.865 181.03 183.865H181.027Z" fill="#272540"/>
<path d="M207.592 197.662C207.431 198.035 207.276 198.41 207.091 198.769C206.914 199.134 206.737 199.499 206.547 199.855C206.411 200.117 206.304 200.394 206.157 200.65C205.657 201.562 205.101 202.444 204.535 203.312C204.279 203.696 204.026 204.082 203.762 204.455C203.43 204.94 203.057 205.405 202.573 205.762C202.423 205.873 202.431 205.846 202.472 205.68C202.491 205.598 202.518 205.479 202.546 205.332C202.581 205.193 202.638 205.046 202.717 204.899C202.791 204.774 202.85 204.635 202.916 204.504C202.981 204.374 203.063 204.254 203.136 204.129C203.294 203.886 203.427 203.625 203.577 203.375C203.738 203.132 203.898 202.89 204.053 202.64C204.209 202.392 204.38 202.15 204.535 201.9C204.723 201.6 204.9 201.287 205.061 200.96C205.216 200.634 205.374 200.305 205.529 199.978L206.035 198.897L206.517 197.803C206.707 197.351 206.903 196.9 207.069 196.44C207.333 195.746 207.575 195.038 207.75 194.325C207.82 194.047 207.853 193.767 207.897 193.489C207.929 193.211 207.954 192.937 207.995 192.664C208.006 192.545 208.003 192.428 208.016 192.311C208.027 192.202 208.044 192.109 208.057 192.033C208.065 191.959 208.076 191.902 208.101 191.851C208.155 191.75 208.223 191.687 208.316 191.627C208.359 191.6 208.4 191.565 208.438 191.548C208.506 191.519 208.569 191.548 208.637 191.63C208.705 191.714 208.789 191.859 208.819 192.052C208.879 192.599 208.92 193.173 208.819 193.72C208.735 194.27 208.593 194.806 208.444 195.343C208.204 196.129 207.924 196.905 207.619 197.664L207.597 197.656L207.592 197.662Z" fill="#272540"/>
<path d="M207.525 191.546C207.429 191.317 208.453 188.884 208.823 189.371C209.952 190.857 208.698 193.718 208.698 193.718L207.525 191.546Z" fill="#272540"/>
<path d="M201.391 201.107C201.092 201.26 197.502 206.254 198.367 207.332C199.706 208.998 203.092 204.7 203.092 204.7L201.391 201.107Z" fill="#272540"/>
<path d="M161.611 179.964C161.216 179.822 160.819 179.648 160.427 179.381C160.234 179.243 160.032 179.087 159.855 178.875C159.632 178.617 159.485 178.268 159.436 177.931C159.431 177.792 159.436 177.65 159.474 177.517C159.493 177.449 159.523 177.386 159.559 177.326C159.589 177.264 159.632 177.207 159.676 177.152C159.717 177.095 159.766 177.046 159.82 176.997C159.869 176.945 159.926 176.902 159.989 176.864L160.168 176.741L160.329 176.657C160.686 176.483 161.015 176.382 161.344 176.289C162 176.104 162.645 176.001 163.29 175.906C164.042 175.794 164.787 175.677 165.536 175.609C168.173 175.372 170.803 175.285 173.429 175.193C174.594 175.152 175.764 175.089 176.918 175.035C177.659 174.997 178.402 174.959 179.145 174.92C179.515 174.901 179.888 174.896 180.258 174.904C180.631 174.91 181.001 174.904 181.374 174.988C181.608 175.059 181.712 175.111 181.706 175.154C181.703 175.201 181.592 175.255 181.404 175.386C181.026 175.655 180.313 175.971 179.461 176.042C177.947 176.134 176.437 176.227 174.923 176.284C173.41 176.333 171.894 176.368 170.37 176.398C168.546 176.434 166.663 176.643 164.825 176.861C163.976 176.964 163.124 177.082 162.302 177.25C161.894 177.335 161.483 177.427 161.116 177.558C161.023 177.59 160.936 177.626 160.852 177.661L160.762 177.705L160.705 177.74C160.628 177.786 160.563 177.874 160.588 177.969C160.601 178.037 160.628 178.102 160.666 178.162C160.683 178.181 160.724 178.244 160.764 178.285C160.8 178.331 160.854 178.374 160.898 178.418C161.306 178.75 161.889 178.968 162.468 179.134C163.054 179.297 163.666 179.414 164.281 179.504C166.151 179.768 168.073 179.85 169.964 179.836C171.437 179.822 172.879 179.708 174.333 179.602C174.654 179.577 174.964 179.545 175.288 179.523C175.887 179.485 176.284 179.477 176.565 179.515C176.706 179.537 176.818 179.569 176.91 179.61C177.003 179.656 177.079 179.714 177.147 179.773C177.21 179.828 177.289 179.877 177.327 179.923C177.389 180.002 177.299 180.081 177.087 180.195C176.875 180.312 176.537 180.391 176.099 180.448C173.494 180.775 170.724 180.922 167.923 180.851C166.883 180.824 165.838 180.764 164.787 180.644C163.737 180.519 162.681 180.359 161.611 179.999L161.616 179.972L161.611 179.964Z" fill="#272540"/>
<path d="M178.672 187.46C180.283 187.604 181.93 187.509 183.476 187.06C184.042 186.897 184.578 186.66 185.098 186.407C185.558 186.183 185.993 185.919 186.391 185.62C186.78 185.318 187.145 184.969 187.36 184.586C187.466 184.398 187.528 184.202 187.526 184.047C187.526 184.009 187.518 183.973 187.515 183.938C187.499 183.908 187.501 183.87 187.479 183.843C187.463 183.813 187.45 183.78 187.42 183.753L187.384 183.709C187.384 183.709 187.36 183.69 187.346 183.682C187.243 183.595 187.006 183.535 186.772 183.511C186.532 183.483 186.274 183.489 186.015 183.5C185.09 183.554 184.148 183.788 183.228 184.006C182.635 184.153 182.047 184.327 181.456 184.493L180.566 184.741L180.12 184.861C179.967 184.893 179.815 184.92 179.657 184.934C179.251 184.934 179.309 184.94 179.57 184.695C179.823 184.428 180.329 184.052 181.002 183.794C181.595 183.565 182.196 183.347 182.806 183.149C183.416 182.953 184.034 182.762 184.681 182.653C185.329 182.539 185.983 182.444 186.712 182.482C186.804 182.487 186.894 182.493 186.992 182.509C187.085 182.52 187.186 182.539 187.286 182.563C187.485 182.61 187.708 182.683 187.934 182.844C188.054 182.925 188.138 183.021 188.22 183.116C188.299 183.217 188.37 183.334 188.421 183.451C188.53 183.696 188.549 183.957 188.536 184.191C188.468 184.744 188.225 185.16 187.964 185.514C187.697 185.868 187.392 186.173 187.071 186.445C186.418 186.984 185.691 187.395 184.937 187.713C183.274 188.394 181.489 188.655 179.733 188.633C179.189 188.619 178.664 188.595 178.108 188.524C177.556 188.445 177.014 188.306 176.492 188.091C176.293 188.01 176.1 187.914 175.912 187.803C175.819 187.748 175.724 187.686 175.634 187.623C175.55 187.566 175.463 187.501 175.378 187.435C175.041 187.169 174.725 186.85 174.494 186.458C174.26 186.072 174.124 185.598 174.145 185.136C174.167 184.673 174.317 184.24 174.521 183.862C174.837 183.266 175.264 182.784 175.705 182.335C176.151 181.888 176.63 181.486 177.134 181.118C177.352 180.949 177.569 180.797 177.801 180.645C178.688 180.136 179.02 180.07 179.32 180.171C179.385 180.19 179.461 180.195 179.505 180.214C179.635 180.255 179.39 180.658 178.816 181.096C178.604 181.26 178.402 181.442 178.187 181.603C177.972 181.763 177.763 181.929 177.553 182.098C177.139 182.438 176.731 182.787 176.372 183.162C176.015 183.538 175.686 183.938 175.482 184.346C175.272 184.757 175.204 185.141 175.286 185.473C175.343 185.723 175.484 185.977 175.708 186.216C175.819 186.336 175.944 186.45 176.086 186.559C176.154 186.613 176.236 186.671 176.312 186.722C176.38 186.769 176.451 186.812 176.524 186.856C176.824 187.024 177.175 187.158 177.537 187.256C177.907 187.354 178.266 187.416 178.669 187.438V187.465L178.672 187.46Z" fill="#272540"/>
<path d="M182.681 190.776C183.756 190.613 184.825 190.324 185.843 189.905C186.213 189.752 186.565 189.556 186.918 189.374C187.544 189.056 188.149 188.686 188.669 188.247C188.927 188.03 189.164 187.787 189.344 187.537C189.439 187.414 189.504 187.286 189.553 187.164C189.591 187.044 189.605 186.938 189.586 186.848C189.548 186.699 189.341 186.511 189.115 186.443C188.881 186.369 188.595 186.383 188.312 186.443C187.945 186.524 187.58 186.685 187.223 186.859C187.133 186.903 187.044 186.946 186.957 186.995C186.864 187.033 186.771 187.077 186.679 187.118L186.399 187.246C186.303 187.286 186.2 187.316 186.099 187.352C185.832 187.42 185.862 187.406 185.966 187.172C186.064 186.933 186.273 186.489 186.698 186.198C187.084 185.961 187.495 185.743 187.969 185.596C188.086 185.558 188.209 185.525 188.339 185.504C188.464 185.474 188.6 185.463 188.739 185.455C188.873 185.438 189.028 185.463 189.172 185.471C189.322 185.504 189.477 185.531 189.624 185.596C189.774 185.664 189.918 185.735 190.043 185.844C190.108 185.898 190.171 185.936 190.231 186.007C190.291 186.078 190.351 186.149 190.405 186.225C190.454 186.309 190.498 186.399 190.536 186.489C190.566 186.582 190.587 186.677 190.606 186.772C190.628 186.96 190.623 187.145 190.587 187.306C190.438 187.948 190.089 188.332 189.741 188.664C188.897 189.426 187.988 190.057 187.006 190.539C185.928 191.059 184.795 191.437 183.636 191.685C182.923 191.837 182.196 191.935 181.469 191.979C180.92 192.012 180.362 192.017 179.79 191.935C179.224 191.854 178.663 191.688 178.151 191.405C177.751 191.195 177.384 190.907 177.085 190.545C176.782 190.188 176.567 189.742 176.483 189.268C176.467 189.165 176.456 189.061 176.445 188.958C176.429 188.854 176.426 188.748 176.437 188.645C176.453 188.449 176.483 188.291 176.532 188.168C176.576 188.043 176.611 187.942 176.665 187.869C176.777 187.722 176.88 187.657 177.003 187.621C177.06 187.605 177.117 187.58 177.166 187.58C177.329 187.575 177.359 187.888 177.384 188.326C177.408 188.979 177.596 189.527 177.975 189.94C178.16 190.15 178.383 190.34 178.655 190.479C178.922 190.623 179.218 190.74 179.537 190.806C180.01 190.915 180.495 190.934 181.056 190.915C181.597 190.898 182.144 190.838 182.683 190.746L182.689 190.773L182.681 190.776Z" fill="#272540"/>
<path d="M184.727 193.44C185.726 193.201 186.722 192.877 187.675 192.469C188.023 192.319 188.35 192.128 188.682 191.96C189.265 191.655 189.836 191.32 190.318 190.914C190.8 190.517 191.194 190.016 191.2 189.529C191.2 189.475 191.186 189.42 191.181 189.366C191.175 189.314 191.14 189.246 191.137 189.224C191.118 189.153 191.047 189.104 190.977 189.088C190.936 189.077 190.928 189.08 190.854 189.069C190.791 189.069 190.732 189.055 190.666 189.064C190.536 189.064 190.4 189.083 190.263 189.102C189.912 189.162 189.564 189.279 189.229 189.417C188.892 189.556 188.581 189.731 188.236 189.88C188.11 189.907 188.04 189.907 188.018 189.88C187.996 189.85 188.013 189.785 188.034 189.646C188.053 189.502 188.13 189.349 188.236 189.162C188.353 188.99 188.524 188.827 188.739 188.707C189.123 188.495 189.529 188.329 189.969 188.217C190.187 188.16 190.419 188.122 190.669 188.114C190.729 188.108 190.8 188.114 190.865 188.114C190.933 188.114 190.987 188.116 191.083 188.136C191.189 188.157 191.295 188.163 191.377 188.209C191.461 188.253 191.562 188.272 191.633 188.337C191.788 188.446 191.913 188.59 192.003 188.762C192.022 188.808 192.041 188.854 192.06 188.9L192.098 189.001C192.128 189.066 192.133 189.143 192.152 189.213C192.166 189.287 192.182 189.358 192.188 189.431V189.652C192.193 189.801 192.152 189.937 192.128 190.079C192.093 190.215 192.041 190.337 191.986 190.463C191.921 190.572 191.858 190.686 191.785 190.787C191.638 190.985 191.48 191.157 191.311 191.309C190.909 191.671 190.492 191.976 190.062 192.262C189.632 192.545 189.191 192.798 188.737 193.013C187.738 193.484 186.711 193.865 185.661 194.17C185.013 194.355 184.357 194.513 183.679 194.611C183.424 194.646 183.151 194.671 182.879 194.662C182.621 194.654 182.362 194.635 182.103 194.603C181.589 194.537 181.069 194.434 180.574 194.227C180.193 194.064 179.82 193.846 179.512 193.544C179.205 193.25 178.971 192.891 178.791 192.523C178.715 192.36 178.639 192.202 178.579 192.033C178.375 191.407 178.391 191.2 178.562 191.012C178.598 190.972 178.63 190.92 178.666 190.893C178.775 190.8 179.003 191.012 179.175 191.426C179.442 192.033 179.749 192.605 180.176 192.964C180.389 193.13 180.636 193.263 180.917 193.359C181.194 193.457 181.494 193.546 181.812 193.598C182.046 193.639 182.291 193.666 182.536 193.683C182.659 193.691 182.784 193.696 182.909 193.699C183.021 193.699 183.119 193.699 183.238 193.685C183.707 193.644 184.221 193.536 184.719 193.408L184.727 193.429V193.44Z" fill="#272540"/>
<path d="M190.087 194.869C190.708 194.798 191.337 194.7 191.957 194.553C192.186 194.502 192.404 194.415 192.63 194.357C193.43 194.151 194.225 193.906 195.006 193.617C195.354 193.492 195.692 193.337 196.021 193.173C196.127 193.122 196.231 193.065 196.334 193.01L196.655 192.863C196.764 192.82 196.87 192.765 196.985 192.733C197.102 192.703 197.219 192.67 197.336 192.64C197.485 192.605 197.504 192.673 197.453 192.833C197.428 192.915 197.385 193.024 197.327 193.146C197.298 193.206 197.268 193.274 197.227 193.331C197.183 193.383 197.134 193.435 197.077 193.478L196.772 193.702C196.669 193.772 196.557 193.829 196.451 193.889C196.233 194.009 196.013 194.121 195.787 194.227C195.561 194.33 195.335 194.434 195.101 194.518C194.864 194.6 194.627 194.673 194.382 194.739C193.803 194.894 193.237 195.147 192.646 195.316C191.998 195.501 191.339 195.65 190.673 195.759C190.262 195.822 189.845 195.865 189.426 195.893C188.792 195.933 188.15 195.903 187.515 195.816C187.023 195.751 186.525 195.648 186.054 195.424C185.953 195.373 185.847 195.329 185.757 195.256C185.67 195.19 185.602 195.133 185.55 195.079C185.498 195.027 185.471 194.964 185.449 194.915C185.409 194.815 185.411 194.733 185.441 194.638C185.455 194.594 185.466 194.551 185.485 194.515C185.55 194.401 185.749 194.423 185.997 194.51C186.712 194.779 187.436 194.888 188.242 194.943C188.835 194.973 189.459 194.937 190.082 194.847L190.087 194.872V194.869Z" fill="#272540"/>
<path d="M184.177 167.608C185.013 168.887 185.949 170.065 187.071 171.089C188.181 172.118 189.425 173.013 190.737 173.83C191.692 174.428 192.694 174.967 193.682 175.547C194.55 176.059 195.424 176.579 196.276 177.137C197.128 177.695 197.958 178.299 198.761 178.93C199.569 179.559 200.318 180.259 201.058 180.966C201.412 181.336 201.782 181.69 202.114 182.079L202.623 182.654L203.105 183.25C204.237 184.665 205.239 186.189 206.104 187.757C206.668 188.761 207.177 189.796 207.639 190.849C207.879 191.374 208.064 191.919 208.268 192.455C208.372 192.722 208.461 192.997 208.546 193.272C208.627 193.546 208.682 193.832 208.739 194.115C208.799 194.472 208.807 194.632 208.766 194.635C208.723 194.638 208.622 194.488 208.429 194.24C208.012 193.748 207.408 192.806 206.88 191.628C205.965 189.526 204.888 187.504 203.608 185.62C203.304 185.139 202.947 184.695 202.618 184.23C202.258 183.789 201.918 183.331 201.532 182.912C200.786 182.049 199.983 181.233 199.109 180.487C197.035 178.669 194.485 177.294 192.003 175.849C190.639 175.052 189.267 174.224 187.985 173.25C187.337 172.771 186.728 172.24 186.137 171.69C185.563 171.121 184.999 170.539 184.507 169.899C183.263 168.351 182.28 166.63 181.398 164.888C181.064 164.23 180.745 163.56 180.427 162.899C180.269 162.569 180.111 162.237 179.945 161.919C179.779 161.603 179.605 161.282 179.409 161.032C179.36 160.969 179.335 160.947 179.292 160.909C179.254 160.874 179.205 160.852 179.156 160.841C179.052 160.838 178.954 160.89 178.873 160.953C178.655 161.121 178.456 161.415 178.315 161.718C178.023 162.335 177.882 163.04 177.83 163.74C177.754 164.834 177.898 165.934 178.214 166.971C178.53 168.01 179.006 168.993 179.613 169.891C179.744 170.093 179.885 170.28 180.029 170.468C180.168 170.659 180.329 170.836 180.478 171.023C181.671 172.352 182.087 172.752 182.245 173.179C182.283 173.274 182.348 173.383 182.365 173.451C182.389 173.563 182.239 173.525 181.924 173.375C181.763 173.304 181.57 173.193 181.355 173.038C181.137 172.885 180.884 172.703 180.625 172.466C179.101 171.07 177.857 169.205 177.264 167.069C176.962 166.004 176.828 164.88 176.894 163.745C176.929 163.176 177.016 162.608 177.188 162.039C177.275 161.756 177.376 161.473 177.523 161.192C177.67 160.915 177.833 160.634 178.1 160.373C178.143 160.324 178.203 160.278 178.257 160.231C178.334 160.177 178.407 160.101 178.497 160.065L178.758 159.94C178.848 159.908 178.941 159.894 179.033 159.869L179.101 159.853L179.118 159.848C179.123 159.861 179.128 159.85 179.134 159.853H179.169C179.216 159.853 179.264 159.845 179.311 159.85C179.403 159.872 179.496 159.891 179.58 159.932C179.757 160 179.91 160.123 180.051 160.256C180.067 160.272 180.086 160.289 180.108 160.302L180.149 160.348L180.214 160.422C180.261 160.474 180.291 160.517 180.331 160.566C180.41 160.661 180.465 160.754 180.527 160.849C180.644 161.034 180.751 161.217 180.851 161.399C181.251 162.12 181.583 162.831 181.932 163.536C182.623 164.943 183.355 166.309 184.205 167.591L184.183 167.61L184.177 167.608Z" fill="#272540"/>
<path d="M200.907 201.197C200.798 200.958 200.67 200.726 200.559 200.487C200.433 200.253 200.311 200.019 200.178 199.79C200.077 199.624 199.957 199.472 199.854 199.306C199.5 198.718 199.113 198.141 198.691 197.588C198.506 197.341 198.289 197.12 198.084 196.891C197.812 196.606 197.518 196.342 197.369 195.936C197.331 195.803 197.38 195.778 197.546 195.762C197.725 195.735 198 195.737 198.199 195.865C198.863 196.361 199.394 196.998 199.845 197.703C200.112 198.127 200.472 198.503 200.763 198.922C201.081 199.385 201.375 199.864 201.645 200.359C201.808 200.664 201.96 200.974 202.11 201.284C202.333 201.758 202.535 202.24 202.736 202.716C202.897 203.084 203.082 203.435 203.245 203.802C203.28 203.884 203.31 203.963 203.332 204.05C203.419 204.366 203.348 204.496 203.182 204.619C203.142 204.646 203.106 204.679 203.065 204.7C202.935 204.771 202.763 204.684 202.597 204.496C202.377 204.208 202.197 203.903 202.034 203.59C201.865 203.28 201.702 202.964 201.563 202.64C201.457 202.4 201.353 202.158 201.239 201.919C201.133 201.676 201.013 201.442 200.891 201.206L200.912 201.192L200.907 201.197Z" fill="#272540"/>
<path d="M201.861 205.446C202.974 204.325 203.949 203.005 204.803 201.622C205.116 201.116 205.389 200.585 205.674 200.062C206.682 198.22 207.563 196.287 208.179 194.276C208.445 193.383 208.644 192.463 208.726 191.559C208.772 190.982 208.766 190.394 208.633 189.88C208.598 189.755 208.565 189.627 208.521 189.518C208.483 189.442 208.5 189.447 208.453 189.423C208.402 189.412 208.279 189.431 208.159 189.475C208.04 189.521 207.92 189.594 207.811 189.681C207.675 189.79 207.615 189.842 207.588 189.823C207.563 189.804 207.569 189.706 207.629 189.537C207.697 189.371 207.781 189.126 208.067 188.868L208.097 188.843C208.102 188.824 208.116 188.827 208.127 188.816L208.2 188.778C208.247 188.751 208.309 188.731 208.374 188.715C208.434 188.696 208.521 188.696 208.598 188.693C208.682 188.704 208.775 188.715 208.856 188.756C209.033 188.827 209.164 188.96 209.254 189.085L209.289 189.134L209.311 189.17L209.352 189.24C209.379 189.287 209.409 189.336 209.431 189.387C209.588 189.744 209.64 190.101 209.678 190.443C209.714 190.789 209.714 191.124 209.697 191.453C209.662 192.112 209.572 192.752 209.425 193.375C209.131 194.619 208.707 195.814 208.198 196.97C207.588 198.353 206.978 199.796 206.23 201.146C205.405 202.626 204.471 204.053 203.361 205.356C202.67 206.148 201.91 206.902 200.998 207.49C200.653 207.711 200.28 207.904 199.874 208.035C199.471 208.165 199.031 208.236 198.59 208.19C198.38 208.162 198.13 208.122 197.904 207.983C197.68 207.847 197.509 207.632 197.411 207.409C197.223 206.954 197.242 206.513 197.283 206.105C197.357 205.465 197.525 204.872 197.721 204.289C197.917 203.707 198.16 203.149 198.443 202.605C198.568 202.365 198.69 202.131 198.837 201.897C199.376 201.029 199.768 200.876 200.062 200.882C200.133 200.884 200.215 200.882 200.263 200.898C200.348 200.931 200.332 201.034 200.269 201.197C200.201 201.361 200.097 201.608 199.929 201.902C199.414 202.768 198.987 203.748 198.639 204.728C198.47 205.217 198.328 205.721 198.274 206.192C198.247 206.426 198.241 206.655 198.274 206.826C198.307 207.006 198.366 207.079 198.404 207.104C198.424 207.15 198.802 207.221 199.093 207.166C199.401 207.123 199.727 207.011 200.046 206.845C200.685 206.508 201.292 205.999 201.845 205.433L201.864 205.449L201.861 205.446Z" fill="#272540"/>
<path d="M218.893 200.093C218.307 199.086 217.66 198.115 216.987 197.157C216.74 196.811 216.457 196.49 216.206 196.144C215.303 194.944 214.355 193.768 213.337 192.652C213.12 192.399 212.875 192.165 212.638 191.928C212.396 191.694 212.164 191.454 211.914 191.237C211.593 190.956 211.277 190.668 210.967 190.371C210.809 190.227 210.646 190.088 210.504 189.927C210.363 189.764 210.221 189.598 210.085 189.432C209.916 189.22 210.014 189.154 210.289 189.182C210.428 189.195 210.61 189.228 210.822 189.282C210.926 189.312 211.043 189.339 211.149 189.391C211.253 189.443 211.359 189.508 211.459 189.582C212.17 190.121 212.831 190.719 213.454 191.356C213.773 191.667 214.075 191.996 214.372 192.331C214.671 192.663 214.954 193.008 215.226 193.368C215.556 193.792 215.912 194.206 216.258 194.631L216.789 195.262C216.957 195.48 217.126 195.698 217.292 195.913C218.024 196.868 218.691 197.872 219.342 198.882C219.726 199.516 220.117 200.142 220.471 200.793C220.607 201.038 220.749 201.28 220.882 201.528L221.266 202.276C221.53 202.772 221.753 203.283 222.004 203.781C222.368 204.565 222.779 205.311 223.092 206.111C223.16 206.288 223.245 206.454 223.297 206.637C223.346 206.805 223.381 206.95 223.405 207.069C223.427 207.192 223.43 207.295 223.43 207.38C223.43 207.551 223.397 207.66 223.34 207.755C223.316 207.799 223.294 207.853 223.269 207.88C223.188 207.976 222.981 207.742 222.695 207.306C222.608 207.137 222.51 206.974 222.431 206.803C222.341 206.634 222.251 206.465 222.159 206.296C221.976 205.959 221.835 205.602 221.653 205.259C221.476 204.914 221.318 204.557 221.138 204.211C220.959 203.863 220.782 203.515 220.602 203.164C220.033 202.143 219.505 201.092 218.874 200.102L218.895 200.088L218.893 200.093Z" fill="#272540"/>
<path d="M206.138 217.347C205.887 216.944 205.634 216.541 205.362 216.152C205.101 215.754 204.812 215.376 204.529 214.995C204.325 214.712 204.072 214.475 203.86 214.2C203.672 213.958 203.468 213.732 203.266 213.501C203.065 213.269 202.866 213.038 202.651 212.82C202.439 212.6 202.232 212.371 202.014 212.156L201.345 211.525C201.149 211.334 200.928 211.174 200.716 211.002C200.501 210.836 200.289 210.662 200.063 210.515C199.497 210.112 198.911 209.736 198.413 209.217C198.255 209.059 198.315 209.015 198.533 209.01C198.642 209.01 198.797 209.012 198.977 209.029C199.066 209.037 199.164 209.048 199.265 209.064C199.317 209.072 199.363 209.086 199.42 209.091C199.467 209.113 199.513 209.132 199.559 209.157C199.886 209.328 200.196 209.521 200.509 209.717C200.817 209.922 201.1 210.156 201.388 210.387C201.53 210.504 201.674 210.618 201.816 210.738L202.221 211.114C202.491 211.364 202.757 211.623 203 211.903C203.304 212.224 203.612 212.551 203.922 212.88C204.077 213.046 204.238 213.204 204.39 213.373C204.537 213.544 204.687 213.716 204.834 213.887C205.161 214.26 205.446 214.666 205.749 215.055C206.034 215.458 206.323 215.861 206.595 216.272L207.088 217.036L207.559 217.812C207.801 218.201 208.013 218.61 208.244 219.004C208.465 219.404 208.685 219.804 208.903 220.202C209.072 220.512 209.252 220.812 209.434 221.111C209.614 221.41 209.782 221.715 209.951 222.02C210.027 222.153 210.106 222.284 210.171 222.423C210.416 222.943 210.416 223.144 210.259 223.351C210.22 223.4 210.188 223.454 210.147 223.49C210.008 223.612 209.771 223.465 209.521 223.125C209.17 222.611 208.83 222.074 208.514 221.522C208.356 221.244 208.201 220.964 208.048 220.681C207.893 220.401 207.735 220.117 207.58 219.834C207.352 219.413 207.104 219.002 206.873 218.582C206.62 218.177 206.385 217.755 206.119 217.358L206.138 217.344V217.347Z" fill="#272540"/>
<path d="M209.417 205.365C209.659 205.016 209.923 204.681 210.141 204.311L210.478 203.767L210.786 203.201C210.859 203.062 210.93 202.923 210.998 202.782C211.06 202.637 211.123 202.493 211.191 202.352C211.681 201.358 212.103 200.321 212.479 199.265C212.653 198.8 212.772 198.312 212.906 197.836C212.982 197.529 213.075 197.224 213.164 196.919C213.252 196.611 213.347 196.309 213.483 196.012C213.565 195.827 213.592 195.86 213.63 196.042C213.652 196.157 213.679 196.285 213.703 196.418C213.725 196.57 213.728 196.747 213.709 196.932C213.665 197.259 213.624 197.588 213.57 197.912C213.499 198.233 213.412 198.552 213.33 198.87C213.151 199.505 212.958 200.139 212.694 200.754C212.383 201.489 212.111 202.27 211.768 203.013C211.575 203.419 211.365 203.816 211.15 204.211C210.916 204.594 210.707 204.994 210.443 205.362C210.285 205.591 210.138 205.825 209.969 206.045L209.46 206.704C209.196 207.03 208.905 207.335 208.627 207.648C208.32 207.934 208.034 208.244 207.724 208.519C207.479 208.732 207.247 208.955 207.01 209.175L206.251 209.774C206.139 209.867 206.025 209.943 205.9 210.016C205.843 210.049 205.788 210.079 205.739 210.106C205.688 210.128 205.639 210.144 205.595 210.16C205.505 210.19 205.432 210.209 205.364 210.218C205.233 210.234 205.141 210.209 205.048 210.152C205.004 210.125 204.958 210.106 204.926 210.076C204.822 209.981 204.945 209.763 205.209 209.485C206.044 208.761 206.923 208.078 207.732 207.275C208.047 206.995 208.311 206.663 208.603 206.355C208.75 206.2 208.869 206.026 209.006 205.86C209.133 205.691 209.278 205.531 209.395 205.354L209.414 205.365H209.417Z" fill="#272540"/>
<path d="M204.943 206.856C204.905 206.758 204.867 206.657 204.831 206.559C204.818 206.524 204.791 206.497 204.78 206.461C204.742 206.331 204.723 206.189 204.684 206.064C204.668 206.007 204.644 205.955 204.616 205.906C204.581 205.841 204.535 205.784 204.543 205.696C204.543 205.645 204.856 205.56 204.913 205.62C205.006 205.732 205.087 205.849 205.117 205.996C205.134 206.086 205.213 206.143 205.248 206.222C205.289 206.309 205.332 206.396 205.376 206.483C205.403 206.538 205.43 206.592 205.46 206.644C205.506 206.72 205.547 206.804 205.604 206.875C205.651 206.927 205.721 206.959 205.77 207.008C205.781 207.019 205.795 207.027 205.806 207.038C205.839 207.085 205.822 207.123 205.738 207.21L205.681 207.27C205.615 207.332 205.539 207.365 205.479 207.357C205.395 207.343 205.31 207.321 205.248 207.283C205.188 207.242 205.136 207.193 205.09 207.139C205.025 207.057 204.984 206.957 204.932 206.864L204.943 206.856Z" fill="#272540"/>
<path d="M207.278 202.986C207.267 202.932 207.256 202.88 207.242 202.825C207.237 202.806 207.226 202.79 207.221 202.771C207.204 202.703 207.193 202.632 207.172 202.567C207.163 202.537 207.147 202.512 207.133 202.485C207.114 202.452 207.084 202.423 207.09 202.379C207.09 202.352 207.267 202.292 207.297 202.327C207.343 202.39 207.381 202.458 207.395 202.54C207.403 202.589 207.438 202.624 207.46 202.668C207.482 202.717 207.504 202.765 207.523 202.814C207.536 202.844 207.544 202.877 207.555 202.907C207.572 202.953 207.585 203.002 207.607 203.046C207.626 203.079 207.656 203.106 207.678 203.136C207.683 203.141 207.689 203.147 207.694 203.155C207.71 203.182 207.7 203.198 207.653 203.231L207.621 203.253C207.583 203.274 207.544 203.283 207.52 203.269C207.446 203.231 207.397 203.179 207.354 203.119C207.324 203.076 207.294 203.032 207.27 202.983H207.275L207.278 202.986Z" fill="#272540"/>
<path d="M209.076 198.331C209.054 198.257 209.051 198.178 209.038 198.102C209.032 198.075 209.016 198.053 209.013 198.026C209.002 197.928 208.997 197.827 208.983 197.734C208.978 197.694 208.961 197.656 208.945 197.617C208.923 197.571 208.888 197.528 208.907 197.465C208.915 197.427 209.198 197.367 209.234 197.413C209.291 197.498 209.334 197.587 209.34 197.696C209.34 197.762 209.392 197.811 209.416 197.865C209.443 197.928 209.47 197.99 209.492 198.056C209.506 198.096 209.517 198.137 209.533 198.178C209.558 198.238 209.577 198.301 209.617 198.352C209.65 198.39 209.707 198.412 209.74 198.448C209.748 198.456 209.759 198.461 209.767 198.469C209.789 198.502 209.767 198.532 209.672 198.605L209.607 198.654C209.533 198.709 209.457 198.736 209.411 198.728C209.345 198.714 209.283 198.698 209.242 198.665C209.204 198.63 209.177 198.589 209.152 198.543C209.117 198.478 209.092 198.404 209.065 198.336L209.076 198.331Z" fill="#272540"/>
<rect x="0.78859" y="0.453141" width="282.76" height="329.887" rx="4.98455" stroke="#808080" stroke-width="0.906282"/>
</svg>
