<svg width="649" height="269" viewBox="0 0 649 269" fill="none" xmlns="http://www.w3.org/2000/svg">
<rect x="0.721875" y="88.677" width="91.6461" height="91.6461" stroke="#808080" stroke-width="1.1"/>
<rect x="8.42188" y="96.371" width="76.2579" height="76.2579" fill="#272540"/>
<path d="M52.6002 138.907L58.9279 148.168H58.9982L59.8968 149.778H47.4162L41.1724 138.907H52.6002Z" fill="#FBF8F7"/>
<path d="M59.8935 149.78L66.1269 138.909L53.6497 117.162H41.1724L59.8935 149.78Z" fill="#FBF8F7"/>
<path d="M34.9339 128.03H47.4112L34.9391 149.777L28.6953 138.906L34.9339 128.03Z" fill="#FBF8F7"/>
<path d="M338.43 90.5017L325.181 92.754L320.359 93.7079L303.241 96.7551L295.689 98.2655C292.466 99.0843 289.176 99.6164 285.859 99.8553C284.746 99.8553 284.958 99.2459 285.859 98.5305C287.02 97.5931 288.394 96.9561 289.86 96.6756C296.352 95.3243 302.923 94.0259 309.601 92.9925C313.575 92.383 317.55 91.4026 321.737 90.6342L334.985 88.1964L343.253 86.7655L355.812 84.7782C359.045 84.3013 362.172 83.5858 365.431 83.1884L367.551 82.8704C370.201 82.6584 371.128 82.8704 371.711 83.6653C371.861 83.8379 371.994 84.0242 372.109 84.2218C372.347 84.8577 371.287 85.4407 369.459 85.6791L351.891 88.3289L338.642 90.5282L338.43 90.5017Z" fill="#272540"/>
<path d="M222.919 139.466C228.06 142.08 233.227 144.651 238.42 147.177L244.17 149.827L264.282 159.498C267.25 160.929 270.297 162.307 273.265 163.658C277.211 165.259 280.984 167.256 284.526 169.62C285.639 170.389 285.162 170.733 283.917 170.68C283.113 170.626 282.315 170.502 281.532 170.309C280.453 170.113 279.403 169.784 278.405 169.329C270.668 165.805 262.692 162.598 254.981 158.73C250.344 156.424 245.336 154.384 240.514 152.211C235.214 149.774 229.915 147.292 224.615 144.766L214.97 139.916C210.094 137.532 205.245 134.961 200.423 132.524C196.713 130.563 192.924 128.867 189.241 126.88C188.401 126.5 187.587 126.066 186.803 125.581C183.888 123.7 183.173 122.799 183.146 121.554C183.107 121.272 183.107 120.987 183.146 120.706C183.146 119.937 184.869 120.07 187.121 121.103C193.772 124.203 200.37 127.966 207.445 131.464C212.585 134.113 217.752 136.763 222.972 139.413L222.919 139.466Z" fill="#272540"/>
<path d="M283.895 122.827L283.126 130.777C283.126 131.757 283.126 132.737 282.967 133.744L282.013 144.131C282.013 145.668 281.854 147.205 281.828 148.742C281.89 150.708 281.792 152.675 281.536 154.624C281.351 155.843 278.886 154.28 278.754 151.975C278.595 147.939 278.782 143.896 279.31 139.892C279.655 137.481 279.575 134.963 279.708 132.472L280.238 124.311L280.609 119.436C280.768 116.786 281.006 114.348 281.059 111.831C281.059 109.87 281.059 107.936 281.059 106.001C281.059 105.577 281.059 105.153 281.059 104.703C281.053 104.125 281.152 103.55 281.351 103.007C281.438 102.838 281.565 102.692 281.722 102.583C281.785 102.453 281.878 102.34 281.993 102.253C282.108 102.166 282.242 102.106 282.384 102.08C282.469 102.061 282.558 102.068 282.639 102.101C282.719 102.135 282.788 102.192 282.835 102.265C282.676 101.947 282.835 102.504 282.835 102.265C282.889 102.444 282.97 102.613 283.073 102.769C283.138 102.865 283.234 102.936 283.345 102.97C283.456 103.004 283.575 102.998 283.683 102.954C283.895 102.716 283.948 102.954 284.027 103.193C284.117 103.441 284.179 103.699 284.212 103.961C284.635 107.54 284.75 111.148 284.557 114.746C284.557 117.395 284.292 120.178 284.106 122.907L283.895 122.827Z" fill="#272540"/>
<path d="M232.016 105.977C232.016 108.467 231.963 110.958 231.857 113.449V116.099L231.698 125.77C231.698 127.201 231.698 128.632 231.698 130.063C231.895 131.928 231.815 133.812 231.46 135.654C231.328 136.237 230.665 136.051 230.082 135.495C229.728 135.201 229.437 134.838 229.227 134.428C229.018 134.018 228.894 133.569 228.863 133.11C228.863 129.506 228.625 125.797 228.863 122.034C229.022 119.808 228.863 117.476 228.731 115.171C228.598 112.866 228.731 110.11 228.731 107.593V102.929L228.969 95.8544C228.969 94.0261 228.969 92.2242 228.969 90.3959C228.943 89.9989 228.943 89.6006 228.969 89.2035C229.128 87.7196 229.393 87.2692 230.135 87.0572L230.639 86.8982C231.195 86.8982 231.593 87.4812 231.698 88.5676C231.965 91.8372 232.045 95.1194 231.937 98.3982L231.804 105.897L232.016 105.977Z" fill="#272540"/>
<path d="M301.177 18.9887C303.005 18.4299 304.863 17.9699 306.741 17.6108C307.43 17.4518 308.066 17.1869 308.755 17.0809C311.166 16.6834 313.63 16.4979 316.042 16.2065C317.128 16.074 318.188 15.862 319.248 15.703C320.624 15.4864 322.016 15.3889 323.408 15.4115C323.779 15.4115 323.859 15.4115 323.408 15.4115C323.037 15.4115 322.534 16.127 321.845 16.5509C319.496 18.1535 316.86 19.2872 314.081 19.8896C312.438 20.1811 310.848 20.923 309.179 21.347C307.51 21.7709 305.549 22.2479 303.72 22.6719C302.607 22.9368 301.468 23.2018 300.408 23.5198C299.739 23.6583 299.101 23.9188 298.527 24.2882C298.05 24.7977 297.752 25.449 297.679 26.1431C297.467 27.3619 297.679 28.7928 297.493 30.0382V30.9391C297.429 31.5323 297.277 32.1127 297.043 32.6615C297.043 32.6615 297.043 32.794 297.043 32.8205C297.015 32.4263 296.916 32.0404 296.751 31.6811C296.116 29.3228 294.102 27.1765 295.241 23.2548C295.53 22.4664 296.002 21.7581 296.619 21.188C297.141 20.7145 297.73 20.3215 298.368 20.0221C299.29 19.5716 300.236 19.1735 301.203 18.8297L301.177 18.9887Z" fill="#272540"/>
<path d="M276.506 53.9928H276.294H275.525L273.67 53.8603C273.185 53.8886 272.698 53.8886 272.213 53.8603C270.438 53.8603 268.53 53.3569 266.648 53.2244C265.8 53.2244 264.979 53.2244 264.158 53.2244C263.007 53.2786 261.857 53.1169 260.766 52.7475C260.448 52.5885 260.501 52.7475 260.766 52.5885C261.031 52.4295 261.428 51.767 261.905 51.3166C262.606 50.4371 263.476 49.7072 264.463 49.1701C265.451 48.633 266.536 48.2997 267.655 48.1899C268.96 47.9805 270.251 47.6974 271.524 47.3419C273.125 47.1321 274.746 47.1321 276.347 47.3419C277.791 47.4848 279.137 48.1433 280.136 49.1968C281.146 50.5773 281.719 52.2299 281.779 53.9398C281.992 54.9585 282.063 56.0018 281.991 57.0401C281.991 57.2785 281.991 57.4905 281.991 57.729C281.991 58.5504 281.646 58.9214 281.673 59.1069C281.443 58.849 281.185 58.6179 280.904 58.4179C280.189 57.6495 279.341 56.8016 278.546 56.0332C277.751 55.2647 277.141 54.5493 276.691 54.0723C276.552 53.9199 276.38 53.802 276.188 53.7279H276.029C276.029 53.7279 276.029 53.7279 276.161 53.7279C276.33 53.6074 276.481 53.4648 276.612 53.3039C276.677 53.2331 276.73 53.1527 276.77 53.0654C276.77 53.2509 277.3 51.4491 277.062 52.2175V52.3765L276.876 52.9064C276.778 53.2806 276.707 53.6614 276.664 54.0458L276.506 53.9928Z" fill="#272540"/>
<path d="M194.684 198.03C202.475 202.932 210.292 207.808 218.188 212.577C221.05 214.326 224.044 215.89 226.906 217.639L257.245 236.187C261.75 238.837 266.36 241.486 270.918 244.136C276.774 247.395 282.603 250.787 288.141 254.735C289.864 255.954 289.228 256.484 287.241 256.378C284.179 256.088 281.193 255.263 278.417 253.94C272.163 251.052 266.175 247.766 260.187 244.401C254.198 241.036 248.263 237.591 242.38 233.802C235.358 229.456 227.753 225.455 220.44 221.189C212.42 216.49 204.471 211.73 196.592 206.907C191.69 203.939 186.815 200.945 181.939 197.871C180.111 196.732 178.282 195.54 176.454 194.321C175.527 193.738 174.626 193.102 173.804 192.466C173.301 192.068 172.532 191.618 172.002 191.141L171.552 190.77C171.487 190.588 171.434 190.402 171.393 190.213C171.271 189.849 171.174 189.478 171.102 189.101C170.866 187.874 170.698 186.636 170.598 185.391L170.333 182.105L169.856 175.613C169.353 168.936 168.558 162.365 168.187 155.793C168.187 154.336 167.975 152.905 167.922 151.421C167.781 149.475 167.933 147.519 168.372 145.618C168.669 144.608 169.226 143.694 169.989 142.968C170.226 142.685 170.493 142.428 170.784 142.2C171.208 141.935 171.579 142.359 172.082 143.339C172.811 144.73 173.295 146.236 173.513 147.791C174.414 153.647 175.156 159.662 175.739 165.756C176.322 171.851 176.64 178.078 177.223 184.119L177.514 186.769C179.236 188.014 181.277 189.233 183.158 190.478L194.923 197.792L194.684 198.03Z" fill="#272540"/>
<path d="M290.2 219.302V228.523C290.2 229.663 290.359 230.776 290.359 231.888L290.2 243.812C290.2 245.588 290.2 247.337 290.412 249.112C290.782 251.393 290.782 253.72 290.412 256.001C290.253 256.743 289.193 256.531 288.159 256.001C287.604 255.713 287.118 255.308 286.734 254.814C286.35 254.32 286.077 253.749 285.934 253.14C285.393 248.621 285.224 244.066 285.43 239.52C285.487 236.698 285.372 233.875 285.086 231.067L284.847 221.74V215.99C284.847 213.102 284.847 210.16 284.847 207.299C284.847 205.046 284.37 202.847 284.344 200.568C284.344 200.065 284.344 199.588 284.344 199.084C284.344 197.203 284.9 196.435 286.066 196.435C286.325 196.356 286.592 196.303 286.861 196.276C287.762 196.276 288.451 197.044 288.689 198.29C289.113 200.171 289.564 202.132 289.829 204.145C290.094 206.159 290.226 208.2 290.385 210.24L290.65 214.851V219.488L290.2 219.302Z" fill="#272540"/>
<path d="M456.317 219.674L416.571 229.61C411.748 230.803 406.979 232.26 402.156 233.32L350.963 245.244L328.308 250.729C318.738 253.348 308.999 255.304 299.16 256.585C295.954 256.77 296.51 255.816 298.763 254.385C302.579 252.106 306.727 250.434 311.058 249.43C330.586 244.502 350.195 239.706 370.094 235.307C381.992 232.657 394.181 229.186 406.263 226.059L446.01 215.884C454.198 213.765 462.359 211.645 470.467 209.392L475.369 207.988L476.747 207.591C476.906 207.591 477.33 207.591 477.251 207.246V206.557C477.251 197.416 477.251 188.274 477.251 179.212C477.251 169.328 476.853 159.656 476.933 149.852C476.933 147.68 476.933 145.56 476.933 143.387C477.357 135.438 478.178 132.788 480.033 131.172C480.41 130.788 480.838 130.458 481.305 130.191C482.683 129.608 483.292 132.841 483.345 138.697C483.583 155.973 483.636 174.31 483.636 192.725C483.636 198.025 483.636 203.404 483.636 208.862L483.186 210.214L482.948 210.876V211.194V211.38C483.424 211.724 482.285 210.903 482.391 211.009L481.676 212.122C481.49 212.546 480.881 212.705 480.51 212.996C479.536 213.407 478.536 213.752 477.516 214.03L475.873 214.506L469.407 216.282L456.503 219.753L456.317 219.674Z" fill="#272540"/>
<path d="M403.53 144.343L373.667 150.782L362.75 153.432L324.435 161.885C318.791 163.157 313.094 164.534 307.529 165.992C300.322 167.714 293.141 169.675 285.828 170.894C283.576 171.318 283.761 170.894 285.51 169.993C286.358 169.463 287.63 168.748 289.166 167.979C290.851 167.041 292.626 166.277 294.466 165.7L305.33 162.335C308.96 161.249 312.643 160.295 316.3 159.341C323.649 157.38 331.05 155.614 338.505 154.041C347.461 152.16 356.603 149.616 365.692 147.443L395.687 140.448L414.235 136.182C423.562 134.036 432.969 131.969 442.19 129.717C449.371 127.994 456.34 125.98 463.388 124.152C464.952 123.728 466.462 123.278 468.052 122.907C470.135 122.362 472.286 122.121 474.438 122.191C475.524 122.189 476.589 122.492 477.511 123.066C477.868 123.264 478.205 123.494 478.518 123.755C479.26 124.497 477.061 125.927 472.927 127.597C460.474 131.571 447.119 134.698 433.658 137.745L403.583 144.476L403.53 144.343Z" fill="#272540"/>
<path d="M215.903 138.175C221.203 140.913 226.6 143.562 232.094 146.124L238.082 148.774L259.095 158.816C262.221 160.3 265.375 161.704 268.501 163.109C272.649 164.743 276.604 166.832 280.293 169.336C281.432 170.157 280.876 170.581 279.524 170.608C278.636 170.598 277.75 170.519 276.874 170.369C275.732 170.22 274.616 169.908 273.562 169.442C265.613 165.838 257.134 162.579 249.078 158.445C244.256 156.007 238.983 153.994 233.948 151.715C228.41 149.224 222.872 146.654 217.387 144.031L207.239 139.128C202.151 136.638 197.09 133.829 192.056 131.391C188.161 129.351 184.106 127.629 180.344 125.482C179.496 125.032 178.621 124.608 177.694 124.078C174.7 121.985 174.011 120.925 174.143 119.52C174.114 119.203 174.114 118.884 174.143 118.566C174.408 117.665 176.131 117.798 178.409 118.911C185.246 122.196 192.215 126.092 199.448 129.748C204.748 132.398 210.207 135.286 215.639 137.963L215.903 138.175Z" fill="#272540"/>
<path d="M444.639 98.1875C444.639 100.837 444.639 103.646 444.639 106.402C444.639 107.382 444.851 108.363 444.878 109.369C444.878 112.92 444.878 116.444 444.878 119.969C444.894 121.536 444.991 123.101 445.169 124.659C445.5 126.659 445.5 128.7 445.169 130.7C445.169 131.336 444.216 131.283 443.288 130.7C442.226 130.2 441.4 129.307 440.983 128.209C440.434 126.256 440.105 124.247 440.002 122.221C439.83 120.184 439.83 118.137 440.002 116.1C440.018 113.591 439.849 111.085 439.499 108.601L438.969 100.44L438.784 95.3257C438.784 92.676 438.784 90.1587 438.492 87.5885C438.333 85.6011 437.83 83.6668 437.591 81.6795C437.566 81.2471 437.566 80.8135 437.591 80.3811C437.558 80.0286 437.558 79.6737 437.591 79.3212C437.713 79.0677 437.874 78.8352 438.068 78.6323C438.403 78.2643 438.834 77.998 439.313 77.8638L439.976 77.6253C440.665 77.4664 441.433 78.1288 442.255 79.2682C442.573 80.1426 442.917 80.9905 443.209 81.918C443.5 82.8454 443.527 83.6668 443.686 84.5677C443.951 86.3431 444.11 88.1714 444.269 89.8672C444.48 92.517 444.639 95.3257 444.745 98.055L444.639 98.1875Z" fill="#272540"/>
<path d="M356.286 92.0977C345.687 93.9525 335.088 95.7808 324.489 97.7416L312.989 100.126C306.259 101.478 299.449 102.776 292.904 104.499L290.44 105.108L288.347 105.797L287.843 105.956H287.578C287.578 105.956 287.578 106.115 287.578 106.194V106.724V107.652L287.048 117.986C286.757 124.107 286.598 130.281 286.492 136.349C286.492 144.298 286.492 152.035 285.776 159.826C285.432 164.675 281.298 158.474 281.219 149.412C281.219 141.463 281.219 133.513 281.51 125.432C281.51 121.431 281.802 117.482 282.014 113.428L282.385 107.387V106.512C282.421 106.083 282.529 105.662 282.703 105.267C282.894 104.506 283.17 103.768 283.524 103.068L283.259 102.75L283.471 102.564L283.922 102.193C284.217 101.903 284.582 101.694 284.981 101.584L287.181 100.842C292.056 99.411 296.826 98.1921 301.675 97.1322C306.524 96.0723 311.373 94.8269 316.196 93.8465C326.795 91.6472 337.394 89.6599 348.152 87.6726L367.813 84.0689C377.75 82.214 387.739 80.4387 397.517 78.3454C405.122 76.729 412.514 74.7682 419.934 72.8869L424.809 71.562C430.93 70.0781 432.759 69.7867 434.587 70.8466C434.994 71.0274 435.377 71.2589 435.726 71.5355C436.627 72.4099 434.401 73.9998 429.923 75.5896C416.25 79.971 402.322 83.5107 388.216 86.1887C377.617 88.335 367.018 90.3488 356.233 92.3626L356.286 92.0977Z" fill="#272540"/>
<path d="M306.956 52.1837L334.196 47.6791C337.508 47.1492 340.794 46.4602 344.106 45.9568C349.988 45.0823 355.871 44.2874 361.806 43.625C364.774 43.36 367.742 43.0685 370.815 43.0155H373.147H374.631C375.186 43.0806 375.735 43.1869 376.274 43.3335C377.678 43.201 377.731 44.6584 378.155 45.6388C378.314 46.1423 378.606 46.7517 378.685 47.1492L378.95 48.2886C380.006 53.5196 380.477 58.8519 380.354 64.1871C380.354 70.944 380.037 77.5949 380.01 84.1663C380.01 86.2331 379.215 86.0476 378.261 84.3518C376.905 81.6465 376.137 78.6843 376.009 75.6606C375.77 68.7447 375.717 61.9878 375.108 55.5224C374.949 53.9325 374.684 52.3427 374.393 50.8058C374.234 50.0374 374.022 49.269 373.836 48.527C373.836 48.3416 373.836 48.3151 373.836 48.1826H371.186C369.57 48.1826 367.901 48.3416 366.205 48.474C358.256 49.0835 349.75 50.8323 341.483 52.2632L314.19 57.1653L297.364 60.2125C288.885 61.7758 280.326 63.2332 271.926 64.8496C265.355 66.0949 259.022 67.7113 252.504 68.9037C251.073 69.1952 249.668 69.4866 248.211 69.6986C246.302 70.0814 244.351 70.215 242.408 70.0961C241.402 69.9792 240.467 69.5209 239.758 68.7977C239.427 68.5384 239.133 68.2353 238.884 67.8968C238.274 66.9164 240.315 65.5915 244.183 64.6376C255.524 61.8288 267.634 59.4705 279.849 57.1653C288.567 55.3899 297.788 53.6146 306.903 52.0247L306.956 52.1837Z" fill="#272540"/>
<path d="M235.565 103.986L235.3 112.81C235.3 113.896 235.3 114.956 235.3 116.042L234.823 127.41C234.823 129.106 234.823 130.801 234.823 132.471C235.068 134.667 234.943 136.888 234.452 139.042C234.266 139.758 233.312 139.493 232.385 138.83C231.887 138.525 231.464 138.112 231.148 137.621C230.831 137.13 230.629 136.574 230.557 135.995C230.386 131.666 230.466 127.331 230.795 123.011C230.937 120.363 230.937 117.71 230.795 115.062V106.159V100.674C230.795 98.0239 230.795 95.1091 230.795 92.3534C230.795 90.2071 230.424 88.1138 230.451 85.9675C230.451 85.4905 230.451 85.0136 230.451 84.5366C230.583 82.7613 230.954 82.2048 232.04 81.8868C232.305 81.8868 232.544 81.8868 232.809 81.7278C233.63 81.7278 234.266 82.4168 234.505 83.6357C234.866 85.52 235.131 87.4214 235.3 89.3327C235.3 91.267 235.485 93.2278 235.512 95.1886C235.512 98.1299 235.512 101.098 235.512 104.039L235.565 103.986Z" fill="#272540"/>
<path d="M214.05 82.5534L213.732 94.4244C213.732 95.8552 213.732 97.2861 213.732 98.7435L213.175 114.006C213.175 116.258 213.175 118.537 213.175 120.789C213.495 123.72 213.406 126.681 212.911 129.587C212.672 130.514 211.586 130.196 210.552 129.348C209.964 128.9 209.477 128.334 209.121 127.686C208.765 127.038 208.548 126.322 208.485 125.586C208.261 119.738 208.341 113.883 208.724 108.044C209.042 104.493 208.724 100.837 208.724 97.2066V85.2562V77.8899C208.724 74.1802 208.724 70.444 208.724 66.7609C208.724 63.8726 208.3 61.0639 208.273 58.2021C208.273 57.5662 208.273 56.9303 208.273 56.2943C208.273 53.936 208.856 53.1411 210.075 52.7701C210.348 52.6541 210.633 52.5653 210.923 52.5052C211.851 52.5052 212.566 53.4061 212.805 55.1549C213.175 57.6457 213.626 60.1895 213.758 62.8127C213.891 65.436 213.997 68.1122 214.05 70.762C214.05 74.7102 214.05 78.7113 214.05 82.6859V82.5534Z" fill="#272540"/>
<path d="M286.314 35.4141L268.322 38.4083L261.804 39.7067L238.645 43.7078C235.227 44.3173 231.809 45.0592 228.443 45.8276C224.153 46.9626 219.8 47.8474 215.407 48.4774C212.757 48.7953 215.407 44.6087 220.309 43.3898C229.079 41.27 237.93 39.3622 246.939 37.9578C252.238 37.1629 257.856 35.7585 263.341 34.6986L281.439 31.3069L292.594 29.2931C298.238 28.2862 303.909 27.3853 309.473 26.2724C313.819 25.4245 318.005 24.2851 322.298 23.3311C323.225 23.1192 324.153 22.8542 325.107 22.6687C328.631 22.0063 329.823 22.1918 330.804 23.5166C331.05 23.8064 331.272 24.1167 331.466 24.444C331.97 25.5305 330.671 26.6698 328.154 27.4118C320.354 29.5068 312.446 31.1785 304.465 32.4198L286.341 35.5465L286.314 35.4141Z" fill="#272540"/>
<path d="M301.119 15.9912L307.981 14.9313C308.829 14.7988 309.624 14.5603 310.472 14.4544L319.269 13.4474C320.594 13.2885 321.919 13.0235 323.165 12.838C324.848 12.4443 326.581 12.3103 328.305 12.4405C328.888 12.4405 328.756 13.1825 328.305 13.8714C327.887 14.662 327.187 15.267 326.344 15.5673C323.107 16.4639 319.786 17.0234 316.434 17.2366C314.377 17.4907 312.341 17.8891 310.34 18.429L303.636 19.8069C302.258 20.0983 300.986 20.4163 299.582 20.7873L297.7 21.3437C297.478 21.404 297.264 21.4931 297.064 21.6087C296.852 21.7677 297.064 22.0327 296.905 22.2446V23.4105C297.008 25.0482 297.22 26.677 297.541 28.2861C297.626 28.6171 297.688 28.9535 297.727 29.293C297.727 29.929 297.727 30.2999 297.409 30.5914C296.978 30.8734 296.515 31.1046 296.031 31.2803L295.342 31.6248C295.155 31.7268 294.946 31.7803 294.733 31.7803C294.52 31.7803 294.31 31.7268 294.123 31.6248C293.646 31.3863 292.984 30.9624 292.878 30.3794C292.348 29.0012 292.079 27.5368 292.083 26.0603C292.083 25.3714 292.083 24.6559 292.083 23.9405V22.9071V22.1387C292.056 21.7859 292.056 21.4315 292.083 21.0788C292.117 20.6143 292.224 20.1582 292.401 19.7274C292.957 19.4624 292.772 18.7205 293.302 18.482C293.726 18.1391 294.189 17.8457 294.68 17.6076C295.236 17.4221 295.766 17.1836 296.323 17.0511L297.329 16.7596C298.522 16.4417 299.688 16.2032 300.854 15.9647L301.119 15.9912Z" fill="#272540"/>
<path d="M279.345 50.0893C277.093 50.2748 274.788 50.5663 272.483 50.8842C271.635 50.8842 270.813 51.2552 269.833 51.3877C266.865 51.7852 263.871 52.2091 260.903 52.7391C259.578 52.9775 258.253 53.322 257.008 53.6135C255.352 54.1105 253.645 54.4216 251.92 54.5409C251.364 54.5409 251.337 53.8785 251.629 53.1365C251.79 52.7017 252.038 52.3038 252.356 51.9669C252.675 51.6299 253.058 51.3608 253.484 51.1757C256.756 49.9663 260.164 49.1653 263.632 48.7909C265.752 48.5524 267.819 47.837 269.939 47.3866C272.059 46.9361 274.602 46.4856 276.961 46.1147L279.16 45.7967C280.125 45.649 281.099 45.5693 282.075 45.5582C282.71 45.4861 283.35 45.6461 283.876 46.0087C284.459 46.3002 284.486 47.0156 284.698 47.625C285.042 49.6124 285.228 50.5398 285.493 51.8117C285.89 53.481 286.526 55.0444 287.056 56.7137C287.212 57.0709 287.327 57.4441 287.401 57.8266C287.541 58.3639 287.465 58.9347 287.189 59.4165C286.795 59.8145 286.3 60.0984 285.758 60.2379C285.519 60.3262 285.27 60.3798 285.016 60.3969C284.611 60.4078 284.21 60.3167 283.85 60.1319C283.426 59.9464 282.79 59.6814 282.631 59.231C281.487 56.4364 280.807 53.4739 280.617 50.4603H279.398L279.345 50.0893Z" fill="#272540"/>
<path d="M404.891 207.28C399.591 208.446 394.53 209.479 389.337 210.486C387.455 210.83 385.6 211.36 383.693 211.678C380.354 212.261 376.989 212.791 373.623 213.242C371.857 213.489 370.161 213.701 368.536 213.878L365.886 214.09H364.561C364.19 214.09 363.342 214.09 362.786 214.09C362.247 214.07 361.712 213.981 361.196 213.825C361.065 213.847 360.93 213.847 360.799 213.825L360.56 213.533L360.03 212.924C359.401 212.015 358.919 211.014 358.599 209.956C358.147 208.36 357.907 206.712 357.884 205.054C357.816 203.092 357.869 201.127 358.043 199.171C358.228 197.29 358.546 195.462 358.705 193.66C358.705 192.574 359.633 192.521 360.64 193.501C361.965 194.962 362.75 196.832 362.865 198.8C363.024 200.788 362.865 202.669 362.865 204.418C362.894 205.245 362.983 206.068 363.13 206.882C363.179 207.25 363.259 207.614 363.369 207.969C363.355 208.127 363.355 208.287 363.369 208.446C363.369 208.446 363.369 208.605 363.369 208.658H363.793H364.455C366.31 208.472 368.218 208.26 370.152 208.128C374.871 207.512 379.551 206.627 384.17 205.478C389.469 204.418 394.477 203.358 399.591 202.166C402.744 201.45 405.898 200.682 408.998 199.834C413.676 198.659 418.249 197.099 422.671 195.17L423.783 194.561L424.446 194.084C424.643 193.95 424.795 193.759 424.88 193.536C424.965 193.313 424.98 193.07 424.923 192.838C424.923 192.547 424.79 191.302 424.684 190.454L424.366 187.804C424.366 187.036 424.048 186.294 423.916 185.552C423.518 182.743 423.916 182.16 425.161 180.968L425.983 180.093C426.804 179.086 428.633 180.093 429.825 182.743C430.486 184.49 430.914 186.316 431.097 188.175C431.097 189.102 431.309 190.003 431.362 190.825C431.431 191.998 431.431 193.175 431.362 194.349C431.32 195.188 431.094 196.007 430.701 196.749C430.307 197.491 429.755 198.137 429.083 198.641C428.408 199.184 427.69 199.672 426.937 200.099L425.506 200.814C423.783 201.64 422.013 202.365 420.206 202.987C414.907 204.762 409.766 206.008 404.599 207.333L404.891 207.28Z" fill="#272540"/>
<path d="M171.786 177.788C171.786 177.788 158.246 173.787 150.005 180.253C142.692 185.976 172.475 215.759 233.472 226.199L173.084 189.553L171.786 177.788Z" fill="#272540"/>
<path d="M396.247 141.617L369.564 147.685L359.892 150.069L325.657 158.072C320.57 159.291 315.509 160.721 310.527 161.94C304.088 163.53 297.702 165.358 291.157 166.551C289.143 166.948 289.329 166.551 290.866 165.756C291.661 165.305 292.774 164.67 294.125 163.954C295.661 163.116 297.277 162.433 298.948 161.914C305.386 159.767 311.878 157.754 318.45 156.031C325.021 154.309 331.699 152.56 338.27 151.129C346.219 149.354 354.434 147.022 362.542 144.982L389.251 138.437L405.786 134.489C414.106 132.475 422.506 130.567 430.747 128.5C437.159 126.884 443.386 125.056 449.719 123.36C451.097 122.962 452.369 122.565 453.853 122.22C455.71 121.72 457.625 121.461 459.549 121.452C460.48 121.454 461.394 121.7 462.199 122.167C462.523 122.313 462.826 122.5 463.1 122.724C463.789 123.36 461.802 124.632 458.119 126.142C446.99 129.772 435.039 132.687 423.009 135.496L396.3 141.723L396.247 141.617Z" fill="#272540"/>
<path d="M336.787 64.6116L341.08 64.0817C341.61 64.0817 342.113 63.8697 342.616 63.8167L348.154 63.1807C348.964 63.0891 349.769 62.9565 350.566 62.7833C351.572 62.4808 352.615 62.3203 353.666 62.3063C354.328 62.3063 353.904 64.3996 352.765 64.7706C350.704 65.383 348.579 65.7564 346.432 65.8835C345.129 66.0049 343.837 66.2174 342.563 66.5194L338.271 67.2084L335.621 67.6323C334.137 67.8708 332.971 67.8178 331.567 68.0828C330.555 68.2915 329.555 68.5569 328.573 68.8777L327.91 69.0632C327.089 69.2487 326.797 69.0632 326.479 68.3478C326.479 68.1888 326.479 68.0298 326.294 67.8443C326.215 67.5701 326.243 67.2764 326.37 67.0213C326.498 66.7662 326.716 66.5682 326.983 66.4664C328.777 65.7266 330.669 65.2534 332.6 65.0621C333.316 65.0621 334.19 65.0621 334.667 64.8766L336.761 64.5586L336.787 64.6116Z" fill="#272540"/>
<path d="M327.776 80.3017L335.434 79.2418L338.084 78.7119L347.941 77.122C349.399 76.8835 350.856 76.5391 352.287 76.2211C354.104 75.7181 355.954 75.3462 357.825 75.1082C359.017 75.1082 357.984 77.2545 355.89 77.7579C352.167 78.7915 348.378 79.5706 344.549 80.0897C342.244 80.3547 339.886 80.9907 337.554 81.4146L329.843 82.766L325.074 83.5874C322.662 83.9849 320.251 84.3559 317.893 84.8328C316.038 85.2038 314.263 85.7337 312.461 86.1842L311.268 86.4757C309.785 86.7936 309.255 86.6876 308.804 85.9987C308.687 85.843 308.59 85.674 308.513 85.4953C308.248 84.9388 308.778 84.3559 309.864 83.9849C313.148 82.9362 316.505 82.1302 319.907 81.5736L327.617 80.2487L327.776 80.3017Z" fill="#272540"/>
<rect x="540.055" y="61.5896" width="108.353" height="145.821" fill="#FBF8F7" stroke="#808080" stroke-width="0.836458"/>
<path d="M561.342 195.041V187.42H563.607C564.122 187.42 564.568 187.517 564.944 187.712C565.327 187.907 565.622 188.182 565.831 188.537C566.04 188.892 566.144 189.313 566.144 189.8V192.651C566.144 193.131 566.04 193.552 565.831 193.914C565.622 194.269 565.327 194.547 564.944 194.749C564.568 194.944 564.122 195.041 563.607 195.041H561.342ZM562.647 193.841H563.607C563.983 193.841 564.282 193.736 564.505 193.528C564.728 193.312 564.839 193.019 564.839 192.651V189.8C564.839 189.438 564.728 189.153 564.505 188.944C564.282 188.728 563.983 188.62 563.607 188.62H562.647V193.841ZM572.039 195.146C571.552 195.146 571.127 195.055 570.765 194.874C570.411 194.686 570.136 194.425 569.941 194.091C569.753 193.75 569.659 193.35 569.659 192.891V189.571C569.659 189.111 569.753 188.714 569.941 188.38C570.136 188.039 570.411 187.778 570.765 187.597C571.127 187.409 571.552 187.315 572.039 187.315C572.533 187.315 572.958 187.409 573.313 187.597C573.668 187.778 573.939 188.039 574.127 188.38C574.322 188.714 574.42 189.108 574.42 189.56V192.891C574.42 193.35 574.322 193.75 574.127 194.091C573.939 194.425 573.668 194.686 573.313 194.874C572.958 195.055 572.533 195.146 572.039 195.146ZM572.039 193.997C572.394 193.997 572.662 193.903 572.843 193.716C573.024 193.521 573.115 193.246 573.115 192.891V189.571C573.115 189.209 573.024 188.934 572.843 188.746C572.662 188.558 572.394 188.464 572.039 188.464C571.684 188.464 571.416 188.558 571.235 188.746C571.054 188.934 570.964 189.209 570.964 189.571V192.891C570.964 193.246 571.054 193.521 571.235 193.716C571.423 193.903 571.691 193.997 572.039 193.997ZM580.429 195.146C579.942 195.146 579.514 195.055 579.145 194.874C578.783 194.686 578.501 194.425 578.3 194.091C578.105 193.75 578.007 193.35 578.007 192.891V189.571C578.007 189.104 578.105 188.704 578.3 188.37C578.501 188.036 578.783 187.778 579.145 187.597C579.514 187.409 579.942 187.315 580.429 187.315C580.924 187.315 581.348 187.409 581.703 187.597C582.065 187.778 582.347 188.036 582.549 188.37C582.751 188.704 582.852 189.104 582.852 189.571H581.536C581.536 189.209 581.439 188.934 581.244 188.746C581.056 188.558 580.784 188.464 580.429 188.464C580.075 188.464 579.8 188.558 579.605 188.746C579.41 188.934 579.312 189.205 579.312 189.56V192.891C579.312 193.246 579.41 193.521 579.605 193.716C579.8 193.903 580.075 193.997 580.429 193.997C580.784 193.997 581.056 193.903 581.244 193.716C581.439 193.521 581.536 193.246 581.536 192.891H582.852C582.852 193.343 582.751 193.74 582.549 194.081C582.347 194.422 582.065 194.686 581.703 194.874C581.348 195.055 580.924 195.146 580.429 195.146ZM588.757 195.146C588.235 195.146 587.783 195.059 587.4 194.885C587.017 194.711 586.721 194.464 586.512 194.144C586.31 193.816 586.206 193.434 586.199 192.995H587.504C587.504 193.308 587.616 193.555 587.838 193.736C588.068 193.91 588.378 193.997 588.768 193.997C589.143 193.997 589.436 193.91 589.645 193.736C589.86 193.562 589.968 193.322 589.968 193.016C589.968 192.758 589.892 192.536 589.738 192.348C589.592 192.153 589.38 192.021 589.102 191.951L588.225 191.711C587.626 191.558 587.163 191.283 586.836 190.886C586.516 190.489 586.356 190.009 586.356 189.445C586.356 189.014 586.453 188.638 586.648 188.318C586.843 187.997 587.118 187.75 587.473 187.576C587.835 187.402 588.259 187.315 588.747 187.315C589.484 187.315 590.069 187.507 590.501 187.89C590.932 188.265 591.151 188.774 591.158 189.414H589.853C589.853 189.115 589.756 188.881 589.561 188.714C589.366 188.54 589.091 188.453 588.736 188.453C588.395 188.453 588.131 188.533 587.943 188.694C587.755 188.854 587.661 189.08 587.661 189.372C587.661 189.637 587.73 189.863 587.87 190.051C588.016 190.232 588.225 190.361 588.496 190.437L589.404 190.688C590.01 190.841 590.473 191.116 590.793 191.513C591.113 191.902 591.273 192.386 591.273 192.964C591.273 193.395 591.169 193.778 590.96 194.112C590.751 194.439 590.459 194.693 590.083 194.874C589.707 195.055 589.265 195.146 588.757 195.146Z" fill="#272540"/>
<rect x="546.879" y="68.6325" width="93.5667" height="107.162" fill="#FFDEDE" stroke="#808080" stroke-width="0.836458"/>
<path d="M618.137 102.959C617.846 102.711 617.505 102.528 617.137 102.423C616.753 102.289 616.358 102.19 615.957 102.128C615.138 101.991 614.311 101.913 613.481 101.893C611.81 101.853 610.138 101.932 608.477 102.128C608.209 102.175 608.075 100.404 608.37 100.417C610.113 100.405 611.855 100.517 613.582 100.753C614.453 100.869 615.313 101.048 616.158 101.289C616.59 101.41 617.012 101.564 617.419 101.752C617.851 101.94 618.24 102.217 618.559 102.564C618.848 102.926 618.358 103.174 618.137 102.959Z" fill="#272540"/>
<path d="M565.616 129.165L565.241 119.774L565.073 116.346C564.946 112.322 564.858 108.297 564.785 104.272C564.785 102.488 564.684 100.69 564.624 98.9061C564.446 96.6283 564.46 94.3397 564.664 92.0641C564.751 91.3531 564.959 91.447 565.261 92.0641C565.452 92.4657 565.62 92.8777 565.764 93.2984C565.933 93.8723 566.03 94.4648 566.052 95.0625C566.24 99.6976 566.334 104.333 566.327 109.021C566.327 111.819 566.522 114.73 566.636 117.594L567.032 127.039L567.347 132.841C567.508 135.772 567.656 138.723 567.87 141.628C568.045 143.888 568.306 146.102 568.541 148.336C568.601 148.825 568.655 149.302 568.709 149.798C568.829 151.636 568.762 152.226 568.414 152.649C568.34 152.749 568.279 152.877 568.219 152.937C568.045 153.165 567.595 152.407 567.387 151.073C566.716 147.095 566.441 142.876 566.14 138.643C565.925 135.497 565.764 132.331 565.596 129.178L565.616 129.165Z" fill="#272540"/>
<path d="M616.197 135.21C616.868 126.987 617.539 118.763 618.089 110.546C618.183 109.05 618.257 107.548 618.304 106.058C618.304 105.314 618.351 104.563 618.351 103.831C618.351 103.463 618.351 103.1 618.351 102.745C618.351 102.57 618.351 102.383 618.351 102.255C618.362 102.209 618.362 102.161 618.351 102.114L618.283 102.054L618.143 101.973C617.968 101.883 617.786 101.807 617.599 101.745C617.181 101.604 616.753 101.497 616.318 101.423C615.376 101.278 614.426 101.191 613.474 101.162C612.528 101.115 611.576 101.101 610.616 101.115L609.181 101.155C608.47 101.155 607.571 101.249 606.786 101.303L606.954 100.042L607.021 99.4177L607.075 98.8878L607.189 97.4121C607.256 96.4328 607.303 95.4467 607.336 94.4607C607.37 93.4746 607.397 92.4819 607.397 91.5026V90.7714V90.1409C607.403 90.0381 607.403 89.9351 607.397 89.8323C607.397 89.6915 607.249 89.7384 607.155 89.7317H606.941H606.458L605.364 89.7585L603.312 89.8793L599.193 90.1275C594.498 90.3824 589.742 90.597 585.053 90.5836C582.022 90.6077 578.992 90.4576 575.977 90.1342C574.453 89.9606 572.942 89.6804 571.456 89.2957C569.89 88.9388 568.426 88.2274 567.177 87.2163C567.008 87.0632 566.851 86.8973 566.707 86.7199C566.622 86.5844 566.545 86.4432 566.479 86.2973C566.379 86.0625 566.385 85.9418 566.479 85.915C566.573 85.8881 566.727 85.915 566.942 86.0558L567.291 86.2638L567.774 86.4851C568.709 86.9117 569.69 87.2269 570.698 87.4242C571.966 87.6791 573.475 87.9072 575.132 88.1487C577.761 88.5015 580.409 88.7053 583.061 88.7591C585.744 88.8329 588.427 88.8194 591.11 88.7591C593.793 88.6987 596.476 88.5847 599.16 88.4505L603.184 88.2292L605.197 88.1151L606.216 88.0682H606.773H607.692C607.985 88.0687 608.268 88.1705 608.494 88.3564C608.721 88.5422 608.875 88.8007 608.933 89.0878C608.983 89.41 609.017 89.7346 609.033 90.0604V90.6373C609.033 91.3952 609.033 92.1398 609.033 92.8844C609.033 94.1387 608.939 95.3864 608.866 96.6541C608.825 97.2847 608.778 97.9219 608.738 98.5591L608.678 99.2299L608.638 99.5251L609.563 99.4848C610.234 99.4848 610.831 99.4446 611.475 99.4446C612.763 99.4284 614.05 99.4822 615.332 99.6056C615.993 99.6686 616.65 99.7739 617.297 99.9208C617.64 99.9944 617.976 100.093 618.304 100.216C618.699 100.35 619.071 100.547 619.404 100.8C619.509 100.879 619.61 100.964 619.705 101.054L619.846 101.189C619.9 101.229 619.887 101.309 619.907 101.37C619.97 101.616 620.013 101.867 620.034 102.121C620.034 102.47 620.074 102.792 620.081 103.12C620.081 103.791 620.081 104.408 620.081 105.046C619.94 109.231 619.625 113.37 619.33 117.522L618.324 129.958C617.921 135.063 617.512 140.161 617.17 145.259C617.042 147.184 616.915 149.116 616.814 151.048C616.767 152.013 616.721 152.979 616.694 153.939V154.663V155.911C616.694 155.951 616.633 155.971 616.606 155.998L616.191 156.32C616.059 156.421 615.918 156.509 615.768 156.581C615.647 156.642 615.527 156.716 615.406 156.763C613.447 157.561 611.468 157.635 609.516 157.735C607.564 157.836 605.619 157.735 603.694 157.648C600.689 157.487 597.737 157.232 594.793 156.977L590.392 156.535C589.668 156.461 588.917 156.38 588.233 156.353C587.548 156.327 586.79 156.353 586.079 156.407C584.798 156.474 583.557 156.602 582.289 156.776C579.942 157.118 578.432 157.527 577.346 157.762C576.601 157.968 575.831 158.065 575.058 158.05C574.805 158.055 574.552 158.039 574.3 158.004C574.019 157.923 574.3 157.635 575.105 157.199C576.34 156.574 577.641 156.088 578.983 155.75C581.639 155.07 584.364 154.699 587.106 154.643C587.454 154.643 587.776 154.643 588.159 154.643C588.541 154.643 588.897 154.683 589.252 154.71L591.305 154.911L595.39 155.334C598.113 155.609 600.857 155.857 603.6 156.005C606.319 156.192 609.048 156.167 611.763 155.931C612.696 155.845 613.615 155.647 614.5 155.341L614.789 155.226L614.909 155.159L614.99 155.112V154.824V154.026C615.044 151.92 615.164 149.833 615.292 147.747C615.553 143.582 615.862 139.423 616.177 135.271L616.197 135.21Z" fill="#272540"/>
<path d="M619.996 101.404C617.561 96.7089 613.215 91.8927 609.043 88.6595C608.68 88.3778 607.184 89.0821 607.386 89.2364C611.833 92.6519 615.531 96.944 618.252 101.847C618.454 102.243 620.117 101.606 619.996 101.377V101.404Z" fill="#272540"/>
<path d="M578.355 156.761C584.1 155.43 590.06 155.307 595.855 156.398C605.682 158.196 616.133 155.667 616.133 155.667C616.133 155.667 613.671 161.516 596.801 158.478C587.095 156.734 579.441 159.457 577.717 159.457C576.738 159.457 578.355 156.761 578.355 156.761Z" fill="#272540"/>
</svg>
