<svg width="115" height="22" viewBox="0 0 115 22" fill="none" xmlns="http://www.w3.org/2000/svg">
<path d="M15.3423 5.79408C14.8073 5.09722 14.1281 4.56227 13.308 4.18745C12.4863 3.81263 11.638 3.62434 10.7652 3.62434C9.69356 3.62434 8.72571 3.82495 7.85992 4.22617C6.99414 4.62738 6.2533 5.17641 5.6374 5.87327C5.02149 6.57012 4.54461 7.38663 4.20498 8.3228C3.86536 9.26074 3.69642 10.2638 3.69642 11.3354C3.69642 12.3349 3.85656 13.2817 4.17858 14.1739C4.50061 15.066 4.96342 15.8526 5.57053 16.5301C6.17763 17.2094 6.91848 17.7443 7.79305 18.1368C8.66764 18.5292 9.65836 18.7263 10.7652 18.7263C11.8721 18.7263 12.8083 18.5028 13.63 18.0576C14.4501 17.6124 15.1469 16.9859 15.7188 16.1835L17.8868 17.8165C17.7443 18.0136 17.4944 18.2934 17.1372 18.6594C16.78 19.0254 16.3066 19.3914 15.7188 19.7574C15.1293 20.1234 14.4202 20.4455 13.5896 20.7218C12.759 20.9981 11.7999 21.1371 10.7107 21.1371C9.2114 21.1371 7.85992 20.852 6.65452 20.2801C5.4491 19.7082 4.42318 18.9585 3.575 18.0312C2.72681 17.1038 2.07924 16.055 1.63403 14.8848C1.18706 13.7163 0.965332 12.5338 0.965332 11.3372C0.965332 9.87312 1.20641 8.52165 1.68858 7.28104C2.17075 6.04044 2.84471 4.97053 3.7105 4.06779C4.57628 3.16682 5.61628 2.46644 6.83049 1.96669C8.0447 1.46692 9.38208 1.21704 10.8462 1.21704C12.0956 1.21704 13.3221 1.45812 14.5275 1.94029C15.733 2.42245 16.7184 3.16329 17.4856 4.16281L15.344 5.79584L15.3423 5.79408Z" fill="white"/>
<path d="M19.1538 14.3092C19.1538 13.3818 19.328 12.516 19.6764 11.7118C20.0249 10.9077 20.5018 10.2038 21.1089 9.59666C21.716 8.98955 22.4304 8.51266 23.2504 8.16424C24.0705 7.81582 24.9538 7.6416 25.9006 7.6416C26.8473 7.6416 27.7307 7.81582 28.5508 8.16424C29.3707 8.51266 30.0852 8.98955 30.6923 9.59666C31.2994 10.2038 31.7763 10.9094 32.1248 11.7118C32.4732 12.5143 32.6474 13.3818 32.6474 14.3092C32.6474 15.2366 32.4732 16.1076 32.1248 16.9189C31.7763 17.7318 31.2994 18.4358 30.6923 19.034C30.0852 19.6324 29.3707 20.1057 28.5508 20.4523C27.7289 20.8009 26.8456 20.9751 25.9006 20.9751C24.9557 20.9751 24.0705 20.8009 23.2504 20.4523C22.4287 20.1039 21.7142 19.6324 21.1089 19.034C20.5018 18.4358 20.0249 17.7318 19.6764 16.9189C19.328 16.1076 19.1538 15.2366 19.1538 14.3092ZM21.7248 14.3092C21.7248 14.9514 21.8233 15.5445 22.0186 16.09C22.214 16.6355 22.492 17.0984 22.8493 17.482C23.2064 17.8656 23.6429 18.17 24.1619 18.3918C24.6794 18.6153 25.2601 18.7261 25.9023 18.7261C26.5447 18.7261 27.1254 18.6153 27.6427 18.3918C28.1601 18.1683 28.5982 17.8656 28.9555 17.482C29.3127 17.0984 29.5889 16.6338 29.786 16.09C29.9832 15.5462 30.08 14.9514 30.08 14.3092C30.08 13.6669 29.9814 13.0738 29.786 12.5283C29.5889 11.9846 29.3127 11.52 28.9555 11.1364C28.5982 10.7528 28.1618 10.4501 27.6427 10.2266C27.1254 10.0032 26.5447 9.89229 25.9023 9.89229C25.2601 9.89229 24.6794 10.0032 24.1619 10.2266C23.6446 10.4501 23.2064 10.7528 22.8493 11.1364C22.492 11.52 22.2157 11.9846 22.0186 12.5283C21.8216 13.0721 21.7248 13.6669 21.7248 14.3092Z" fill="white"/>
<path d="M34.657 3.41154C34.657 2.92938 34.8312 2.51409 35.1796 2.16742C35.5281 1.819 35.9434 1.64478 36.4255 1.64478C36.9076 1.64478 37.3229 1.819 37.6696 2.16742C38.018 2.51584 38.1923 2.93114 38.1923 3.41154C38.1923 3.89194 38.018 4.309 37.6696 4.65742C37.3212 5.00585 36.9059 5.18007 36.4255 5.18007C35.9451 5.18007 35.5281 5.00585 35.1796 4.65742C34.8312 4.309 34.657 3.8937 34.657 3.41154ZM35.2184 7.96394H37.6273V20.6551H35.2184V7.96394Z" fill="white"/>
<path d="M40.9641 7.96363H43.3732V9.91869H43.426C43.7286 9.24119 44.2566 8.69216 45.0063 8.27158C45.7559 7.85277 46.6216 7.6416 47.6036 7.6416C48.2107 7.6416 48.7949 7.73487 49.358 7.92316C49.9211 8.10969 50.4103 8.40005 50.8309 8.79247C51.2497 9.18488 51.584 9.68993 51.8357 10.3058C52.0856 10.9217 52.2105 11.6485 52.2105 12.4879V20.6547H49.8015V13.1583C49.8015 12.5688 49.7206 12.0656 49.5604 11.645C49.4003 11.2262 49.1855 10.8865 48.9181 10.6279C48.6506 10.3692 48.3426 10.1826 47.9942 10.0647C47.6458 9.9486 47.285 9.89053 46.9102 9.89053C46.4104 9.89053 45.9459 9.97148 45.5183 10.1316C45.0907 10.2917 44.7159 10.5469 44.3939 10.8953C44.0718 11.2438 43.8219 11.6854 43.6442 12.2204C43.4647 12.7554 43.3768 13.3888 43.3768 14.1209V20.653H40.9677V7.96363H40.9641Z" fill="white"/>
<path d="M55.7843 1.69751H68.5017V5.55306H59.9601V9.40861H67.8577V13.2642H59.9601V20.6533H55.7825V1.69751H55.7843Z" fill="white"/>
<path d="M83.0122 20.6547H79.1567V18.888H79.1039C78.9613 19.1378 78.7784 19.3878 78.5548 19.6376C78.3313 19.8875 78.0604 20.111 77.7384 20.3064C77.4163 20.5035 77.0503 20.6635 76.6402 20.7885C76.2302 20.9135 75.7833 20.9768 75.3011 20.9768C74.284 20.9768 73.4587 20.8202 72.8252 20.5086C72.1916 20.1972 71.7007 19.7643 71.3523 19.21C71.0039 18.6575 70.7716 18.0046 70.6554 17.2549C70.5393 16.5053 70.4812 15.6923 70.4812 14.8178V7.6416H74.4969V14.0135C74.4969 14.3884 74.511 14.7772 74.5374 15.1785C74.5638 15.5797 74.6447 15.951 74.7785 16.2888C74.9123 16.6285 75.1181 16.9048 75.3943 17.1194C75.6707 17.3341 76.0683 17.4415 76.5858 17.4415C77.1031 17.4415 77.5236 17.3482 77.8439 17.16C78.166 16.9717 78.4105 16.7236 78.5794 16.4103C78.7484 16.0989 78.8611 15.7452 78.9138 15.3527C78.9666 14.9603 78.9947 14.5503 78.9947 14.1209V7.6416H83.0105V20.6547H83.0122Z" fill="white"/>
<path d="M85.6958 7.64186H89.5514V9.40862H89.6042C89.7291 9.15873 89.9069 8.90886 90.1391 8.65898C90.3714 8.40909 90.6477 8.18561 90.9698 7.99029C91.2918 7.79319 91.656 7.63306 92.0678 7.50812C92.4778 7.38318 92.9248 7.31982 93.407 7.31982C94.4241 7.31982 95.2459 7.47644 95.8706 7.78792C96.4952 8.10114 96.981 8.53403 97.3294 9.08659C97.6778 9.64091 97.9136 10.292 98.0385 11.0416C98.1635 11.7913 98.2268 12.6043 98.2268 13.4788V20.6551H94.2112V14.283C94.2112 13.9083 94.197 13.5193 94.1706 13.1181C94.1443 12.7169 94.0633 12.3455 93.9295 12.0077C93.7959 11.6681 93.5899 11.3918 93.3137 11.1771C93.0374 10.9625 92.6397 10.8551 92.1224 10.8551C91.605 10.8551 91.1844 10.9484 90.8641 11.1367C90.5422 11.325 90.2975 11.5748 90.1286 11.8863C89.9579 12.1996 89.847 12.5515 89.7943 12.9439C89.7414 13.3363 89.7133 13.7464 89.7133 14.1757V20.6551H85.6976V7.64186H85.6958Z" fill="white"/>
<path d="M114.402 20.6549H110.707V18.941H110.654C110.494 19.1732 110.283 19.409 110.024 19.6501C109.765 19.8912 109.461 20.1094 109.114 20.3065C108.766 20.5036 108.382 20.6638 107.963 20.7887C107.544 20.9136 107.112 20.9769 106.665 20.9769C105.7 20.9769 104.826 20.8115 104.041 20.4807C103.256 20.1499 102.582 19.6871 102.019 19.0887C101.456 18.4905 101.023 17.7813 100.72 16.9595C100.416 16.1394 100.264 15.2368 100.264 14.2548C100.264 13.345 100.402 12.474 100.68 11.6452C100.956 10.8146 101.348 10.079 101.857 9.4367C102.365 8.7944 102.985 8.28056 103.719 7.89694C104.451 7.51333 105.28 7.32151 106.209 7.32151C107.048 7.32151 107.829 7.45173 108.551 7.71041C109.274 7.96909 109.867 8.41078 110.332 9.03548H110.385V0.412842H114.4V20.6549H114.402ZM110.707 14.1492C110.707 13.1674 110.425 12.3737 109.864 11.7666C109.301 11.1595 108.512 10.8568 107.495 10.8568C106.478 10.8568 105.688 11.1612 105.125 11.7666C104.562 12.3737 104.282 13.1674 104.282 14.1492C104.282 15.1312 104.563 15.9248 105.125 16.5319C105.688 17.139 106.476 17.4417 107.495 17.4417C108.514 17.4417 109.302 17.139 109.864 16.5319C110.427 15.9248 110.707 15.1312 110.707 14.1492Z" fill="white"/>
</svg>
