<svg width="180" height="18" viewBox="0 0 180 18" fill="none" xmlns="http://www.w3.org/2000/svg">
<path d="M117.449 0.186768C115.059 0.186768 113.057 0.993317 111.594 2.54667C110.13 4.10003 109.383 6.25084 109.383 8.76011C109.383 11.2694 110.16 13.4799 111.623 15.0034C113.057 16.5269 115.089 17.3633 117.449 17.3633C119.808 17.3633 121.84 16.5269 123.274 15.0034C124.708 13.4501 125.484 11.2993 125.484 8.76011C125.484 6.25084 124.708 4.10003 123.274 2.54667C121.81 0.993317 119.808 0.186768 117.449 0.186768ZM121.242 13.0318C120.316 14.1072 119.002 14.6748 117.449 14.6748C115.895 14.6748 114.581 14.1072 113.625 13.0318C112.699 11.9863 112.221 10.4927 112.221 8.76011C112.221 7.02752 112.699 5.56378 113.625 4.51825C114.551 3.44284 115.895 2.87527 117.449 2.87527C119.002 2.87527 120.316 3.44284 121.242 4.51825C122.168 5.56378 122.646 7.02752 122.646 8.76011C122.646 10.4927 122.168 11.9863 121.242 13.0318Z" fill="white"/>
<path d="M81.7209 0.545166L76.0452 16.7957H79.1818L80.6455 12.4642H87.4265L88.8902 16.7957H91.8775L86.3511 0.545166H81.7209ZM81.5118 9.95493L83.6925 2.69596H84.3497L86.5005 9.95493H81.5118Z" fill="white"/>
<path d="M51.789 0.545166H45.3665V16.7957H51.311C53.7008 16.7957 55.7321 16.019 57.1959 14.5553C58.6596 13.0915 59.4363 11.0303 59.4363 8.64055C59.4363 6.25077 58.6895 4.18958 57.3154 2.75571C55.9412 1.32184 54.0294 0.545166 51.789 0.545166ZM55.3139 12.5538C54.4476 13.5695 53.2527 14.0773 51.8487 14.0773H48.2342V3.23367H51.3409C52.8943 3.23367 54.2385 3.7415 55.1646 4.72728C56.1205 5.68319 56.5984 7.02745 56.5984 8.64055C56.5686 10.2238 56.1503 11.5979 55.3139 12.5538Z" fill="white"/>
<path d="M71.3852 8.43144C72.6996 8.40157 73.5061 8.0431 74.0737 7.23655C74.4322 6.63911 74.6114 5.95204 74.6114 5.23511C74.6114 3.86098 74.1036 2.69597 73.1477 1.82967C72.1918 0.993246 70.8176 0.545166 69.2344 0.545166H61.4377V16.7957H64.2756V10.7017H69.802C71.0267 10.7017 71.445 11.3888 71.445 12.1356V16.7957H74.1335V11.6278C74.1335 10.164 73.3866 9.1185 72.132 9.1185C71.9826 9.1185 70.967 9.1185 70.8475 9.1185V8.46131L71.3852 8.43144ZM69.2344 8.01323H64.2756V3.26354H69.2344C70.7579 3.26354 71.7735 4.18958 71.7735 5.5637C71.7735 6.90795 70.6981 8.01323 69.2344 8.01323Z" fill="white"/>
<path d="M99.9729 0.186768C101.496 0.186768 102.96 0.694896 104.185 1.59106C105.439 2.5171 106.365 3.80156 106.873 5.29517L106.904 5.35474L104.125 5.86255V5.83228C103.438 4.01025 101.914 2.90552 99.9729 2.90552C98.4495 2.90554 97.1645 3.47272 96.2385 4.5481C95.3425 5.59361 94.8645 7.0578 94.8645 8.79028C94.8646 10.5227 95.3428 11.9864 96.2688 13.0618C97.1948 14.1371 98.4793 14.7043 99.9729 14.7043C102.87 14.7043 104.902 13.2111 105.051 11.0305L105.081 10.4036H97.8518L97.8821 7.83423H107.62V17.1838H105.111V14.4055H104.782C104.095 15.9589 102.064 17.3635 99.4055 17.3635C97.2248 17.3635 95.4021 16.5272 94.0579 14.9739C92.7136 13.4205 92.0266 11.2693 92.0266 8.76001C92.0266 6.25101 92.7737 4.10042 94.2073 2.54712C95.6411 0.993783 97.6429 0.18679 99.9729 0.186768ZM17.1672 16.7961H14.1204V0.545166H17.1672V16.7961ZM132.146 0.575439L138.15 14.1672H138.688V0.575439H141.526V16.7961H136.656L130.592 3.20435H130.115V16.7961H127.277V0.575439H132.146ZM155.147 0.575439V3.26392H146.454V6.90845H154.281V9.41724H146.454V16.7961H143.616V0.575439H155.147ZM176.148 0.575439H179.404L174.713 8.79028H173.608V16.7961H170.77V8.79028H169.665L164.975 0.575439H168.201L171.846 7.38599H172.503L176.148 0.545166V0.575439ZM159.657 0.575439V14.2571H167.663V16.7659H156.731V0.575439H159.657ZM11.1624 6.63892V10.7913L0.139893 14.7043V11.5383L8.32446 8.79028V8.6106L0.139893 5.86255V2.69556L11.1624 6.63892ZM31.0276 5.83228L22.843 8.5813V8.76001L31.0276 11.4788V14.675L20.0051 10.762V6.60962L31.0276 2.66626V5.83228Z" fill="white"/>
</svg>
