<svg width="117" height="38" viewBox="0 0 117 38" fill="none" xmlns="http://www.w3.org/2000/svg">
<path d="M29.5937 14.7862C28.984 15.396 28.2218 15.8025 27.4088 15.9549C28.5267 18.9528 27.7899 22.3826 25.5034 24.6691C23.9282 26.2443 21.7941 27.0827 19.6346 27.0827C18.6692 27.0827 17.7038 26.9048 16.7637 26.5746C16.6113 27.3876 16.2302 28.1497 15.5951 28.7595C13.9437 30.4109 11.2507 30.4109 9.57387 28.7595C7.92249 27.1081 7.92249 24.4151 9.57387 22.7383C10.1836 22.1285 10.9458 21.722 11.7588 21.5696C10.6155 18.5463 11.3523 15.0911 13.6388 12.8046C15.9253 10.518 19.3805 9.78127 22.4038 10.9245C22.5563 10.137 22.9374 9.37478 23.5725 8.76503C25.2239 7.11365 27.9169 7.11365 29.5937 8.76503C31.2451 10.4418 31.2451 13.1348 29.5937 14.7862ZM19.5838 0C9.21819 0 0.808838 8.40935 0.808838 18.775C0.808838 29.1406 9.21819 37.5499 19.5838 37.5499C29.9494 37.5499 38.3587 29.1406 38.3587 18.775C38.3587 8.40935 29.9494 0 19.5838 0ZM21.8195 20.9853C20.6 22.2048 18.6438 22.2048 17.4243 20.9853C16.2048 19.7658 16.2048 17.8095 17.4243 16.59C18.6438 15.3706 20.6 15.3706 21.8195 16.59C23.0136 17.8095 23.0136 19.7658 21.8195 20.9853ZM24.5887 9.78127C23.9536 10.4164 23.6487 11.331 23.8012 12.2202C23.852 12.5251 23.8266 12.8046 23.6995 13.084C23.5217 13.4397 23.2422 13.6938 22.8866 13.8462C22.5309 13.9732 22.1498 13.9732 21.7687 13.7954C19.7362 12.8554 17.2973 13.2873 15.7221 14.8624C14.1469 16.4376 13.715 18.8766 14.655 20.9091C14.8329 21.2647 14.8329 21.6712 14.7059 22.0269C14.5788 22.3572 14.3248 22.6621 13.9691 22.8145C13.7658 22.9161 13.5626 22.9415 13.3593 22.9415C13.2577 22.9415 13.1561 22.9161 13.0799 22.9161C12.1399 22.7891 11.2761 23.0686 10.6409 23.7037C10.1074 24.2372 9.82793 24.9486 9.82793 25.6854C9.82793 26.4475 10.1074 27.1335 10.6409 27.667C11.7334 28.7595 13.5118 28.7595 14.6042 27.667C15.2394 27.0319 15.5443 26.1173 15.3918 25.2281C15.3918 25.1772 15.3918 25.1264 15.3918 25.0756C15.3664 24.847 15.4172 24.5929 15.5188 24.3643C15.6967 24.0086 15.9761 23.7545 16.3318 23.6275C16.6875 23.5005 17.0686 23.5005 17.4497 23.6783C19.4822 24.6183 21.9211 24.1864 23.4963 22.6112C25.0715 21.0361 25.5288 18.5971 24.5633 16.5646C24.3855 16.209 24.3855 15.8025 24.5125 15.4722C24.6396 15.1165 24.8936 14.8116 25.2747 14.6592C25.5288 14.5322 25.8082 14.5068 26.0623 14.5322C26.1131 14.5322 26.1385 14.5322 26.1893 14.5322C27.0785 14.6592 27.9423 14.3797 28.5775 13.7446C29.6699 12.6521 29.6699 10.8737 28.5775 9.78127C27.4596 8.68882 25.6812 8.68882 24.5887 9.78127ZM74.6892 24.4913C74.7908 24.4913 74.867 24.4659 74.9178 24.4659V27.2351C74.3081 27.3621 73.8254 27.413 73.4697 27.413C72.301 27.413 71.3864 27.1081 70.7259 26.5238C70.0653 25.9394 69.735 24.9994 69.735 23.7291V8.25692H73.0378V23.1956C73.0378 23.6275 73.114 23.9578 73.2918 24.1864C73.4697 24.4151 73.8254 24.5167 74.3335 24.5167C74.4859 24.5167 74.5875 24.4913 74.6892 24.4913ZM76.5184 27.2605H79.8466V13.5922H76.5184V27.2605ZM90.7711 13.5922H94.0485V27.2605H91.33L91.1014 25.4821C90.7711 26.1427 90.263 26.6762 89.5516 27.0573C88.8403 27.4384 88.0527 27.6162 87.1889 27.6162C85.7407 27.6162 84.5721 27.1589 83.7337 26.2697C82.8953 25.3805 82.4634 24.1864 82.4634 22.7129V13.5922H85.7407V21.9761C85.7407 23.7037 86.5283 24.5675 88.1035 24.5675C88.764 24.5675 89.323 24.3388 89.7803 23.8815C90.4408 23.2718 90.7711 22.2556 90.7711 20.8074V13.5922ZM116.228 18.0382V27.2605H112.976V18.775C112.976 17.8857 112.823 17.2252 112.519 16.7679C112.214 16.336 111.655 16.1073 110.867 16.1073C110.003 16.1073 109.343 16.4884 108.885 17.2252C108.428 17.962 108.2 18.8258 108.2 19.7912V27.2605H104.948V18.775C104.948 17.8857 104.795 17.2252 104.49 16.7679C104.185 16.336 103.626 16.1073 102.839 16.1073C101.975 16.1073 101.315 16.4884 100.832 17.2252C100.349 17.962 100.12 18.8258 100.12 19.7912V27.2605H96.8685V13.5922H99.6123L99.8664 15.396C100.73 13.9478 102.051 13.2365 103.754 13.2365C105.634 13.2365 106.929 13.9732 107.666 15.4722C108.53 13.9732 109.902 13.2365 111.782 13.2365C113.205 13.2365 114.297 13.6684 115.059 14.5322C115.847 15.4214 116.228 16.59 116.228 18.0382ZM76.3914 11.7121H79.9228V8.30773H76.3914V11.7121ZM52.6877 14.6338C53.5007 15.5484 53.9326 16.7171 53.9326 18.1652V27.2859H50.6552V18.8512C50.6552 18.0128 50.4774 17.3776 50.1471 16.9457C49.8168 16.5138 49.2325 16.3106 48.3941 16.3106C47.4795 16.3106 46.7935 16.6917 46.3108 17.4793C45.8281 18.2668 45.5994 19.1306 45.5994 20.0961V27.2859H42.3221V8.30773H45.5994V15.0657C45.9805 14.5068 46.514 14.0749 47.2 13.7446C47.886 13.4397 48.5973 13.2619 49.3341 13.2619C50.7314 13.2619 51.8493 13.7192 52.6877 14.6338ZM58.8613 19.0798C58.8867 18.2414 59.1154 17.5301 59.5727 16.9457C60.1062 16.2344 60.8684 15.9041 61.8592 15.9041C62.7484 15.9041 63.4344 16.1581 63.9425 16.6917C64.476 17.276 64.7555 18.089 64.7809 19.0798H58.8613ZM61.8846 13.2619C60.1062 13.2619 58.6327 13.8462 57.5148 14.9895C56.1937 16.336 55.5331 18.1652 55.5331 20.4517C55.5331 22.7383 56.2445 24.5675 57.6418 25.914C58.8105 27.0319 60.2586 27.5908 61.9608 27.5908C63.9425 27.5908 65.4668 26.9557 66.5593 25.66C67.2452 24.847 67.6263 23.9832 67.728 23.1448H64.5776C64.4506 23.6021 64.2473 23.9832 63.9171 24.3134C63.4852 24.7453 62.8246 24.974 61.91 24.974C61.1478 24.974 60.4873 24.6945 59.8775 24.1356C59.1662 23.475 58.8359 22.5858 58.8867 21.4426H68.0328C68.0328 21.2393 68.0328 20.9345 68.0582 20.528C68.1091 18.6479 67.728 17.0474 66.8642 15.7771C65.7463 14.1003 64.0949 13.2619 61.8846 13.2619Z" fill="white"/>
</svg>
