<svg width="107" height="38" viewBox="0 0 107 38" fill="none" xmlns="http://www.w3.org/2000/svg">
<path d="M45.223 10.6672C43.5122 10.6672 42.2682 11.0727 41.2113 12.008L39.3449 13.6291C39.1893 13.7541 38.8782 13.8476 38.6609 13.66C38.4429 13.4731 38.4121 13.2236 38.5985 12.9742L39.5937 11.4775C39.7493 11.259 39.6252 10.9786 39.3449 10.9786H36.9501C36.6705 10.9786 36.4525 11.1971 36.4525 11.4775V26.0706C36.4525 26.351 36.6705 26.5695 36.9501 26.5695H39.4381C39.7178 26.5695 39.9357 26.351 39.9357 26.0706V17.8388C39.9357 14.0661 43.077 13.4737 44.2586 13.4737C46.7775 13.4737 47.6795 15.2824 47.6795 16.6541V26.0706C47.6795 26.351 47.8974 26.5695 48.1771 26.5695H50.6651C50.9448 26.5695 51.1627 26.351 51.1627 26.0706V16.3421C51.1627 12.8498 48.892 10.6672 45.2223 10.6672H45.223Z" fill="white"/>
<path d="M61.3006 10.605C56.4801 10.605 53.4012 13.5674 53.4012 17.5896V19.8037C53.4012 24.0444 56.4801 26.9443 61.3006 26.9443C65.561 26.9443 68.5467 24.7302 68.8578 21.7368C68.8893 21.4248 68.6714 21.207 68.3602 21.207H65.9346C65.7166 21.207 65.5302 21.332 65.4678 21.5499C65.1567 22.5477 63.6954 24.0444 61.3006 24.0444C58.9058 24.0444 56.6665 22.2982 56.6974 19.8037L56.7289 17.0288C56.7598 14.9397 58.9373 13.5056 61.3006 13.5056C63.4466 13.5056 65.5302 14.7219 65.7475 16.7175C65.7655 16.9482 65.6073 17.1564 65.3804 17.2003L58.4075 18.5571C58.1278 18.6196 57.9099 18.8691 57.9099 19.1804V19.2113C57.9099 19.4917 58.1896 19.7412 58.5939 19.7412H68.6084C68.8836 19.7412 69.106 19.5175 69.106 19.2423V17.2783C69.106 13.5681 65.9024 10.6056 61.2999 10.6056L61.3006 10.605Z" fill="white"/>
<path d="M78.6536 10.6049C74.766 10.6049 71.4075 12.8809 71.4075 15.8743C71.4075 16.1237 71.6254 16.3107 71.9051 16.3107H74.424C74.6728 16.3107 74.8592 16.1237 74.8907 15.8743C75.1395 14.5026 76.7879 13.5048 78.5604 13.5048C80.6749 13.5048 82.106 14.8146 82.106 17.0597V19.7727C82.106 22.5476 80.0532 23.9508 77.5028 23.9508C75.5124 23.9508 74.3616 23.2025 74.3616 21.9862C74.3616 20.9258 74.9216 20.0215 77.2225 19.4916L80.5502 18.5873C80.8922 18.4938 81.0169 18.2128 80.9545 17.9015C80.9237 17.652 80.644 17.527 80.3946 17.527H76.9429C74.0196 17.527 71.0648 19.3975 71.0648 22.1415V22.5779C71.0648 25.3844 73.7084 26.8495 76.7249 26.8495C78.653 26.8495 80.3014 26.1011 81.3274 25.2284L82.8517 23.9186C83.1005 23.7001 83.3493 23.7001 83.5666 23.9186C83.7531 24.1055 83.6907 24.3866 83.5351 24.6044L82.6023 26.0702C82.4467 26.2887 82.5708 26.5691 82.8511 26.5691H85.0903C85.37 26.5691 85.5879 26.3506 85.5879 26.0702V16.622C85.5879 13.0053 83.0067 10.6042 78.6523 10.6042L78.6536 10.6049Z" fill="white"/>
<path d="M99.0236 10.9792H95.5404C94.3278 10.9792 93.1456 11.7276 92.3059 12.445L90.9378 13.6297C90.7823 13.7548 90.502 13.8483 90.3155 13.6923C90.0976 13.5363 90.0043 13.2243 90.1914 12.9749L91.1866 11.4781C91.3422 11.2596 91.2181 10.9792 90.9378 10.9792H88.6054C88.3257 10.9792 88.1078 11.1978 88.1078 11.4781V26.0713C88.1078 26.3517 88.3257 26.5702 88.6054 26.5702H91.1558C91.4354 26.5702 91.6534 26.3517 91.6534 26.0713V18.5878C91.6534 15.3759 92.9598 13.9417 95.7898 13.9417H99.0242C99.3039 13.9417 99.5218 13.7232 99.5218 13.4428V11.4781C99.5218 11.1978 99.3039 10.9792 99.0242 10.9792H99.0236Z" fill="white"/>
<path d="M27.1052 7.46265C26.2694 7.46265 25.4935 7.89709 25.0557 8.61128L20.3387 15.6326C20.185 15.864 20.2474 16.176 20.4782 16.3301C20.6653 16.4551 20.9128 16.4396 21.0832 16.2927L25.7262 12.2551C25.8033 12.1854 25.9223 12.1925 25.9917 12.2699C26.0232 12.3053 26.0399 12.3511 26.0399 12.3982V25.0396C26.0399 25.144 25.9557 25.2278 25.8516 25.2278C25.7956 25.2278 25.7429 25.2033 25.7076 25.1601L11.6724 8.31606C11.2153 7.77527 10.5441 7.46329 9.83757 7.46265H9.34704C8.01945 7.46265 6.94324 8.54167 6.94324 9.87271V27.6772C6.94324 29.0082 8.01945 30.0872 9.34704 30.0872C10.1828 30.0872 10.9588 29.6528 11.3966 28.9386L16.1136 21.9172C16.2672 21.6858 16.2049 21.3739 15.9741 21.2198C15.787 21.0948 15.5395 21.1102 15.3691 21.2572L10.7261 25.2948C10.6489 25.3644 10.53 25.3573 10.4605 25.28C10.429 25.2445 10.4123 25.1988 10.413 25.1517V12.5071C10.413 12.4027 10.4972 12.3189 10.6013 12.3189C10.6566 12.3189 10.71 12.3434 10.7453 12.3866L24.7786 29.2338C25.2357 29.7746 25.9069 30.0866 26.6134 30.0872H27.1039C28.4315 30.0879 29.5084 29.0095 29.5097 27.6785V9.87271C29.5097 8.54167 28.4334 7.46265 27.1059 7.46265H27.1052Z" fill="white"/>
</svg>
