<svg width="48" height="48" viewBox="0 0 48 48" fill="none" xmlns="http://www.w3.org/2000/svg">
<g clip-path="url(#clip0_33_168)">
<path d="M12.8514 1.72632C13.0302 1.20108 13.9075 0.992116 13.5235 0.122367C12.633 0.0978938 9.62749 0.0941287 8.68714 0.0913048C8.62031 0.19767 8.61278 0.906459 8.65702 1.03259C8.70314 1.16531 9.53995 1.42793 9.64349 2.21485C9.83363 3.66066 9.67643 5.38039 9.6096 7.03141C9.64161 11.9449 9.70561 16.8697 9.63972 21.7823C9.63408 22.0732 9.75738 22.3179 9.36863 22.2341C9.17943 20.1972 8.78221 18.1339 8.61372 16.0866C8.49606 15.3505 8.37275 14.6125 8.24285 13.8755C8.12331 13.6044 7.99341 13.3211 8.19391 13.0171C7.91058 12.3949 7.94917 11.8885 7.91811 11.2597C7.60843 9.19543 7.40417 7.04553 6.93446 5.01423C6.72456 3.36228 6.77351 1.63596 6.27839 0.026356L0.675849 0C0.510182 0.163784 0.60337 0.869749 0.64761 1.00059C1.02412 1.28297 1.63126 1.42511 1.81951 1.90705C1.94282 7.51147 1.83175 13.1357 1.86846 18.7561C1.86469 25.2905 1.86846 31.8277 1.87317 38.3697C1.57948 39.2997 1.41005 39.3458 0.553482 39.6705C0.475355 39.7825 0.489474 40.304 0.423584 40.4894H5.93576C5.91223 40.3596 5.95553 39.8851 5.94611 39.6818C5.92258 39.6461 5.8934 39.6122 5.85857 39.5811C5.5696 39.6159 4.83445 39.1123 4.76103 38.9081V15.3684H5.03212C4.90505 15.935 5.22321 16.3822 5.21285 16.9046C5.15261 17.363 5.30792 17.7216 5.47924 18.1292C5.72303 19.8743 5.80963 21.6129 6.20685 23.3204C6.41864 25.0862 6.90434 27.1316 7.02012 28.9229C7.47006 30.7575 7.77786 32.8923 7.83339 34.7965C8.19108 35.046 8.05648 35.6117 8.11296 36.008C8.42076 37.5056 8.57795 38.9777 8.82739 40.4894H12.5323C12.6424 30.4374 12.4325 17.9833 12.6227 8.04894C12.3469 6.84504 12.6368 5.49429 12.6227 4.25367C12.3647 3.44511 12.6227 2.50853 12.8523 1.72726L12.8514 1.72632Z" fill="white"/>
<path d="M14.5742 9.47212C14.5676 9.43541 14.561 9.39776 14.5535 9.36011C14.641 10.708 14.6937 12.0635 14.7229 13.4218C14.6994 12.103 14.6448 10.7852 14.5751 9.47212H14.5742Z" fill="white"/>
<path d="M24.55 32.3557L24.5745 32.7652C24.5679 32.6268 24.5595 32.4903 24.55 32.3557Z" fill="white"/>
<path d="M14.6881 35.6803C14.6778 35.4751 14.6683 35.2699 14.6589 35.0647C14.6655 35.2727 14.6749 35.4779 14.6881 35.6803Z" fill="white"/>
<path d="M18.7053 41.3743C18.7533 41.3856 18.8013 41.3959 18.8493 41.4063C18.8023 41.3931 18.7533 41.3846 18.7053 41.3743Z" fill="white"/>
<path d="M42.1343 24.705C42.0411 24.4302 41.9329 24.177 41.8096 23.9285C41.9235 24.1854 42.0317 24.4443 42.1343 24.705Z" fill="white"/>
<path d="M43.594 40.3143C45.8371 39.581 46.4555 36.985 46.6937 34.9358C47.858 25.8994 46.1599 23.3636 42.2611 15.9096C42.2508 15.8954 42.1811 15.9237 42.1708 15.9096C42.0456 15.7128 41.9129 15.6215 41.8997 15.3674L41.1702 14.3329C41.1297 13.8359 40.6402 13.7992 40.6346 13.289C39.6942 12.4673 40.1272 8.79907 40.0943 7.45492C40.1131 6.27737 40.0152 5.07064 40.0924 3.8912C40.0839 3.10429 40.7315 1.71589 41.6192 2.68165C42.664 3.62858 41.9957 12.3025 42.1717 13.6354C43.4745 12.8259 44.7537 11.9571 46.062 11.1551C46.062 9.07016 45.9679 6.97674 45.6997 4.92568C45.5321 3.89968 45.5632 3.35373 45.0511 2.33996C44.091 0.438564 41.878 -0.00478224 39.8618 0.271956C37.775 0.602348 36.4393 2.692 36.2303 4.66023C36.2585 5.66929 36.3997 6.61152 36.2971 7.59611C36.4468 7.69024 36.3875 7.93874 36.3884 8.09123C36.3997 9.16994 36.3376 10.2411 36.2971 11.301C36.396 11.6465 36.3932 12.0738 36.3282 12.4767C36.733 15.1631 38.4583 17.858 39.7215 20.1425C41.2116 22.3865 42.7365 24.8706 42.712 27.6568C42.9229 30.5249 43.3474 33.6942 42.5238 36.4673C42.616 37.0113 42.5539 37.0772 42.3251 37.5704C42.1096 37.914 41.3716 37.7276 41.0902 37.5469C41.0648 37.5309 40.6694 37.1516 40.6553 37.1252C39.81 33.2085 40.4021 28.1821 40.5433 24.1336L36.2887 26.2684C36.1607 28.6339 36.3244 31.0398 36.2068 33.4401C36.3837 33.5822 36.171 33.8251 36.2068 33.9823C36.6859 37.2852 37.4756 40.094 41.2671 40.7595C41.7858 40.6607 43.3464 40.72 43.594 40.3143Z" fill="white"/>
<path d="M42.0023 37.675C41.9863 37.6807 41.9693 37.6863 41.9524 37.6911C41.9656 37.6911 41.9787 37.6892 41.99 37.6873L42.0023 37.675Z" fill="white"/>
<path d="M36.5683 26.0679C36.653 26.0236 36.7368 25.9775 36.8215 25.9314C36.7255 25.9794 36.6295 26.0283 36.5334 26.0764C36.5457 26.0754 36.5579 26.0726 36.5683 26.0669V26.0679Z" fill="white"/>
<path d="M41.8875 3.27759C41.8922 3.29453 41.8978 3.31147 41.9025 3.32842C41.8997 3.30677 41.8997 3.303 41.8875 3.27759Z" fill="white"/>
<path d="M40.3769 35.0929C40.3166 34.5903 40.2761 34.0858 40.2507 33.5793C40.2761 34.1206 40.2799 34.6279 40.3769 35.0929Z" fill="white"/>
<path d="M36.2078 1.2981C36.1099 1.31033 36.0158 1.32633 35.9358 1.36116C36.0337 1.34045 36.124 1.31975 36.2078 1.2981Z" fill="white"/>
<path d="M35.8953 1.38503C35.9082 1.37674 35.9211 1.36845 35.9349 1.36108C35.9238 1.36569 35.91 1.3749 35.8953 1.38503Z" fill="white"/>
<path d="M35.0849 36.6677C35.0642 36.8042 35.0416 36.9416 35.0181 37.0791C35.0435 36.9426 35.0661 36.8052 35.0849 36.6677Z" fill="white"/>
<path d="M35.2588 30.0298C35.2644 29.3059 35.2673 28.583 35.2663 27.8601C35.2663 28.5849 35.2569 29.3069 35.2588 30.0298Z" fill="white"/>
<path d="M35.3143 2.05859C35.3087 2.06873 35.3051 2.07702 35.3032 2.08346C35.306 2.07517 35.3106 2.06688 35.3143 2.05859Z" fill="white"/>
<path d="M27.8699 39.0398C27.9847 39.2779 28.1146 39.5067 28.2614 39.7213C28.1824 39.4671 27.9706 39.2572 27.8699 39.0398Z" fill="white"/>
<path d="M35.9357 1.36104C36.8817 0.949694 36.8873 1.24243 36.8393 0.0959473H32.4115C32.4143 9.55211 32.4153 19.0168 32.4115 28.4701C32.403 30.508 32.4265 32.527 32.3174 34.5659C32.2684 35.4686 32.3908 36.9765 31.8684 37.7314C31.1285 38.8676 30.5807 37.5526 30.5882 36.8212C30.1618 36.6169 30.3454 34.4397 30.2945 33.8486C30.4451 22.6021 30.2663 11.3434 30.3331 0.0959473H25.1824C24.8407 1.6726 26.5708 0.772733 26.872 2.06606C27.2363 13.3022 26.7779 24.6372 27.08 35.8799L27.1506 35.9232C27.0791 36.0992 27.0603 36.3298 27.08 36.5125C27.4076 37.0386 27.3765 37.6599 27.5601 38.2463C27.7182 38.7537 28.2011 39.6366 28.5306 40.0564C28.8214 40.4273 29.3382 40.544 29.6102 40.9393C30.9619 41.2556 31.1633 41.5408 32.5019 40.9393C32.7824 41.0052 33.7782 39.9124 33.9825 39.6639C35.9046 36.5294 35.0546 29.5648 35.2363 25.7121C35.1422 18.387 35.0396 11.1532 35.1742 3.84509C35.225 2.99793 34.9643 1.77709 35.9357 1.3601V1.36104Z" fill="white"/>
<path d="M32.3286 33.7874C32.3079 34.3794 32.2844 34.9677 32.2571 35.5504C32.2985 34.9047 32.3126 34.3258 32.3286 33.7874Z" fill="white"/>
<path d="M30.3398 30.9646C30.3369 31.3223 30.3341 31.679 30.3313 32.0367C30.3388 31.6753 30.3388 31.3232 30.3398 30.9646Z" fill="white"/>
<path d="M30.5884 36.8213C30.6016 36.89 30.6147 36.9568 30.6289 37.0199C30.6176 36.9578 30.6241 36.8778 30.5884 36.8213Z" fill="white"/>
<path d="M35.2579 29.594C35.2861 26.195 35.2362 22.7923 35.1882 19.3867C35.2108 22.7885 35.2457 26.1932 35.2579 29.594Z" fill="white"/>
<path d="M14.6975 36.0183C14.7022 36.0465 14.7079 36.0757 14.7126 36.1039C14.705 35.9768 14.6975 35.8507 14.6909 35.7236C14.6928 35.8215 14.6947 35.9204 14.6975 36.0183Z" fill="white"/>
<path d="M14.7183 13.1394C14.835 20.6339 14.2994 28.2584 14.691 35.7237C14.5187 28.2263 14.9075 20.6358 14.7183 13.1394Z" fill="white"/>
<path d="M14.6166 9.80347C14.6119 9.70087 14.5949 9.58885 14.5742 9.47119C14.6411 10.6902 14.6872 11.9129 14.7182 13.1384C14.7004 12.023 14.6683 10.9104 14.6166 9.80347Z" fill="white"/>
<path d="M9.63989 11.7529V21.5122C9.71143 18.2676 9.6446 14.9994 9.63989 11.7529Z" fill="white"/>
<path d="M32.4114 8.59009V22.0543C32.4189 17.569 32.4086 13.08 32.4114 8.59009Z" fill="white"/>
<path d="M42.7129 27.6567C42.7515 27.9636 42.7797 28.3561 42.8061 28.7599C42.8117 28.3834 42.8597 27.9881 42.7129 27.6567Z" fill="white"/>
<path d="M42.8146 29.0461C42.872 29.6881 42.9172 30.3432 42.9473 31.0021C42.9323 30.219 42.8485 29.5657 42.8071 28.759C42.8052 28.856 42.8071 28.952 42.8155 29.0452L42.8146 29.0461Z" fill="white"/>
<path d="M32.4116 23.8221V22.1448C32.4106 22.7039 32.4116 23.263 32.4116 23.8221Z" fill="white"/>
<path d="M32.4116 23.822V28.4701C32.4201 26.9217 32.4135 25.3714 32.4116 23.822Z" fill="white"/>
<path d="M1.86879 19.8855C1.71724 20.5002 1.71724 21.3492 1.86879 21.9639C1.86879 21.272 1.86879 20.5773 1.86879 19.8855Z" fill="white"/>
<path d="M9.64003 9.58423C9.48848 10.1989 9.48848 11.0479 9.64003 11.6626C9.63909 10.9707 9.64191 10.2761 9.64003 9.58423Z" fill="white"/>
<path d="M8.36926 14.2435C8.36079 14.1842 8.34196 14.1239 8.32031 14.0627C8.36079 14.3235 8.40785 14.5899 8.4568 14.8581C8.42856 14.6529 8.40032 14.4477 8.3702 14.2435H8.36926Z" fill="white"/>
<path d="M5.22347 17.5155C5.21971 17.4618 5.215 17.4082 5.21218 17.3555C5.20653 17.4119 5.21218 17.4647 5.22347 17.5155Z" fill="white"/>
<path d="M36.2068 29.5544C36.155 30.7781 35.979 32.1486 36.2068 33.3497C36.3028 32.094 36.2284 30.812 36.2068 29.5544Z" fill="white"/>
<path d="M40.0923 5.33714C40.0744 4.96628 40.3559 4.32055 40.0923 3.98169C40.0434 4.43257 40.0321 4.88344 40.0923 5.33714Z" fill="white"/>
<path d="M12.6219 8.50456V8.22876C12.62 8.30877 12.6219 8.41043 12.6219 8.50456Z" fill="white"/>
<path d="M36.2068 33.4402C36.2068 33.4854 36.0299 33.7819 36.2068 33.892C36.2181 33.7838 36.3603 33.5418 36.2068 33.4402Z" fill="white"/>
<path d="M41.8997 15.4578C42.0004 15.6931 42.0324 15.7176 42.1707 15.9096C42.1472 15.727 42.0804 15.5359 41.8997 15.4578Z" fill="white"/>
<path d="M27.08 35.8799C27.0819 35.9542 27.0791 36.0776 27.08 36.151L27.1506 35.9232L27.08 35.8799Z" fill="white"/>
<path d="M7.83273 34.7051V34.5244C7.83367 34.5357 7.81861 34.5781 7.83273 34.7051Z" fill="white"/>
<path d="M24.55 32.2655C24.4898 25.4948 24.5933 18.5707 24.4681 11.6983C24.4088 8.4029 24.7712 4.3469 22.7672 1.53057C20.9524 -0.678635 16.8145 -0.465904 15.7057 2.34101C14.7221 4.44008 14.611 6.9712 14.563 9.27077C15.0769 18.0501 14.4764 26.9265 14.691 35.7162C14.9019 37.7278 15.5429 39.8466 17.4245 40.882C17.7492 41.058 19.2722 41.5418 19.5198 41.4825C19.5857 41.4665 19.5735 41.3178 19.6422 41.3028C19.8276 41.2613 20.0592 41.3404 20.255 41.2971C24.4164 40.4405 24.5943 35.7313 24.551 32.2645L24.55 32.2655ZM20.4874 34.3024C20.1881 35.1242 20.4347 36.4203 19.8493 37.0933C19.7099 37.3032 19.5706 37.4124 19.4172 37.4002C19.3965 37.4087 19.3758 37.4181 19.3532 37.4265C19.3306 37.4265 19.2751 37.3814 19.2073 37.3145C19.0953 37.2345 18.9757 37.0971 18.843 36.8966C18.8129 36.8552 18.7922 36.8241 18.7865 36.8091C18.7178 36.6048 18.7743 36.3224 18.5898 36.1021C18.4825 32.2043 18.4063 28.2801 18.3714 24.3492C18.2792 19.2418 18.2406 14.1024 18.458 9.12863C18.4929 7.52092 18.5352 5.91508 18.587 4.31489C18.923 4.13793 18.6868 4.03815 18.811 3.71435C18.811 3.71341 18.811 3.71247 18.811 3.71153C18.8138 3.70588 18.8251 3.69176 18.8411 3.67293C18.972 3.50068 19.0915 3.37925 19.2007 3.30395C19.2271 3.27853 19.2478 3.26065 19.2581 3.25406C19.5565 3.08839 19.7984 3.33501 19.9537 3.65787C20.0017 3.7473 20.0488 3.84801 20.0968 3.96191C20.1213 4.02309 20.1222 4.08992 20.1203 4.15864C20.1392 4.25371 20.1495 4.34125 20.1495 4.40996C20.1608 4.43443 20.2841 4.43161 20.3001 4.49562C20.3105 5.32113 20.3227 6.14758 20.3368 6.97591C20.5533 10.6177 20.5778 14.3377 20.5467 18.0793C20.6079 22.414 20.6098 26.7523 20.4329 31.0569C20.4404 32.1431 20.4564 33.2256 20.4856 34.3024H20.4874Z" fill="white"/>
<path d="M4.28881 46.6848V47.3729H4.48649C4.61827 47.3729 4.71145 47.3983 4.76793 47.4492C4.82441 47.5 4.8517 47.5659 4.8517 47.6478C4.8517 47.7297 4.82347 47.7927 4.76793 47.8436C4.71239 47.8944 4.61827 47.9198 4.48649 47.9198H3.65721C3.52543 47.9198 3.43224 47.8944 3.37577 47.8436C3.31929 47.7927 3.29199 47.7268 3.29199 47.645C3.29199 47.5631 3.32023 47.5 3.37765 47.4492C3.43413 47.3983 3.52826 47.3729 3.65721 47.3729H3.74287V45.2353H3.65721C3.52543 45.2353 3.43224 45.2098 3.37577 45.159C3.31929 45.1082 3.29199 45.0423 3.29199 44.9604C3.29199 44.8785 3.32023 44.8126 3.37577 44.7618C3.4313 44.711 3.52543 44.6855 3.65721 44.6855L4.89406 44.6884C5.27999 44.6884 5.57838 44.7844 5.79111 44.9745C6.00384 45.1656 6.10926 45.3981 6.10926 45.672C6.10926 45.8424 6.05938 45.9977 5.9596 46.137C5.85982 46.2763 5.71016 46.4006 5.50872 46.5088C5.6245 46.6105 5.74781 46.7404 5.87959 46.8976C5.96148 46.9992 6.07161 47.1574 6.20998 47.372C6.34835 47.372 6.43966 47.3861 6.48484 47.4143C6.56485 47.4699 6.60438 47.5471 6.60438 47.6459C6.60438 47.7259 6.57708 47.7909 6.52155 47.8417C6.46601 47.8925 6.37282 47.9179 6.24199 47.9179H5.93042C5.48801 47.2336 5.12091 46.8223 4.82911 46.6839H4.28787L4.28881 46.6848ZM4.28881 46.138H4.71522C4.87335 46.138 5.01455 46.1144 5.1388 46.0664C5.3054 46.0024 5.41836 45.9346 5.47578 45.864C5.5332 45.7934 5.56238 45.7228 5.56238 45.6532C5.56238 45.5506 5.50684 45.4546 5.39671 45.367C5.28658 45.2795 5.12562 45.2353 4.91383 45.2353H4.28693V46.1389L4.28881 46.138Z" fill="white"/>
<path d="M9.42358 46.5702V47.3722H10.8176V47.0766C10.8176 46.9448 10.843 46.8517 10.8939 46.7952C10.9447 46.7387 11.0106 46.7114 11.0925 46.7114C11.1744 46.7114 11.2374 46.7396 11.2883 46.7952C11.3391 46.8507 11.3645 46.9448 11.3645 47.0766V47.9191H8.79198C8.6602 47.9191 8.56701 47.8937 8.51053 47.8428C8.45406 47.792 8.42676 47.7261 8.42676 47.6442C8.42676 47.5623 8.455 47.4993 8.51242 47.4484C8.56889 47.3976 8.66302 47.3722 8.79198 47.3722H8.87763V45.2345H8.79198C8.6602 45.2345 8.56701 45.2091 8.51053 45.1583C8.45406 45.1075 8.42676 45.0416 8.42676 44.9597C8.42676 44.8778 8.455 44.8119 8.51053 44.7611C8.56607 44.7102 8.6602 44.6848 8.79198 44.6848L11.244 44.6876V45.5197C11.244 45.6496 11.2196 45.7428 11.1697 45.7984C11.1198 45.8539 11.0539 45.8821 10.972 45.8821C10.8901 45.8821 10.8242 45.8548 10.7734 45.7993C10.7226 45.7447 10.6971 45.6506 10.6971 45.5197V45.2345H9.42264V46.0233H9.9027C9.9027 45.8812 9.91587 45.7899 9.94223 45.7485C9.99682 45.6619 10.0759 45.6176 10.1766 45.6176C10.2566 45.6176 10.3216 45.6459 10.3724 45.7014C10.4232 45.7569 10.4486 45.8511 10.4486 45.9828V46.6116C10.4486 46.7312 10.4345 46.8112 10.4063 46.8517C10.3498 46.9354 10.2726 46.9768 10.1766 46.9768C10.075 46.9768 9.99682 46.9335 9.94223 46.846C9.91587 46.8055 9.9027 46.7123 9.9027 46.5683H9.42264L9.42358 46.5702Z" fill="white"/>
<path d="M14.3191 47.7807C14.2711 47.8372 14.2325 47.8739 14.2033 47.8899C14.1741 47.9059 14.1384 47.9134 14.0951 47.9134C14.0113 47.9134 13.9445 47.8852 13.8936 47.8297C13.8428 47.7741 13.8174 47.6809 13.8174 47.551V47.183C13.8174 47.0512 13.8428 46.958 13.8936 46.9015C13.9445 46.8451 14.0113 46.8178 14.0951 46.8178C14.1591 46.8178 14.2127 46.8347 14.256 46.8686C14.2993 46.9025 14.3332 46.959 14.3558 47.038C14.3793 47.1171 14.4029 47.1708 14.4273 47.199C14.4791 47.2545 14.5704 47.3101 14.7022 47.3665C14.834 47.423 14.978 47.4522 15.1342 47.4522C15.378 47.4522 15.5776 47.3957 15.7338 47.2818C15.8336 47.2122 15.8835 47.1275 15.8835 47.0258C15.8835 46.958 15.86 46.895 15.812 46.8357C15.764 46.7764 15.6858 46.7265 15.5776 46.6879C15.5061 46.6615 15.347 46.6248 15.1004 46.5787C14.802 46.5241 14.5761 46.4573 14.4236 46.3791C14.2711 46.301 14.1497 46.1909 14.0612 46.0487C13.9727 45.9066 13.9275 45.7532 13.9275 45.5875C13.9275 45.3258 14.0367 45.0971 14.2551 44.9013C14.4735 44.7055 14.7577 44.6067 15.1079 44.6067C15.2481 44.6067 15.378 44.6227 15.4985 44.6538C15.619 44.6848 15.7273 44.7319 15.8251 44.7959C15.8957 44.7262 15.9673 44.6923 16.0388 44.6923C16.1188 44.6923 16.1838 44.7206 16.2346 44.7761C16.2854 44.8317 16.3109 44.9248 16.3109 45.0547V45.4651C16.3109 45.5969 16.2854 45.6901 16.2346 45.7466C16.1838 45.8031 16.1188 45.8304 16.0388 45.8304C15.971 45.8304 15.9127 45.8097 15.8628 45.7692C15.8233 45.7391 15.7941 45.6788 15.7753 45.5875C15.7555 45.4971 15.731 45.4322 15.7009 45.3927C15.6491 45.3249 15.5719 45.2684 15.4693 45.2223C15.3658 45.1762 15.2472 45.1526 15.1126 45.1526C14.9149 45.1526 14.7596 45.1988 14.6448 45.2901C14.5299 45.3814 14.4725 45.4774 14.4725 45.5762C14.4725 45.644 14.496 45.7089 14.5431 45.772C14.5902 45.8351 14.6589 45.884 14.7493 45.9198C14.8095 45.9443 14.9799 45.9847 15.2594 46.0393C15.539 46.0949 15.7546 46.1551 15.9042 46.221C16.0548 46.2869 16.1791 46.3895 16.2788 46.5307C16.3786 46.6709 16.4285 46.8385 16.4285 47.0314C16.4285 47.3016 16.3334 47.5171 16.1433 47.679C15.891 47.8927 15.5691 47.9991 15.1785 47.9991C15.0279 47.9991 14.8801 47.9812 14.737 47.9445C14.5939 47.9078 14.4546 47.8532 14.32 47.7807H14.3191Z" fill="white"/>
<path d="M19.6882 46.5702V47.3722H21.0823V47.0766C21.0823 46.9448 21.1077 46.8517 21.1585 46.7952C21.2093 46.7387 21.2752 46.7114 21.3571 46.7114C21.439 46.7114 21.5021 46.7396 21.5529 46.7952C21.6037 46.8507 21.6292 46.9448 21.6292 47.0766V47.9191H19.0566C18.9248 47.9191 18.8317 47.8937 18.7752 47.8428C18.7187 47.792 18.6914 47.7261 18.6914 47.6442C18.6914 47.5623 18.7196 47.4993 18.7771 47.4484C18.8335 47.3976 18.9277 47.3722 19.0566 47.3722H19.1423V45.2345H19.0566C18.9248 45.2345 18.8317 45.2091 18.7752 45.1583C18.7187 45.1075 18.6914 45.0416 18.6914 44.9597C18.6914 44.8778 18.7196 44.8119 18.7752 44.7611C18.8307 44.7102 18.9248 44.6848 19.0566 44.6848L21.5087 44.6876V45.5197C21.5087 45.6496 21.4842 45.7428 21.4343 45.7984C21.3844 45.8539 21.3185 45.8821 21.2366 45.8821C21.1548 45.8821 21.0889 45.8548 21.038 45.7993C20.9872 45.7447 20.9618 45.6506 20.9618 45.5197V45.2345H19.6873V46.0233H20.1673C20.1673 45.8812 20.1805 45.7899 20.2069 45.7485C20.2615 45.6619 20.3405 45.6176 20.4413 45.6176C20.5213 45.6176 20.5862 45.6459 20.637 45.7014C20.6879 45.7569 20.7133 45.8511 20.7133 45.9828V46.6116C20.7133 46.7312 20.6992 46.8112 20.6709 46.8517C20.6145 46.9354 20.5373 46.9768 20.4413 46.9768C20.3396 46.9768 20.2615 46.9335 20.2069 46.846C20.1805 46.8055 20.1673 46.7123 20.1673 46.5683H19.6873L19.6882 46.5702Z" fill="white"/>
<path d="M26.0503 47.0397H24.7231L24.5895 47.373H24.7231C24.8549 47.373 24.9481 47.3984 25.0046 47.4492C25.0611 47.5 25.0884 47.5659 25.0884 47.6478C25.0884 47.7297 25.0601 47.7928 25.0046 47.8436C24.949 47.8944 24.8549 47.9198 24.7231 47.9198H23.987C23.8553 47.9198 23.7621 47.8944 23.7056 47.8436C23.6491 47.7928 23.6218 47.7269 23.6218 47.645C23.6218 47.5631 23.651 47.4963 23.7094 47.4454C23.7677 47.3937 23.8647 47.3701 24.0002 47.3739L24.8587 45.2362H24.5019C24.3701 45.2362 24.277 45.2108 24.2205 45.16C24.164 45.1092 24.1367 45.0433 24.1367 44.9614C24.1367 44.8795 24.1649 44.8136 24.2205 44.7628C24.276 44.7119 24.3701 44.6865 24.5019 44.6865L25.6832 44.6893L26.7704 47.3739C26.8984 47.3739 26.9832 47.388 27.0236 47.4163C27.1055 47.4746 27.146 47.5518 27.146 47.6478C27.146 47.7278 27.1187 47.7928 27.0632 47.8436C27.0076 47.8944 26.9144 47.9198 26.7836 47.9198H26.0475C25.9157 47.9198 25.8226 47.8944 25.7661 47.8436C25.7096 47.7928 25.6823 47.7269 25.6823 47.645C25.6823 47.5631 25.7105 47.5 25.7661 47.4492C25.8216 47.3984 25.9157 47.373 26.0475 47.373H26.1812L26.0503 47.0397ZM25.8235 46.4929L25.3839 45.4104L24.9415 46.4929H25.8235Z" fill="white"/>
<path d="M29.9512 46.6848V47.3729H30.1488C30.2806 47.3729 30.3738 47.3983 30.4303 47.4492C30.4868 47.5 30.5141 47.5659 30.5141 47.6478C30.5141 47.7297 30.4858 47.7927 30.4303 47.8436C30.3747 47.8944 30.2806 47.9198 30.1488 47.9198H29.3196C29.1878 47.9198 29.0946 47.8944 29.0381 47.8436C28.9816 47.7927 28.9543 47.7268 28.9543 47.645C28.9543 47.5631 28.9826 47.5 29.04 47.4492C29.0965 47.3983 29.1906 47.3729 29.3196 47.3729H29.4052V45.2353H29.3196C29.1878 45.2353 29.0946 45.2098 29.0381 45.159C28.9816 45.1082 28.9543 45.0423 28.9543 44.9604C28.9543 44.8785 28.9826 44.8126 29.0381 44.7618C29.0937 44.711 29.1878 44.6855 29.3196 44.6855L30.5564 44.6884C30.9423 44.6884 31.2407 44.7844 31.4535 44.9745C31.6662 45.1656 31.7716 45.3981 31.7716 45.672C31.7716 45.8424 31.7217 45.9977 31.622 46.137C31.5222 46.2763 31.3725 46.4006 31.1711 46.5088C31.2869 46.6105 31.4102 46.7404 31.5419 46.8976C31.6238 46.9992 31.734 47.1574 31.8723 47.372C32.0107 47.372 32.102 47.3861 32.1472 47.4143C32.2272 47.4699 32.2667 47.5471 32.2667 47.6459C32.2667 47.7259 32.2394 47.7909 32.1839 47.8417C32.1284 47.8925 32.0352 47.9179 31.9043 47.9179H31.5928C31.1504 47.2336 30.7833 46.8223 30.4915 46.6839H29.9502L29.9512 46.6848ZM29.9512 46.138H30.3776C30.5357 46.138 30.6769 46.1144 30.8012 46.0664C30.9678 46.0024 31.0807 45.9346 31.1381 45.864C31.1956 45.7934 31.2247 45.7228 31.2247 45.6532C31.2247 45.5506 31.1692 45.4546 31.0591 45.367C30.9489 45.2795 30.788 45.2353 30.5762 45.2353H29.9493V46.1389L29.9512 46.138Z" fill="white"/>
<path d="M36.5042 44.8267C36.5381 44.7806 36.5748 44.7458 36.6153 44.7232C36.6548 44.6997 36.6981 44.6884 36.7442 44.6884C36.8242 44.6884 36.8892 44.7157 36.94 44.7712C36.9909 44.8267 37.0163 44.9199 37.0163 45.0508V45.5148C37.0163 45.6466 36.9909 45.7398 36.94 45.7963C36.8892 45.8518 36.8242 45.88 36.7442 45.88C36.6718 45.88 36.6125 45.8593 36.5682 45.8189C36.524 45.7784 36.491 45.7012 36.4694 45.5892C36.4571 45.5148 36.4317 45.4565 36.395 45.416C36.3225 45.336 36.2209 45.272 36.09 45.224C35.9592 45.176 35.8284 45.1524 35.6966 45.1524C35.5328 45.1524 35.3831 45.1882 35.2457 45.2588C35.1092 45.3303 34.9878 45.4452 34.8833 45.6052C34.7788 45.7652 34.7261 45.9553 34.7261 46.1756V46.5305C34.7261 46.7931 34.8212 47.0134 35.0123 47.1894C35.2034 47.3654 35.4688 47.4529 35.8077 47.4529C36.01 47.4529 36.1814 47.4256 36.3225 47.3701C36.4044 47.3381 36.491 47.275 36.5842 47.1809C36.6407 47.1244 36.6859 47.0868 36.7179 47.0708C36.7499 47.0548 36.7866 47.0454 36.8271 47.0454C36.8996 47.0454 36.9636 47.0727 37.0191 47.1282C37.0737 47.1837 37.1019 47.2477 37.1019 47.323C37.1019 47.3983 37.0643 47.4774 36.9899 47.5631C36.8817 47.6873 36.7424 47.7852 36.571 47.8567C36.3414 47.9528 36.0882 48.0008 35.8114 48.0008C35.4876 48.0008 35.1968 47.9339 34.937 47.8012C34.7271 47.6948 34.5492 47.5264 34.4014 47.2957C34.2536 47.0651 34.1802 46.8147 34.1802 46.5427V46.1718C34.1802 45.8876 34.2461 45.6221 34.3788 45.3765C34.5115 45.1298 34.6951 44.9406 34.9294 44.807C35.1638 44.6733 35.4133 44.6074 35.6759 44.6074C35.834 44.6074 35.9818 44.6253 36.1202 44.662C36.2576 44.6987 36.3866 44.7543 36.5052 44.8286L36.5042 44.8267Z" fill="white"/>
<path d="M41.3782 46.5814H40.211V47.373H40.2967C40.4285 47.373 40.5216 47.3984 40.5781 47.4492C40.6346 47.5001 40.6619 47.566 40.6619 47.6478C40.6619 47.7297 40.6337 47.7928 40.5781 47.8436C40.5226 47.8945 40.4285 47.9199 40.2967 47.9199H39.6274C39.4956 47.9199 39.4025 47.8945 39.346 47.8436C39.2904 47.7928 39.2622 47.7269 39.2622 47.645C39.2622 47.5452 39.3055 47.4681 39.393 47.4135C39.4354 47.3852 39.5267 47.3721 39.6651 47.3739V45.2363C39.5691 45.2278 39.4966 45.1977 39.4476 45.1487C39.3987 45.0988 39.3742 45.0367 39.3742 44.9624C39.3742 44.8805 39.4025 44.8146 39.458 44.7637C39.5145 44.7129 39.6077 44.6875 39.7394 44.6875L40.2967 44.6903C40.4285 44.6903 40.5216 44.7148 40.5781 44.7647C40.6346 44.8146 40.6619 44.8805 40.6619 44.9624C40.6619 45.0442 40.6337 45.1101 40.5781 45.161C40.5226 45.2118 40.4285 45.2372 40.2967 45.2372H40.211V46.0373H41.3782V45.2372H41.2926C41.1608 45.2372 41.0676 45.2118 41.0111 45.161C40.9546 45.1101 40.9273 45.0442 40.9273 44.9624C40.9273 44.8805 40.9556 44.8146 41.0111 44.7637C41.0667 44.7129 41.1608 44.6875 41.2926 44.6875L41.8498 44.6903C41.9816 44.6903 42.0748 44.7148 42.1313 44.7647C42.1868 44.8146 42.215 44.8805 42.215 44.9624C42.215 45.0367 42.1906 45.0988 42.1416 45.1487C42.0927 45.1986 42.0202 45.2278 41.9242 45.2363V47.3739C42.0644 47.3739 42.1548 47.3871 42.1962 47.4135C42.2828 47.469 42.327 47.5471 42.327 47.6478C42.327 47.7279 42.2988 47.7928 42.2433 47.8436C42.1868 47.8945 42.0936 47.9199 41.9618 47.9199H41.2926C41.1608 47.9199 41.0676 47.8945 41.0111 47.8436C40.9546 47.7928 40.9273 47.7269 40.9273 47.645C40.9273 47.5631 40.9556 47.5001 41.013 47.4492C41.0704 47.3984 41.1636 47.373 41.2926 47.373H41.3782V46.5814Z" fill="white"/>
</g>
<defs>
<clipPath id="clip0_33_168">
<rect width="46.6313" height="47.999" fill="white" transform="translate(0.422852)"/>
</clipPath>
</defs>
</svg>
