<svg width="143" height="22" viewBox="0 0 143 22" fill="none" xmlns="http://www.w3.org/2000/svg">
<path d="M28.3723 0.391846H0.201904V7.31494H28.3723V0.391846Z" fill="white"/>
<path d="M28.3723 14.2349H0.201904V21.158H28.3723V14.2349Z" fill="white"/>
<path d="M48.1756 5.35086C47.5838 2.44699 46.9627 1.44869 43.6393 1.44869C42.228 1.44869 41.0736 1.84216 40.2867 2.51853C39.9688 2.7754 39.7151 3.1028 39.5458 3.47477C39.3765 3.84674 39.2961 4.25305 39.3112 4.66147C39.3478 5.50714 39.6951 6.30955 40.2867 6.91497C41.0184 7.62062 42.0882 8.24171 43.8637 9.14246C46.0619 10.2676 47.7268 10.9179 48.9365 12.2967C49.6974 13.239 50.1148 14.4122 50.1202 15.6233C50.1421 16.3244 50.0126 17.022 49.7404 17.6684C49.4682 18.3149 49.0598 18.8951 48.543 19.3694C47.3594 20.4392 45.4994 21.1449 42.9922 21.1449C41.1959 21.1151 39.4165 20.7922 37.7243 20.1888C37.523 18.7759 37.2109 17.3809 36.791 16.0168L37.7666 15.7631C38.6673 19.2296 40.2444 20.075 43.2296 20.075C44.4419 20.1078 45.6314 19.741 46.6147 19.0312C47.0679 18.6911 47.4343 18.2487 47.6841 17.7401C47.9338 17.2315 48.0599 16.6711 48.052 16.1046C48.0929 15.1824 47.768 14.2814 47.148 13.5974C46.2473 12.5276 44.7254 11.8512 43.093 11.035C41.3728 10.1603 39.0055 8.88882 38.1893 7.73443C37.6382 6.93991 37.3432 5.99588 37.3438 5.02893C37.3419 4.38057 37.4942 3.74106 37.7883 3.16321C38.0823 2.58535 38.5095 2.08572 39.0348 1.70558C40.0331 0.925148 41.5809 0.391851 43.7759 0.391851C45.3804 0.349241 46.978 0.616431 48.4813 1.17879C48.6504 2.33318 48.904 3.85828 49.1609 5.12648L48.1756 5.35086Z" fill="white"/>
<path d="M54.3999 14.3975C54.3999 12.2252 54.7933 10.8205 55.5542 9.84493C55.8916 9.45531 56.3122 9.14661 56.7851 8.94171C57.2579 8.7368 57.7708 8.64096 58.2858 8.66127C59.4694 8.66127 60.4255 9.05474 61.0758 9.84493C61.8367 10.8205 62.2302 12.2383 62.2302 14.3975C62.2302 16.6737 61.7522 18.1143 61.0465 19.0183C60.6965 19.392 60.2734 19.6899 59.8036 19.8935C59.3337 20.0972 58.8271 20.2023 58.315 20.2023C57.803 20.2023 57.2963 20.0972 56.8265 19.8935C56.3567 19.6899 55.9336 19.392 55.5835 19.0183C54.8779 18.1143 54.3999 16.677 54.3999 14.3975ZM52.3707 14.3747C52.3707 16.9371 53.0471 18.6281 54.143 19.6719C55.2746 20.6474 56.6241 21.0799 58.315 21.0799C60.0873 21.0799 61.4693 20.6279 62.5977 19.6166C63.6708 18.5728 64.3179 16.9111 64.3179 14.3747C64.3179 12.1472 63.6968 10.4303 62.5977 9.32789C61.4986 8.28731 60.2011 7.78003 58.315 7.78003C56.5103 7.78003 55.2161 8.28731 54.117 9.30187C52.9886 10.3945 52.3707 12.1407 52.3707 14.3747Z" fill="white"/>
<path d="M68.0833 8.9863H65.9989V8.08555H68.0833V6.30681C68.0833 4.58985 68.506 3.29238 69.4393 2.3331C70.1555 1.7059 71.0548 1.32635 72.0038 1.25079C72.9527 1.17522 73.9008 1.40766 74.7072 1.91362C75.5234 2.44691 75.9169 3.15256 75.9169 3.65659C75.9169 4.2224 75.634 4.53457 75.1267 4.53457C74.4536 4.53457 74.1999 3.93949 73.8878 3.32165C73.5756 2.70381 73.2114 2.11198 72.3399 2.11198C72.0738 2.10578 71.8096 2.15788 71.5658 2.26461C71.322 2.37134 71.1045 2.53013 70.9286 2.72982C70.366 3.4062 70.0279 4.42076 70.0279 6.42387V8.08555H73.6048V8.9863H70.0279V18.1987C70.0279 19.8896 70.1417 20.0587 72.2553 20.0587V20.7643H65.9696V20.0587C67.9435 20.0587 68.0833 19.8636 68.0833 18.1434V8.9863Z" fill="white"/>
<path d="M74.8209 8.33928C76.5964 8.17019 77.8158 7.49056 78.1768 4.53467H78.8954V8.08564H81.8838V8.98639H78.8954V18.0914C78.8954 19.4149 79.2889 20.0913 80.2742 20.0913C80.9149 20.0826 81.5329 19.8528 82.0237 19.4409L82.4724 20.0588C81.7155 20.7393 80.7258 21.1026 79.7084 21.0734C78.2743 21.0734 76.9509 20.397 76.9509 18.1988V8.98639H74.8339L74.8209 8.33928Z" fill="white"/>
<path d="M88.3938 2.84053C88.3938 2.08286 88.5076 1.86499 89.2393 1.86499H91.9188C93.8926 1.86499 95.1706 2.31699 95.9477 2.9641C96.2925 3.29705 96.5674 3.6955 96.7561 4.13607C96.9448 4.57665 97.0437 5.05048 97.0469 5.52978C97.0469 6.88253 96.5688 7.86782 95.7461 8.5442C94.7283 9.38967 93.1447 9.75712 91.1936 9.75712H88.3743L88.3938 2.84053ZM86.3126 17.7988C86.3126 19.7987 86.1403 19.9385 84.0364 19.9385V20.758H93.2032C96.1298 20.758 97.798 20.0816 98.8971 19.0118C99.4157 18.5059 99.8236 17.8978 100.095 17.2261C100.367 16.5545 100.496 15.8337 100.474 15.1096C100.47 14.4301 100.304 13.7613 99.9903 13.1585C99.6765 12.5558 99.2238 12.0363 98.6695 11.6432C97.4598 10.7132 95.8242 10.2351 93.9934 10.1766V10.1473C95.7689 9.89695 96.9526 9.33114 97.798 8.57347C98.251 8.16317 98.611 7.66075 98.8538 7.0999C99.0967 6.53904 99.2168 5.93274 99.2061 5.32166C99.2114 4.66616 99.0516 4.01986 98.7413 3.44244C98.431 2.86501 97.9802 2.37506 97.4306 2.01782C95.9087 1.00001 94.2145 0.775635 91.6228 0.775635H84.0461V1.60159C86.1566 1.60159 86.3224 1.74142 86.3224 3.7738L86.3126 17.7988ZM88.3938 10.8107H91.9025C94.2113 10.8107 95.7656 11.2042 96.7509 11.9684C97.2373 12.3236 97.6318 12.7898 97.9016 13.3283C98.1714 13.8667 98.3087 14.4618 98.3021 15.0641C98.3021 16.5306 97.8761 17.5745 97.1997 18.2801C96.2404 19.2556 94.9462 19.6881 92.9431 19.6881H89.4376C88.5629 19.6881 88.3938 19.4898 88.3938 18.3061V10.8107Z" fill="white"/>
<path d="M109.856 18.5402C109.15 19.2426 108.194 20.0035 106.812 20.0035C106.127 20.0311 105.458 19.7868 104.952 19.3239C104.736 19.0841 104.57 18.8035 104.464 18.4985C104.358 18.1936 104.314 17.8706 104.334 17.5484C104.334 16.2477 105.121 15.5226 106.22 14.947C107.261 14.2966 108.646 13.9032 109.856 13.5682V18.5402ZM111.807 11.6887C111.807 10.453 111.609 9.68882 110.877 8.87261C110.145 8.05641 109.186 7.7735 107.495 7.7735C106.372 7.73844 105.261 8.01173 104.282 8.56369C103.381 9.09699 102.819 9.86442 102.819 10.5343C102.81 10.6417 102.824 10.7497 102.86 10.8512C102.896 10.9527 102.954 11.0453 103.029 11.1228C103.103 11.2004 103.194 11.2611 103.294 11.3009C103.394 11.3407 103.501 11.3587 103.609 11.3537C103.826 11.3735 104.042 11.3161 104.221 11.1918C104.399 11.0675 104.528 10.8841 104.585 10.6741C104.754 10.1476 105.055 9.67306 105.459 9.29535C105.999 8.85499 106.679 8.62406 107.375 8.64499C108.305 8.64499 108.981 8.92681 109.404 9.49046C109.768 9.96847 109.856 10.8139 109.856 11.4611V12.674L108.194 13.0739C106.717 13.3483 105.303 13.8917 104.022 14.6771C102.783 15.4933 102.276 16.5079 102.276 17.8053C102.262 18.2692 102.357 18.7298 102.553 19.1504C102.749 19.5711 103.04 19.9401 103.404 20.2279C104.15 20.7975 105.068 21.0958 106.006 21.0734C106.734 21.1005 107.46 20.977 108.138 20.7107C108.816 20.4443 109.432 20.0409 109.947 19.5255H110.031C110.288 20.4523 110.88 20.9596 111.865 20.9596C112.46 20.9613 113.046 20.822 113.576 20.5531L113.407 19.9027C113.177 20.0383 112.913 20.106 112.646 20.0978C112.083 20.0978 111.8 19.5353 111.8 18.2703L111.807 11.6887Z" fill="white"/>
<path d="M126.141 18.2539C126.141 19.8342 126.255 20.0586 127.523 20.0586V20.7643H122.759V20.0586C124.112 20.0586 124.196 19.8895 124.196 18.1986V11.9161C124.196 10.817 124.057 9.91623 123.52 9.35042C123.302 9.15071 123.045 8.99778 122.765 8.90103C122.486 8.80428 122.189 8.76577 121.894 8.78786C120.71 8.78786 119.442 9.8577 118.317 11.4088V18.1986C118.317 19.8895 118.346 20.0586 119.67 20.0586V20.7643H114.73V20.0586C116.249 20.0586 116.356 19.8895 116.356 18.1986V11.3698C116.356 9.74389 116.216 9.53902 114.73 9.56504V8.94719C115.969 8.74883 116.929 8.46593 117.859 7.78955L118.138 7.95864L118.252 10.1276H118.307C119.436 8.6903 120.87 7.78955 122.421 7.78955C123.634 7.78955 124.505 8.11473 125.126 8.6903C125.747 9.26587 126.141 10.3162 126.141 11.8185V18.2539Z" fill="white"/>
<path d="M132.745 13.8316L136.774 9.92938C137.535 9.22374 137.731 8.80101 136.378 8.80101V8.08561H140.55V8.788C140.189 8.78257 139.83 8.85531 139.5 9.00124C139.169 9.14717 138.874 9.36284 138.635 9.63347L135.675 12.4495L139.987 18.9889C140.605 19.9645 141.226 20.088 142.072 20.0588V20.7644H138.859L134.267 13.6625L132.687 15.2136V18.1987C132.687 19.8246 132.745 20.0588 134.297 20.0588V20.7644H129.055V20.0588C130.681 20.0588 130.742 19.8344 130.742 18.1987V4.84356C130.742 3.21765 130.573 3.01279 129.055 3.01279V2.3917C130.254 2.26421 131.41 1.86976 132.437 1.2373L132.687 1.4064V13.8316H132.745Z" fill="white"/>
</svg>
