<svg width="118" height="29" viewBox="0 0 118 29" fill="none" xmlns="http://www.w3.org/2000/svg">
<g clip-path="url(#clip0_15_187)">
<path d="M46.4794 13.8773C46.012 11.3438 44.6736 9.17719 42.1614 8.21646C41.624 8.01548 41.0545 7.91499 40.4821 7.88149C39.1666 7.79166 37.8968 7.95458 36.7777 8.64125C36.3057 8.89095 35.7226 9.34619 35.2293 9.04016C34.8623 8.77371 34.6263 8.27431 34.1498 8.15251C33.5575 8.0033 32.8191 8.0505 32.2923 8.24995C32.1765 8.3139 32.137 8.40373 32.1293 8.53771C32.1232 10.8444 32.1309 24.5078 32.1232 27.7721C32.1156 28.0005 32.0776 28.2091 32.4201 28.3979C32.9195 28.6476 33.5773 28.7039 34.1239 28.6126C34.9582 28.5075 34.8882 27.9152 34.8882 27.2499C34.8882 26.0882 34.8882 23.8272 34.8928 22.7401C34.8821 22.1356 34.9811 21.4368 35.7591 21.7139C36.2235 21.9255 36.5965 22.2666 37.0807 22.463C37.912 22.8436 38.8651 23.0933 39.8015 23.1283C42.1264 22.9715 44.3493 21.6012 45.5917 19.6402C46.2952 18.6185 46.4154 17.5497 46.5235 16.3469C46.5829 15.5171 46.6027 14.6645 46.4855 13.9062L46.4809 13.8773H46.4794ZM38.1632 20.3147C36.7411 19.8564 35.7835 18.8347 35.2825 17.6045C34.0158 14.5701 35.6282 10.3252 39.261 10.208C45.9572 9.89735 44.7894 22.5772 38.1952 20.3253L38.1632 20.3147Z" fill="white"/>
<path d="M57.9768 7.93799C54.7856 7.34267 51.0736 8.70231 49.5328 11.6713C48.6208 13.4709 48.4167 16.7505 49.3607 18.5624C49.9256 19.6875 50.8802 20.9908 51.8836 21.8237C52.3982 22.218 53.0148 22.3885 53.6452 22.5362C55.151 22.9641 56.7892 22.9488 58.3483 22.7631C66.1164 21.4963 66.1057 9.46054 58.0073 7.94408L57.9768 7.93799ZM56.1361 20.5615C54.6866 20.4945 53.2645 19.689 52.5474 18.5471C50.5635 15.6056 51.8866 10.5735 55.7996 10.2218C62.9236 9.32656 63.0317 21.0913 56.1696 20.5645H56.1361V20.5615Z" fill="white"/>
<path d="M76.1939 8.50737C74.9012 9.01438 73.9009 10.1411 73.0392 11.1947C72.8306 11.4626 72.6616 11.7458 72.5337 12.058C71.914 13.9794 71.6186 16.1673 72.3281 18.0431C73.9968 22.7722 80.1677 24.2962 84.2025 21.6211C85.4479 20.8096 86.2991 19.6585 86.8243 18.2487C89.3122 11.4961 82.7074 5.72872 76.2213 8.49519L76.1924 8.50737H76.1939ZM79.2831 20.5614C77.8428 20.4944 76.4436 19.6951 75.7204 18.5623C73.7091 15.6009 75.0109 10.6268 78.9467 10.2446C86.0798 9.32803 86.1833 21.0791 79.3166 20.5629H79.2831V20.5614Z" fill="white"/>
<path d="M29.2734 12.635C28.4726 10.7242 26.947 9.04027 24.9676 8.37491C23.6643 7.89683 22.2621 7.86334 20.8963 7.94251C18.8607 8.03082 16.8981 9.1164 15.8095 10.6709C12.4218 15.3299 15.0178 22.5849 21.0973 22.8468C23.1117 22.9762 25.225 22.6625 26.8693 21.414C27.2454 21.1187 27.5941 20.7776 27.8148 20.3955C27.9656 20.1366 28.1269 19.8291 28.2853 19.6053C29.8383 17.7462 30.1184 14.9006 29.2826 12.6609L29.2719 12.6335L29.2734 12.635ZM21.7825 8.12978C21.7246 8.1313 21.6135 8.12217 21.5495 8.09933C21.5099 8.08715 21.4947 8.07954 21.5312 8.08563C21.5891 8.09629 21.7337 8.1176 21.7886 8.12978H21.7825ZM21.8281 20.5766C15.1731 20.3787 15.8369 9.28692 22.6747 10.2614C25.327 10.5826 27.0353 13.1664 26.8739 15.7365C26.7901 18.4847 24.6266 20.633 21.8586 20.5782H21.8266L21.8281 20.5766Z" fill="white"/>
<path d="M16.3182 4.55493C16.6303 4.05858 16.5755 3.14657 16.207 2.69285C15.7229 2.20868 14.9494 2.44468 14.3267 2.42945C9.96305 2.54364 5.57354 2.24522 1.21295 2.41422C0.243083 2.48426 -0.00357075 3.41454 0.215677 4.22606C0.334436 4.71632 0.855148 4.84269 1.30278 4.86553C1.8783 4.90207 2.61217 4.90816 3.2151 4.931C4.04185 4.98277 4.87773 4.87619 5.63748 5.1944C6.46271 5.50805 6.94383 6.56927 6.88293 7.36404C6.88293 8.54554 6.88598 9.81992 6.8875 11.8251C6.93622 15.9421 6.80833 20.423 6.94688 22.2668C7.18135 22.7129 8.53794 22.6687 9.01755 22.5637C9.45757 22.4601 9.75294 22.3322 9.79862 21.9166C9.82298 20.2144 9.80166 14.415 9.8108 10.2691C9.8108 8.8059 9.8108 7.63505 9.81232 7.07628C9.81537 6.86007 9.8245 6.6728 9.89606 6.43376C10.2371 5.36797 11.172 4.78636 12.2926 4.82899C13.2807 4.82138 14.7073 4.91273 15.5493 4.85944C15.8279 4.8366 16.1279 4.79093 16.306 4.56864L16.3182 4.55341V4.55493Z" fill="white"/>
<path d="M69.4228 1.74725C69.2051 0.689078 67.8393 0.867216 67.0309 0.990543C66.6685 1.09255 66.7325 1.26765 66.7264 1.60413C66.7264 1.89951 66.7264 2.17966 66.7264 2.48569C66.7264 7.01833 66.7264 20.2128 66.7264 22.1236C66.6868 22.422 66.9715 22.5057 67.2364 22.5347C67.6399 22.5879 68.392 22.6245 68.8381 22.46C69.4533 22.2682 69.47 21.5602 69.4746 20.9893C69.5507 14.6874 69.7776 8.06736 69.4289 1.77313L69.4228 1.74877V1.74725Z" fill="white"/>
<path d="M117.596 8.21823C116.925 7.98528 115.998 8.05227 115.468 8.56842C114.851 9.29315 114.563 10.3559 114.085 11.2968C113.406 12.6763 112.767 14.0298 111.961 15.3666C111.186 16.5588 110.261 15.9376 109.842 14.8581C109.271 13.2213 108.431 11.513 107.627 9.95242C107.146 8.96428 106.675 8.10099 105.424 8.11013C102.086 8.10861 98.7304 7.96092 95.4006 8.07359C94.7885 8.09643 94.1704 8.14819 93.569 8.2837C90.501 8.9186 88.7699 11.6577 89.691 14.6708C89.9103 15.4976 90.7309 16.1614 90.6609 17.0506C90.5909 17.7144 89.8616 18.4056 89.7139 19.173C89.5738 19.7622 89.7139 20.3362 89.9636 20.8189C90.1904 21.2574 90.4843 21.7354 90.3503 22.244C90.2194 22.8591 89.5083 23.4849 89.2343 24.1868C88.6526 25.4642 89.4078 26.9471 90.5574 27.6018C91.9779 28.625 98.3757 28.6235 100.113 28.1165C101.727 27.7115 102.991 26.2605 103.115 24.5994C103.309 22.8012 102.072 21.0396 100.357 20.525C98.0605 19.8353 94.5845 20.8067 92.6722 19.8399C92.2839 19.5749 92.0723 18.9598 92.322 18.5274C92.6022 18.0265 93.4106 18.0889 93.9572 18.159C94.5206 18.229 95.0793 18.2914 95.6259 18.2656C95.7614 18.261 95.8954 18.2518 96.0309 18.2381C98.2767 18.0509 100.25 16.7537 100.895 14.5932C101.106 13.8699 101.107 13.0874 101.014 12.3596C100.993 11.7308 100.519 10.8568 101.34 10.7106C102.082 10.6178 102.994 10.6848 103.769 10.668C104.3 10.668 104.869 10.7487 105.153 11.2496C106.311 13.4558 107.61 15.5128 108.571 17.7997C109.365 19.4866 109.318 20.6742 108.505 22.276C108.091 23.0936 107.621 23.8914 107.168 24.6892C106.747 25.4185 106.319 26.1524 105.947 26.9015C105.716 27.3674 105.603 27.7785 105.806 28.0129C106.264 28.4621 107.442 28.3844 107.981 27.9718C108.236 27.7815 108.44 27.4968 108.622 27.1801C109.225 26.0945 109.77 24.913 110.337 23.8092C110.928 22.5226 111.668 21.4188 112.312 20.1809C113.594 17.7296 114.879 15.2281 116.168 12.7935C116.712 11.7947 117.28 10.6711 117.755 9.64943C117.979 9.18201 118.218 8.44661 117.613 8.22889L117.592 8.21975L117.596 8.21823ZM93.1944 22.6566C93.8674 22.448 94.8571 22.4861 95.6533 22.4617C96.8592 22.4693 97.8504 22.4328 98.8568 22.5774C101.08 22.9976 100.934 25.8296 98.7045 26.163C97.5748 26.332 96.3065 26.2864 95.0824 26.2742C94.4125 26.2529 93.7578 26.2361 93.1213 26.0245C91.2775 25.4718 91.4724 23.2306 93.1701 22.6642L93.1944 22.6566ZM98.5416 13.4847C98.3193 15.8538 95.2179 16.8983 93.4061 15.5554C91.8028 14.4394 91.8104 11.8099 93.3482 10.6452C95.5529 9.09979 98.8705 10.5523 98.5447 13.4543L98.5416 13.4863V13.4847Z" fill="white"/>
</g>
<defs>
<clipPath id="clip0_15_187">
<rect width="117.859" height="27.7576" fill="white" transform="translate(0.140625 0.89624)"/>
</clipPath>
</defs>
</svg>
