<svg width="578" height="400" viewBox="0 0 578 400" fill="none" xmlns="http://www.w3.org/2000/svg">
<g clip-path="url(#clip0_3351_40230)">
<rect width="578" height="400" rx="6" fill="#232323"/>
<rect x="-6.25" y="-145.885" width="587.5" height="626.184" fill="#232323" stroke="#2E2E2E" stroke-width="0.5"/>
<line x1="177.5" y1="-146.135" x2="177.5" y2="480.549" stroke="#2E2E2E" stroke-width="0.5"/>
<line x1="361.25" y1="-146.135" x2="361.25" y2="480.549" stroke="#2E2E2E" stroke-width="0.5"/>
<line x1="545" y1="-146.135" x2="545" y2="480.549" stroke="#2E2E2E" stroke-width="0.5"/>
<line x1="30.5" y1="-146.135" x2="30.5" y2="480.549" stroke="#2E2E2E" stroke-width="0.5"/>
<line x1="214.25" y1="-146.135" x2="214.25" y2="480.549" stroke="#2E2E2E" stroke-width="0.5"/>
<line x1="398" y1="-146.135" x2="398" y2="480.549" stroke="#2E2E2E" stroke-width="0.5"/>
<line x1="140.75" y1="-146.135" x2="140.75" y2="480.549" stroke="#2E2E2E" stroke-width="0.5"/>
<line x1="324.5" y1="-146.135" x2="324.5" y2="480.549" stroke="#2E2E2E" stroke-width="0.5"/>
<line x1="508.25" y1="-146.135" x2="508.25" y2="480.549" stroke="#2E2E2E" stroke-width="0.5"/>
<line x1="104" y1="-146.135" x2="104" y2="480.549" stroke="#2E2E2E" stroke-width="0.5"/>
<line x1="287.75" y1="-146.135" x2="287.75" y2="480.549" stroke="#2E2E2E" stroke-width="0.5"/>
<line x1="471.5" y1="-146.135" x2="471.5" y2="480.549" stroke="#2E2E2E" stroke-width="0.5"/>
<line x1="67.25" y1="-146.135" x2="67.25" y2="480.549" stroke="#2E2E2E" stroke-width="0.5"/>
<line x1="251" y1="-146.135" x2="251" y2="480.549" stroke="#2E2E2E" stroke-width="0.5"/>
<line x1="434.75" y1="-146.135" x2="434.75" y2="480.549" stroke="#2E2E2E" stroke-width="0.5"/>
<line x1="-6.5" y1="36.0762" x2="581.5" y2="36.0762" stroke="#2E2E2E" stroke-width="0.5"/>
<line x1="-6.5" y1="109.576" x2="581.5" y2="109.576" stroke="#2E2E2E" stroke-width="0.5"/>
<line x1="-6.5" y1="183.076" x2="581.5" y2="183.076" stroke="#2E2E2E" stroke-width="0.5"/>
<line x1="-6.5" y1="256.576" x2="581.5" y2="256.576" stroke="#2E2E2E" stroke-width="0.5"/>
<line x1="-6.5" y1="330.076" x2="581.5" y2="330.076" stroke="#2E2E2E" stroke-width="0.5"/>
<line x1="-6.5" y1="72.8262" x2="581.5" y2="72.8262" stroke="#2E2E2E" stroke-width="0.5"/>
<line x1="-6.5" y1="146.326" x2="581.5" y2="146.326" stroke="#2E2E2E" stroke-width="0.5"/>
<line x1="-6.5" y1="219.826" x2="581.5" y2="219.826" stroke="#2E2E2E" stroke-width="0.5"/>
<line x1="-6.5" y1="293.326" x2="581.5" y2="293.326" stroke="#2E2E2E" stroke-width="0.5"/>
<line x1="-6.5" y1="366.826" x2="581.5" y2="366.826" stroke="#2E2E2E" stroke-width="0.5"/>
<rect x="389.5" y="78.5" width="130.469" height="113.056" rx="1.5" fill="#2E2E2E" stroke="#1C1C1C"/>
<rect x="395.5" y="85.5" width="118" height="98" rx="1.5" fill="black" stroke="#1C1C1C"/>
<path d="M460.994 144.011L472.994 158L474.332 161.529H454.213L444.148 144.011H460.994Z" fill="white"/>
<path d="M474.326 161.532L484.375 144.014L464.262 108.971H444.148L474.326 161.532Z" fill="white"/>
<path d="M434.096 126.484H454.209L434.104 161.527L424.039 144.01L434.096 126.484Z" fill="white"/>
<rect x="76.5" y="54.5" width="188.677" height="188.677" rx="1.5" fill="#2E2E2E" stroke="#1C1C1C"/>
<rect x="83.7578" y="89.3384" width="174.161" height="146.096" rx="1.5" fill="#F2F2F2" stroke="#2E2E2E"/>
<path d="M153.471 123.507C153.049 123.46 152.617 123.422 152.176 123.413C151.941 123.413 151.734 123.413 151.471 123.432C151.199 123.45 150.983 123.488 150.786 123.535C149.94 123.676 149.133 123.939 148.372 124.249C147.818 124.493 147.245 124.69 146.738 125.019C145.837 125.573 145.02 126.239 144.306 126.981C143.573 127.714 142.954 128.521 142.409 129.385C141.911 130.137 141.489 130.925 141.104 131.733C140.86 132.25 140.672 132.794 140.568 133.358C140.531 133.639 140.446 133.912 140.465 134.203C140.503 134.485 140.54 134.776 140.578 135.076C140.644 135.433 140.747 135.395 141.038 135.151C141.235 134.992 141.442 134.823 141.63 134.672C141.742 134.578 141.874 134.475 141.986 134.372C142.08 134.259 142.165 134.146 142.231 134.015C142.738 133.123 143.104 132.24 143.611 131.395C144.109 130.559 144.663 129.742 145.311 128.972C146.081 128.033 147.217 127.413 148.325 126.916C148.936 126.653 149.565 126.399 150.213 126.239C150.532 126.136 150.861 126.089 151.189 126.033C151.368 125.995 151.481 125.995 151.631 125.986C151.79 125.986 151.941 125.986 152.11 125.986C152.917 126.033 153.772 126.192 154.58 126.455C155.81 126.822 157.031 127.366 158.017 128.211C158.805 128.85 159.331 129.705 159.838 130.522C159.942 130.709 160.026 130.907 160.158 131.076C160.618 131.733 160.862 131.902 161.397 131.846C161.519 131.836 161.641 131.846 161.754 131.818C162.13 131.742 162.261 131.282 162.111 130.578C161.914 129.517 161.36 128.55 160.693 127.657C160.026 126.746 159.153 125.976 158.214 125.319C157.519 124.821 156.749 124.436 155.96 124.098C155.162 123.798 154.326 123.601 153.471 123.45L153.453 123.516L153.471 123.507Z" fill="black"/>
<path d="M131.252 125.242C129.853 126.284 128.82 127.665 128.097 129.12C127.862 129.656 127.543 130.163 127.383 130.736C126.773 132.708 126.632 134.746 126.876 136.708C126.989 137.582 127.111 138.446 127.318 139.291L127.524 140.108C127.599 140.38 127.74 140.624 127.853 140.878C127.975 141.131 128.078 141.385 128.247 141.62C128.388 141.864 128.651 142.042 128.839 142.239C129.111 142.474 129.13 142.408 129.205 142.052C129.243 141.873 129.299 141.62 129.384 141.319C129.431 141.037 129.412 140.765 129.374 140.474C129.196 139.469 128.914 138.521 128.754 137.535C128.642 136.549 128.52 135.544 128.538 134.52C128.538 133.29 128.961 132.06 129.459 130.952C130.003 129.712 130.792 128.595 131.807 127.749C132.126 127.496 132.436 127.233 132.802 127.045C133.168 126.82 133.478 126.66 133.835 126.585C134.906 126.294 136.201 126.547 137.319 127.054C137.751 127.261 138.145 127.543 138.502 127.862C138.868 128.153 139.225 128.463 139.545 128.792C139.695 128.933 139.808 129.092 139.948 129.242C140.211 129.505 140.371 129.693 140.568 129.778C140.784 129.853 140.972 129.872 141.207 129.862C141.31 129.862 141.413 129.862 141.498 129.862C141.648 129.844 141.723 129.731 141.789 129.505C141.845 129.289 141.911 128.923 141.751 128.595C141.376 127.552 140.737 126.557 139.901 125.721C139 124.979 137.939 124.406 136.727 124.087C135.826 123.89 134.849 123.824 133.854 124.021C133.356 124.124 132.858 124.275 132.379 124.509C131.919 124.735 131.6 124.979 131.215 125.214L131.243 125.261L131.252 125.242Z" fill="black"/>
<path d="M120.939 143.528C120.835 143.857 120.788 144.185 120.723 144.533C120.676 144.965 120.666 145.293 120.704 145.622C120.77 146.289 120.911 146.899 121.098 147.5C121.23 147.942 121.343 148.383 121.53 148.796C122.244 150.242 123.296 151.482 124.535 152.384C124.817 152.571 125.089 152.778 125.362 152.975L126.245 153.454C126.62 153.642 127.015 153.802 127.409 153.961C127.597 154.055 127.822 154.065 128.038 154.065C128.245 154.065 128.461 154.065 128.686 154.074C128.959 154.074 128.93 154.008 128.789 153.773C128.686 153.604 128.583 153.426 128.498 153.285C128.433 153.163 128.367 153.06 128.311 152.966C128.282 152.909 128.245 152.872 128.207 152.797C128.16 152.769 128.113 152.74 128.076 152.703L127.155 152.036C126.874 151.792 126.601 151.548 126.31 151.341C125.737 150.919 125.174 150.496 124.648 149.98C124.01 149.369 123.681 148.486 123.409 147.651C123.249 147.19 123.146 146.702 123.07 146.223C123.005 145.744 122.967 145.228 123.005 144.852C123.08 144.27 123.258 143.697 123.549 143.171C123.972 142.373 124.611 141.65 125.409 141.199C126.029 140.833 126.733 140.711 127.418 140.654L127.869 140.636C128.433 140.56 128.62 140.391 128.789 140.006C128.827 139.912 128.874 139.828 128.902 139.743C128.996 139.462 128.752 139.171 128.217 138.936C127.418 138.673 126.526 138.692 125.644 138.861C124.761 139.049 123.869 139.415 123.164 140.044C122.084 140.936 121.305 142.166 120.892 143.481L120.948 143.5L120.939 143.528Z" fill="black"/>
<path d="M224.603 147.037C224.054 147.17 223.474 147.429 223.035 147.844C222.87 147.993 222.776 148.189 222.658 148.331C222.227 148.88 221.929 149.727 221.866 150.589C221.819 150.973 221.882 151.366 221.984 151.726C222.046 151.954 222.109 152.189 222.172 152.416C222.258 152.628 222.203 152.918 222.242 153.185C222.242 153.365 222.101 153.475 221.788 153.514C221.631 153.53 221.419 153.53 221.192 153.491C221.082 153.467 220.964 153.444 220.854 153.397C220.792 153.373 220.737 153.35 220.682 153.326C220.65 153.287 220.611 153.256 220.58 153.216C220.368 152.926 220.172 152.62 220.047 152.291C219.945 151.962 219.89 151.624 219.858 151.279C219.78 150.605 219.913 149.923 220.156 149.287C220.447 148.542 220.643 147.703 221.199 146.997C221.803 146.292 222.517 145.774 223.317 145.405C223.803 145.17 224.329 145.029 224.862 144.943C225.67 144.809 226.493 144.911 227.262 145.084C227.56 145.162 227.865 145.209 228.156 145.296C228.461 145.366 228.752 145.46 229.034 145.586C229.159 145.641 229.301 145.664 229.403 145.758C229.787 146.08 229.818 146.299 229.599 146.731C229.552 146.833 229.505 146.927 229.45 147.021C229.261 147.319 228.924 147.46 228.587 147.437C228.077 147.421 227.693 147.28 227.293 147.209C226.909 147.123 226.556 147.044 226.203 146.982C225.685 146.911 225.144 146.911 224.603 147.084L224.587 147.037H224.603Z" fill="black"/>
<path d="M213.101 157.555C212.764 156.935 212.521 156.222 212.56 155.516C212.529 155.155 212.639 154.842 212.686 154.512C212.756 154.191 212.89 153.908 212.999 153.61C213.188 153.163 213.431 152.708 213.76 152.379C214.889 151.179 216.56 150.607 218.136 150.858C218.826 150.991 219.501 151.211 220.065 151.603C220.41 151.861 220.771 152.112 221.038 152.442C221.312 152.771 221.469 153.171 221.61 153.555C221.697 153.799 221.54 153.853 221.234 153.814C220.928 153.783 220.465 153.673 220.073 153.532C219.916 153.453 219.814 153.312 219.665 153.242L219.258 152.999C218.975 152.873 218.709 152.771 218.458 152.661C217.932 152.465 217.36 152.395 216.725 152.481C215.972 152.606 215.258 153.155 214.811 153.767C214.568 154.073 214.395 154.504 214.278 154.928C214.239 155.14 214.176 155.351 214.191 155.555C214.168 155.767 214.215 155.963 214.262 156.167C214.403 156.653 214.725 157.116 215.164 157.5C215.846 158.073 216.717 158.504 217.634 158.763C218.348 158.967 219.085 158.998 219.814 159.069C219.971 159.092 220.136 159.092 220.293 159.123C220.889 159.202 221.061 159.453 221.171 159.727C221.195 159.798 221.234 159.861 221.25 159.923C221.297 160.119 221.03 160.3 220.536 160.472C220.175 160.527 219.814 160.574 219.438 160.598C219.069 160.582 218.701 160.559 218.324 160.496C217.579 160.394 216.826 160.182 216.081 159.892C214.991 159.445 213.854 158.778 213.054 157.579L213.086 157.555H213.101Z" fill="black"/>
<path d="M213.459 156.629C213.686 157.232 214.243 157.828 215.011 158.228C215.772 158.636 216.729 158.903 217.74 159.044C218.478 159.146 219.246 159.13 220.015 159.162C222.752 159.264 225.606 159.115 228.484 159.052C229.763 159.02 231.057 158.997 232.343 159.075C233.174 159.13 234.013 159.209 234.845 159.397C235.668 159.624 236.476 160.024 237.119 160.605C237.519 160.973 237.37 161.028 236.884 161.044C236.648 161.044 236.303 161.083 235.927 161.146C235.55 161.201 235.151 161.224 234.719 161.224C233.26 161.028 231.7 161.075 230.124 161.177C228.539 161.201 226.908 161.279 225.246 161.287C223.261 161.295 221.183 161.601 219.066 161.522C217.905 161.475 216.713 161.342 215.529 161.012C214.353 160.683 213.129 160.134 212.196 159.154C211.616 158.581 211.161 157.813 210.933 157.005C210.698 156.197 210.706 155.35 210.863 154.566C211.357 152.182 213.333 150.268 215.701 149.884C217.537 149.563 219.372 150.143 220.838 151.084C221.168 151.288 221.489 151.492 221.779 151.735C222.846 152.676 222.932 153.201 222.65 153.805C222.595 153.939 222.564 154.072 222.509 154.166C222.367 154.441 221.568 154.417 220.854 153.907C220.305 153.539 219.772 153.194 219.231 152.888C218.682 152.605 218.14 152.378 217.607 152.245C216.541 151.978 215.552 152.135 214.729 152.723C214.141 153.17 213.67 153.837 213.451 154.558C213.231 155.28 213.262 156.001 213.513 156.589L213.459 156.621V156.629Z" fill="black"/>
<path d="M227.317 146.967C226.501 146.402 225.482 146.144 224.462 146.277C224.094 146.332 223.741 146.481 223.403 146.63C222.172 147.108 221.153 148.23 221.043 149.618C220.972 150.229 221.129 150.865 221.412 151.445C221.804 152.19 222.337 152.817 222.682 153.759C222.8 154.049 222.682 154.127 222.321 154.143C222.141 154.151 221.882 154.143 221.576 154.127C221.427 154.111 221.263 154.088 221.113 154.041C220.972 153.978 220.839 153.9 220.714 153.806C220.517 153.61 220.282 153.437 220.118 153.202C219.961 152.959 219.796 152.731 219.663 152.465C219.388 151.947 219.176 151.374 219.059 150.771C218.8 149.555 219.114 148.198 219.812 147.202C220.627 146.01 221.717 144.991 223.058 144.512C224.517 143.987 226.148 144.058 227.536 144.638C228.391 144.999 229.136 145.532 229.779 146.159C230.775 147.14 231.34 148.543 231.403 149.908C231.473 150.967 231.379 152.025 231.073 153.021C231.003 153.233 230.971 153.468 230.838 153.657C230.728 153.837 230.626 153.978 230.532 154.096C230.43 154.206 230.305 154.26 230.203 154.308C229.999 154.402 229.771 154.386 229.521 154.331C229.411 154.308 229.309 154.3 229.23 154.268C228.995 154.206 228.768 153.68 228.799 153.115C228.838 152.284 229.089 151.625 229.144 150.951C229.215 150.292 229.199 149.681 229.034 149.132C228.807 148.324 228.203 147.571 227.325 147.022L227.348 146.975L227.317 146.967Z" fill="black"/>
<path d="M234.265 149.076C234.814 149.146 235.355 149.28 235.817 149.507C236.288 149.703 236.743 149.978 237.158 150.291C237.307 150.417 237.456 150.527 237.613 150.636C237.754 150.762 237.888 150.903 238.013 151.052C238.429 151.585 238.735 152.205 238.868 152.84C238.962 153.154 238.97 153.483 238.994 153.797C238.97 154.118 238.954 154.432 238.876 154.746C238.766 155.287 238.578 155.82 238.296 156.291C238.092 156.581 237.841 156.84 237.558 157.044C237.402 157.13 237.229 157.185 237.072 157.24C236.9 157.279 236.727 157.295 236.562 157.318C236.359 157.334 236.374 157.279 236.453 157.075C236.492 156.973 236.539 156.832 236.578 156.675C236.625 156.526 236.633 156.306 236.672 156.165C236.766 155.93 236.853 155.734 236.876 155.506C236.939 155.31 237.002 155.13 237.041 154.934C237.135 154.542 237.135 154.134 237.143 153.679C237.143 153.115 236.743 152.644 236.343 152.275C235.912 151.844 235.276 151.538 234.633 151.374C234.241 151.287 233.825 151.272 233.425 151.35C232.814 151.444 232.179 151.703 231.684 152.158C231.308 152.519 231.073 152.997 230.83 153.452C230.775 153.546 230.743 153.663 230.681 153.758C230.383 154.079 230.179 154.134 229.74 154.04C229.638 154.016 229.536 154.009 229.449 153.977C229.144 153.891 228.971 153.593 228.947 153.138C228.932 152.801 229.002 152.487 229.112 152.181C229.214 151.868 229.355 151.57 229.52 151.272C229.881 150.691 230.422 150.205 231.034 149.805C231.496 149.515 232.006 149.264 232.563 149.131C233.12 149.013 233.692 148.958 234.257 149.013V149.068L234.265 149.076Z" fill="black"/>
<path d="M120.263 168.144C121.15 169.273 121.448 170.434 121.597 171.602C121.62 172.034 121.714 172.457 121.659 172.896C121.605 173.657 121.369 174.418 121.016 175.108C120.656 175.806 120.107 176.378 119.495 176.817C119.22 177.013 118.922 177.162 118.64 177.319C118.342 177.453 118.028 177.531 117.73 177.641C117.346 177.758 116.946 177.806 116.554 177.868C116.358 177.9 116.162 177.868 115.958 177.829C115.762 177.806 115.566 177.751 115.378 177.657C115.142 177.539 115.182 177.5 115.37 177.288C115.566 177.061 115.88 176.613 116.248 176.496L117.174 176.151C117.432 175.978 117.738 175.884 117.95 175.696C118.483 175.469 118.883 175.108 119.283 174.676C119.754 174.127 119.824 173.28 119.801 172.504C119.777 171.634 119.55 170.716 119.126 169.979C118.883 169.563 118.491 169.155 118.028 168.81C117.354 168.293 116.546 167.885 115.746 167.885C115.119 167.861 114.57 168.12 114.084 168.473C113.966 168.528 113.88 168.646 113.77 168.724C113.354 169.022 113.174 169.108 112.821 168.959C112.743 168.928 112.656 168.912 112.586 168.873C112.343 168.755 112.335 168.426 112.57 167.963C112.947 167.305 113.55 166.654 114.413 166.285C114.837 166.097 115.307 165.971 115.77 165.948C116.24 165.948 116.703 166.003 117.134 166.128C118.428 166.497 119.432 167.187 120.311 168.105L120.279 168.144H120.263Z" fill="black"/>
<path d="M107.626 176.106C110.222 176.255 112.841 176.287 115.421 176.122C116.362 176.059 117.287 175.91 118.182 175.777C118.574 175.714 118.958 175.636 119.311 175.542C119.483 175.494 119.648 175.44 119.766 175.385C119.86 175.353 119.883 175.322 119.946 175.283L120.173 174.898C120.275 174.749 120.346 174.585 120.409 174.412C120.471 174.24 120.558 174.083 120.605 173.902L120.738 173.369C121.044 171.934 120.738 170.334 119.891 169.079C119.499 168.538 119.005 168.083 118.44 167.762C117.86 167.472 117.233 167.378 116.605 167.393C115.766 167.44 115.052 167.84 114.488 168.46C114.198 168.766 113.986 169.134 113.774 169.503C113.562 169.879 113.398 170.295 113.319 170.742C113.241 171.291 113.147 171.275 112.911 170.75C112.802 170.491 112.692 170.091 112.66 169.566C112.653 169.307 112.645 169.009 112.715 168.719C112.794 168.429 112.919 168.123 113.1 167.84C113.413 167.338 113.829 166.876 114.331 166.499C114.825 166.123 115.46 165.848 116.064 165.739C117.295 165.425 118.668 165.762 119.687 166.421C121.765 167.785 122.754 170.162 122.699 172.436C122.675 172.781 122.636 173.118 122.605 173.463C122.534 173.801 122.456 174.138 122.369 174.475L122.001 175.447L121.75 175.91L121.624 176.145C121.562 176.24 121.53 176.341 121.436 176.443C121.146 176.859 120.613 177.102 120.299 177.243C119.962 177.377 119.632 177.471 119.311 177.557C118.668 177.714 118.048 177.816 117.421 177.902C114.692 178.224 112.01 178.255 109.32 178.2C107.665 178.161 106.01 178.067 104.355 177.902C103.101 177.769 101.854 177.62 100.583 177.298C100.262 177.22 99.948 177.126 99.6108 176.985C99.454 176.93 99.2657 176.82 99.1011 176.726C98.9207 176.608 98.7717 176.467 98.6384 176.326C98.1286 175.745 97.8463 175.047 97.7679 174.31C97.6424 173.15 98.1913 171.965 99.0069 171.252C99.3912 170.86 99.9794 170.53 100.544 170.405C101.117 170.264 101.713 170.264 102.285 170.381C102.787 170.475 103.265 170.671 103.697 170.946C104.481 171.511 104.787 172.091 104.936 172.475C105.069 172.883 105.03 173.157 104.889 173.401C104.834 173.51 104.779 173.636 104.716 173.706C104.473 173.95 104.042 173.408 103.336 172.836C102.795 172.436 102.199 172.185 101.611 172.161C101.32 172.154 101.038 172.193 100.803 172.287C100.685 172.334 100.583 172.389 100.497 172.452L100.372 172.561L100.207 172.726C99.7755 173.181 99.6186 173.628 99.6657 174.099C99.6892 174.569 100.066 175.11 100.262 175.134C100.622 175.291 101.258 175.432 101.854 175.534C102.465 175.636 103.101 175.714 103.736 175.785C105.014 175.918 106.324 175.981 107.634 176.043V176.098L107.626 176.106Z" fill="black"/>
<path d="M105.049 167.101C105.771 166.411 106.696 165.862 107.715 165.627L108.272 165.493C108.46 165.47 108.649 165.446 108.837 165.446C109.441 165.47 109.958 165.548 110.547 165.674C111.119 165.791 111.707 166.011 112.24 166.364C112.703 166.678 113.166 167.062 113.448 167.54C113.801 168.152 114.005 168.826 113.793 169.477C113.738 169.681 113.605 169.658 113.37 169.548C113.213 169.47 113.056 169.383 112.931 169.321C112.758 169.234 112.586 169.148 112.515 169.03C112.209 168.607 111.856 168.442 111.637 168.23C111.386 168.027 111.033 167.893 110.578 167.666C110.303 167.532 109.982 167.493 109.645 167.485C109.48 167.485 109.307 167.485 109.127 167.485C108.955 167.485 108.845 167.517 108.704 167.509C108.115 167.548 107.504 167.783 106.97 168.207C106.657 168.481 106.335 168.772 106.092 169.14C105.716 169.681 105.378 170.301 105.261 170.967C105.159 171.485 105.276 172.01 105.378 172.489C105.41 172.591 105.457 172.693 105.48 172.795C105.527 173.179 105.378 173.344 104.986 173.571C104.892 173.626 104.814 173.681 104.727 173.728C104.453 173.869 104.092 173.783 103.794 173.422C103.096 172.316 103.135 170.873 103.496 169.611C103.763 168.654 104.312 167.791 105.025 167.054L105.065 167.085L105.049 167.101Z" fill="black"/>
<path d="M154.647 149.8C154.647 149.8 157.636 148.215 158.493 150.407C159.35 152.599 156.832 153.562 155.656 153.403C154.48 153.243 155.459 154.449 154.905 155.489C153.82 157.521 150.028 155.011 149.55 158.705C149.323 160.419 150.225 159.88 150.703 162.004C151.166 164.044 149.338 163.475 146.372 161.913C143.407 160.35 139.311 158.325 140.714 155.223C142.109 152.121 144.082 151.946 145.591 152.212C147.1 152.477 149.088 153.994 150.096 153.729C151.105 153.463 154.647 149.8 154.647 149.8Z" fill="black"/>
<path d="M173.429 146.266C173.3 146.524 172.17 149.065 172.936 149.801C173.702 150.536 175.78 150.726 176.858 150.089C177.935 149.452 178.837 150.68 179.8 151.371C180.764 152.061 182.478 152.652 183.388 151.371C184.298 150.089 185.747 148.632 186.604 149.194C187.461 149.755 186.119 150.938 187.886 150.832C189.653 150.726 191.367 148.959 191.42 146.767C191.473 144.575 193.347 142.86 190.025 142.587C186.703 142.322 184.829 142.83 183.76 144.719C182.69 146.607 182.88 146.562 181.78 146.183C180.68 145.803 176.289 144.415 175.181 144.954C174.074 145.492 173.429 146.266 173.429 146.266Z" fill="black"/>
<path d="M189.513 205.988C185.986 207.778 182.224 208.977 178.393 209.75C174.563 210.517 170.642 210.812 166.743 210.63C163.899 210.509 161.054 210.206 158.278 209.546C153.394 208.385 148.653 206.299 144.724 203.076C142.767 201.468 141.023 199.587 139.612 197.486C138.217 195.385 137.003 193.14 136.252 190.72L135.971 189.931L135.767 189.12L135.357 187.489L135.084 185.835L134.947 185.009L134.879 184.174L134.743 182.506L134.728 180.837C134.682 179.722 134.826 178.622 134.879 177.522C135.471 171.91 137.041 166.289 140.09 161.541C141.19 160.146 141.023 160.343 140.735 161.829C140.682 162.209 140.568 162.649 140.462 163.157C140.401 163.688 140.227 164.226 140.082 164.833C139.908 165.432 139.749 166.085 139.567 166.775C139.369 167.457 139.165 168.178 138.952 168.929C137.215 174.147 136.427 179.684 137.071 185.069C137.724 190.447 140.06 195.582 143.776 199.632C146.029 202.014 148.828 204.001 151.945 205.389C153.485 206.125 155.116 206.663 156.754 207.164C158.407 207.612 160.084 208.014 161.775 208.256C169.216 209.424 176.99 208.719 184.105 206.17C188.481 204.616 192.607 202.287 195.914 199.056C198.425 196.621 200.435 193.671 201.815 190.455C203.203 187.239 203.924 183.757 204.083 180.283C204.182 177.576 203.947 174.891 203.408 172.274C202.854 169.657 202.035 167.116 200.989 164.674C200.511 163.604 199.995 162.58 199.441 161.534C197.371 157.681 196.582 156.535 196.551 155.36C196.529 155.102 196.46 154.791 196.483 154.609C196.506 154.032 198.144 155.117 200.078 157.923C202.892 162.103 204.895 167.017 205.843 172.236C206.306 174.845 206.51 177.53 206.381 180.223C206.245 182.915 205.775 185.608 204.971 188.21C203.765 192.07 201.747 195.696 199.07 198.737C196.362 201.756 193.085 204.214 189.528 206.026L189.498 205.988H189.513Z" fill="black"/>
<path d="M159.83 140.849C160.748 140.531 161.666 140.212 162.614 139.992C163.547 139.719 164.502 139.552 165.45 139.378C166.141 139.211 166.838 139.128 167.536 139.037C170.009 138.801 172.512 138.847 174.954 139.234C175.5 139.287 176.031 139.431 176.577 139.507C177.116 139.605 177.662 139.666 178.185 139.81C178.86 139.977 179.558 140.106 180.233 140.288C180.567 140.402 180.886 140.553 181.204 140.698C181.523 140.842 181.841 140.986 182.107 141.266C182.403 141.691 182.365 141.623 181.902 141.835C181.416 142.093 180.658 142.306 179.915 142.154C177.328 141.426 174.711 140.91 171.996 140.576C171.587 140.531 171.177 140.5 170.76 140.478C170.343 140.478 169.925 140.508 169.508 140.523C169.091 140.553 168.666 140.553 168.249 140.614L166.998 140.773C166.072 140.842 165.185 141.092 164.267 141.259C163.38 141.502 162.47 141.722 161.597 142.025L159.982 142.601C159.458 142.829 158.935 143.056 158.412 143.299C157.615 143.648 156.88 144.111 156.106 144.513C155.363 144.96 154.634 145.438 153.937 145.931C153.413 146.348 152.905 146.773 152.404 147.205C151.927 147.66 151.472 148.146 151.001 148.601C150.789 148.798 150.614 149.026 150.41 149.238C149.644 149.997 149.264 150.103 148.703 149.875C148.582 149.83 148.445 149.799 148.347 149.746C148.028 149.587 148.043 148.957 148.544 148.267C150.061 146.28 152.147 144.596 154.46 143.299C155.294 142.783 156.204 142.389 157.077 141.942C157.532 141.752 157.995 141.57 158.434 141.373C158.882 141.175 159.329 140.971 159.8 140.819L159.815 140.857L159.83 140.849Z" fill="black"/>
<path d="M143.098 151.31C144.296 150.794 145.851 150.695 147.103 151.082C147.725 151.279 148.271 151.537 148.771 151.787C149.219 152.015 149.894 152.371 149.833 152.333C149.879 152.364 149.947 152.417 149.993 152.364C150.03 152.318 150.084 152.288 150.114 152.235L150.311 152.007C150.395 151.916 150.463 151.818 150.539 151.719L150.994 151.128C151.305 150.733 151.623 150.339 151.995 149.959C152.64 149.3 153.345 148.655 154.27 148.162C154.718 147.912 155.256 147.722 155.833 147.638C156.121 147.593 156.432 147.623 156.72 147.623C157.008 147.692 157.319 147.737 157.585 147.843C158.67 148.306 159.42 149.042 159.913 149.982C160.422 150.908 160.581 152.007 160.429 152.963C160.209 154.7 159.398 156.133 158.541 157.438C157.433 159.114 156.03 160.609 154.301 161.632C153.717 161.89 153.739 161.754 153.959 161.223C154.202 160.707 154.634 159.82 155.264 158.963C156.462 157.514 157.517 155.914 158.078 154.29C158.374 153.486 158.472 152.682 158.366 152.023C158.275 151.347 157.896 150.817 157.41 150.255C156.804 149.656 156.159 149.535 155.272 150.02C154.847 150.24 154.414 150.574 154.005 150.953C153.595 151.325 153.201 151.757 152.806 152.189C152.442 152.599 152.078 153.016 151.722 153.464C151.585 153.608 151.449 153.835 151.305 154.01C151.161 154.192 151.001 154.336 150.834 154.45C150.668 154.556 150.463 154.654 150.25 154.647C150.046 154.624 149.833 154.571 149.628 154.533C149.355 154.412 149.014 154.275 148.802 154.192L148.263 153.941C147.914 153.782 147.573 153.623 147.247 153.494C146.587 153.228 145.973 153.062 145.343 153.062C144.016 153.069 142.559 153.828 141.839 155.003C141.558 155.443 141.391 155.929 141.391 156.407C141.384 156.9 141.528 157.309 141.862 157.81C142.446 158.781 143.325 159.585 144.319 160.199C145.889 161.139 147.687 161.602 149.492 161.86C149.894 161.921 150.281 161.943 150.683 161.989C151.426 162.072 151.919 162.118 152.26 162.247C152.602 162.406 152.799 162.573 152.966 162.831C153.042 162.945 153.14 163.058 153.186 163.172C153.262 163.362 153.14 163.521 152.844 163.688C152.549 163.855 152.071 164.022 151.464 164.022C149.666 164.06 147.801 163.802 145.965 163.203C145.047 162.892 144.145 162.497 143.272 161.981C142.408 161.45 141.581 160.798 140.853 160.002C140.61 159.683 140.329 159.395 140.125 159.038C139.912 158.69 139.692 158.379 139.495 157.863C139.139 156.9 139.161 155.8 139.48 154.912C139.791 154.01 140.307 153.266 140.921 152.66C141.535 152.053 142.256 151.56 143.06 151.234L143.083 151.287L143.098 151.31Z" fill="black"/>
<path d="M187.382 143.043C186.562 143.18 185.948 143.498 185.379 144.097C185.076 144.386 184.788 144.75 184.492 145.167C184.173 145.629 183.976 145.887 183.324 146.79L182.838 147.215C182.656 147.321 182.429 147.382 182.231 147.389C182.027 147.404 181.814 147.366 181.594 147.306C181.374 147.245 181.147 147.124 180.927 147.055L180.525 146.911C180.411 146.866 180.297 146.835 180.176 146.798L179.493 146.593L178.158 146.229C176.634 145.819 175.056 145.736 174.442 146.562C174.093 146.972 173.888 147.708 173.858 148.352C173.82 149.005 174.009 149.687 174.449 150.287C175.178 151.394 176.497 152.168 177.794 152.752C178.644 153.138 179.546 153.412 180.449 153.662C181.352 153.942 182.269 154.178 183.195 154.39C183.771 154.595 183.695 154.686 183.164 154.921C182.626 155.156 181.602 155.399 180.426 155.277C178.378 154.928 176.346 154.307 174.472 153.04C173.547 152.418 172.652 151.53 172.113 150.332C171.575 149.134 171.544 147.677 172.037 146.517C172.318 145.804 172.826 145.061 173.532 144.56C174.245 144.037 175.079 143.877 175.807 143.832C176.55 143.786 177.241 143.87 177.901 143.999C178.56 144.12 179.182 144.302 179.782 144.507L181.405 145.076C181.526 145.129 181.602 145.152 181.708 145.197C181.754 145.212 181.822 145.22 181.86 145.19C181.89 145.152 181.92 145.106 181.958 145.068C182.019 145.008 182.027 144.992 182.118 144.863L182.429 144.386C182.641 144.059 182.853 143.718 183.104 143.377C183.582 142.687 184.249 142.012 185.061 141.556C186.798 140.616 188.853 140.586 190.582 141.443C191.235 141.769 191.841 142.262 192.243 142.937C192.456 143.263 192.585 143.635 192.683 144.014C192.759 144.408 192.767 144.75 192.767 145.091C192.767 146.464 192.403 147.784 191.864 148.982C191.015 150.833 189.892 152.486 188.527 153.942C188.231 154.261 187.935 154.58 187.602 154.875C186.987 155.421 186.54 155.732 186.16 155.861C185.781 155.983 185.485 155.945 185.205 155.831C185.076 155.778 184.932 155.74 184.833 155.672C184.674 155.558 184.681 155.346 184.818 155.057C184.962 154.769 185.197 154.367 185.599 154.003C186.76 152.858 187.859 151.606 188.777 150.256C189.225 149.574 189.627 148.876 189.953 148.163C190.256 147.442 190.484 146.714 190.59 145.986C190.59 145.72 190.658 145.447 190.635 145.19C190.628 144.924 190.62 144.636 190.59 144.507C190.506 144.204 190.355 143.923 190.036 143.673C189.422 143.157 188.314 142.929 187.389 143.126L187.374 143.073L187.382 143.043Z" fill="black"/>
<path d="M175.783 174.162L174.418 174.655C173.97 174.829 173.485 174.905 173.022 175.027C172.552 175.133 172.089 175.277 171.612 175.338L170.186 175.527C169.495 175.649 168.798 175.687 168.107 175.717C165.65 175.717 163.2 175.345 160.924 174.511C160.409 174.374 159.916 174.147 159.415 173.957C158.922 173.745 158.391 173.616 157.928 173.35C157.329 173.024 156.7 172.744 156.116 172.38C155.85 172.152 155.577 171.947 155.342 171.689C155.115 171.431 154.887 171.174 154.659 170.908C154.386 170.574 154.538 170.483 154.993 170.461C155.221 170.445 155.532 170.438 155.888 170.438C156.063 170.438 156.252 170.438 156.434 170.461C156.609 170.498 156.776 170.544 156.942 170.62C157.549 170.84 158.103 171.128 158.672 171.386L159.097 171.591C159.248 171.644 159.392 171.704 159.536 171.758L160.409 172.114C160.978 172.387 161.584 172.546 162.191 172.751C162.495 172.85 162.79 172.964 163.101 173.055L164.034 173.282C164.406 173.373 164.793 173.472 165.18 173.525C165.566 173.555 165.961 173.578 166.363 173.601C167.152 173.677 167.948 173.578 168.737 173.555C168.957 173.548 169.177 173.555 169.389 173.525L170.034 173.434L171.331 173.259C171.756 173.168 172.18 173.055 172.605 172.948C173.03 172.842 173.462 172.759 173.864 172.584L175.381 172.023L176.822 171.287C177.194 171.113 177.535 170.885 177.869 170.65L178.885 169.96C179.212 169.717 179.5 169.421 179.803 169.148C180.091 168.86 180.425 168.61 180.675 168.291C181.07 167.798 181.434 167.29 181.783 166.782L182.617 165.128C182.754 164.893 182.814 164.635 182.913 164.378C183.285 163.445 183.671 163.263 184.24 163.232C184.369 163.232 184.506 163.202 184.62 163.209C184.817 163.225 184.946 163.361 185.022 163.604C185.097 163.847 185.143 164.211 185.044 164.62C184.824 165.879 184.157 167.002 183.505 168.14C183.11 168.663 182.708 169.194 182.283 169.71C181.859 170.218 181.335 170.643 180.85 171.113C180.668 171.28 180.493 171.454 180.296 171.606L179.689 172.038L178.468 172.888L177.156 173.586C176.716 173.813 176.284 174.056 175.821 174.215L175.798 174.17L175.783 174.162Z" fill="black"/>
<path d="M190.609 134.068C190.723 134.182 190.617 134.364 190.427 134.577C190.366 134.645 190.139 134.744 190.086 134.721C189.98 134.675 189.873 134.63 189.775 134.577C189.722 134.539 189.107 133.894 188.849 133.689C188.629 133.477 188.501 133.234 188.356 132.984C188.099 132.476 187.772 131.99 187.568 131.459C187.515 131.345 187.492 131.217 187.484 131.088C187.454 130.633 187.31 130.231 187.113 129.836C187.082 129.768 187.067 129.7 186.976 129.654C186.817 129.586 186.407 128.478 186.422 128.312C186.422 127.91 186.46 127.508 186.468 127.113C186.468 127.06 186.43 127.007 186.498 126.939C186.665 126.772 186.597 126.673 186.589 126.552C186.589 126.468 186.589 126.362 186.619 126.362C186.665 126.347 186.764 126.302 186.824 126.264C186.877 126.241 186.938 126.195 186.976 126.165C187.014 126.135 187.037 126.104 187.052 126.089V126.074V126.097V126.112L186.999 126.484C186.999 126.484 187.029 126.484 186.991 126.468C186.946 126.453 186.991 126.484 186.817 126.408C186.748 126.37 186.711 126.347 186.635 126.264C186.574 126.18 186.528 126.074 186.521 125.975C186.521 125.907 186.528 125.862 186.544 125.809C186.589 125.718 186.619 125.71 186.657 125.695C186.733 125.672 186.794 125.657 186.855 125.642C186.961 125.611 187.082 125.71 187.097 125.748C187.128 125.839 187.234 125.824 187.302 125.846C187.325 125.854 187.355 125.869 187.378 125.877C187.393 125.877 187.408 125.983 187.492 126.059C187.423 126.029 187.34 125.998 187.264 125.968L187.143 125.938C187.143 125.938 187.105 125.922 187.09 125.922C187.044 125.922 187.029 125.922 187.029 125.922C187.037 125.915 187.044 125.9 187.037 125.892C187.226 124.891 187.09 125.611 187.135 125.391H187.128L187.113 125.384C187.097 125.353 187.348 125.369 187.461 125.437C187.742 125.573 187.825 125.725 187.924 125.824L188.038 125.96L188.129 126.029C188.19 126.074 188.235 126.112 188.273 126.157C188.349 126.233 188.41 126.294 188.417 126.324C188.417 126.332 188.576 126.635 188.743 126.954C188.925 127.265 189.062 127.599 189.107 127.659C189.153 127.728 189.122 127.819 189.122 127.902C189.122 127.94 189.6 128.88 189.608 128.926C189.653 129.138 189.79 129.32 189.691 129.586C189.669 129.639 189.691 129.677 189.714 129.715C189.866 130.056 189.919 130.435 190.01 130.799C190.063 130.981 190.124 131.163 190.184 131.345C190.192 131.376 190.184 131.421 190.184 131.459C190.184 131.505 190.177 131.558 190.184 131.596C190.336 132.021 190.404 132.483 190.609 132.893C190.639 132.991 190.602 133.553 190.655 133.659C190.677 133.72 190.548 134.023 190.602 134.068H190.609Z" fill="black"/>
<path d="M194.463 134.213C194.508 134.312 194.349 134.335 194.076 134.327C193.985 134.327 193.734 134.259 193.704 134.221C193.643 134.16 193.583 134.092 193.545 134.031C193.522 133.993 193.477 133.5 193.446 133.326C193.416 133.159 193.431 133 193.461 132.848C193.514 132.537 193.568 132.218 193.621 131.907C193.636 131.839 193.659 131.771 193.712 131.718C193.894 131.528 193.97 131.301 194.023 131.065C194.03 131.028 194.053 130.99 194.015 130.937C193.954 130.846 194.152 130.224 194.258 130.17C194.455 130.026 194.614 129.867 194.789 129.715C194.811 129.693 194.811 129.655 194.88 129.655C195.047 129.655 195.047 129.586 195.092 129.541C195.16 129.473 195.229 129.412 195.32 129.351C195.365 129.321 195.456 129.313 195.524 129.306C195.593 129.291 195.744 129.389 195.76 129.404C195.798 129.465 195.889 129.473 195.957 129.495C195.98 129.503 196.01 129.518 196.033 129.526C196.048 129.541 196.298 130.186 196.268 130.231C196.268 130.231 196.237 130.421 196.215 130.618C196.192 130.815 196.169 131.02 196.177 131.058C196.177 131.103 196.124 131.126 196.086 131.156C196.063 131.172 195.98 131.741 195.972 131.763C195.911 131.862 195.926 131.998 195.76 132.059C195.729 132.074 195.722 132.097 195.722 132.12C195.676 132.317 195.555 132.484 195.433 132.658C195.373 132.749 195.35 132.848 195.312 132.947C195.305 132.962 195.282 132.977 195.267 132.992C195.244 133.007 195.221 133.03 195.213 133.053C195.13 133.28 194.978 133.493 194.94 133.735C194.925 133.788 194.705 134.008 194.698 134.077C194.698 134.115 194.47 134.175 194.493 134.221L194.463 134.213Z" fill="black"/>
<path d="M199.491 137.586C199.446 137.737 199.249 137.669 198.968 137.495C198.877 137.434 198.688 137.199 198.688 137.146C198.688 137.032 198.687 136.918 198.71 136.82C198.725 136.767 199.15 136.137 199.279 135.902C199.408 135.682 199.567 135.5 199.734 135.325L200.804 134.324C200.887 134.248 200.978 134.195 201.084 134.15C201.441 133.998 201.729 133.755 201.979 133.482C202.025 133.437 202.078 133.407 202.078 133.315C202.078 133.171 202.836 132.489 202.988 132.474C203.329 132.375 203.633 132.231 203.951 132.102C203.997 132.087 204.02 132.034 204.103 132.072C204.293 132.147 204.361 132.072 204.46 132.034C204.589 131.973 204.725 131.92 204.877 131.874C204.953 131.852 205.059 131.874 205.15 131.874C205.233 131.874 205.324 132.041 205.324 132.072C205.317 132.155 205.415 132.193 205.468 132.254C205.484 132.276 205.514 132.299 205.521 132.314C205.529 132.337 205.248 133.247 205.21 133.338C205.21 133.376 204.422 134.256 204.353 134.377C204.315 134.438 204.24 134.453 204.171 134.484C204.141 134.499 203.504 135.197 203.474 135.212C203.307 135.318 203.2 135.492 202.95 135.492C202.905 135.492 202.874 135.523 202.852 135.553C202.609 135.781 202.313 135.947 202.025 136.129C201.881 136.22 201.759 136.342 201.63 136.448C201.608 136.471 201.57 136.471 201.539 136.478C201.501 136.494 201.456 136.501 201.426 136.524C201.13 136.797 200.743 136.964 200.462 137.252C200.394 137.313 199.931 137.457 199.863 137.54C199.818 137.586 199.522 137.54 199.507 137.593L199.491 137.586Z" fill="black"/>
<rect x="83.7578" y="61.277" width="174.161" height="7.22578" rx="1.5" fill="#2E2E2E" stroke="#1C1C1C"/>
<rect x="83.7578" y="74.3396" width="174.161" height="7.22578" rx="1.5" fill="#2E2E2E" stroke="#1C1C1C"/>
<rect x="230.352" y="156.581" width="188.677" height="188.677" rx="1.5" fill="#2E2E2E" stroke="#1C1C1C"/>
<rect x="237.609" y="163.839" width="174.161" height="145.612" rx="1.5" fill="#FF414C" stroke="#2E2E2E"/>
<path d="M248.489 179.029C248.223 179.029 247.988 178.987 247.785 178.901C247.586 178.815 247.428 178.698 247.311 178.549C247.198 178.395 247.132 178.214 247.114 178.007H247.846C247.864 178.129 247.929 178.228 248.042 178.305C248.155 178.377 248.304 178.413 248.489 178.413H248.781C249.002 178.413 249.169 178.368 249.282 178.278C249.395 178.187 249.451 178.068 249.451 177.919C249.451 177.774 249.399 177.661 249.296 177.58C249.196 177.494 249.047 177.438 248.849 177.41L248.368 177.336C247.97 177.273 247.677 177.16 247.487 176.997C247.302 176.83 247.209 176.584 247.209 176.259C247.209 175.916 247.32 175.651 247.541 175.466C247.767 175.277 248.099 175.182 248.537 175.182H248.794C249.183 175.182 249.492 175.272 249.722 175.453C249.957 175.629 250.09 175.866 250.122 176.164H249.39C249.372 176.056 249.311 175.968 249.208 175.9C249.108 175.832 248.97 175.798 248.794 175.798H248.537C248.325 175.798 248.169 175.839 248.069 175.92C247.975 175.997 247.927 176.112 247.927 176.266C247.927 176.401 247.97 176.503 248.056 176.57C248.142 176.638 248.275 176.686 248.456 176.713L248.95 176.794C249.37 176.853 249.677 176.97 249.871 177.146C250.07 177.318 250.169 177.569 250.169 177.898C250.169 178.255 250.052 178.533 249.817 178.731C249.587 178.93 249.241 179.029 248.781 179.029H248.489ZM252.809 179.036C252.362 179.036 252.005 178.908 251.738 178.65C251.472 178.388 251.339 178.034 251.339 177.587V175.243H252.07V177.587C252.07 177.844 252.136 178.045 252.267 178.189C252.398 178.329 252.578 178.399 252.809 178.399C253.044 178.399 253.226 178.329 253.357 178.189C253.493 178.045 253.561 177.844 253.561 177.587V175.243H254.292V177.587C254.292 178.034 254.157 178.388 253.886 178.65C253.619 178.908 253.26 179.036 252.809 179.036ZM255.55 180.188V175.243H256.274V175.954H256.43L256.274 176.123C256.274 175.83 256.365 175.599 256.545 175.432C256.731 175.261 256.977 175.175 257.284 175.175C257.659 175.175 257.957 175.301 258.178 175.554C258.404 175.803 258.517 176.144 258.517 176.577V177.627C258.517 177.916 258.465 178.167 258.361 178.379C258.262 178.587 258.119 178.749 257.934 178.867C257.754 178.98 257.537 179.036 257.284 179.036C256.981 179.036 256.737 178.953 256.552 178.786C256.367 178.614 256.274 178.381 256.274 178.088L256.43 178.257H256.261L256.281 179.124V180.188H255.55ZM257.033 178.399C257.273 178.399 257.458 178.332 257.589 178.196C257.724 178.056 257.792 177.855 257.792 177.593V176.618C257.792 176.356 257.724 176.157 257.589 176.022C257.458 175.882 257.273 175.812 257.033 175.812C256.803 175.812 256.62 175.884 256.484 176.029C256.349 176.169 256.281 176.365 256.281 176.618V177.593C256.281 177.846 256.349 178.045 256.484 178.189C256.62 178.329 256.803 178.399 257.033 178.399ZM261.21 179.036C260.908 179.036 260.641 178.978 260.411 178.86C260.185 178.738 260.011 178.569 259.889 178.352C259.767 178.135 259.706 177.882 259.706 177.593V176.618C259.706 176.324 259.767 176.071 259.889 175.859C260.011 175.642 260.185 175.475 260.411 175.358C260.641 175.236 260.908 175.175 261.21 175.175C261.517 175.175 261.784 175.236 262.01 175.358C262.235 175.475 262.409 175.642 262.531 175.859C262.653 176.071 262.714 176.324 262.714 176.618V177.282H260.411V177.593C260.411 177.869 260.479 178.079 260.614 178.223C260.754 178.368 260.955 178.44 261.217 178.44C261.429 178.44 261.601 178.404 261.732 178.332C261.863 178.255 261.944 178.144 261.976 178H262.701C262.646 178.316 262.484 178.569 262.213 178.759C261.942 178.944 261.608 179.036 261.21 179.036ZM262.01 176.841V176.611C262.01 176.34 261.942 176.13 261.806 175.981C261.671 175.832 261.472 175.758 261.21 175.758C260.953 175.758 260.754 175.832 260.614 175.981C260.479 176.13 260.411 176.342 260.411 176.618V176.787L262.064 176.78L262.01 176.841ZM264.066 178.969V175.243H264.771V175.954H264.947L264.723 176.394C264.723 175.992 264.811 175.69 264.988 175.487C265.164 175.279 265.426 175.175 265.773 175.175C266.171 175.175 266.485 175.299 266.715 175.548C266.95 175.791 267.067 176.128 267.067 176.557V176.808H266.315V176.618C266.315 176.351 266.248 176.148 266.112 176.008C265.981 175.864 265.796 175.791 265.557 175.791C265.317 175.791 265.13 175.864 264.994 176.008C264.863 176.153 264.798 176.356 264.798 176.618V178.969H264.066ZM269.632 179.036C269.325 179.036 269.054 178.98 268.819 178.867C268.589 178.749 268.41 178.582 268.284 178.366C268.162 178.144 268.101 177.887 268.101 177.593V176.618C268.101 176.32 268.162 176.062 268.284 175.846C268.41 175.629 268.589 175.464 268.819 175.351C269.054 175.234 269.325 175.175 269.632 175.175C270.079 175.175 270.438 175.292 270.709 175.527C270.98 175.762 271.122 176.083 271.136 176.489H270.404C270.391 176.277 270.316 176.112 270.181 175.995C270.045 175.877 269.862 175.819 269.632 175.819C269.384 175.819 269.187 175.889 269.043 176.029C268.898 176.164 268.826 176.358 268.826 176.611V177.593C268.826 177.846 268.898 178.043 269.043 178.183C269.187 178.323 269.384 178.393 269.632 178.393C269.862 178.393 270.045 178.334 270.181 178.217C270.316 178.099 270.391 177.934 270.404 177.722H271.136C271.122 178.129 270.98 178.449 270.709 178.684C270.438 178.919 270.079 179.036 269.632 179.036ZM274.337 178.969C274.107 178.969 273.906 178.923 273.734 178.833C273.563 178.738 273.427 178.605 273.328 178.433C273.233 178.262 273.186 178.063 273.186 177.837V174.687H271.966V174.023H273.917V177.837C273.917 177.982 273.958 178.097 274.039 178.183C274.121 178.264 274.231 178.305 274.371 178.305H275.523V178.969H274.337ZM278 179.029C277.692 179.029 277.426 178.971 277.2 178.853C276.974 178.736 276.801 178.569 276.679 178.352C276.557 178.135 276.496 177.88 276.496 177.587V176.625C276.496 176.327 276.557 176.071 276.679 175.859C276.801 175.642 276.974 175.475 277.2 175.358C277.426 175.24 277.692 175.182 278 175.182C278.307 175.182 278.573 175.24 278.799 175.358C279.025 175.475 279.199 175.642 279.321 175.859C279.442 176.071 279.503 176.327 279.503 176.625V177.587C279.503 177.88 279.442 178.135 279.321 178.352C279.199 178.569 279.025 178.736 278.799 178.853C278.573 178.971 278.307 179.029 278 179.029ZM278 178.386C278.248 178.386 278.44 178.318 278.575 178.183C278.711 178.043 278.779 177.844 278.779 177.587V176.625C278.779 176.363 278.711 176.164 278.575 176.029C278.44 175.893 278.248 175.825 278 175.825C277.756 175.825 277.564 175.893 277.424 176.029C277.288 176.164 277.221 176.363 277.221 176.625V177.587C277.221 177.844 277.288 178.043 277.424 178.183C277.564 178.318 277.756 178.386 278 178.386ZM282.19 179.036C281.743 179.036 281.386 178.908 281.12 178.65C280.853 178.388 280.72 178.034 280.72 177.587V175.243H281.452V177.587C281.452 177.844 281.517 178.045 281.648 178.189C281.779 178.329 281.96 178.399 282.19 178.399C282.425 178.399 282.608 178.329 282.739 178.189C282.874 178.045 282.942 177.844 282.942 177.587V175.243H283.674V177.587C283.674 178.034 283.538 178.388 283.267 178.65C283.001 178.908 282.642 179.036 282.19 179.036ZM286.13 179.036C285.755 179.036 285.455 178.91 285.229 178.657C285.003 178.404 284.89 178.063 284.89 177.634V176.584C284.89 176.15 285.003 175.807 285.229 175.554C285.455 175.301 285.755 175.175 286.13 175.175C286.437 175.175 286.681 175.261 286.862 175.432C287.042 175.599 287.133 175.83 287.133 176.123L286.977 175.954H287.146L287.126 175.087V174.023H287.857V178.969H287.133V178.257H286.977L287.133 178.088C287.133 178.381 287.042 178.614 286.862 178.786C286.681 178.953 286.437 179.036 286.13 179.036ZM286.381 178.399C286.611 178.399 286.792 178.329 286.923 178.189C287.058 178.045 287.126 177.846 287.126 177.593V176.618C287.126 176.365 287.058 176.169 286.923 176.029C286.792 175.884 286.611 175.812 286.381 175.812C286.141 175.812 285.954 175.882 285.818 176.022C285.683 176.157 285.615 176.356 285.615 176.618V177.593C285.615 177.855 285.683 178.056 285.818 178.196C285.954 178.332 286.141 178.399 286.381 178.399Z" fill="black"/>
<path d="M300.675 219.886C300.675 206.801 311.511 197.702 327.254 197.702C342.384 197.702 351.994 206.085 352.403 219.579H339.317C339.011 213.139 334.41 209.356 327.05 209.356C318.974 209.356 313.76 213.241 313.76 219.477C313.76 224.793 316.623 227.758 322.859 229.189L334.615 231.744C347.393 234.505 353.629 241.047 353.629 252.19C353.629 266.093 342.793 275.089 326.334 275.089C310.387 275.089 299.959 266.604 299.653 253.212H312.738C312.84 259.551 317.952 263.333 326.334 263.333C335.024 263.333 340.544 259.551 340.544 253.315C340.544 248.305 337.988 245.341 331.855 244.012L319.996 241.354C307.32 238.594 300.675 231.336 300.675 219.886Z" fill="black"/>
<rect x="237.609" y="315.773" width="174.161" height="5.2903" rx="1.5" fill="#2E2E2E" stroke="#1C1C1C"/>
<rect x="237.609" y="332.228" width="174.161" height="5.2903" rx="1.5" fill="#2E2E2E" stroke="#1C1C1C"/>
<rect x="237.609" y="324.483" width="8.49381" height="4.32256" rx="1.5" fill="#2E2E2E" stroke="#1C1C1C"/>
<rect x="249" y="324.483" width="8.49381" height="4.32256" rx="1.5" fill="#2E2E2E" stroke="#1C1C1C"/>
<rect x="260.867" y="324.483" width="8.49381" height="4.32256" rx="1.5" fill="#2E2E2E" stroke="#1C1C1C"/>
<rect x="272.734" y="324.483" width="8.49381" height="4.32256" rx="1.5" fill="#2E2E2E" stroke="#1C1C1C"/>
<rect x="320.203" y="324.483" width="8.49381" height="4.32256" rx="1.5" fill="#2E2E2E" stroke="#1C1C1C"/>
<rect x="367.672" y="324.483" width="8.49381" height="4.32256" rx="1.5" fill="#2E2E2E" stroke="#1C1C1C"/>
<rect x="284.602" y="324.483" width="8.49381" height="4.32256" rx="1.5" fill="#2E2E2E" stroke="#1C1C1C"/>
<rect x="332.07" y="324.483" width="8.49381" height="4.32256" rx="1.5" fill="#2E2E2E" stroke="#1C1C1C"/>
<rect x="379.539" y="324.483" width="8.49381" height="4.32256" rx="1.5" fill="#2E2E2E" stroke="#1C1C1C"/>
<rect x="296.469" y="324.483" width="8.49381" height="4.32256" rx="1.5" fill="#2E2E2E" stroke="#1C1C1C"/>
<rect x="343.938" y="324.483" width="8.49381" height="4.32256" rx="1.5" fill="#2E2E2E" stroke="#1C1C1C"/>
<rect x="391.406" y="324.483" width="8.49381" height="4.32256" rx="1.5" fill="#2E2E2E" stroke="#1C1C1C"/>
<rect x="308.336" y="324.483" width="8.49381" height="4.32256" rx="1.5" fill="#2E2E2E" stroke="#1C1C1C"/>
<rect x="355.805" y="324.483" width="8.49381" height="4.32256" rx="1.5" fill="#2E2E2E" stroke="#1C1C1C"/>
<rect x="403.273" y="324.483" width="8.49381" height="4.32256" rx="1.5" fill="#2E2E2E" stroke="#1C1C1C"/>
<g filter="url(#filter0_d_3351_40230)">
<path fill-rule="evenodd" clip-rule="evenodd" d="M421.107 299.512C422.248 299.976 422.161 301.62 420.977 301.96L415.002 303.678L412.273 309.264C411.732 310.371 410.098 310.171 409.84 308.966L407.058 295.994C406.839 294.976 407.849 294.128 408.814 294.52L421.107 299.512Z" fill="white"/>
<path fill-rule="evenodd" clip-rule="evenodd" d="M421.107 299.512C422.248 299.976 422.161 301.62 420.977 301.96L415.002 303.678L412.273 309.264C411.732 310.371 410.098 310.171 409.84 308.966L407.058 295.994C406.839 294.976 407.849 294.128 408.814 294.52L421.107 299.512Z" stroke="black" stroke-width="1.42137"/>
</g>
</g>
<rect x="0.5" y="0.5" width="577" height="399" rx="5.5" stroke="#2E2E2E"/>
<defs>
<filter id="filter0_d_3351_40230" x="404.377" y="293.71" width="20.1835" height="20.8633" filterUnits="userSpaceOnUse" color-interpolation-filters="sRGB">
<feFlood flood-opacity="0" result="BackgroundImageFix"/>
<feColorMatrix in="SourceAlpha" type="matrix" values="0 0 0 0 0 0 0 0 0 0 0 0 0 0 0 0 0 0 127 0" result="hardAlpha"/>
<feOffset dy="1.93548"/>
<feGaussianBlur stdDeviation="0.967739"/>
<feComposite in2="hardAlpha" operator="out"/>
<feColorMatrix type="matrix" values="0 0 0 0 0 0 0 0 0 0 0 0 0 0 0 0 0 0 0.25 0"/>
<feBlend mode="normal" in2="BackgroundImageFix" result="effect1_dropShadow_3351_40230"/>
<feBlend mode="normal" in="SourceGraphic" in2="effect1_dropShadow_3351_40230" result="shape"/>
</filter>
<clipPath id="clip0_3351_40230">
<rect width="578" height="400" rx="6" fill="white"/>
</clipPath>
</defs>
</svg>
