<svg id="img" width="24" height="24" viewBox="0 0 19 20" fill="none" xmlns="http://www.w3.org/2000/svg">
<path d="M9.56567 1.89612C9.64621 1.67846 9.95388 1.67846 10.0344 1.89612L11.9084 6.95959C12.0857 7.43825 12.463 7.81553 12.9417 7.9928L18.0051 9.86682C18.2228 9.94736 18.2228 10.255 18.0051 10.3356L12.9417 12.2096C12.463 12.3869 12.0857 12.7641 11.9084 13.2428L10.0344 18.3063C9.95388 18.5239 9.64621 18.5239 9.56567 18.3063L7.69165 13.2428C7.51439 12.7641 7.1371 12.3869 6.65845 12.2096L1.59497 10.3356C1.37732 10.255 1.37732 9.94736 1.59497 9.86682L6.65845 7.9928C7.1371 7.81553 7.51439 7.43825 7.69165 6.95959L9.56567 1.89612Z" stroke="currentColor" stroke-width="1.5"/>
</svg>
