<svg id="img"  width="24" height="24" viewBox="0 0 24 24" stroke="currentColor" fill="none" xmlns="http://www.w3.org/2000/svg"><path d="M3.33594 16V8C3.33594 5.23858 5.57451 3 8.33594 3H16.3359C19.0974 3 21.3359 5.23858 21.3359 8V16C21.3359 18.7614 19.0974 21 16.3359 21H8.33594C5.57451 21 3.33594 18.7614 3.33594 16Z"  stroke-width="1.5"/>
<path d="M16.8359 14.5C16.8359 14.5 15.3359 16.5 12.3359 16.5C9.33594 16.5 7.83594 14.5 7.83594 14.5"  stroke-width="1.5" stroke-linecap="round" stroke-linejoin="round"/>
<path d="M8.83594 10C8.5598 10 8.33594 9.77614 8.33594 9.5C8.33594 9.22386 8.5598 9 8.83594 9C9.11208 9 9.33594 9.22386 9.33594 9.5C9.33594 9.77614 9.11208 10 8.83594 10Z" fill="#11181C"  stroke-width="1.5" stroke-linecap="round" stroke-linejoin="round"/>
<path d="M15.8359 10C15.5598 10 15.3359 9.77614 15.3359 9.5C15.3359 9.22386 15.5598 9 15.8359 9C16.1121 9 16.3359 9.22386 16.3359 9.5C16.3359 9.77614 16.1121 10 15.8359 10Z" fill="#11181C"  stroke-width="1.5" stroke-linecap="round" stroke-linejoin="round"/>
</svg>
