<svg id="img"  width="24" height="24" viewBox="0 0 24 24" stroke="currentColor" fill="none" xmlns="http://www.w3.org/2000/svg">
<path d="M12.6641 22C18.1869 22 22.6641 17.5228 22.6641 12C22.6641 6.47715 18.1869 2 12.6641 2C7.14121 2 2.66406 6.47715 2.66406 12C2.66406 17.5228 7.14121 22 12.6641 22Z"  strokeWidth="1.5" strokeLinecap="round" strokeLinejoin="round"/>
<path d="M3.16406 12.5L8.66406 14.5L7.66406 18L8.66406 21"  strokeWidth="1.5" strokeLinecap="round" strokeLinejoin="round"/>
<path d="M17.6641 20.5L17.1641 18L14.6641 17V13.5L17.6641 12.5L22.1641 13"  strokeWidth="1.5" strokeLinecap="round" strokeLinejoin="round"/>
<path d="M19.6641 5.5L19.1641 7L15.6641 7.5V10.5L18.1641 9.5H20.1641L22.1641 10.5"  strokeWidth="1.5" strokeLinecap="round" strokeLinejoin="round"/>
<path d="M3.16406 10.5L5.66406 8.5L8.16406 8L10.1641 5L9.16406 3"  strokeWidth="1.5" strokeLinecap="round" strokeLinejoin="round"/>

</svg>
