<svg id="img"  width="24" height="24" viewBox="0 0 24 24" stroke="currentColor" fill="none" xmlns="http://www.w3.org/2000/svg">
<svg width="25" height="24" viewBox="0 0 25 24" fill="none" xmlns="http://www.w3.org/2000/svg">
<path d="M6.66406 18.01L6.67406 17.9989"  stroke-width="1.5" stroke-linecap="round" stroke-linejoin="round"/>
<path d="M6.66406 6.01L6.67406 5.99889"  stroke-width="1.5" stroke-linecap="round" stroke-linejoin="round"/>
<path d="M2.66406 9.4V2.6C2.66406 2.26863 2.93269 2 3.26406 2H22.0641C22.3954 2 22.6641 2.26863 22.6641 2.6V9.4C22.6641 9.73137 22.3954 10 22.0641 10H3.26406C2.93269 10 2.66406 9.73137 2.66406 9.4Z"  stroke-width="1.5"/>
<path d="M2.66406 21.4V14.6C2.66406 14.2686 2.93269 14 3.26406 14H22.0641C22.3954 14 22.6641 14.2686 22.6641 14.6V21.4C22.6641 21.7314 22.3954 22 22.0641 22H3.26406C2.93269 22 2.66406 21.7314 2.66406 21.4Z"  stroke-width="1.5"/>
</svg>

</svg>
